<?xml version="1.0" encoding="UTF-8"?>
<svg width="161px" height="28px" viewBox="0 0 161 28" version="1.1" xmlns="http://www.w3.org/2000/svg" xmlns:xlink="http://www.w3.org/1999/xlink">
    <!-- Generator: Sketch 52.2 (67145) - http://www.bohemiancoding.com/sketch -->
    <title>SwG-ARABIC-OW </title>
    <desc>Created with Sketch.</desc>
    <g id="SwG-ARABIC-OW-" stroke="none" stroke-width="1" fill="none" fill-rule="evenodd">
        <path d="M160.34167,14.7350814 L158.771598,16.960217 L158.771598,3.47423146 L160.34167,1.57142857 L160.34167,14.7350814 Z M154.903605,14.0072333 C154.903605,15.0608853 154.841219,15.9134989 154.716444,16.5650995 C154.120299,16.9394232 153.603879,17.1265823 153.167168,17.1265823 C151.545098,17.1265823 150.200326,16.8493096 149.13281,16.2947559 C148.113817,16.7730584 147.150295,17.0122061 146.242213,17.0122061 C144.862761,17.0122061 143.66009,16.8007857 142.634166,16.3779385 C142.308366,16.7661261 141.486945,16.960217 140.16988,16.960217 L137.830368,16.960217 L137.205199,14.9638336 C137.253722,14.9915613 138.059119,15.005425 138.371056,15.005425 C140.714045,15.005425 141.996431,14.8806522 142.218253,14.6311031 C142.329163,14.5063285 142.384618,14.2151922 142.384618,13.7576854 C142.384618,13.4873404 142.353425,13.2204655 142.291037,12.9570524 L143.746734,11.3869801 C143.760598,11.5117547 143.772728,11.6746524 143.783126,11.8756781 C143.793524,12.0767038 143.798723,12.3158515 143.798723,12.5931284 C143.798723,12.6971072 143.77966,12.8513401 143.741535,13.0558318 C143.703409,13.2603235 143.663551,13.4734769 143.62196,13.6952984 C143.580368,13.9171199 143.542243,14.1198755 143.507584,14.3035714 C143.472924,14.4872673 143.455594,14.6103071 143.455594,14.6726944 C143.47639,14.707354 143.545708,14.745479 143.663551,14.7870705 C144.238901,14.9811643 145.039525,15.0782098 146.06545,15.0782098 L146.658126,15.0782098 C148.037578,15.0782098 148.779283,14.9984939 148.883262,14.8390597 C148.959513,14.7420128 148.997638,14.4578083 148.997638,13.9864376 C148.997638,13.5289308 148.973376,13.216999 148.924853,13.0506329 L150.442936,11.5117541 C150.42214,11.8930097 150.397879,12.2794586 150.370151,12.6711121 C150.342424,13.0627657 150.307765,13.466544 150.266173,13.8824593 C150.238445,14.1042808 150.176059,14.3711558 150.079012,14.6830922 L150.068614,14.7246835 C150.068614,14.9950285 150.619694,15.1301989 151.721869,15.1301989 C152.810181,15.1301989 153.354329,14.859858 153.354329,14.3191682 C153.354329,13.5566568 153.198363,13.0298387 152.886426,12.738698 L154.466896,11.3245931 C154.758037,12.2118791 154.903605,13.1060835 154.903605,14.0072333 Z M150.754871,4.8363472 L149.808669,6.58318264 L147.448361,5.15867993 L148.352972,3.49502712 L150.754871,4.8363472 Z M147.011652,8.27802893 L147.874672,6.63517179 L150.151797,7.99728752 L149.257584,9.66094033 L147.011652,8.27802893 Z M152.480911,9.38019892 L150.151797,7.99728752 L150.962828,6.44801085 L153.302339,7.83092224 L152.480911,9.38019892 Z M139.274367,16.960217 L137.830368,16.960217 L137.205199,14.9638336 L139.274367,16.960217 Z M139.274367,16.960217 L132.151854,16.960217 L132.151854,14.9638336 L135.614331,14.9638336 C135.725242,14.9638336 135.780696,14.8702541 135.780696,14.6830922 C135.780696,14.5444538 135.737372,14.345164 135.650723,14.085217 C135.564074,13.8252699 135.458364,13.5670598 135.333589,13.3105787 C135.208815,13.0540976 135.078843,12.8288135 134.943671,12.6347197 C134.808498,12.4406259 134.69239,12.3435805 134.595344,12.3435805 L135.541546,10.1496383 C135.999053,10.6695324 136.390701,11.4285664 136.716501,12.4267631 C137.042301,13.3764363 137.205199,14.2221181 137.205199,14.9638336 L139.274367,16.960217 Z M136.071835,6.87432188 L133.888291,5.48101266 L134.8033,4.0045208 L136.997242,5.31464738 L136.071835,6.87432188 Z M130.831329,5.62658228 L131.715145,4.08770344 L133.888291,5.48101266 L132.994078,6.92631103 L130.831329,5.62658228 Z M132.151854,16.960217 L130.39462,16.960217 C130.39462,18.284214 129.805416,19.5527366 128.626989,20.7658228 C127.441631,21.9858409 126.193903,22.5958409 124.88377,22.5958409 C123.982621,22.5958409 123.157734,22.2839091 122.409087,21.6600362 C122.187265,21.4728743 121.925589,21.21813 121.624051,20.8957957 C121.322512,20.5734613 120.994984,20.1766148 120.641456,19.7052441 C120.752366,19.8230868 120.93606,19.9443936 121.192541,20.0691682 C121.455954,20.2008747 121.785215,20.3187156 122.180335,20.4226944 C122.547726,20.5197413 122.880454,20.5890595 123.178526,20.630651 C123.476599,20.6722425 123.74694,20.6965039 123.989557,20.7034358 C126.235499,20.7034358 127.996181,19.4938337 129.271655,17.0745931 C129.36177,16.8943632 129.406826,16.7176018 129.406826,16.5443038 C129.406826,15.6015625 128.706713,14.6380399 127.306465,13.6537071 L128.211076,11.6885172 C129.250864,12.4926201 129.937114,13.5843813 130.269846,14.9638336 L132.151854,14.9638336 L132.151854,16.960217 Z M127.774367,24.0619349 L123.251311,26.7757685 L123.251311,25.5800181 L127.774367,22.834991 L127.774367,24.0619349 Z M120.693445,14.5479204 C120.686513,14.5756481 120.683047,14.5999095 120.683047,14.6207052 C120.683047,14.6484329 120.679581,14.6692284 120.672649,14.6830922 L120.672649,5.57459313 C120.582534,5.22799706 120.490688,4.87447438 120.397107,4.51401447 C120.303526,4.15355456 120.201281,3.76537278 120.090371,3.3494575 L121.837206,1.57142857 L122.013969,3.71338156 L122.97057,4.74276673 L122.169937,6.46880651 L122.169937,14.7142857 C122.169937,15.1579287 122.166471,15.5183832 122.159539,15.79566 C122.152607,16.0729369 122.142209,16.2670278 122.128345,16.3779385 C122.052094,16.8077176 121.230674,17.1681721 119.66406,17.4593128 C119.060983,17.5771555 118.50817,17.6638032 118.005606,17.7192586 C117.503041,17.774714 117.043809,17.8024412 116.627893,17.8024412 C112.413285,17.8024412 110.306013,16.7349414 110.306013,14.5999096 C110.306013,13.8443302 110.572888,12.9951825 111.106646,12.0524412 C111.522561,11.3037937 111.78597,10.9294756 111.896881,10.9294756 L111.938472,10.9398734 L111.938472,11.0230561 C111.938472,11.1270349 111.922875,11.2778019 111.891682,11.4753617 C111.860488,11.6729214 111.827562,11.8843419 111.792902,12.1096293 C111.758243,12.3349167 111.725317,12.551536 111.694123,12.7594937 C111.662929,12.9674513 111.647333,13.1199513 111.647333,13.2169982 C111.647333,13.6883688 111.668128,13.9968347 111.70972,14.1424051 C111.980065,15.1613975 113.605576,15.6708861 116.586302,15.6708861 C117.15472,15.6708861 117.82364,15.6223634 118.593083,15.5253165 C119.057522,15.4629292 119.445704,15.3901451 119.75764,15.306962 C120.069577,15.223779 120.308724,15.1371313 120.47509,15.0470163 C120.565205,14.9984928 120.631058,14.877186 120.672649,14.6830922 C120.679581,14.7177518 120.683047,14.7593427 120.683047,14.8078662 L120.693445,14.5479204 Z M117.969213,9.82730561 C117.969213,11.470171 116.960634,12.2915913 114.943445,12.2915913 C114.714691,12.2915913 114.544862,12.26733 114.433951,12.2188065 C116.062953,11.560274 116.877441,11.1131718 116.877441,10.8774864 C116.877441,10.8150991 116.818521,10.7735082 116.700678,10.7527125 C116.582835,10.7319167 116.444199,10.7180531 116.284765,10.7111212 C116.125331,10.7041892 115.964166,10.6937915 115.801266,10.6799277 C115.638366,10.6660638 115.515326,10.6314047 115.432143,10.5759494 C115.279641,10.4719705 115.203391,10.2605501 115.203391,9.94168174 C115.203391,9.75451986 115.260578,9.53616761 115.374955,9.28661844 C115.489331,9.03706928 115.660894,8.73553522 115.889647,8.38200723 C116.36795,7.64722357 116.756132,7.27983725 117.054204,7.27983725 L117.085398,7.27983725 C116.870508,7.68882061 116.683349,8.04407625 116.523915,8.34561483 C116.364481,8.64715341 116.239708,8.9053636 116.149593,9.12025316 C116.288232,9.25889159 116.562038,9.35593703 116.971022,9.41139241 C117.546371,9.48764354 117.858303,9.53616626 117.906826,9.55696203 C117.948418,9.6124174 117.969213,9.70253102 117.969213,9.82730561 Z M103.174921,15.431736 C103.174921,16.5616392 102.606512,17.1265823 101.469677,17.1265823 C100.887395,17.1265823 100.169952,16.9879459 99.3173259,16.7106691 C98.3953804,16.4125965 97.7749827,16.0798692 97.4561144,15.7124774 C97.1996333,16.544308 96.5965652,16.960217 95.6468919,16.960217 L94.6419417,16.960217 L94.6419417,14.9638336 C97.081978,14.9638336 96.8426413,14.8806518 97.0713947,14.7142857 C97.1961692,14.6103069 97.4041238,14.1943979 97.6952645,13.4665461 C97.9032221,12.946652 98.1025118,12.5116805 98.2931397,12.1616184 C98.4837675,11.8115564 98.6743925,11.5290849 98.8650203,11.3141953 C99.0556482,11.0993057 99.2549379,10.9450728 99.4628956,10.8514919 C99.6708532,10.7579109 99.8961373,10.7111212 100.138755,10.7111212 C100.91513,10.7111212 101.632573,11.3176552 102.291105,12.5307414 C102.582246,13.0714313 102.805797,13.5826528 102.961765,14.0644213 C103.117734,14.5461899 103.188785,15.0019569 103.174921,15.431736 Z M101.875192,14.7142857 C101.875192,14.4924642 101.814539,14.2533165 101.69323,13.9968354 C101.571921,13.7403544 101.42462,13.5012067 101.251322,13.2793852 C101.078024,13.0575637 100.883933,12.8738705 100.669044,12.7283002 C100.454154,12.5827298 100.2462,12.5099458 100.045174,12.5099458 C99.9134675,12.5099458 99.7540357,12.5671332 99.5668739,12.6815099 C99.379712,12.7958866 99.1994847,12.93279 99.0261867,13.0922242 C98.8528887,13.2516584 98.7038546,13.418022 98.57908,13.5913201 C98.4543054,13.7646181 98.3919191,13.9171181 98.3919191,14.0488246 C98.3919191,14.1112119 98.4439077,14.183996 98.5478865,14.267179 C98.6518653,14.3503621 98.7870358,14.4352768 98.9534019,14.5219259 C99.119768,14.6085749 99.3034612,14.6934896 99.5044869,14.7766727 C99.7055126,14.8598558 99.9030694,14.9326398 100.097163,14.9950271 C100.291257,15.0574144 100.471484,15.109403 100.63785,15.1509946 C100.804216,15.1925861 100.939387,15.2133816 101.043366,15.2133816 C101.597919,15.2133816 101.875192,15.0470179 101.875192,14.7142857 Z M94.6419417,16.960217 L91.1690665,16.960217 C89.5747245,16.960217 88.1294406,15.5807853 86.8331713,12.8218807 C86.07066,12.9050637 85.2908305,13.3764273 84.4936596,14.2359855 C83.8281951,15.0262246 83.4954679,15.9377585 83.4954679,16.9706148 C83.5231956,17.8232412 83.8368603,18.6030706 84.4364715,19.3101266 C85.0360827,20.0171826 85.7379292,20.4434893 86.5420321,20.5890597 C87.346135,20.73463 88.1502258,20.8074141 88.9543287,20.8074141 C90.7150367,20.8074141 91.9800933,20.5925278 92.7495366,20.1627486 C91.2314458,21.8125459 89.4257074,22.6374322 87.3322672,22.6374322 C86.6182793,22.6374322 85.9666884,22.5005288 85.3774751,22.2267179 C84.7882618,21.952907 84.2822392,21.575123 83.859392,21.0933544 C83.4365447,20.6115859 83.1055505,20.0414439 82.8663992,19.3829114 C82.6272479,18.7243789 82.507674,18.0034699 82.507674,17.2201627 C82.507674,16.1665107 82.9929013,14.9118518 83.9633703,13.4561483 C84.5040601,12.7075008 85.2457646,12.0281827 86.1885059,11.4181736 C86.174642,11.3072629 86.1555795,11.2136833 86.1313178,11.1374322 C86.1070561,11.0611811 86.0775959,10.9953288 86.0429363,10.9398734 C86.0082766,10.884418 85.9701517,10.8324294 85.9285601,10.783906 C85.8869686,10.7353825 85.8384459,10.6833939 85.7829905,10.6279385 C85.741399,10.586347 85.6755467,10.5586197 85.5854317,10.5447559 C85.4953168,10.530892 85.4000043,10.5239602 85.2994914,10.5239602 C85.1989785,10.5239602 85.1019331,10.5291591 85.0083522,10.539557 C84.9147712,10.5499548 84.8437201,10.5586196 84.7951967,10.5655515 C84.7397413,10.5794154 84.6860197,10.6158074 84.6340303,10.6747288 C84.5820409,10.7336501 84.5248534,10.7527126 84.4624661,10.7319168 C84.4278065,10.7249849 84.407011,10.6989906 84.4000791,10.6539331 C84.3931472,10.6088756 84.3948801,10.5603529 84.405278,10.5083635 C84.4156759,10.4563741 84.4278066,10.4095843 84.4416704,10.3679928 C84.4555343,10.3264012 84.465932,10.3021399 84.4728639,10.295208 C84.5629789,9.99020342 84.6565584,9.71639663 84.7536053,9.47377939 C84.7951969,9.2172983 85.0395434,8.88803697 85.4866523,8.48598553 C85.9337613,8.0839341 86.438051,7.88291139 86.9995366,7.88291139 C87.2906773,7.88291139 87.5835466,7.93316707 87.8781533,8.03367993 C88.1727599,8.13419279 88.434436,8.27109618 88.6631894,8.44439421 C88.8919428,8.61769225 89.0773689,8.82218086 89.2194733,9.05786618 C89.3615777,9.29355151 89.4326288,9.54656284 89.4326288,9.81690778 C89.5435396,10.7319214 89.1761533,11.5117508 88.3304589,12.1564195 C88.5384165,13.0783651 88.9473937,13.8373991 89.5574028,14.4335443 C90.0357054,14.7870723 90.6405064,14.9638336 91.3718241,14.9638336 L94.6419417,14.9638336 L94.6419417,16.960217 Z" id="اشترِك-مع" fill="#5F6368"></path>
        <path d="M130,15.08 L136.88,15.08 C136.88,15.08 137.88,15.08 138.37,15.08 C138.86,15.08 140.52,15.02 140.64,15 C140.834367,15.629159 140.968307,16.2754164 141.04,16.93 C140.709187,16.9833961 140.37503,17.0134702 140.04,17.02 L130.12,17.02 L130,15.08 Z" id="Path" fill="#5F6367"></path>
        <path d="M91,15.0764356 L93.9601449,15.0764356 C93.9601449,15.0764356 94.3903986,15.0764356 94.6012228,15.0764356 C94.8120471,15.0764356 95.5262681,15.0191089 95.5778986,15 C95.6615258,15.6011272 95.7191537,16.2185909 95.75,16.8440099 C95.6076667,16.895027 95.4638945,16.9237612 95.3197464,16.93 L91.0516304,16.93 L91,15.0764356 Z" id="Path-Copy" fill="#5F6367"></path>
        <g id="Group" transform="translate(0.000000, 1.000000)" fill-rule="nonzero">
            <path d="M9.36714443,19 C4.27673649,19 0,14.7346939 0,9.5 C0,4.26530612 4.27673649,0 9.36714443,0 C12.185226,0 14.1896362,1.13265306 15.6979052,2.62244898 L13.92172,4.44897959 C12.8401323,3.40816327 11.3715546,2.59183673 9.36714443,2.59183673 C5.646086,2.59183673 2.73869901,5.67346939 2.73869901,9.5 C2.73869901,13.3265306 5.646086,16.4081633 9.36714443,16.4081633 C11.7783903,16.4081633 13.1477398,15.4081633 14.030871,14.5102041 C14.755237,13.7653061 15.2216097,12.7040816 15.4002205,11.244898 L9.36714443,11.244898 L9.36714443,8.64285714 L17.8610805,8.64285714 C17.9503859,9.10204082 18,9.66326531 18,10.2653061 C18,12.2142857 17.4840132,14.622449 15.8169791,16.3367347 C14.1896362,18.0714286 12.1256891,19 9.36714443,19 Z" id="Shape" fill="#4285F4"></path>
            <path d="M32,13 C32,16.4557596 29.3096447,19 26,19 C22.6903553,19 20,16.4557596 20,13 C20,9.52420701 22.6903553,7 26,7 C29.3096447,7 32,9.52420701 32,13 Z M29.3705584,13 C29.3705584,10.836394 27.8071066,9.3639399 26,9.3639399 C24.1928934,9.3639399 22.6294416,10.8464107 22.6294416,13 C22.6294416,15.1335559 24.1928934,16.6360601 26,16.6360601 C27.8071066,16.6360601 29.3705584,15.1435726 29.3705584,13 Z" id="Shape" fill="#E94235"></path>
            <path d="M45,13 C45,16.4557596 42.3096447,19 39,19 C35.7005076,19 33,16.4557596 33,13 C33,9.52420701 35.6903553,7 39,7 C42.3096447,7 45,9.52420701 45,13 Z M42.3807107,13 C42.3807107,10.836394 40.8172589,9.3639399 39.0101523,9.3639399 C37.2030457,9.3639399 35.6395939,10.8464107 35.6395939,13 C35.6395939,15.1335559 37.2030457,16.6360601 39.0101523,16.6360601 C40.8172589,16.6460768 42.3807107,15.1435726 42.3807107,13 Z" id="Shape" fill="#FABB05"></path>
            <path d="M57,7.3621186 L57,17.8929188 C57,22.228555 54.5013055,24 51.5430809,24 C48.7571802,24 47.0913838,22.0915371 46.45953,20.5354059 L48.6518712,19.6056419 C49.0443864,20.5647668 50.0017406,21.6902706 51.5430809,21.6902706 C53.4386423,21.6902706 54.6066144,20.4864709 54.6066144,18.2452504 L54.6066144,17.4035694 L54.5204526,17.4035694 C53.9556136,18.1180196 52.8642298,18.7345999 51.4952132,18.7345999 C48.6231506,18.7345999 46,16.1801957 46,12.8917674 C46,9.58376511 48.6327241,7 51.4952132,7 C52.8642298,7 53.9556136,7.6263673 54.5204526,8.31145653 L54.6066144,8.31145653 L54.6066144,7.3621186 L57,7.3621186 Z M54.7789382,12.9015544 C54.7789382,10.8364997 53.4290688,9.31951641 51.7154047,9.31951641 C49.97302,9.31951641 48.5178416,10.8267127 48.5178416,12.9015544 C48.5178416,14.9470351 49.97302,16.4346575 51.7154047,16.4346575 C53.4290688,16.4346575 54.7789382,14.9470351 54.7789382,12.9015544 Z" id="Shape" fill="#4285F4"></path>
            <polygon id="Shape" fill="#34A853" points="63 1 63 19 60 19 60 1"></polygon>
            <path d="M72.8441203,14.9732888 L74.8896992,16.3355593 C74.2278943,17.3171953 72.633546,19 69.8760255,19 C66.4567001,19 64,16.3656093 64,13 C64,9.43405676 66.4867821,7 69.5852325,7 C72.7037375,7 74.2278943,9.47412354 74.7292616,10.8163606 L75,11.4974958 L66.9680948,14.8230384 C67.579763,16.0250417 68.5423883,16.6460768 69.8860529,16.6460768 C71.2297174,16.6460768 72.1622607,15.9749583 72.8441203,14.9732888 Z M66.5369189,12.8096828 L71.911577,10.5859766 C71.6107566,9.83472454 70.72835,9.31385643 69.6754786,9.31385643 C68.331814,9.31385643 66.4667274,10.4958264 66.5369189,12.8096828 Z" id="Shape" fill="#E94235"></path>
        </g>
    </g>
</svg>
