<svg width="184" height="24" viewBox="0 0 184 24" xmlns="http://www.w3.org/2000/svg"><title>SwG-Arabic-Black</title><desc>Created with Sketch.</desc><g fill="none"><path d="M101.376 15.735l-1.57 2.225v-13.486l1.57-1.903v13.164zm-5.854-10.159l-.832 1.695-.478-.114c-.243 1.941-.853 3.792-1.83 5.552.499 1.178.749 2.301.749 3.369 0 1.345-.423 2.035-1.269 2.069l-4.315.177.135-2.09c1.414-.846 2.554-1.899 3.421-3.161l-.218-.27c-1.033-1.49-2.024-2.558-2.974-3.203l-.582.728c-1.241-1.151-1.861-2.19-1.861-3.119 0-.187.023-.364.068-.53.045-.166.111-.314.198-.442.087-.128.187-.229.302-.302.114-.073.234-.109.359-.109.714 0 1.726.814 3.036 2.443.444.541.865 1.1 1.263 1.679.399.579.789 1.184 1.17 1.814.825-1.768 1.237-3.518 1.237-5.251 0-.88-.094-1.709-.281-2.485l1.352-1.383.458 1.882.894 1.05zm-3.452 10.003c0-.444-.159-.97-.478-1.58-.485.735-1.147 1.473-1.986 2.215l2.392-.166c.049-.159.073-.315.073-.468zm-8.214-.572c0 1.054-.062 1.906-.187 2.558-.596.374-1.113.561-1.549.561-1.622 0-2.967-.277-4.034-.832-1.019.478-1.983.717-2.891.717-1.379 0-2.582-.211-3.608-.634-.326.388-1.147.582-2.464.582h-2.34v-1.996c.049.028.229.042.541.042 2.343 0 3.625-.125 3.847-.374.111-.125.166-.416.166-.873 0-.27-.031-.537-.094-.801l1.456-1.57.036.489c.01.201.016.44.016.717 0 .104-.019.258-.057.463l-.12.639-.114.608-.052.369c.021.035.09.073.208.114.575.194 1.376.291 2.402.291h.593c1.379 0 2.121-.08 2.225-.239.076-.097.114-.381.114-.853 0-.458-.024-.769-.073-.936l1.518-1.539-.073 1.159c-.028.392-.062.795-.104 1.211-.028.222-.09.489-.187.801l-.01.042c0 .27.551.406 1.653.406 1.088 0 1.632-.27 1.632-.811 0-.763-.156-1.289-.468-1.58l1.58-1.414c.291.887.437 1.781.437 2.683zm-4.149-9.171l-.946 1.747-2.36-1.425.905-1.664 2.402 1.341zm-3.743 3.442l.863-1.643 2.277 1.362-.894 1.664-2.246-1.383zm5.469 1.102l-2.329-1.383.811-1.549 2.34 1.383-.821 1.549zm-13.494 7.58h-2.163v-1.996h2.163v1.996zm-.291 0h-8.693v-1.996h5.324c.111 0 .166-.094.166-.281 0-.139-.043-.338-.13-.598-.087-.26-.192-.518-.317-.775-.125-.256-.255-.482-.39-.676-.135-.194-.251-.291-.348-.291l.946-2.194c.458.52.849 1.279 1.175 2.277.326.95.489 1.795.489 2.537h1.778v1.996zm-2.911-10.086l-2.184-1.393.915-1.476 2.194 1.31-.925 1.56zm-5.241-1.248l.884-1.539 2.173 1.393-.894 1.445-2.163-1.3zm1.321 11.334h-1.757c0 1.324-.589 2.593-1.768 3.806-1.185 1.22-2.433 1.83-3.743 1.83-.901 0-1.726-.312-2.475-.936-.222-.187-.483-.442-.785-.764-.302-.322-.629-.719-.983-1.191.111.118.295.239.551.364.263.132.593.25.988.354.367.097.7.166.998.208.298.042.568.066.811.073 2.246 0 4.007-1.21 5.282-3.629.09-.18.135-.357.135-.53 0-.943-.7-1.906-2.1-2.891l.905-1.965c1.04.804 1.726 1.896 2.059 3.275h1.882v1.996zm-10.346-2.225l-1.57 2.225v-13.486l1.57-1.903v13.164zm-11.214-11.041c-.583.552-1.265.828-2.047.828-.782 0-1.472-.28-2.07-.84-.598-.56-.897-1.246-.897-2.058h1.702c0 .368.115.678.345.931.23.253.537.38.92.38.368 0 .667-.13.897-.391.23-.261.345-.567.345-.92h1.679c0 .813-.291 1.503-.874 2.07zm-6.145 10.032l-.572 1.435c-1.026.201-1.761.385-2.204.551-.263.097-.497.201-.702.312-.204.111-.411.239-.619.385-.208.146-.435.317-.681.515-.246.198-.546.432-.899.702-.062-.055-.094-.111-.094-.166 0-.083.035-.21.104-.38.069-.17.154-.343.255-.52s.203-.338.307-.483c.104-.146.194-.239.27-.281l-.801-.613c-.243-.256-.364-.551-.364-.884 0-.672.451-1.47 1.352-2.392.603-.61 1.49-.915 2.662-.915.451 0 .828.08 1.133.239l-.582 1.227c-.035-.18-.475-.27-1.321-.27-.27 0-.544.042-.821.125-.277.083-.525.196-.743.338-.218.142-.397.305-.535.489-.139.184-.208.373-.208.567 0 .284.215.496.645.634l.312.062.707.146 3.4-.821zm-5.958.988l-.801 1.924-3.993.322h-5.896v-1.996h2.662c-.617-.839-.925-1.508-.925-2.007 0-.839.78-1.875 2.34-3.109.437-.333.936-.499 1.497-.499.381 0 .742.076 1.081.229.34.153.641.362.905.629.263.267.485.584.665.951.18.367.308.763.385 1.185-.097-.118-.246-.234-.447-.348-.201-.114-.425-.217-.671-.307-.246-.09-.497-.161-.754-.213-.256-.052-.492-.078-.707-.078-1.165 0-1.989.499-2.475 1.497l-.01.062c0 .146.08.329.239.551.159.222.392.464.697.728.305.256.574.447.806.572.232.125.428.187.587.187l4.814-.281zm-8.957 2.246h-2.163v-1.996h2.163v1.996zm-.291 0h-8.693v-1.996h5.324c.111 0 .166-.094.166-.281 0-.139-.043-.338-.13-.598-.087-.26-.192-.518-.317-.775-.125-.256-.255-.482-.39-.676-.135-.194-.251-.291-.348-.291l.946-2.194c.458.52.849 1.279 1.175 2.277.326.95.489 1.795.489 2.537h1.778v1.996zm-3.317 3.93l-.957 1.632-2.34-1.362.905-1.632 2.392 1.362zm-3.514-3.93h-1.757c0 1.324-.589 2.593-1.768 3.806-1.185 1.22-2.433 1.83-3.743 1.83-.901 0-1.726-.312-2.475-.936-.222-.187-.483-.442-.785-.764-.302-.322-.629-.719-.983-1.191.111.118.295.239.551.364.263.132.593.25.988.354.367.097.7.166.998.208.298.042.568.066.811.073 2.246 0 4.007-1.21 5.282-3.629.09-.18.135-.357.135-.53 0-.943-.7-1.906-2.1-2.891l.905-1.965c1.04.804 1.726 1.896 2.059 3.275h1.882v1.996z" fill="#fff"/><g fill-rule="nonzero"><path d="M118.367 19c-5.09 0-9.367-4.265-9.367-9.5s4.277-9.5 9.367-9.5c2.818 0 4.822 1.133 6.331 2.622l-1.776 1.827c-1.082-1.041-2.55-1.857-4.555-1.857-3.721 0-6.628 3.082-6.628 6.908 0 3.827 2.907 6.908 6.628 6.908 2.411 0 3.781-1 4.664-1.898.724-.745 1.191-1.806 1.369-3.265h-6.033v-2.602h8.494c.089.459.139 1.02.139 1.622 0 1.949-.516 4.357-2.183 6.071-1.627 1.735-3.691 2.663-6.45 2.663z" id="Shape" fill="#4285F4"/><path d="M141 13c0 3.456-2.69 6-6 6s-6-2.544-6-6c0-3.476 2.69-6 6-6s6 2.524 6 6zm-2.629 0c0-2.164-1.563-3.636-3.371-3.636-1.807 0-3.371 1.482-3.371 3.636 0 2.134 1.563 3.636 3.371 3.636 1.807 0 3.371-1.492 3.371-3.636z" id="Shape" fill="#E94235"/><path d="M154 13c0 3.456-2.69 6-6 6-3.299 0-6-2.544-6-6 0-3.476 2.69-6 6-6s6 2.524 6 6zm-2.619 0c0-2.164-1.563-3.636-3.371-3.636-1.807 0-3.371 1.482-3.371 3.636 0 2.134 1.563 3.636 3.371 3.636 1.807.01 3.371-1.492 3.371-3.636z" id="Shape" fill="#FABB05"/><path d="M166 7.362v10.531c0 4.336-2.499 6.107-5.457 6.107-2.786 0-4.452-1.908-5.084-3.465l2.192-.93c.393.959 1.35 2.085 2.891 2.085 1.896 0 3.064-1.204 3.064-3.445v-.842h-.086c-.565.714-1.656 1.331-3.025 1.331-2.872 0-5.495-2.554-5.495-5.843 0-3.308 2.633-5.892 5.495-5.892 1.369 0 2.46.626 3.025 1.311h.086v-.949h2.393zm-2.221 5.539c0-2.065-1.35-3.582-3.064-3.582-1.742 0-3.198 1.507-3.198 3.582 0 2.045 1.455 3.533 3.198 3.533 1.714 0 3.064-1.488 3.064-3.533z" id="Shape" fill="#4285F4"/><path id="Shape" fill="#34A853" d="M172 1v18h-3v-18z"/><path d="M181.844 14.973l2.046 1.362c-.662.982-2.256 2.664-5.014 2.664-3.419 0-5.876-2.634-5.876-6 0-3.566 2.487-6 5.585-6 3.119 0 4.643 2.474 5.144 3.816l.271.681-8.032 3.326c.612 1.202 1.574 1.823 2.918 1.823s2.276-.671 2.958-1.673zm-6.307-2.164l5.375-2.224c-.301-.751-1.183-1.272-2.236-1.272-1.344 0-3.209 1.182-3.139 3.496z" fill="#E94235"/></g></g></svg>
