<?xml version="1.0" encoding="UTF-8"?>
<svg width="184px" height="24px" viewBox="0 0 184 24" version="1.1" xmlns="http://www.w3.org/2000/svg" xmlns:xlink="http://www.w3.org/1999/xlink">
    <!-- Generator: Sketch 51.3 (57544) - http://www.bohemiancoding.com/sketch -->
    <title>SwG-Arabic Copy-Black</title>
    <desc>Created with Sketch.</desc>
    <defs></defs>
    <g id="SwG-Arabic-Copy" stroke="none" stroke-width="1" fill="none" fill-rule="evenodd">
        <path d="M101.375879,15.7350814 L99.805807,17.960217 L99.805807,4.47423146 L101.375879,2.57142857 L101.375879,15.7350814 Z M95.521901,5.57640145 L94.6900746,7.27124774 L94.2117744,7.15687161 C93.9691572,9.09780958 93.3591572,10.9486048 92.3817563,12.7093128 C92.8808547,13.8877395 93.1304001,15.0106939 93.1304001,16.0782098 C93.1304001,17.4230025 92.7075592,18.1127183 91.8618648,18.1473779 L87.5467654,18.324141 L87.6819372,16.2341772 C89.0960491,15.3884828 90.2363331,14.3348466 91.1028232,13.0732369 L90.8844688,12.8028933 C89.8516125,11.3125302 88.8603626,10.2450303 87.9106894,9.60036166 L87.3284109,10.3282098 C86.087597,9.17751082 85.4671994,8.13773822 85.4671994,7.20886076 C85.4671994,7.02169888 85.4897278,6.84493754 85.5347853,6.67857143 C85.5798428,6.51220532 85.645695,6.3649042 85.732344,6.23666365 C85.818993,6.10842311 85.9195044,6.00791176 86.0338811,5.93512658 C86.1482578,5.86234141 86.2678317,5.82594937 86.3926062,5.82594937 C87.1065941,5.82594937 88.1186395,6.64043791 89.4287726,8.26943942 C89.8724156,8.81012929 90.2935235,9.36987354 90.692109,9.94868897 C91.0906944,10.5275044 91.4806092,11.1323055 91.8618648,11.7631103 C92.6867635,9.99547037 93.0992066,8.24518648 93.0992066,6.51220615 C93.0992066,5.63185214 93.0056271,4.80349996 92.8184652,4.02712477 L94.1701831,2.64421338 L94.6276876,4.52622061 L95.521901,5.57640145 Z M92.0698214,15.5791139 C92.0698214,15.135471 91.9103896,14.6086528 91.5915212,13.9986438 C91.1062868,14.7334274 90.4442982,15.471666 89.6055357,16.2133816 L91.9970366,16.0470163 C92.0455601,15.8875821 92.0698214,15.7316162 92.0698214,15.5791139 Z M83.8555357,15.0072333 C83.8555357,16.0608853 83.7931494,16.9134989 83.6683748,17.5650995 C83.0722295,17.9394232 82.5558091,18.1265823 82.1190981,18.1265823 C80.4970285,18.1265823 79.1522559,17.8493096 78.0847401,17.2947559 C77.0657476,17.7730584 76.102225,18.0122061 75.1941433,18.0122061 C73.814691,18.0122061 72.6120207,17.8007857 71.5860963,17.3779385 C71.260296,17.7661261 70.4388756,17.960217 69.1218106,17.960217 L66.7822988,17.960217 L66.7822988,15.9638336 C66.8308223,15.9915613 67.0110495,16.005425 67.322986,16.005425 C69.6659754,16.005425 70.9483616,15.8806522 71.1701831,15.6311031 C71.2810938,15.5063285 71.3365484,15.2151922 71.3365484,14.7576854 C71.3365484,14.4873404 71.3053552,14.2204655 71.2429679,13.9570524 L72.6986641,12.3869801 C72.7125279,12.5117547 72.7246586,12.6746524 72.7350565,12.8756781 C72.7454544,13.0767038 72.7506533,13.3158515 72.7506533,13.5931284 C72.7506533,13.6971072 72.7315908,13.8513401 72.6934652,14.0558318 C72.6553396,14.2603235 72.6154817,14.4734769 72.5738901,14.6952984 C72.5322986,14.9171199 72.4941736,15.1198755 72.459514,15.3035714 C72.4248544,15.4872673 72.4075249,15.6103071 72.4075249,15.6726944 C72.4283206,15.707354 72.4976388,15.745479 72.6154815,15.7870705 C73.1908309,15.9811643 73.9914558,16.0782098 75.0173802,16.0782098 L75.6100565,16.0782098 C76.9895089,16.0782098 77.7312133,15.9984939 77.8351921,15.8390597 C77.9114433,15.7420128 77.9495683,15.4578083 77.9495683,14.9864376 C77.9495683,14.5289308 77.9253069,14.216999 77.8767835,14.0506329 L79.3948666,12.5117541 C79.3740709,12.8930097 79.3498095,13.2794586 79.3220818,13.6711121 C79.2943541,14.0627657 79.2596951,14.466544 79.2181035,14.8824593 C79.1903758,15.1042808 79.1279895,15.3711558 79.0309426,15.6830922 L79.0205448,15.7246835 C79.0205448,15.9950285 79.5716242,16.1301989 80.6737997,16.1301989 C81.7621114,16.1301989 82.306259,15.859858 82.306259,15.3191682 C82.306259,14.5566568 82.1502932,14.0298387 81.8383567,13.738698 L83.4188269,12.3245931 C83.7099675,13.2118791 83.8555357,14.1060835 83.8555357,15.0072333 Z M79.7068015,5.8363472 L78.760599,7.58318264 L76.4002916,6.15867993 L77.3049028,4.49502712 L79.7068015,5.8363472 Z M75.9635827,9.27802893 L76.8266026,7.63517179 L79.1037274,8.99728752 L78.209514,10.6609403 L75.9635827,9.27802893 Z M81.4328413,10.3801989 L79.1037274,8.99728752 L79.9147581,7.44801085 L82.2542699,8.83092224 L81.4328413,10.3801989 Z M67.9387975,17.960217 L65.7760488,17.960217 L65.7760488,15.9638336 L67.9387975,15.9638336 L67.9387975,17.960217 Z M67.6476582,17.960217 L58.9550723,17.960217 L58.9550723,15.9638336 L64.2787613,15.9638336 C64.389672,15.9638336 64.4451266,15.8702541 64.4451266,15.6830922 C64.4451266,15.5444538 64.4018027,15.345164 64.3151537,15.085217 C64.2285047,14.8252699 64.1227945,14.5670598 63.9980199,14.3105787 C63.8732453,14.0540976 63.7432737,13.8288135 63.6081013,13.6347197 C63.4729288,13.4406259 63.3568209,13.3435805 63.259774,13.3435805 L64.2059765,11.1496383 C64.6634833,11.6695324 65.055131,12.4285664 65.3809313,13.4267631 C65.7067316,14.3764363 65.8696293,15.2221181 65.8696293,15.9638336 L67.6476582,15.9638336 L67.6476582,17.960217 Z M64.7362658,7.87432188 L62.5527215,6.48101266 L63.4677306,5.0045208 L65.6616727,6.31464738 L64.7362658,7.87432188 Z M59.4957595,6.62658228 L60.379575,5.08770344 L62.5527215,6.48101266 L61.6585081,7.92631103 L59.4957595,6.62658228 Z M60.8162839,17.960217 L59.0590506,17.960217 C59.0590506,19.284214 58.4698462,20.5527366 57.2914195,21.7658228 C56.106061,22.9858409 54.8583339,23.5958409 53.5482007,23.5958409 C52.6470509,23.5958409 51.8221647,23.2839091 51.0735172,22.6600362 C50.8516957,22.4728743 50.5900196,22.21813 50.288481,21.8957957 C49.9869424,21.5734613 49.6594141,21.1766148 49.3058861,20.7052441 C49.4167968,20.8230868 49.60049,20.9443936 49.8569711,21.0691682 C50.1203841,21.2008747 50.4496454,21.3187156 50.8447649,21.4226944 C51.2121567,21.5197413 51.544884,21.5890595 51.8429566,21.630651 C52.1410292,21.6722425 52.4113701,21.6965039 52.6539873,21.7034358 C54.8999299,21.7034358 56.6606115,20.4938337 57.936085,18.0745931 C58.0262,17.8943632 58.0712568,17.7176018 58.0712568,17.5443038 C58.0712568,16.6015625 57.3711432,15.6380399 55.9708951,14.6537071 L56.8755063,12.6885172 C57.9152945,13.4926201 58.6015444,14.5843813 58.9342767,15.9638336 L60.8162839,15.9638336 L60.8162839,17.960217 Z M50.470443,15.7350814 L48.9003707,17.960217 L48.9003707,4.47423146 L50.470443,2.57142857 L50.470443,15.7350814 Z M39.2561754,4.694 C38.6735058,5.24600276 37.9911793,5.522 37.2091754,5.522 C36.4271715,5.522 35.7371784,5.24216946 35.1391754,4.6825 C34.5411724,4.12283053 34.2421754,3.43667073 34.2421754,2.624 L35.9441754,2.624 C35.9441754,2.99200184 36.0591743,3.30249874 36.2891754,3.5555 C36.5191766,3.80850127 36.8258402,3.935 37.2091754,3.935 C37.5771772,3.935 37.8761743,3.80466797 38.1061754,3.544 C38.3361766,3.28333203 38.4511754,2.97666843 38.4511754,2.624 L40.1301754,2.624 C40.1301754,3.43667073 39.838845,4.12666383 39.2561754,4.694 Z M33.1116297,14.7264919 L32.5397491,16.1613924 C31.5138247,16.3624181 30.7790521,16.5461113 30.3354091,16.7124774 C30.0719961,16.8095243 29.8380473,16.9135016 29.6335556,17.0244123 C29.4290639,17.135323 29.2228424,17.2635617 29.0148847,17.409132 C28.8069271,17.5547024 28.5799101,17.7262648 28.3338269,17.9238246 C28.0877436,18.1213844 27.7879425,18.3553332 27.4344146,18.6256781 C27.3720273,18.5702227 27.3408341,18.5147682 27.3408341,18.4593128 C27.3408341,18.3761298 27.3754932,18.2496241 27.4448124,18.079792 C27.5141316,17.90996 27.5990464,17.7366645 27.6995592,17.5599005 C27.8000721,17.3831365 27.9023164,17.2219718 28.0062952,17.0764014 C28.110274,16.9308311 28.2003877,16.8372516 28.2766388,16.79566 C27.8052681,16.4352001 27.5383932,16.2307115 27.4760059,16.1821881 C27.2333886,15.925707 27.1120818,15.6311047 27.1120818,15.2983725 C27.1120818,14.6259761 27.56265,13.8288171 28.4637997,12.9068716 C29.0668769,12.2968625 29.9541495,11.9918626 31.1256442,11.9918626 C31.5762191,11.9918626 31.9540031,12.0715785 32.2590077,12.2310127 L31.6767292,13.4579566 C31.6420696,13.2777266 31.2018992,13.187613 30.3562048,13.187613 C30.0858599,13.187613 29.8120531,13.2292039 29.5347762,13.312387 C29.2574994,13.39557 29.0096869,13.5082121 28.7913314,13.6503165 C28.5729759,13.7924208 28.3944816,13.9553186 28.2558431,14.1390145 C28.1172047,14.3227104 28.0478865,14.5116024 28.0478865,14.7056962 C28.0478865,14.989905 28.2627729,15.2013254 28.692552,15.3399638 C28.7341435,15.3468958 28.8381208,15.3676912 29.0044869,15.4023508 C29.170853,15.4370104 29.4065348,15.4855331 29.7115393,15.5479204 L33.1116297,14.7264919 Z M27.1536731,15.7142857 L26.3530402,17.6378843 L22.3602735,17.960217 L16.4647039,17.960217 L16.4647039,15.9638336 L19.1265484,15.9638336 C18.5096074,15.1250712 18.2011415,14.4561508 18.2011415,13.9570524 C18.2011415,13.11829 18.980971,12.0819833 20.5406533,10.8481013 C20.9773643,10.515369 21.4764551,10.3490054 22.0379408,10.3490054 C22.4191965,10.3490054 22.779651,10.4252554 23.1193151,10.5777577 C23.4589792,10.73026 23.7605133,10.9399474 24.0239263,11.2068264 C24.2873393,11.4737054 24.5091575,11.790836 24.6893874,12.1582278 C24.8696174,12.5256197 24.997856,12.9207333 25.0741071,13.3435805 C24.9770602,13.2257378 24.8280262,13.1096299 24.6270005,12.9952532 C24.4259747,12.8808765 24.2024236,12.7786322 23.9563404,12.6885172 C23.7102572,12.5984022 23.4589788,12.5273511 23.2024977,12.4753617 C22.9460167,12.4233723 22.7103349,12.3973779 22.4954453,12.3973779 C21.3308825,12.3973779 20.5059962,12.8964688 20.0207618,13.8946655 L20.0103639,13.9570524 C20.0103639,14.1026228 20.0900798,14.2863159 20.249514,14.5081374 C20.4089482,14.7299589 20.6411641,14.9725725 20.9461686,15.2359855 C21.2511732,15.4924666 21.5197811,15.6830916 21.7520005,15.8078662 C21.9842198,15.9326408 22.1800437,15.9950271 22.3394778,15.9950271 L27.1536731,15.7142857 Z M18.1962025,17.960217 L16.0334539,17.960217 L16.0334539,15.9638336 L18.1962025,15.9638336 L18.1962025,17.960217 Z M17.9050633,17.960217 L9.2124774,17.960217 L9.2124774,15.9638336 L14.5361664,15.9638336 C14.6470771,15.9638336 14.7025316,15.8702541 14.7025316,15.6830922 C14.7025316,15.5444538 14.6592078,15.345164 14.5725588,15.085217 C14.4859098,14.8252699 14.3801995,14.5670598 14.255425,14.3105787 C14.1306504,14.0540976 14.0006788,13.8288135 13.8655063,13.6347197 C13.7303339,13.4406259 13.6142259,13.3435805 13.517179,13.3435805 L14.4633816,11.1496383 C14.9208884,11.6695324 15.312536,12.4285664 15.6383363,13.4267631 C15.9641367,14.3764363 16.1270344,15.2221181 16.1270344,15.9638336 L17.9050633,15.9638336 L17.9050633,17.960217 Z M14.5881555,21.8905967 L13.6315552,23.5230561 L11.2920434,22.1609403 L12.1966546,20.528481 L14.5881555,21.8905967 Z M11.073689,17.960217 L9.3164557,17.960217 C9.3164557,19.284214 8.72725122,20.5527366 7.54882459,21.7658228 C6.36346604,22.9858409 5.11573892,23.5958409 3.80560579,23.5958409 C2.90445601,23.5958409 2.07956975,23.2839091 1.33092224,22.6600362 C1.10910076,22.4728743 0.847424654,22.21813 0.545886076,21.8957957 C0.244347498,21.5734613 -0.0831808725,21.1766148 -0.436708861,20.7052441 C-0.325798119,20.8230868 -0.142104959,20.9443936 0.11437613,21.0691682 C0.377789141,21.2008747 0.707050466,21.3187156 1.10216998,21.4226944 C1.46956181,21.5197413 1.80228905,21.5890595 2.10036166,21.630651 C2.39843428,21.6722425 2.66877516,21.6965039 2.91139241,21.7034358 C5.15733492,21.7034358 6.91801653,20.4938337 8.19349005,18.0745931 C8.28360503,17.8943632 8.32866184,17.7176018 8.32866184,17.5443038 C8.32866184,16.6015625 7.62854829,15.6380399 6.22830018,14.6537071 L7.13291139,12.6885172 C8.17269959,13.4926201 8.85894951,14.5843813 9.19168174,15.9638336 L11.073689,15.9638336 L11.073689,17.960217 Z" id="الاشتراك-عبر" fill="#FFFFFF"></path>
        <g id="Group" transform="translate(109.000000, 0.000000)" fill="#FFFFFF" fill-rule="nonzero">
            <path d="M9.36714443,19 C4.27673649,19 0,14.7346939 0,9.5 C0,4.26530612 4.27673649,0 9.36714443,0 C12.185226,0 14.1896362,1.13265306 15.6979052,2.62244898 L13.92172,4.44897959 C12.8401323,3.40816327 11.3715546,2.59183673 9.36714443,2.59183673 C5.646086,2.59183673 2.73869901,5.67346939 2.73869901,9.5 C2.73869901,13.3265306 5.646086,16.4081633 9.36714443,16.4081633 C11.7783903,16.4081633 13.1477398,15.4081633 14.030871,14.5102041 C14.755237,13.7653061 15.2216097,12.7040816 15.4002205,11.244898 L9.36714443,11.244898 L9.36714443,8.64285714 L17.8610805,8.64285714 C17.9503859,9.10204082 18,9.66326531 18,10.2653061 C18,12.2142857 17.4840132,14.622449 15.8169791,16.3367347 C14.1896362,18.0714286 12.1256891,19 9.36714443,19 Z" id="Shape"></path>
            <path d="M32,13 C32,16.4557596 29.3096447,19 26,19 C22.6903553,19 20,16.4557596 20,13 C20,9.52420701 22.6903553,7 26,7 C29.3096447,7 32,9.52420701 32,13 Z M29.3705584,13 C29.3705584,10.836394 27.8071066,9.3639399 26,9.3639399 C24.1928934,9.3639399 22.6294416,10.8464107 22.6294416,13 C22.6294416,15.1335559 24.1928934,16.6360601 26,16.6360601 C27.8071066,16.6360601 29.3705584,15.1435726 29.3705584,13 Z" id="Shape"></path>
            <path d="M45,13 C45,16.4557596 42.3096447,19 39,19 C35.7005076,19 33,16.4557596 33,13 C33,9.52420701 35.6903553,7 39,7 C42.3096447,7 45,9.52420701 45,13 Z M42.3807107,13 C42.3807107,10.836394 40.8172589,9.3639399 39.0101523,9.3639399 C37.2030457,9.3639399 35.6395939,10.8464107 35.6395939,13 C35.6395939,15.1335559 37.2030457,16.6360601 39.0101523,16.6360601 C40.8172589,16.6460768 42.3807107,15.1435726 42.3807107,13 Z" id="Shape"></path>
            <path d="M57,7.3621186 L57,17.8929188 C57,22.228555 54.5013055,24 51.5430809,24 C48.7571802,24 47.0913838,22.0915371 46.45953,20.5354059 L48.6518712,19.6056419 C49.0443864,20.5647668 50.0017406,21.6902706 51.5430809,21.6902706 C53.4386423,21.6902706 54.6066144,20.4864709 54.6066144,18.2452504 L54.6066144,17.4035694 L54.5204526,17.4035694 C53.9556136,18.1180196 52.8642298,18.7345999 51.4952132,18.7345999 C48.6231506,18.7345999 46,16.1801957 46,12.8917674 C46,9.58376511 48.6327241,7 51.4952132,7 C52.8642298,7 53.9556136,7.6263673 54.5204526,8.31145653 L54.6066144,8.31145653 L54.6066144,7.3621186 L57,7.3621186 Z M54.7789382,12.9015544 C54.7789382,10.8364997 53.4290688,9.31951641 51.7154047,9.31951641 C49.97302,9.31951641 48.5178416,10.8267127 48.5178416,12.9015544 C48.5178416,14.9470351 49.97302,16.4346575 51.7154047,16.4346575 C53.4290688,16.4346575 54.7789382,14.9470351 54.7789382,12.9015544 Z" id="Shape"></path>
            <polygon id="Shape" points="63 1 63 19 60 19 60 1"></polygon>
            <path d="M72.8441203,14.9732888 L74.8896992,16.3355593 C74.2278943,17.3171953 72.633546,19 69.8760255,19 C66.4567001,19 64,16.3656093 64,13 C64,9.43405676 66.4867821,7 69.5852325,7 C72.7037375,7 74.2278943,9.47412354 74.7292616,10.8163606 L75,11.4974958 L66.9680948,14.8230384 C67.579763,16.0250417 68.5423883,16.6460768 69.8860529,16.6460768 C71.2297174,16.6460768 72.1622607,15.9749583 72.8441203,14.9732888 Z M66.5369189,12.8096828 L71.911577,10.5859766 C71.6107566,9.83472454 70.72835,9.31385643 69.6754786,9.31385643 C68.331814,9.31385643 66.4667274,10.4958264 66.5369189,12.8096828 Z" id="Shape"></path>
        </g>
    </g>
</svg>