<?xml version="1.0" encoding="UTF-8"?>
<svg width="185px" height="26px" viewBox="0 0 185 26" version="1.1" xmlns="http://www.w3.org/2000/svg" xmlns:xlink="http://www.w3.org/1999/xlink">
    <!-- Generator: Sketch 51.3 (57544) - http://www.bohemiancoding.com/sketch -->
    <title>SwG-AR-WOB</title>
    <desc>Created with Sketch.</desc>
    <defs></defs>
    <g id="SwG-AR-WOB" stroke="none" stroke-width="1" fill="none" fill-rule="evenodd">
        <g id="b-ar-dk" transform="translate(0.000000, 1.000000)" fill="#FFFFFF" fill-rule="nonzero">
            <path d="M102.376,15.735 L100.806,17.96 L100.806,4.474 L102.376,2.571 L102.376,15.735 Z M96.522,5.576 L95.69,7.271 L95.212,7.157 C94.969,9.098 94.359,10.949 93.382,12.709 C93.881,13.887 94.131,15.01 94.131,16.078 C94.131,17.423 93.708,18.113 92.862,18.147 L88.547,18.324 L88.682,16.234 C90.096,15.388 91.236,14.335 92.103,13.073 L91.885,12.803 C90.852,11.313 89.861,10.245 88.911,9.6 L88.329,10.328 C87.088,9.177 86.468,8.138 86.468,7.209 C86.468,7.022 86.491,6.845 86.536,6.679 C86.581,6.513 86.647,6.365 86.734,6.237 C86.821,6.109 86.921,6.008 87.036,5.935 C87.15,5.862 87.27,5.826 87.395,5.826 C88.109,5.826 89.121,6.64 90.431,8.269 C90.875,8.81 91.296,9.369 91.694,9.948 C92.093,10.527 92.483,11.132 92.864,11.762 C93.689,9.994 94.101,8.244 94.101,6.511 C94.101,5.631 94.007,4.802 93.82,4.026 L95.172,2.643 L95.63,4.525 L96.524,5.575 L96.522,5.576 Z M93.07,15.579 C93.07,15.135 92.911,14.609 92.592,13.999 C92.107,14.734 91.445,15.472 90.606,16.214 L92.998,16.048 C93.047,15.889 93.071,15.733 93.071,15.58 L93.07,15.579 Z M84.856,15.007 C84.856,16.061 84.794,16.913 84.669,17.565 C84.073,17.939 83.556,18.126 83.12,18.126 C81.498,18.126 80.153,17.849 79.086,17.294 C78.067,17.772 77.103,18.011 76.195,18.011 C74.816,18.011 73.613,17.8 72.587,17.377 C72.261,17.765 71.44,17.959 70.123,17.959 L67.783,17.959 L67.783,15.963 C67.832,15.991 68.012,16.005 68.324,16.005 C70.667,16.005 71.949,15.88 72.171,15.631 C72.282,15.506 72.337,15.215 72.337,14.758 C72.337,14.488 72.306,14.221 72.243,13.957 L73.699,12.387 L73.735,12.876 C73.745,13.077 73.751,13.316 73.751,13.593 C73.751,13.697 73.732,13.851 73.694,14.056 L73.574,14.695 L73.46,15.303 L73.408,15.672 C73.429,15.707 73.498,15.745 73.616,15.786 C74.191,15.98 74.992,16.077 76.018,16.077 L76.611,16.077 C77.99,16.077 78.732,15.997 78.836,15.838 C78.912,15.741 78.95,15.457 78.95,14.985 C78.95,14.527 78.926,14.216 78.877,14.049 L80.395,12.51 L80.322,13.669 C80.294,14.061 80.26,14.464 80.218,14.88 C80.19,15.102 80.128,15.369 80.031,15.681 L80.021,15.723 C80.021,15.993 80.572,16.129 81.674,16.129 C82.762,16.129 83.306,15.859 83.306,15.318 C83.306,14.555 83.15,14.029 82.838,13.738 L84.418,12.324 C84.709,13.211 84.855,14.105 84.855,15.007 L84.856,15.007 Z M80.707,5.836 L79.761,7.583 L77.401,6.158 L78.306,4.494 L80.708,5.835 L80.707,5.836 Z M76.964,9.278 L77.827,7.635 L80.104,8.997 L79.21,10.661 L76.964,9.278 Z M82.433,10.38 L80.104,8.997 L80.915,7.448 L83.255,8.831 L82.434,10.38 L82.433,10.38 Z M68.939,17.96 L66.776,17.96 L66.776,15.964 L68.939,15.964 L68.939,17.96 Z M68.648,17.96 L59.955,17.96 L59.955,15.964 L65.279,15.964 C65.39,15.964 65.445,15.87 65.445,15.683 C65.445,15.544 65.402,15.345 65.315,15.085 C65.228,14.825 65.123,14.567 64.998,14.31 C64.873,14.054 64.743,13.828 64.608,13.634 C64.473,13.44 64.357,13.343 64.26,13.343 L65.206,11.149 C65.664,11.669 66.055,12.428 66.381,13.426 C66.707,14.376 66.87,15.221 66.87,15.963 L68.648,15.963 L68.648,17.959 L68.648,17.96 Z M65.737,7.874 L63.553,6.481 L64.468,5.005 L66.662,6.315 L65.737,7.875 L65.737,7.874 Z M60.496,6.626 L61.38,5.087 L63.553,6.48 L62.659,7.925 L60.496,6.625 L60.496,6.626 Z M61.817,17.96 L60.06,17.96 C60.06,19.284 59.471,20.553 58.292,21.766 C57.107,22.986 55.859,23.596 54.549,23.596 C53.648,23.596 52.823,23.284 52.074,22.66 C51.852,22.473 51.591,22.218 51.289,21.896 C50.987,21.574 50.66,21.177 50.306,20.705 C50.417,20.823 50.601,20.944 50.857,21.069 C51.12,21.201 51.45,21.319 51.845,21.423 C52.212,21.52 52.545,21.589 52.843,21.631 C53.141,21.673 53.411,21.697 53.654,21.704 C55.9,21.704 57.661,20.494 58.936,18.075 C59.026,17.895 59.071,17.718 59.071,17.545 C59.071,16.602 58.371,15.639 56.971,14.654 L57.876,12.689 C58.916,13.493 59.602,14.585 59.935,15.964 L61.817,15.964 L61.817,17.96 Z M51.471,15.735 L49.901,17.96 L49.901,4.474 L51.471,2.571 L51.471,15.735 Z M40.257,4.694 C39.674,5.246 38.992,5.522 38.21,5.522 C37.428,5.522 36.738,5.242 36.14,4.682 C35.542,4.122 35.243,3.436 35.243,2.624 L36.945,2.624 C36.945,2.992 37.06,3.302 37.29,3.555 C37.52,3.808 37.827,3.935 38.21,3.935 C38.578,3.935 38.877,3.805 39.107,3.544 C39.337,3.283 39.452,2.977 39.452,2.624 L41.131,2.624 C41.131,3.437 40.84,4.127 40.257,4.694 Z M34.112,14.726 L33.54,16.161 C32.514,16.362 31.779,16.546 31.336,16.712 C31.073,16.809 30.839,16.913 30.634,17.024 C30.43,17.135 30.223,17.263 30.015,17.409 C29.807,17.555 29.58,17.726 29.334,17.924 C29.088,18.122 28.788,18.356 28.435,18.626 C28.373,18.571 28.341,18.515 28.341,18.46 C28.341,18.377 28.376,18.25 28.445,18.08 C28.514,17.91 28.599,17.737 28.7,17.56 C28.801,17.383 28.903,17.222 29.007,17.077 C29.111,16.931 29.201,16.838 29.277,16.796 L28.476,16.183 C28.233,15.927 28.112,15.632 28.112,15.299 C28.112,14.627 28.563,13.829 29.464,12.907 C30.067,12.297 30.954,11.992 32.126,11.992 C32.577,11.992 32.954,12.072 33.259,12.231 L32.677,13.458 C32.642,13.278 32.202,13.188 31.356,13.188 C31.086,13.188 30.812,13.23 30.535,13.313 C30.258,13.396 30.01,13.509 29.792,13.651 C29.574,13.793 29.395,13.956 29.257,14.14 C29.118,14.324 29.049,14.513 29.049,14.707 C29.049,14.991 29.264,15.203 29.694,15.341 L30.006,15.403 L30.713,15.549 L34.113,14.728 L34.112,14.726 Z M28.154,15.714 L27.353,17.638 L23.36,17.96 L17.464,17.96 L17.464,15.964 L20.126,15.964 C19.509,15.125 19.201,14.456 19.201,13.957 C19.201,13.118 19.981,12.082 21.541,10.848 C21.978,10.515 22.477,10.349 23.038,10.349 C23.419,10.349 23.78,10.425 24.119,10.578 C24.459,10.731 24.76,10.94 25.024,11.207 C25.287,11.474 25.509,11.791 25.689,12.158 C25.869,12.525 25.997,12.921 26.074,13.343 C25.977,13.225 25.828,13.109 25.627,12.995 C25.426,12.881 25.202,12.778 24.956,12.688 C24.71,12.598 24.459,12.527 24.202,12.475 C23.946,12.423 23.71,12.397 23.495,12.397 C22.33,12.397 21.506,12.896 21.02,13.894 L21.01,13.956 C21.01,14.102 21.09,14.285 21.249,14.507 C21.408,14.729 21.641,14.971 21.946,15.235 C22.251,15.491 22.52,15.682 22.752,15.807 C22.984,15.932 23.18,15.994 23.339,15.994 L28.153,15.713 L28.154,15.714 Z M19.197,17.96 L17.034,17.96 L17.034,15.964 L19.197,15.964 L19.197,17.96 Z M18.906,17.96 L10.213,17.96 L10.213,15.964 L15.537,15.964 C15.648,15.964 15.703,15.87 15.703,15.683 C15.703,15.544 15.66,15.345 15.573,15.085 C15.486,14.825 15.381,14.567 15.256,14.31 C15.131,14.054 15.001,13.828 14.866,13.634 C14.731,13.44 14.615,13.343 14.518,13.343 L15.464,11.149 C15.922,11.669 16.313,12.428 16.639,13.426 C16.965,14.376 17.128,15.221 17.128,15.963 L18.906,15.963 L18.906,17.959 L18.906,17.96 Z M15.589,21.89 L14.632,23.522 L12.292,22.16 L13.197,20.528 L15.589,21.89 Z M12.075,17.96 L10.318,17.96 C10.318,19.284 9.729,20.553 8.55,21.766 C7.365,22.986 6.117,23.596 4.807,23.596 C3.906,23.596 3.081,23.284 2.332,22.66 C2.11,22.473 1.849,22.218 1.547,21.896 C1.245,21.574 0.918,21.177 0.564,20.705 C0.675,20.823 0.859,20.944 1.115,21.069 C1.378,21.201 1.708,21.319 2.103,21.423 C2.47,21.52 2.803,21.589 3.101,21.631 C3.399,21.673 3.669,21.697 3.912,21.704 C6.158,21.704 7.919,20.494 9.194,18.075 C9.284,17.895 9.329,17.718 9.329,17.545 C9.329,16.602 8.629,15.639 7.229,14.654 L8.134,12.689 C9.174,13.493 9.86,14.585 10.193,15.964 L12.075,15.964 L12.075,17.96 Z" id="Shape"></path>
            <g id="Group" transform="translate(110.000000, 0.000000)">
                <path d="M9.367,19 C4.277,19 0,14.735 0,9.5 C0,4.265 4.277,0 9.367,0 C12.185,0 14.189,1.133 15.698,2.622 L13.922,4.449 C12.84,3.408 11.372,2.592 9.367,2.592 C5.646,2.592 2.739,5.674 2.739,9.5 C2.739,13.327 5.646,16.408 9.367,16.408 C11.778,16.408 13.148,15.408 14.031,14.51 C14.755,13.765 15.222,12.704 15.4,11.245 L9.367,11.245 L9.367,8.643 L17.861,8.643 C17.95,9.102 18,9.663 18,10.265 C18,12.214 17.484,14.622 15.817,16.336 C14.19,18.071 12.126,18.999 9.367,18.999 L9.367,19 Z" id="Shape"></path>
                <path d="M32,13 C32,16.456 29.31,19 26,19 C22.69,19 20,16.456 20,13 C20,9.524 22.69,7 26,7 C29.31,7 32,9.524 32,13 Z M29.371,13 C29.371,10.836 27.808,9.364 26,9.364 C24.193,9.364 22.629,10.846 22.629,13 C22.629,15.134 24.192,16.636 26,16.636 C27.807,16.636 29.371,15.144 29.371,13 Z" id="Shape"></path>
                <path d="M45,13 C45,16.456 42.31,19 39,19 C35.701,19 33,16.456 33,13 C33,9.524 35.69,7 39,7 C42.31,7 45,9.524 45,13 Z M42.381,13 C42.381,10.836 40.818,9.364 39.01,9.364 C37.203,9.364 35.639,10.846 35.639,13 C35.639,15.134 37.202,16.636 39.01,16.636 C40.817,16.646 42.381,15.144 42.381,13 Z" id="Shape"></path>
                <path d="M57,7.362 L57,17.893 C57,22.229 54.501,24 51.543,24 C48.757,24 47.091,22.092 46.459,20.535 L48.651,19.605 C49.044,20.564 50.001,21.69 51.542,21.69 C53.438,21.69 54.606,20.486 54.606,18.245 L54.606,17.403 L54.52,17.403 C53.955,18.117 52.864,18.734 51.495,18.734 C48.623,18.734 46,16.18 46,12.891 C46,9.583 48.633,6.999 51.495,6.999 C52.864,6.999 53.955,7.625 54.52,8.31 L54.606,8.31 L54.606,7.361 L56.999,7.361 L57,7.362 Z M54.779,12.901 C54.779,10.836 53.429,9.319 51.715,9.319 C49.973,9.319 48.517,10.826 48.517,12.901 C48.517,14.946 49.972,16.434 51.715,16.434 C53.429,16.434 54.779,14.946 54.779,12.901 Z" id="Shape"></path>
                <polygon id="Shape" points="63 1 63 19 60 19 60 1"></polygon>
                <path d="M72.844,14.973 L74.89,16.335 C74.228,17.317 72.634,18.999 69.876,18.999 C66.457,18.999 64,16.365 64,12.999 C64,9.433 66.487,6.999 69.585,6.999 C72.704,6.999 74.228,9.473 74.729,10.815 L75,11.496 L66.968,14.822 C67.58,16.024 68.542,16.645 69.886,16.645 C71.23,16.645 72.162,15.974 72.844,14.972 L72.844,14.973 Z M66.537,12.809 L71.912,10.585 C71.611,9.834 70.729,9.313 69.676,9.313 C68.332,9.313 66.467,10.495 66.537,12.809 Z" id="Shape"></path>
            </g>
        </g>
    </g>
</svg>
