<?xml version="1.0" encoding="UTF-8"?>
<svg width="221px" height="24px" viewBox="0 0 221 24" version="1.1" xmlns="http://www.w3.org/2000/svg" xmlns:xlink="http://www.w3.org/1999/xlink">
    <!-- Generator: Sketch 62 (91390) - https://sketch.com -->
    <title>b-da-lt</title>
    <desc>Created with Sketch.</desc>
    <g id="Page-1" stroke="none" stroke-width="1" fill="none" fill-rule="evenodd">
        <g id="Artboard-Copy" transform="translate(-116.000000, -154.000000)" fill-rule="nonzero">
            <g id="b-da-lt" transform="translate(116.000000, 154.000000)">
                <g id="b-de-lt-copy" transform="translate(146.000000, 0.000000)">
                    <g id="Group">
                        <path d="M9.367,19 C4.277,19 0,14.735 0,9.5 C0,4.265 4.277,0 9.367,0 C12.185,0 14.189,1.133 15.698,2.622 L13.922,4.449 C12.84,3.408 11.372,2.592 9.367,2.592 C5.646,2.592 2.739,5.674 2.739,9.5 C2.739,13.327 5.646,16.408 9.367,16.408 C11.778,16.408 13.148,15.408 14.031,14.51 C14.755,13.765 15.222,12.704 15.4,11.245 L9.367,11.245 L9.367,8.643 L17.861,8.643 C17.95,9.102 18,9.663 18,10.265 C18,12.214 17.484,14.622 15.817,16.336 C14.19,18.071 12.126,18.999 9.367,18.999 L9.367,19 Z" id="Shape" fill="#4285F4"></path>
                        <path d="M32,13 C32,16.456 29.31,19 26,19 C22.69,19 20,16.456 20,13 C20,9.524 22.69,7 26,7 C29.31,7 32,9.524 32,13 Z M29.371,13 C29.371,10.836 27.808,9.364 26,9.364 C24.193,9.364 22.629,10.846 22.629,13 C22.629,15.134 24.192,16.636 26,16.636 C27.807,16.636 29.371,15.144 29.371,13 Z" id="Shape" fill="#E94235"></path>
                        <path d="M45,13 C45,16.456 42.31,19 39,19 C35.701,19 33,16.456 33,13 C33,9.524 35.69,7 39,7 C42.31,7 45,9.524 45,13 Z M42.381,13 C42.381,10.836 40.818,9.364 39.01,9.364 C37.203,9.364 35.639,10.846 35.639,13 C35.639,15.134 37.202,16.6360496 39.01,16.6360496 C40.817,16.646 42.381,15.144 42.381,13 Z" id="Shape" fill="#FABB05"></path>
                        <path d="M57,7.362 L57,17.893 C57,22.229 54.501,24 51.543,24 C48.757,24 47.091,22.092 46.459,20.535 L48.651,19.605 C49.044,20.564 50.001,21.69 51.542,21.69 C53.438,21.69 54.606,20.486 54.606,18.245 L54.606,17.403 L54.52,17.403 C53.955,18.117 52.864,18.734 51.495,18.734 C48.623,18.734 46,16.18 46,12.891 C46,9.583 48.633,6.999 51.495,6.999 C52.864,6.999 53.955,7.625 54.52,8.31 L54.606,8.31 L54.606,7.361 L56.999,7.361 L57,7.362 Z M54.779,12.901 C54.779,10.836 53.429,9.319 51.715,9.319 C49.973,9.319 48.517,10.826 48.517,12.901 C48.517,14.946 49.972,16.434 51.715,16.434 C53.429,16.434 54.779,14.946 54.779,12.901 L54.779,12.901 Z" id="Shape" fill="#4285F4"></path>
                        <polygon id="Shape" fill="#34A853" points="63 1 63 19 60 19 60 1"></polygon>
                        <path d="M72.844,14.973 L74.89,16.335 C74.228,17.317 72.634,18.999 69.876,18.999 C66.457,18.999 64,16.365 64,12.999 C64,9.433 66.487,6.999 69.585,6.999 C72.704,6.999 74.228,9.473 74.729,10.815 L75,11.496 L66.968,14.822 C67.58,16.024 68.542,16.645 69.886,16.645 C71.23,16.645 72.162,15.974 72.844,14.972 L72.844,14.973 Z M66.537,12.809 L71.912,10.585 C71.611,9.834 70.729,9.313 69.676,9.313 C68.332,9.313 66.467,10.495 66.537,12.809 Z" id="Shape" fill="#E94235"></path>
                    </g>
                </g>
                <path d="M2.484,17 L4.14,12.469 L11.27,12.469 L12.926,17 L15.065,17 L8.809,0.532 L6.601,0.532 L0.345,17 L2.484,17 Z M10.603,10.629 L4.807,10.629 L7.015,4.695 L7.659,2.924 L7.751,2.924 L8.395,4.695 L10.603,10.629 Z M22.516,17.368 C23.574,17.368 24.5285,17.0996667 25.3795,16.563 C26.2305,16.0263333 26.9013333,15.2865 27.392,14.3435 C27.8826667,13.4005 28.128,12.331 28.128,11.135 C28.128,9.95433333 27.8826667,8.88866667 27.392,7.938 C26.9013333,6.98733333 26.2305,6.24366667 25.3795,5.707 C24.5285,5.17033333 23.574,4.902 22.516,4.902 C21.6266667,4.902 20.8255,5.10516667 20.1125,5.5115 C19.3995,5.91783333 18.8666667,6.42 18.514,7.018 L18.514,7.018 L18.422,7.018 L18.514,5.385 L18.514,0.532 L16.559,0.532 L16.559,17 L18.422,17 L18.422,15.275 L18.514,15.275 C18.8666667,15.8576667 19.3995,16.3521667 20.1125,16.7585 C20.8255,17.1648333 21.6266667,17.368 22.516,17.368 Z M22.309,15.597 C21.619,15.597 20.9788333,15.413 20.3885,15.045 C19.7981667,14.677 19.3228333,14.1556667 18.9625,13.481 C18.6021667,12.8063333 18.422,12.0243333 18.422,11.135 C18.422,10.2456667 18.6021667,9.46366667 18.9625,8.789 C19.3228333,8.11433333 19.7981667,7.593 20.3885,7.225 C20.9788333,6.857 21.619,6.673 22.309,6.673 C22.9836667,6.673 23.62,6.857 24.218,7.225 C24.816,7.593 25.2913333,8.11433333 25.644,8.789 C25.9966667,9.46366667 26.173,10.2456667 26.173,11.135 C26.173,12.0243333 25.9966667,12.8063333 25.644,13.481 C25.2913333,14.1556667 24.816,14.677 24.218,15.045 C23.62,15.413 22.9836667,15.597 22.309,15.597 Z M35.51,17.368 C36.66,17.368 37.695,17.092 38.615,16.54 C39.535,15.988 40.2518333,15.2366667 40.7655,14.286 C41.2791667,13.3353333 41.536,12.285 41.536,11.135 C41.536,9.985 41.2791667,8.93466667 40.7655,7.984 C40.2518333,7.03333333 39.535,6.282 38.615,5.73 C37.695,5.178 36.66,4.902 35.51,4.902 C34.36,4.902 33.325,5.178 32.405,5.73 C31.485,6.282 30.7681667,7.03333333 30.2545,7.984 C29.7408333,8.93466667 29.484,9.985 29.484,11.135 C29.484,12.285 29.7408333,13.3353333 30.2545,14.286 C30.7681667,15.2366667 31.485,15.988 32.405,16.54 C33.325,17.092 34.36,17.368 35.51,17.368 Z M35.51,15.597 C34.7893333,15.597 34.1146667,15.4168333 33.486,15.0565 C32.8573333,14.6961667 32.3551667,14.1786667 31.9795,13.504 C31.6038333,12.8293333 31.416,12.0396667 31.416,11.135 C31.416,10.2303333 31.6038333,9.44066667 31.9795,8.766 C32.3551667,8.09133333 32.8573333,7.57383333 33.486,7.2135 C34.1146667,6.85316667 34.7893333,6.673 35.51,6.673 C36.2306667,6.673 36.9015,6.85316667 37.5225,7.2135 C38.1435,7.57383333 38.6418333,8.09133333 39.0175,8.766 C39.3931667,9.44066667 39.581,10.2303333 39.581,11.135 C39.581,12.0396667 39.3931667,12.8293333 39.0175,13.504 C38.6418333,14.1786667 38.1435,14.6961667 37.5225,15.0565 C36.9015,15.4168333 36.2306667,15.597 35.51,15.597 Z M45.238,17 L45.238,10.399 C45.238,9.77033333 45.376,9.1685 45.652,8.5935 C45.928,8.0185 46.3151667,7.55466667 46.8135,7.202 C47.3118333,6.84933333 47.8753333,6.673 48.504,6.673 C49.4086667,6.673 50.1216667,6.91833333 50.643,7.409 C51.1643333,7.89966667 51.425,8.68933333 51.425,9.778 L51.425,9.778 L51.425,17 L53.38,17 L53.38,9.479 C53.38,8.06833333 53.0081667,6.95283333 52.2645,6.1325 C51.5208333,5.31216667 50.4436667,4.902 49.033,4.902 C48.2356667,4.902 47.4843333,5.10516667 46.779,5.5115 C46.0736667,5.91783333 45.56,6.41233333 45.238,6.995 L45.238,6.995 L45.146,6.995 L45.146,5.27 L43.283,5.27 L43.283,17 L45.238,17 Z M57.841,17 L57.841,10.399 C57.841,9.77033333 57.979,9.1685 58.255,8.5935 C58.531,8.0185 58.9181667,7.55466667 59.4165,7.202 C59.9148333,6.84933333 60.4783333,6.673 61.107,6.673 C62.0116667,6.673 62.7246667,6.91833333 63.246,7.409 C63.7673333,7.89966667 64.028,8.68933333 64.028,9.778 L64.028,9.778 L64.028,17 L65.983,17 L65.983,9.479 C65.983,8.06833333 65.6111667,6.95283333 64.8675,6.1325 C64.1238333,5.31216667 63.0466667,4.902 61.636,4.902 C60.8386667,4.902 60.0873333,5.10516667 59.382,5.5115 C58.6766667,5.91783333 58.163,6.41233333 57.841,6.995 L57.841,6.995 L57.749,6.995 L57.749,5.27 L55.886,5.27 L55.886,17 L57.841,17 Z M73.71,17.368 C74.9366667,17.368 75.987,17.0881667 76.861,16.5285 C77.735,15.9688333 78.4173333,15.2213333 78.908,14.286 L78.908,14.286 L77.252,13.481 C76.47,14.8916667 75.3123333,15.597 73.779,15.597 C73.135,15.597 72.5178333,15.4436667 71.9275,15.137 C71.3371667,14.8303333 70.8503333,14.3703333 70.467,13.757 C70.0836667,13.1436667 69.869,12.3923333 69.823,11.503 L69.823,11.503 L79.115,11.503 C79.1456667,11.2883333 79.161,11.089 79.161,10.905 C79.161,9.73966667 78.9348333,8.70466667 78.4825,7.8 C78.0301667,6.89533333 77.3823333,6.18616667 76.539,5.6725 C75.6956667,5.15883333 74.699,4.902 73.549,4.902 C72.4296667,4.902 71.4368333,5.18566667 70.5705,5.753 C69.7041667,6.32033333 69.0371667,7.08316667 68.5695,8.0415 C68.1018333,8.99983333 67.868,10.0386667 67.868,11.158 C67.868,12.3386667 68.1171667,13.4005 68.6155,14.3435 C69.1138333,15.2865 69.8076667,16.0263333 70.697,16.563 C71.5863333,17.0996667 72.5906667,17.368 73.71,17.368 Z M77.091,9.893 L69.938,9.893 C70.1373333,8.927 70.559,8.14883333 71.203,7.5585 C71.847,6.96816667 72.629,6.673 73.549,6.673 C74.3463333,6.673 75.0056667,6.84166667 75.527,7.179 C76.0483333,7.51633333 76.4316667,7.93033333 76.677,8.421 C76.9223333,8.91166667 77.0603333,9.40233333 77.091,9.893 L77.091,9.893 Z M83.093,17 L83.093,10.445 C83.093,9.81633333 83.2348333,9.22983333 83.5185,8.6855 C83.8021667,8.14116667 84.1816667,7.708 84.657,7.386 C85.1323333,7.064 85.6536667,6.903 86.221,6.903 C86.8343333,6.903 87.3863333,7.02566667 87.877,7.271 L87.877,7.271 L87.877,5.155 C87.4936667,5.00166667 87.0336667,4.925 86.497,4.925 C85.7763333,4.925 85.0863333,5.13583333 84.427,5.5575 C83.7676667,5.97916667 83.323,6.512 83.093,7.156 L83.093,7.156 L83.001,7.156 L83.001,5.27 L81.138,5.27 L81.138,17 L83.093,17 Z M96.454,17 L96.454,10.422 C96.454,9.76266667 96.5881667,9.1455 96.8565,8.5705 C97.1248333,7.9955 97.4966667,7.5355 97.972,7.1905 C98.4473333,6.8455 98.9763333,6.673 99.559,6.673 C100.417667,6.673 101.069333,6.91833333 101.514,7.409 C101.958667,7.89966667 102.181,8.697 102.181,9.801 L102.181,9.801 L102.181,17 L104.136,17 L104.136,10.376 C104.136,9.71666667 104.270167,9.10333333 104.5385,8.536 C104.806833,7.96866667 105.178667,7.51633333 105.654,7.179 C106.129333,6.84166667 106.658333,6.673 107.241,6.673 C108.115,6.673 108.774333,6.91833333 109.219,7.409 C109.663667,7.89966667 109.886,8.68933333 109.886,9.778 L109.886,9.778 L109.886,17 L111.818,17 L111.818,9.479 C111.818,8.06833333 111.476833,6.95283333 110.7945,6.1325 C110.112167,5.31216667 109.096333,4.902 107.747,4.902 C106.842333,4.902 106.048833,5.109 105.3665,5.523 C104.684167,5.937 104.136,6.489 103.722,7.179 C103.446,6.489 102.989833,5.937 102.3535,5.523 C101.717167,5.109 100.969667,4.902 100.111,4.902 C99.3596667,4.902 98.6466667,5.10133333 97.972,5.5 C97.2973333,5.89866667 96.7913333,6.397 96.454,6.995 L96.454,6.995 L96.362,6.995 L96.362,5.27 L94.499,5.27 L94.499,17 L96.454,17 Z M119.568,17.368 C120.794667,17.368 121.845,17.0881667 122.719,16.5285 C123.593,15.9688333 124.275333,15.2213333 124.766,14.286 L124.766,14.286 L123.11,13.481 C122.328,14.8916667 121.170333,15.597 119.637,15.597 C118.993,15.597 118.375833,15.4436667 117.7855,15.137 C117.195167,14.8303333 116.708333,14.3703333 116.325,13.757 C115.941667,13.1436667 115.727,12.3923333 115.681,11.503 L115.681,11.503 L124.973,11.503 C125.003667,11.2883333 125.019,11.089 125.019,10.905 C125.019,9.73966667 124.792833,8.70466667 124.3405,7.8 C123.888167,6.89533333 123.240333,6.18616667 122.397,5.6725 C121.553667,5.15883333 120.557,4.902 119.407,4.902 C118.287667,4.902 117.294833,5.18566667 116.4285,5.753 C115.562167,6.32033333 114.895167,7.08316667 114.4275,8.0415 C113.959833,8.99983333 113.726,10.0386667 113.726,11.158 C113.726,12.3386667 113.975167,13.4005 114.4735,14.3435 C114.971833,15.2865 115.665667,16.0263333 116.555,16.563 C117.444333,17.0996667 118.448667,17.368 119.568,17.368 Z M122.949,9.893 L115.796,9.893 C115.995333,8.927 116.417,8.14883333 117.061,7.5585 C117.705,6.96816667 118.487,6.673 119.407,6.673 C120.204333,6.673 120.863667,6.84166667 121.385,7.179 C121.906333,7.51633333 122.289667,7.93033333 122.535,8.421 C122.780333,8.91166667 122.918333,9.40233333 122.949,9.893 L122.949,9.893 Z M132.102,17.368 C132.991333,17.368 133.788667,17.1648333 134.494,16.7585 C135.199333,16.3521667 135.736,15.8576667 136.104,15.275 L136.104,15.275 L136.196,15.275 L136.196,17 L138.059,17 L138.059,0.532 L136.104,0.532 L136.104,5.385 L136.196,7.018 L136.104,7.018 C135.736,6.42 135.199333,5.91783333 134.494,5.5115 C133.788667,5.10516667 132.991333,4.902 132.102,4.902 C131.044,4.902 130.0895,5.17033333 129.2385,5.707 C128.3875,6.24366667 127.716667,6.98733333 127.226,7.938 C126.735333,8.88866667 126.49,9.95433333 126.49,11.135 C126.49,12.331 126.735333,13.4005 127.226,14.3435 C127.716667,15.2865 128.3875,16.0263333 129.2385,16.563 C130.0895,17.0996667 131.044,17.368 132.102,17.368 Z M132.309,15.597 C131.634333,15.597 130.998,15.413 130.4,15.045 C129.802,14.677 129.322833,14.1518333 128.9625,13.4695 C128.602167,12.7871667 128.422,12.009 128.422,11.135 C128.422,10.261 128.602167,9.48283333 128.9625,8.8005 C129.322833,8.11816667 129.802,7.593 130.4,7.225 C130.998,6.857 131.634333,6.673 132.309,6.673 C132.999,6.673 133.639167,6.857 134.2295,7.225 C134.819833,7.593 135.295167,8.11433333 135.6555,8.789 C136.015833,9.46366667 136.196,10.2456667 136.196,11.135 C136.196,12.0243333 136.015833,12.8063333 135.6555,13.481 C135.295167,14.1556667 134.819833,14.677 134.2295,15.045 C133.639167,15.413 132.999,15.597 132.309,15.597 Z" id="Abonnermed" fill="#5F6368"></path>
            </g>
        </g>
    </g>
</svg>