<?xml version="1.0" encoding="UTF-8"?>
<svg width="221px" height="24px" viewBox="0 0 221 24" version="1.1" xmlns="http://www.w3.org/2000/svg" xmlns:xlink="http://www.w3.org/1999/xlink">
    <!-- Generator: Sketch 62 (91390) - https://sketch.com -->
    <title>b-da-dk</title>
    <desc>Created with Sketch.</desc>
    <g id="Page-1" stroke="none" stroke-width="1" fill="none" fill-rule="evenodd">
        <g id="Artboard-Copy" transform="translate(-115.000000, -102.000000)" fill="#FFFFFF" fill-rule="nonzero">
            <g id="b-da-dk" transform="translate(115.000000, 102.000000)">
                <path d="M2.484,19 L4.14,14.469 L11.27,14.469 L12.926,19 L15.065,19 L8.809,2.532 L6.601,2.532 L0.345,19 L2.484,19 Z M10.603,12.629 L4.807,12.629 L7.015,6.695 L7.659,4.924 L7.751,4.924 L8.395,6.695 L10.603,12.629 Z M22.516,19.368 C23.574,19.368 24.5285,19.0996667 25.3795,18.563 C26.2305,18.0263333 26.9013333,17.2865 27.392,16.3435 C27.8826667,15.4005 28.128,14.331 28.128,13.135 C28.128,11.9543333 27.8826667,10.8886667 27.392,9.938 C26.9013333,8.98733333 26.2305,8.24366667 25.3795,7.707 C24.5285,7.17033333 23.574,6.902 22.516,6.902 C21.6266667,6.902 20.8255,7.10516667 20.1125,7.5115 C19.3995,7.91783333 18.8666667,8.42 18.514,9.018 L18.514,9.018 L18.422,9.018 L18.514,7.385 L18.514,2.532 L16.559,2.532 L16.559,19 L18.422,19 L18.422,17.275 L18.514,17.275 C18.8666667,17.8576667 19.3995,18.3521667 20.1125,18.7585 C20.8255,19.1648333 21.6266667,19.368 22.516,19.368 Z M22.309,17.597 C21.619,17.597 20.9788333,17.413 20.3885,17.045 C19.7981667,16.677 19.3228333,16.1556667 18.9625,15.481 C18.6021667,14.8063333 18.422,14.0243333 18.422,13.135 C18.422,12.2456667 18.6021667,11.4636667 18.9625,10.789 C19.3228333,10.1143333 19.7981667,9.593 20.3885,9.225 C20.9788333,8.857 21.619,8.673 22.309,8.673 C22.9836667,8.673 23.62,8.857 24.218,9.225 C24.816,9.593 25.2913333,10.1143333 25.644,10.789 C25.9966667,11.4636667 26.173,12.2456667 26.173,13.135 C26.173,14.0243333 25.9966667,14.8063333 25.644,15.481 C25.2913333,16.1556667 24.816,16.677 24.218,17.045 C23.62,17.413 22.9836667,17.597 22.309,17.597 Z M35.51,19.368 C36.66,19.368 37.695,19.092 38.615,18.54 C39.535,17.988 40.2518333,17.2366667 40.7655,16.286 C41.2791667,15.3353333 41.536,14.285 41.536,13.135 C41.536,11.985 41.2791667,10.9346667 40.7655,9.984 C40.2518333,9.03333333 39.535,8.282 38.615,7.73 C37.695,7.178 36.66,6.902 35.51,6.902 C34.36,6.902 33.325,7.178 32.405,7.73 C31.485,8.282 30.7681667,9.03333333 30.2545,9.984 C29.7408333,10.9346667 29.484,11.985 29.484,13.135 C29.484,14.285 29.7408333,15.3353333 30.2545,16.286 C30.7681667,17.2366667 31.485,17.988 32.405,18.54 C33.325,19.092 34.36,19.368 35.51,19.368 Z M35.51,17.597 C34.7893333,17.597 34.1146667,17.4168333 33.486,17.0565 C32.8573333,16.6961667 32.3551667,16.1786667 31.9795,15.504 C31.6038333,14.8293333 31.416,14.0396667 31.416,13.135 C31.416,12.2303333 31.6038333,11.4406667 31.9795,10.766 C32.3551667,10.0913333 32.8573333,9.57383333 33.486,9.2135 C34.1146667,8.85316667 34.7893333,8.673 35.51,8.673 C36.2306667,8.673 36.9015,8.85316667 37.5225,9.2135 C38.1435,9.57383333 38.6418333,10.0913333 39.0175,10.766 C39.3931667,11.4406667 39.581,12.2303333 39.581,13.135 C39.581,14.0396667 39.3931667,14.8293333 39.0175,15.504 C38.6418333,16.1786667 38.1435,16.6961667 37.5225,17.0565 C36.9015,17.4168333 36.2306667,17.597 35.51,17.597 Z M45.238,19 L45.238,12.399 C45.238,11.7703333 45.376,11.1685 45.652,10.5935 C45.928,10.0185 46.3151667,9.55466667 46.8135,9.202 C47.3118333,8.84933333 47.8753333,8.673 48.504,8.673 C49.4086667,8.673 50.1216667,8.91833333 50.643,9.409 C51.1643333,9.89966667 51.425,10.6893333 51.425,11.778 L51.425,11.778 L51.425,19 L53.38,19 L53.38,11.479 C53.38,10.0683333 53.0081667,8.95283333 52.2645,8.1325 C51.5208333,7.31216667 50.4436667,6.902 49.033,6.902 C48.2356667,6.902 47.4843333,7.10516667 46.779,7.5115 C46.0736667,7.91783333 45.56,8.41233333 45.238,8.995 L45.238,8.995 L45.146,8.995 L45.146,7.27 L43.283,7.27 L43.283,19 L45.238,19 Z M57.841,19 L57.841,12.399 C57.841,11.7703333 57.979,11.1685 58.255,10.5935 C58.531,10.0185 58.9181667,9.55466667 59.4165,9.202 C59.9148333,8.84933333 60.4783333,8.673 61.107,8.673 C62.0116667,8.673 62.7246667,8.91833333 63.246,9.409 C63.7673333,9.89966667 64.028,10.6893333 64.028,11.778 L64.028,11.778 L64.028,19 L65.983,19 L65.983,11.479 C65.983,10.0683333 65.6111667,8.95283333 64.8675,8.1325 C64.1238333,7.31216667 63.0466667,6.902 61.636,6.902 C60.8386667,6.902 60.0873333,7.10516667 59.382,7.5115 C58.6766667,7.91783333 58.163,8.41233333 57.841,8.995 L57.841,8.995 L57.749,8.995 L57.749,7.27 L55.886,7.27 L55.886,19 L57.841,19 Z M73.71,19.368 C74.9366667,19.368 75.987,19.0881667 76.861,18.5285 C77.735,17.9688333 78.4173333,17.2213333 78.908,16.286 L78.908,16.286 L77.252,15.481 C76.47,16.8916667 75.3123333,17.597 73.779,17.597 C73.135,17.597 72.5178333,17.4436667 71.9275,17.137 C71.3371667,16.8303333 70.8503333,16.3703333 70.467,15.757 C70.0836667,15.1436667 69.869,14.3923333 69.823,13.503 L69.823,13.503 L79.115,13.503 C79.1456667,13.2883333 79.161,13.089 79.161,12.905 C79.161,11.7396667 78.9348333,10.7046667 78.4825,9.8 C78.0301667,8.89533333 77.3823333,8.18616667 76.539,7.6725 C75.6956667,7.15883333 74.699,6.902 73.549,6.902 C72.4296667,6.902 71.4368333,7.18566667 70.5705,7.753 C69.7041667,8.32033333 69.0371667,9.08316667 68.5695,10.0415 C68.1018333,10.9998333 67.868,12.0386667 67.868,13.158 C67.868,14.3386667 68.1171667,15.4005 68.6155,16.3435 C69.1138333,17.2865 69.8076667,18.0263333 70.697,18.563 C71.5863333,19.0996667 72.5906667,19.368 73.71,19.368 Z M77.091,11.893 L69.938,11.893 C70.1373333,10.927 70.559,10.1488333 71.203,9.5585 C71.847,8.96816667 72.629,8.673 73.549,8.673 C74.3463333,8.673 75.0056667,8.84166667 75.527,9.179 C76.0483333,9.51633333 76.4316667,9.93033333 76.677,10.421 C76.9223333,10.9116667 77.0603333,11.4023333 77.091,11.893 L77.091,11.893 Z M83.093,19 L83.093,12.445 C83.093,11.8163333 83.2348333,11.2298333 83.5185,10.6855 C83.8021667,10.1411667 84.1816667,9.708 84.657,9.386 C85.1323333,9.064 85.6536667,8.903 86.221,8.903 C86.8343333,8.903 87.3863333,9.02566667 87.877,9.271 L87.877,9.271 L87.877,7.155 C87.4936667,7.00166667 87.0336667,6.925 86.497,6.925 C85.7763333,6.925 85.0863333,7.13583333 84.427,7.5575 C83.7676667,7.97916667 83.323,8.512 83.093,9.156 L83.093,9.156 L83.001,9.156 L83.001,7.27 L81.138,7.27 L81.138,19 L83.093,19 Z M96.454,19 L96.454,12.422 C96.454,11.7626667 96.5881667,11.1455 96.8565,10.5705 C97.1248333,9.9955 97.4966667,9.5355 97.972,9.1905 C98.4473333,8.8455 98.9763333,8.673 99.559,8.673 C100.417667,8.673 101.069333,8.91833333 101.514,9.409 C101.958667,9.89966667 102.181,10.697 102.181,11.801 L102.181,11.801 L102.181,19 L104.136,19 L104.136,12.376 C104.136,11.7166667 104.270167,11.1033333 104.5385,10.536 C104.806833,9.96866667 105.178667,9.51633333 105.654,9.179 C106.129333,8.84166667 106.658333,8.673 107.241,8.673 C108.115,8.673 108.774333,8.91833333 109.219,9.409 C109.663667,9.89966667 109.886,10.6893333 109.886,11.778 L109.886,11.778 L109.886,19 L111.818,19 L111.818,11.479 C111.818,10.0683333 111.476833,8.95283333 110.7945,8.1325 C110.112167,7.31216667 109.096333,6.902 107.747,6.902 C106.842333,6.902 106.048833,7.109 105.3665,7.523 C104.684167,7.937 104.136,8.489 103.722,9.179 C103.446,8.489 102.989833,7.937 102.3535,7.523 C101.717167,7.109 100.969667,6.902 100.111,6.902 C99.3596667,6.902 98.6466667,7.10133333 97.972,7.5 C97.2973333,7.89866667 96.7913333,8.397 96.454,8.995 L96.454,8.995 L96.362,8.995 L96.362,7.27 L94.499,7.27 L94.499,19 L96.454,19 Z M119.568,19.368 C120.794667,19.368 121.845,19.0881667 122.719,18.5285 C123.593,17.9688333 124.275333,17.2213333 124.766,16.286 L124.766,16.286 L123.11,15.481 C122.328,16.8916667 121.170333,17.597 119.637,17.597 C118.993,17.597 118.375833,17.4436667 117.7855,17.137 C117.195167,16.8303333 116.708333,16.3703333 116.325,15.757 C115.941667,15.1436667 115.727,14.3923333 115.681,13.503 L115.681,13.503 L124.973,13.503 C125.003667,13.2883333 125.019,13.089 125.019,12.905 C125.019,11.7396667 124.792833,10.7046667 124.3405,9.8 C123.888167,8.89533333 123.240333,8.18616667 122.397,7.6725 C121.553667,7.15883333 120.557,6.902 119.407,6.902 C118.287667,6.902 117.294833,7.18566667 116.4285,7.753 C115.562167,8.32033333 114.895167,9.08316667 114.4275,10.0415 C113.959833,10.9998333 113.726,12.0386667 113.726,13.158 C113.726,14.3386667 113.975167,15.4005 114.4735,16.3435 C114.971833,17.2865 115.665667,18.0263333 116.555,18.563 C117.444333,19.0996667 118.448667,19.368 119.568,19.368 Z M122.949,11.893 L115.796,11.893 C115.995333,10.927 116.417,10.1488333 117.061,9.5585 C117.705,8.96816667 118.487,8.673 119.407,8.673 C120.204333,8.673 120.863667,8.84166667 121.385,9.179 C121.906333,9.51633333 122.289667,9.93033333 122.535,10.421 C122.780333,10.9116667 122.918333,11.4023333 122.949,11.893 L122.949,11.893 Z M132.102,19.368 C132.991333,19.368 133.788667,19.1648333 134.494,18.7585 C135.199333,18.3521667 135.736,17.8576667 136.104,17.275 L136.104,17.275 L136.196,17.275 L136.196,19 L138.059,19 L138.059,2.532 L136.104,2.532 L136.104,7.385 L136.196,9.018 L136.104,9.018 C135.736,8.42 135.199333,7.91783333 134.494,7.5115 C133.788667,7.10516667 132.991333,6.902 132.102,6.902 C131.044,6.902 130.0895,7.17033333 129.2385,7.707 C128.3875,8.24366667 127.716667,8.98733333 127.226,9.938 C126.735333,10.8886667 126.49,11.9543333 126.49,13.135 C126.49,14.331 126.735333,15.4005 127.226,16.3435 C127.716667,17.2865 128.3875,18.0263333 129.2385,18.563 C130.0895,19.0996667 131.044,19.368 132.102,19.368 Z M132.309,17.597 C131.634333,17.597 130.998,17.413 130.4,17.045 C129.802,16.677 129.322833,16.1518333 128.9625,15.4695 C128.602167,14.7871667 128.422,14.009 128.422,13.135 C128.422,12.261 128.602167,11.4828333 128.9625,10.8005 C129.322833,10.1181667 129.802,9.593 130.4,9.225 C130.998,8.857 131.634333,8.673 132.309,8.673 C132.999,8.673 133.639167,8.857 134.2295,9.225 C134.819833,9.593 135.295167,10.1143333 135.6555,10.789 C136.015833,11.4636667 136.196,12.2456667 136.196,13.135 C136.196,14.0243333 136.015833,14.8063333 135.6555,15.481 C135.295167,16.1556667 134.819833,16.677 134.2295,17.045 C133.639167,17.413 132.999,17.597 132.309,17.597 Z" id="Abonnermed"></path>
                <g id="Group" transform="translate(146.000000, 0.000000)">
                    <path d="M9.36714443,19 C4.27673649,19 0,14.7346939 0,9.5 C0,4.26530612 4.27673649,0 9.36714443,0 C12.185226,0 14.1896362,1.13265306 15.6979052,2.62244898 L13.92172,4.44897959 C12.8401323,3.40816327 11.3715546,2.59183673 9.36714443,2.59183673 C5.646086,2.59183673 2.73869901,5.67346939 2.73869901,9.5 C2.73869901,13.3265306 5.646086,16.4081633 9.36714443,16.4081633 C11.7783903,16.4081633 13.1477398,15.4081633 14.030871,14.5102041 C14.755237,13.7653061 15.2216097,12.7040816 15.4002205,11.244898 L9.36714443,11.244898 L9.36714443,8.64285714 L17.8610805,8.64285714 C17.9503859,9.10204082 18,9.66326531 18,10.2653061 C18,12.2142857 17.4840132,14.622449 15.8169791,16.3367347 C14.1896362,18.0714286 12.1256891,19 9.36714443,19 Z" id="Shape"></path>
                    <path d="M32,13 C32,16.4557596 29.3096447,19 26,19 C22.6903553,19 20,16.4557596 20,13 C20,9.52420701 22.6903553,7 26,7 C29.3096447,7 32,9.52420701 32,13 Z M29.3705584,13 C29.3705584,10.836394 27.8071066,9.3639399 26,9.3639399 C24.1928934,9.3639399 22.6294416,10.8464107 22.6294416,13 C22.6294416,15.1335559 24.1928934,16.6360601 26,16.6360601 C27.8071066,16.6360601 29.3705584,15.1435726 29.3705584,13 Z" id="Shape"></path>
                    <path d="M45,13 C45,16.4557596 42.3096447,19 39,19 C35.7005076,19 33,16.4557596 33,13 C33,9.52420701 35.6903553,7 39,7 C42.3096447,7 45,9.52420701 45,13 Z M42.3807107,13 C42.3807107,10.836394 40.8172589,9.3639399 39.0101523,9.3639399 C37.2030457,9.3639399 35.6395939,10.8464107 35.6395939,13 C35.6395939,15.1335559 37.2030457,16.6361099 39.0101523,16.6361099 C40.8172589,16.6460768 42.3807107,15.1435726 42.3807107,13 Z" id="Shape"></path>
                    <path d="M57,7.3621186 L57,17.8929188 C57,22.228555 54.5013055,24 51.5430809,24 C48.7571802,24 47.0913838,22.0915371 46.45953,20.5354059 L48.6518712,19.6056419 C49.0443864,20.5647668 50.0017406,21.6902706 51.5430809,21.6902706 C53.4386423,21.6902706 54.6066144,20.4864709 54.6066144,18.2452504 L54.6066144,17.4035694 L54.5204526,17.4035694 C53.9556136,18.1180196 52.8642298,18.7345999 51.4952132,18.7345999 C48.6231506,18.7345999 46,16.1801957 46,12.8917674 C46,9.58376511 48.6327241,7 51.4952132,7 C52.8642298,7 53.9556136,7.6263673 54.5204526,8.31145653 L54.6066144,8.31145653 L54.6066144,7.3621186 L57,7.3621186 Z M54.7789382,12.9015544 C54.7789382,10.8364997 53.4290688,9.31951641 51.7154047,9.31951641 C49.97302,9.31951641 48.5178416,10.8267127 48.5178416,12.9015544 C48.5178416,14.9470351 49.97302,16.4346575 51.7154047,16.4346575 C53.4290688,16.4346575 54.7789382,14.9470351 54.7789382,12.9015544 Z" id="Shape"></path>
                    <polygon id="Shape" points="63 1 63 19 60 19 60 1"></polygon>
                    <path d="M72.8441203,14.9732888 L74.8896992,16.3355593 C74.2278943,17.3171953 72.633546,19 69.8760255,19 C66.4567001,19 64,16.3656093 64,13 C64,9.43405676 66.4867821,7 69.5852325,7 C72.7037375,7 74.2278943,9.47412354 74.7292616,10.8163606 L75,11.4974958 L66.9680948,14.8230384 C67.579763,16.0250417 68.5423883,16.6460768 69.8860529,16.6460768 C71.2297174,16.6460768 72.1622607,15.9749583 72.8441203,14.9732888 Z M66.5369189,12.8096828 L71.911577,10.5859766 C71.6107566,9.83472454 70.72835,9.31385643 69.6754786,9.31385643 C68.331814,9.31385643 66.4667274,10.4958264 66.5369189,12.8096828 Z" id="Shape"></path>
                </g>
            </g>
        </g>
    </g>
</svg>