<?xml version="1.0" encoding="UTF-8"?>
<svg width="221px" height="24px" viewBox="0 0 221 24" version="1.1" xmlns="http://www.w3.org/2000/svg" xmlns:xlink="http://www.w3.org/1999/xlink">
    <!-- Generator: Sketch 51.3 (57544) - http://www.bohemiancoding.com/sketch -->
    <title>SwG-DE-WOB</title>
    <desc>Created with Sketch.</desc>
    <defs></defs>
    <g id="SwG-DE-WOB" stroke="none" stroke-width="1" fill="none" fill-rule="evenodd">
        <path d="M0.367499928,19 L6.57749993,2.532 L8.96949993,2.532 L15.1794999,19 L12.8334999,19 L11.2464999,14.538 L4.32349993,14.538 L2.71349993,19 L0.367499928,19 Z M5.03649993,12.56 L10.5104999,12.56 L7.81949993,5.131 L7.72749993,5.131 L5.03649993,12.56 Z M22.8442499,19.368 C21.985579,19.368 21.2150867,19.1840018 20.5327499,18.816 C19.8504132,18.4479982 19.340585,17.9880028 19.0032499,17.436 L18.9112499,17.436 L18.9112499,19 L16.8872499,19 L16.8872499,2.532 L19.0032499,2.532 L19.0032499,7.73 L18.9112499,9.294 L19.0032499,9.294 C19.340585,8.74199724 19.8504132,8.28200184 20.5327499,7.914 C21.2150867,7.54599816 21.985579,7.362 22.8442499,7.362 C24.3009239,7.362 25.5582447,7.93699425 26.6162499,9.087 C27.6742552,10.2370057 28.2032499,11.6629915 28.2032499,13.365 C28.2032499,15.0670085 27.6742552,16.4929942 26.6162499,17.643 C25.5582447,18.7930057 24.3009239,19.368 22.8442499,19.368 Z M22.4992499,17.436 C23.4805882,17.436 24.3239131,17.0641704 25.0292499,16.3205 C25.7345868,15.5768296 26.0872499,14.5916728 26.0872499,13.365 C26.0872499,12.1383272 25.7345868,11.1531704 25.0292499,10.4095 C24.3239131,9.66582962 23.4805882,9.294 22.4992499,9.294 C21.5025783,9.294 20.6554201,9.66199632 19.9577499,10.398 C19.2600798,11.1340037 18.9112499,12.1229938 18.9112499,13.365 C18.9112499,14.6070062 19.2600798,15.5959963 19.9577499,16.332 C20.6554201,17.0680037 21.5025783,17.436 22.4992499,17.436 Z M31.268,9.087 C32.3566721,7.93699425 33.7443249,7.362 35.431,7.362 C37.1176751,7.362 38.5053278,7.93316096 39.594,9.0755 C40.6826721,10.217839 41.227,11.6476581 41.227,13.365 C41.227,15.0823419 40.6826721,16.512161 39.594,17.6545 C38.5053278,18.796839 37.1176751,19.368 35.431,19.368 C33.7443249,19.368 32.3566721,18.796839 31.268,17.6545 C30.1793278,16.512161 29.635,15.0823419 29.635,13.365 C29.635,11.6476581 30.1793278,10.2216723 31.268,9.087 Z M32.832,16.332 C33.5680036,17.0680037 34.4343283,17.436 35.431,17.436 C36.4276716,17.436 37.290163,17.0641704 38.0185,16.3205 C38.7468369,15.5768296 39.111,14.5916728 39.111,13.365 C39.111,12.1383272 38.7468369,11.1531704 38.0185,10.4095 C37.290163,9.66582962 36.4276716,9.294 35.431,9.294 C34.4343283,9.294 33.5718369,9.66582962 32.8435,10.4095 C32.115163,11.1531704 31.751,12.1383272 31.751,13.365 C31.751,14.5916728 32.1113297,15.5806629 32.832,16.332 Z M45.09675,7.73 L45.09675,9.294 L45.18875,9.294 C45.4954182,8.75733065 45.9784133,8.30116854 46.63775,7.9255 C47.2970866,7.54983146 48.0024129,7.362 48.75375,7.362 C50.1490903,7.362 51.2147463,7.79132904 51.95075,8.65 C52.6867536,9.50867096 53.05475,10.6586595 53.05475,12.1 L53.05475,19 L50.93875,19 L50.93875,12.422 C50.93875,10.3366562 50.0110926,9.294 48.15575,9.294 C47.2817456,9.294 46.5687527,9.64282985 46.01675,10.3405 C45.4647472,11.0381702 45.18875,11.8469954 45.18875,12.767 L45.18875,19 L43.07275,19 L43.07275,7.73 L45.09675,7.73 Z M57.7065,7.73 L57.7065,9.294 L57.7985,9.294 C58.1051682,8.75733065 58.5881633,8.30116854 59.2475,7.9255 C59.9068366,7.54983146 60.6121629,7.362 61.3635,7.362 C62.7588403,7.362 63.8244963,7.79132904 64.5605,8.65 C65.2965037,9.50867096 65.6645,10.6586595 65.6645,12.1 L65.6645,19 L63.5485,19 L63.5485,12.422 C63.5485,10.3366562 62.6208426,9.294 60.7655,9.294 C59.8914956,9.294 59.1785027,9.64282985 58.6265,10.3405 C58.0744972,11.0381702 57.7985,11.8469954 57.7985,12.767 L57.7985,19 L55.6825,19 L55.6825,7.73 L57.7065,7.73 Z M70.59225,4.901 C70.3009152,5.19233479 69.9482521,5.338 69.53425,5.338 C69.1202479,5.338 68.7675848,5.19233479 68.47625,4.901 C68.1849152,4.60966521 68.03925,4.25700207 68.03925,3.843 C68.03925,3.42899793 68.1849152,3.07633479 68.47625,2.785 C68.7675848,2.49366521 69.1202479,2.348 69.53425,2.348 C69.9482521,2.348 70.3009152,2.49366521 70.59225,2.785 C70.8835848,3.07633479 71.02925,3.42899793 71.02925,3.843 C71.02925,4.25700207 70.8835848,4.60966521 70.59225,4.901 Z M70.59225,19 L68.47625,19 L68.47625,7.73 L70.59225,7.73 L70.59225,19 Z M78.487,19.368 C76.7849915,19.368 75.401172,18.8006723 74.3355,17.666 C73.269828,16.5313277 72.737,15.0976753 72.737,13.365 C72.737,11.7243251 73.2544948,10.3136726 74.2895,9.133 C75.3245052,7.95232743 76.6469919,7.362 78.257,7.362 C79.9283417,7.362 81.2661616,7.90632789 82.2705,8.995 C83.2748384,10.0836721 83.777,11.5403242 83.777,13.365 L83.754,13.756 L74.853,13.756 C74.9143336,14.8906723 75.2938298,15.7876634 75.9915,16.447 C76.6891702,17.1063366 77.505662,17.436 78.441,17.436 C79.9590076,17.436 80.9863306,16.7920064 81.523,15.504 L83.409,16.286 C83.0409982,17.1600044 82.4353375,17.8921637 81.592,18.4825 C80.7486624,19.0728363 79.7136728,19.368 78.487,19.368 Z M81.523,12.008 C81.4769998,11.3639968 81.1818361,10.7506696 80.6375,10.168 C80.0931639,9.58533042 79.2843387,9.294 78.211,9.294 C77.4289961,9.294 76.7505029,9.53933088 76.1755,10.03 C75.6004971,10.5206691 75.2056677,11.1799959 74.991,12.008 L81.523,12.008 Z M99.46875,19.184 C98.2880774,19.184 97.3872531,18.8696698 96.76625,18.241 C96.1452469,17.6123302 95.83475,16.7230057 95.83475,15.573 L95.83475,9.662 L93.85675,9.662 L93.85675,7.73 L95.83475,7.73 L95.83475,4.28 L97.95075,4.28 L97.95075,7.73 L100.71075,7.73 L100.71075,9.662 L97.95075,9.662 L97.95075,15.412 C97.95075,16.6386728 98.456745,17.252 99.46875,17.252 C99.8520853,17.252 100.174082,17.1906673 100.43475,17.068 L101.17075,18.885 C100.710748,19.0843343 100.14342,19.184 99.46875,19.184 Z M87.87675,7.73 L87.87675,9.57 L87.96875,9.57 C88.2140846,8.91066337 88.6702467,8.39316854 89.33725,8.0175 C90.0042533,7.64183145 90.7364127,7.454 91.53375,7.454 C91.7637512,7.454 92.0167486,7.46933318 92.29275,7.5 L92.29275,9.57 C92.0014152,9.53933318 91.7177514,9.524 91.44175,9.524 C90.429745,9.524 89.5979199,9.81916372 88.94625,10.4095 C88.2945801,10.9998363 87.96875,11.8086615 87.96875,12.836 L87.96875,19 L85.85275,19 L85.85275,7.73 L87.87675,7.73 Z M108.08225,19 L108.08225,7.73 L110.10625,7.73 L110.10625,9.294 L110.19825,9.294 C110.520252,8.75733065 111.014747,8.30116854 111.68175,7.9255 C112.348753,7.54983146 113.011913,7.362 113.67125,7.362 C115.419259,7.362 116.60758,8.08265946 117.23625,9.524 C118.156255,8.08265946 119.467242,7.362 121.16925,7.362 C122.503257,7.362 123.50758,7.78749575 124.18225,8.6385 C124.85692,9.48950426 125.19425,10.6433261 125.19425,12.1 L125.19425,19 L123.07825,19 L123.07825,12.422 C123.07825,11.2873277 122.871252,10.4823357 122.45725,10.007 C122.043248,9.53166429 121.414588,9.294 120.57125,9.294 C119.743246,9.294 119.057086,9.64666314 118.51275,10.352 C117.968414,11.0573369 117.69625,11.8623288 117.69625,12.767 L117.69625,19 L115.58025,19 L115.58025,12.422 C115.58025,11.2873277 115.373252,10.4823357 114.95925,10.007 C114.545248,9.53166429 113.916588,9.294 113.07325,9.294 C112.245246,9.294 111.559086,9.64666314 111.01475,10.352 C110.470414,11.0573369 110.19825,11.8623288 110.19825,12.767 L110.19825,19 L108.08225,19 Z M130.122,4.901 C129.830665,5.19233479 129.478002,5.338 129.064,5.338 C128.649998,5.338 128.297335,5.19233479 128.006,4.901 C127.714665,4.60966521 127.569,4.25700207 127.569,3.843 C127.569,3.42899793 127.714665,3.07633479 128.006,2.785 C128.297335,2.49366521 128.649998,2.348 129.064,2.348 C129.478002,2.348 129.830665,2.49366521 130.122,2.785 C130.413335,3.07633479 130.559,3.42899793 130.559,3.843 C130.559,4.25700207 130.413335,4.60966521 130.122,4.901 Z M130.122,19 L128.006,19 L128.006,7.73 L130.122,7.73 L130.122,19 Z M137.78675,19.184 C136.606077,19.184 135.705253,18.8696698 135.08425,18.241 C134.463247,17.6123302 134.15275,16.7230057 134.15275,15.573 L134.15275,9.662 L132.17475,9.662 L132.17475,7.73 L134.15275,7.73 L134.15275,4.28 L136.26875,4.28 L136.26875,7.73 L139.02875,7.73 L139.02875,9.662 L136.26875,9.662 L136.26875,15.412 C136.26875,16.6386728 136.774745,17.252 137.78675,17.252 C138.170085,17.252 138.492082,17.1906673 138.75275,17.068 L139.48875,18.885 C139.028748,19.0843343 138.46142,19.184 137.78675,19.184 Z" id="Abonniert-mit" fill="#FFFFFF"></path>
        <g id="Group" transform="translate(146.000000, 0.000000)" fill="#FFFFFF" fill-rule="nonzero">
            <path d="M9.36714443,19 C4.27673649,19 0,14.7346939 0,9.5 C0,4.26530612 4.27673649,0 9.36714443,0 C12.185226,0 14.1896362,1.13265306 15.6979052,2.62244898 L13.92172,4.44897959 C12.8401323,3.40816327 11.3715546,2.59183673 9.36714443,2.59183673 C5.646086,2.59183673 2.73869901,5.67346939 2.73869901,9.5 C2.73869901,13.3265306 5.646086,16.4081633 9.36714443,16.4081633 C11.7783903,16.4081633 13.1477398,15.4081633 14.030871,14.5102041 C14.755237,13.7653061 15.2216097,12.7040816 15.4002205,11.244898 L9.36714443,11.244898 L9.36714443,8.64285714 L17.8610805,8.64285714 C17.9503859,9.10204082 18,9.66326531 18,10.2653061 C18,12.2142857 17.4840132,14.622449 15.8169791,16.3367347 C14.1896362,18.0714286 12.1256891,19 9.36714443,19 Z" id="Shape"></path>
            <path d="M32,13 C32,16.4557596 29.3096447,19 26,19 C22.6903553,19 20,16.4557596 20,13 C20,9.52420701 22.6903553,7 26,7 C29.3096447,7 32,9.52420701 32,13 Z M29.3705584,13 C29.3705584,10.836394 27.8071066,9.3639399 26,9.3639399 C24.1928934,9.3639399 22.6294416,10.8464107 22.6294416,13 C22.6294416,15.1335559 24.1928934,16.6360601 26,16.6360601 C27.8071066,16.6360601 29.3705584,15.1435726 29.3705584,13 Z" id="Shape"></path>
            <path d="M45,13 C45,16.4557596 42.3096447,19 39,19 C35.7005076,19 33,16.4557596 33,13 C33,9.52420701 35.6903553,7 39,7 C42.3096447,7 45,9.52420701 45,13 Z M42.3807107,13 C42.3807107,10.836394 40.8172589,9.3639399 39.0101523,9.3639399 C37.2030457,9.3639399 35.6395939,10.8464107 35.6395939,13 C35.6395939,15.1335559 37.2030457,16.6360601 39.0101523,16.6360601 C40.8172589,16.6460768 42.3807107,15.1435726 42.3807107,13 Z" id="Shape"></path>
            <path d="M57,7.3621186 L57,17.8929188 C57,22.228555 54.5013055,24 51.5430809,24 C48.7571802,24 47.0913838,22.0915371 46.45953,20.5354059 L48.6518712,19.6056419 C49.0443864,20.5647668 50.0017406,21.6902706 51.5430809,21.6902706 C53.4386423,21.6902706 54.6066144,20.4864709 54.6066144,18.2452504 L54.6066144,17.4035694 L54.5204526,17.4035694 C53.9556136,18.1180196 52.8642298,18.7345999 51.4952132,18.7345999 C48.6231506,18.7345999 46,16.1801957 46,12.8917674 C46,9.58376511 48.6327241,7 51.4952132,7 C52.8642298,7 53.9556136,7.6263673 54.5204526,8.31145653 L54.6066144,8.31145653 L54.6066144,7.3621186 L57,7.3621186 Z M54.7789382,12.9015544 C54.7789382,10.8364997 53.4290688,9.31951641 51.7154047,9.31951641 C49.97302,9.31951641 48.5178416,10.8267127 48.5178416,12.9015544 C48.5178416,14.9470351 49.97302,16.4346575 51.7154047,16.4346575 C53.4290688,16.4346575 54.7789382,14.9470351 54.7789382,12.9015544 Z" id="Shape"></path>
            <polygon id="Shape" points="63 1 63 19 60 19 60 1"></polygon>
            <path d="M72.8441203,14.9732888 L74.8896992,16.3355593 C74.2278943,17.3171953 72.633546,19 69.8760255,19 C66.4567001,19 64,16.3656093 64,13 C64,9.43405676 66.4867821,7 69.5852325,7 C72.7037375,7 74.2278943,9.47412354 74.7292616,10.8163606 L75,11.4974958 L66.9680948,14.8230384 C67.579763,16.0250417 68.5423883,16.6460768 69.8860529,16.6460768 C71.2297174,16.6460768 72.1622607,15.9749583 72.8441203,14.9732888 Z M66.5369189,12.8096828 L71.911577,10.5859766 C71.6107566,9.83472454 70.72835,9.31385643 69.6754786,9.31385643 C68.331814,9.31385643 66.4667274,10.4958264 66.5369189,12.8096828 Z" id="Shape"></path>
        </g>
    </g>
</svg>