<svg width="231" height="24" viewBox="0 0 231 24" xmlns="http://www.w3.org/2000/svg"><title>SwG-EN-Black</title><desc>Created with Sketch.</desc><g fill="none"><path d="M6.302 19.368c-1.196 0-2.365-.391-3.507-1.173s-1.89-1.878-2.243-3.289l1.932-.782c.23.905.701 1.667 1.414 2.289.713.621 1.514.931 2.403.931.92 0 1.706-.241 2.357-.725.652-.483.978-1.138.978-1.966 0-.92-.326-1.629-.978-2.128-.652-.498-1.683-.962-3.093-1.391-1.457-.46-2.561-1.054-3.312-1.783-.751-.728-1.127-1.66-1.127-2.794 0-1.181.468-2.208 1.403-3.082.935-.874 2.154-1.311 3.657-1.311 1.395 0 2.53.349 3.404 1.046.874.698 1.441 1.46 1.702 2.288l-1.932.805c-.138-.521-.479-1.004-1.024-1.449-.544-.445-1.246-.667-2.105-.667-.813 0-1.506.226-2.081.679-.575.452-.863 1.016-.863 1.691 0 .613.264 1.131.793 1.553.529.422 1.307.801 2.335 1.138.813.261 1.491.514 2.036.759.544.245 1.096.571 1.656.978.56.406.981.912 1.265 1.518.284.606.425 1.307.425 2.104 0 .797-.165 1.51-.494 2.139-.33.629-.767 1.127-1.311 1.495-.544.368-1.131.648-1.759.84-.629.192-1.273.287-1.932.287zm17.394-.368h-2.024v-1.564h-.092c-.322.537-.813.993-1.472 1.369s-1.357.563-2.093.563c-1.411 0-2.48-.429-3.208-1.288-.728-.859-1.093-2.009-1.093-3.45v-6.9h2.116v6.555c0 2.101.928 3.151 2.783 3.151.874 0 1.587-.353 2.139-1.058.552-.705.828-1.518.828-2.438v-6.21h2.116v11.27zm8.677.368c-.859 0-1.629-.184-2.312-.552-.682-.368-1.192-.828-1.529-1.38h-.092v1.564h-2.024v-16.468h2.116v5.198l-.092 1.564h.092c.337-.552.847-1.012 1.529-1.38.682-.368 1.453-.552 2.312-.552 1.457 0 2.714.575 3.772 1.725 1.058 1.15 1.587 2.576 1.587 4.278 0 1.702-.529 3.128-1.587 4.278-1.058 1.15-2.315 1.725-3.772 1.725zm-.345-1.932c.981 0 1.825-.372 2.53-1.116.705-.744 1.058-1.729 1.058-2.955 0-1.227-.353-2.212-1.058-2.956-.705-.744-1.549-1.115-2.53-1.115-.997 0-1.844.368-2.542 1.104-.698.736-1.047 1.725-1.047 2.967s.349 2.231 1.047 2.967c.698.736 1.545 1.104 2.542 1.104zm11.851 1.932c-1.257 0-2.296-.307-3.117-.92-.82-.613-1.422-1.38-1.806-2.3l1.886-.782c.598 1.411 1.618 2.116 3.059 2.116.659 0 1.2-.146 1.622-.437.422-.291.633-.675.633-1.15 0-.736-.514-1.234-1.541-1.495l-2.277-.552c-.721-.184-1.403-.533-2.047-1.046-.644-.514-.966-1.207-.966-2.082 0-.997.441-1.805 1.322-2.427.882-.621 1.928-.931 3.14-.931.997 0 1.886.226 2.668.678.782.452 1.342 1.1 1.679 1.944l-1.84.759c-.414-.997-1.273-1.495-2.576-1.495-.629 0-1.158.13-1.587.391-.429.261-.644.613-.644 1.058 0 .644.498 1.081 1.495 1.311l2.231.529c1.058.245 1.84.667 2.346 1.265.506.598.759 1.273.759 2.024 0 1.012-.414 1.855-1.242 2.53-.828.675-1.894 1.012-3.197 1.012zm11.69 0c-1.687 0-3.074-.571-4.163-1.713-1.089-1.142-1.633-2.572-1.633-4.289 0-1.717.544-3.147 1.633-4.29 1.089-1.142 2.476-1.713 4.163-1.713 1.257 0 2.3.307 3.128.92.828.613 1.434 1.388 1.817 2.323l-1.932.805c-.583-1.411-1.633-2.116-3.151-2.116-.935 0-1.759.383-2.472 1.15-.713.767-1.07 1.74-1.07 2.921 0 1.181.356 2.154 1.07 2.921.713.767 1.537 1.15 2.472 1.15 1.579 0 2.668-.705 3.266-2.116l1.886.805c-.383.92-1 1.69-1.852 2.311-.851.621-1.905.931-3.163.931zm8.999-.368h-2.116v-11.27h2.024v1.84h.092c.215-.613.655-1.119 1.323-1.518.667-.399 1.315-.598 1.944-.598s1.158.092 1.587.276l-.805 1.978c-.276-.107-.652-.161-1.127-.161-.767 0-1.445.303-2.035.909-.59.606-.886 1.399-.886 2.38v6.164zm8.677-14.099c-.291.291-.644.437-1.058.437-.414 0-.767-.146-1.058-.437-.291-.291-.437-.644-.437-1.058 0-.414.146-.767.437-1.058.291-.291.644-.437 1.058-.437.414 0 .767.146 1.058.437.291.291.437.644.437 1.058 0 .414-.146.767-.437 1.058zm0 14.099h-2.116v-11.27h2.116v11.27zm8.861.368c-.859 0-1.629-.184-2.311-.552-.682-.368-1.192-.828-1.529-1.38h-.092v1.564h-2.024v-16.468h2.116v5.198l-.092 1.564h.092c.337-.552.847-1.012 1.529-1.38.682-.368 1.453-.552 2.311-.552 1.457 0 2.714.575 3.772 1.725 1.058 1.15 1.587 2.576 1.587 4.278 0 1.702-.529 3.128-1.587 4.278-1.058 1.15-2.315 1.725-3.772 1.725zm-.345-1.932c.981 0 1.825-.372 2.53-1.116.705-.744 1.058-1.729 1.058-2.955 0-1.227-.353-2.212-1.058-2.956-.705-.744-1.549-1.115-2.53-1.115-.997 0-1.844.368-2.541 1.104-.698.736-1.046 1.725-1.046 2.967s.349 2.231 1.046 2.967c.698.736 1.545 1.104 2.541 1.104zm12.886 1.932c-1.702 0-3.086-.567-4.151-1.702-1.066-1.135-1.599-2.568-1.599-4.301 0-1.641.517-3.051 1.553-4.232 1.035-1.181 2.357-1.771 3.968-1.771 1.671 0 3.009.544 4.013 1.633s1.507 2.545 1.507 4.37l-.023.391h-8.901c.061 1.135.441 2.032 1.139 2.691.698.659 1.514.989 2.45.989 1.518 0 2.545-.644 3.082-1.932l1.886.782c-.368.874-.974 1.606-1.817 2.197-.843.59-1.878.885-3.105.885zm3.036-7.36c-.046-.644-.341-1.257-.885-1.84-.544-.583-1.353-.874-2.427-.874-.782 0-1.46.245-2.035.736-.575.491-.97 1.15-1.184 1.978h6.532zm21.862 6.992h-2.162l-2.806-8.648-2.783 8.648h-2.139l-3.634-11.27h2.208l2.507 8.51h.023l2.783-8.51h2.185l2.783 8.51h.023l2.484-8.51h2.162l-3.634 11.27zm7.458-14.099c-.291.291-.644.437-1.058.437-.414 0-.767-.146-1.058-.437-.291-.291-.437-.644-.437-1.058 0-.414.146-.767.437-1.058.291-.291.644-.437 1.058-.437.414 0 .767.146 1.058.437.291.291.437.644.437 1.058 0 .414-.146.767-.437 1.058zm0 14.099h-2.116v-11.27h2.116v11.27zm7.665.184c-1.181 0-2.081-.314-2.702-.943s-.931-1.518-.931-2.668v-5.911h-1.978v-1.932h1.978v-3.45h2.116v3.45h2.76v1.932h-2.76v5.75c0 1.227.506 1.84 1.518 1.84.383 0 .705-.061.966-.184l.736 1.817c-.46.199-1.027.299-1.702.299zm5.641-16.652v5.198l-.092 1.564h.092c.307-.537.79-.993 1.449-1.369s1.365-.564 2.116-.564c1.395 0 2.461.429 3.197 1.288.736.859 1.104 2.009 1.104 3.45v6.9h-2.116v-6.578c0-2.085-.928-3.128-2.783-3.128-.874 0-1.587.349-2.139 1.046-.552.698-.828 1.506-.828 2.426v6.233h-2.116v-16.468h2.116z" fill="#fff"/><g fill-rule="nonzero"><path d="M165.367 19c-5.09 0-9.367-4.265-9.367-9.5s4.277-9.5 9.367-9.5c2.818 0 4.822 1.133 6.331 2.622l-1.776 1.827c-1.082-1.041-2.55-1.857-4.555-1.857-3.721 0-6.628 3.082-6.628 6.908 0 3.827 2.907 6.908 6.628 6.908 2.411 0 3.781-1 4.664-1.898.724-.745 1.191-1.806 1.369-3.265h-6.033v-2.602h8.494c.089.459.139 1.02.139 1.622 0 1.949-.516 4.357-2.183 6.071-1.627 1.735-3.691 2.663-6.45 2.663z" id="Shape" fill="#4285F4"/><path d="M188 13c0 3.456-2.69 6-6 6s-6-2.544-6-6c0-3.476 2.69-6 6-6s6 2.524 6 6zm-2.629 0c0-2.164-1.563-3.636-3.371-3.636-1.807 0-3.371 1.482-3.371 3.636 0 2.134 1.563 3.636 3.371 3.636 1.807 0 3.371-1.492 3.371-3.636z" id="Shape" fill="#E94235"/><path d="M201 13c0 3.456-2.69 6-6 6-3.299 0-6-2.544-6-6 0-3.476 2.69-6 6-6s6 2.524 6 6zm-2.619 0c0-2.164-1.563-3.636-3.371-3.636-1.807 0-3.371 1.482-3.371 3.636 0 2.134 1.563 3.636 3.371 3.636 1.807.01 3.371-1.492 3.371-3.636z" id="Shape" fill="#FABB05"/><path d="M213 7.362v10.531c0 4.336-2.499 6.107-5.457 6.107-2.786 0-4.452-1.908-5.084-3.465l2.192-.93c.393.959 1.35 2.085 2.891 2.085 1.896 0 3.064-1.204 3.064-3.445v-.842h-.086c-.565.714-1.656 1.331-3.025 1.331-2.872 0-5.495-2.554-5.495-5.843 0-3.308 2.633-5.892 5.495-5.892 1.369 0 2.46.626 3.025 1.311h.086v-.949h2.393zm-2.221 5.539c0-2.065-1.35-3.582-3.064-3.582-1.742 0-3.198 1.507-3.198 3.582 0 2.045 1.455 3.533 3.198 3.533 1.714 0 3.064-1.488 3.064-3.533z" id="Shape" fill="#4285F4"/><path id="Shape" fill="#34A853" d="M219 1v18h-3v-18z"/><path d="M228.844 14.973l2.046 1.362c-.662.982-2.256 2.664-5.014 2.664-3.419 0-5.876-2.634-5.876-6 0-3.566 2.487-6 5.585-6 3.119 0 4.643 2.474 5.144 3.816l.271.681-8.032 3.326c.612 1.202 1.574 1.823 2.918 1.823s2.276-.671 2.958-1.673zm-6.307-2.164l5.375-2.224c-.301-.751-1.183-1.272-2.236-1.272-1.344 0-3.209 1.182-3.139 3.496z" fill="#E94235"/></g></g></svg>
