<svg width="235" height="24" viewBox="0 0 235 24" xmlns="http://www.w3.org/2000/svg"><title>SwG-EN-OW</title><desc>Created with Sketch.</desc><g fill="none"><path d="M169.367 19c-5.09 0-9.367-4.265-9.367-9.5s4.277-9.5 9.367-9.5c2.818 0 4.822 1.133 6.331 2.622l-1.776 1.827c-1.082-1.041-2.55-1.857-4.555-1.857-3.721 0-6.628 3.082-6.628 6.908 0 3.827 2.907 6.908 6.628 6.908 2.411 0 3.781-1 4.664-1.898.724-.745 1.191-1.806 1.369-3.265h-6.033v-2.602h8.494c.089.459.139 1.02.139 1.622 0 1.949-.516 4.357-2.183 6.071-1.627 1.735-3.691 2.663-6.45 2.663z" id="Shape" fill="#4285F4"/><path d="M192 13c0 3.456-2.69 6-6 6s-6-2.544-6-6c0-3.476 2.69-6 6-6s6 2.524 6 6zm-2.629 0c0-2.164-1.563-3.636-3.371-3.636-1.807 0-3.371 1.482-3.371 3.636 0 2.134 1.563 3.636 3.371 3.636 1.807 0 3.371-1.492 3.371-3.636z" id="Shape" fill="#E94235"/><path d="M205 13c0 3.456-2.69 6-6 6-3.299 0-6-2.544-6-6 0-3.476 2.69-6 6-6s6 2.524 6 6zm-2.619 0c0-2.164-1.563-3.636-3.371-3.636-1.807 0-3.371 1.482-3.371 3.636 0 2.134 1.563 3.636 3.371 3.636 1.807.01 3.371-1.492 3.371-3.636z" id="Shape" fill="#FABB05"/><path d="M217 7.362v10.531c0 4.336-2.499 6.107-5.457 6.107-2.786 0-4.452-1.908-5.084-3.465l2.192-.93c.393.959 1.35 2.085 2.891 2.085 1.896 0 3.064-1.204 3.064-3.445v-.842h-.086c-.565.714-1.656 1.331-3.025 1.331-2.872 0-5.495-2.554-5.495-5.843 0-3.308 2.633-5.892 5.495-5.892 1.369 0 2.46.626 3.025 1.311h.086v-.949h2.393zm-2.221 5.539c0-2.065-1.35-3.582-3.064-3.582-1.742 0-3.198 1.507-3.198 3.582 0 2.045 1.455 3.533 3.198 3.533 1.714 0 3.064-1.488 3.064-3.533z" id="Shape" fill="#4285F4"/><path fill="#34A853" d="M223 1v18h-3v-18z"/><path d="M232.844 14.973l2.046 1.362c-.662.982-2.256 2.664-5.014 2.664-3.419 0-5.876-2.634-5.876-6 0-3.566 2.487-6 5.585-6 3.119 0 4.643 2.474 5.144 3.816l.271.681-8.032 3.326c.612 1.202 1.574 1.823 2.918 1.823s2.276-.671 2.958-1.673zm-6.307-2.164l5.375-2.224c-.301-.751-1.183-1.272-2.236-1.272-1.344 0-3.209 1.182-3.139 3.496z" fill="#E94235"/><path d="M6.576 19.384c-1.248 0-2.468-.408-3.66-1.224-1.192-.816-1.972-1.96-2.34-3.432l2.016-.816c.24.944.732 1.74 1.476 2.388.744.648 1.58.972 2.508.972.96 0 1.78-.252 2.46-.756.68-.504 1.02-1.188 1.02-2.052 0-.96-.34-1.7-1.02-2.22-.68-.52-1.756-1.004-3.228-1.452-1.52-.48-2.672-1.1-3.456-1.86-.784-.76-1.176-1.732-1.176-2.916 0-1.232.488-2.304 1.464-3.216.976-.912 2.248-1.368 3.816-1.368 1.456 0 2.64.364 3.552 1.092.912.728 1.504 1.524 1.776 2.388l-2.016.84c-.144-.544-.5-1.048-1.068-1.512-.568-.464-1.3-.696-2.196-.696-.848 0-1.572.236-2.172.708-.6.472-.9 1.06-.9 1.764 0 .64.276 1.18.828 1.62.552.44 1.364.836 2.436 1.188.848.272 1.556.536 2.124.792.568.256 1.144.596 1.728 1.02.584.424 1.024.952 1.32 1.584.296.632.444 1.364.444 2.196 0 .832-.172 1.576-.516 2.232-.344.656-.8 1.176-1.368 1.56-.568.384-1.18.676-1.836.876-.656.2-1.328.3-2.016.3zm18.36-.384h-2.112v-1.632h-.096c-.336.56-.848 1.036-1.536 1.428-.688.392-1.416.588-2.184.588-1.472 0-2.588-.448-3.348-1.344-.76-.896-1.14-2.096-1.14-3.6v-7.2h2.208v6.84c0 2.192.968 3.288 2.904 3.288.912 0 1.656-.368 2.232-1.104.576-.736.864-1.584.864-2.544v-6.48h2.208v11.76zm8.904.384c-.896 0-1.7-.192-2.412-.576-.712-.384-1.244-.864-1.596-1.44h-.096v1.632h-2.112v-17.184h2.208v5.424l-.096 1.632h.096c.352-.576.884-1.056 1.596-1.44.712-.384 1.516-.576 2.412-.576 1.52 0 2.832.6 3.936 1.8 1.104 1.2 1.656 2.688 1.656 4.464 0 1.776-.552 3.264-1.656 4.464-1.104 1.2-2.416 1.8-3.936 1.8zm-.36-2.016c1.024 0 1.904-.388 2.64-1.164.736-.776 1.104-1.804 1.104-3.084s-.368-2.308-1.104-3.084c-.736-.776-1.616-1.164-2.64-1.164-1.04 0-1.924.384-2.652 1.152-.728.768-1.092 1.8-1.092 3.096s.364 2.328 1.092 3.096c.728.768 1.612 1.152 2.652 1.152zm12.336 2.016c-1.312 0-2.396-.32-3.252-.96-.856-.64-1.484-1.44-1.884-2.4l1.968-.816c.624 1.472 1.688 2.208 3.192 2.208.688 0 1.252-.152 1.692-.456.44-.304.66-.704.66-1.2 0-.768-.536-1.288-1.608-1.56l-2.376-.576c-.752-.192-1.464-.556-2.136-1.092-.672-.536-1.008-1.26-1.008-2.172 0-1.04.46-1.884 1.38-2.532.92-.648 2.012-.972 3.276-.972 1.04 0 1.968.236 2.784.708.816.472 1.4 1.148 1.752 2.028l-1.92.792c-.432-1.04-1.328-1.56-2.688-1.56-.656 0-1.208.136-1.656.408-.448.272-.672.64-.672 1.104 0 .672.52 1.128 1.56 1.368l2.328.552c1.104.256 1.92.696 2.448 1.32.528.624.792 1.328.792 2.112 0 1.056-.432 1.936-1.296 2.64-.864.704-1.976 1.056-3.336 1.056zm11.928 0c-1.76 0-3.208-.596-4.344-1.788-1.136-1.192-1.704-2.684-1.704-4.476 0-1.792.568-3.284 1.704-4.476 1.136-1.192 2.584-1.788 4.344-1.788 1.312 0 2.4.32 3.264.96.864.64 1.496 1.448 1.896 2.424l-2.016.84c-.608-1.472-1.704-2.208-3.288-2.208-.976 0-1.836.4-2.58 1.2-.744.8-1.116 1.816-1.116 3.048s.372 2.248 1.116 3.048c.744.8 1.604 1.2 2.58 1.2 1.648 0 2.784-.736 3.408-2.208l1.968.84c-.4.96-1.044 1.764-1.932 2.412-.888.648-1.988.972-3.3.972zm9.36-.384h-2.208v-11.76h2.112v1.92h.096c.224-.64.684-1.168 1.38-1.584.696-.416 1.372-.624 2.028-.624.656 0 1.208.096 1.656.288l-.84 2.064c-.288-.112-.68-.168-1.176-.168-.8 0-1.508.316-2.124.948-.616.632-.924 1.46-.924 2.484v6.432zm8.904-14.712c-.304.304-.672.456-1.104.456-.432 0-.8-.152-1.104-.456-.304-.304-.456-.672-.456-1.104 0-.432.152-.8.456-1.104.304-.304.672-.456 1.104-.456.432 0 .8.152 1.104.456.304.304.456.672.456 1.104 0 .432-.152.8-.456 1.104zm0 14.712h-2.208v-11.76h2.208v11.76zm9.096.384c-.896 0-1.7-.192-2.412-.576-.712-.384-1.244-.864-1.596-1.44h-.096v1.632h-2.112v-17.184h2.208v5.424l-.096 1.632h.096c.352-.576.884-1.056 1.596-1.44.712-.384 1.516-.576 2.412-.576 1.52 0 2.832.6 3.936 1.8 1.104 1.2 1.656 2.688 1.656 4.464 0 1.776-.552 3.264-1.656 4.464-1.104 1.2-2.416 1.8-3.936 1.8zm-.36-2.016c1.024 0 1.904-.388 2.64-1.164.736-.776 1.104-1.804 1.104-3.084s-.368-2.308-1.104-3.084c-.736-.776-1.616-1.164-2.64-1.164-1.04 0-1.924.384-2.652 1.152-.728.768-1.092 1.8-1.092 3.096s.364 2.328 1.092 3.096c.728.768 1.612 1.152 2.652 1.152zm13.296 2.016c-1.776 0-3.22-.592-4.332-1.776-1.112-1.184-1.668-2.68-1.668-4.488 0-1.712.54-3.184 1.62-4.416 1.08-1.232 2.46-1.848 4.14-1.848 1.744 0 3.14.568 4.188 1.704 1.048 1.136 1.572 2.656 1.572 4.56l-.024.408h-9.288c.064 1.184.46 2.12 1.188 2.808.728.688 1.58 1.032 2.556 1.032 1.584 0 2.656-.672 3.216-2.016l1.968.816c-.384.912-1.016 1.676-1.896 2.292-.88.616-1.96.924-3.24.924zm3.168-7.68c-.048-.672-.356-1.312-.924-1.92-.568-.608-1.412-.912-2.532-.912-.816 0-1.524.256-2.124.768-.6.512-1.012 1.2-1.236 2.064h6.816zm22.512 7.296h-2.256l-2.928-9.024-2.904 9.024h-2.232l-3.792-11.76h2.304l2.616 8.88h.024l2.904-8.88h2.28l2.904 8.88h.024l2.592-8.88h2.256l-3.792 11.76zm7.632-14.712c-.304.304-.672.456-1.104.456-.432 0-.8-.152-1.104-.456-.304-.304-.456-.672-.456-1.104 0-.432.152-.8.456-1.104.304-.304.672-.456 1.104-.456.432 0 .8.152 1.104.456.304.304.456.672.456 1.104 0 .432-.152.8-.456 1.104zm0 14.712h-2.208v-11.76h2.208v11.76zm7.968.192c-1.232 0-2.172-.328-2.82-.984-.648-.656-.972-1.584-.972-2.784v-6.168h-2.064v-2.016h2.064v-3.6h2.208v3.6h2.88v2.016h-2.88v6c0 1.28.528 1.92 1.584 1.92.4 0 .736-.064 1.008-.192l.768 1.896c-.48.208-1.072.312-1.776.312zm5.616-17.376v5.424l-.096 1.632h.096c.32-.56.824-1.036 1.512-1.428.688-.392 1.424-.588 2.208-.588 1.456 0 2.568.448 3.336 1.344.768.896 1.152 2.096 1.152 3.6v7.2h-2.208v-6.864c0-2.176-.968-3.264-2.904-3.264-.912 0-1.656.364-2.232 1.092-.576.728-.864 1.572-.864 2.532v6.504h-2.208v-17.184h2.208z" fill="#5F6368"/></g></svg>