<?xml version="1.0" encoding="UTF-8"?>
<svg width="205px" height="24px" viewBox="0 0 205 24" version="1.1" xmlns="http://www.w3.org/2000/svg" xmlns:xlink="http://www.w3.org/1999/xlink">
    <!-- Generator: Sketch 51.3 (57544) - http://www.bohemiancoding.com/sketch -->
    <title>SwG-LATAM-WOB</title>
    <desc>Created with Sketch.</desc>
    <defs></defs>
    <g id="SwG-LATAM-WOB" stroke="none" stroke-width="1" fill="none" fill-rule="evenodd">
        <path d="M5.83399993,19.368 C4.57666031,19.368 3.53783736,19.0613364 2.71749993,18.448 C1.89716249,17.8346636 1.29533518,17.0680046 0.911999928,16.148 L2.79799993,15.366 C3.39600292,16.7766737 4.41565939,17.482 5.85699993,17.482 C6.51633656,17.482 7.05683115,17.3363348 7.47849993,17.045 C7.9001687,16.7536652 8.11099993,16.3703357 8.11099993,15.895 C8.11099993,15.1589963 7.5973384,14.660668 6.56999993,14.4 L4.29299993,13.848 C3.57232966,13.6639991 2.89000315,13.3151692 2.24599993,12.8015 C1.60199671,12.2878308 1.27999993,11.5940044 1.27999993,10.72 C1.27999993,9.72332835 1.72082885,8.91450311 2.60249993,8.2935 C3.484171,7.6724969 4.53066054,7.362 5.74199993,7.362 C6.73867158,7.362 7.62799602,7.58816441 8.40999993,8.0405 C9.19200384,8.4928356 9.75166491,9.14066245 10.0889999,9.984 L8.24899993,10.743 C7.83499786,9.74632835 6.97633978,9.248 5.67299993,9.248 C5.04433012,9.248 4.51533541,9.37833203 4.08599993,9.639 C3.65666445,9.89966797 3.44199993,10.2523311 3.44199993,10.697 C3.44199993,11.3410032 3.94032828,11.7779988 4.93699993,12.008 L7.16799993,12.537 C8.22600522,12.7823346 9.0079974,13.203997 9.51399993,13.802 C10.0200025,14.400003 10.2729999,15.0746629 10.2729999,15.826 C10.2729999,16.8380051 9.85900407,17.68133 9.03099993,18.356 C8.20299579,19.03067 7.13733978,19.368 5.83399993,19.368 Z M22.1467499,19 L20.1227499,19 L20.1227499,17.436 L20.0307499,17.436 C19.7087483,17.9726693 19.2180866,18.4288315 18.5587499,18.8045 C17.8994133,19.1801685 17.2017536,19.368 16.4657499,19.368 C15.0550762,19.368 13.9855869,18.938671 13.2572499,18.08 C12.528913,17.221329 12.1647499,16.0713405 12.1647499,14.63 L12.1647499,7.73 L14.2807499,7.73 L14.2807499,14.285 C14.2807499,16.3856772 15.2084073,17.436 17.0637499,17.436 C17.9377543,17.436 18.6507472,17.0833369 19.2027499,16.378 C19.7547527,15.6726631 20.0307499,14.8600046 20.0307499,13.94 L20.0307499,7.73 L22.1467499,7.73 L22.1467499,19 Z M28.9375,19.368 C27.6801603,19.368 26.6413374,19.0613364 25.821,18.448 C25.0006625,17.8346636 24.3988352,17.0680046 24.0155,16.148 L25.9015,15.366 C26.4995029,16.7766737 27.5191594,17.482 28.9605,17.482 C29.6198366,17.482 30.1603312,17.3363348 30.582,17.045 C31.0036687,16.7536652 31.2145,16.3703357 31.2145,15.895 C31.2145,15.1589963 30.7008384,14.660668 29.6735,14.4 L27.3965,13.848 C26.6758297,13.6639991 25.9935032,13.3151692 25.3495,12.8015 C24.7054967,12.2878308 24.3835,11.5940044 24.3835,10.72 C24.3835,9.72332835 24.8243289,8.91450311 25.706,8.2935 C26.587671,7.6724969 27.6341606,7.362 28.8455,7.362 C29.8421716,7.362 30.731496,7.58816441 31.5135,8.0405 C32.2955039,8.4928356 32.8551649,9.14066245 33.1925,9.984 L31.3525,10.743 C30.9384979,9.74632835 30.0798398,9.248 28.7765,9.248 C28.1478301,9.248 27.6188354,9.37833203 27.1895,9.639 C26.7601645,9.89966797 26.5455,10.2523311 26.5455,10.697 C26.5455,11.3410032 27.0438283,11.7779988 28.0405,12.008 L30.2715,12.537 C31.3295052,12.7823346 32.1114974,13.203997 32.6175,13.802 C33.1235025,14.400003 33.3765,15.0746629 33.3765,15.826 C33.3765,16.8380051 32.9625041,17.68133 32.1345,18.356 C31.3064958,19.03067 30.2408398,19.368 28.9375,19.368 Z M40.62725,19.368 C38.9405749,19.368 37.5529221,18.796839 36.46425,17.6545 C35.3755779,16.512161 34.83125,15.0823419 34.83125,13.365 C34.83125,11.6476581 35.3755779,10.217839 36.46425,9.0755 C37.5529221,7.93316096 38.9405749,7.362 40.62725,7.362 C41.8845896,7.362 42.9272458,7.6686636 43.75525,8.282 C44.5832541,8.8953364 45.1889147,9.66966199 45.57225,10.605 L43.64025,11.41 C43.0575804,9.99932628 42.0072576,9.294 40.48925,9.294 C39.553912,9.294 38.7297535,9.6773295 38.01675,10.444 C37.3037464,11.2106705 36.94725,12.1843274 36.94725,13.365 C36.94725,14.5456726 37.3037464,15.5193295 38.01675,16.286 C38.7297535,17.0526705 39.553912,17.436 40.48925,17.436 C42.0685912,17.436 43.157247,16.7306737 43.75525,15.32 L45.64125,16.125 C45.2579147,17.0450046 44.6407542,17.8154969 43.78975,18.4365 C42.9387457,19.0575031 41.8845896,19.368 40.62725,19.368 Z M49.626,19 L47.51,19 L47.51,7.73 L49.534,7.73 L49.534,9.57 L49.626,9.57 C49.8406677,8.9566636 50.2814966,8.45066866 50.9485,8.052 C51.6155033,7.65333134 52.2633302,7.454 52.892,7.454 C53.5206698,7.454 54.0496645,7.54599908 54.479,7.73 L53.674,9.708 C53.3979986,9.60066613 53.0223357,9.547 52.547,9.547 C51.7803295,9.547 51.1018363,9.84983031 50.5115,10.4555 C49.9211637,11.0611697 49.626,11.8546618 49.626,12.836 L49.626,19 Z M58.30275,4.901 C58.0114152,5.19233479 57.6587521,5.338 57.24475,5.338 C56.8307479,5.338 56.4780848,5.19233479 56.18675,4.901 C55.8954152,4.60966521 55.74975,4.25700207 55.74975,3.843 C55.74975,3.42899793 55.8954152,3.07633479 56.18675,2.785 C56.4780848,2.49366521 56.8307479,2.348 57.24475,2.348 C57.6587521,2.348 58.0114152,2.49366521 58.30275,2.785 C58.5940848,3.07633479 58.73975,3.42899793 58.73975,3.843 C58.73975,4.25700207 58.5940848,4.60966521 58.30275,4.901 Z M58.30275,19 L56.18675,19 L56.18675,7.73 L58.30275,7.73 L58.30275,19 Z M65.9675,19.184 C64.7868274,19.184 63.8860031,18.8696698 63.265,18.241 C62.6439969,17.6123302 62.3335,16.7230057 62.3335,15.573 L62.3335,9.662 L60.3555,9.662 L60.3555,7.73 L62.3335,7.73 L62.3335,4.28 L64.4495,4.28 L64.4495,7.73 L67.2095,7.73 L67.2095,9.662 L64.4495,9.662 L64.4495,15.412 C64.4495,16.6386728 64.9554949,17.252 65.9675,17.252 C66.3508352,17.252 66.672832,17.1906673 66.9335,17.068 L67.6695,18.885 C67.2094977,19.0843343 66.64217,19.184 65.9675,19.184 Z M70.25125,9.087 C71.3399221,7.93699425 72.7275749,7.362 74.41425,7.362 C76.1009251,7.362 77.4885779,7.93316096 78.57725,9.0755 C79.6659221,10.217839 80.21025,11.6476581 80.21025,13.365 C80.21025,15.0823419 79.6659221,16.512161 78.57725,17.6545 C77.4885779,18.796839 76.1009251,19.368 74.41425,19.368 C72.7275749,19.368 71.3399221,18.796839 70.25125,17.6545 C69.1625779,16.512161 68.61825,15.0823419 68.61825,13.365 C68.61825,11.6476581 69.1625779,10.2216723 70.25125,9.087 Z M71.81525,16.332 C72.5512537,17.0680037 73.4175784,17.436 74.41425,17.436 C75.4109217,17.436 76.273413,17.0641704 77.00175,16.3205 C77.730087,15.5768296 78.09425,14.5916728 78.09425,13.365 C78.09425,12.1383272 77.730087,11.1531704 77.00175,10.4095 C76.273413,9.66582962 75.4109217,9.294 74.41425,9.294 C73.4175784,9.294 72.555087,9.66582962 71.82675,10.4095 C71.098413,11.1531704 70.73425,12.1383272 70.73425,13.365 C70.73425,14.5916728 71.0945797,15.5806629 71.81525,16.332 Z M92.64175,19.368 C90.9550749,19.368 89.5674221,18.796839 88.47875,17.6545 C87.3900779,16.512161 86.84575,15.0823419 86.84575,13.365 C86.84575,11.6476581 87.3900779,10.217839 88.47875,9.0755 C89.5674221,7.93316096 90.9550749,7.362 92.64175,7.362 C93.8990897,7.362 94.9417459,7.6686636 95.76975,8.282 C96.5977542,8.8953364 97.2034148,9.66966199 97.58675,10.605 L95.65475,11.41 C95.0720805,9.99932628 94.0217576,9.294 92.50375,9.294 C91.568412,9.294 90.7442536,9.6773295 90.03125,10.444 C89.3182465,11.2106705 88.96175,12.1843274 88.96175,13.365 C88.96175,14.5456726 89.3182465,15.5193295 90.03125,16.286 C90.7442536,17.0526705 91.568412,17.436 92.50375,17.436 C94.0830913,17.436 95.171747,16.7306737 95.76975,15.32 L97.65575,16.125 C97.2724148,17.0450046 96.6552543,17.8154969 95.80425,18.4365 C94.9532458,19.0575031 93.8990897,19.368 92.64175,19.368 Z M100.5135,9.087 C101.602172,7.93699425 102.989825,7.362 104.6765,7.362 C106.363175,7.362 107.750828,7.93316096 108.8395,9.0755 C109.928172,10.217839 110.4725,11.6476581 110.4725,13.365 C110.4725,15.0823419 109.928172,16.512161 108.8395,17.6545 C107.750828,18.796839 106.363175,19.368 104.6765,19.368 C102.989825,19.368 101.602172,18.796839 100.5135,17.6545 C99.4248279,16.512161 98.8805,15.0823419 98.8805,13.365 C98.8805,11.6476581 99.4248279,10.2216723 100.5135,9.087 Z M102.0775,16.332 C102.813504,17.0680037 103.679828,17.436 104.6765,17.436 C105.673172,17.436 106.535663,17.0641704 107.264,16.3205 C107.992337,15.5768296 108.3565,14.5916728 108.3565,13.365 C108.3565,12.1383272 107.992337,11.1531704 107.264,10.4095 C106.535663,9.66582962 105.673172,9.294 104.6765,9.294 C103.679828,9.294 102.817337,9.66582962 102.089,10.4095 C101.360663,11.1531704 100.9965,12.1383272 100.9965,13.365 C100.9965,14.5916728 101.35683,15.5806629 102.0775,16.332 Z M114.34225,7.73 L114.34225,9.294 L114.43425,9.294 C114.740918,8.75733065 115.223913,8.30116854 115.88325,7.9255 C116.542587,7.54983146 117.247913,7.362 117.99925,7.362 C119.39459,7.362 120.460246,7.79132904 121.19625,8.65 C121.932254,9.50867096 122.30025,10.6586595 122.30025,12.1 L122.30025,19 L120.18425,19 L120.18425,12.422 C120.18425,10.3366562 119.256593,9.294 117.40125,9.294 C116.527246,9.294 115.814253,9.64282985 115.26225,10.3405 C114.710247,11.0381702 114.43425,11.8469954 114.43425,12.767 L114.43425,19 L112.31825,19 L112.31825,7.73 L114.34225,7.73 Z" id="suscrito-con" fill="#FFFFFF"></path>
        <g id="Group" transform="translate(130.000000, 0.000000)" fill="#FFFFFF" fill-rule="nonzero">
            <path d="M9.36714443,19 C4.27673649,19 0,14.7346939 0,9.5 C0,4.26530612 4.27673649,0 9.36714443,0 C12.185226,0 14.1896362,1.13265306 15.6979052,2.62244898 L13.92172,4.44897959 C12.8401323,3.40816327 11.3715546,2.59183673 9.36714443,2.59183673 C5.646086,2.59183673 2.73869901,5.67346939 2.73869901,9.5 C2.73869901,13.3265306 5.646086,16.4081633 9.36714443,16.4081633 C11.7783903,16.4081633 13.1477398,15.4081633 14.030871,14.5102041 C14.755237,13.7653061 15.2216097,12.7040816 15.4002205,11.244898 L9.36714443,11.244898 L9.36714443,8.64285714 L17.8610805,8.64285714 C17.9503859,9.10204082 18,9.66326531 18,10.2653061 C18,12.2142857 17.4840132,14.622449 15.8169791,16.3367347 C14.1896362,18.0714286 12.1256891,19 9.36714443,19 Z" id="Shape"></path>
            <path d="M32,13 C32,16.4557596 29.3096447,19 26,19 C22.6903553,19 20,16.4557596 20,13 C20,9.52420701 22.6903553,7 26,7 C29.3096447,7 32,9.52420701 32,13 Z M29.3705584,13 C29.3705584,10.836394 27.8071066,9.3639399 26,9.3639399 C24.1928934,9.3639399 22.6294416,10.8464107 22.6294416,13 C22.6294416,15.1335559 24.1928934,16.6360601 26,16.6360601 C27.8071066,16.6360601 29.3705584,15.1435726 29.3705584,13 Z" id="Shape"></path>
            <path d="M45,13 C45,16.4557596 42.3096447,19 39,19 C35.7005076,19 33,16.4557596 33,13 C33,9.52420701 35.6903553,7 39,7 C42.3096447,7 45,9.52420701 45,13 Z M42.3807107,13 C42.3807107,10.836394 40.8172589,9.3639399 39.0101523,9.3639399 C37.2030457,9.3639399 35.6395939,10.8464107 35.6395939,13 C35.6395939,15.1335559 37.2030457,16.6360601 39.0101523,16.6360601 C40.8172589,16.6460768 42.3807107,15.1435726 42.3807107,13 Z" id="Shape"></path>
            <path d="M57,7.3621186 L57,17.8929188 C57,22.228555 54.5013055,24 51.5430809,24 C48.7571802,24 47.0913838,22.0915371 46.45953,20.5354059 L48.6518712,19.6056419 C49.0443864,20.5647668 50.0017406,21.6902706 51.5430809,21.6902706 C53.4386423,21.6902706 54.6066144,20.4864709 54.6066144,18.2452504 L54.6066144,17.4035694 L54.5204526,17.4035694 C53.9556136,18.1180196 52.8642298,18.7345999 51.4952132,18.7345999 C48.6231506,18.7345999 46,16.1801957 46,12.8917674 C46,9.58376511 48.6327241,7 51.4952132,7 C52.8642298,7 53.9556136,7.6263673 54.5204526,8.31145653 L54.6066144,8.31145653 L54.6066144,7.3621186 L57,7.3621186 Z M54.7789382,12.9015544 C54.7789382,10.8364997 53.4290688,9.31951641 51.7154047,9.31951641 C49.97302,9.31951641 48.5178416,10.8267127 48.5178416,12.9015544 C48.5178416,14.9470351 49.97302,16.4346575 51.7154047,16.4346575 C53.4290688,16.4346575 54.7789382,14.9470351 54.7789382,12.9015544 Z" id="Shape"></path>
            <polygon id="Shape" points="63 1 63 19 60 19 60 1"></polygon>
            <path d="M72.8441203,14.9732888 L74.8896992,16.3355593 C74.2278943,17.3171953 72.633546,19 69.8760255,19 C66.4567001,19 64,16.3656093 64,13 C64,9.43405676 66.4867821,7 69.5852325,7 C72.7037375,7 74.2278943,9.47412354 74.7292616,10.8163606 L75,11.4974958 L66.9680948,14.8230384 C67.579763,16.0250417 68.5423883,16.6460768 69.8860529,16.6460768 C71.2297174,16.6460768 72.1622607,15.9749583 72.8441203,14.9732888 Z M66.5369189,12.8096828 L71.911577,10.5859766 C71.6107566,9.83472454 70.72835,9.31385643 69.6754786,9.31385643 C68.331814,9.31385643 66.4667274,10.4958264 66.5369189,12.8096828 Z" id="Shape"></path>
        </g>
    </g>
</svg>