<?xml version="1.0" encoding="UTF-8"?>
<svg width="240px" height="24px" viewBox="0 0 240 24" version="1.1" xmlns="http://www.w3.org/2000/svg" xmlns:xlink="http://www.w3.org/1999/xlink">
    <!-- Generator: Sketch 51.3 (57544) - http://www.bohemiancoding.com/sketch -->
    <title>SwG-Spanish-WOB</title>
    <desc>Created with Sketch.</desc>
    <defs></defs>
    <g id="SwG-Spanish-WOB" stroke="none" stroke-width="1" fill="none" fill-rule="evenodd">
        <path d="M5.90287491,19.368 C4.64553529,19.368 3.60671235,19.0613364 2.78637491,18.448 C1.96603748,17.8346636 1.36421016,17.0680046 0.980874911,16.148 L2.86687491,15.366 C3.4648779,16.7766737 4.48453437,17.482 5.92587491,17.482 C6.58521154,17.482 7.12570614,17.3363348 7.54737491,17.045 C7.96904369,16.7536652 8.17987491,16.3703357 8.17987491,15.895 C8.17987491,15.1589963 7.66621338,14.660668 6.63887491,14.4 L4.36187491,13.848 C3.64120464,13.6639991 2.95887813,13.3151692 2.31487491,12.8015 C1.67087169,12.2878308 1.34887491,11.5940044 1.34887491,10.72 C1.34887491,9.72332835 1.78970384,8.91450311 2.67137491,8.2935 C3.55304599,7.6724969 4.59953552,7.362 5.81087491,7.362 C6.80754656,7.362 7.696871,7.58816441 8.47887491,8.0405 C9.26087882,8.4928356 9.82053989,9.14066245 10.1578749,9.984 L8.31787491,10.743 C7.90387284,9.74632835 7.04521476,9.248 5.74187491,9.248 C5.1132051,9.248 4.58421039,9.37833203 4.15487491,9.639 C3.72553943,9.89966797 3.51087491,10.2523311 3.51087491,10.697 C3.51087491,11.3410032 4.00920326,11.7779988 5.00587491,12.008 L7.23687491,12.537 C8.2948802,12.7823346 9.07687238,13.203997 9.58287491,13.802 C10.0888774,14.400003 10.3418749,15.0746629 10.3418749,15.826 C10.3418749,16.8380051 9.92787905,17.68133 9.09987491,18.356 C8.27187077,19.03067 7.20621476,19.368 5.90287491,19.368 Z M22.2156249,19 L20.1916249,19 L20.1916249,17.436 L20.0996249,17.436 C19.7776233,17.9726693 19.2869616,18.4288315 18.6276249,18.8045 C17.9682883,19.1801685 17.2706286,19.368 16.5346249,19.368 C15.1239512,19.368 14.0544619,18.938671 13.3261249,18.08 C12.5977879,17.221329 12.2336249,16.0713405 12.2336249,14.63 L12.2336249,7.73 L14.3496249,7.73 L14.3496249,14.285 C14.3496249,16.3856772 15.2772823,17.436 17.1326249,17.436 C18.0066293,17.436 18.7196222,17.0833369 19.2716249,16.378 C19.8236277,15.6726631 20.0996249,14.8600046 20.0996249,13.94 L20.0996249,7.73 L22.2156249,7.73 L22.2156249,19 Z M29.0063749,19.368 C27.7490353,19.368 26.7102124,19.0613364 25.8898749,18.448 C25.0695375,17.8346636 24.4677102,17.0680046 24.0843749,16.148 L25.9703749,15.366 C26.5683779,16.7766737 27.5880344,17.482 29.0293749,17.482 C29.6887116,17.482 30.2292062,17.3363348 30.6508749,17.045 C31.0725437,16.7536652 31.2833749,16.3703357 31.2833749,15.895 C31.2833749,15.1589963 30.7697134,14.660668 29.7423749,14.4 L27.4653749,13.848 C26.7447047,13.6639991 26.0623782,13.3151692 25.4183749,12.8015 C24.7743717,12.2878308 24.4523749,11.5940044 24.4523749,10.72 C24.4523749,9.72332835 24.8932039,8.91450311 25.7748749,8.2935 C26.656546,7.6724969 27.7030355,7.362 28.9143749,7.362 C29.9110466,7.362 30.800371,7.58816441 31.5823749,8.0405 C32.3643788,8.4928356 32.9240399,9.14066245 33.2613749,9.984 L31.4213749,10.743 C31.0073729,9.74632835 30.1487148,9.248 28.8453749,9.248 C28.2167051,9.248 27.6877104,9.37833203 27.2583749,9.639 C26.8290395,9.89966797 26.6143749,10.2523311 26.6143749,10.697 C26.6143749,11.3410032 27.1127033,11.7779988 28.1093749,12.008 L30.3403749,12.537 C31.3983802,12.7823346 32.1803724,13.203997 32.6863749,13.802 C33.1923775,14.400003 33.4453749,15.0746629 33.4453749,15.826 C33.4453749,16.8380051 33.0313791,17.68133 32.2033749,18.356 C31.3753708,19.03067 30.3097148,19.368 29.0063749,19.368 Z M40.6961249,19.368 C39.0094498,19.368 37.6217971,18.796839 36.5331249,17.6545 C35.4444528,16.512161 34.9001249,15.0823419 34.9001249,13.365 C34.9001249,11.6476581 35.4444528,10.217839 36.5331249,9.0755 C37.6217971,7.93316096 39.0094498,7.362 40.6961249,7.362 C41.9534646,7.362 42.9961208,7.6686636 43.8241249,8.282 C44.6521291,8.8953364 45.2577897,9.66966199 45.6411249,10.605 L43.7091249,11.41 C43.1264554,9.99932628 42.0761325,9.294 40.5581249,9.294 C39.6227869,9.294 38.7986285,9.6773295 38.0856249,10.444 C37.3726214,11.2106705 37.0161249,12.1843274 37.0161249,13.365 C37.0161249,14.5456726 37.3726214,15.5193295 38.0856249,16.286 C38.7986285,17.0526705 39.6227869,17.436 40.5581249,17.436 C42.1374662,17.436 43.226122,16.7306737 43.8241249,15.32 L45.7101249,16.125 C45.3267897,17.0450046 44.7096292,17.8154969 43.8586249,18.4365 C43.0076207,19.0575031 41.9534646,19.368 40.6961249,19.368 Z M49.694875,19 L47.578875,19 L47.578875,7.73 L49.602875,7.73 L49.602875,9.57 L49.694875,9.57 C49.9095427,8.9566636 50.3503716,8.45066866 51.017375,8.052 C51.6843783,7.65333134 52.3322051,7.454 52.960875,7.454 C53.5895448,7.454 54.1185395,7.54599908 54.547875,7.73 L53.742875,9.708 C53.4668736,9.60066613 53.0912107,9.547 52.615875,9.547 C51.8492045,9.547 51.1707112,9.84983031 50.580375,10.4555 C49.9900387,11.0611697 49.694875,11.8546618 49.694875,12.836 L49.694875,19 Z M58.371625,4.901 C58.0802902,5.19233479 57.727627,5.338 57.313625,5.338 C56.8996229,5.338 56.5469598,5.19233479 56.255625,4.901 C55.9642902,4.60966521 55.818625,4.25700207 55.818625,3.843 C55.818625,3.42899793 55.9642902,3.07633479 56.255625,2.785 C56.5469598,2.49366521 56.8996229,2.348 57.313625,2.348 C57.727627,2.348 58.0802902,2.49366521 58.371625,2.785 C58.6629598,3.07633479 58.808625,3.42899793 58.808625,3.843 C58.808625,4.25700207 58.6629598,4.60966521 58.371625,4.901 Z M58.371625,19 L56.255625,19 L56.255625,7.73 L58.371625,7.73 L58.371625,19 Z M67.140375,19.368 C66.281704,19.368 65.5112117,19.1840018 64.828875,18.816 C64.1465382,18.4479982 63.63671,17.9880028 63.299375,17.436 L63.207375,17.436 L63.299375,19 L63.299375,23.968 L61.183375,23.968 L61.183375,7.73 L63.207375,7.73 L63.207375,9.294 L63.299375,9.294 C63.63671,8.74199724 64.1465382,8.28200184 64.828875,7.914 C65.5112117,7.54599816 66.281704,7.362 67.140375,7.362 C68.5970489,7.362 69.8543697,7.93699425 70.912375,9.087 C71.9703803,10.2370057 72.499375,11.6629915 72.499375,13.365 C72.499375,15.0670085 71.9703803,16.4929943 70.912375,17.643 C69.8543697,18.7930057 68.5970489,19.368 67.140375,19.368 Z M66.795375,17.436 C67.7767132,17.436 68.6200381,17.0641704 69.325375,16.3205 C70.0307118,15.5768296 70.383375,14.5916728 70.383375,13.365 C70.383375,12.1383272 70.0307118,11.1531704 69.325375,10.4095 C68.6200381,9.66582962 67.7767132,9.294 66.795375,9.294 C65.7987033,9.294 64.9515451,9.66199632 64.253875,10.398 C63.5562048,11.1340037 63.207375,12.1229938 63.207375,13.365 C63.207375,14.6070062 63.5562048,15.5959963 64.253875,16.332 C64.9515451,17.0680037 65.7987033,17.436 66.795375,17.436 Z M79.727125,19.368 C78.0404499,19.368 76.6527971,18.796839 75.564125,17.6545 C74.4754529,16.512161 73.931125,15.0823419 73.931125,13.365 C73.931125,11.6476581 74.4754529,10.217839 75.564125,9.0755 C76.6527971,7.93316096 78.0404499,7.362 79.727125,7.362 C80.9844646,7.362 82.0271209,7.6686636 82.855125,8.282 C83.6831291,8.8953364 84.2887897,9.66966199 84.672125,10.605 L82.740125,11.41 C82.1574554,9.99932628 81.1071326,9.294 79.589125,9.294 C78.653787,9.294 77.8296286,9.6773295 77.116625,10.444 C76.4036214,11.2106705 76.047125,12.1843274 76.047125,13.365 C76.047125,14.5456726 76.4036214,15.5193295 77.116625,16.286 C77.8296286,17.0526705 78.653787,17.436 79.589125,17.436 C81.1684662,17.436 82.257122,16.7306737 82.855125,15.32 L84.741125,16.125 C84.3577897,17.0450046 83.7406292,17.8154969 82.889625,18.4365 C82.0386207,19.0575031 80.9844646,19.368 79.727125,19.368 Z M89.024875,4.901 C88.7335402,5.19233479 88.3808771,5.338 87.966875,5.338 C87.5528729,5.338 87.2002098,5.19233479 86.908875,4.901 C86.6175402,4.60966521 86.471875,4.25700207 86.471875,3.843 C86.471875,3.42899793 86.6175402,3.07633479 86.908875,2.785 C87.2002098,2.49366521 87.5528729,2.348 87.966875,2.348 C88.3808771,2.348 88.7335402,2.49366521 89.024875,2.785 C89.3162098,3.07633479 89.461875,3.42899793 89.461875,3.843 C89.461875,4.25700207 89.3162098,4.60966521 89.024875,4.901 Z M89.024875,19 L86.908875,19 L86.908875,7.73 L89.024875,7.73 L89.024875,19 Z M92.802625,9.087 C93.8912971,7.93699425 95.2789499,7.362 96.965625,7.362 C98.6523001,7.362 100.039953,7.93316096 101.128625,9.0755 C102.217297,10.217839 102.761625,11.6476581 102.761625,13.365 C102.761625,15.0823419 102.217297,16.512161 101.128625,17.6545 C100.039953,18.796839 98.6523001,19.368 96.965625,19.368 C95.2789499,19.368 93.8912971,18.796839 92.802625,17.6545 C91.7139529,16.512161 91.169625,15.0823419 91.169625,13.365 C91.169625,11.6476581 91.7139529,10.2216723 92.802625,9.087 Z M94.366625,16.332 C95.1026287,17.0680037 95.9689534,17.436 96.965625,17.436 C97.9622967,17.436 98.824788,17.0641704 99.553125,16.3205 C100.281462,15.5768296 100.645625,14.5916728 100.645625,13.365 C100.645625,12.1383272 100.281462,11.1531704 99.553125,10.4095 C98.824788,9.66582962 97.9622967,9.294 96.965625,9.294 C95.9689534,9.294 95.106462,9.66582962 94.378125,10.4095 C93.649788,11.1531704 93.285625,12.1383272 93.285625,13.365 C93.285625,14.5916728 93.6459547,15.5806629 94.366625,16.332 Z M97.793625,5.476 L95.953625,5.476 L97.149625,2.532 L99.449625,2.532 L97.793625,5.476 Z M106.631375,7.73 L106.631375,9.294 L106.723375,9.294 C107.030043,8.75733065 107.513038,8.30116854 108.172375,7.9255 C108.831712,7.54983145 109.537038,7.362 110.288375,7.362 C111.683715,7.362 112.749371,7.79132904 113.485375,8.65 C114.221379,9.50867096 114.589375,10.6586595 114.589375,12.1 L114.589375,19 L112.473375,19 L112.473375,12.422 C112.473375,10.3366562 111.545718,9.294 109.690375,9.294 C108.816371,9.294 108.103378,9.64282985 107.551375,10.3405 C106.999372,11.0381702 106.723375,11.8469954 106.723375,12.767 L106.723375,19 L104.607375,19 L104.607375,7.73 L106.631375,7.73 Z M127.572875,19.368 C125.8862,19.368 124.498547,18.796839 123.409875,17.6545 C122.321203,16.512161 121.776875,15.0823419 121.776875,13.365 C121.776875,11.6476581 122.321203,10.217839 123.409875,9.0755 C124.498547,7.93316096 125.8862,7.362 127.572875,7.362 C128.830215,7.362 129.872871,7.6686636 130.700875,8.282 C131.528879,8.8953364 132.13454,9.66966199 132.517875,10.605 L130.585875,11.41 C130.003205,9.99932628 128.952883,9.294 127.434875,9.294 C126.499537,9.294 125.675379,9.6773295 124.962375,10.444 C124.249371,11.2106705 123.892875,12.1843274 123.892875,13.365 C123.892875,14.5456726 124.249371,15.5193295 124.962375,16.286 C125.675379,17.0526705 126.499537,17.436 127.434875,17.436 C129.014216,17.436 130.102872,16.7306737 130.700875,15.32 L132.586875,16.125 C132.20354,17.0450046 131.586379,17.8154969 130.735375,18.4365 C129.884371,19.0575031 128.830215,19.368 127.572875,19.368 Z M135.444625,9.087 C136.533297,7.93699425 137.92095,7.362 139.607625,7.362 C141.2943,7.362 142.681953,7.93316096 143.770625,9.0755 C144.859297,10.217839 145.403625,11.6476581 145.403625,13.365 C145.403625,15.0823419 144.859297,16.512161 143.770625,17.6545 C142.681953,18.796839 141.2943,19.368 139.607625,19.368 C137.92095,19.368 136.533297,18.796839 135.444625,17.6545 C134.355953,16.512161 133.811625,15.0823419 133.811625,13.365 C133.811625,11.6476581 134.355953,10.2216723 135.444625,9.087 Z M137.008625,16.332 C137.744629,17.0680037 138.610953,17.436 139.607625,17.436 C140.604297,17.436 141.466788,17.0641704 142.195125,16.3205 C142.923462,15.5768296 143.287625,14.5916728 143.287625,13.365 C143.287625,12.1383272 142.923462,11.1531704 142.195125,10.4095 C141.466788,9.66582962 140.604297,9.294 139.607625,9.294 C138.610953,9.294 137.748462,9.66582962 137.020125,10.4095 C136.291788,11.1531704 135.927625,12.1383272 135.927625,13.365 C135.927625,14.5916728 136.287955,15.5806629 137.008625,16.332 Z M149.273375,7.73 L149.273375,9.294 L149.365375,9.294 C149.672043,8.75733065 150.155038,8.30116854 150.814375,7.9255 C151.473712,7.54983145 152.179038,7.362 152.930375,7.362 C154.325715,7.362 155.391371,7.79132904 156.127375,8.65 C156.863379,9.50867096 157.231375,10.6586595 157.231375,12.1 L157.231375,19 L155.115375,19 L155.115375,12.422 C155.115375,10.3366562 154.187718,9.294 152.332375,9.294 C151.458371,9.294 150.745378,9.64282985 150.193375,10.3405 C149.641372,11.0381702 149.365375,11.8469954 149.365375,12.767 L149.365375,19 L147.249375,19 L147.249375,7.73 L149.273375,7.73 Z" id="suscripción-con" fill="#FFFFFF"></path>
        <g id="Group" transform="translate(165.000000, 0.000000)" fill="#FFFFFF" fill-rule="nonzero">
            <path d="M9.36714443,19 C4.27673649,19 0,14.7346939 0,9.5 C0,4.26530612 4.27673649,0 9.36714443,0 C12.185226,0 14.1896362,1.13265306 15.6979052,2.62244898 L13.92172,4.44897959 C12.8401323,3.40816327 11.3715546,2.59183673 9.36714443,2.59183673 C5.646086,2.59183673 2.73869901,5.67346939 2.73869901,9.5 C2.73869901,13.3265306 5.646086,16.4081633 9.36714443,16.4081633 C11.7783903,16.4081633 13.1477398,15.4081633 14.030871,14.5102041 C14.755237,13.7653061 15.2216097,12.7040816 15.4002205,11.244898 L9.36714443,11.244898 L9.36714443,8.64285714 L17.8610805,8.64285714 C17.9503859,9.10204082 18,9.66326531 18,10.2653061 C18,12.2142857 17.4840132,14.622449 15.8169791,16.3367347 C14.1896362,18.0714286 12.1256891,19 9.36714443,19 Z" id="Shape"></path>
            <path d="M32,13 C32,16.4557596 29.3096447,19 26,19 C22.6903553,19 20,16.4557596 20,13 C20,9.52420701 22.6903553,7 26,7 C29.3096447,7 32,9.52420701 32,13 Z M29.3705584,13 C29.3705584,10.836394 27.8071066,9.3639399 26,9.3639399 C24.1928934,9.3639399 22.6294416,10.8464107 22.6294416,13 C22.6294416,15.1335559 24.1928934,16.6360601 26,16.6360601 C27.8071066,16.6360601 29.3705584,15.1435726 29.3705584,13 Z" id="Shape"></path>
            <path d="M45,13 C45,16.4557596 42.3096447,19 39,19 C35.7005076,19 33,16.4557596 33,13 C33,9.52420701 35.6903553,7 39,7 C42.3096447,7 45,9.52420701 45,13 Z M42.3807107,13 C42.3807107,10.836394 40.8172589,9.3639399 39.0101523,9.3639399 C37.2030457,9.3639399 35.6395939,10.8464107 35.6395939,13 C35.6395939,15.1335559 37.2030457,16.6360601 39.0101523,16.6360601 C40.8172589,16.6460768 42.3807107,15.1435726 42.3807107,13 Z" id="Shape"></path>
            <path d="M57,7.3621186 L57,17.8929188 C57,22.228555 54.5013055,24 51.5430809,24 C48.7571802,24 47.0913838,22.0915371 46.45953,20.5354059 L48.6518712,19.6056419 C49.0443864,20.5647668 50.0017406,21.6902706 51.5430809,21.6902706 C53.4386423,21.6902706 54.6066144,20.4864709 54.6066144,18.2452504 L54.6066144,17.4035694 L54.5204526,17.4035694 C53.9556136,18.1180196 52.8642298,18.7345999 51.4952132,18.7345999 C48.6231506,18.7345999 46,16.1801957 46,12.8917674 C46,9.58376511 48.6327241,7 51.4952132,7 C52.8642298,7 53.9556136,7.6263673 54.5204526,8.31145653 L54.6066144,8.31145653 L54.6066144,7.3621186 L57,7.3621186 Z M54.7789382,12.9015544 C54.7789382,10.8364997 53.4290688,9.31951641 51.7154047,9.31951641 C49.97302,9.31951641 48.5178416,10.8267127 48.5178416,12.9015544 C48.5178416,14.9470351 49.97302,16.4346575 51.7154047,16.4346575 C53.4290688,16.4346575 54.7789382,14.9470351 54.7789382,12.9015544 Z" id="Shape"></path>
            <polygon id="Shape" points="63 1 63 19 60 19 60 1"></polygon>
            <path d="M72.8441203,14.9732888 L74.8896992,16.3355593 C74.2278943,17.3171953 72.633546,19 69.8760255,19 C66.4567001,19 64,16.3656093 64,13 C64,9.43405676 66.4867821,7 69.5852325,7 C72.7037375,7 74.2278943,9.47412354 74.7292616,10.8163606 L75,11.4974958 L66.9680948,14.8230384 C67.579763,16.0250417 68.5423883,16.6460768 69.8860529,16.6460768 C71.2297174,16.6460768 72.1622607,15.9749583 72.8441203,14.9732888 Z M66.5369189,12.8096828 L71.911577,10.5859766 C71.6107566,9.83472454 70.72835,9.31385643 69.6754786,9.31385643 C68.331814,9.31385643 66.4667274,10.4958264 66.5369189,12.8096828 Z" id="Shape"></path>
        </g>
    </g>
</svg>