<?xml version="1.0" encoding="UTF-8"?>
<svg width="236px" height="24px" viewBox="0 0 236 24" version="1.1" xmlns="http://www.w3.org/2000/svg" xmlns:xlink="http://www.w3.org/1999/xlink">
    <!-- Generator: Sketch 51.3 (57544) - http://www.bohemiancoding.com/sketch -->
    <title>SwG-FR Copy-Black</title>
    <desc>Created with Sketch.</desc>
    <defs></defs>
    <g id="SwG-FR-Copy" stroke="none" stroke-width="1" fill="none" fill-rule="evenodd">
        <path d="M6.73475,19.368 C5.53874402,19.368 4.36958904,18.9770039 3.22725,18.195 C2.08491095,17.4129961 1.33741843,16.3166737 0.98475,14.906 L2.91675,14.124 C3.14675115,15.0286712 3.61824643,15.7914969 4.33125,16.4125 C5.04425356,17.0335031 5.84541222,17.344 6.73475,17.344 C7.6547546,17.344 8.44058007,17.1025024 9.09225,16.6195 C9.74391992,16.1364976 10.06975,15.4810041 10.06975,14.653 C10.06975,13.7329954 9.74391992,13.0238358 9.09225,12.5255 C8.44058007,12.0271642 7.40942372,11.5633355 5.99875,11.134 C4.54207605,10.6739977 3.43808709,10.079837 2.68675,9.3515 C1.93541291,8.62316303 1.55975,7.69167234 1.55975,6.557 C1.55975,5.37632743 2.02741199,4.34900437 2.96275,3.475 C3.89808801,2.60099563 5.11707582,2.164 6.61975,2.164 C8.01509031,2.164 9.14974563,2.51282984 10.02375,3.2105 C10.8977544,3.90817015 11.465082,4.67099586 11.72575,5.499 L9.79375,6.304 C9.65574931,5.78266406 9.31458605,5.29966889 8.77025,4.855 C8.22591394,4.41033111 7.52442096,4.188 6.66575,4.188 C5.85307927,4.188 5.15925287,4.41416441 4.58425,4.8665 C4.00924712,5.3188356 3.72175,5.88232996 3.72175,6.557 C3.72175,7.1703364 3.98624735,7.68783123 4.51525,8.1095 C5.04425264,8.53116878 5.82241153,8.91066498 6.84975,9.248 C7.66242073,9.50866797 8.34091394,9.76166544 8.88525,10.007 C9.42958605,10.2523346 9.98158053,10.5781646 10.54125,10.9845 C11.1009195,11.3908354 11.5225819,11.8968303 11.80625,12.5025 C12.0899181,13.1081697 12.23175,13.8096627 12.23175,14.607 C12.23175,15.4043373 12.0669183,16.1173302 11.73725,16.746 C11.4075817,17.3746698 10.9705861,17.8729982 10.42625,18.241 C9.88191394,18.6090018 9.29541981,18.8888324 8.66675,19.0805 C8.03808019,19.2721676 7.39408663,19.368 6.73475,19.368 Z M16.2395,7.73 L14.3075,7.73 L14.3075,2.532 L16.2395,2.532 L16.2395,7.73 Z M22.24825,19.368 C21.052244,19.368 20.051754,19.0230035 19.24675,18.333 C18.441746,17.6429965 18.03925,16.7306723 18.03925,15.596 C18.03925,14.3693272 18.5145786,13.4071702 19.46525,12.7095 C20.4159214,12.0118298 21.5889097,11.663 22.98425,11.663 C24.2262562,11.663 25.2459127,11.8929977 26.04325,12.353 L26.04325,12.031 C26.04325,11.2029959 25.7595862,10.5398358 25.19225,10.0415 C24.6249138,9.54316418 23.9272541,9.294 23.09925,9.294 C22.4859136,9.294 21.9300858,9.43966521 21.43175,9.731 C20.9334142,10.0223348 20.5922509,10.4209975 20.40825,10.927 L18.47625,10.099 C18.736918,9.42432996 19.2505795,8.79950287 20.01725,8.2245 C20.7839205,7.64949712 21.7959104,7.362 23.05325,7.362 C24.4945905,7.362 25.6905786,7.78366245 26.64125,8.627 C27.5919214,9.47033755 28.06725,10.658659 28.06725,12.192 L28.06725,19 L26.04325,19 L26.04325,17.436 L25.95125,17.436 C25.1079124,18.7240064 23.8735915,19.368 22.24825,19.368 Z M22.59325,17.436 C23.4672544,17.436 24.2607464,17.1101699 24.97375,16.4585 C25.6867536,15.8068301 26.04325,15.0363378 26.04325,14.147 C25.445247,13.6563309 24.548256,13.411 23.35225,13.411 C22.3249115,13.411 21.5505859,13.6333311 21.02925,14.078 C20.5079141,14.5226689 20.24725,15.043997 20.24725,15.642 C20.24725,16.1940028 20.4849143,16.6309984 20.96025,16.953 C21.4355857,17.2750016 21.9799136,17.436 22.59325,17.436 Z M36.56,19.368 C35.701329,19.368 34.9308367,19.1840018 34.2485,18.816 C33.5661633,18.4479982 33.056335,17.9880028 32.719,17.436 L32.627,17.436 L32.627,19 L30.603,19 L30.603,2.532 L32.719,2.532 L32.719,7.73 L32.627,9.294 L32.719,9.294 C33.056335,8.74199724 33.5661633,8.28200184 34.2485,7.914 C34.9308367,7.54599816 35.701329,7.362 36.56,7.362 C38.0166739,7.362 39.2739947,7.93699425 40.332,9.087 C41.3900053,10.2370057 41.919,11.6629915 41.919,13.365 C41.919,15.0670085 41.3900053,16.4929942 40.332,17.643 C39.2739947,18.7930057 38.0166739,19.368 36.56,19.368 Z M36.215,17.436 C37.1963382,17.436 38.0396631,17.0641704 38.745,16.3205 C39.4503369,15.5768296 39.803,14.5916728 39.803,13.365 C39.803,12.1383272 39.4503369,11.1531704 38.745,10.4095 C38.0396631,9.66582961 37.1963382,9.294 36.215,9.294 C35.2183283,9.294 34.3711702,9.66199632 33.6735,10.398 C32.9758298,11.1340037 32.627,12.1229938 32.627,13.365 C32.627,14.6070062 32.9758298,15.5959963 33.6735,16.332 C34.3711702,17.0680037 35.2183283,17.436 36.215,17.436 Z M44.98375,9.087 C46.0724221,7.93699425 47.4600749,7.362 49.14675,7.362 C50.8334251,7.362 52.2210779,7.93316096 53.30975,9.0755 C54.3984221,10.217839 54.94275,11.6476581 54.94275,13.365 C54.94275,15.0823419 54.3984221,16.512161 53.30975,17.6545 C52.2210779,18.796839 50.8334251,19.368 49.14675,19.368 C47.4600749,19.368 46.0724221,18.796839 44.98375,17.6545 C43.8950779,16.512161 43.35075,15.0823419 43.35075,13.365 C43.35075,11.6476581 43.8950779,10.2216723 44.98375,9.087 Z M46.54775,16.332 C47.2837537,17.0680037 48.1500783,17.436 49.14675,17.436 C50.1434216,17.436 51.005913,17.0641704 51.73425,16.3205 C52.462587,15.5768296 52.82675,14.5916728 52.82675,13.365 C52.82675,12.1383272 52.462587,11.1531704 51.73425,10.4095 C51.005913,9.66582961 50.1434216,9.294 49.14675,9.294 C48.1500783,9.294 47.287587,9.66582961 46.55925,10.4095 C45.830913,11.1531704 45.46675,12.1383272 45.46675,13.365 C45.46675,14.5916728 45.8270797,15.5806629 46.54775,16.332 Z M58.8125,7.73 L58.8125,9.294 L58.9045,9.294 C59.2111682,8.75733065 59.6941634,8.30116854 60.3535,7.9255 C61.0128366,7.54983145 61.7181629,7.362 62.4695,7.362 C63.8648403,7.362 64.9304963,7.79132904 65.6665,8.65 C66.4025037,9.50867096 66.7705,10.6586595 66.7705,12.1 L66.7705,19 L64.6545,19 L64.6545,12.422 C64.6545,10.3366562 63.7268426,9.294 61.8715,9.294 C60.9974956,9.294 60.2845028,9.64282985 59.7325,10.3405 C59.1804972,11.0381702 58.9045,11.8469954 58.9045,12.767 L58.9045,19 L56.7885,19 L56.7885,7.73 L58.8125,7.73 Z M71.42225,7.73 L71.42225,9.294 L71.51425,9.294 C71.8209182,8.75733065 72.3039134,8.30116854 72.96325,7.9255 C73.6225866,7.54983145 74.3279129,7.362 75.07925,7.362 C76.4745903,7.362 77.5402463,7.79132904 78.27625,8.65 C79.0122537,9.50867096 79.38025,10.6586595 79.38025,12.1 L79.38025,19 L77.26425,19 L77.26425,12.422 C77.26425,10.3366562 76.3365926,9.294 74.48125,9.294 C73.6072456,9.294 72.8942528,9.64282985 72.34225,10.3405 C71.7902472,11.0381702 71.51425,11.8469954 71.51425,12.767 L71.51425,19 L69.39825,19 L69.39825,7.73 L71.42225,7.73 Z M87.114,19.368 C85.4119915,19.368 84.028172,18.8006723 82.9625,17.666 C81.896828,16.5313277 81.364,15.0976753 81.364,13.365 C81.364,11.7243251 81.8814948,10.3136726 82.9165,9.133 C83.9515052,7.95232743 85.2739919,7.362 86.884,7.362 C88.5553417,7.362 89.8931616,7.90632789 90.8975,8.995 C91.9018384,10.0836721 92.404,11.5403242 92.404,13.365 L92.381,13.756 L83.48,13.756 C83.5413336,14.8906723 83.9208298,15.7876634 84.6185,16.447 C85.3161702,17.1063366 86.132662,17.436 87.068,17.436 C88.5860076,17.436 89.6133306,16.7920064 90.15,15.504 L92.036,16.286 C91.6679982,17.1600044 91.0623375,17.8921637 90.219,18.4825 C89.3756624,19.0728363 88.3406728,19.368 87.114,19.368 Z M90.15,12.008 C90.1039998,11.3639968 89.8088361,10.7506696 89.2645,10.168 C88.7201639,9.58533042 87.9113387,9.294 86.838,9.294 C86.0559961,9.294 85.3775029,9.53933088 84.8025,10.03 C84.2274971,10.5206691 83.8326677,11.1799959 83.618,12.008 L90.15,12.008 Z M96.59575,19 L94.47975,19 L94.47975,7.73 L96.50375,7.73 L96.50375,9.57 L96.59575,9.57 C96.8104177,8.9566636 97.2512467,8.45066866 97.91825,8.052 C98.5852533,7.65333134 99.2330802,7.454 99.86175,7.454 C100.49042,7.454 101.019415,7.54599908 101.44875,7.73 L100.64375,9.708 C100.367749,9.60066613 99.9920857,9.547 99.51675,9.547 C98.7500795,9.547 98.0715863,9.84983031 97.48125,10.4555 C96.8909137,11.0611697 96.59575,11.8546618 96.59575,12.836 L96.59575,19 Z M111.74125,19.368 C110.545244,19.368 109.544754,19.0230035 108.73975,18.333 C107.934746,17.6429965 107.53225,16.7306723 107.53225,15.596 C107.53225,14.3693272 108.007579,13.4071702 108.95825,12.7095 C109.908921,12.0118298 111.08191,11.663 112.47725,11.663 C113.719256,11.663 114.738913,11.8929977 115.53625,12.353 L115.53625,12.031 C115.53625,11.2029959 115.252586,10.5398358 114.68525,10.0415 C114.117914,9.54316418 113.420254,9.294 112.59225,9.294 C111.978914,9.294 111.423086,9.43966521 110.92475,9.731 C110.426414,10.0223348 110.085251,10.4209975 109.90125,10.927 L107.96925,10.099 C108.229918,9.42432996 108.743579,8.79950287 109.51025,8.2245 C110.27692,7.64949712 111.28891,7.362 112.54625,7.362 C113.987591,7.362 115.183579,7.78366245 116.13425,8.627 C117.084921,9.47033755 117.56025,10.658659 117.56025,12.192 L117.56025,19 L115.53625,19 L115.53625,17.436 L115.44425,17.436 C114.600912,18.7240064 113.366591,19.368 111.74125,19.368 Z M112.08625,17.436 C112.960254,17.436 113.753746,17.1101699 114.46675,16.4585 C115.179754,15.8068301 115.53625,15.0363378 115.53625,14.147 C114.938247,13.6563309 114.041256,13.411 112.84525,13.411 C111.817912,13.411 111.043586,13.6333311 110.52225,14.078 C110.000914,14.5226689 109.74025,15.043997 109.74025,15.642 C109.74025,16.1940028 109.977914,16.6309984 110.45325,16.953 C110.928586,17.2750016 111.472914,17.436 112.08625,17.436 Z M123.224,19 L118.67,7.73 L120.97,7.73 L124.282,16.47 L124.328,16.47 L127.686,7.73 L129.94,7.73 L125.34,19 L123.224,19 Z M136.22475,19.368 C134.522741,19.368 133.138922,18.8006723 132.07325,17.666 C131.007578,16.5313277 130.47475,15.0976753 130.47475,13.365 C130.47475,11.7243251 130.992245,10.3136726 132.02725,9.133 C133.062255,7.95232743 134.384742,7.362 135.99475,7.362 C137.666092,7.362 139.003912,7.90632789 140.00825,8.995 C141.012588,10.0836721 141.51475,11.5403242 141.51475,13.365 L141.49175,13.756 L132.59075,13.756 C132.652084,14.8906723 133.03158,15.7876634 133.72925,16.447 C134.42692,17.1063366 135.243412,17.436 136.17875,17.436 C137.696758,17.436 138.724081,16.7920064 139.26075,15.504 L141.14675,16.286 C140.778748,17.1600044 140.173088,17.8921637 139.32975,18.4825 C138.486412,19.0728363 137.451423,19.368 136.22475,19.368 Z M139.26075,12.008 C139.21475,11.3639968 138.919586,10.7506696 138.37525,10.168 C137.830914,9.58533042 137.022089,9.294 135.94875,9.294 C135.166746,9.294 134.488253,9.53933088 133.91325,10.03 C133.338247,10.5206691 132.943418,11.1799959 132.72875,12.008 L139.26075,12.008 Z M148.8575,19.368 C147.170825,19.368 145.783172,18.796839 144.6945,17.6545 C143.605828,16.512161 143.0615,15.0823419 143.0615,13.365 C143.0615,11.6476581 143.605828,10.217839 144.6945,9.0755 C145.783172,7.93316096 147.170825,7.362 148.8575,7.362 C150.11484,7.362 151.157496,7.6686636 151.9855,8.282 C152.813504,8.8953364 153.419165,9.66966199 153.8025,10.605 L151.8705,11.41 C151.28783,9.99932628 150.237508,9.294 148.7195,9.294 C147.784162,9.294 146.960004,9.6773295 146.247,10.444 C145.533996,11.2106705 145.1775,12.1843274 145.1775,13.365 C145.1775,14.5456726 145.533996,15.5193295 146.247,16.286 C146.960004,17.0526705 147.784162,17.436 148.7195,17.436 C150.298841,17.436 151.387497,16.7306737 151.9855,15.32 L153.8715,16.125 C153.488165,17.0450046 152.871004,17.8154969 152.02,18.4365 C151.168996,19.0575031 150.11484,19.368 148.8575,19.368 Z" id="S'abonner-avec" fill="#FFFFFF"></path>
        <g id="Group" transform="translate(161.000000, 0.000000)" fill="#FFFFFF" fill-rule="nonzero">
            <path d="M9.36714443,19 C4.27673649,19 0,14.7346939 0,9.5 C0,4.26530612 4.27673649,0 9.36714443,0 C12.185226,0 14.1896362,1.13265306 15.6979052,2.62244898 L13.92172,4.44897959 C12.8401323,3.40816327 11.3715546,2.59183673 9.36714443,2.59183673 C5.646086,2.59183673 2.73869901,5.67346939 2.73869901,9.5 C2.73869901,13.3265306 5.646086,16.4081633 9.36714443,16.4081633 C11.7783903,16.4081633 13.1477398,15.4081633 14.030871,14.5102041 C14.755237,13.7653061 15.2216097,12.7040816 15.4002205,11.244898 L9.36714443,11.244898 L9.36714443,8.64285714 L17.8610805,8.64285714 C17.9503859,9.10204082 18,9.66326531 18,10.2653061 C18,12.2142857 17.4840132,14.622449 15.8169791,16.3367347 C14.1896362,18.0714286 12.1256891,19 9.36714443,19 Z" id="Shape"></path>
            <path d="M32,13 C32,16.4557596 29.3096447,19 26,19 C22.6903553,19 20,16.4557596 20,13 C20,9.52420701 22.6903553,7 26,7 C29.3096447,7 32,9.52420701 32,13 Z M29.3705584,13 C29.3705584,10.836394 27.8071066,9.3639399 26,9.3639399 C24.1928934,9.3639399 22.6294416,10.8464107 22.6294416,13 C22.6294416,15.1335559 24.1928934,16.6360601 26,16.6360601 C27.8071066,16.6360601 29.3705584,15.1435726 29.3705584,13 Z" id="Shape"></path>
            <path d="M45,13 C45,16.4557596 42.3096447,19 39,19 C35.7005076,19 33,16.4557596 33,13 C33,9.52420701 35.6903553,7 39,7 C42.3096447,7 45,9.52420701 45,13 Z M42.3807107,13 C42.3807107,10.836394 40.8172589,9.3639399 39.0101523,9.3639399 C37.2030457,9.3639399 35.6395939,10.8464107 35.6395939,13 C35.6395939,15.1335559 37.2030457,16.6360601 39.0101523,16.6360601 C40.8172589,16.6460768 42.3807107,15.1435726 42.3807107,13 Z" id="Shape"></path>
            <path d="M57,7.3621186 L57,17.8929188 C57,22.228555 54.5013055,24 51.5430809,24 C48.7571802,24 47.0913838,22.0915371 46.45953,20.5354059 L48.6518712,19.6056419 C49.0443864,20.5647668 50.0017406,21.6902706 51.5430809,21.6902706 C53.4386423,21.6902706 54.6066144,20.4864709 54.6066144,18.2452504 L54.6066144,17.4035694 L54.5204526,17.4035694 C53.9556136,18.1180196 52.8642298,18.7345999 51.4952132,18.7345999 C48.6231506,18.7345999 46,16.1801957 46,12.8917674 C46,9.58376511 48.6327241,7 51.4952132,7 C52.8642298,7 53.9556136,7.6263673 54.5204526,8.31145653 L54.6066144,8.31145653 L54.6066144,7.3621186 L57,7.3621186 Z M54.7789382,12.9015544 C54.7789382,10.8364997 53.4290688,9.31951641 51.7154047,9.31951641 C49.97302,9.31951641 48.5178416,10.8267127 48.5178416,12.9015544 C48.5178416,14.9470351 49.97302,16.4346575 51.7154047,16.4346575 C53.4290688,16.4346575 54.7789382,14.9470351 54.7789382,12.9015544 Z" id="Shape"></path>
            <polygon id="Shape" points="63 1 63 19 60 19 60 1"></polygon>
            <path d="M72.8441203,14.9732888 L74.8896992,16.3355593 C74.2278943,17.3171953 72.633546,19 69.8760255,19 C66.4567001,19 64,16.3656093 64,13 C64,9.43405676 66.4867821,7 69.5852325,7 C72.7037375,7 74.2278943,9.47412354 74.7292616,10.8163606 L75,11.4974958 L66.9680948,14.8230384 C67.579763,16.0250417 68.5423883,16.6460768 69.8860529,16.6460768 C71.2297174,16.6460768 72.1622607,15.9749583 72.8441203,14.9732888 Z M66.5369189,12.8096828 L71.911577,10.5859766 C71.6107566,9.83472454 70.72835,9.31385643 69.6754786,9.31385643 C68.331814,9.31385643 66.4667274,10.4958264 66.5369189,12.8096828 Z" id="Shape"></path>
        </g>
    </g>
</svg>