<?xml version="1.0" encoding="UTF-8"?>
<svg width="215px" height="24px" viewBox="0 0 215 24" version="1.1" xmlns="http://www.w3.org/2000/svg" xmlns:xlink="http://www.w3.org/1999/xlink">
    <!-- Generator: Sketch 51.3 (57544) - http://www.bohemiancoding.com/sketch -->
    <title>SwG-FR-WOB</title>
    <desc>Created with Sketch.</desc>
    <defs></defs>
    <g id="SwG-FR-WOB" stroke="none" stroke-width="1" fill="none" fill-rule="evenodd">
        <g id="Group" transform="translate(140.000000, 0.000000)" fill="#FFFFFF" fill-rule="nonzero">
            <path d="M9.36714443,19 C4.27673649,19 0,14.7346939 0,9.5 C0,4.26530612 4.27673649,0 9.36714443,0 C12.185226,0 14.1896362,1.13265306 15.6979052,2.62244898 L13.92172,4.44897959 C12.8401323,3.40816327 11.3715546,2.59183673 9.36714443,2.59183673 C5.646086,2.59183673 2.73869901,5.67346939 2.73869901,9.5 C2.73869901,13.3265306 5.646086,16.4081633 9.36714443,16.4081633 C11.7783903,16.4081633 13.1477398,15.4081633 14.030871,14.5102041 C14.755237,13.7653061 15.2216097,12.7040816 15.4002205,11.244898 L9.36714443,11.244898 L9.36714443,8.64285714 L17.8610805,8.64285714 C17.9503859,9.10204082 18,9.66326531 18,10.2653061 C18,12.2142857 17.4840132,14.622449 15.8169791,16.3367347 C14.1896362,18.0714286 12.1256891,19 9.36714443,19 Z" id="Shape"></path>
            <path d="M32,13 C32,16.4557596 29.3096447,19 26,19 C22.6903553,19 20,16.4557596 20,13 C20,9.52420701 22.6903553,7 26,7 C29.3096447,7 32,9.52420701 32,13 Z M29.3705584,13 C29.3705584,10.836394 27.8071066,9.3639399 26,9.3639399 C24.1928934,9.3639399 22.6294416,10.8464107 22.6294416,13 C22.6294416,15.1335559 24.1928934,16.6360601 26,16.6360601 C27.8071066,16.6360601 29.3705584,15.1435726 29.3705584,13 Z" id="Shape"></path>
            <path d="M45,13 C45,16.4557596 42.3096447,19 39,19 C35.7005076,19 33,16.4557596 33,13 C33,9.52420701 35.6903553,7 39,7 C42.3096447,7 45,9.52420701 45,13 Z M42.3807107,13 C42.3807107,10.836394 40.8172589,9.3639399 39.0101523,9.3639399 C37.2030457,9.3639399 35.6395939,10.8464107 35.6395939,13 C35.6395939,15.1335559 37.2030457,16.6360601 39.0101523,16.6360601 C40.8172589,16.6460768 42.3807107,15.1435726 42.3807107,13 Z" id="Shape"></path>
            <path d="M57,7.3621186 L57,17.8929188 C57,22.228555 54.5013055,24 51.5430809,24 C48.7571802,24 47.0913838,22.0915371 46.45953,20.5354059 L48.6518712,19.6056419 C49.0443864,20.5647668 50.0017406,21.6902706 51.5430809,21.6902706 C53.4386423,21.6902706 54.6066144,20.4864709 54.6066144,18.2452504 L54.6066144,17.4035694 L54.5204526,17.4035694 C53.9556136,18.1180196 52.8642298,18.7345999 51.4952132,18.7345999 C48.6231506,18.7345999 46,16.1801957 46,12.8917674 C46,9.58376511 48.6327241,7 51.4952132,7 C52.8642298,7 53.9556136,7.6263673 54.5204526,8.31145653 L54.6066144,8.31145653 L54.6066144,7.3621186 L57,7.3621186 Z M54.7789382,12.9015544 C54.7789382,10.8364997 53.4290688,9.31951641 51.7154047,9.31951641 C49.97302,9.31951641 48.5178416,10.8267127 48.5178416,12.9015544 C48.5178416,14.9470351 49.97302,16.4346575 51.7154047,16.4346575 C53.4290688,16.4346575 54.7789382,14.9470351 54.7789382,12.9015544 Z" id="Shape"></path>
            <polygon id="Shape" points="63 1 63 19 60 19 60 1"></polygon>
            <path d="M72.8441203,14.9732888 L74.8896992,16.3355593 C74.2278943,17.3171953 72.633546,19 69.8760255,19 C66.4567001,19 64,16.3656093 64,13 C64,9.43405676 66.4867821,7 69.5852325,7 C72.7037375,7 74.2278943,9.47412354 74.7292616,10.8163606 L75,11.4974958 L66.9680948,14.8230384 C67.579763,16.0250417 68.5423883,16.6460768 69.8860529,16.6460768 C71.2297174,16.6460768 72.1622607,15.9749583 72.8441203,14.9732888 Z M66.5369189,12.8096828 L71.911577,10.5859766 C71.6107566,9.83472454 70.72835,9.31385643 69.6754786,9.31385643 C68.331814,9.31385643 66.4667274,10.4958264 66.5369189,12.8096828 Z" id="Shape"></path>
        </g>
        <path d="M0.642374934,19 L6.85237493,2.532 L9.24437493,2.532 L15.4543749,19 L13.1083749,19 L11.5213749,14.538 L4.59837493,14.538 L2.98837493,19 L0.642374934,19 Z M5.31137493,12.56 L10.7853749,12.56 L8.09437493,5.131 L8.00237493,5.131 L5.31137493,12.56 Z M23.1191249,19.368 C22.260454,19.368 21.4899617,19.1840018 20.8076249,18.816 C20.1252882,18.4479982 19.61546,17.9880028 19.2781249,17.436 L19.1861249,17.436 L19.1861249,19 L17.1621249,19 L17.1621249,2.532 L19.2781249,2.532 L19.2781249,7.73 L19.1861249,9.294 L19.2781249,9.294 C19.61546,8.74199724 20.1252882,8.28200184 20.8076249,7.914 C21.4899617,7.54599816 22.260454,7.362 23.1191249,7.362 C24.5757989,7.362 25.8331197,7.93699425 26.8911249,9.087 C27.9491302,10.2370057 28.4781249,11.6629915 28.4781249,13.365 C28.4781249,15.0670085 27.9491302,16.4929942 26.8911249,17.643 C25.8331197,18.7930057 24.5757989,19.368 23.1191249,19.368 Z M22.7741249,17.436 C23.7554632,17.436 24.5987881,17.0641704 25.3041249,16.3205 C26.0094618,15.5768296 26.3621249,14.5916728 26.3621249,13.365 C26.3621249,12.1383272 26.0094618,11.1531704 25.3041249,10.4095 C24.5987881,9.66582961 23.7554632,9.294 22.7741249,9.294 C21.7774533,9.294 20.9302951,9.66199632 20.2326249,10.398 C19.5349548,11.1340037 19.1861249,12.1229938 19.1861249,13.365 C19.1861249,14.6070062 19.5349548,15.5959963 20.2326249,16.332 C20.9302951,17.0680037 21.7774533,17.436 22.7741249,17.436 Z M31.542875,9.087 C32.6315471,7.93699425 34.0191999,7.362 35.705875,7.362 C37.3925501,7.362 38.7802028,7.93316096 39.868875,9.0755 C40.9575471,10.217839 41.501875,11.6476581 41.501875,13.365 C41.501875,15.0823419 40.9575471,16.512161 39.868875,17.6545 C38.7802028,18.796839 37.3925501,19.368 35.705875,19.368 C34.0191999,19.368 32.6315471,18.796839 31.542875,17.6545 C30.4542028,16.512161 29.909875,15.0823419 29.909875,13.365 C29.909875,11.6476581 30.4542028,10.2216723 31.542875,9.087 Z M33.106875,16.332 C33.8428786,17.0680037 34.7092033,17.436 35.705875,17.436 C36.7025466,17.436 37.565038,17.0641704 38.293375,16.3205 C39.0217119,15.5768296 39.385875,14.5916728 39.385875,13.365 C39.385875,12.1383272 39.0217119,11.1531704 38.293375,10.4095 C37.565038,9.66582961 36.7025466,9.294 35.705875,9.294 C34.7092033,9.294 33.8467119,9.66582961 33.118375,10.4095 C32.390038,11.1531704 32.025875,12.1383272 32.025875,13.365 C32.025875,14.5916728 32.3862047,15.5806629 33.106875,16.332 Z M45.371625,7.73 L45.371625,9.294 L45.463625,9.294 C45.7702932,8.75733065 46.2532883,8.30116854 46.912625,7.9255 C47.5719616,7.54983145 48.2772879,7.362 49.028625,7.362 C50.4239653,7.362 51.4896213,7.79132904 52.225625,8.65 C52.9616287,9.50867096 53.329625,10.6586595 53.329625,12.1 L53.329625,19 L51.213625,19 L51.213625,12.422 C51.213625,10.3366562 50.2859676,9.294 48.430625,9.294 C47.5566206,9.294 46.8436277,9.64282985 46.291625,10.3405 C45.7396222,11.0381702 45.463625,11.8469954 45.463625,12.767 L45.463625,19 L43.347625,19 L43.347625,7.73 L45.371625,7.73 Z M57.981375,7.73 L57.981375,9.294 L58.073375,9.294 C58.3800432,8.75733065 58.8630384,8.30116854 59.522375,7.9255 C60.1817116,7.54983145 60.8870379,7.362 61.638375,7.362 C63.0337153,7.362 64.0993713,7.79132904 64.835375,8.65 C65.5713787,9.50867096 65.939375,10.6586595 65.939375,12.1 L65.939375,19 L63.823375,19 L63.823375,12.422 C63.823375,10.3366562 62.8957176,9.294 61.040375,9.294 C60.1663706,9.294 59.4533777,9.64282985 58.901375,10.3405 C58.3493722,11.0381702 58.073375,11.8469954 58.073375,12.767 L58.073375,19 L55.957375,19 L55.957375,7.73 L57.981375,7.73 Z M73.673125,19.368 C71.9711165,19.368 70.587297,18.8006723 69.521625,17.666 C68.455953,16.5313277 67.923125,15.0976753 67.923125,13.365 C67.923125,11.7243251 68.4406198,10.3136726 69.475625,9.133 C70.5106302,7.95232743 71.8331169,7.362 73.443125,7.362 C75.1144667,7.362 76.4522866,7.90632789 77.456625,8.995 C78.4609633,10.0836721 78.963125,11.5403242 78.963125,13.365 L78.940125,13.756 L70.039125,13.756 C70.1004586,14.8906723 70.4799548,15.7876634 71.177625,16.447 C71.8752951,17.1063366 72.691787,17.436 73.627125,17.436 C75.1451326,17.436 76.1724556,16.7920064 76.709125,15.504 L78.595125,16.286 C78.2271232,17.1600044 77.6214625,17.8921637 76.778125,18.4825 C75.9347874,19.0728363 74.8997978,19.368 73.673125,19.368 Z M76.709125,12.008 C76.6631248,11.3639968 76.367961,10.7506696 75.823625,10.168 C75.2792889,9.58533042 74.4704637,9.294 73.397125,9.294 C72.6151211,9.294 71.9366279,9.53933088 71.361625,10.03 C70.7866221,10.5206691 70.3917927,11.1799959 70.177125,12.008 L76.709125,12.008 Z M74.179125,5.476 L72.339125,5.476 L73.535125,2.532 L75.835125,2.532 L74.179125,5.476 Z M89.807625,19.368 C88.611619,19.368 87.611129,19.0230035 86.806125,18.333 C86.001121,17.6429965 85.598625,16.7306723 85.598625,15.596 C85.598625,14.3693272 86.0739536,13.4071702 87.024625,12.7095 C87.9752964,12.0118298 89.1482847,11.663 90.543625,11.663 C91.7856312,11.663 92.8052877,11.8929977 93.602625,12.353 L93.602625,12.031 C93.602625,11.2029959 93.3189612,10.5398358 92.751625,10.0415 C92.1842888,9.54316418 91.4866292,9.294 90.658625,9.294 C90.0452886,9.294 89.4894608,9.43966521 88.991125,9.731 C88.4927892,10.0223348 88.1516259,10.4209975 87.967625,10.927 L86.035625,10.099 C86.296293,9.42432996 86.8099545,8.79950287 87.576625,8.2245 C88.3432955,7.64949712 89.3552854,7.362 90.612625,7.362 C92.0539656,7.362 93.2499536,7.78366245 94.200625,8.627 C95.1512964,9.47033755 95.626625,10.658659 95.626625,12.192 L95.626625,19 L93.602625,19 L93.602625,17.436 L93.510625,17.436 C92.6672875,18.7240064 91.4329665,19.368 89.807625,19.368 Z M90.152625,17.436 C91.0266294,17.436 91.8201215,17.1101699 92.533125,16.4585 C93.2461286,15.8068301 93.602625,15.0363378 93.602625,14.147 C93.004622,13.6563309 92.107631,13.411 90.911625,13.411 C89.8842865,13.411 89.109961,13.6333311 88.588625,14.078 C88.0672891,14.5226689 87.806625,15.043997 87.806625,15.642 C87.806625,16.1940028 88.0442893,16.6309984 88.519625,16.953 C88.9949607,17.2750016 89.5392886,17.436 90.152625,17.436 Z M101.290375,19 L96.736375,7.73 L99.036375,7.73 L102.348375,16.47 L102.394375,16.47 L105.752375,7.73 L108.006375,7.73 L103.406375,19 L101.290375,19 Z M114.291125,19.368 C112.589117,19.368 111.205297,18.8006723 110.139625,17.666 C109.073953,16.5313277 108.541125,15.0976753 108.541125,13.365 C108.541125,11.7243251 109.05862,10.3136726 110.093625,9.133 C111.12863,7.95232743 112.451117,7.362 114.061125,7.362 C115.732467,7.362 117.070287,7.90632789 118.074625,8.995 C119.078963,10.0836721 119.581125,11.5403242 119.581125,13.365 L119.558125,13.756 L110.657125,13.756 C110.718459,14.8906723 111.097955,15.7876634 111.795625,16.447 C112.493295,17.1063366 113.309787,17.436 114.245125,17.436 C115.763133,17.436 116.790456,16.7920064 117.327125,15.504 L119.213125,16.286 C118.845123,17.1600044 118.239463,17.8921637 117.396125,18.4825 C116.552787,19.0728363 115.517798,19.368 114.291125,19.368 Z M117.327125,12.008 C117.281125,11.3639968 116.985961,10.7506696 116.441625,10.168 C115.897289,9.58533042 115.088464,9.294 114.015125,9.294 C113.233121,9.294 112.554628,9.53933088 111.979625,10.03 C111.404622,10.5206691 111.009793,11.1799959 110.795125,12.008 L117.327125,12.008 Z M126.923875,19.368 C125.2372,19.368 123.849547,18.796839 122.760875,17.6545 C121.672203,16.512161 121.127875,15.0823419 121.127875,13.365 C121.127875,11.6476581 121.672203,10.217839 122.760875,9.0755 C123.849547,7.93316096 125.2372,7.362 126.923875,7.362 C128.181215,7.362 129.223871,7.6686636 130.051875,8.282 C130.879879,8.8953364 131.48554,9.66966199 131.868875,10.605 L129.936875,11.41 C129.354205,9.99932628 128.303883,9.294 126.785875,9.294 C125.850537,9.294 125.026379,9.6773295 124.313375,10.444 C123.600371,11.2106705 123.243875,12.1843274 123.243875,13.365 C123.243875,14.5456726 123.600371,15.5193295 124.313375,16.286 C125.026379,17.0526705 125.850537,17.436 126.785875,17.436 C128.365216,17.436 129.453872,16.7306737 130.051875,15.32 L131.937875,16.125 C131.55454,17.0450046 130.937379,17.8154969 130.086375,18.4365 C129.235371,19.0575031 128.181215,19.368 126.923875,19.368 Z" id="Abonné-avec" fill="#FFFFFF"></path>
    </g>
</svg>