<svg width="204" height="24" viewBox="0 0 204 24" xmlns="http://www.w3.org/2000/svg"><title>SwG-Hi-White</title><desc>Created with Sketch.</desc><g fill="none"><path d="M95.881 15.169c0-1.426-.989-2.392-2.415-2.392-1.633 0-2.737 1.173-2.737 2.898v6.325h-1.725v-4.209h-.092c-.437.552-1.357 1.311-2.967 1.311-2.093 0-3.91-1.587-3.91-3.933 0-2.783 2.369-4.301 4.853-3.979l.276 1.587c-1.656-.276-3.312.437-3.312 2.369 0 1.38.966 2.392 2.415 2.392 1.633 0 2.737-1.173 2.737-2.898v-5.934h-8.51v-1.472h18.722v1.472h-8.487v3.841h.092c.437-.598 1.403-1.334 2.99-1.334 2.093 0 3.864 1.541 3.864 3.933 0 2.783-2.369 4.301-4.83 3.956l-.276-1.587c1.656.299 3.312-.437 3.312-2.346zm9.614-6.463h-2.783v13.294h-1.725v-13.294h-2.783v-1.472h2.576c-.92-2.116-3.703-5.037-7.935-5.037-1.817 0-2.714.851-2.714 1.932 0 .759.46 1.357.897 1.679l-1.656.506c-.437-.345-1.035-1.058-1.035-2.254 0-1.817 1.656-3.381 4.462-3.381 5.014 0 8.556 3.335 9.798 6.555h2.898v1.472zm14.271 5.52c.828 0 1.61-.115 2.185-.299v-5.221h-4.554v4.416c0 .276-.023.552-.092.782.736.207 1.61.322 2.461.322zm-5.911 1.633l-.046.069c.506.575.966 1.081 1.587 1.909l2.691 3.496-1.403.92-5.934-7.774 1.311-1.035c.391.46 1.012 1.035 2.093 1.035.989 0 1.518-.437 1.518-1.495v-4.278h-5.842v-1.472h16.652v1.472h-2.783v13.294h-1.748v-6.417c-.529.115-1.196.184-2.116.184-1.15 0-2.392-.23-3.243-.552-.506.46-1.219.69-1.978.713-.184 0-.552 0-.759-.069zm21.419-3.634l-3.611.874c-2.024.529-2.691 1.357-2.691 2.645 0 1.679 1.357 3.036 3.266 3.013.897 0 1.633-.23 2.024-.575v-2.346l1.265-.46c.506.253 1.15.897 1.15 1.886 0 .92-.391 1.541-.805 1.909l2.553 3.243-2.047.506-1.679-3.036c-.621.299-1.426.46-2.231.46-3.243 0-5.267-2.369-5.267-4.807 0-2.001 1.196-3.266 3.565-3.841l2.76-.69v-2.3h-7.912v-1.472h13.041v1.472h-3.381v3.519zm12.242 2.001c.575 0 1.104-.046 1.564-.115-.046-.184-.069-.391-.092-.575 2.116-.46 3.335-1.219 3.335-2.645 0-.828-.414-1.656-1.012-2.185h-5.957v4.255c0 .345-.046.667-.115.943.667.207 1.449.322 2.277.322zm-5.704 1.449l-.046.069c.506.575.966 1.104 1.587 1.909l2.691 3.496-1.403.92-5.934-7.774 1.311-1.035c.391.46 1.012 1.035 2.093 1.035.989 0 1.518-.437 1.518-1.495v-4.094h-5.842v-1.472h24.679v1.472h-2.783v13.294h-1.725v-4.807h-.092c-.414.552-1.495 1.656-3.634 1.656-2.093 0-3.841-1.15-4.692-3.197-.506.092-1.127.161-1.932.161-1.242 0-2.415-.253-3.22-.644-.46.368-1.058.552-1.702.575-.23 0-.621 0-.874-.069zm9.177-1.334c.184 1.242 1.196 2.921 3.496 2.921 2.024 0 3.496-1.357 3.496-3.772v-4.784h-4.83v.092c.575.598.943 1.334.943 2.346 0 1.61-1.334 2.783-3.105 3.197zm16.727 6.785l-1.38 1.035c-1.633-1.242-3.059-3.312-3.059-6.049 0-2.599 1.794-4.186 4.071-4.186h3.542v-3.22h-9.292v-1.472h13.8v1.472h-2.783v13.294h-1.725v-8.51h-3.22c-1.541 0-2.599.943-2.599 2.645 0 2.3 1.196 3.91 2.645 4.991zm13.961-12.42h-2.783v13.294h-1.725v-13.294h-2.783v-1.472h7.291v1.472zm17.147 3.565h.092v-3.565h-12.903v-1.472h17.411v1.472h-2.76v13.294h-1.748v-8.142c-.345-.345-1.058-.759-1.84-.759-1.127 0-1.909.759-1.909 2.323v2.185h-1.679v-2.185c0-1.495-.736-2.231-1.886-2.231-1.104 0-2.07.782-2.07 2.622 0 2.093 1.196 3.887 3.45 5.106l-1.173 1.242c-2.208-1.196-4.071-3.519-4.071-6.394 0-2.714 1.817-4.163 3.703-4.163 1.495 0 2.484.736 2.829 1.84h.092c.345-1.242 1.357-1.932 2.507-1.932.92 0 1.61.368 1.955.759zm1.679-4.945l-1.288.23-.115-.092c-1.127-.92-2.852-2.737-3.749-3.772l-1.886-2.162 1.978-.46 5.06 6.256zm-.161-3.979c0-.782.575-1.334 1.288-1.334.759 0 1.311.552 1.311 1.334 0 .69-.552 1.242-1.311 1.242-.713 0-1.288-.552-1.288-1.242z" fill="#5F6368"/><g fill-rule="nonzero"><path d="M9.367 19c-5.09 0-9.367-4.265-9.367-9.5s4.277-9.5 9.367-9.5c2.818 0 4.822 1.133 6.331 2.622l-1.776 1.827c-1.082-1.041-2.55-1.857-4.555-1.857-3.721 0-6.628 3.082-6.628 6.908 0 3.827 2.907 6.908 6.628 6.908 2.411 0 3.781-1 4.664-1.898.724-.745 1.191-1.806 1.369-3.265h-6.033v-2.602h8.494c.089.459.139 1.02.139 1.622 0 1.949-.516 4.357-2.183 6.071-1.627 1.735-3.691 2.663-6.45 2.663z" id="Shape" fill="#4285F4"/><path d="M32 13c0 3.456-2.69 6-6 6s-6-2.544-6-6c0-3.476 2.69-6 6-6s6 2.524 6 6zm-2.629 0c0-2.164-1.563-3.636-3.371-3.636-1.807 0-3.371 1.482-3.371 3.636 0 2.134 1.563 3.636 3.371 3.636 1.807 0 3.371-1.492 3.371-3.636z" id="Shape" fill="#E94235"/><path d="M45 13c0 3.456-2.69 6-6 6-3.299 0-6-2.544-6-6 0-3.476 2.69-6 6-6s6 2.524 6 6zm-2.619 0c0-2.164-1.563-3.636-3.371-3.636-1.807 0-3.371 1.482-3.371 3.636 0 2.134 1.563 3.636 3.371 3.636 1.807.01 3.371-1.492 3.371-3.636z" id="Shape" fill="#FABB05"/><path d="M57 7.362v10.531c0 4.336-2.499 6.107-5.457 6.107-2.786 0-4.452-1.908-5.084-3.465l2.192-.93c.393.959 1.35 2.085 2.891 2.085 1.896 0 3.064-1.204 3.064-3.445v-.842h-.086c-.565.714-1.656 1.331-3.025 1.331-2.872 0-5.495-2.554-5.495-5.843 0-3.308 2.633-5.892 5.495-5.892 1.369 0 2.46.626 3.025 1.311h.086v-.949h2.393zm-2.221 5.539c0-2.065-1.35-3.582-3.064-3.582-1.742 0-3.198 1.507-3.198 3.582 0 2.045 1.455 3.533 3.198 3.533 1.714 0 3.064-1.488 3.064-3.533z" id="Shape" fill="#4285F4"/><path id="Shape" fill="#34A853" d="M63 1v18h-3v-18z"/><path d="M72.844 14.973l2.046 1.362c-.662.982-2.256 2.664-5.014 2.664-3.419 0-5.876-2.634-5.876-6 0-3.566 2.487-6 5.585-6 3.119 0 4.643 2.474 5.144 3.816l.271.681-8.032 3.326c.612 1.202 1.574 1.823 2.918 1.823s2.276-.671 2.958-1.673zm-6.307-2.164l5.375-2.224c-.301-.751-1.183-1.272-2.236-1.272-1.344 0-3.209 1.182-3.139 3.496z" fill="#E94235"/></g></g></svg>
