<?xml version="1.0" encoding="UTF-8"?>
<svg width="235px" height="28px" viewBox="0 0 235 28" version="1.1" xmlns="http://www.w3.org/2000/svg" xmlns:xlink="http://www.w3.org/1999/xlink">
    <!-- Generator: Sketch 52.3 (67297) - http://www.bohemiancoding.com/sketch -->
    <title>SwG-HI-OB</title>
    <desc>Created with Sketch.</desc>
    <g id="SwG-HI-OB" stroke="none" stroke-width="1" fill="none" fill-rule="evenodd">
        <path d="M99.881,16.169 C99.881,14.743 98.892,13.777 97.466,13.777 C95.833,13.777 94.729,14.95 94.729,16.675 L94.729,23 L93.004,23 L93.004,18.791 L92.912,18.791 C92.475,19.343 91.555,20.102 89.945,20.102 C87.852,20.102 86.035,18.515 86.035,16.169 C86.035,13.386 88.404,11.868 90.888,12.19 L91.164,13.777 C89.508,13.501 87.852,14.214 87.852,16.146 C87.852,17.526 88.818,18.538 90.267,18.538 C91.9,18.538 93.004,17.365 93.004,15.64 L93.004,9.706 L84.494,9.706 L84.494,8.234 L103.216,8.234 L103.216,9.706 L94.729,9.706 L94.729,13.547 L94.821,13.547 C95.258,12.949 96.224,12.213 97.811,12.213 C99.904,12.213 101.675,13.754 101.675,16.146 C101.675,18.929 99.306,20.447 96.845,20.102 L96.569,18.515 C98.225,18.814 99.881,18.078 99.881,16.169 Z M94.591,8.326 L93.303,8.556 L93.188,8.464 C92.061,7.544 90.336,5.727 89.439,4.692 L87.553,2.53 L89.531,2.07 L94.591,8.326 Z M115.9005,14.375 L115.9005,14.237 L116.6595,12.903 L122.6395,12.903 L122.6395,9.706 L109.1155,9.706 L109.1155,8.234 L127.1705,8.234 L127.1705,9.706 L124.3875,9.706 L124.3875,23 L122.6395,23 L122.6395,14.398 L118.6375,14.398 L118.6375,14.49 C119.0515,14.835 119.7415,15.617 119.7415,16.997 C119.7415,18.837 118.3615,20.355 116.1305,20.355 C112.3585,20.355 110.5875,16.491 110.2655,13.731 L111.9675,13.041 C112.0825,15.801 113.5545,18.768 116.0155,18.768 C117.2805,18.768 118.0165,17.963 118.0165,16.859 C118.0165,15.41 116.7745,14.628 115.9005,14.375 Z M111.5305,22.609 C111.5305,21.965 111.9905,21.482 112.6345,21.482 C113.2785,21.482 113.7385,21.965 113.7385,22.609 C113.7385,23.23 113.2785,23.713 112.6345,23.713 C111.9905,23.713 111.5305,23.23 111.5305,22.609 Z M136.62925,16.652 L136.60625,16.721 C137.11225,17.296 137.57225,17.825 138.19325,18.63 L140.86125,22.126 L139.45825,23.069 L133.50125,15.249 L134.81225,14.214 C135.22625,14.697 135.87025,15.295 136.92825,15.295 C137.94025,15.295 138.46925,14.858 138.46925,13.777 L138.46925,9.706 L132.58125,9.706 L132.58125,8.234 L142.83925,8.234 L142.83925,9.706 L140.19425,9.706 L140.19425,13.938 C140.19425,15.847 138.88325,16.698 137.41125,16.744 C137.22725,16.744 136.85925,16.721 136.62925,16.652 Z M139.96425,5.819 L138.65325,6.716 C137.75625,5.152 136.10025,3.289 133.50125,3.289 C131.98325,3.289 130.81025,4.232 130.81025,6.003 L130.81025,8.234 L133.59325,8.234 L133.59325,9.706 L130.81025,9.706 L130.81025,23 L129.08525,23 L129.08525,9.706 L126.30225,9.706 L126.30225,8.234 L129.06225,8.234 L129.06225,5.98 C129.06225,3.381 131.04025,1.725 133.50125,1.725 C136.83625,1.725 139.06725,4.186 139.96425,5.819 Z M151.263,20.677 C152.321,21.62 152.896,22.379 152.896,23.437 C152.896,24.15 152.597,24.863 152.229,25.346 L150.366,25.346 L150.366,25.231 C150.78,24.771 151.148,24.173 151.148,23.506 C151.148,22.931 150.826,22.471 150.297,22.034 L144.455,16.997 L144.455,9.706 L141.971,9.706 L141.971,8.234 L155.587,8.234 L155.587,9.706 L153.011,9.706 L153.011,13.593 C153.011,15.318 152.367,16.33 151.033,16.997 L149.699,15.847 C150.688,15.433 151.286,14.858 151.286,13.57 L151.286,9.706 L146.18,9.706 L146.18,16.284 L151.263,20.677 Z M171.4225,15.226 C172.2505,15.226 173.0325,15.111 173.6075,14.927 L173.6075,9.706 L169.0535,9.706 L169.0535,14.122 C169.0535,14.398 169.0305,14.674 168.9615,14.904 C169.6975,15.111 170.5715,15.226 171.4225,15.226 Z M165.5115,16.859 L165.4655,16.928 C165.9715,17.503 166.4315,18.009 167.0525,18.837 L169.7435,22.333 L168.3405,23.253 L162.4065,15.479 L163.7175,14.444 C164.1085,14.904 164.7295,15.479 165.8105,15.479 C166.7995,15.479 167.3285,15.042 167.3285,13.984 L167.3285,9.706 L161.4865,9.706 L161.4865,8.234 L178.1385,8.234 L178.1385,9.706 L175.3555,9.706 L175.3555,23 L173.6075,23 L173.6075,16.583 C173.0785,16.698 172.4115,16.767 171.4915,16.767 C170.3415,16.767 169.0995,16.537 168.2485,16.215 C167.7425,16.675 167.0295,16.905 166.2705,16.928 C166.0865,16.928 165.7185,16.928 165.5115,16.859 Z M186.93025,13.225 L183.31925,14.099 C181.29525,14.628 180.62825,15.456 180.62825,16.744 C180.62825,18.423 181.98525,19.78 183.89425,19.757 C184.79125,19.757 185.52725,19.527 185.91825,19.182 L185.91825,16.836 L187.18325,16.376 C187.68925,16.629 188.33325,17.273 188.33325,18.262 C188.33325,19.182 187.94225,19.803 187.52825,20.171 L190.08125,23.414 L188.03425,23.92 L186.35525,20.884 C185.73425,21.183 184.92925,21.344 184.12425,21.344 C180.88125,21.344 178.85725,18.975 178.85725,16.537 C178.85725,14.536 180.05325,13.271 182.42225,12.696 L185.18225,12.006 L185.18225,9.706 L177.27025,9.706 L177.27025,8.234 L190.31125,8.234 L190.31125,9.706 L186.93025,9.706 L186.93025,13.225 Z M199.172,15.226 C199.747,15.226 200.276,15.18 200.736,15.111 C200.69,14.927 200.667,14.72 200.644,14.536 C202.76,14.076 203.979,13.317 203.979,11.891 C203.979,11.063 203.565,10.235 202.967,9.706 L197.01,9.706 L197.01,13.961 C197.01,14.306 196.964,14.628 196.895,14.904 C197.562,15.111 198.344,15.226 199.172,15.226 Z M193.468,16.675 L193.422,16.744 C193.928,17.319 194.388,17.848 195.009,18.653 L197.7,22.149 L196.297,23.069 L190.363,15.295 L191.674,14.26 C192.065,14.72 192.686,15.295 193.767,15.295 C194.756,15.295 195.285,14.858 195.285,13.8 L195.285,9.706 L189.443,9.706 L189.443,8.234 L214.122,8.234 L214.122,9.706 L211.339,9.706 L211.339,23 L209.614,23 L209.614,18.193 L209.522,18.193 C209.108,18.745 208.027,19.849 205.888,19.849 C203.795,19.849 202.047,18.699 201.196,16.652 C200.69,16.744 200.069,16.813 199.264,16.813 C198.022,16.813 196.849,16.56 196.044,16.169 C195.584,16.537 194.986,16.721 194.342,16.744 C194.112,16.744 193.721,16.744 193.468,16.675 Z M202.645,15.341 C202.829,16.583 203.841,18.262 206.141,18.262 C208.165,18.262 209.637,16.905 209.637,14.49 L209.637,9.706 L204.807,9.706 L204.807,9.798 C205.382,10.396 205.75,11.132 205.75,12.144 C205.75,13.754 204.416,14.927 202.645,15.341 Z M219.37175,22.126 L217.99175,23.161 C216.35875,21.919 214.93275,19.849 214.93275,17.112 C214.93275,14.513 216.72675,12.926 219.00375,12.926 L222.54575,12.926 L222.54575,9.706 L213.25375,9.706 L213.25375,8.234 L227.05375,8.234 L227.05375,9.706 L224.27075,9.706 L224.27075,23 L222.54575,23 L222.54575,14.49 L219.32575,14.49 C217.78475,14.49 216.72675,15.433 216.72675,17.135 C216.72675,19.435 217.92275,21.045 219.37175,22.126 Z M233.33275,9.706 L230.54975,9.706 L230.54975,23 L228.82475,23 L228.82475,9.706 L226.04175,9.706 L226.04175,8.234 L233.33275,8.234 L233.33275,9.706 Z" id="के-ज़रिए-सदस्यता" fill="#FFFFFF"></path>
        <g id="Group" transform="translate(1.000000, 2.000000)" fill="#FFFFFF" fill-rule="nonzero">
            <path d="M9.36714443,19 C4.27673649,19 0,14.7346939 0,9.5 C0,4.26530612 4.27673649,0 9.36714443,0 C12.185226,0 14.1896362,1.13265306 15.6979052,2.62244898 L13.92172,4.44897959 C12.8401323,3.40816327 11.3715546,2.59183673 9.36714443,2.59183673 C5.646086,2.59183673 2.73869901,5.67346939 2.73869901,9.5 C2.73869901,13.3265306 5.646086,16.4081633 9.36714443,16.4081633 C11.7783903,16.4081633 13.1477398,15.4081633 14.030871,14.5102041 C14.755237,13.7653061 15.2216097,12.7040816 15.4002205,11.244898 L9.36714443,11.244898 L9.36714443,8.64285714 L17.8610805,8.64285714 C17.9503859,9.10204082 18,9.66326531 18,10.2653061 C18,12.2142857 17.4840132,14.622449 15.8169791,16.3367347 C14.1896362,18.0714286 12.1256891,19 9.36714443,19 Z" id="Shape"></path>
            <path d="M32,13 C32,16.4557596 29.3096447,19 26,19 C22.6903553,19 20,16.4557596 20,13 C20,9.52420701 22.6903553,7 26,7 C29.3096447,7 32,9.52420701 32,13 Z M29.3705584,13 C29.3705584,10.836394 27.8071066,9.3639399 26,9.3639399 C24.1928934,9.3639399 22.6294416,10.8464107 22.6294416,13 C22.6294416,15.1335559 24.1928934,16.6360601 26,16.6360601 C27.8071066,16.6360601 29.3705584,15.1435726 29.3705584,13 Z" id="Shape"></path>
            <path d="M45,13 C45,16.4557596 42.3096447,19 39,19 C35.7005076,19 33,16.4557596 33,13 C33,9.52420701 35.6903553,7 39,7 C42.3096447,7 45,9.52420701 45,13 Z M42.3807107,13 C42.3807107,10.836394 40.8172589,9.3639399 39.0101523,9.3639399 C37.2030457,9.3639399 35.6395939,10.8464107 35.6395939,13 C35.6395939,15.1335559 37.2030457,16.6360601 39.0101523,16.6360601 C40.8172589,16.6460768 42.3807107,15.1435726 42.3807107,13 Z" id="Shape"></path>
            <path d="M57,7.3621186 L57,17.8929188 C57,22.228555 54.5013055,24 51.5430809,24 C48.7571802,24 47.0913838,22.0915371 46.45953,20.5354059 L48.6518712,19.6056419 C49.0443864,20.5647668 50.0017406,21.6902706 51.5430809,21.6902706 C53.4386423,21.6902706 54.6066144,20.4864709 54.6066144,18.2452504 L54.6066144,17.4035694 L54.5204526,17.4035694 C53.9556136,18.1180196 52.8642298,18.7345999 51.4952132,18.7345999 C48.6231506,18.7345999 46,16.1801957 46,12.8917674 C46,9.58376511 48.6327241,7 51.4952132,7 C52.8642298,7 53.9556136,7.6263673 54.5204526,8.31145653 L54.6066144,8.31145653 L54.6066144,7.3621186 L57,7.3621186 Z M54.7789382,12.9015544 C54.7789382,10.8364997 53.4290688,9.31951641 51.7154047,9.31951641 C49.97302,9.31951641 48.5178416,10.8267127 48.5178416,12.9015544 C48.5178416,14.9470351 49.97302,16.4346575 51.7154047,16.4346575 C53.4290688,16.4346575 54.7789382,14.9470351 54.7789382,12.9015544 Z" id="Shape"></path>
            <polygon id="Shape" points="63 1 63 19 60 19 60 1"></polygon>
            <path d="M72.8441203,14.9732888 L74.8896992,16.3355593 C74.2278943,17.3171953 72.633546,19 69.8760255,19 C66.4567001,19 64,16.3656093 64,13 C64,9.43405676 66.4867821,7 69.5852325,7 C72.7037375,7 74.2278943,9.47412354 74.7292616,10.8163606 L75,11.4974958 L66.9680948,14.8230384 C67.579763,16.0250417 68.5423883,16.6460768 69.8860529,16.6460768 C71.2297174,16.6460768 72.1622607,15.9749583 72.8441203,14.9732888 Z M66.5369189,12.8096828 L71.911577,10.5859766 C71.6107566,9.83472454 70.72835,9.31385643 69.6754786,9.31385643 C68.331814,9.31385643 66.4667274,10.4958264 66.5369189,12.8096828 Z" id="Shape"></path>
        </g>
    </g>
</svg>
