<?xml version="1.0" encoding="UTF-8"?>
<svg width="235px" height="27px" viewBox="0 0 235 27" version="1.1" xmlns="http://www.w3.org/2000/svg" xmlns:xlink="http://www.w3.org/1999/xlink">
    <!-- Generator: Sketch 52.2 (67145) - http://www.bohemiancoding.com/sketch -->
    <title>SwG-HI-OW</title>
    <desc>Created with Sketch.</desc>
    <g id="SwG-HI-OW" stroke="none" stroke-width="1" fill="none" fill-rule="evenodd">
        <path d="M100.881,15.169 C100.881,13.743 99.892,12.777 98.466,12.777 C96.833,12.777 95.729,13.95 95.729,15.675 L95.729,22 L94.004,22 L94.004,17.791 L93.912,17.791 C93.475,18.343 92.555,19.102 90.945,19.102 C88.852,19.102 87.035,17.515 87.035,15.169 C87.035,12.386 89.404,10.868 91.888,11.19 L92.164,12.777 C90.508,12.501 88.852,13.214 88.852,15.146 C88.852,16.526 89.818,17.538 91.267,17.538 C92.9,17.538 94.004,16.365 94.004,14.64 L94.004,8.706 L85.494,8.706 L85.494,7.234 L104.216,7.234 L104.216,8.706 L95.729,8.706 L95.729,12.547 L95.821,12.547 C96.258,11.949 97.224,11.213 98.811,11.213 C100.904,11.213 102.675,12.754 102.675,15.146 C102.675,17.929 100.306,19.447 97.845,19.102 L97.569,17.515 C99.225,17.814 100.881,17.078 100.881,15.169 Z M95.591,7.326 L94.303,7.556 L94.188,7.464 C93.061,6.544 91.336,4.727 90.439,3.692 L88.553,1.53 L90.531,1.07 L95.591,7.326 Z M116.9005,13.375 L116.9005,13.237 L117.6595,11.903 L123.6395,11.903 L123.6395,8.706 L110.1155,8.706 L110.1155,7.234 L128.1705,7.234 L128.1705,8.706 L125.3875,8.706 L125.3875,22 L123.6395,22 L123.6395,13.398 L119.6375,13.398 L119.6375,13.49 C120.0515,13.835 120.7415,14.617 120.7415,15.997 C120.7415,17.837 119.3615,19.355 117.1305,19.355 C113.3585,19.355 111.5875,15.491 111.2655,12.731 L112.9675,12.041 C113.0825,14.801 114.5545,17.768 117.0155,17.768 C118.2805,17.768 119.0165,16.963 119.0165,15.859 C119.0165,14.41 117.7745,13.628 116.9005,13.375 Z M112.5305,21.609 C112.5305,20.965 112.9905,20.482 113.6345,20.482 C114.2785,20.482 114.7385,20.965 114.7385,21.609 C114.7385,22.23 114.2785,22.713 113.6345,22.713 C112.9905,22.713 112.5305,22.23 112.5305,21.609 Z M137.62925,15.652 L137.60625,15.721 C138.11225,16.296 138.57225,16.825 139.19325,17.63 L141.86125,21.126 L140.45825,22.069 L134.50125,14.249 L135.81225,13.214 C136.22625,13.697 136.87025,14.295 137.92825,14.295 C138.94025,14.295 139.46925,13.858 139.46925,12.777 L139.46925,8.706 L133.58125,8.706 L133.58125,7.234 L143.83925,7.234 L143.83925,8.706 L141.19425,8.706 L141.19425,12.938 C141.19425,14.847 139.88325,15.698 138.41125,15.744 C138.22725,15.744 137.85925,15.721 137.62925,15.652 Z M140.96425,4.819 L139.65325,5.716 C138.75625,4.152 137.10025,2.289 134.50125,2.289 C132.98325,2.289 131.81025,3.232 131.81025,5.003 L131.81025,7.234 L134.59325,7.234 L134.59325,8.706 L131.81025,8.706 L131.81025,22 L130.08525,22 L130.08525,8.706 L127.30225,8.706 L127.30225,7.234 L130.06225,7.234 L130.06225,4.98 C130.06225,2.381 132.04025,0.725 134.50125,0.725 C137.83625,0.725 140.06725,3.186 140.96425,4.819 Z M152.263,19.677 C153.321,20.62 153.896,21.379 153.896,22.437 C153.896,23.15 153.597,23.863 153.229,24.346 L151.366,24.346 L151.366,24.231 C151.78,23.771 152.148,23.173 152.148,22.506 C152.148,21.931 151.826,21.471 151.297,21.034 L145.455,15.997 L145.455,8.706 L142.971,8.706 L142.971,7.234 L156.587,7.234 L156.587,8.706 L154.011,8.706 L154.011,12.593 C154.011,14.318 153.367,15.33 152.033,15.997 L150.699,14.847 C151.688,14.433 152.286,13.858 152.286,12.57 L152.286,8.706 L147.18,8.706 L147.18,15.284 L152.263,19.677 Z M172.4225,14.226 C173.2505,14.226 174.0325,14.111 174.6075,13.927 L174.6075,8.706 L170.0535,8.706 L170.0535,13.122 C170.0535,13.398 170.0305,13.674 169.9615,13.904 C170.6975,14.111 171.5715,14.226 172.4225,14.226 Z M166.5115,15.859 L166.4655,15.928 C166.9715,16.503 167.4315,17.009 168.0525,17.837 L170.7435,21.333 L169.3405,22.253 L163.4065,14.479 L164.7175,13.444 C165.1085,13.904 165.7295,14.479 166.8105,14.479 C167.7995,14.479 168.3285,14.042 168.3285,12.984 L168.3285,8.706 L162.4865,8.706 L162.4865,7.234 L179.1385,7.234 L179.1385,8.706 L176.3555,8.706 L176.3555,22 L174.6075,22 L174.6075,15.583 C174.0785,15.698 173.4115,15.767 172.4915,15.767 C171.3415,15.767 170.0995,15.537 169.2485,15.215 C168.7425,15.675 168.0295,15.905 167.2705,15.928 C167.0865,15.928 166.7185,15.928 166.5115,15.859 Z M187.93025,12.225 L184.31925,13.099 C182.29525,13.628 181.62825,14.456 181.62825,15.744 C181.62825,17.423 182.98525,18.78 184.89425,18.757 C185.79125,18.757 186.52725,18.527 186.91825,18.182 L186.91825,15.836 L188.18325,15.376 C188.68925,15.629 189.33325,16.273 189.33325,17.262 C189.33325,18.182 188.94225,18.803 188.52825,19.171 L191.08125,22.414 L189.03425,22.92 L187.35525,19.884 C186.73425,20.183 185.92925,20.344 185.12425,20.344 C181.88125,20.344 179.85725,17.975 179.85725,15.537 C179.85725,13.536 181.05325,12.271 183.42225,11.696 L186.18225,11.006 L186.18225,8.706 L178.27025,8.706 L178.27025,7.234 L191.31125,7.234 L191.31125,8.706 L187.93025,8.706 L187.93025,12.225 Z M200.172,14.226 C200.747,14.226 201.276,14.18 201.736,14.111 C201.69,13.927 201.667,13.72 201.644,13.536 C203.76,13.076 204.979,12.317 204.979,10.891 C204.979,10.063 204.565,9.235 203.967,8.706 L198.01,8.706 L198.01,12.961 C198.01,13.306 197.964,13.628 197.895,13.904 C198.562,14.111 199.344,14.226 200.172,14.226 Z M194.468,15.675 L194.422,15.744 C194.928,16.319 195.388,16.848 196.009,17.653 L198.7,21.149 L197.297,22.069 L191.363,14.295 L192.674,13.26 C193.065,13.72 193.686,14.295 194.767,14.295 C195.756,14.295 196.285,13.858 196.285,12.8 L196.285,8.706 L190.443,8.706 L190.443,7.234 L215.122,7.234 L215.122,8.706 L212.339,8.706 L212.339,22 L210.614,22 L210.614,17.193 L210.522,17.193 C210.108,17.745 209.027,18.849 206.888,18.849 C204.795,18.849 203.047,17.699 202.196,15.652 C201.69,15.744 201.069,15.813 200.264,15.813 C199.022,15.813 197.849,15.56 197.044,15.169 C196.584,15.537 195.986,15.721 195.342,15.744 C195.112,15.744 194.721,15.744 194.468,15.675 Z M203.645,14.341 C203.829,15.583 204.841,17.262 207.141,17.262 C209.165,17.262 210.637,15.905 210.637,13.49 L210.637,8.706 L205.807,8.706 L205.807,8.798 C206.382,9.396 206.75,10.132 206.75,11.144 C206.75,12.754 205.416,13.927 203.645,14.341 Z M220.37175,21.126 L218.99175,22.161 C217.35875,20.919 215.93275,18.849 215.93275,16.112 C215.93275,13.513 217.72675,11.926 220.00375,11.926 L223.54575,11.926 L223.54575,8.706 L214.25375,8.706 L214.25375,7.234 L228.05375,7.234 L228.05375,8.706 L225.27075,8.706 L225.27075,22 L223.54575,22 L223.54575,13.49 L220.32575,13.49 C218.78475,13.49 217.72675,14.433 217.72675,16.135 C217.72675,18.435 218.92275,20.045 220.37175,21.126 Z M234.33275,8.706 L231.54975,8.706 L231.54975,22 L229.82475,22 L229.82475,8.706 L227.04175,8.706 L227.04175,7.234 L234.33275,7.234 L234.33275,8.706 Z" id="के-ज़रिए-सदस्यता" fill="#5F6368"></path>
        <g id="Group" transform="translate(1.000000, 3.000000)" fill-rule="nonzero">
            <path d="M9.36714443,19 C4.27673649,19 0,14.7346939 0,9.5 C0,4.26530612 4.27673649,0 9.36714443,0 C12.185226,0 14.1896362,1.13265306 15.6979052,2.62244898 L13.92172,4.44897959 C12.8401323,3.40816327 11.3715546,2.59183673 9.36714443,2.59183673 C5.646086,2.59183673 2.73869901,5.67346939 2.73869901,9.5 C2.73869901,13.3265306 5.646086,16.4081633 9.36714443,16.4081633 C11.7783903,16.4081633 13.1477398,15.4081633 14.030871,14.5102041 C14.755237,13.7653061 15.2216097,12.7040816 15.4002205,11.244898 L9.36714443,11.244898 L9.36714443,8.64285714 L17.8610805,8.64285714 C17.9503859,9.10204082 18,9.66326531 18,10.2653061 C18,12.2142857 17.4840132,14.622449 15.8169791,16.3367347 C14.1896362,18.0714286 12.1256891,19 9.36714443,19 Z" id="Shape" fill="#4285F4"></path>
            <path d="M32,13 C32,16.4557596 29.3096447,19 26,19 C22.6903553,19 20,16.4557596 20,13 C20,9.52420701 22.6903553,7 26,7 C29.3096447,7 32,9.52420701 32,13 Z M29.3705584,13 C29.3705584,10.836394 27.8071066,9.3639399 26,9.3639399 C24.1928934,9.3639399 22.6294416,10.8464107 22.6294416,13 C22.6294416,15.1335559 24.1928934,16.6360601 26,16.6360601 C27.8071066,16.6360601 29.3705584,15.1435726 29.3705584,13 Z" id="Shape" fill="#E94235"></path>
            <path d="M45,13 C45,16.4557596 42.3096447,19 39,19 C35.7005076,19 33,16.4557596 33,13 C33,9.52420701 35.6903553,7 39,7 C42.3096447,7 45,9.52420701 45,13 Z M42.3807107,13 C42.3807107,10.836394 40.8172589,9.3639399 39.0101523,9.3639399 C37.2030457,9.3639399 35.6395939,10.8464107 35.6395939,13 C35.6395939,15.1335559 37.2030457,16.6360601 39.0101523,16.6360601 C40.8172589,16.6460768 42.3807107,15.1435726 42.3807107,13 Z" id="Shape" fill="#FABB05"></path>
            <path d="M57,7.3621186 L57,17.8929188 C57,22.228555 54.5013055,24 51.5430809,24 C48.7571802,24 47.0913838,22.0915371 46.45953,20.5354059 L48.6518712,19.6056419 C49.0443864,20.5647668 50.0017406,21.6902706 51.5430809,21.6902706 C53.4386423,21.6902706 54.6066144,20.4864709 54.6066144,18.2452504 L54.6066144,17.4035694 L54.5204526,17.4035694 C53.9556136,18.1180196 52.8642298,18.7345999 51.4952132,18.7345999 C48.6231506,18.7345999 46,16.1801957 46,12.8917674 C46,9.58376511 48.6327241,7 51.4952132,7 C52.8642298,7 53.9556136,7.6263673 54.5204526,8.31145653 L54.6066144,8.31145653 L54.6066144,7.3621186 L57,7.3621186 Z M54.7789382,12.9015544 C54.7789382,10.8364997 53.4290688,9.31951641 51.7154047,9.31951641 C49.97302,9.31951641 48.5178416,10.8267127 48.5178416,12.9015544 C48.5178416,14.9470351 49.97302,16.4346575 51.7154047,16.4346575 C53.4290688,16.4346575 54.7789382,14.9470351 54.7789382,12.9015544 Z" id="Shape" fill="#4285F4"></path>
            <polygon id="Shape" fill="#34A853" points="63 1 63 19 60 19 60 1"></polygon>
            <path d="M72.8441203,14.9732888 L74.8896992,16.3355593 C74.2278943,17.3171953 72.633546,19 69.8760255,19 C66.4567001,19 64,16.3656093 64,13 C64,9.43405676 66.4867821,7 69.5852325,7 C72.7037375,7 74.2278943,9.47412354 74.7292616,10.8163606 L75,11.4974958 L66.9680948,14.8230384 C67.579763,16.0250417 68.5423883,16.6460768 69.8860529,16.6460768 C71.2297174,16.6460768 72.1622607,15.9749583 72.8441203,14.9732888 Z M66.5369189,12.8096828 L71.911577,10.5859766 C71.6107566,9.83472454 70.72835,9.31385643 69.6754786,9.31385643 C68.331814,9.31385643 66.4667274,10.4958264 66.5369189,12.8096828 Z" id="Shape" fill="#E94235"></path>
        </g>
    </g>
</svg>
