<?xml version="1.0" encoding="UTF-8"?>
<svg width="229px" height="27px" viewBox="0 0 229 27" version="1.1" xmlns="http://www.w3.org/2000/svg" xmlns:xlink="http://www.w3.org/1999/xlink">
    <!-- Generator: Sketch 51.3 (57544) - http://www.bohemiancoding.com/sketch -->
    <title>SwG-HI-WOB</title>
    <desc>Created with Sketch.</desc>
    <defs></defs>
    <g id="SwG-HI-WOB" stroke="none" stroke-width="1" fill="none" fill-rule="evenodd">
        <path d="M15.2067499,15.169 C15.2067499,13.743 14.2177499,12.777 12.7917499,12.777 C11.1587499,12.777 10.0547499,13.95 10.0547499,15.675 L10.0547499,22 L8.32974994,22 L8.32974994,17.791 L8.23774994,17.791 C7.80074994,18.343 6.88074994,19.102 5.27074994,19.102 C3.17774994,19.102 1.36074994,17.515 1.36074994,15.169 C1.36074994,12.386 3.72974994,10.868 6.21374994,11.19 L6.48974994,12.777 C4.83374994,12.501 3.17774994,13.214 3.17774994,15.146 C3.17774994,16.526 4.14374994,17.538 5.59274994,17.538 C7.22574994,17.538 8.32974994,16.365 8.32974994,14.64 L8.32974994,8.706 L-0.18025006,8.706 L-0.18025006,7.234 L18.5417499,7.234 L18.5417499,8.706 L10.0547499,8.706 L10.0547499,12.547 L10.1467499,12.547 C10.5837499,11.949 11.5497499,11.213 13.1367499,11.213 C15.2297499,11.213 17.0007499,12.754 17.0007499,15.146 C17.0007499,17.929 14.6317499,19.447 12.1707499,19.102 L11.8947499,17.515 C13.5507499,17.814 15.2067499,17.078 15.2067499,15.169 Z M24.8207499,8.706 L22.0377499,8.706 L22.0377499,22 L20.3127499,22 L20.3127499,8.706 L17.5297499,8.706 L17.5297499,7.234 L20.1057499,7.234 C19.1857499,5.118 16.4027499,2.197 12.1707499,2.197 C10.3537499,2.197 9.45674994,3.048 9.45674994,4.129 C9.45674994,4.888 9.91674994,5.486 10.3537499,5.808 L8.69774994,6.314 C8.26074994,5.969 7.66274994,5.256 7.66274994,4.06 C7.66274994,2.243 9.31874994,0.679 12.1247499,0.679 C17.1387499,0.679 20.6807499,4.014 21.9227499,7.234 L24.8207499,7.234 L24.8207499,8.706 Z M39.09225,14.226 C39.92025,14.226 40.70225,14.111 41.27725,13.927 L41.27725,8.706 L36.72325,8.706 L36.72325,13.122 C36.72325,13.398 36.70025,13.674 36.63125,13.904 C37.36725,14.111 38.24125,14.226 39.09225,14.226 Z M33.18125,15.859 L33.13525,15.928 C33.64125,16.503 34.10125,17.009 34.72225,17.837 L37.41325,21.333 L36.01025,22.253 L30.07625,14.479 L31.38725,13.444 C31.77825,13.904 32.39925,14.479 33.48025,14.479 C34.46925,14.479 34.99825,14.042 34.99825,12.984 L34.99825,8.706 L29.15625,8.706 L29.15625,7.234 L45.80825,7.234 L45.80825,8.706 L43.02525,8.706 L43.02525,22 L41.27725,22 L41.27725,15.583 C40.74825,15.698 40.08125,15.767 39.16125,15.767 C38.01125,15.767 36.76925,15.537 35.91825,15.215 C35.41225,15.675 34.69925,15.905 33.94025,15.928 C33.75625,15.928 33.38825,15.928 33.18125,15.859 Z M54.6,12.225 L50.989,13.099 C48.965,13.628 48.298,14.456 48.298,15.744 C48.298,17.423 49.655,18.78 51.564,18.757 C52.461,18.757 53.197,18.527 53.588,18.182 L53.588,15.836 L54.853,15.376 C55.359,15.629 56.003,16.273 56.003,17.262 C56.003,18.182 55.612,18.803 55.198,19.171 L57.751,22.414 L55.704,22.92 L54.025,19.884 C53.404,20.183 52.599,20.344 51.794,20.344 C48.551,20.344 46.527,17.975 46.527,15.537 C46.527,13.536 47.723,12.271 50.092,11.696 L52.852,11.006 L52.852,8.706 L44.94,8.706 L44.94,7.234 L57.981,7.234 L57.981,8.706 L54.6,8.706 L54.6,12.225 Z M66.84175,14.226 C67.41675,14.226 67.94575,14.18 68.40575,14.111 C68.35975,13.927 68.33675,13.72 68.31375,13.536 C70.42975,13.076 71.64875,12.317 71.64875,10.891 C71.64875,10.063 71.23475,9.235 70.63675,8.706 L64.67975,8.706 L64.67975,12.961 C64.67975,13.306 64.63375,13.628 64.56475,13.904 C65.23175,14.111 66.01375,14.226 66.84175,14.226 Z M61.13775,15.675 L61.09175,15.744 C61.59775,16.319 62.05775,16.848 62.67875,17.653 L65.36975,21.149 L63.96675,22.069 L58.03275,14.295 L59.34375,13.26 C59.73475,13.72 60.35575,14.295 61.43675,14.295 C62.42575,14.295 62.95475,13.858 62.95475,12.8 L62.95475,8.706 L57.11275,8.706 L57.11275,7.234 L81.79175,7.234 L81.79175,8.706 L79.00875,8.706 L79.00875,22 L77.28375,22 L77.28375,17.193 L77.19175,17.193 C76.77775,17.745 75.69675,18.849 73.55775,18.849 C71.46475,18.849 69.71675,17.699 68.86575,15.652 C68.35975,15.744 67.73875,15.813 66.93375,15.813 C65.69175,15.813 64.51875,15.56 63.71375,15.169 C63.25375,15.537 62.65575,15.721 62.01175,15.744 C61.78175,15.744 61.39075,15.744 61.13775,15.675 Z M70.31475,14.341 C70.49875,15.583 71.51075,17.262 73.81075,17.262 C75.83475,17.262 77.30675,15.905 77.30675,13.49 L77.30675,8.706 L72.47675,8.706 L72.47675,8.798 C73.05175,9.396 73.41975,10.132 73.41975,11.144 C73.41975,12.754 72.08575,13.927 70.31475,14.341 Z M87.0415,21.126 L85.6615,22.161 C84.0285,20.919 82.6025,18.849 82.6025,16.112 C82.6025,13.513 84.3965,11.926 86.6735,11.926 L90.2155,11.926 L90.2155,8.706 L80.9235,8.706 L80.9235,7.234 L94.7235,7.234 L94.7235,8.706 L91.9405,8.706 L91.9405,22 L90.2155,22 L90.2155,13.49 L86.9955,13.49 C85.4545,13.49 84.3965,14.433 84.3965,16.135 C84.3965,18.435 85.5925,20.045 87.0415,21.126 Z M101.0025,8.706 L98.2195,8.706 L98.2195,22 L96.4945,22 L96.4945,8.706 L93.7115,8.706 L93.7115,7.234 L101.0025,7.234 L101.0025,8.706 Z M118.149,12.271 L118.241,12.271 L118.241,8.706 L105.338,8.706 L105.338,7.234 L122.749,7.234 L122.749,8.706 L119.989,8.706 L119.989,22 L118.241,22 L118.241,13.858 C117.896,13.513 117.183,13.099 116.401,13.099 C115.274,13.099 114.492,13.858 114.492,15.422 L114.492,17.607 L112.813,17.607 L112.813,15.422 C112.813,13.927 112.077,13.191 110.927,13.191 C109.823,13.191 108.857,13.973 108.857,15.813 C108.857,17.906 110.053,19.7 112.307,20.919 L111.134,22.161 C108.926,20.965 107.063,18.642 107.063,15.767 C107.063,13.053 108.88,11.604 110.766,11.604 C112.261,11.604 113.25,12.34 113.595,13.444 L113.687,13.444 C114.032,12.202 115.044,11.512 116.194,11.512 C117.114,11.512 117.804,11.88 118.149,12.271 Z M129.028,8.706 L126.245,8.706 L126.245,22 L124.52,22 L124.52,8.706 L121.737,8.706 L121.737,7.234 L124.52,7.234 C124.382,4.635 122.933,2.243 120.679,2.243 C119.552,2.243 118.862,2.933 118.862,3.899 C118.862,4.451 119.069,5.049 119.552,5.509 L117.804,5.877 C117.367,5.417 117.068,4.681 117.068,3.853 C117.068,2.128 118.471,0.725 120.633,0.725 C123.692,0.725 125.923,3.301 126.222,7.234 L129.028,7.234 L129.028,8.706 Z M143.2995,20.712 L141.7815,19.838 C142.3565,19.378 142.7015,18.826 142.7015,18.205 C142.7015,17.354 142.0345,16.664 140.6775,16.664 C138.7455,16.664 137.5035,17.699 137.5035,19.056 C137.5035,20.735 139.0445,22.161 143.7135,22.414 L142.9775,23.909 C138.5155,23.587 135.7325,21.908 135.7325,19.01 C135.7325,17.929 136.2615,16.917 137.2045,16.204 C136.2845,15.629 135.5255,14.594 135.5255,13.329 C135.5255,11.972 136.5145,10.983 138.3085,10.983 L141.9195,10.983 L141.9195,8.706 L133.3635,8.706 L133.3635,7.234 L146.0365,7.234 L146.0365,8.706 L143.5985,8.706 L143.5985,12.478 L138.6995,12.478 C137.6185,12.478 137.2735,12.961 137.2735,13.559 C137.2735,14.295 137.8255,15.031 138.5845,15.468 C139.1825,15.238 139.8725,15.123 140.6315,15.123 C143.1845,15.123 144.4035,16.641 144.4035,18.274 C144.4035,19.355 143.8745,20.183 143.2995,20.712 Z M136.7905,4.037 L138.5385,3.209 L142.5405,7.372 L142.7245,7.303 L140.0335,1.76 L141.8735,1.507 L143.7135,7.464 L142.4255,8.154 C140.8385,7.165 139.0445,5.762 136.7905,4.037 Z" id="की-सदस्यता-ली-है" fill="#FFFFFF"></path>
        <g id="Group" transform="translate(154.000000, 3.000000)" fill="#FFFFFF" fill-rule="nonzero">
            <path d="M9.36714443,19 C4.27673649,19 0,14.7346939 0,9.5 C0,4.26530612 4.27673649,0 9.36714443,0 C12.185226,0 14.1896362,1.13265306 15.6979052,2.62244898 L13.92172,4.44897959 C12.8401323,3.40816327 11.3715546,2.59183673 9.36714443,2.59183673 C5.646086,2.59183673 2.73869901,5.67346939 2.73869901,9.5 C2.73869901,13.3265306 5.646086,16.4081633 9.36714443,16.4081633 C11.7783903,16.4081633 13.1477398,15.4081633 14.030871,14.5102041 C14.755237,13.7653061 15.2216097,12.7040816 15.4002205,11.244898 L9.36714443,11.244898 L9.36714443,8.64285714 L17.8610805,8.64285714 C17.9503859,9.10204082 18,9.66326531 18,10.2653061 C18,12.2142857 17.4840132,14.622449 15.8169791,16.3367347 C14.1896362,18.0714286 12.1256891,19 9.36714443,19 Z" id="Shape"></path>
            <path d="M32,13 C32,16.4557596 29.3096447,19 26,19 C22.6903553,19 20,16.4557596 20,13 C20,9.52420701 22.6903553,7 26,7 C29.3096447,7 32,9.52420701 32,13 Z M29.3705584,13 C29.3705584,10.836394 27.8071066,9.3639399 26,9.3639399 C24.1928934,9.3639399 22.6294416,10.8464107 22.6294416,13 C22.6294416,15.1335559 24.1928934,16.6360601 26,16.6360601 C27.8071066,16.6360601 29.3705584,15.1435726 29.3705584,13 Z" id="Shape"></path>
            <path d="M45,13 C45,16.4557596 42.3096447,19 39,19 C35.7005076,19 33,16.4557596 33,13 C33,9.52420701 35.6903553,7 39,7 C42.3096447,7 45,9.52420701 45,13 Z M42.3807107,13 C42.3807107,10.836394 40.8172589,9.3639399 39.0101523,9.3639399 C37.2030457,9.3639399 35.6395939,10.8464107 35.6395939,13 C35.6395939,15.1335559 37.2030457,16.6360601 39.0101523,16.6360601 C40.8172589,16.6460768 42.3807107,15.1435726 42.3807107,13 Z" id="Shape"></path>
            <path d="M57,7.3621186 L57,17.8929188 C57,22.228555 54.5013055,24 51.5430809,24 C48.7571802,24 47.0913838,22.0915371 46.45953,20.5354059 L48.6518712,19.6056419 C49.0443864,20.5647668 50.0017406,21.6902706 51.5430809,21.6902706 C53.4386423,21.6902706 54.6066144,20.4864709 54.6066144,18.2452504 L54.6066144,17.4035694 L54.5204526,17.4035694 C53.9556136,18.1180196 52.8642298,18.7345999 51.4952132,18.7345999 C48.6231506,18.7345999 46,16.1801957 46,12.8917674 C46,9.58376511 48.6327241,7 51.4952132,7 C52.8642298,7 53.9556136,7.6263673 54.5204526,8.31145653 L54.6066144,8.31145653 L54.6066144,7.3621186 L57,7.3621186 Z M54.7789382,12.9015544 C54.7789382,10.8364997 53.4290688,9.31951641 51.7154047,9.31951641 C49.97302,9.31951641 48.5178416,10.8267127 48.5178416,12.9015544 C48.5178416,14.9470351 49.97302,16.4346575 51.7154047,16.4346575 C53.4290688,16.4346575 54.7789382,14.9470351 54.7789382,12.9015544 Z" id="Shape"></path>
            <polygon id="Shape" points="63 1 63 19 60 19 60 1"></polygon>
            <path d="M72.8441203,14.9732888 L74.8896992,16.3355593 C74.2278943,17.3171953 72.633546,19 69.8760255,19 C66.4567001,19 64,16.3656093 64,13 C64,9.43405676 66.4867821,7 69.5852325,7 C72.7037375,7 74.2278943,9.47412354 74.7292616,10.8163606 L75,11.4974958 L66.9680948,14.8230384 C67.579763,16.0250417 68.5423883,16.6460768 69.8860529,16.6460768 C71.2297174,16.6460768 72.1622607,15.9749583 72.8441203,14.9732888 Z M66.5369189,12.8096828 L71.911577,10.5859766 C71.6107566,9.83472454 70.72835,9.31385643 69.6754786,9.31385643 C68.331814,9.31385643 66.4667274,10.4958264 66.5369189,12.8096828 Z" id="Shape"></path>
        </g>
    </g>
</svg>