<?xml version="1.0" encoding="UTF-8"?>
<svg width="357px" height="24px" viewBox="0 0 357 24" version="1.1" xmlns="http://www.w3.org/2000/svg" xmlns:xlink="http://www.w3.org/1999/xlink">
    <!-- Generator: Sketch 51.3 (57544) - http://www.bohemiancoding.com/sketch -->
    <title>SwG-ID-WOB</title>
    <desc>Created with Sketch.</desc>
    <defs></defs>
    <g id="SwG-ID-WOB" stroke="none" stroke-width="1" fill="none" fill-rule="evenodd">
        <path d="M6.43712485,19.184 C5.25645228,19.184 4.35562796,18.8696698 3.73462485,18.241 C3.11362175,17.6123302 2.80312485,16.7230057 2.80312485,15.573 L2.80312485,9.662 L0.825124851,9.662 L0.825124851,7.73 L2.80312485,7.73 L2.80312485,4.28 L4.91912485,4.28 L4.91912485,7.73 L7.67912485,7.73 L7.67912485,9.662 L4.91912485,9.662 L4.91912485,15.412 C4.91912485,16.6386728 5.42511979,17.252 6.43712485,17.252 C6.8204601,17.252 7.14245688,17.1906673 7.40312485,17.068 L8.13912485,18.885 C7.67912255,19.0843343 7.11179489,19.184 6.43712485,19.184 Z M14.8378749,19.368 C13.1358664,19.368 11.7520469,18.8006723 10.6863749,17.666 C9.62070287,16.5313277 9.08787486,15.0976753 9.08787486,13.365 C9.08787486,11.7243251 9.60536969,10.3136726 10.6403749,9.133 C11.67538,7.95232743 12.9978668,7.362 14.6078749,7.362 C16.2792166,7.362 17.6170365,7.90632789 18.6213749,8.995 C19.6257132,10.0836721 20.1278749,11.5403242 20.1278749,13.365 L20.1048749,13.756 L11.2038749,13.756 C11.2652085,14.8906723 11.6447047,15.7876634 12.3423749,16.447 C13.040045,17.1063366 13.8565369,17.436 14.7918749,17.436 C16.3098825,17.436 17.3372055,16.7920064 17.8738749,15.504 L19.7598749,16.286 C19.391873,17.1600044 18.7862124,17.8921637 17.9428749,18.4825 C17.0995373,19.0728363 16.0645477,19.368 14.8378749,19.368 Z M17.8738749,12.008 C17.8278746,11.3639968 17.5327109,10.7506696 16.9883749,10.168 C16.4440388,9.58533042 15.6352136,9.294 14.5618749,9.294 C13.779871,9.294 13.1013777,9.53933088 12.5263749,10.03 C11.951372,10.5206691 11.5565426,11.1799959 11.3418749,12.008 L17.8738749,12.008 Z M24.3196249,19 L22.2036249,19 L22.2036249,2.532 L24.3196249,2.532 L24.3196249,19 Z M30.4893749,19.368 C29.2933689,19.368 28.2928789,19.0230035 27.4878749,18.333 C26.6828709,17.6429965 26.2803749,16.7306723 26.2803749,15.596 C26.2803749,14.3693272 26.7557035,13.4071702 27.7063749,12.7095 C28.6570463,12.0118298 29.8300346,11.663 31.2253749,11.663 C32.4673811,11.663 33.4870376,11.8929977 34.2843749,12.353 L34.2843749,12.031 C34.2843749,11.2029959 34.0007111,10.5398358 33.4333749,10.0415 C32.8660387,9.54316418 32.168379,9.294 31.3403749,9.294 C30.7270385,9.294 30.1712107,9.43966521 29.6728749,9.731 C29.1745391,10.0223348 28.8333758,10.4209975 28.6493749,10.927 L26.7173749,10.099 C26.9780429,9.42432996 27.4917044,8.79950287 28.2583749,8.2245 C29.0250454,7.64949712 30.0370353,7.362 31.2943749,7.362 C32.7357154,7.362 33.9317035,7.78366245 34.8823749,8.627 C35.8330463,9.47033755 36.3083749,10.658659 36.3083749,12.192 L36.3083749,19 L34.2843749,19 L34.2843749,17.436 L34.1923749,17.436 C33.3490373,18.7240064 32.1147163,19.368 30.4893749,19.368 Z M30.8343749,17.436 C31.7083793,17.436 32.5018713,17.1101699 33.2148749,16.4585 C33.9278785,15.8068301 34.2843749,15.0363378 34.2843749,14.147 C33.6863719,13.6563309 32.7893809,13.411 31.5933749,13.411 C30.5660364,13.411 29.7917108,13.6333311 29.2703749,14.078 C28.7490389,14.5226689 28.4883749,15.043997 28.4883749,15.642 C28.4883749,16.1940028 28.7260392,16.6309984 29.2013749,16.953 C29.6767106,17.2750016 30.2210385,17.436 30.8343749,17.436 Z M40.9601249,2.532 L40.9601249,7.73 L40.8681249,9.294 L40.9601249,9.294 C41.2667931,8.75733065 41.7497883,8.30116854 42.4091249,7.9255 C43.0684615,7.54983145 43.7737878,7.362 44.5251249,7.362 C45.9204652,7.362 46.9861212,7.79132904 47.7221249,8.65 C48.4581286,9.50867096 48.8261249,10.6586595 48.8261249,12.1 L48.8261249,19 L46.7101249,19 L46.7101249,12.422 C46.7101249,10.3366562 45.7824675,9.294 43.9271249,9.294 C43.0531205,9.294 42.3401277,9.64282985 41.7881249,10.3405 C41.2361221,11.0381702 40.9601249,11.8469954 40.9601249,12.767 L40.9601249,19 L38.8441249,19 L38.8441249,2.532 L40.9601249,2.532 Z M62.6146249,19.368 C61.755954,19.368 60.9854617,19.1840018 60.3031249,18.816 C59.6207882,18.4479982 59.1109599,17.9880028 58.7736249,17.436 L58.6816249,17.436 L58.6816249,19 L56.6576249,19 L56.6576249,2.532 L58.7736249,2.532 L58.7736249,7.73 L58.6816249,9.294 L58.7736249,9.294 C59.1109599,8.74199724 59.6207882,8.28200184 60.3031249,7.914 C60.9854617,7.54599816 61.755954,7.362 62.6146249,7.362 C64.0712989,7.362 65.3286196,7.93699425 66.3866249,9.087 C67.4446302,10.2370057 67.9736249,11.6629915 67.9736249,13.365 C67.9736249,15.0670085 67.4446302,16.4929942 66.3866249,17.643 C65.3286196,18.7930057 64.0712989,19.368 62.6146249,19.368 Z M62.2696249,17.436 C63.2509632,17.436 64.0942881,17.0641704 64.7996249,16.3205 C65.5049618,15.5768296 65.8576249,14.5916728 65.8576249,13.365 C65.8576249,12.1383272 65.5049618,11.1531704 64.7996249,10.4095 C64.0942881,9.66582961 63.2509632,9.294 62.2696249,9.294 C61.2729533,9.294 60.4257951,9.66199632 59.7281249,10.398 C59.0304548,11.1340037 58.6816249,12.1229938 58.6816249,13.365 C58.6816249,14.6070062 59.0304548,15.5959963 59.7281249,16.332 C60.4257951,17.0680037 61.2729533,17.436 62.2696249,17.436 Z M75.1553749,19.368 C73.4533664,19.368 72.0695469,18.8006723 71.0038749,17.666 C69.9382029,16.5313277 69.4053749,15.0976753 69.4053749,13.365 C69.4053749,11.7243251 69.9228698,10.3136726 70.9578749,9.133 C71.9928801,7.95232743 73.3153669,7.362 74.9253749,7.362 C76.5967166,7.362 77.9345366,7.90632789 78.9388749,8.995 C79.9432133,10.0836721 80.4453749,11.5403242 80.4453749,13.365 L80.4223749,13.756 L71.5213749,13.756 C71.5827086,14.8906723 71.9622048,15.7876634 72.6598749,16.447 C73.3575451,17.1063366 74.1740369,17.436 75.1093749,17.436 C76.6273825,17.436 77.6547056,16.7920064 78.1913749,15.504 L80.0773749,16.286 C79.7093731,17.1600044 79.1037125,17.8921637 78.2603749,18.4825 C77.4170374,19.0728363 76.3820477,19.368 75.1553749,19.368 Z M78.1913749,12.008 C78.1453747,11.3639968 77.850211,10.7506696 77.3058749,10.168 C76.7615389,9.58533042 75.9527136,9.294 74.8793749,9.294 C74.097371,9.294 73.4188778,9.53933088 72.8438749,10.03 C72.2688721,10.5206691 71.8740427,11.1799959 71.6593749,12.008 L78.1913749,12.008 Z M84.6371249,19 L82.5211249,19 L82.5211249,7.73 L84.5451249,7.73 L84.5451249,9.57 L84.6371249,9.57 C84.8517927,8.9566636 85.2926216,8.45066866 85.9596249,8.052 C86.6266283,7.65333134 87.2744551,7.454 87.9031249,7.454 C88.5317948,7.454 89.0607895,7.54599908 89.4901249,7.73 L88.6851249,9.708 C88.4091236,9.60066613 88.0334607,9.547 87.5581249,9.547 C86.7914544,9.547 86.1129612,9.84983031 85.5226249,10.4555 C84.9322887,11.0611697 84.6371249,11.8546618 84.6371249,12.836 L84.6371249,19 Z M93.244875,19 L91.128875,19 L91.128875,2.532 L93.244875,2.532 L93.244875,19 Z M99.414625,19.368 C98.218619,19.368 97.218129,19.0230035 96.413125,18.333 C95.6081209,17.6429965 95.205625,16.7306723 95.205625,15.596 C95.205625,14.3693272 95.6809536,13.4071702 96.631625,12.7095 C97.5822964,12.0118298 98.7552847,11.663 100.150625,11.663 C101.392631,11.663 102.412288,11.8929977 103.209625,12.353 L103.209625,12.031 C103.209625,11.2029959 102.925961,10.5398358 102.358625,10.0415 C101.791289,9.54316418 101.093629,9.294 100.265625,9.294 C99.6522886,9.294 99.0964608,9.43966521 98.598125,9.731 C98.0997891,10.0223348 97.7586259,10.4209975 97.574625,10.927 L95.642625,10.099 C95.9032929,9.42432996 96.4169545,8.79950287 97.183625,8.2245 C97.9502955,7.64949712 98.9622854,7.362 100.219625,7.362 C101.660966,7.362 102.856954,7.78366245 103.807625,8.627 C104.758296,9.47033755 105.233625,10.658659 105.233625,12.192 L105.233625,19 L103.209625,19 L103.209625,17.436 L103.117625,17.436 C102.274287,18.7240064 101.039966,19.368 99.414625,19.368 Z M99.759625,17.436 C100.633629,17.436 101.427121,17.1101699 102.140125,16.4585 C102.853129,15.8068301 103.209625,15.0363378 103.209625,14.147 C102.611622,13.6563309 101.714631,13.411 100.518625,13.411 C99.4912865,13.411 98.7169609,13.6333311 98.195625,14.078 C97.674289,14.5226689 97.413625,15.043997 97.413625,15.642 C97.413625,16.1940028 97.6512893,16.6309984 98.126625,16.953 C98.6019607,17.2750016 99.1462886,17.436 99.759625,17.436 Z M109.793375,7.73 L109.793375,9.294 L109.885375,9.294 C110.192043,8.75733065 110.675038,8.30116854 111.334375,7.9255 C111.993712,7.54983146 112.699038,7.362 113.450375,7.362 C114.845715,7.362 115.911371,7.79132904 116.647375,8.65 C117.383379,9.50867096 117.751375,10.6586595 117.751375,12.1 L117.751375,19 L115.635375,19 L115.635375,12.422 C115.635375,10.3366562 114.707718,9.294 112.852375,9.294 C111.978371,9.294 111.265378,9.64282985 110.713375,10.3405 C110.161372,11.0381702 109.885375,11.8469954 109.885375,12.767 L109.885375,19 L107.769375,19 L107.769375,7.73 L109.793375,7.73 Z M125.163125,24.336 C123.829118,24.336 122.740463,24.0025033 121.897125,23.3355 C121.053787,22.6684967 120.448127,21.905671 120.080125,21.047 L122.012125,20.242 C122.226793,20.8553364 122.621622,21.3689979 123.196625,21.783 C123.771628,22.1970021 124.427121,22.404 125.163125,22.404 C126.328464,22.404 127.244622,22.0551702 127.911625,21.3575 C128.578628,20.6598298 128.912125,19.713006 128.912125,18.517 L128.912125,17.436 L128.820125,17.436 C128.452123,17.9880028 127.930795,18.4479982 127.256125,18.816 C126.581455,19.1840018 125.822463,19.368 124.979125,19.368 C123.522451,19.368 122.26513,18.7930058 121.207125,17.643 C120.14912,16.4929943 119.620125,15.0670085 119.620125,13.365 C119.620125,11.6629915 120.14912,10.2370057 121.207125,9.087 C122.26513,7.93699425 123.522451,7.362 124.979125,7.362 C125.822463,7.362 126.581455,7.54599816 127.256125,7.914 C127.930795,8.28200184 128.452123,8.74199724 128.820125,9.294 L128.912125,9.294 L128.912125,7.73 L130.936125,7.73 L130.936125,18.425 C130.936125,20.3570097 130.376464,21.8251616 129.257125,22.8295 C128.137786,23.8338384 126.773133,24.336 125.163125,24.336 Z M125.324125,17.436 C126.320797,17.436 127.167955,17.0680037 127.865625,16.332 C128.563295,15.5959963 128.912125,14.6070062 128.912125,13.365 C128.912125,12.1229938 128.563295,11.1340037 127.865625,10.398 C127.167955,9.66199632 126.320797,9.294 125.324125,9.294 C124.342787,9.294 123.499462,9.66582961 122.794125,10.4095 C122.088788,11.1531704 121.736125,12.1383272 121.736125,13.365 C121.736125,14.5916728 122.088788,15.5768296 122.794125,16.3205 C123.499462,17.0641704 124.342787,17.436 125.324125,17.436 Z M138.439875,24.336 C137.105868,24.336 136.017213,24.0025033 135.173875,23.3355 C134.330537,22.6684967 133.724877,21.905671 133.356875,21.047 L135.288875,20.242 C135.503543,20.8553364 135.898372,21.3689979 136.473375,21.783 C137.048378,22.1970021 137.703871,22.404 138.439875,22.404 C139.605214,22.404 140.521372,22.0551702 141.188375,21.3575 C141.855378,20.6598298 142.188875,19.713006 142.188875,18.517 L142.188875,17.436 L142.096875,17.436 C141.728873,17.9880028 141.207545,18.4479982 140.532875,18.816 C139.858205,19.1840018 139.099213,19.368 138.255875,19.368 C136.799201,19.368 135.54188,18.7930058 134.483875,17.643 C133.42587,16.4929943 132.896875,15.0670085 132.896875,13.365 C132.896875,11.6629915 133.42587,10.2370057 134.483875,9.087 C135.54188,7.93699425 136.799201,7.362 138.255875,7.362 C139.099213,7.362 139.858205,7.54599816 140.532875,7.914 C141.207545,8.28200184 141.728873,8.74199724 142.096875,9.294 L142.188875,9.294 L142.188875,7.73 L144.212875,7.73 L144.212875,18.425 C144.212875,20.3570097 143.653214,21.8251616 142.533875,22.8295 C141.414536,23.8338384 140.049883,24.336 138.439875,24.336 Z M138.600875,17.436 C139.597547,17.436 140.444705,17.0680037 141.142375,16.332 C141.840045,15.5959963 142.188875,14.6070062 142.188875,13.365 C142.188875,12.1229938 141.840045,11.1340037 141.142375,10.398 C140.444705,9.66199632 139.597547,9.294 138.600875,9.294 C137.619537,9.294 136.776212,9.66582961 136.070875,10.4095 C135.365538,11.1531704 135.012875,12.1383272 135.012875,13.365 C135.012875,14.5916728 135.365538,15.5768296 136.070875,16.3205 C136.776212,17.0641704 137.619537,17.436 138.600875,17.436 Z M150.382625,19.368 C149.186619,19.368 148.186129,19.0230035 147.381125,18.333 C146.576121,17.6429965 146.173625,16.7306723 146.173625,15.596 C146.173625,14.3693272 146.648954,13.4071702 147.599625,12.7095 C148.550296,12.0118298 149.723285,11.663 151.118625,11.663 C152.360631,11.663 153.380288,11.8929977 154.177625,12.353 L154.177625,12.031 C154.177625,11.2029959 153.893961,10.5398358 153.326625,10.0415 C152.759289,9.54316418 152.061629,9.294 151.233625,9.294 C150.620289,9.294 150.064461,9.43966521 149.566125,9.731 C149.067789,10.0223348 148.726626,10.4209975 148.542625,10.927 L146.610625,10.099 C146.871293,9.42432996 147.384955,8.79950287 148.151625,8.2245 C148.918296,7.64949712 149.930285,7.362 151.187625,7.362 C152.628966,7.362 153.824954,7.78366245 154.775625,8.627 C155.726296,9.47033755 156.201625,10.658659 156.201625,12.192 L156.201625,19 L154.177625,19 L154.177625,17.436 L154.085625,17.436 C153.242287,18.7240064 152.007966,19.368 150.382625,19.368 Z M150.727625,17.436 C151.601629,17.436 152.395121,17.1101699 153.108125,16.4585 C153.821129,15.8068301 154.177625,15.0363378 154.177625,14.147 C153.579622,13.6563309 152.682631,13.411 151.486625,13.411 C150.459287,13.411 149.684961,13.6333311 149.163625,14.078 C148.642289,14.5226689 148.381625,15.043997 148.381625,15.642 C148.381625,16.1940028 148.619289,16.6309984 149.094625,16.953 C149.569961,17.2750016 150.114289,17.436 150.727625,17.436 Z M160.761375,7.73 L160.761375,9.294 L160.853375,9.294 C161.160043,8.75733065 161.643038,8.30116854 162.302375,7.9255 C162.961712,7.54983146 163.667038,7.362 164.418375,7.362 C165.813715,7.362 166.879371,7.79132904 167.615375,8.65 C168.351379,9.50867096 168.719375,10.6586595 168.719375,12.1 L168.719375,19 L166.603375,19 L166.603375,12.422 C166.603375,10.3366562 165.675718,9.294 163.820375,9.294 C162.946371,9.294 162.233378,9.64282985 161.681375,10.3405 C161.129372,11.0381702 160.853375,11.8469954 160.853375,12.767 L160.853375,19 L158.737375,19 L158.737375,7.73 L160.761375,7.73 Z M174.797125,19.368 C173.601119,19.368 172.600629,19.0230035 171.795625,18.333 C170.990621,17.6429965 170.588125,16.7306723 170.588125,15.596 C170.588125,14.3693272 171.063454,13.4071702 172.014125,12.7095 C172.964796,12.0118298 174.137785,11.663 175.533125,11.663 C176.775131,11.663 177.794788,11.8929977 178.592125,12.353 L178.592125,12.031 C178.592125,11.2029959 178.308461,10.5398358 177.741125,10.0415 C177.173789,9.54316418 176.476129,9.294 175.648125,9.294 C175.034789,9.294 174.478961,9.43966521 173.980625,9.731 C173.482289,10.0223348 173.141126,10.4209975 172.957125,10.927 L171.025125,10.099 C171.285793,9.42432996 171.799455,8.79950287 172.566125,8.2245 C173.332796,7.64949712 174.344785,7.362 175.602125,7.362 C177.043466,7.362 178.239454,7.78366245 179.190125,8.627 C180.140796,9.47033755 180.616125,10.658659 180.616125,12.192 L180.616125,19 L178.592125,19 L178.592125,17.436 L178.500125,17.436 C177.656787,18.7240064 176.422467,19.368 174.797125,19.368 Z M175.142125,17.436 C176.016129,17.436 176.809621,17.1101699 177.522625,16.4585 C178.235629,15.8068301 178.592125,15.0363378 178.592125,14.147 C177.994122,13.6563309 177.097131,13.411 175.901125,13.411 C174.873787,13.411 174.099461,13.6333311 173.578125,14.078 C173.056789,14.5226689 172.796125,15.043997 172.796125,15.642 C172.796125,16.1940028 173.033789,16.6309984 173.509125,16.953 C173.984461,17.2750016 174.528789,17.436 175.142125,17.436 Z M185.175875,7.73 L185.175875,9.294 L185.267875,9.294 C185.574543,8.75733065 186.057538,8.30116854 186.716875,7.9255 C187.376212,7.54983146 188.081538,7.362 188.832875,7.362 C190.228215,7.362 191.293871,7.79132904 192.029875,8.65 C192.765879,9.50867096 193.133875,10.6586595 193.133875,12.1 L193.133875,19 L191.017875,19 L191.017875,12.422 C191.017875,10.3366562 190.090218,9.294 188.234875,9.294 C187.360871,9.294 186.647878,9.64282985 186.095875,10.3405 C185.543872,11.0381702 185.267875,11.8469954 185.267875,12.767 L185.267875,19 L183.151875,19 L183.151875,7.73 L185.175875,7.73 Z M205.680375,19.368 C204.223701,19.368 202.96638,18.7930057 201.908375,17.643 C200.85037,16.4929942 200.321375,15.0670085 200.321375,13.365 C200.321375,11.6629915 200.85037,10.2370057 201.908375,9.087 C202.96638,7.93699425 204.223701,7.362 205.680375,7.362 C206.539046,7.362 207.309538,7.54599816 207.991875,7.914 C208.674212,8.28200184 209.18404,8.74199724 209.521375,9.294 L209.613375,9.294 L209.521375,7.73 L209.521375,2.532 L211.637375,2.532 L211.637375,19 L209.613375,19 L209.613375,17.436 L209.521375,17.436 C209.18404,17.9880028 208.674212,18.4479982 207.991875,18.816 C207.309538,19.1840018 206.539046,19.368 205.680375,19.368 Z M206.025375,17.436 C207.022047,17.436 207.869205,17.0680037 208.566875,16.332 C209.264545,15.5959963 209.613375,14.6070062 209.613375,13.365 C209.613375,12.1229938 209.264545,11.1340037 208.566875,10.398 C207.869205,9.66199632 207.022047,9.294 206.025375,9.294 C205.044037,9.294 204.200712,9.66582961 203.495375,10.4095 C202.790038,11.1531704 202.437375,12.1383272 202.437375,13.365 C202.437375,14.5916728 202.790038,15.5768296 203.495375,16.3205 C204.200712,17.0641704 205.044037,17.436 206.025375,17.436 Z M219.348125,19.368 C217.646117,19.368 216.262297,18.8006723 215.196625,17.666 C214.130953,16.5313277 213.598125,15.0976753 213.598125,13.365 C213.598125,11.7243251 214.11562,10.3136726 215.150625,9.133 C216.18563,7.95232743 217.508117,7.362 219.118125,7.362 C220.789467,7.362 222.127287,7.90632789 223.131625,8.995 C224.135963,10.0836721 224.638125,11.5403242 224.638125,13.365 L224.615125,13.756 L215.714125,13.756 C215.775459,14.8906723 216.154955,15.7876634 216.852625,16.447 C217.550295,17.1063366 218.366787,17.436 219.302125,17.436 C220.820133,17.436 221.847456,16.7920064 222.384125,15.504 L224.270125,16.286 C223.902123,17.1600044 223.296463,17.8921637 222.453125,18.4825 C221.609788,19.0728363 220.574798,19.368 219.348125,19.368 Z M222.384125,12.008 C222.338125,11.3639968 222.042961,10.7506696 221.498625,10.168 C220.954289,9.58533042 220.145464,9.294 219.072125,9.294 C218.290121,9.294 217.611628,9.53933088 217.036625,10.03 C216.461622,10.5206691 216.066793,11.1799959 215.852125,12.008 L222.384125,12.008 Z M228.737875,7.73 L228.737875,9.294 L228.829875,9.294 C229.136543,8.75733065 229.619538,8.30116854 230.278875,7.9255 C230.938212,7.54983146 231.643538,7.362 232.394875,7.362 C233.790215,7.362 234.855871,7.79132904 235.591875,8.65 C236.327879,9.50867096 236.695875,10.6586595 236.695875,12.1 L236.695875,19 L234.579875,19 L234.579875,12.422 C234.579875,10.3366562 233.652218,9.294 231.796875,9.294 C230.922871,9.294 230.209878,9.64282985 229.657875,10.3405 C229.105872,11.0381702 228.829875,11.8469954 228.829875,12.767 L228.829875,19 L226.713875,19 L226.713875,7.73 L228.737875,7.73 Z M244.107625,24.336 C242.773618,24.336 241.684963,24.0025033 240.841625,23.3355 C239.998288,22.6684967 239.392627,21.905671 239.024625,21.047 L240.956625,20.242 C241.171293,20.8553364 241.566122,21.3689979 242.141125,21.783 C242.716128,22.1970021 243.371621,22.404 244.107625,22.404 C245.272964,22.404 246.189122,22.0551702 246.856125,21.3575 C247.523128,20.6598298 247.856625,19.713006 247.856625,18.517 L247.856625,17.436 L247.764625,17.436 C247.396623,17.9880028 246.875295,18.4479982 246.200625,18.816 C245.525955,19.1840018 244.766963,19.368 243.923625,19.368 C242.466951,19.368 241.20963,18.7930058 240.151625,17.643 C239.09362,16.4929943 238.564625,15.0670085 238.564625,13.365 C238.564625,11.6629915 239.09362,10.2370057 240.151625,9.087 C241.20963,7.93699425 242.466951,7.362 243.923625,7.362 C244.766963,7.362 245.525955,7.54599816 246.200625,7.914 C246.875295,8.28200184 247.396623,8.74199724 247.764625,9.294 L247.856625,9.294 L247.856625,7.73 L249.880625,7.73 L249.880625,18.425 C249.880625,20.3570097 249.320964,21.8251616 248.201625,22.8295 C247.082286,23.8338384 245.717633,24.336 244.107625,24.336 Z M244.268625,17.436 C245.265297,17.436 246.112455,17.0680037 246.810125,16.332 C247.507795,15.5959963 247.856625,14.6070062 247.856625,13.365 C247.856625,12.1229938 247.507795,11.1340037 246.810125,10.398 C246.112455,9.66199632 245.265297,9.294 244.268625,9.294 C243.287287,9.294 242.443962,9.66582961 241.738625,10.4095 C241.033288,11.1531704 240.680625,12.1383272 240.680625,13.365 C240.680625,14.5916728 241.033288,15.5768296 241.738625,16.3205 C242.443962,17.0641704 243.287287,17.436 244.268625,17.436 Z M256.050375,19.368 C254.854369,19.368 253.853879,19.0230035 253.048875,18.333 C252.243871,17.6429965 251.841375,16.7306723 251.841375,15.596 C251.841375,14.3693272 252.316704,13.4071702 253.267375,12.7095 C254.218047,12.0118298 255.391035,11.663 256.786375,11.663 C258.028381,11.663 259.048038,11.8929977 259.845375,12.353 L259.845375,12.031 C259.845375,11.2029959 259.561711,10.5398358 258.994375,10.0415 C258.427039,9.54316418 257.729379,9.294 256.901375,9.294 C256.288039,9.294 255.732211,9.43966521 255.233875,9.731 C254.735539,10.0223348 254.394376,10.4209975 254.210375,10.927 L252.278375,10.099 C252.539043,9.42432996 253.052705,8.79950287 253.819375,8.2245 C254.586046,7.64949712 255.598036,7.362 256.855375,7.362 C258.296716,7.362 259.492704,7.78366245 260.443375,8.627 C261.394047,9.47033755 261.869375,10.658659 261.869375,12.192 L261.869375,19 L259.845375,19 L259.845375,17.436 L259.753375,17.436 C258.910038,18.7240064 257.675717,19.368 256.050375,19.368 Z M256.395375,17.436 C257.269379,17.436 258.062872,17.1101699 258.775875,16.4585 C259.488879,15.8068301 259.845375,15.0363378 259.845375,14.147 C259.247372,13.6563309 258.350381,13.411 257.154375,13.411 C256.127037,13.411 255.352711,13.6333311 254.831375,14.078 C254.310039,14.5226689 254.049375,15.043997 254.049375,15.642 C254.049375,16.1940028 254.287039,16.6309984 254.762375,16.953 C255.237711,17.2750016 255.782039,17.436 256.395375,17.436 Z M266.429125,7.73 L266.429125,9.294 L266.521125,9.294 C266.827793,8.75733065 267.310789,8.30116854 267.970125,7.9255 C268.629462,7.54983146 269.334788,7.362 270.086125,7.362 C271.481465,7.362 272.547121,7.79132904 273.283125,8.65 C274.019129,9.50867096 274.387125,10.6586595 274.387125,12.1 L274.387125,19 L272.271125,19 L272.271125,12.422 C272.271125,10.3366562 271.343468,9.294 269.488125,9.294 C268.614121,9.294 267.901128,9.64282985 267.349125,10.3405 C266.797122,11.0381702 266.521125,11.8469954 266.521125,12.767 L266.521125,19 L264.405125,19 L264.405125,7.73 L266.429125,7.73 Z" id="telah-berlangganan-d" fill="#FFFFFF"></path>
        <g id="Group" transform="translate(282.000000, 0.000000)" fill="#FFFFFF" fill-rule="nonzero">
            <path d="M9.36714443,19 C4.27673649,19 0,14.7346939 0,9.5 C0,4.26530612 4.27673649,0 9.36714443,0 C12.185226,0 14.1896362,1.13265306 15.6979052,2.62244898 L13.92172,4.44897959 C12.8401323,3.40816327 11.3715546,2.59183673 9.36714443,2.59183673 C5.646086,2.59183673 2.73869901,5.67346939 2.73869901,9.5 C2.73869901,13.3265306 5.646086,16.4081633 9.36714443,16.4081633 C11.7783903,16.4081633 13.1477398,15.4081633 14.030871,14.5102041 C14.755237,13.7653061 15.2216097,12.7040816 15.4002205,11.244898 L9.36714443,11.244898 L9.36714443,8.64285714 L17.8610805,8.64285714 C17.9503859,9.10204082 18,9.66326531 18,10.2653061 C18,12.2142857 17.4840132,14.622449 15.8169791,16.3367347 C14.1896362,18.0714286 12.1256891,19 9.36714443,19 Z" id="Shape"></path>
            <path d="M32,13 C32,16.4557596 29.3096447,19 26,19 C22.6903553,19 20,16.4557596 20,13 C20,9.52420701 22.6903553,7 26,7 C29.3096447,7 32,9.52420701 32,13 Z M29.3705584,13 C29.3705584,10.836394 27.8071066,9.3639399 26,9.3639399 C24.1928934,9.3639399 22.6294416,10.8464107 22.6294416,13 C22.6294416,15.1335559 24.1928934,16.6360601 26,16.6360601 C27.8071066,16.6360601 29.3705584,15.1435726 29.3705584,13 Z" id="Shape"></path>
            <path d="M45,13 C45,16.4557596 42.3096447,19 39,19 C35.7005076,19 33,16.4557596 33,13 C33,9.52420701 35.6903553,7 39,7 C42.3096447,7 45,9.52420701 45,13 Z M42.3807107,13 C42.3807107,10.836394 40.8172589,9.3639399 39.0101523,9.3639399 C37.2030457,9.3639399 35.6395939,10.8464107 35.6395939,13 C35.6395939,15.1335559 37.2030457,16.6360601 39.0101523,16.6360601 C40.8172589,16.6460768 42.3807107,15.1435726 42.3807107,13 Z" id="Shape"></path>
            <path d="M57,7.3621186 L57,17.8929188 C57,22.228555 54.5013055,24 51.5430809,24 C48.7571802,24 47.0913838,22.0915371 46.45953,20.5354059 L48.6518712,19.6056419 C49.0443864,20.5647668 50.0017406,21.6902706 51.5430809,21.6902706 C53.4386423,21.6902706 54.6066144,20.4864709 54.6066144,18.2452504 L54.6066144,17.4035694 L54.5204526,17.4035694 C53.9556136,18.1180196 52.8642298,18.7345999 51.4952132,18.7345999 C48.6231506,18.7345999 46,16.1801957 46,12.8917674 C46,9.58376511 48.6327241,7 51.4952132,7 C52.8642298,7 53.9556136,7.6263673 54.5204526,8.31145653 L54.6066144,8.31145653 L54.6066144,7.3621186 L57,7.3621186 Z M54.7789382,12.9015544 C54.7789382,10.8364997 53.4290688,9.31951641 51.7154047,9.31951641 C49.97302,9.31951641 48.5178416,10.8267127 48.5178416,12.9015544 C48.5178416,14.9470351 49.97302,16.4346575 51.7154047,16.4346575 C53.4290688,16.4346575 54.7789382,14.9470351 54.7789382,12.9015544 Z" id="Shape"></path>
            <polygon id="Shape" points="63 1 63 19 60 19 60 1"></polygon>
            <path d="M72.8441203,14.9732888 L74.8896992,16.3355593 C74.2278943,17.3171953 72.633546,19 69.8760255,19 C66.4567001,19 64,16.3656093 64,13 C64,9.43405676 66.4867821,7 69.5852325,7 C72.7037375,7 74.2278943,9.47412354 74.7292616,10.8163606 L75,11.4974958 L66.9680948,14.8230384 C67.579763,16.0250417 68.5423883,16.6460768 69.8860529,16.6460768 C71.2297174,16.6460768 72.1622607,15.9749583 72.8441203,14.9732888 Z M66.5369189,12.8096828 L71.911577,10.5859766 C71.6107566,9.83472454 70.72835,9.31385643 69.6754786,9.31385643 C68.331814,9.31385643 66.4667274,10.4958264 66.5369189,12.8096828 Z" id="Shape"></path>
        </g>
    </g>
</svg>