<svg width="302" height="24" viewBox="0 0 302 24" xmlns="http://www.w3.org/2000/svg"><title>SwG-id-White</title><desc>Created with Sketch.</desc><g fill="none"><path d="M1.656 18v-16.468h5.957c1.288 0 2.403.425 3.346 1.276.943.851 1.415 1.92 1.415 3.209 0 .782-.203 1.472-.61 2.07-.406.598-.947 1.05-1.621 1.357v.092c.813.276 1.48.751 2.001 1.426.521.675.782 1.457.782 2.346 0 1.349-.494 2.469-1.483 3.358-.989.889-2.158 1.334-3.508 1.334h-6.279zm2.116-9.407h3.841c.797 0 1.437-.264 1.92-.793.483-.529.724-1.108.724-1.737s-.234-1.204-.701-1.725c-.468-.521-1.085-.782-1.851-.782h-3.933v5.037zm0 7.383h4.255c.813 0 1.472-.284 1.978-.851s.759-1.188.759-1.863-.261-1.292-.782-1.851c-.521-.56-1.204-.84-2.047-.84h-4.163v5.405zm16.428 2.392c-1.702 0-3.086-.567-4.152-1.702-1.066-1.135-1.598-2.568-1.598-4.301 0-1.641.517-3.051 1.553-4.232 1.035-1.181 2.357-1.771 3.968-1.771 1.671 0 3.009.544 4.014 1.633 1.004 1.089 1.506 2.545 1.506 4.37l-.023.391h-8.901c.061 1.135.441 2.032 1.138 2.691.698.659 1.514.989 2.45.989 1.518 0 2.545-.644 3.082-1.932l1.886.782c-.368.874-.974 1.606-1.817 2.197-.843.59-1.878.885-3.105.885zm3.036-7.36c-.046-.644-.341-1.257-.886-1.84-.544-.583-1.353-.874-2.427-.874-.782 0-1.46.245-2.035.736-.575.491-.97 1.15-1.184 1.978h6.532zm6.446 6.992h-2.116v-11.27h2.024v1.84h.092c.215-.613.655-1.119 1.323-1.518.667-.399 1.315-.598 1.943-.598.629 0 1.158.092 1.587.276l-.805 1.978c-.276-.107-.652-.161-1.127-.161-.767 0-1.445.303-2.035.909-.59.606-.886 1.399-.886 2.38v6.164zm8.608 0h-2.116v-16.468h2.116v16.468zm6.17.368c-1.196 0-2.196-.345-3.002-1.035-.805-.69-1.208-1.602-1.208-2.737 0-1.227.475-2.189 1.426-2.886.951-.698 2.124-1.046 3.519-1.046 1.242 0 2.262.23 3.059.69v-.322c0-.828-.284-1.491-.851-1.99-.567-.498-1.265-.747-2.093-.747-.613 0-1.169.146-1.668.437-.498.291-.839.69-1.023 1.196l-1.932-.828c.261-.675.774-1.299 1.541-1.875.767-.575 1.779-.862 3.036-.862 1.441 0 2.637.422 3.588 1.265.951.843 1.426 2.032 1.426 3.565v6.808h-2.024v-1.564h-.092c-.843 1.288-2.078 1.932-3.703 1.932zm.345-1.932c.874 0 1.667-.326 2.38-.977.713-.652 1.069-1.422 1.069-2.312-.598-.491-1.495-.736-2.691-.736-1.027 0-1.802.222-2.323.667-.521.445-.782.966-.782 1.564 0 .552.238.989.713 1.311.475.322 1.02.483 1.633.483zm10.034-9.706v1.564h.092c.307-.537.79-.993 1.449-1.369s1.365-.564 2.116-.564c1.395 0 2.461.429 3.197 1.288.736.859 1.104 2.009 1.104 3.45v6.9h-2.116v-6.578c0-2.085-.928-3.128-2.783-3.128-.874 0-1.587.349-2.139 1.046-.552.698-.828 1.506-.828 2.426v6.233h-2.116v-11.27h2.024zm15.37 16.606c-1.334 0-2.423-.333-3.266-1s-1.449-1.43-1.817-2.288l1.932-.805c.215.613.609 1.127 1.184 1.541.575.414 1.23.621 1.967.621 1.165 0 2.081-.349 2.748-1.046.667-.698 1.001-1.644 1.001-2.841v-1.081h-.092c-.368.552-.889 1.012-1.564 1.38-.675.368-1.434.552-2.277.552-1.457 0-2.714-.575-3.772-1.725-1.058-1.15-1.587-2.576-1.587-4.278 0-1.702.529-3.128 1.587-4.278 1.058-1.15 2.315-1.725 3.772-1.725.843 0 1.602.184 2.277.552.675.368 1.196.828 1.564 1.38h.092v-1.564h2.024v10.695c0 1.932-.56 3.4-1.679 4.404s-2.484 1.506-4.094 1.506zm.161-6.9c.997 0 1.844-.368 2.541-1.104.698-.736 1.046-1.725 1.046-2.967s-.349-2.231-1.046-2.967c-.698-.736-1.545-1.104-2.541-1.104-.981 0-1.825.372-2.53 1.115-.705.744-1.058 1.729-1.058 2.956 0 1.227.353 2.212 1.058 2.955.705.744 1.549 1.116 2.53 1.116zm13.116 6.9c-1.334 0-2.423-.333-3.266-1s-1.449-1.43-1.817-2.288l1.932-.805c.215.613.609 1.127 1.184 1.541.575.414 1.23.621 1.966.621 1.165 0 2.081-.349 2.749-1.046.667-.698 1.001-1.644 1.001-2.841v-1.081h-.092c-.368.552-.889 1.012-1.564 1.38-.675.368-1.434.552-2.277.552-1.457 0-2.714-.575-3.772-1.725-1.058-1.15-1.587-2.576-1.587-4.278 0-1.702.529-3.128 1.587-4.278 1.058-1.15 2.315-1.725 3.772-1.725.843 0 1.602.184 2.277.552.675.368 1.196.828 1.564 1.38h.092v-1.564h2.024v10.695c0 1.932-.56 3.4-1.679 4.404s-2.484 1.506-4.094 1.506zm.161-6.9c.997 0 1.844-.368 2.541-1.104.698-.736 1.047-1.725 1.047-2.967s-.349-2.231-1.047-2.967c-.698-.736-1.545-1.104-2.541-1.104-.981 0-1.825.372-2.53 1.115-.705.744-1.058 1.729-1.058 2.956 0 1.227.353 2.212 1.058 2.955.705.744 1.549 1.116 2.53 1.116zm11.782 1.932c-1.196 0-2.196-.345-3.002-1.035-.805-.69-1.207-1.602-1.207-2.737 0-1.227.475-2.189 1.426-2.886.951-.698 2.124-1.046 3.519-1.046 1.242 0 2.262.23 3.059.69v-.322c0-.828-.284-1.491-.851-1.99-.567-.498-1.265-.747-2.093-.747-.613 0-1.169.146-1.668.437-.498.291-.839.69-1.023 1.196l-1.932-.828c.261-.675.774-1.299 1.541-1.875.767-.575 1.779-.862 3.036-.862 1.441 0 2.637.422 3.588 1.265.951.843 1.426 2.032 1.426 3.565v6.808h-2.024v-1.564h-.092c-.843 1.288-2.078 1.932-3.703 1.932zm.345-1.932c.874 0 1.667-.326 2.38-.977.713-.652 1.07-1.422 1.07-2.312-.598-.491-1.495-.736-2.691-.736-1.027 0-1.802.222-2.323.667-.521.445-.782.966-.782 1.564 0 .552.238.989.713 1.311.475.322 1.02.483 1.633.483zm10.034-9.706v1.564h.092c.307-.537.79-.993 1.449-1.369s1.365-.564 2.116-.564c1.395 0 2.461.429 3.197 1.288.736.859 1.104 2.009 1.104 3.45v6.9h-2.116v-6.578c0-2.085-.928-3.128-2.783-3.128-.874 0-1.587.349-2.139 1.046-.552.698-.828 1.506-.828 2.426v6.233h-2.116v-11.27h2.024zm14.036 11.638c-1.196 0-2.196-.345-3.001-1.035-.805-.69-1.208-1.602-1.208-2.737 0-1.227.475-2.189 1.426-2.886.951-.698 2.124-1.046 3.519-1.046 1.242 0 2.262.23 3.059.69v-.322c0-.828-.284-1.491-.851-1.99-.567-.498-1.265-.747-2.093-.747-.613 0-1.169.146-1.667.437-.498.291-.839.69-1.024 1.196l-1.932-.828c.261-.675.774-1.299 1.541-1.875.767-.575 1.779-.862 3.036-.862 1.441 0 2.637.422 3.588 1.265.951.843 1.426 2.032 1.426 3.565v6.808h-2.024v-1.564h-.092c-.843 1.288-2.078 1.932-3.703 1.932zm.345-1.932c.874 0 1.667-.326 2.38-.977.713-.652 1.07-1.422 1.07-2.312-.598-.491-1.495-.736-2.691-.736-1.027 0-1.802.222-2.323.667-.521.445-.782.966-.782 1.564 0 .552.238.989.713 1.311.475.322 1.02.483 1.633.483zm10.034-9.706v1.564h.092c.307-.537.79-.993 1.449-1.369s1.365-.564 2.116-.564c1.395 0 2.461.429 3.197 1.288.736.859 1.104 2.009 1.104 3.45v6.9h-2.116v-6.578c0-2.085-.928-3.128-2.783-3.128-.874 0-1.587.349-2.139 1.046-.552.698-.828 1.506-.828 2.426v6.233h-2.116v-11.27h2.024zm20.505 11.638c-1.457 0-2.714-.575-3.772-1.725-1.058-1.15-1.587-2.576-1.587-4.278 0-1.702.529-3.128 1.587-4.278 1.058-1.15 2.315-1.725 3.772-1.725.859 0 1.629.184 2.311.552.682.368 1.192.828 1.53 1.38h.092l-.092-1.564v-5.198h2.116v16.468h-2.024v-1.564h-.092c-.337.552-.847 1.012-1.53 1.38-.682.368-1.453.552-2.311.552zm.345-1.932c.997 0 1.844-.368 2.542-1.104.698-.736 1.046-1.725 1.046-2.967s-.349-2.231-1.046-2.967c-.698-.736-1.545-1.104-2.542-1.104-.981 0-1.825.372-2.53 1.115-.705.744-1.058 1.729-1.058 2.956 0 1.227.353 2.212 1.058 2.955.705.744 1.549 1.116 2.53 1.116zm13.323 1.932c-1.702 0-3.086-.567-4.151-1.702-1.066-1.135-1.599-2.568-1.599-4.301 0-1.641.517-3.051 1.552-4.232 1.035-1.181 2.357-1.771 3.968-1.771 1.671 0 3.009.544 4.013 1.633s1.507 2.545 1.507 4.37l-.023.391h-8.901c.061 1.135.441 2.032 1.138 2.691.698.659 1.514.989 2.45.989 1.518 0 2.545-.644 3.082-1.932l1.886.782c-.368.874-.974 1.606-1.817 2.197-.843.59-1.878.885-3.105.885zm3.036-7.36c-.046-.644-.341-1.257-.886-1.84-.544-.583-1.353-.874-2.427-.874-.782 0-1.46.245-2.036.736-.575.491-.97 1.15-1.184 1.978h6.532zm6.354-4.278v1.564h.092c.307-.537.79-.993 1.449-1.369s1.365-.564 2.116-.564c1.395 0 2.461.429 3.197 1.288.736.859 1.104 2.009 1.104 3.45v6.9h-2.116v-6.578c0-2.085-.928-3.128-2.783-3.128-.874 0-1.587.349-2.139 1.046-.552.698-.828 1.506-.828 2.426v6.233h-2.116v-11.27h2.024zm15.37 16.606c-1.334 0-2.423-.333-3.266-1s-1.449-1.43-1.817-2.288l1.932-.805c.215.613.609 1.127 1.184 1.541.575.414 1.23.621 1.966.621 1.165 0 2.081-.349 2.749-1.046.667-.698 1.001-1.644 1.001-2.841v-1.081h-.092c-.368.552-.889 1.012-1.564 1.38-.675.368-1.434.552-2.277.552-1.457 0-2.714-.575-3.772-1.725-1.058-1.15-1.587-2.576-1.587-4.278 0-1.702.529-3.128 1.587-4.278 1.058-1.15 2.315-1.725 3.772-1.725.843 0 1.602.184 2.277.552.675.368 1.196.828 1.564 1.38h.092v-1.564h2.024v10.695c0 1.932-.56 3.4-1.679 4.404s-2.484 1.506-4.094 1.506zm.161-6.9c.997 0 1.844-.368 2.542-1.104.698-.736 1.047-1.725 1.047-2.967s-.349-2.231-1.047-2.967c-.698-.736-1.545-1.104-2.542-1.104-.981 0-1.825.372-2.53 1.115-.705.744-1.058 1.729-1.058 2.956 0 1.227.353 2.212 1.058 2.955.705.744 1.549 1.116 2.53 1.116zm11.782 1.932c-1.196 0-2.196-.345-3.001-1.035-.805-.69-1.208-1.602-1.208-2.737 0-1.227.475-2.189 1.426-2.886.951-.698 2.124-1.046 3.519-1.046 1.242 0 2.262.23 3.059.69v-.322c0-.828-.284-1.491-.851-1.99-.567-.498-1.265-.747-2.093-.747-.613 0-1.169.146-1.667.437-.498.291-.839.69-1.024 1.196l-1.932-.828c.261-.675.774-1.299 1.541-1.875.767-.575 1.779-.862 3.036-.862 1.441 0 2.637.422 3.588 1.265.951.843 1.426 2.032 1.426 3.565v6.808h-2.024v-1.564h-.092c-.843 1.288-2.078 1.932-3.703 1.932zm.345-1.932c.874 0 1.667-.326 2.38-.977.713-.652 1.07-1.422 1.07-2.312-.598-.491-1.495-.736-2.691-.736-1.027 0-1.802.222-2.323.667-.521.445-.782.966-.782 1.564 0 .552.238.989.713 1.311.475.322 1.02.483 1.633.483zm10.034-9.706v1.564h.092c.307-.537.79-.993 1.449-1.369s1.365-.564 2.116-.564c1.395 0 2.461.429 3.197 1.288.736.859 1.104 2.009 1.104 3.45v6.9h-2.116v-6.578c0-2.085-.928-3.128-2.783-3.128-.874 0-1.587.349-2.139 1.046-.552.698-.828 1.506-.828 2.426v6.233h-2.116v-11.27h2.024z" fill="#5F6368"/><g fill-rule="nonzero"><path d="M236.367 19c-5.09 0-9.367-4.265-9.367-9.5s4.277-9.5 9.367-9.5c2.818 0 4.822 1.133 6.331 2.622l-1.776 1.827c-1.082-1.041-2.55-1.857-4.555-1.857-3.721 0-6.628 3.082-6.628 6.908 0 3.827 2.907 6.908 6.628 6.908 2.411 0 3.781-1 4.664-1.898.724-.745 1.191-1.806 1.369-3.265h-6.033v-2.602h8.494c.089.459.139 1.02.139 1.622 0 1.949-.516 4.357-2.183 6.071-1.627 1.735-3.691 2.663-6.45 2.663z" id="Shape" fill="#4285F4"/><path d="M259 13c0 3.456-2.69 6-6 6s-6-2.544-6-6c0-3.476 2.69-6 6-6s6 2.524 6 6zm-2.629 0c0-2.164-1.563-3.636-3.371-3.636-1.807 0-3.371 1.482-3.371 3.636 0 2.134 1.563 3.636 3.371 3.636 1.807 0 3.371-1.492 3.371-3.636z" id="Shape" fill="#E94235"/><path d="M272 13c0 3.456-2.69 6-6 6-3.299 0-6-2.544-6-6 0-3.476 2.69-6 6-6s6 2.524 6 6zm-2.619 0c0-2.164-1.563-3.636-3.371-3.636-1.807 0-3.371 1.482-3.371 3.636 0 2.134 1.563 3.636 3.371 3.636 1.807.01 3.371-1.492 3.371-3.636z" id="Shape" fill="#FABB05"/><path d="M284 7.362v10.531c0 4.336-2.499 6.107-5.457 6.107-2.786 0-4.452-1.908-5.084-3.465l2.192-.93c.393.959 1.35 2.085 2.891 2.085 1.896 0 3.064-1.204 3.064-3.445v-.842h-.086c-.565.714-1.656 1.331-3.025 1.331-2.872 0-5.495-2.554-5.495-5.843 0-3.308 2.633-5.892 5.495-5.892 1.369 0 2.46.626 3.025 1.311h.086v-.949h2.393zm-2.221 5.539c0-2.065-1.35-3.582-3.064-3.582-1.742 0-3.198 1.507-3.198 3.582 0 2.045 1.455 3.533 3.198 3.533 1.714 0 3.064-1.488 3.064-3.533z" id="Shape" fill="#4285F4"/><path id="Shape" fill="#34A853" d="M290 1v18h-3v-18z"/><path d="M299.844 14.973l2.046 1.362c-.662.982-2.256 2.664-5.014 2.664-3.419 0-5.876-2.634-5.876-6 0-3.566 2.487-6 5.585-6 3.119 0 4.643 2.474 5.144 3.816l.271.681-8.032 3.326c.612 1.202 1.574 1.823 2.918 1.823s2.276-.671 2.958-1.673zm-6.307-2.164l5.375-2.224c-.301-.751-1.183-1.272-2.236-1.272-1.344 0-3.209 1.182-3.139 3.496z" fill="#E94235"/></g></g></svg>
