<?xml version="1.0" encoding="UTF-8"?>
<svg width="302px" height="24px" viewBox="0 0 302 24" version="1.1" xmlns="http://www.w3.org/2000/svg" xmlns:xlink="http://www.w3.org/1999/xlink">
    <!-- Generator: Sketch 51.3 (57544) - http://www.bohemiancoding.com/sketch -->
    <title>SwG-id Copy-Black</title>
    <desc>Created with Sketch.</desc>
    <defs></defs>
    <g id="SwG-id-Copy" stroke="none" stroke-width="1" fill="none" fill-rule="evenodd">
        <path d="M1.656,18 L1.656,1.532 L7.613,1.532 C8.90100644,1.532 10.0164953,1.95749575 10.9595,2.8085 C11.9025047,3.65950426 12.374,4.72899356 12.374,6.017 C12.374,6.79900391 12.1708354,7.48899701 11.7645,8.087 C11.3581646,8.68500299 10.81767,9.1373318 10.143,9.444 L10.143,9.536 C10.9556707,9.81200138 11.6226641,10.28733 12.144,10.962 C12.6653359,11.63667 12.926,12.4186622 12.926,13.308 C12.926,14.6573401 12.4315049,15.7766622 11.4425,16.666 C10.4534951,17.5553378 9.28434008,18 7.935,18 L1.656,18 Z M3.772,8.593 L7.613,8.593 C8.41033732,8.593 9.05049759,8.32850265 9.5335,7.7995 C10.0165024,7.27049735 10.258,6.69166981 10.258,6.063 C10.258,5.43433019 10.024169,4.85933594 9.5565,4.338 C9.088831,3.81666406 8.4716705,3.556 7.705,3.556 L3.772,3.556 L3.772,8.593 Z M3.772,15.976 L8.027,15.976 C8.83967073,15.976 9.49899747,15.6923362 10.005,15.125 C10.5110025,14.5576638 10.764,13.93667 10.764,13.262 C10.764,12.58733 10.5033359,11.9701695 9.982,11.4105 C9.46066406,10.8508305 8.77833755,10.571 7.935,10.571 L3.772,10.571 L3.772,15.976 Z M20.19975,18.368 C18.4977415,18.368 17.113922,17.8006723 16.04825,16.666 C14.982578,15.5313277 14.44975,14.0976753 14.44975,12.365 C14.44975,10.7243251 14.9672448,9.31367257 16.00225,8.133 C17.0372552,6.95232743 18.359742,6.362 19.96975,6.362 C21.6410917,6.362 22.9789116,6.90632789 23.98325,7.995 C24.9875884,9.08367211 25.48975,10.5403242 25.48975,12.365 L25.46675,12.756 L16.56575,12.756 C16.6270836,13.8906723 17.0065798,14.7876634 17.70425,15.447 C18.4019202,16.1063366 19.218412,16.436 20.15375,16.436 C21.6717576,16.436 22.6990806,15.7920064 23.23575,14.504 L25.12175,15.286 C24.7537482,16.1600044 24.1480875,16.8921637 23.30475,17.4825 C22.4614124,18.0728363 21.4264228,18.368 20.19975,18.368 Z M23.23575,11.008 C23.1897498,10.3639968 22.8945861,9.75066958 22.35025,9.168 C21.8059139,8.58533042 20.9970887,8.294 19.92375,8.294 C19.1417461,8.294 18.4632529,8.53933088 17.88825,9.03 C17.3132471,9.52066912 16.9184177,10.1799959 16.70375,11.008 L23.23575,11.008 Z M29.6815,18 L27.5655,18 L27.5655,6.73 L29.5895,6.73 L29.5895,8.57 L29.6815,8.57 C29.8961677,7.9566636 30.3369967,7.45066866 31.004,7.052 C31.6710033,6.65333134 32.3188302,6.454 32.9475,6.454 C33.5761698,6.454 34.1051645,6.54599908 34.5345,6.73 L33.7295,8.708 C33.4534986,8.60066613 33.0778357,8.547 32.6025,8.547 C31.8358295,8.547 31.1573363,8.84983031 30.567,9.4555 C29.9766637,10.0611697 29.6815,10.8546618 29.6815,11.836 L29.6815,18 Z M38.28925,18 L36.17325,18 L36.17325,1.532 L38.28925,1.532 L38.28925,18 Z M44.459,18.368 C43.262994,18.368 42.262504,18.0230035 41.4575,17.333 C40.652496,16.6429965 40.25,15.7306723 40.25,14.596 C40.25,13.3693272 40.7253286,12.4071702 41.676,11.7095 C42.6266714,11.0118298 43.7996597,10.663 45.195,10.663 C46.4370062,10.663 47.4566627,10.8929977 48.254,11.353 L48.254,11.031 C48.254,10.2029959 47.9703362,9.53983583 47.403,9.0415 C46.8356638,8.54316418 46.1380041,8.294 45.31,8.294 C44.6966636,8.294 44.1408358,8.43966521 43.6425,8.731 C43.1441642,9.02233479 42.8030009,9.42099747 42.619,9.927 L40.687,9.099 C40.947668,8.42432996 41.4613295,7.79950287 42.228,7.2245 C42.9946705,6.64949712 44.0066604,6.362 45.264,6.362 C46.7053405,6.362 47.9013286,6.78366245 48.852,7.627 C49.8026714,8.47033755 50.278,9.658659 50.278,11.192 L50.278,18 L48.254,18 L48.254,16.436 L48.162,16.436 C47.3186624,17.7240064 46.0843415,18.368 44.459,18.368 Z M44.804,16.436 C45.6780044,16.436 46.4714964,16.1101699 47.1845,15.4585 C47.8975036,14.8068301 48.254,14.0363378 48.254,13.147 C47.655997,12.6563309 46.759006,12.411 45.563,12.411 C44.5356615,12.411 43.7613359,12.6333311 43.24,13.078 C42.7186641,13.5226689 42.458,14.043997 42.458,14.642 C42.458,15.1940028 42.6956643,15.6309984 43.171,15.953 C43.6463357,16.2750016 44.1906636,16.436 44.804,16.436 Z M54.83775,6.73 L54.83775,8.294 L54.92975,8.294 C55.2364182,7.75733065 55.7194134,7.30116854 56.37875,6.9255 C57.0380866,6.54983145 57.7434129,6.362 58.49475,6.362 C59.8900903,6.362 60.9557463,6.79132904 61.69175,7.65 C62.4277537,8.50867096 62.79575,9.65865946 62.79575,11.1 L62.79575,18 L60.67975,18 L60.67975,11.422 C60.67975,9.33665624 59.7520926,8.294 57.89675,8.294 C57.0227456,8.294 56.3097528,8.64282985 55.75775,9.3405 C55.2057472,10.0381702 54.92975,10.8469954 54.92975,11.767 L54.92975,18 L52.81375,18 L52.81375,6.73 L54.83775,6.73 Z M70.2075,23.336 C68.8734933,23.336 67.7848376,23.0025033 66.9415,22.3355 C66.0981625,21.6684967 65.4925018,20.905671 65.1245,20.047 L67.0565,19.242 C67.2711677,19.8553364 67.6659971,20.3689979 68.241,20.783 C68.8160029,21.1970021 69.4714963,21.404 70.2075,21.404 C71.3728392,21.404 72.2889967,21.0551702 72.956,20.3575 C73.6230033,19.6598298 73.9565,18.713006 73.9565,17.517 L73.9565,16.436 L73.8645,16.436 C73.4964982,16.9880028 72.97517,17.4479982 72.3005,17.816 C71.62583,18.1840018 70.8668376,18.368 70.0235,18.368 C68.5668261,18.368 67.3095053,17.7930058 66.2515,16.643 C65.1934947,15.4929943 64.6645,14.0670085 64.6645,12.365 C64.6645,10.6629915 65.1934947,9.23700575 66.2515,8.087 C67.3095053,6.93699425 68.5668261,6.362 70.0235,6.362 C70.8668376,6.362 71.62583,6.54599816 72.3005,6.914 C72.97517,7.28200184 73.4964982,7.74199724 73.8645,8.294 L73.9565,8.294 L73.9565,6.73 L75.9805,6.73 L75.9805,17.425 C75.9805,19.3570097 75.4208389,20.8251616 74.3015,21.8295 C73.1821611,22.8338384 71.8175081,23.336 70.2075,23.336 Z M70.3685,16.436 C71.3651717,16.436 72.2123298,16.0680037 72.91,15.332 C73.6076702,14.5959963 73.9565,13.6070062 73.9565,12.365 C73.9565,11.1229938 73.6076702,10.1340037 72.91,9.398 C72.2123298,8.66199632 71.3651717,8.294 70.3685,8.294 C69.3871618,8.294 68.5438369,8.66582961 67.8385,9.4095 C67.1331631,10.1531704 66.7805,11.1383272 66.7805,12.365 C66.7805,13.5916728 67.1331631,14.5768296 67.8385,15.3205 C68.5438369,16.0641704 69.3871618,16.436 70.3685,16.436 Z M83.48425,23.336 C82.1502433,23.336 81.0615875,23.0025033 80.21825,22.3355 C79.3749124,21.6684967 78.7692518,20.905671 78.40125,20.047 L80.33325,19.242 C80.5479177,19.8553364 80.9427471,20.3689979 81.51775,20.783 C82.0927529,21.1970021 82.7482463,21.404 83.48425,21.404 C84.6495892,21.404 85.5657467,21.0551702 86.23275,20.3575 C86.8997533,19.6598298 87.23325,18.713006 87.23325,17.517 L87.23325,16.436 L87.14125,16.436 C86.7732482,16.9880028 86.25192,17.4479982 85.57725,17.816 C84.90258,18.1840018 84.1435875,18.368 83.30025,18.368 C81.843576,18.368 80.5862553,17.7930058 79.52825,16.643 C78.4702447,15.4929943 77.94125,14.0670085 77.94125,12.365 C77.94125,10.6629915 78.4702447,9.23700575 79.52825,8.087 C80.5862553,6.93699425 81.843576,6.362 83.30025,6.362 C84.1435875,6.362 84.90258,6.54599816 85.57725,6.914 C86.25192,7.28200184 86.7732482,7.74199724 87.14125,8.294 L87.23325,8.294 L87.23325,6.73 L89.25725,6.73 L89.25725,17.425 C89.25725,19.3570097 88.6975889,20.8251616 87.57825,21.8295 C86.4589111,22.8338384 85.094258,23.336 83.48425,23.336 Z M83.64525,16.436 C84.6419217,16.436 85.4890798,16.0680037 86.18675,15.332 C86.8844202,14.5959963 87.23325,13.6070062 87.23325,12.365 C87.23325,11.1229938 86.8844202,10.1340037 86.18675,9.398 C85.4890798,8.66199632 84.6419217,8.294 83.64525,8.294 C82.6639118,8.294 81.8205869,8.66582961 81.11525,9.4095 C80.4099131,10.1531704 80.05725,11.1383272 80.05725,12.365 C80.05725,13.5916728 80.4099131,14.5768296 81.11525,15.3205 C81.8205869,16.0641704 82.6639118,16.436 83.64525,16.436 Z M95.427,18.368 C94.230994,18.368 93.230504,18.0230035 92.4255,17.333 C91.620496,16.6429965 91.218,15.7306723 91.218,14.596 C91.218,13.3693272 91.6933286,12.4071702 92.644,11.7095 C93.5946714,11.0118298 94.7676597,10.663 96.163,10.663 C97.4050062,10.663 98.4246627,10.8929977 99.222,11.353 L99.222,11.031 C99.222,10.2029959 98.9383362,9.53983583 98.371,9.0415 C97.8036638,8.54316418 97.1060041,8.294 96.278,8.294 C95.6646636,8.294 95.1088358,8.43966521 94.6105,8.731 C94.1121642,9.02233479 93.7710009,9.42099747 93.587,9.927 L91.655,9.099 C91.915668,8.42432996 92.4293295,7.79950287 93.196,7.2245 C93.9626705,6.64949712 94.9746604,6.362 96.232,6.362 C97.6733405,6.362 98.8693286,6.78366245 99.82,7.627 C100.770671,8.47033755 101.246,9.658659 101.246,11.192 L101.246,18 L99.222,18 L99.222,16.436 L99.13,16.436 C98.2866624,17.7240064 97.0523415,18.368 95.427,18.368 Z M95.772,16.436 C96.6460044,16.436 97.4394964,16.1101699 98.1525,15.4585 C98.8655036,14.8068301 99.222,14.0363378 99.222,13.147 C98.623997,12.6563309 97.727006,12.411 96.531,12.411 C95.5036615,12.411 94.7293359,12.6333311 94.208,13.078 C93.6866641,13.5226689 93.426,14.043997 93.426,14.642 C93.426,15.1940028 93.6636643,15.6309984 94.139,15.953 C94.6143357,16.2750016 95.1586636,16.436 95.772,16.436 Z M105.80575,6.73 L105.80575,8.294 L105.89775,8.294 C106.204418,7.75733065 106.687413,7.30116854 107.34675,6.9255 C108.006087,6.54983145 108.711413,6.362 109.46275,6.362 C110.85809,6.362 111.923746,6.79132904 112.65975,7.65 C113.395754,8.50867096 113.76375,9.65865946 113.76375,11.1 L113.76375,18 L111.64775,18 L111.64775,11.422 C111.64775,9.33665624 110.720093,8.294 108.86475,8.294 C107.990746,8.294 107.277753,8.64282985 106.72575,9.3405 C106.173747,10.0381702 105.89775,10.8469954 105.89775,11.767 L105.89775,18 L103.78175,18 L103.78175,6.73 L105.80575,6.73 Z M119.8415,18.368 C118.645494,18.368 117.645004,18.0230035 116.84,17.333 C116.034996,16.6429965 115.6325,15.7306723 115.6325,14.596 C115.6325,13.3693272 116.107829,12.4071702 117.0585,11.7095 C118.009171,11.0118298 119.18216,10.663 120.5775,10.663 C121.819506,10.663 122.839163,10.8929977 123.6365,11.353 L123.6365,11.031 C123.6365,10.2029959 123.352836,9.53983583 122.7855,9.0415 C122.218164,8.54316418 121.520504,8.294 120.6925,8.294 C120.079164,8.294 119.523336,8.43966521 119.025,8.731 C118.526664,9.02233479 118.185501,9.42099747 118.0015,9.927 L116.0695,9.099 C116.330168,8.42432996 116.843829,7.79950287 117.6105,7.2245 C118.377171,6.64949712 119.38916,6.362 120.6465,6.362 C122.087841,6.362 123.283829,6.78366245 124.2345,7.627 C125.185171,8.47033755 125.6605,9.658659 125.6605,11.192 L125.6605,18 L123.6365,18 L123.6365,16.436 L123.5445,16.436 C122.701162,17.7240064 121.466841,18.368 119.8415,18.368 Z M120.1865,16.436 C121.060504,16.436 121.853996,16.1101699 122.567,15.4585 C123.280004,14.8068301 123.6365,14.0363378 123.6365,13.147 C123.038497,12.6563309 122.141506,12.411 120.9455,12.411 C119.918162,12.411 119.143836,12.6333311 118.6225,13.078 C118.101164,13.5226689 117.8405,14.043997 117.8405,14.642 C117.8405,15.1940028 118.078164,15.6309984 118.5535,15.953 C119.028836,16.2750016 119.573164,16.436 120.1865,16.436 Z M130.22025,6.73 L130.22025,8.294 L130.31225,8.294 C130.618918,7.75733065 131.101913,7.30116854 131.76125,6.9255 C132.420587,6.54983145 133.125913,6.362 133.87725,6.362 C135.27259,6.362 136.338246,6.79132904 137.07425,7.65 C137.810254,8.50867096 138.17825,9.65865946 138.17825,11.1 L138.17825,18 L136.06225,18 L136.06225,11.422 C136.06225,9.33665624 135.134593,8.294 133.27925,8.294 C132.405246,8.294 131.692253,8.64282985 131.14025,9.3405 C130.588247,10.0381702 130.31225,10.8469954 130.31225,11.767 L130.31225,18 L128.19625,18 L128.19625,6.73 L130.22025,6.73 Z M150.72475,18.368 C149.268076,18.368 148.010755,17.7930057 146.95275,16.643 C145.894745,15.4929942 145.36575,14.0670085 145.36575,12.365 C145.36575,10.6629915 145.894745,9.23700575 146.95275,8.087 C148.010755,6.93699425 149.268076,6.362 150.72475,6.362 C151.583421,6.362 152.353913,6.54599816 153.03625,6.914 C153.718587,7.28200184 154.228415,7.74199724 154.56575,8.294 L154.65775,8.294 L154.56575,6.73 L154.56575,1.532 L156.68175,1.532 L156.68175,18 L154.65775,18 L154.65775,16.436 L154.56575,16.436 C154.228415,16.9880028 153.718587,17.4479982 153.03625,17.816 C152.353913,18.1840018 151.583421,18.368 150.72475,18.368 Z M151.06975,16.436 C152.066422,16.436 152.91358,16.0680037 153.61125,15.332 C154.30892,14.5959963 154.65775,13.6070062 154.65775,12.365 C154.65775,11.1229938 154.30892,10.1340037 153.61125,9.398 C152.91358,8.66199632 152.066422,8.294 151.06975,8.294 C150.088412,8.294 149.245087,8.66582961 148.53975,9.4095 C147.834413,10.1531704 147.48175,11.1383272 147.48175,12.365 C147.48175,13.5916728 147.834413,14.5768296 148.53975,15.3205 C149.245087,16.0641704 150.088412,16.436 151.06975,16.436 Z M164.3925,18.368 C162.690491,18.368 161.306672,17.8006723 160.241,16.666 C159.175328,15.5313277 158.6425,14.0976753 158.6425,12.365 C158.6425,10.7243251 159.159995,9.31367257 160.195,8.133 C161.230005,6.95232743 162.552492,6.362 164.1625,6.362 C165.833842,6.362 167.171662,6.90632789 168.176,7.995 C169.180338,9.08367211 169.6825,10.5403242 169.6825,12.365 L169.6595,12.756 L160.7585,12.756 C160.819834,13.8906723 161.19933,14.7876634 161.897,15.447 C162.59467,16.1063366 163.411162,16.436 164.3465,16.436 C165.864508,16.436 166.891831,15.7920064 167.4285,14.504 L169.3145,15.286 C168.946498,16.1600044 168.340838,16.8921637 167.4975,17.4825 C166.654162,18.0728363 165.619173,18.368 164.3925,18.368 Z M167.4285,11.008 C167.3825,10.3639968 167.087336,9.75066958 166.543,9.168 C165.998664,8.58533042 165.189839,8.294 164.1165,8.294 C163.334496,8.294 162.656003,8.53933088 162.081,9.03 C161.505997,9.52066912 161.111168,10.1799959 160.8965,11.008 L167.4285,11.008 Z M173.78225,6.73 L173.78225,8.294 L173.87425,8.294 C174.180918,7.75733065 174.663913,7.30116854 175.32325,6.9255 C175.982587,6.54983145 176.687913,6.362 177.43925,6.362 C178.83459,6.362 179.900246,6.79132904 180.63625,7.65 C181.372254,8.50867096 181.74025,9.65865946 181.74025,11.1 L181.74025,18 L179.62425,18 L179.62425,11.422 C179.62425,9.33665624 178.696593,8.294 176.84125,8.294 C175.967246,8.294 175.254253,8.64282985 174.70225,9.3405 C174.150247,10.0381702 173.87425,10.8469954 173.87425,11.767 L173.87425,18 L171.75825,18 L171.75825,6.73 L173.78225,6.73 Z M189.152,23.336 C187.817993,23.336 186.729338,23.0025033 185.886,22.3355 C185.042662,21.6684967 184.437002,20.905671 184.069,20.047 L186.001,19.242 C186.215668,19.8553364 186.610497,20.3689979 187.1855,20.783 C187.760503,21.1970021 188.415996,21.404 189.152,21.404 C190.317339,21.404 191.233497,21.0551702 191.9005,20.3575 C192.567503,19.6598298 192.901,18.713006 192.901,17.517 L192.901,16.436 L192.809,16.436 C192.440998,16.9880028 191.91967,17.4479982 191.245,17.816 C190.57033,18.1840018 189.811338,18.368 188.968,18.368 C187.511326,18.368 186.254005,17.7930058 185.196,16.643 C184.137995,15.4929943 183.609,14.0670085 183.609,12.365 C183.609,10.6629915 184.137995,9.23700575 185.196,8.087 C186.254005,6.93699425 187.511326,6.362 188.968,6.362 C189.811338,6.362 190.57033,6.54599816 191.245,6.914 C191.91967,7.28200184 192.440998,7.74199724 192.809,8.294 L192.901,8.294 L192.901,6.73 L194.925,6.73 L194.925,17.425 C194.925,19.3570097 194.365339,20.8251616 193.246,21.8295 C192.126661,22.8338384 190.762008,23.336 189.152,23.336 Z M189.313,16.436 C190.309672,16.436 191.15683,16.0680037 191.8545,15.332 C192.55217,14.5959963 192.901,13.6070062 192.901,12.365 C192.901,11.1229938 192.55217,10.1340037 191.8545,9.398 C191.15683,8.66199632 190.309672,8.294 189.313,8.294 C188.331662,8.294 187.488337,8.66582961 186.783,9.4095 C186.077663,10.1531704 185.725,11.1383272 185.725,12.365 C185.725,13.5916728 186.077663,14.5768296 186.783,15.3205 C187.488337,16.0641704 188.331662,16.436 189.313,16.436 Z M201.09475,18.368 C199.898744,18.368 198.898254,18.0230035 198.09325,17.333 C197.288246,16.6429965 196.88575,15.7306723 196.88575,14.596 C196.88575,13.3693272 197.361079,12.4071702 198.31175,11.7095 C199.262421,11.0118298 200.43541,10.663 201.83075,10.663 C203.072756,10.663 204.092413,10.8929977 204.88975,11.353 L204.88975,11.031 C204.88975,10.2029959 204.606086,9.53983583 204.03875,9.0415 C203.471414,8.54316418 202.773754,8.294 201.94575,8.294 C201.332414,8.294 200.776586,8.43966521 200.27825,8.731 C199.779914,9.02233479 199.438751,9.42099747 199.25475,9.927 L197.32275,9.099 C197.583418,8.42432996 198.09708,7.79950287 198.86375,7.2245 C199.63042,6.64949712 200.64241,6.362 201.89975,6.362 C203.341091,6.362 204.537079,6.78366245 205.48775,7.627 C206.438421,8.47033755 206.91375,9.658659 206.91375,11.192 L206.91375,18 L204.88975,18 L204.88975,16.436 L204.79775,16.436 C203.954412,17.7240064 202.720091,18.368 201.09475,18.368 Z M201.43975,16.436 C202.313754,16.436 203.107246,16.1101699 203.82025,15.4585 C204.533254,14.8068301 204.88975,14.0363378 204.88975,13.147 C204.291747,12.6563309 203.394756,12.411 202.19875,12.411 C201.171412,12.411 200.397086,12.6333311 199.87575,13.078 C199.354414,13.5226689 199.09375,14.043997 199.09375,14.642 C199.09375,15.1940028 199.331414,15.6309984 199.80675,15.953 C200.282086,16.2750016 200.826414,16.436 201.43975,16.436 Z M211.4735,6.73 L211.4735,8.294 L211.5655,8.294 C211.872168,7.75733065 212.355163,7.30116854 213.0145,6.9255 C213.673837,6.54983145 214.379163,6.362 215.1305,6.362 C216.52584,6.362 217.591496,6.79132904 218.3275,7.65 C219.063504,8.50867096 219.4315,9.65865946 219.4315,11.1 L219.4315,18 L217.3155,18 L217.3155,11.422 C217.3155,9.33665624 216.387843,8.294 214.5325,8.294 C213.658496,8.294 212.945503,8.64282985 212.3935,9.3405 C211.841497,10.0381702 211.5655,10.8469954 211.5655,11.767 L211.5655,18 L209.4495,18 L209.4495,6.73 L211.4735,6.73 Z" id="Berlangganan-dengan" fill="#FFFFFF"></path>
        <g id="Group" transform="translate(227.000000, 0.000000)" fill="#FFFFFF" fill-rule="nonzero">
            <path d="M9.36714443,19 C4.27673649,19 0,14.7346939 0,9.5 C0,4.26530612 4.27673649,0 9.36714443,0 C12.185226,0 14.1896362,1.13265306 15.6979052,2.62244898 L13.92172,4.44897959 C12.8401323,3.40816327 11.3715546,2.59183673 9.36714443,2.59183673 C5.646086,2.59183673 2.73869901,5.67346939 2.73869901,9.5 C2.73869901,13.3265306 5.646086,16.4081633 9.36714443,16.4081633 C11.7783903,16.4081633 13.1477398,15.4081633 14.030871,14.5102041 C14.755237,13.7653061 15.2216097,12.7040816 15.4002205,11.244898 L9.36714443,11.244898 L9.36714443,8.64285714 L17.8610805,8.64285714 C17.9503859,9.10204082 18,9.66326531 18,10.2653061 C18,12.2142857 17.4840132,14.622449 15.8169791,16.3367347 C14.1896362,18.0714286 12.1256891,19 9.36714443,19 Z" id="Shape"></path>
            <path d="M32,13 C32,16.4557596 29.3096447,19 26,19 C22.6903553,19 20,16.4557596 20,13 C20,9.52420701 22.6903553,7 26,7 C29.3096447,7 32,9.52420701 32,13 Z M29.3705584,13 C29.3705584,10.836394 27.8071066,9.3639399 26,9.3639399 C24.1928934,9.3639399 22.6294416,10.8464107 22.6294416,13 C22.6294416,15.1335559 24.1928934,16.6360601 26,16.6360601 C27.8071066,16.6360601 29.3705584,15.1435726 29.3705584,13 Z" id="Shape"></path>
            <path d="M45,13 C45,16.4557596 42.3096447,19 39,19 C35.7005076,19 33,16.4557596 33,13 C33,9.52420701 35.6903553,7 39,7 C42.3096447,7 45,9.52420701 45,13 Z M42.3807107,13 C42.3807107,10.836394 40.8172589,9.3639399 39.0101523,9.3639399 C37.2030457,9.3639399 35.6395939,10.8464107 35.6395939,13 C35.6395939,15.1335559 37.2030457,16.6360601 39.0101523,16.6360601 C40.8172589,16.6460768 42.3807107,15.1435726 42.3807107,13 Z" id="Shape"></path>
            <path d="M57,7.3621186 L57,17.8929188 C57,22.228555 54.5013055,24 51.5430809,24 C48.7571802,24 47.0913838,22.0915371 46.45953,20.5354059 L48.6518712,19.6056419 C49.0443864,20.5647668 50.0017406,21.6902706 51.5430809,21.6902706 C53.4386423,21.6902706 54.6066144,20.4864709 54.6066144,18.2452504 L54.6066144,17.4035694 L54.5204526,17.4035694 C53.9556136,18.1180196 52.8642298,18.7345999 51.4952132,18.7345999 C48.6231506,18.7345999 46,16.1801957 46,12.8917674 C46,9.58376511 48.6327241,7 51.4952132,7 C52.8642298,7 53.9556136,7.6263673 54.5204526,8.31145653 L54.6066144,8.31145653 L54.6066144,7.3621186 L57,7.3621186 Z M54.7789382,12.9015544 C54.7789382,10.8364997 53.4290688,9.31951641 51.7154047,9.31951641 C49.97302,9.31951641 48.5178416,10.8267127 48.5178416,12.9015544 C48.5178416,14.9470351 49.97302,16.4346575 51.7154047,16.4346575 C53.4290688,16.4346575 54.7789382,14.9470351 54.7789382,12.9015544 Z" id="Shape"></path>
            <polygon id="Shape" points="63 1 63 19 60 19 60 1"></polygon>
            <path d="M72.8441203,14.9732888 L74.8896992,16.3355593 C74.2278943,17.3171953 72.633546,19 69.8760255,19 C66.4567001,19 64,16.3656093 64,13 C64,9.43405676 66.4867821,7 69.5852325,7 C72.7037375,7 74.2278943,9.47412354 74.7292616,10.8163606 L75,11.4974958 L66.9680948,14.8230384 C67.579763,16.0250417 68.5423883,16.6460768 69.8860529,16.6460768 C71.2297174,16.6460768 72.1622607,15.9749583 72.8441203,14.9732888 Z M66.5369189,12.8096828 L71.911577,10.5859766 C71.6107566,9.83472454 70.72835,9.31385643 69.6754786,9.31385643 C68.331814,9.31385643 66.4667274,10.4958264 66.5369189,12.8096828 Z" id="Shape"></path>
        </g>
    </g>
</svg>