<?xml version="1.0" encoding="UTF-8"?>
<svg width="356px" height="24px" viewBox="0 0 356 24" version="1.1" xmlns="http://www.w3.org/2000/svg" xmlns:xlink="http://www.w3.org/1999/xlink">
    <!-- Generator: Sketch 51.3 (57544) - http://www.bohemiancoding.com/sketch -->
    <title>SwG-IT-WOB</title>
    <desc>Created with Sketch.</desc>
    <defs></defs>
    <g id="SwG-IT-WOB" stroke="none" stroke-width="1" fill="none" fill-rule="evenodd">
        <path d="M11.6439999,19 L9.61999986,19 L9.61999986,17.436 L9.52799986,17.436 C9.20599825,17.9726693 8.71533649,18.4288315 8.05599986,18.8045 C7.39666323,19.1801685 6.69900354,19.368 5.96299986,19.368 C4.55232614,19.368 3.48283683,18.938671 2.75449986,18.08 C2.02616288,17.221329 1.66199986,16.0713405 1.66199986,14.63 L1.66199986,7.73 L3.77799986,7.73 L3.77799986,14.285 C3.77799986,16.3856772 4.70565725,17.436 6.56099986,17.436 C7.43500423,17.436 8.1479971,17.0833369 8.69999986,16.378 C9.25200262,15.6726631 9.52799986,14.8600046 9.52799986,13.94 L9.52799986,7.73 L11.6439999,7.73 L11.6439999,19 Z M14.1567499,19 L14.1567499,17.16 L20.5737499,9.662 L14.3407499,9.662 L14.3407499,7.73 L23.1727499,7.73 L23.1727499,9.57 L16.7557499,17.068 L23.2647499,17.068 L23.2647499,19 L14.1567499,19 Z M15.6057499,2.647 L15.6057499,2.532 L17.6527499,2.532 L18.8027499,3.912 L18.9867499,3.912 L20.1367499,2.532 L22.1837499,2.532 L22.1837499,2.647 L19.8147499,5.338 L17.9747499,5.338 L15.6057499,2.647 Z M31.5274999,19.368 C30.6688289,19.368 29.8983366,19.1840018 29.2159999,18.816 C28.5336631,18.4479982 28.0238349,17.9880028 27.6864999,17.436 L27.5944999,17.436 L27.6864999,19 L27.6864999,23.968 L25.5704999,23.968 L25.5704999,7.73 L27.5944999,7.73 L27.5944999,9.294 L27.6864999,9.294 C28.0238349,8.74199724 28.5336631,8.28200184 29.2159999,7.914 C29.8983366,7.54599816 30.6688289,7.362 31.5274999,7.362 C32.9841738,7.362 34.2414946,7.93699425 35.2994999,9.087 C36.3575052,10.2370057 36.8864999,11.6629915 36.8864999,13.365 C36.8864999,15.0670085 36.3575052,16.4929943 35.2994999,17.643 C34.2414946,18.7930057 32.9841738,19.368 31.5274999,19.368 Z M31.1824999,17.436 C32.1638381,17.436 33.007163,17.0641704 33.7124999,16.3205 C34.4178367,15.5768296 34.7704999,14.5916728 34.7704999,13.365 C34.7704999,12.1383272 34.4178367,11.1531704 33.7124999,10.4095 C33.007163,9.66582962 32.1638381,9.294 31.1824999,9.294 C30.1858282,9.294 29.33867,9.66199632 28.6409999,10.398 C27.9433297,11.1340037 27.5944999,12.1229938 27.5944999,13.365 C27.5944999,14.6070062 27.9433297,15.5959963 28.6409999,16.332 C29.33867,17.0680037 30.1858282,17.436 31.1824999,17.436 Z M40.9632499,19 L38.8472499,19 L38.8472499,7.73 L40.8712499,7.73 L40.8712499,9.57 L40.9632499,9.57 C41.1779176,8.9566636 41.6187466,8.45066866 42.2857499,8.052 C42.9527532,7.65333134 43.6005801,7.454 44.2292499,7.454 C44.8579197,7.454 45.3869144,7.54599908 45.8162499,7.73 L45.0112499,9.708 C44.7352485,9.60066613 44.3595856,9.547 43.8842499,9.547 C43.1175794,9.547 42.4390862,9.84983031 41.8487499,10.4555 C41.2584136,11.0611697 40.9632499,11.8546618 40.9632499,12.836 L40.9632499,19 Z M51.7559999,19.368 C50.0539914,19.368 48.6701719,18.8006723 47.6044999,17.666 C46.5388279,16.5313277 46.0059999,15.0976753 46.0059999,13.365 C46.0059999,11.7243251 46.5234947,10.3136726 47.5584999,9.133 C48.5935051,7.95232743 49.9159919,7.362 51.5259999,7.362 C53.1973416,7.362 54.5351615,7.90632789 55.5394999,8.995 C56.5438383,10.0836721 57.0459999,11.5403242 57.0459999,13.365 L57.0229999,13.756 L48.1219999,13.756 C48.1833335,14.8906723 48.5628297,15.7876634 49.2604999,16.447 C49.9581701,17.1063366 50.7746619,17.436 51.7099999,17.436 C53.2280075,17.436 54.2553306,16.7920064 54.7919999,15.504 L56.6779999,16.286 C56.3099981,17.1600044 55.7043375,17.8921637 54.8609999,18.4825 C54.0176624,19.0728363 52.9826727,19.368 51.7559999,19.368 Z M54.7919999,12.008 C54.7459997,11.3639968 54.450836,10.7506696 53.9064999,10.168 C53.3621638,9.58533042 52.5533386,9.294 51.4799999,9.294 C50.697996,9.294 50.0195028,9.53933088 49.4444999,10.03 C48.869497,10.5206691 48.4746676,11.1799959 48.2599999,12.008 L54.7919999,12.008 Z M61.1457499,7.73 L61.1457499,9.294 L61.2377499,9.294 C61.5444181,8.75733065 62.0274133,8.30116854 62.6867499,7.9255 C63.3460865,7.54983145 64.0514128,7.362 64.8027499,7.362 C66.1980902,7.362 67.2637462,7.79132904 67.9997499,8.65 C68.7357536,9.50867096 69.1037499,10.6586595 69.1037499,12.1 L69.1037499,19 L66.9877499,19 L66.9877499,12.422 C66.9877499,10.3366562 66.0600925,9.294 64.2047499,9.294 C63.3307455,9.294 62.6177527,9.64282985 62.0657499,10.3405 C61.5137472,11.0381702 61.2377499,11.8469954 61.2377499,12.767 L61.2377499,19 L59.1217499,19 L59.1217499,7.73 L61.1457499,7.73 Z M81.6214999,19 L79.5974999,19 L79.5974999,17.436 L79.5054999,17.436 C79.1834983,17.9726693 78.6928366,18.4288315 78.0334999,18.8045 C77.3741633,19.1801685 76.6765036,19.368 75.9404999,19.368 C74.5298262,19.368 73.4603369,18.938671 72.7319999,18.08 C72.003663,17.221329 71.6394999,16.0713405 71.6394999,14.63 L71.6394999,7.73 L73.7554999,7.73 L73.7554999,14.285 C73.7554999,16.3856772 74.6831573,17.436 76.5384999,17.436 C77.4125043,17.436 78.1254972,17.0833369 78.6774999,16.378 C79.2295027,15.6726631 79.5054999,14.8600046 79.5054999,13.94 L79.5054999,7.73 L81.6214999,7.73 L81.6214999,19 Z M84.3412499,19 L84.3412499,7.73 L86.3652499,7.73 L86.3652499,9.294 L86.4572499,9.294 C86.7792516,8.75733065 87.2737466,8.30116854 87.9407499,7.9255 C88.6077533,7.54983145 89.2709133,7.362 89.9302499,7.362 C91.6782587,7.362 92.8665801,8.08265946 93.4952499,9.524 C94.4152545,8.08265946 95.7262414,7.362 97.4282499,7.362 C98.7622566,7.362 99.7665799,7.78749575 100.44125,8.6385 C101.11592,9.48950426 101.45325,10.6433261 101.45325,12.1 L101.45325,19 L99.3372499,19 L99.3372499,12.422 C99.3372499,11.2873277 99.130252,10.4823357 98.7162499,10.007 C98.3022479,9.53166429 97.6735875,9.294 96.8302499,9.294 C96.0022458,9.294 95.316086,9.64666314 94.7717499,10.352 C94.2274139,11.0573369 93.9552499,11.8623288 93.9552499,12.767 L93.9552499,19 L91.8392499,19 L91.8392499,12.422 C91.8392499,11.2873277 91.632252,10.4823357 91.2182499,10.007 C90.8042479,9.53166429 90.1755875,9.294 89.3322499,9.294 C88.5042458,9.294 87.818086,9.64666314 87.2737499,10.352 C86.7294139,11.0573369 86.4572499,11.8623288 86.4572499,12.767 L86.4572499,19 L84.3412499,19 Z M109.187,19.368 C107.484991,19.368 106.101172,18.8006723 105.0355,17.666 C103.969828,16.5313277 103.437,15.0976753 103.437,13.365 C103.437,11.7243251 103.954495,10.3136726 104.9895,9.133 C106.024505,7.95232743 107.346992,7.362 108.957,7.362 C110.628342,7.362 111.966162,7.90632789 112.9705,8.995 C113.974838,10.0836721 114.477,11.5403242 114.477,13.365 L114.454,13.756 L105.553,13.756 C105.614334,14.8906723 105.99383,15.7876634 106.6915,16.447 C107.38917,17.1063366 108.205662,17.436 109.141,17.436 C110.659008,17.436 111.686331,16.7920064 112.223,15.504 L114.109,16.286 C113.740998,17.1600044 113.135338,17.8921637 112.292,18.4825 C111.448662,19.0728363 110.413673,19.368 109.187,19.368 Z M112.223,12.008 C112.177,11.3639968 111.881836,10.7506696 111.3375,10.168 C110.793164,9.58533042 109.984339,9.294 108.911,9.294 C108.128996,9.294 107.450503,9.53933088 106.8755,10.03 C106.300497,10.5206691 105.905668,11.1799959 105.691,12.008 L112.223,12.008 Z M118.66875,19 L116.55275,19 L116.55275,7.73 L118.57675,7.73 L118.57675,9.57 L118.66875,9.57 C118.883418,8.9566636 119.324247,8.45066866 119.99125,8.052 C120.658253,7.65333134 121.30608,7.454 121.93475,7.454 C122.56342,7.454 123.092414,7.54599908 123.52175,7.73 L122.71675,9.708 C122.440749,9.60066613 122.065086,9.547 121.58975,9.547 C120.823079,9.547 120.144586,9.84983031 119.55425,10.4555 C118.963914,11.0611697 118.66875,11.8546618 118.66875,12.836 L118.66875,19 Z M134.9355,19 L132.9115,19 L132.9115,17.436 L132.8195,17.436 C132.497498,17.9726693 132.006837,18.4288315 131.3475,18.8045 C130.688163,19.1801685 129.990504,19.368 129.2545,19.368 C127.843826,19.368 126.774337,18.938671 126.046,18.08 C125.317663,17.221329 124.9535,16.0713405 124.9535,14.63 L124.9535,7.73 L127.0695,7.73 L127.0695,14.285 C127.0695,16.3856772 127.997157,17.436 129.8525,17.436 C130.726504,17.436 131.439497,17.0833369 131.9915,16.378 C132.543503,15.6726631 132.8195,14.8600046 132.8195,13.94 L132.8195,7.73 L134.9355,7.73 L134.9355,19 Z M138.52925,9.087 C139.617922,7.93699425 141.005575,7.362 142.69225,7.362 C144.378925,7.362 145.766578,7.93316096 146.85525,9.0755 C147.943922,10.217839 148.48825,11.6476581 148.48825,13.365 C148.48825,15.0823419 147.943922,16.512161 146.85525,17.6545 C145.766578,18.796839 144.378925,19.368 142.69225,19.368 C141.005575,19.368 139.617922,18.796839 138.52925,17.6545 C137.440578,16.512161 136.89625,15.0823419 136.89625,13.365 C136.89625,11.6476581 137.440578,10.2216723 138.52925,9.087 Z M140.09325,16.332 C140.829254,17.0680037 141.695578,17.436 142.69225,17.436 C143.688922,17.436 144.551413,17.0641704 145.27975,16.3205 C146.008087,15.5768296 146.37225,14.5916728 146.37225,13.365 C146.37225,12.1383272 146.008087,11.1531704 145.27975,10.4095 C144.551413,9.66582962 143.688922,9.294 142.69225,9.294 C141.695578,9.294 140.833087,9.66582962 140.10475,10.4095 C139.376413,11.1531704 139.01225,12.1383272 139.01225,13.365 C139.01225,14.5916728 139.37258,15.5806629 140.09325,16.332 Z M155.095,19.184 C153.914327,19.184 153.013503,18.8696698 152.3925,18.241 C151.771497,17.6123302 151.461,16.7230057 151.461,15.573 L151.461,9.662 L149.483,9.662 L149.483,7.73 L151.461,7.73 L151.461,4.28 L153.577,4.28 L153.577,7.73 L156.337,7.73 L156.337,9.662 L153.577,9.662 L153.577,15.412 C153.577,16.6386728 154.082995,17.252 155.095,17.252 C155.478335,17.252 155.800332,17.1906673 156.061,17.068 L156.797,18.885 C156.336998,19.0843343 155.76967,19.184 155.095,19.184 Z M161.83975,19.368 C160.643744,19.368 159.643254,19.0230035 158.83825,18.333 C158.033246,17.6429965 157.63075,16.7306723 157.63075,15.596 C157.63075,14.3693272 158.106079,13.4071702 159.05675,12.7095 C160.007421,12.0118298 161.18041,11.663 162.57575,11.663 C163.817756,11.663 164.837413,11.8929977 165.63475,12.353 L165.63475,12.031 C165.63475,11.2029959 165.351086,10.5398358 164.78375,10.0415 C164.216414,9.54316418 163.518754,9.294 162.69075,9.294 C162.077414,9.294 161.521586,9.43966521 161.02325,9.731 C160.524914,10.0223348 160.183751,10.4209975 159.99975,10.927 L158.06775,10.099 C158.328418,9.42432996 158.84208,8.79950287 159.60875,8.2245 C160.375421,7.64949712 161.38741,7.362 162.64475,7.362 C164.086091,7.362 165.282079,7.78366245 166.23275,8.627 C167.183421,9.47033755 167.65875,10.658659 167.65875,12.192 L167.65875,19 L165.63475,19 L165.63475,17.436 L165.54275,17.436 C164.699412,18.7240064 163.465091,19.368 161.83975,19.368 Z M162.18475,17.436 C163.058754,17.436 163.852246,17.1101699 164.56525,16.4585 C165.278254,15.8068301 165.63475,15.0363378 165.63475,14.147 C165.036747,13.6563309 164.139756,13.411 162.94375,13.411 C161.916412,13.411 161.142086,13.6333311 160.62075,14.078 C160.099414,14.5226689 159.83875,15.043997 159.83875,15.642 C159.83875,16.1940028 160.076414,16.6309984 160.55175,16.953 C161.027086,17.2750016 161.571414,17.436 162.18475,17.436 Z M177.42225,7.73 L177.42225,9.294 L177.51425,9.294 C177.820918,8.75733065 178.303913,8.30116854 178.96325,7.9255 C179.622587,7.54983145 180.327913,7.362 181.07925,7.362 C182.47459,7.362 183.540246,7.79132904 184.27625,8.65 C185.012254,9.50867096 185.38025,10.6586595 185.38025,12.1 L185.38025,19 L183.26425,19 L183.26425,12.422 C183.26425,10.3366562 182.336593,9.294 180.48125,9.294 C179.607246,9.294 178.894253,9.64282985 178.34225,10.3405 C177.790247,11.0381702 177.51425,11.8469954 177.51425,12.767 L177.51425,19 L175.39825,19 L175.39825,7.73 L177.42225,7.73 Z M191.458,19.368 C190.261994,19.368 189.261504,19.0230035 188.4565,18.333 C187.651496,17.6429965 187.249,16.7306723 187.249,15.596 C187.249,14.3693272 187.724329,13.4071702 188.675,12.7095 C189.625671,12.0118298 190.79866,11.663 192.194,11.663 C193.436006,11.663 194.455663,11.8929977 195.253,12.353 L195.253,12.031 C195.253,11.2029959 194.969336,10.5398358 194.402,10.0415 C193.834664,9.54316418 193.137004,9.294 192.309,9.294 C191.695664,9.294 191.139836,9.43966521 190.6415,9.731 C190.143164,10.0223348 189.802001,10.4209975 189.618,10.927 L187.686,10.099 C187.946668,9.42432996 188.46033,8.79950287 189.227,8.2245 C189.993671,7.64949712 191.00566,7.362 192.263,7.362 C193.704341,7.362 194.900329,7.78366245 195.851,8.627 C196.801671,9.47033755 197.277,10.658659 197.277,12.192 L197.277,19 L195.253,19 L195.253,17.436 L195.161,17.436 C194.317662,18.7240064 193.083342,19.368 191.458,19.368 Z M191.803,17.436 C192.677004,17.436 193.470496,17.1101699 194.1835,16.4585 C194.896504,15.8068301 195.253,15.0363378 195.253,14.147 C194.654997,13.6563309 193.758006,13.411 192.562,13.411 C191.534662,13.411 190.760336,13.6333311 190.239,14.078 C189.717664,14.5226689 189.457,15.043997 189.457,15.642 C189.457,16.1940028 189.694664,16.6309984 190.17,16.953 C190.645336,17.2750016 191.189664,17.436 191.803,17.436 Z M209.70275,19 L207.67875,19 L207.67875,17.436 L207.58675,17.436 C207.264748,17.9726693 206.774087,18.4288315 206.11475,18.8045 C205.455413,19.1801685 204.757754,19.368 204.02175,19.368 C202.611076,19.368 201.541587,18.938671 200.81325,18.08 C200.084913,17.221329 199.72075,16.0713405 199.72075,14.63 L199.72075,7.73 L201.83675,7.73 L201.83675,14.285 C201.83675,16.3856772 202.764407,17.436 204.61975,17.436 C205.493754,17.436 206.206747,17.0833369 206.75875,16.378 C207.310753,15.6726631 207.58675,14.8600046 207.58675,13.94 L207.58675,7.73 L209.70275,7.73 L209.70275,19 Z M217.0225,19.368 C215.565826,19.368 214.308505,18.7930057 213.2505,17.643 C212.192495,16.4929942 211.6635,15.0670085 211.6635,13.365 C211.6635,11.6629915 212.192495,10.2370057 213.2505,9.087 C214.308505,7.93699425 215.565826,7.362 217.0225,7.362 C217.881171,7.362 218.651663,7.54599816 219.334,7.914 C220.016337,8.28200184 220.526165,8.74199724 220.8635,9.294 L220.9555,9.294 L220.8635,7.73 L220.8635,2.532 L222.9795,2.532 L222.9795,19 L220.9555,19 L220.9555,17.436 L220.8635,17.436 C220.526165,17.9880028 220.016337,18.4479982 219.334,18.816 C218.651663,19.1840018 217.881171,19.368 217.0225,19.368 Z M217.3675,17.436 C218.364172,17.436 219.21133,17.0680037 219.909,16.332 C220.60667,15.5959963 220.9555,14.6070062 220.9555,13.365 C220.9555,12.1229938 220.60667,11.1340037 219.909,10.398 C219.21133,9.66199632 218.364172,9.294 217.3675,9.294 C216.386162,9.294 215.542837,9.66582962 214.8375,10.4095 C214.132163,11.1531704 213.7795,12.1383272 213.7795,13.365 C213.7795,14.5916728 214.132163,15.5768296 214.8375,16.3205 C215.542837,17.0641704 216.386162,17.436 217.3675,17.436 Z M226.57325,9.087 C227.661922,7.93699425 229.049575,7.362 230.73625,7.362 C232.422925,7.362 233.810578,7.93316096 234.89925,9.0755 C235.987922,10.217839 236.53225,11.6476581 236.53225,13.365 C236.53225,15.0823419 235.987922,16.512161 234.89925,17.6545 C233.810578,18.796839 232.422925,19.368 230.73625,19.368 C229.049575,19.368 227.661922,18.796839 226.57325,17.6545 C225.484578,16.512161 224.94025,15.0823419 224.94025,13.365 C224.94025,11.6476581 225.484578,10.2216723 226.57325,9.087 Z M228.13725,16.332 C228.873254,17.0680037 229.739578,17.436 230.73625,17.436 C231.732922,17.436 232.595413,17.0641704 233.32375,16.3205 C234.052087,15.5768296 234.41625,14.5916728 234.41625,13.365 C234.41625,12.1383272 234.052087,11.1531704 233.32375,10.4095 C232.595413,9.66582962 231.732922,9.294 230.73625,9.294 C229.739578,9.294 228.877087,9.66582962 228.14875,10.4095 C227.420413,11.1531704 227.05625,12.1383272 227.05625,13.365 C227.05625,14.5916728 227.41658,15.5806629 228.13725,16.332 Z M240.793,4.901 C240.501665,5.19233479 240.149002,5.338 239.735,5.338 C239.320998,5.338 238.968335,5.19233479 238.677,4.901 C238.385665,4.60966521 238.24,4.25700207 238.24,3.843 C238.24,3.42899793 238.385665,3.07633479 238.677,2.785 C238.968335,2.49366521 239.320998,2.348 239.735,2.348 C240.149002,2.348 240.501665,2.49366521 240.793,2.785 C241.084335,3.07633479 241.23,3.42899793 241.23,3.843 C241.23,4.25700207 241.084335,4.60966521 240.793,4.901 Z M237.412,24.198 C236.997998,24.198 236.584002,24.1213341 236.17,23.968 L236.722,22.128 C236.921334,22.2200005 237.128332,22.266 237.343,22.266 C238.232338,22.266 238.677,21.6833392 238.677,20.518 L238.677,7.73 L240.793,7.73 L240.793,20.518 C240.793,21.7600062 240.494003,22.6838303 239.896,23.2895 C239.297997,23.8951697 238.470005,24.198 237.412,24.198 Z M247.14675,19.368 C245.950744,19.368 244.950254,19.0230035 244.14525,18.333 C243.340246,17.6429965 242.93775,16.7306723 242.93775,15.596 C242.93775,14.3693272 243.413079,13.4071702 244.36375,12.7095 C245.314422,12.0118298 246.48741,11.663 247.88275,11.663 C249.124756,11.663 250.144413,11.8929977 250.94175,12.353 L250.94175,12.031 C250.94175,11.2029959 250.658086,10.5398358 250.09075,10.0415 C249.523414,9.54316418 248.825754,9.294 247.99775,9.294 C247.384414,9.294 246.828586,9.43966521 246.33025,9.731 C245.831914,10.0223348 245.490751,10.4209975 245.30675,10.927 L243.37475,10.099 C243.635418,9.42432996 244.14908,8.79950287 244.91575,8.2245 C245.682421,7.64949712 246.69441,7.362 247.95175,7.362 C249.393091,7.362 250.589079,7.78366245 251.53975,8.627 C252.490422,9.47033755 252.96575,10.658659 252.96575,12.192 L252.96575,19 L250.94175,19 L250.94175,17.436 L250.84975,17.436 C250.006413,18.7240064 248.772092,19.368 247.14675,19.368 Z M247.49175,17.436 C248.365754,17.436 249.159247,17.1101699 249.87225,16.4585 C250.585254,15.8068301 250.94175,15.0363378 250.94175,14.147 C250.343747,13.6563309 249.446756,13.411 248.25075,13.411 C247.223412,13.411 246.449086,13.6333311 245.92775,14.078 C245.406414,14.5226689 245.14575,15.043997 245.14575,15.642 C245.14575,16.1940028 245.383414,16.6309984 245.85875,16.953 C246.334086,17.2750016 246.878414,17.436 247.49175,17.436 Z M257.5255,7.73 L257.5255,9.294 L257.6175,9.294 C257.924168,8.75733065 258.407163,8.30116854 259.0665,7.9255 C259.725837,7.54983145 260.431163,7.362 261.1825,7.362 C262.57784,7.362 263.643496,7.79132904 264.3795,8.65 C265.115504,9.50867096 265.4835,10.6586595 265.4835,12.1 L265.4835,19 L263.3675,19 L263.3675,12.422 C263.3675,10.3366562 262.439843,9.294 260.5845,9.294 C259.710496,9.294 258.997503,9.64282985 258.4455,10.3405 C257.893497,11.0381702 257.6175,11.8469954 257.6175,12.767 L257.6175,19 L255.5015,19 L255.5015,7.73 L257.5255,7.73 Z M272.41225,19.184 C271.231578,19.184 270.330753,18.8696698 269.70975,18.241 C269.088747,17.6123302 268.77825,16.7230057 268.77825,15.573 L268.77825,9.662 L266.80025,9.662 L266.80025,7.73 L268.77825,7.73 L268.77825,4.28 L270.89425,4.28 L270.89425,7.73 L273.65425,7.73 L273.65425,9.662 L270.89425,9.662 L270.89425,15.412 C270.89425,16.6386728 271.400245,17.252 272.41225,17.252 C272.795585,17.252 273.117582,17.1906673 273.37825,17.068 L274.11425,18.885 C273.654248,19.0843343 273.08692,19.184 272.41225,19.184 Z" id="užprenumeruota-naudo" fill="#FFFFFF"></path>
        <g id="Group" transform="translate(281.000000, 0.000000)" fill="#FFFFFF" fill-rule="nonzero">
            <path d="M9.36714443,19 C4.27673649,19 0,14.7346939 0,9.5 C0,4.26530612 4.27673649,0 9.36714443,0 C12.185226,0 14.1896362,1.13265306 15.6979052,2.62244898 L13.92172,4.44897959 C12.8401323,3.40816327 11.3715546,2.59183673 9.36714443,2.59183673 C5.646086,2.59183673 2.73869901,5.67346939 2.73869901,9.5 C2.73869901,13.3265306 5.646086,16.4081633 9.36714443,16.4081633 C11.7783903,16.4081633 13.1477398,15.4081633 14.030871,14.5102041 C14.755237,13.7653061 15.2216097,12.7040816 15.4002205,11.244898 L9.36714443,11.244898 L9.36714443,8.64285714 L17.8610805,8.64285714 C17.9503859,9.10204082 18,9.66326531 18,10.2653061 C18,12.2142857 17.4840132,14.622449 15.8169791,16.3367347 C14.1896362,18.0714286 12.1256891,19 9.36714443,19 Z" id="Shape"></path>
            <path d="M32,13 C32,16.4557596 29.3096447,19 26,19 C22.6903553,19 20,16.4557596 20,13 C20,9.52420701 22.6903553,7 26,7 C29.3096447,7 32,9.52420701 32,13 Z M29.3705584,13 C29.3705584,10.836394 27.8071066,9.3639399 26,9.3639399 C24.1928934,9.3639399 22.6294416,10.8464107 22.6294416,13 C22.6294416,15.1335559 24.1928934,16.6360601 26,16.6360601 C27.8071066,16.6360601 29.3705584,15.1435726 29.3705584,13 Z" id="Shape"></path>
            <path d="M45,13 C45,16.4557596 42.3096447,19 39,19 C35.7005076,19 33,16.4557596 33,13 C33,9.52420701 35.6903553,7 39,7 C42.3096447,7 45,9.52420701 45,13 Z M42.3807107,13 C42.3807107,10.836394 40.8172589,9.3639399 39.0101523,9.3639399 C37.2030457,9.3639399 35.6395939,10.8464107 35.6395939,13 C35.6395939,15.1335559 37.2030457,16.6360601 39.0101523,16.6360601 C40.8172589,16.6460768 42.3807107,15.1435726 42.3807107,13 Z" id="Shape"></path>
            <path d="M57,7.3621186 L57,17.8929188 C57,22.228555 54.5013055,24 51.5430809,24 C48.7571802,24 47.0913838,22.0915371 46.45953,20.5354059 L48.6518712,19.6056419 C49.0443864,20.5647668 50.0017406,21.6902706 51.5430809,21.6902706 C53.4386423,21.6902706 54.6066144,20.4864709 54.6066144,18.2452504 L54.6066144,17.4035694 L54.5204526,17.4035694 C53.9556136,18.1180196 52.8642298,18.7345999 51.4952132,18.7345999 C48.6231506,18.7345999 46,16.1801957 46,12.8917674 C46,9.58376511 48.6327241,7 51.4952132,7 C52.8642298,7 53.9556136,7.6263673 54.5204526,8.31145653 L54.6066144,8.31145653 L54.6066144,7.3621186 L57,7.3621186 Z M54.7789382,12.9015544 C54.7789382,10.8364997 53.4290688,9.31951641 51.7154047,9.31951641 C49.97302,9.31951641 48.5178416,10.8267127 48.5178416,12.9015544 C48.5178416,14.9470351 49.97302,16.4346575 51.7154047,16.4346575 C53.4290688,16.4346575 54.7789382,14.9470351 54.7789382,12.9015544 Z" id="Shape"></path>
            <polygon id="Shape" points="63 1 63 19 60 19 60 1"></polygon>
            <path d="M72.8441203,14.9732888 L74.8896992,16.3355593 C74.2278943,17.3171953 72.633546,19 69.8760255,19 C66.4567001,19 64,16.3656093 64,13 C64,9.43405676 66.4867821,7 69.5852325,7 C72.7037375,7 74.2278943,9.47412354 74.7292616,10.8163606 L75,11.4974958 L66.9680948,14.8230384 C67.579763,16.0250417 68.5423883,16.6460768 69.8860529,16.6460768 C71.2297174,16.6460768 72.1622607,15.9749583 72.8441203,14.9732888 Z M66.5369189,12.8096828 L71.911577,10.5859766 C71.6107566,9.83472454 70.72835,9.31385643 69.6754786,9.31385643 C68.331814,9.31385643 66.4667274,10.4958264 66.5369189,12.8096828 Z" id="Shape"></path>
        </g>
    </g>
</svg>