<svg width="144" height="24" viewBox="0 0 144 24" xmlns="http://www.w3.org/2000/svg"><title>SwG-JP-White</title><desc>Created with Sketch.</desc><g fill="none"><path d="M94.144 6.959c1.012.989 1.84 2.024 2.484 3.082l-.989.713c-.69-1.15-1.495-2.185-2.392-3.082l.897-.713zm-2.208 1.541c.989.966 1.817 2.001 2.484 3.128l-.989.69c-.69-1.15-1.495-2.162-2.415-3.082l.92-.736zm3.91-4.83l.046 1.541-4.14.184c-.69 0-1.587.414-2.645 1.242-1.15.874-2.116 1.909-2.875 3.105-.897 1.38-1.334 2.783-1.334 4.186 0 1.61.69 2.898 2.093 3.841 1.495.966 3.68 1.495 6.578 1.587l-.322 1.587c-3.358-.046-5.911-.69-7.636-1.932-1.656-1.173-2.484-2.829-2.484-4.968 0-1.84.598-3.588 1.817-5.198.989-1.38 2.254-2.507 3.818-3.381-3.404.276-7.13.598-11.132 1.012l-.23-1.633c7.36-.713 13.501-1.104 18.446-1.173zm4.353-1.587h6.233v13.961h-6.233v-13.961zm4.738 12.581v-3.013h-3.243v3.013h3.243zm-3.243-4.37h3.243v-2.829h-3.243v2.829zm0-4.163h3.243v-2.668h-3.243v2.668zm3.266 10.672c1.012 1.518 1.771 2.875 2.323 4.048l-1.196.828c-.552-1.265-1.334-2.645-2.3-4.163l1.173-.713zm-3.45.046l1.265.598c-.552 1.564-1.288 3.082-2.208 4.577l-1.288-.667c.943-1.518 1.679-3.013 2.231-4.508zm9.016-15.709h1.495v1.748h3.588v-1.748h1.518v1.748h2.76v1.311h-2.76v1.587h2.346v1.265h-2.346v1.587h3.22v1.311h-5.819v1.472h4.646v5.796h1.242v1.357h-1.242v1.955c0 1.104-.621 1.679-1.863 1.679h-1.863l-.368-1.357 1.771.046c.529 0 .805-.253.805-.713v-1.61h-7.728v3.657h-1.518v-3.657h-1.357v-1.357h1.357v-5.796h4.6v-1.472h-5.727v-1.311h3.243v-1.587h-2.346v-1.265h2.346v-1.587h-2.783v-1.311h2.783v-1.748zm-.598 16.077h3.082v-1.725h-3.082v1.725zm4.6 0h3.128v-1.725h-3.128v1.725zm-2.507-8.579h3.588v-1.587h-3.588v1.587zm0-2.852h3.588v-1.587h-3.588v1.587zm5.635 8.556v-1.679h-3.128v1.679h3.128zm-4.646-1.679h-3.082v1.679h3.082v-1.679zm17.693-9.315h5.106v-2.139h1.633v2.139h5.129v1.472h-5.129v2.047h4.37v1.472h-10.281v-1.472h4.278v-2.047h-5.106v-1.472zm12.121 6.67v3.772h-1.495v-2.346h-9.292v2.346h-1.495v-3.772h12.282zm-8.947 3.197h1.472c0 1.909-.23 3.519-.69 4.853-.598 1.748-1.955 3.174-4.071 4.278l-1.035-1.265c1.817-.92 3.036-2.07 3.634-3.427.46-1.173.69-2.645.69-4.439zm7.498 8.74h-2.162c-.552 0-.966-.184-1.242-.506-.276-.345-.414-.782-.414-1.311v-6.923h1.472v6.624c0 .483.207.736.667.736h1.38c.253 0 .46-.069.598-.207.207-.207.345-1.196.414-2.967l1.449.483c-.161 1.978-.391 3.151-.667 3.542-.299.322-.805.506-1.495.529zm-18.722-17.687h3.151c-.322-.943-.713-1.84-1.173-2.691l1.587-.437c.46 1.012.805 1.955 1.081 2.783l-.92.345h3.427v1.472h-7.153v-1.472zm.828 3.335h5.658v1.38h-5.658v-1.38zm0 3.197h5.658v1.38h-5.658v-1.38zm5.842 3.404v6.578h-4.531v1.173h-1.495v-7.751h6.026zm-4.531 5.175h3.059v-3.818h-3.059v3.818z" fill="#5F6368"/><g fill-rule="nonzero"><path d="M9.367 19c-5.09 0-9.367-4.265-9.367-9.5s4.277-9.5 9.367-9.5c2.818 0 4.822 1.133 6.331 2.622l-1.776 1.827c-1.082-1.041-2.55-1.857-4.555-1.857-3.721 0-6.628 3.082-6.628 6.908 0 3.827 2.907 6.908 6.628 6.908 2.411 0 3.781-1 4.664-1.898.724-.745 1.191-1.806 1.369-3.265h-6.033v-2.602h8.494c.089.459.139 1.02.139 1.622 0 1.949-.516 4.357-2.183 6.071-1.627 1.735-3.691 2.663-6.45 2.663z" id="Shape" fill="#4285F4"/><path d="M32 13c0 3.456-2.69 6-6 6s-6-2.544-6-6c0-3.476 2.69-6 6-6s6 2.524 6 6zm-2.629 0c0-2.164-1.563-3.636-3.371-3.636-1.807 0-3.371 1.482-3.371 3.636 0 2.134 1.563 3.636 3.371 3.636 1.807 0 3.371-1.492 3.371-3.636z" id="Shape" fill="#E94235"/><path d="M45 13c0 3.456-2.69 6-6 6-3.299 0-6-2.544-6-6 0-3.476 2.69-6 6-6s6 2.524 6 6zm-2.619 0c0-2.164-1.563-3.636-3.371-3.636-1.807 0-3.371 1.482-3.371 3.636 0 2.134 1.563 3.636 3.371 3.636 1.807.01 3.371-1.492 3.371-3.636z" id="Shape" fill="#FABB05"/><path d="M57 7.362v10.531c0 4.336-2.499 6.107-5.457 6.107-2.786 0-4.452-1.908-5.084-3.465l2.192-.93c.393.959 1.35 2.085 2.891 2.085 1.896 0 3.064-1.204 3.064-3.445v-.842h-.086c-.565.714-1.656 1.331-3.025 1.331-2.872 0-5.495-2.554-5.495-5.843 0-3.308 2.633-5.892 5.495-5.892 1.369 0 2.46.626 3.025 1.311h.086v-.949h2.393zm-2.221 5.539c0-2.065-1.35-3.582-3.064-3.582-1.742 0-3.198 1.507-3.198 3.582 0 2.045 1.455 3.533 3.198 3.533 1.714 0 3.064-1.488 3.064-3.533z" id="Shape" fill="#4285F4"/><path id="Shape" fill="#34A853" d="M63 1v18h-3v-18z"/><path d="M72.844 14.973l2.046 1.362c-.662.982-2.256 2.664-5.014 2.664-3.419 0-5.876-2.634-5.876-6 0-3.566 2.487-6 5.585-6 3.119 0 4.643 2.474 5.144 3.816l.271.681-8.032 3.326c.612 1.202 1.574 1.823 2.918 1.823s2.276-.671 2.958-1.673zm-6.307-2.164l5.375-2.224c-.301-.751-1.183-1.272-2.236-1.272-1.344 0-3.209 1.182-3.139 3.496z" fill="#E94235"/></g></g></svg>
