<?xml version="1.0" encoding="UTF-8"?>
<svg width="215px" height="24px" viewBox="0 0 215 24" version="1.1" xmlns="http://www.w3.org/2000/svg" xmlns:xlink="http://www.w3.org/1999/xlink">
    <!-- Generator: Sketch 51.3 (57544) - http://www.bohemiancoding.com/sketch -->
    <title>SwG-JP-WOB</title>
    <desc>Created with Sketch.</desc>
    <defs></defs>
    <g id="SwG-JP-WOB" stroke="none" stroke-width="1" fill="none" fill-rule="evenodd">
        <g id="Group" transform="translate(140.000000, 0.000000)" fill="#FFFFFF" fill-rule="nonzero">
            <path d="M9.36714443,19 C4.27673649,19 0,14.7346939 0,9.5 C0,4.26530612 4.27673649,0 9.36714443,0 C12.185226,0 14.1896362,1.13265306 15.6979052,2.62244898 L13.92172,4.44897959 C12.8401323,3.40816327 11.3715546,2.59183673 9.36714443,2.59183673 C5.646086,2.59183673 2.73869901,5.67346939 2.73869901,9.5 C2.73869901,13.3265306 5.646086,16.4081633 9.36714443,16.4081633 C11.7783903,16.4081633 13.1477398,15.4081633 14.030871,14.5102041 C14.755237,13.7653061 15.2216097,12.7040816 15.4002205,11.244898 L9.36714443,11.244898 L9.36714443,8.64285714 L17.8610805,8.64285714 C17.9503859,9.10204082 18,9.66326531 18,10.2653061 C18,12.2142857 17.4840132,14.622449 15.8169791,16.3367347 C14.1896362,18.0714286 12.1256891,19 9.36714443,19 Z" id="Shape"></path>
            <path d="M32,13 C32,16.4557596 29.3096447,19 26,19 C22.6903553,19 20,16.4557596 20,13 C20,9.52420701 22.6903553,7 26,7 C29.3096447,7 32,9.52420701 32,13 Z M29.3705584,13 C29.3705584,10.836394 27.8071066,9.3639399 26,9.3639399 C24.1928934,9.3639399 22.6294416,10.8464107 22.6294416,13 C22.6294416,15.1335559 24.1928934,16.6360601 26,16.6360601 C27.8071066,16.6360601 29.3705584,15.1435726 29.3705584,13 Z" id="Shape"></path>
            <path d="M45,13 C45,16.4557596 42.3096447,19 39,19 C35.7005076,19 33,16.4557596 33,13 C33,9.52420701 35.6903553,7 39,7 C42.3096447,7 45,9.52420701 45,13 Z M42.3807107,13 C42.3807107,10.836394 40.8172589,9.3639399 39.0101523,9.3639399 C37.2030457,9.3639399 35.6395939,10.8464107 35.6395939,13 C35.6395939,15.1335559 37.2030457,16.6360601 39.0101523,16.6360601 C40.8172589,16.6460768 42.3807107,15.1435726 42.3807107,13 Z" id="Shape"></path>
            <path d="M57,7.3621186 L57,17.8929188 C57,22.228555 54.5013055,24 51.5430809,24 C48.7571802,24 47.0913838,22.0915371 46.45953,20.5354059 L48.6518712,19.6056419 C49.0443864,20.5647668 50.0017406,21.6902706 51.5430809,21.6902706 C53.4386423,21.6902706 54.6066144,20.4864709 54.6066144,18.2452504 L54.6066144,17.4035694 L54.5204526,17.4035694 C53.9556136,18.1180196 52.8642298,18.7345999 51.4952132,18.7345999 C48.6231506,18.7345999 46,16.1801957 46,12.8917674 C46,9.58376511 48.6327241,7 51.4952132,7 C52.8642298,7 53.9556136,7.6263673 54.5204526,8.31145653 L54.6066144,8.31145653 L54.6066144,7.3621186 L57,7.3621186 Z M54.7789382,12.9015544 C54.7789382,10.8364997 53.4290688,9.31951641 51.7154047,9.31951641 C49.97302,9.31951641 48.5178416,10.8267127 48.5178416,12.9015544 C48.5178416,14.9470351 49.97302,16.4346575 51.7154047,16.4346575 C53.4290688,16.4346575 54.7789382,14.9470351 54.7789382,12.9015544 Z" id="Shape"></path>
            <polygon id="Shape" points="63 1 63 19 60 19 60 1"></polygon>
            <path d="M72.8441203,14.9732888 L74.8896992,16.3355593 C74.2278943,17.3171953 72.633546,19 69.8760255,19 C66.4567001,19 64,16.3656093 64,13 C64,9.43405676 66.4867821,7 69.5852325,7 C72.7037375,7 74.2278943,9.47412354 74.7292616,10.8163606 L75,11.4974958 L66.9680948,14.8230384 C67.579763,16.0250417 68.5423883,16.6460768 69.8860529,16.6460768 C71.2297174,16.6460768 72.1622607,15.9749583 72.8441203,14.9732888 Z M66.5369189,12.8096828 L71.911577,10.5859766 C71.6107566,9.83472454 70.72835,9.31385643 69.6754786,9.31385643 C68.331814,9.31385643 66.4667274,10.4958264 66.5369189,12.8096828 Z" id="Shape"></path>
        </g>
        <path d="M17.00975,5.292 C16.29675,7.431 15.35375,9.179 14.18075,10.513 L12.80075,9.547 C14.68675,7.293 15.90575,4.142 16.45775,0.14 L18.11375,0.393 C17.92975,1.589 17.72275,2.693 17.46975,3.705 L27.12975,3.705 L27.12975,4.786 C26.64675,6.741 26.02575,8.673 25.24375,10.582 L23.61075,10.122 C24.32375,8.696 24.89875,7.086 25.35875,5.292 L17.00975,5.292 Z M19.37875,6.856 L20.98875,6.856 C20.98875,8.098 20.91975,9.248 20.80475,10.306 C22.18475,14.4 24.59975,17.643 28.07275,20.035 L26.99175,21.3 C24.00175,19.046 21.79375,16.286 20.32175,12.974 C20.18375,13.549 20.02275,14.078 19.83875,14.584 C18.84975,17.344 16.59575,19.598 13.05375,21.346 L11.97275,20.035 C15.10075,18.517 17.17075,16.585 18.20575,14.285 C18.94175,12.33 19.33275,9.846 19.37875,6.856 Z M8.38474996,1.198 C10.17875,2.992 11.55875,4.556 12.52475,5.89 L11.23675,6.81 C10.20175,5.384 8.79874996,3.774 7.05074996,2.026 L8.38474996,1.198 Z M11.19075,11.065 L12.63975,11.617 C11.35175,14.791 9.92574996,17.781 8.33874996,20.564 L6.79774996,19.874 C8.49974996,16.999 9.94874996,14.055 11.19075,11.065 Z M47.6515,3.222 L47.7665,4.763 C45.4435,5.016 42.4765,5.154 38.8425,5.2 C38.0145,6.649 37.1405,7.868 36.2435,8.88 C37.4625,7.914 38.6815,7.454 39.9005,7.454 C41.0735,7.454 41.9705,7.891 42.5685,8.765 C42.7065,8.995 42.8445,9.248 42.9595,9.524 C44.5695,8.949 46.4325,8.397 48.5485,7.868 L49.0315,9.432 C46.9155,9.915 45.0065,10.467 43.3275,11.088 C43.3735,11.433 43.3965,11.801 43.3965,12.215 L43.3965,16.194 L41.7635,16.194 L41.7635,12.468 C41.7635,12.192 41.7405,11.939 41.7405,11.709 C41.4875,11.801 41.2575,11.916 41.0275,12.031 C38.1755,13.342 36.7495,14.699 36.7495,16.079 C36.7495,16.93 37.2555,17.551 38.3135,17.942 C39.1645,18.241 40.4065,18.402 42.0625,18.402 C44.1325,18.402 46.1105,18.218 47.9965,17.896 L48.1575,19.506 C46.1565,19.828 44.1325,19.989 42.0625,19.989 C39.8545,19.989 38.1755,19.713 37.0255,19.161 C35.6915,18.517 35.0245,17.482 35.0245,16.079 C35.0245,14.216 36.4735,12.537 39.4175,11.042 C40.0155,10.72 40.6825,10.421 41.4185,10.122 C41.0505,9.271 40.4525,8.857 39.6245,8.857 C37.6465,8.857 35.4155,10.306 32.9315,13.204 L31.7355,12.1 C33.5295,10.122 34.9785,8.328 36.0595,6.718 C36.3815,6.212 36.6805,5.706 37.0025,5.2 C35.8065,5.2 34.1735,5.177 32.1495,5.154 L32.1725,3.59 C34.1505,3.59 36.0595,3.613 37.8535,3.613 C38.3135,2.647 38.7505,1.658 39.1645,0.623 L40.7055,1.221 C40.3605,2.049 40.0155,2.854 39.6705,3.613 C42.9825,3.567 45.6275,3.452 47.6515,3.222 Z M53.95925,1.083 L60.19225,1.083 L60.19225,15.044 L53.95925,15.044 L53.95925,1.083 Z M58.69725,13.664 L58.69725,10.651 L55.45425,10.651 L55.45425,13.664 L58.69725,13.664 Z M55.45425,9.294 L58.69725,9.294 L58.69725,6.465 L55.45425,6.465 L55.45425,9.294 Z M55.45425,5.131 L58.69725,5.131 L58.69725,2.463 L55.45425,2.463 L55.45425,5.131 Z M58.72025,15.803 C59.73225,17.321 60.49125,18.678 61.04325,19.851 L59.84725,20.679 C59.29525,19.414 58.51325,18.034 57.54725,16.516 L58.72025,15.803 Z M55.27025,15.849 L56.53525,16.447 C55.98325,18.011 55.24725,19.529 54.32725,21.024 L53.03925,20.357 C53.98225,18.839 54.71825,17.344 55.27025,15.849 Z M64.28625,0.14 L65.78125,0.14 L65.78125,1.888 L69.36925,1.888 L69.36925,0.14 L70.88725,0.14 L70.88725,1.888 L73.64725,1.888 L73.64725,3.199 L70.88725,3.199 L70.88725,4.786 L73.23325,4.786 L73.23325,6.051 L70.88725,6.051 L70.88725,7.638 L74.10725,7.638 L74.10725,8.949 L68.28825,8.949 L68.28825,10.421 L72.93425,10.421 L72.93425,16.217 L74.17625,16.217 L74.17625,17.574 L72.93425,17.574 L72.93425,19.529 C72.93425,20.633 72.31325,21.208 71.07125,21.208 L69.20825,21.208 L68.84025,19.851 L70.61125,19.897 C71.14025,19.897 71.41625,19.644 71.41625,19.184 L71.41625,17.574 L63.68825,17.574 L63.68825,21.231 L62.17025,21.231 L62.17025,17.574 L60.81325,17.574 L60.81325,16.217 L62.17025,16.217 L62.17025,10.421 L66.77025,10.421 L66.77025,8.949 L61.04325,8.949 L61.04325,7.638 L64.28625,7.638 L64.28625,6.051 L61.94025,6.051 L61.94025,4.786 L64.28625,4.786 L64.28625,3.199 L61.50325,3.199 L61.50325,1.888 L64.28625,1.888 L64.28625,0.14 Z M63.68825,16.217 L66.77025,16.217 L66.77025,14.492 L63.68825,14.492 L63.68825,16.217 Z M68.28825,16.217 L71.41625,16.217 L71.41625,14.492 L68.28825,14.492 L68.28825,16.217 Z M65.78125,7.638 L69.36925,7.638 L69.36925,6.051 L65.78125,6.051 L65.78125,7.638 Z M65.78125,4.786 L69.36925,4.786 L69.36925,3.199 L65.78125,3.199 L65.78125,4.786 Z M71.41625,13.342 L71.41625,11.663 L68.28825,11.663 L68.28825,13.342 L71.41625,13.342 Z M66.77025,11.663 L63.68825,11.663 L63.68825,13.342 L66.77025,13.342 L66.77025,11.663 Z M84.463,2.348 L89.569,2.348 L89.569,0.209 L91.202,0.209 L91.202,2.348 L96.331,2.348 L96.331,3.82 L91.202,3.82 L91.202,5.867 L95.572,5.867 L95.572,7.339 L85.291,7.339 L85.291,5.867 L89.569,5.867 L89.569,3.82 L84.463,3.82 L84.463,2.348 Z M96.584,9.018 L96.584,12.79 L95.089,12.79 L95.089,10.444 L85.797,10.444 L85.797,12.79 L84.302,12.79 L84.302,9.018 L96.584,9.018 Z M87.637,12.215 L89.109,12.215 C89.109,14.124 88.879,15.734 88.419,17.068 C87.821,18.816 86.464,20.242 84.348,21.346 L83.313,20.081 C85.13,19.161 86.349,18.011 86.947,16.654 C87.407,15.481 87.637,14.009 87.637,12.215 Z M95.135,20.955 L92.973,20.955 C92.421,20.955 92.007,20.771 91.731,20.449 C91.455,20.104 91.317,19.667 91.317,19.138 L91.317,12.215 L92.789,12.215 L92.789,18.839 C92.789,19.322 92.996,19.575 93.456,19.575 L94.836,19.575 C95.089,19.575 95.296,19.506 95.434,19.368 C95.641,19.161 95.779,18.172 95.848,16.401 L97.297,16.884 C97.136,18.862 96.906,20.035 96.63,20.426 C96.331,20.748 95.825,20.932 95.135,20.955 Z M76.413,3.268 L79.564,3.268 C79.242,2.325 78.851,1.428 78.391,0.577 L79.978,0.14 C80.438,1.152 80.783,2.095 81.059,2.923 L80.139,3.268 L83.566,3.268 L83.566,4.74 L76.413,4.74 L76.413,3.268 Z M77.241,6.603 L82.899,6.603 L82.899,7.983 L77.241,7.983 L77.241,6.603 Z M77.241,9.8 L82.899,9.8 L82.899,11.18 L77.241,11.18 L77.241,9.8 Z M83.083,13.204 L83.083,19.782 L78.552,19.782 L78.552,20.955 L77.057,20.955 L77.057,13.204 L83.083,13.204 Z M78.552,18.379 L81.611,18.379 L81.611,14.561 L78.552,14.561 L78.552,18.379 Z M109.12475,0.117 L110.82675,0.117 L110.82675,4.257 L119.08375,4.257 L119.08375,15.067 L117.42775,15.067 L117.42775,13.618 L110.82675,13.618 L110.82675,21.461 L109.12475,21.461 L109.12475,13.618 L102.54675,13.618 L102.54675,15.067 L100.89075,15.067 L100.89075,4.257 L109.12475,4.257 L109.12475,0.117 Z M102.54675,12.008 L109.12475,12.008 L109.12475,5.867 L102.54675,5.867 L102.54675,12.008 Z M110.82675,12.008 L117.42775,12.008 L117.42775,5.867 L110.82675,5.867 L110.82675,12.008 Z M125.3915,18.678 C125.084832,18.9846682 124.716836,19.138 124.2875,19.138 C123.858165,19.138 123.490168,18.9846682 123.1835,18.678 C122.876832,18.3713318 122.7235,18.0033355 122.7235,17.574 C122.7235,17.1446645 122.876832,16.7766682 123.1835,16.47 C123.490168,16.1633318 123.858165,16.01 124.2875,16.01 C124.716836,16.01 125.084832,16.1633318 125.3915,16.47 C125.698168,16.7766682 125.8515,17.1446645 125.8515,17.574 C125.8515,18.0033355 125.698168,18.3713318 125.3915,18.678 Z M125.3915,10.26 C125.084832,10.5666682 124.716836,10.72 124.2875,10.72 C123.858165,10.72 123.490168,10.5666682 123.1835,10.26 C122.876832,9.9533318 122.7235,9.58533548 122.7235,9.156 C122.7235,8.72666452 122.876832,8.3586682 123.1835,8.052 C123.490168,7.7453318 123.858165,7.592 124.2875,7.592 C124.716836,7.592 125.084832,7.7453318 125.3915,8.052 C125.698168,8.3586682 125.8515,8.72666452 125.8515,9.156 C125.8515,9.58533548 125.698168,9.9533318 125.3915,10.26 Z" id="次を購読中:" fill="#FFFFFF"></path>
    </g>
</svg>