<svg width="192" height="24" viewBox="0 0 192 24" xmlns="http://www.w3.org/2000/svg"><title>SwG-KO-OW</title><desc>Created with Sketch.</desc><g fill="none"><path d="M16.575.508v7.981h3.266v1.472h-3.266v10.649h-1.748v-20.102h1.748zm-12.949 13.685h1.15c2.599 0 6.578-.23 8.51-.644l.184 1.449c-2.162.414-6.141.69-9.637.69h-1.978v-13.087h9.545v1.472h-7.774v10.12zm35.633-2.507h-18.147v-1.472h18.147v1.472zm-2.208 8.648h-13.708v-6.555h13.708v6.555zm-1.748-1.449v-3.68h-10.212v3.68h10.212zm1.909-14.076c0 2.277-2.622 3.772-7.038 3.772-4.393 0-6.992-1.495-6.992-3.772 0-2.277 2.599-3.772 6.992-3.772 4.416 0 7.038 1.495 7.038 3.772zm-1.702 0c0-1.495-2.116-2.369-5.336-2.369s-5.29.874-5.29 2.369c0 1.472 2.07 2.369 5.29 2.369s5.336-.897 5.336-2.369zm26.622-2.806c0 2.737-.069 5.796-.736 8.901h3.105v1.472h-8.211v8.234h-1.748v-8.234h-8.188v-1.472h13.294c.552-2.162.667-5.474.667-7.452h-11.822v-1.449h13.639zm20.131 6.118h-5.934v2.369h8.211v1.472h-18.147v-1.472h8.188v-2.369h-5.819v-6.762h13.455v1.472h-11.707v3.841h11.753v1.449zm-13.8 5.957h13.708v6.67h-1.748v-5.221h-11.96v-1.449zm39.319 2.898c0 2.3-2.691 3.565-7.084 3.565-4.37 0-7.038-1.265-7.038-3.565 0-2.116 2.3-3.358 6.141-3.542v-2.116h-8.165v-1.449h18.147v1.449h-8.234v2.116c3.887.161 6.233 1.403 6.233 3.542zm1.058-9.844l-.782 1.472c-3.358-.552-6.348-2.185-7.36-4.025-.782 1.863-3.795 3.519-7.337 4.048l-.782-1.472c3.128-.276 6.578-1.771 7.153-4.163h-6.394v-1.426h14.72v1.426h-6.325c.598 2.392 4.324 3.887 7.107 4.14zm-8.142 7.728c-3.151 0-5.244.69-5.244 2.116 0 1.472 2.093 2.139 5.244 2.139 3.197 0 5.29-.667 5.29-2.139 0-1.426-2.116-2.116-5.29-2.116z" fill="#5F6368"/><path d="M126.367 19c-5.09 0-9.367-4.265-9.367-9.5s4.277-9.5 9.367-9.5c2.818 0 4.822 1.133 6.331 2.622l-1.776 1.827c-1.082-1.041-2.55-1.857-4.555-1.857-3.721 0-6.628 3.082-6.628 6.908 0 3.827 2.907 6.908 6.628 6.908 2.411 0 3.781-1 4.664-1.898.724-.745 1.191-1.806 1.369-3.265h-6.033v-2.602h8.494c.089.459.139 1.02.139 1.622 0 1.949-.516 4.357-2.183 6.071-1.627 1.735-3.691 2.663-6.45 2.663z" id="Shape" fill="#4285F4"/><path d="M149 13c0 3.456-2.69 6-6 6s-6-2.544-6-6c0-3.476 2.69-6 6-6s6 2.524 6 6zm-2.629 0c0-2.164-1.563-3.636-3.371-3.636-1.807 0-3.371 1.482-3.371 3.636 0 2.134 1.563 3.636 3.371 3.636 1.807 0 3.371-1.492 3.371-3.636z" id="Shape" fill="#E94235"/><path d="M162 13c0 3.456-2.69 6-6 6-3.299 0-6-2.544-6-6 0-3.476 2.69-6 6-6s6 2.524 6 6zm-2.619 0c0-2.164-1.563-3.636-3.371-3.636-1.807 0-3.371 1.482-3.371 3.636 0 2.134 1.563 3.636 3.371 3.636 1.807.01 3.371-1.492 3.371-3.636z" id="Shape" fill="#FABB05"/><path d="M174 7.362v10.531c0 4.336-2.499 6.107-5.457 6.107-2.786 0-4.452-1.908-5.084-3.465l2.192-.93c.393.959 1.35 2.085 2.891 2.085 1.896 0 3.064-1.204 3.064-3.445v-.842h-.086c-.565.714-1.656 1.331-3.025 1.331-2.872 0-5.495-2.554-5.495-5.843 0-3.308 2.633-5.892 5.495-5.892 1.369 0 2.46.626 3.025 1.311h.086v-.949h2.393zm-2.221 5.539c0-2.065-1.35-3.582-3.064-3.582-1.742 0-3.198 1.507-3.198 3.582 0 2.045 1.455 3.533 3.198 3.533 1.714 0 3.064-1.488 3.064-3.533z" id="Shape" fill="#4285F4"/><path fill="#34A853" d="M180 1v18h-3v-18z"/><path d="M189.844 14.973l2.046 1.362c-.662.982-2.256 2.664-5.014 2.664-3.419 0-5.876-2.634-5.876-6 0-3.566 2.487-6 5.585-6 3.119 0 4.643 2.474 5.144 3.816l.271.681-8.032 3.326c.612 1.202 1.574 1.823 2.918 1.823s2.276-.671 2.958-1.673zm-6.307-2.164l5.375-2.224c-.301-.751-1.183-1.272-2.236-1.272-1.344 0-3.209 1.182-3.139 3.496z" fill="#E94235"/></g></svg>