<?xml version="1.0" encoding="UTF-8"?>
<svg width="196px" height="27px" viewBox="0 0 196 27" version="1.1" xmlns="http://www.w3.org/2000/svg" xmlns:xlink="http://www.w3.org/1999/xlink">
    <!-- Generator: Sketch 52.2 (67145) - http://www.bohemiancoding.com/sketch -->
    <title>SwG-KO-OW</title>
    <desc>Created with Sketch.</desc>
    <g id="SwG-KO-OW" stroke="none" stroke-width="1" fill="none" fill-rule="evenodd">
        <path d="M102.021,12.674 L83.874,12.674 L83.874,11.202 L102.021,11.202 L102.021,12.674 Z M99.997,6.28 C99.997,8.488 97.329,9.753 92.959,9.753 C88.635,9.753 85.967,8.488 85.967,6.28 C85.967,4.072 88.635,2.784 92.959,2.784 C97.329,2.784 99.997,4.072 99.997,6.28 Z M92.959,4.21 C89.808,4.21 87.761,5.015 87.761,6.28 C87.761,7.522 89.808,8.304 92.959,8.304 C96.156,8.304 98.226,7.522 98.226,6.28 C98.226,5.015 96.156,4.21 92.959,4.21 Z M100.411,22.426 L85.99,22.426 L85.99,17.642 L97.996,17.642 L97.996,15.871 L85.944,15.871 L85.944,14.468 L99.744,14.468 L99.744,18.976 L87.738,18.976 L87.738,21 L100.411,21 L100.411,22.426 Z M126.1135,11.294 L120.0415,11.294 L120.0415,13.203 L128.2525,13.203 L128.2525,14.652 L110.1055,14.652 L110.1055,13.203 L118.2935,13.203 L118.2935,11.294 L112.2905,11.294 L112.2905,3.336 L125.9755,3.336 L125.9755,4.739 L114.0385,4.739 L114.0385,6.602 L125.6305,6.602 L125.6305,7.936 L114.0385,7.936 L114.0385,9.914 L126.1135,9.914 L126.1135,11.294 Z M126.2285,19.275 C126.2285,21.437 123.7675,22.656 119.1675,22.656 C114.5905,22.656 112.1525,21.391 112.1525,19.275 C112.1525,17.182 114.5905,15.871 119.1675,15.871 C123.7675,15.871 126.2285,17.067 126.2285,19.275 Z M119.1675,17.274 C115.9245,17.274 113.9235,18.033 113.9235,19.275 C113.9235,20.517 115.9245,21.23 119.1675,21.23 C122.4335,21.23 124.4575,20.517 124.4575,19.275 C124.4575,18.033 122.4335,17.274 119.1675,17.274 Z M148.65925,10.788 L145.60025,10.788 L145.60025,17.343 L143.85225,17.343 L143.85225,2.508 L145.60025,2.508 L145.60025,9.316 L148.65925,9.316 L148.65925,10.788 Z M146.38225,21.966 L132.99625,21.966 L132.99625,16.814 L134.74425,16.814 L134.74425,20.494 L146.38225,20.494 L146.38225,21.966 Z M138.72325,4.762 L132.92725,4.762 L132.92725,3.221 L138.72325,3.221 L138.72325,4.762 Z M141.82825,7.729 L130.05225,7.729 L130.05225,6.28 L141.82825,6.28 L141.82825,7.729 Z M140.67825,12.329 C140.67825,14.445 138.65425,15.848 135.94025,15.848 C133.27225,15.848 131.22525,14.445 131.22525,12.329 C131.22525,10.167 133.24925,8.81 135.94025,8.81 C138.65425,8.81 140.67825,10.167 140.67825,12.329 Z M139.02225,12.329 C139.02225,10.995 137.57325,10.19 135.94025,10.19 C134.33025,10.19 132.88125,10.995 132.88125,12.329 C132.88125,13.64 134.33025,14.445 135.94025,14.445 C137.57325,14.445 139.02225,13.64 139.02225,12.329 Z M172.15375,4.003 C172.15375,6.74 172.08475,9.799 171.41775,12.904 L174.52275,12.904 L174.52275,14.376 L166.31175,14.376 L166.31175,22.61 L164.56375,22.61 L164.56375,14.376 L156.37575,14.376 L156.37575,12.904 L169.66975,12.904 C170.22175,10.742 170.33675,7.43 170.33675,5.452 L158.51475,5.452 L158.51475,4.003 L172.15375,4.003 Z M192.2845,10.121 L186.3505,10.121 L186.3505,12.49 L194.5615,12.49 L194.5615,13.962 L176.4145,13.962 L176.4145,12.49 L184.6025,12.49 L184.6025,10.121 L178.7835,10.121 L178.7835,3.359 L192.2385,3.359 L192.2385,4.831 L180.5315,4.831 L180.5315,8.672 L192.2845,8.672 L192.2845,10.121 Z M178.4845,16.078 L192.1925,16.078 L192.1925,22.748 L190.4445,22.748 L190.4445,17.527 L178.4845,17.527 L178.4845,16.078 Z" id="을-통한-구독" fill="#5F6368"></path>
        <g id="Group" transform="translate(0.000000, 2.000000)" fill-rule="nonzero">
            <path d="M9.36714443,19 C4.27673649,19 0,14.7346939 0,9.5 C0,4.26530612 4.27673649,0 9.36714443,0 C12.185226,0 14.1896362,1.13265306 15.6979052,2.62244898 L13.92172,4.44897959 C12.8401323,3.40816327 11.3715546,2.59183673 9.36714443,2.59183673 C5.646086,2.59183673 2.73869901,5.67346939 2.73869901,9.5 C2.73869901,13.3265306 5.646086,16.4081633 9.36714443,16.4081633 C11.7783903,16.4081633 13.1477398,15.4081633 14.030871,14.5102041 C14.755237,13.7653061 15.2216097,12.7040816 15.4002205,11.244898 L9.36714443,11.244898 L9.36714443,8.64285714 L17.8610805,8.64285714 C17.9503859,9.10204082 18,9.66326531 18,10.2653061 C18,12.2142857 17.4840132,14.622449 15.8169791,16.3367347 C14.1896362,18.0714286 12.1256891,19 9.36714443,19 Z" id="Shape" fill="#4285F4"></path>
            <path d="M32,13 C32,16.4557596 29.3096447,19 26,19 C22.6903553,19 20,16.4557596 20,13 C20,9.52420701 22.6903553,7 26,7 C29.3096447,7 32,9.52420701 32,13 Z M29.3705584,13 C29.3705584,10.836394 27.8071066,9.3639399 26,9.3639399 C24.1928934,9.3639399 22.6294416,10.8464107 22.6294416,13 C22.6294416,15.1335559 24.1928934,16.6360601 26,16.6360601 C27.8071066,16.6360601 29.3705584,15.1435726 29.3705584,13 Z" id="Shape" fill="#E94235"></path>
            <path d="M45,13 C45,16.4557596 42.3096447,19 39,19 C35.7005076,19 33,16.4557596 33,13 C33,9.52420701 35.6903553,7 39,7 C42.3096447,7 45,9.52420701 45,13 Z M42.3807107,13 C42.3807107,10.836394 40.8172589,9.3639399 39.0101523,9.3639399 C37.2030457,9.3639399 35.6395939,10.8464107 35.6395939,13 C35.6395939,15.1335559 37.2030457,16.6360601 39.0101523,16.6360601 C40.8172589,16.6460768 42.3807107,15.1435726 42.3807107,13 Z" id="Shape" fill="#FABB05"></path>
            <path d="M57,7.3621186 L57,17.8929188 C57,22.228555 54.5013055,24 51.5430809,24 C48.7571802,24 47.0913838,22.0915371 46.45953,20.5354059 L48.6518712,19.6056419 C49.0443864,20.5647668 50.0017406,21.6902706 51.5430809,21.6902706 C53.4386423,21.6902706 54.6066144,20.4864709 54.6066144,18.2452504 L54.6066144,17.4035694 L54.5204526,17.4035694 C53.9556136,18.1180196 52.8642298,18.7345999 51.4952132,18.7345999 C48.6231506,18.7345999 46,16.1801957 46,12.8917674 C46,9.58376511 48.6327241,7 51.4952132,7 C52.8642298,7 53.9556136,7.6263673 54.5204526,8.31145653 L54.6066144,8.31145653 L54.6066144,7.3621186 L57,7.3621186 Z M54.7789382,12.9015544 C54.7789382,10.8364997 53.4290688,9.31951641 51.7154047,9.31951641 C49.97302,9.31951641 48.5178416,10.8267127 48.5178416,12.9015544 C48.5178416,14.9470351 49.97302,16.4346575 51.7154047,16.4346575 C53.4290688,16.4346575 54.7789382,14.9470351 54.7789382,12.9015544 Z" id="Shape" fill="#4285F4"></path>
            <polygon id="Shape" fill="#34A853" points="63 1 63 19 60 19 60 1"></polygon>
            <path d="M72.8441203,14.9732888 L74.8896992,16.3355593 C74.2278943,17.3171953 72.633546,19 69.8760255,19 C66.4567001,19 64,16.3656093 64,13 C64,9.43405676 66.4867821,7 69.5852325,7 C72.7037375,7 74.2278943,9.47412354 74.7292616,10.8163606 L75,11.4974958 L66.9680948,14.8230384 C67.579763,16.0250417 68.5423883,16.6460768 69.8860529,16.6460768 C71.2297174,16.6460768 72.1622607,15.9749583 72.8441203,14.9732888 Z M66.5369189,12.8096828 L71.911577,10.5859766 C71.6107566,9.83472454 70.72835,9.31385643 69.6754786,9.31385643 C68.331814,9.31385643 66.4667274,10.4958264 66.5369189,12.8096828 Z" id="Shape" fill="#E94235"></path>
        </g>
    </g>
</svg>
