<svg width="226" height="24" viewBox="0 0 226 24" xmlns="http://www.w3.org/2000/svg"><title>SwG-Ko-White</title><desc>Created with Sketch.</desc><g fill="none"><path d="M100.021 10.674h-18.147v-1.472h18.147v1.472zm-2.024-6.394c0 2.208-2.668 3.473-7.038 3.473-4.324 0-6.992-1.265-6.992-3.473s2.668-3.496 6.992-3.496c4.37 0 7.038 1.288 7.038 3.496zm-7.038-2.07c-3.151 0-5.198.805-5.198 2.07 0 1.242 2.047 2.024 5.198 2.024 3.197 0 5.267-.782 5.267-2.024 0-1.265-2.07-2.07-5.267-2.07zm7.452 18.216h-14.421v-4.784h12.006v-1.771h-12.052v-1.403h13.8v4.508h-12.006v2.024h12.673v1.426zm9.758-18.262c-1.027 1.227-1.874 2.679-2.541 4.358-.667 1.679-1.001 3.369-1.001 5.071 0 1.702.333 3.392 1.001 5.072.667 1.679 1.514 3.132 2.541 4.358l-1.564 1.104c-1.104-1.288-2.062-2.848-2.875-4.68-.813-1.832-1.219-3.783-1.219-5.854 0-2.07.406-4.021 1.219-5.853.813-1.832 1.771-3.392 2.875-4.681l1.564 1.104zm19.625 9.062h-18.147v-1.357h18.147v1.357zm-1.518 9.016h-14.536v-4.462h12.167v-1.679h-12.144v-1.288h13.892v4.209h-12.167v1.84h12.788v1.38zm-.345-11.96h-13.984v-4.163h11.845v-1.564h-11.868v-1.38h13.616v4.209h-11.845v1.587h12.236v1.311zm3.341-6.118l1.564-1.104c1.104 1.288 2.062 2.848 2.875 4.681.813 1.832 1.219 3.783 1.219 5.853s-.406 4.021-1.219 5.854c-.813 1.832-1.771 3.392-2.875 4.68l-1.564-1.104c1.027-1.227 1.874-2.679 2.541-4.358.667-1.679 1.001-3.369 1.001-5.072 0-1.702-.333-3.392-1.001-5.071-.667-1.679-1.514-3.132-2.541-4.358zm29.359 7.13h-6.072v1.909h8.211v1.449h-18.147v-1.449h8.188v-1.909h-6.003v-7.958h13.685v1.403h-11.937v1.863h11.592v1.334h-11.592v1.978h12.075v1.38zm.115 7.981c0 2.162-2.461 3.381-7.061 3.381-4.577 0-7.015-1.265-7.015-3.381 0-2.093 2.438-3.404 7.015-3.404 4.6 0 7.061 1.196 7.061 3.404zm-7.061-2.001c-3.243 0-5.244.759-5.244 2.001s2.001 1.955 5.244 1.955c3.266 0 5.29-.713 5.29-1.955s-2.024-2.001-5.29-2.001zm27.928 5.336h-1.725v-10.419h-2.415v9.407h-1.702v-18.607h1.702v7.728h2.415v-8.211h1.725v20.102zm-7.36-8.579c0 2.415-1.794 4.002-4.393 4.002-2.576 0-4.393-1.702-4.393-4.002 0-2.438 1.817-4.025 4.393-4.025 2.599 0 4.393 1.61 4.393 4.025zm-1.679 0c0-1.541-1.127-2.553-2.714-2.553s-2.691 1.012-2.691 2.553c0 1.564 1.104 2.553 2.691 2.553 1.587 0 2.714-1.035 2.714-2.553zm2.047-5.175h-10.005v-1.449h10.005v1.449zm-2.162-3.289h-5.497v-1.518h5.497v1.518zm33.224-1.564c0 2.737-.069 5.796-.736 8.901h3.105v1.472h-8.211v8.234h-1.748v-8.234h-8.188v-1.472h13.294c.552-2.162.667-5.474.667-7.452h-11.822v-1.449h13.639zm20.131 6.118h-5.934v2.369h8.211v1.472h-18.147v-1.472h8.188v-2.369h-5.819v-6.762h13.455v1.472h-11.707v3.841h11.753v1.449zm-13.8 5.957h13.708v6.67h-1.748v-5.221h-11.96v-1.449z" fill="#5F6368"/><g fill-rule="nonzero"><path d="M9.367 19c-5.09 0-9.367-4.265-9.367-9.5s4.277-9.5 9.367-9.5c2.818 0 4.822 1.133 6.331 2.622l-1.776 1.827c-1.082-1.041-2.55-1.857-4.555-1.857-3.721 0-6.628 3.082-6.628 6.908 0 3.827 2.907 6.908 6.628 6.908 2.411 0 3.781-1 4.664-1.898.724-.745 1.191-1.806 1.369-3.265h-6.033v-2.602h8.494c.089.459.139 1.02.139 1.622 0 1.949-.516 4.357-2.183 6.071-1.627 1.735-3.691 2.663-6.45 2.663z" id="Shape" fill="#4285F4"/><path d="M32 13c0 3.456-2.69 6-6 6s-6-2.544-6-6c0-3.476 2.69-6 6-6s6 2.524 6 6zm-2.629 0c0-2.164-1.563-3.636-3.371-3.636-1.807 0-3.371 1.482-3.371 3.636 0 2.134 1.563 3.636 3.371 3.636 1.807 0 3.371-1.492 3.371-3.636z" id="Shape" fill="#E94235"/><path d="M45 13c0 3.456-2.69 6-6 6-3.299 0-6-2.544-6-6 0-3.476 2.69-6 6-6s6 2.524 6 6zm-2.619 0c0-2.164-1.563-3.636-3.371-3.636-1.807 0-3.371 1.482-3.371 3.636 0 2.134 1.563 3.636 3.371 3.636 1.807.01 3.371-1.492 3.371-3.636z" id="Shape" fill="#FABB05"/><path d="M57 7.362v10.531c0 4.336-2.499 6.107-5.457 6.107-2.786 0-4.452-1.908-5.084-3.465l2.192-.93c.393.959 1.35 2.085 2.891 2.085 1.896 0 3.064-1.204 3.064-3.445v-.842h-.086c-.565.714-1.656 1.331-3.025 1.331-2.872 0-5.495-2.554-5.495-5.843 0-3.308 2.633-5.892 5.495-5.892 1.369 0 2.46.626 3.025 1.311h.086v-.949h2.393zm-2.221 5.539c0-2.065-1.35-3.582-3.064-3.582-1.742 0-3.198 1.507-3.198 3.582 0 2.045 1.455 3.533 3.198 3.533 1.714 0 3.064-1.488 3.064-3.533z" id="Shape" fill="#4285F4"/><path id="Shape" fill="#34A853" d="M63 1v18h-3v-18z"/><path d="M72.844 14.973l2.046 1.362c-.662.982-2.256 2.664-5.014 2.664-3.419 0-5.876-2.634-5.876-6 0-3.566 2.487-6 5.585-6 3.119 0 4.643 2.474 5.144 3.816l.271.681-8.032 3.326c.612 1.202 1.574 1.823 2.918 1.823s2.276-.671 2.958-1.673zm-6.307-2.164l5.375-2.224c-.301-.751-1.183-1.272-2.236-1.272-1.344 0-3.209 1.182-3.139 3.496z" fill="#E94235"/></g></g></svg>
