<?xml version="1.0" encoding="UTF-8"?>
<svg width="192px" height="24px" viewBox="0 0 192 24" version="1.1" xmlns="http://www.w3.org/2000/svg" xmlns:xlink="http://www.w3.org/1999/xlink">
    <!-- Generator: Sketch 51.3 (57544) - http://www.bohemiancoding.com/sketch -->
    <title>SwG-KO-WOB</title>
    <desc>Created with Sketch.</desc>
    <defs></defs>
    <g id="SwG-KO-WOB" stroke="none" stroke-width="1" fill="none" fill-rule="evenodd">
        <path d="M16.575375,0.508 L16.575375,8.489 L19.841375,8.489 L19.841375,9.961 L16.575375,9.961 L16.575375,20.61 L14.827375,20.61 L14.827375,0.508 L16.575375,0.508 Z M3.62637496,14.193 L4.77637496,14.193 C7.37537496,14.193 11.354375,13.963 13.286375,13.549 L13.470375,14.998 C11.308375,15.412 7.32937496,15.688 3.83337496,15.688 L1.85537496,15.688 L1.85537496,2.601 L11.400375,2.601 L11.400375,4.073 L3.62637496,4.073 L3.62637496,14.193 Z M39.259125,11.686 L21.112125,11.686 L21.112125,10.214 L39.259125,10.214 L39.259125,11.686 Z M37.051125,20.334 L23.343125,20.334 L23.343125,13.779 L37.051125,13.779 L37.051125,20.334 Z M35.303125,18.885 L35.303125,15.205 L25.091125,15.205 L25.091125,18.885 L35.303125,18.885 Z M37.212125,4.809 C37.212125,7.086 34.590125,8.581 30.174125,8.581 C25.781125,8.581 23.182125,7.086 23.182125,4.809 C23.182125,2.532 25.781125,1.037 30.174125,1.037 C34.590125,1.037 37.212125,2.532 37.212125,4.809 Z M35.510125,4.809 C35.510125,3.314 33.394125,2.44 30.174125,2.44 C26.954125,2.44 24.884125,3.314 24.884125,4.809 C24.884125,6.281 26.954125,7.178 30.174125,7.178 C33.394125,7.178 35.510125,6.281 35.510125,4.809 Z M62.132625,2.003 C62.132625,4.74 62.063625,7.799 61.396625,10.904 L64.501625,10.904 L64.501625,12.376 L56.290625,12.376 L56.290625,20.61 L54.542625,20.61 L54.542625,12.376 L46.354625,12.376 L46.354625,10.904 L59.648625,10.904 C60.200625,8.742 60.315625,5.43 60.315625,3.452 L48.493625,3.452 L48.493625,2.003 L62.132625,2.003 Z M82.263375,8.121 L76.329375,8.121 L76.329375,10.49 L84.540375,10.49 L84.540375,11.962 L66.393375,11.962 L66.393375,10.49 L74.581375,10.49 L74.581375,8.121 L68.762375,8.121 L68.762375,1.359 L82.217375,1.359 L82.217375,2.831 L70.510375,2.831 L70.510375,6.672 L82.263375,6.672 L82.263375,8.121 Z M68.463375,14.078 L82.171375,14.078 L82.171375,20.748 L80.423375,20.748 L80.423375,15.527 L68.463375,15.527 L68.463375,14.078 Z M107.781875,16.976 C107.781875,19.276 105.090875,20.541 100.697875,20.541 C96.327875,20.541 93.659875,19.276 93.659875,16.976 C93.659875,14.86 95.959875,13.618 99.800875,13.434 L99.800875,11.318 L91.635875,11.318 L91.635875,9.869 L109.782875,9.869 L109.782875,11.318 L101.548875,11.318 L101.548875,13.434 C105.435875,13.595 107.781875,14.837 107.781875,16.976 Z M108.839875,7.132 L108.057875,8.604 C104.699875,8.052 101.709875,6.419 100.697875,4.579 C99.915875,6.442 96.902875,8.098 93.360875,8.627 L92.578875,7.155 C95.706875,6.879 99.156875,5.384 99.731875,2.992 L93.337875,2.992 L93.337875,1.566 L108.057875,1.566 L108.057875,2.992 L101.732875,2.992 C102.330875,5.384 106.056875,6.879 108.839875,7.132 Z M100.697875,14.86 C97.546875,14.86 95.453875,15.55 95.453875,16.976 C95.453875,18.448 97.546875,19.115 100.697875,19.115 C103.894875,19.115 105.987875,18.448 105.987875,16.976 C105.987875,15.55 103.871875,14.86 100.697875,14.86 Z" id="다음-구독-중" fill="#FFFFFF"></path>
        <g id="Group" transform="translate(117.000000, 0.000000)" fill="#FFFFFF" fill-rule="nonzero">
            <path d="M9.36714443,19 C4.27673649,19 0,14.7346939 0,9.5 C0,4.26530612 4.27673649,0 9.36714443,0 C12.185226,0 14.1896362,1.13265306 15.6979052,2.62244898 L13.92172,4.44897959 C12.8401323,3.40816327 11.3715546,2.59183673 9.36714443,2.59183673 C5.646086,2.59183673 2.73869901,5.67346939 2.73869901,9.5 C2.73869901,13.3265306 5.646086,16.4081633 9.36714443,16.4081633 C11.7783903,16.4081633 13.1477398,15.4081633 14.030871,14.5102041 C14.755237,13.7653061 15.2216097,12.7040816 15.4002205,11.244898 L9.36714443,11.244898 L9.36714443,8.64285714 L17.8610805,8.64285714 C17.9503859,9.10204082 18,9.66326531 18,10.2653061 C18,12.2142857 17.4840132,14.622449 15.8169791,16.3367347 C14.1896362,18.0714286 12.1256891,19 9.36714443,19 Z" id="Shape"></path>
            <path d="M32,13 C32,16.4557596 29.3096447,19 26,19 C22.6903553,19 20,16.4557596 20,13 C20,9.52420701 22.6903553,7 26,7 C29.3096447,7 32,9.52420701 32,13 Z M29.3705584,13 C29.3705584,10.836394 27.8071066,9.3639399 26,9.3639399 C24.1928934,9.3639399 22.6294416,10.8464107 22.6294416,13 C22.6294416,15.1335559 24.1928934,16.6360601 26,16.6360601 C27.8071066,16.6360601 29.3705584,15.1435726 29.3705584,13 Z" id="Shape"></path>
            <path d="M45,13 C45,16.4557596 42.3096447,19 39,19 C35.7005076,19 33,16.4557596 33,13 C33,9.52420701 35.6903553,7 39,7 C42.3096447,7 45,9.52420701 45,13 Z M42.3807107,13 C42.3807107,10.836394 40.8172589,9.3639399 39.0101523,9.3639399 C37.2030457,9.3639399 35.6395939,10.8464107 35.6395939,13 C35.6395939,15.1335559 37.2030457,16.6360601 39.0101523,16.6360601 C40.8172589,16.6460768 42.3807107,15.1435726 42.3807107,13 Z" id="Shape"></path>
            <path d="M57,7.3621186 L57,17.8929188 C57,22.228555 54.5013055,24 51.5430809,24 C48.7571802,24 47.0913838,22.0915371 46.45953,20.5354059 L48.6518712,19.6056419 C49.0443864,20.5647668 50.0017406,21.6902706 51.5430809,21.6902706 C53.4386423,21.6902706 54.6066144,20.4864709 54.6066144,18.2452504 L54.6066144,17.4035694 L54.5204526,17.4035694 C53.9556136,18.1180196 52.8642298,18.7345999 51.4952132,18.7345999 C48.6231506,18.7345999 46,16.1801957 46,12.8917674 C46,9.58376511 48.6327241,7 51.4952132,7 C52.8642298,7 53.9556136,7.6263673 54.5204526,8.31145653 L54.6066144,8.31145653 L54.6066144,7.3621186 L57,7.3621186 Z M54.7789382,12.9015544 C54.7789382,10.8364997 53.4290688,9.31951641 51.7154047,9.31951641 C49.97302,9.31951641 48.5178416,10.8267127 48.5178416,12.9015544 C48.5178416,14.9470351 49.97302,16.4346575 51.7154047,16.4346575 C53.4290688,16.4346575 54.7789382,14.9470351 54.7789382,12.9015544 Z" id="Shape"></path>
            <polygon id="Shape" points="63 1 63 19 60 19 60 1"></polygon>
            <path d="M72.8441203,14.9732888 L74.8896992,16.3355593 C74.2278943,17.3171953 72.633546,19 69.8760255,19 C66.4567001,19 64,16.3656093 64,13 C64,9.43405676 66.4867821,7 69.5852325,7 C72.7037375,7 74.2278943,9.47412354 74.7292616,10.8163606 L75,11.4974958 L66.9680948,14.8230384 C67.579763,16.0250417 68.5423883,16.6460768 69.8860529,16.6460768 C71.2297174,16.6460768 72.1622607,15.9749583 72.8441203,14.9732888 Z M66.5369189,12.8096828 L71.911577,10.5859766 C71.6107566,9.83472454 70.72835,9.31385643 69.6754786,9.31385643 C68.331814,9.31385643 66.4667274,10.4958264 66.5369189,12.8096828 Z" id="Shape"></path>
        </g>
    </g>
</svg>