<?xml version="1.0" encoding="UTF-8"?>
<svg width="249px" height="24px" viewBox="0 0 249 24" version="1.1" xmlns="http://www.w3.org/2000/svg" xmlns:xlink="http://www.w3.org/1999/xlink">
    <!-- Generator: Sketch 51.3 (57544) - http://www.bohemiancoding.com/sketch -->
    <title>SwG-MS Copy-Black</title>
    <desc>Created with Sketch.</desc>
    <defs></defs>
    <g id="SwG-MS-Copy" stroke="none" stroke-width="1" fill="none" fill-rule="evenodd">
        <path d="M1.656,18 L1.656,1.532 L3.772,1.532 L3.772,15.976 L10.902,15.976 L10.902,18 L1.656,18 Z M16.45075,18.368 C15.254744,18.368 14.254254,18.0230035 13.44925,17.333 C12.644246,16.6429965 12.24175,15.7306723 12.24175,14.596 C12.24175,13.3693272 12.7170786,12.4071702 13.66775,11.7095 C14.6184214,11.0118298 15.7914097,10.663 17.18675,10.663 C18.4287562,10.663 19.4484127,10.8929977 20.24575,11.353 L20.24575,11.031 C20.24575,10.2029959 19.9620862,9.53983583 19.39475,9.0415 C18.8274138,8.54316418 18.1297541,8.294 17.30175,8.294 C16.6884136,8.294 16.1325858,8.43966521 15.63425,8.731 C15.1359142,9.02233479 14.7947509,9.42099747 14.61075,9.927 L12.67875,9.099 C12.939418,8.42432996 13.4530795,7.79950287 14.21975,7.2245 C14.9864205,6.64949712 15.9984104,6.362 17.25575,6.362 C18.6970905,6.362 19.8930786,6.78366245 20.84375,7.627 C21.7944214,8.47033755 22.26975,9.658659 22.26975,11.192 L22.26975,18 L20.24575,18 L20.24575,16.436 L20.15375,16.436 C19.3104125,17.7240064 18.0760915,18.368 16.45075,18.368 Z M16.79575,16.436 C17.6697544,16.436 18.4632464,16.1101699 19.17625,15.4585 C19.8892536,14.8068301 20.24575,14.0363378 20.24575,13.147 C19.647747,12.6563309 18.750756,12.411 17.55475,12.411 C16.5274115,12.411 15.7530859,12.6333311 15.23175,13.078 C14.7104141,13.5226689 14.44975,14.043997 14.44975,14.642 C14.44975,15.1940028 14.6874143,15.6309984 15.16275,15.953 C15.6380857,16.2750016 16.1824136,16.436 16.79575,16.436 Z M26.8295,6.73 L26.8295,8.294 L26.9215,8.294 C27.2281682,7.75733065 27.7111634,7.30116854 28.3705,6.9255 C29.0298366,6.54983145 29.7351629,6.362 30.4865,6.362 C31.8818403,6.362 32.9474963,6.79132904 33.6835,7.65 C34.4195037,8.50867096 34.7875,9.65865946 34.7875,11.1 L34.7875,18 L32.6715,18 L32.6715,11.422 C32.6715,9.33665624 31.7438426,8.294 29.8885,8.294 C29.0144956,8.294 28.3015028,8.64282985 27.7495,9.3405 C27.1974972,10.0381702 26.9215,10.8469954 26.9215,11.767 L26.9215,18 L24.8055,18 L24.8055,6.73 L26.8295,6.73 Z M42.19925,23.336 C40.8652433,23.336 39.7765876,23.0025033 38.93325,22.3355 C38.0899124,21.6684967 37.4842518,20.905671 37.11625,20.047 L39.04825,19.242 C39.2629177,19.8553364 39.6577471,20.3689979 40.23275,20.783 C40.8077529,21.1970021 41.4632463,21.404 42.19925,21.404 C43.3645892,21.404 44.2807467,21.0551702 44.94775,20.3575 C45.6147533,19.6598298 45.94825,18.713006 45.94825,17.517 L45.94825,16.436 L45.85625,16.436 C45.4882482,16.9880028 44.96692,17.4479982 44.29225,17.816 C43.61758,18.1840018 42.8585876,18.368 42.01525,18.368 C40.558576,18.368 39.3012553,17.7930058 38.24325,16.643 C37.1852447,15.4929943 36.65625,14.0670085 36.65625,12.365 C36.65625,10.6629915 37.1852447,9.23700575 38.24325,8.087 C39.3012553,6.93699425 40.558576,6.362 42.01525,6.362 C42.8585876,6.362 43.61758,6.54599816 44.29225,6.914 C44.96692,7.28200184 45.4882482,7.74199724 45.85625,8.294 L45.94825,8.294 L45.94825,6.73 L47.97225,6.73 L47.97225,17.425 C47.97225,19.3570097 47.4125889,20.8251616 46.29325,21.8295 C45.1739111,22.8338384 43.809258,23.336 42.19925,23.336 Z M42.36025,16.436 C43.3569216,16.436 44.2040798,16.0680037 44.90175,15.332 C45.5994202,14.5959963 45.94825,13.6070062 45.94825,12.365 C45.94825,11.1229938 45.5994202,10.1340037 44.90175,9.398 C44.2040798,8.66199632 43.3569216,8.294 42.36025,8.294 C41.3789118,8.294 40.5355869,8.66582961 39.83025,9.4095 C39.1249131,10.1531704 38.77225,11.1383272 38.77225,12.365 C38.77225,13.5916728 39.1249131,14.5768296 39.83025,15.3205 C40.5355869,16.0641704 41.3789118,16.436 42.36025,16.436 Z M55.476,23.336 C54.1419933,23.336 53.0533376,23.0025033 52.21,22.3355 C51.3666625,21.6684967 50.7610018,20.905671 50.393,20.047 L52.325,19.242 C52.5396677,19.8553364 52.9344971,20.3689979 53.5095,20.783 C54.0845029,21.1970021 54.7399963,21.404 55.476,21.404 C56.6413392,21.404 57.5574967,21.0551702 58.2245,20.3575 C58.8915033,19.6598298 59.225,18.713006 59.225,17.517 L59.225,16.436 L59.133,16.436 C58.7649982,16.9880028 58.24367,17.4479982 57.569,17.816 C56.89433,18.1840018 56.1353376,18.368 55.292,18.368 C53.8353261,18.368 52.5780053,17.7930058 51.52,16.643 C50.4619947,15.4929943 49.933,14.0670085 49.933,12.365 C49.933,10.6629915 50.4619947,9.23700575 51.52,8.087 C52.5780053,6.93699425 53.8353261,6.362 55.292,6.362 C56.1353376,6.362 56.89433,6.54599816 57.569,6.914 C58.24367,7.28200184 58.7649982,7.74199724 59.133,8.294 L59.225,8.294 L59.225,6.73 L61.249,6.73 L61.249,17.425 C61.249,19.3570097 60.6893389,20.8251616 59.57,21.8295 C58.4506611,22.8338384 57.0860081,23.336 55.476,23.336 Z M55.637,16.436 C56.6336717,16.436 57.4808298,16.0680037 58.1785,15.332 C58.8761702,14.5959963 59.225,13.6070062 59.225,12.365 C59.225,11.1229938 58.8761702,10.1340037 58.1785,9.398 C57.4808298,8.66199632 56.6336717,8.294 55.637,8.294 C54.6556618,8.294 53.8123369,8.66582961 53.107,9.4095 C52.4016631,10.1531704 52.049,11.1383272 52.049,12.365 C52.049,13.5916728 52.4016631,14.5768296 53.107,15.3205 C53.8123369,16.0641704 54.6556618,16.436 55.637,16.436 Z M67.41875,18.368 C66.222744,18.368 65.222254,18.0230035 64.41725,17.333 C63.612246,16.6429965 63.20975,15.7306723 63.20975,14.596 C63.20975,13.3693272 63.6850786,12.4071702 64.63575,11.7095 C65.5864214,11.0118298 66.7594097,10.663 68.15475,10.663 C69.3967562,10.663 70.4164127,10.8929977 71.21375,11.353 L71.21375,11.031 C71.21375,10.2029959 70.9300862,9.53983583 70.36275,9.0415 C69.7954138,8.54316418 69.0977541,8.294 68.26975,8.294 C67.6564136,8.294 67.1005858,8.43966521 66.60225,8.731 C66.1039142,9.02233479 65.7627509,9.42099747 65.57875,9.927 L63.64675,9.099 C63.907418,8.42432996 64.4210795,7.79950287 65.18775,7.2245 C65.9544205,6.64949712 66.9664104,6.362 68.22375,6.362 C69.6650905,6.362 70.8610786,6.78366245 71.81175,7.627 C72.7624214,8.47033755 73.23775,9.658659 73.23775,11.192 L73.23775,18 L71.21375,18 L71.21375,16.436 L71.12175,16.436 C70.2784125,17.7240064 69.0440915,18.368 67.41875,18.368 Z M67.76375,16.436 C68.6377544,16.436 69.4312464,16.1101699 70.14425,15.4585 C70.8572536,14.8068301 71.21375,14.0363378 71.21375,13.147 C70.615747,12.6563309 69.718756,12.411 68.52275,12.411 C67.4954115,12.411 66.7210859,12.6333311 66.19975,13.078 C65.6784141,13.5226689 65.41775,14.043997 65.41775,14.642 C65.41775,15.1940028 65.6554143,15.6309984 66.13075,15.953 C66.6060857,16.2750016 67.1504136,16.436 67.76375,16.436 Z M77.7975,6.73 L77.7975,8.294 L77.8895,8.294 C78.1961682,7.75733065 78.6791634,7.30116854 79.3385,6.9255 C79.9978366,6.54983145 80.7031629,6.362 81.4545,6.362 C82.8498403,6.362 83.9154963,6.79132904 84.6515,7.65 C85.3875037,8.50867096 85.7555,9.65865946 85.7555,11.1 L85.7555,18 L83.6395,18 L83.6395,11.422 C83.6395,9.33665624 82.7118426,8.294 80.8565,8.294 C79.9824956,8.294 79.2695028,8.64282985 78.7175,9.3405 C78.1654972,10.0381702 77.8895,10.8469954 77.8895,11.767 L77.8895,18 L75.7735,18 L75.7735,6.73 L77.7975,6.73 Z M98.302,18.368 C96.8453261,18.368 95.5880053,17.7930057 94.53,16.643 C93.4719947,15.4929942 92.943,14.0670085 92.943,12.365 C92.943,10.6629915 93.4719947,9.23700575 94.53,8.087 C95.5880053,6.93699425 96.8453261,6.362 98.302,6.362 C99.160671,6.362 99.9311633,6.54599816 100.6135,6.914 C101.295837,7.28200184 101.805665,7.74199724 102.143,8.294 L102.235,8.294 L102.143,6.73 L102.143,1.532 L104.259,1.532 L104.259,18 L102.235,18 L102.235,16.436 L102.143,16.436 C101.805665,16.9880028 101.295837,17.4479982 100.6135,17.816 C99.9311633,18.1840018 99.160671,18.368 98.302,18.368 Z M98.647,16.436 C99.6436717,16.436 100.49083,16.0680037 101.1885,15.332 C101.88617,14.5959963 102.235,13.6070062 102.235,12.365 C102.235,11.1229938 101.88617,10.1340037 101.1885,9.398 C100.49083,8.66199632 99.6436717,8.294 98.647,8.294 C97.6656618,8.294 96.8223369,8.66582961 96.117,9.4095 C95.4116631,10.1531704 95.059,11.1383272 95.059,12.365 C95.059,13.5916728 95.4116631,14.5768296 96.117,15.3205 C96.8223369,16.0641704 97.6656618,16.436 98.647,16.436 Z M111.96975,18.368 C110.267741,18.368 108.883922,17.8006723 107.81825,16.666 C106.752578,15.5313277 106.21975,14.0976753 106.21975,12.365 C106.21975,10.7243251 106.737245,9.31367257 107.77225,8.133 C108.807255,6.95232743 110.129742,6.362 111.73975,6.362 C113.411092,6.362 114.748912,6.90632789 115.75325,7.995 C116.757588,9.08367211 117.25975,10.5403242 117.25975,12.365 L117.23675,12.756 L108.33575,12.756 C108.397084,13.8906723 108.77658,14.7876634 109.47425,15.447 C110.17192,16.1063366 110.988412,16.436 111.92375,16.436 C113.441758,16.436 114.469081,15.7920064 115.00575,14.504 L116.89175,15.286 C116.523748,16.1600044 115.918088,16.8921637 115.07475,17.4825 C114.231412,18.0728363 113.196423,18.368 111.96975,18.368 Z M115.00575,11.008 C114.95975,10.3639968 114.664586,9.75066958 114.12025,9.168 C113.575914,8.58533042 112.767089,8.294 111.69375,8.294 C110.911746,8.294 110.233253,8.53933088 109.65825,9.03 C109.083247,9.52066912 108.688418,10.1799959 108.47375,11.008 L115.00575,11.008 Z M121.3595,6.73 L121.3595,8.294 L121.4515,8.294 C121.758168,7.75733065 122.241163,7.30116854 122.9005,6.9255 C123.559837,6.54983145 124.265163,6.362 125.0165,6.362 C126.41184,6.362 127.477496,6.79132904 128.2135,7.65 C128.949504,8.50867096 129.3175,9.65865946 129.3175,11.1 L129.3175,18 L127.2015,18 L127.2015,11.422 C127.2015,9.33665624 126.273843,8.294 124.4185,8.294 C123.544496,8.294 122.831503,8.64282985 122.2795,9.3405 C121.727497,10.0381702 121.4515,10.8469954 121.4515,11.767 L121.4515,18 L119.3355,18 L119.3355,6.73 L121.3595,6.73 Z M136.72925,23.336 C135.395243,23.336 134.306588,23.0025033 133.46325,22.3355 C132.619912,21.6684967 132.014252,20.905671 131.64625,20.047 L133.57825,19.242 C133.792918,19.8553364 134.187747,20.3689979 134.76275,20.783 C135.337753,21.1970021 135.993246,21.404 136.72925,21.404 C137.894589,21.404 138.810747,21.0551702 139.47775,20.3575 C140.144753,19.6598298 140.47825,18.713006 140.47825,17.517 L140.47825,16.436 L140.38625,16.436 C140.018248,16.9880028 139.49692,17.4479982 138.82225,17.816 C138.14758,18.1840018 137.388588,18.368 136.54525,18.368 C135.088576,18.368 133.831255,17.7930058 132.77325,16.643 C131.715245,15.4929943 131.18625,14.0670085 131.18625,12.365 C131.18625,10.6629915 131.715245,9.23700575 132.77325,8.087 C133.831255,6.93699425 135.088576,6.362 136.54525,6.362 C137.388588,6.362 138.14758,6.54599816 138.82225,6.914 C139.49692,7.28200184 140.018248,7.74199724 140.38625,8.294 L140.47825,8.294 L140.47825,6.73 L142.50225,6.73 L142.50225,17.425 C142.50225,19.3570097 141.942589,20.8251616 140.82325,21.8295 C139.703911,22.8338384 138.339258,23.336 136.72925,23.336 Z M136.89025,16.436 C137.886922,16.436 138.73408,16.0680037 139.43175,15.332 C140.12942,14.5959963 140.47825,13.6070062 140.47825,12.365 C140.47825,11.1229938 140.12942,10.1340037 139.43175,9.398 C138.73408,8.66199632 137.886922,8.294 136.89025,8.294 C135.908912,8.294 135.065587,8.66582961 134.36025,9.4095 C133.654913,10.1531704 133.30225,11.1383272 133.30225,12.365 C133.30225,13.5916728 133.654913,14.5768296 134.36025,15.3205 C135.065587,16.0641704 135.908912,16.436 136.89025,16.436 Z M148.672,18.368 C147.475994,18.368 146.475504,18.0230035 145.6705,17.333 C144.865496,16.6429965 144.463,15.7306723 144.463,14.596 C144.463,13.3693272 144.938329,12.4071702 145.889,11.7095 C146.839671,11.0118298 148.01266,10.663 149.408,10.663 C150.650006,10.663 151.669663,10.8929977 152.467,11.353 L152.467,11.031 C152.467,10.2029959 152.183336,9.53983583 151.616,9.0415 C151.048664,8.54316418 150.351004,8.294 149.523,8.294 C148.909664,8.294 148.353836,8.43966521 147.8555,8.731 C147.357164,9.02233479 147.016001,9.42099747 146.832,9.927 L144.9,9.099 C145.160668,8.42432996 145.674329,7.79950287 146.441,7.2245 C147.20767,6.64949712 148.21966,6.362 149.477,6.362 C150.918341,6.362 152.114329,6.78366245 153.065,7.627 C154.015671,8.47033755 154.491,9.658659 154.491,11.192 L154.491,18 L152.467,18 L152.467,16.436 L152.375,16.436 C151.531662,17.7240064 150.297341,18.368 148.672,18.368 Z M149.017,16.436 C149.891004,16.436 150.684496,16.1101699 151.3975,15.4585 C152.110504,14.8068301 152.467,14.0363378 152.467,13.147 C151.868997,12.6563309 150.972006,12.411 149.776,12.411 C148.748662,12.411 147.974336,12.6333311 147.453,13.078 C146.931664,13.5226689 146.671,14.043997 146.671,14.642 C146.671,15.1940028 146.908664,15.6309984 147.384,15.953 C147.859336,16.2750016 148.403664,16.436 149.017,16.436 Z M159.05075,6.73 L159.05075,8.294 L159.14275,8.294 C159.449418,7.75733065 159.932413,7.30116854 160.59175,6.9255 C161.251087,6.54983145 161.956413,6.362 162.70775,6.362 C164.10309,6.362 165.168746,6.79132904 165.90475,7.65 C166.640754,8.50867096 167.00875,9.65865946 167.00875,11.1 L167.00875,18 L164.89275,18 L164.89275,11.422 C164.89275,9.33665624 163.965093,8.294 162.10975,8.294 C161.235746,8.294 160.522753,8.64282985 159.97075,9.3405 C159.418747,10.0381702 159.14275,10.8469954 159.14275,11.767 L159.14275,18 L157.02675,18 L157.02675,6.73 L159.05075,6.73 Z" id="Langgan-dengan" fill="#FFFFFF"></path>
        <g id="Group" transform="translate(174.000000, 0.000000)" fill="#FFFFFF" fill-rule="nonzero">
            <path d="M9.36714443,19 C4.27673649,19 0,14.7346939 0,9.5 C0,4.26530612 4.27673649,0 9.36714443,0 C12.185226,0 14.1896362,1.13265306 15.6979052,2.62244898 L13.92172,4.44897959 C12.8401323,3.40816327 11.3715546,2.59183673 9.36714443,2.59183673 C5.646086,2.59183673 2.73869901,5.67346939 2.73869901,9.5 C2.73869901,13.3265306 5.646086,16.4081633 9.36714443,16.4081633 C11.7783903,16.4081633 13.1477398,15.4081633 14.030871,14.5102041 C14.755237,13.7653061 15.2216097,12.7040816 15.4002205,11.244898 L9.36714443,11.244898 L9.36714443,8.64285714 L17.8610805,8.64285714 C17.9503859,9.10204082 18,9.66326531 18,10.2653061 C18,12.2142857 17.4840132,14.622449 15.8169791,16.3367347 C14.1896362,18.0714286 12.1256891,19 9.36714443,19 Z" id="Shape"></path>
            <path d="M32,13 C32,16.4557596 29.3096447,19 26,19 C22.6903553,19 20,16.4557596 20,13 C20,9.52420701 22.6903553,7 26,7 C29.3096447,7 32,9.52420701 32,13 Z M29.3705584,13 C29.3705584,10.836394 27.8071066,9.3639399 26,9.3639399 C24.1928934,9.3639399 22.6294416,10.8464107 22.6294416,13 C22.6294416,15.1335559 24.1928934,16.6360601 26,16.6360601 C27.8071066,16.6360601 29.3705584,15.1435726 29.3705584,13 Z" id="Shape"></path>
            <path d="M45,13 C45,16.4557596 42.3096447,19 39,19 C35.7005076,19 33,16.4557596 33,13 C33,9.52420701 35.6903553,7 39,7 C42.3096447,7 45,9.52420701 45,13 Z M42.3807107,13 C42.3807107,10.836394 40.8172589,9.3639399 39.0101523,9.3639399 C37.2030457,9.3639399 35.6395939,10.8464107 35.6395939,13 C35.6395939,15.1335559 37.2030457,16.6360601 39.0101523,16.6360601 C40.8172589,16.6460768 42.3807107,15.1435726 42.3807107,13 Z" id="Shape"></path>
            <path d="M57,7.3621186 L57,17.8929188 C57,22.228555 54.5013055,24 51.5430809,24 C48.7571802,24 47.0913838,22.0915371 46.45953,20.5354059 L48.6518712,19.6056419 C49.0443864,20.5647668 50.0017406,21.6902706 51.5430809,21.6902706 C53.4386423,21.6902706 54.6066144,20.4864709 54.6066144,18.2452504 L54.6066144,17.4035694 L54.5204526,17.4035694 C53.9556136,18.1180196 52.8642298,18.7345999 51.4952132,18.7345999 C48.6231506,18.7345999 46,16.1801957 46,12.8917674 C46,9.58376511 48.6327241,7 51.4952132,7 C52.8642298,7 53.9556136,7.6263673 54.5204526,8.31145653 L54.6066144,8.31145653 L54.6066144,7.3621186 L57,7.3621186 Z M54.7789382,12.9015544 C54.7789382,10.8364997 53.4290688,9.31951641 51.7154047,9.31951641 C49.97302,9.31951641 48.5178416,10.8267127 48.5178416,12.9015544 C48.5178416,14.9470351 49.97302,16.4346575 51.7154047,16.4346575 C53.4290688,16.4346575 54.7789382,14.9470351 54.7789382,12.9015544 Z" id="Shape"></path>
            <polygon id="Shape" points="63 1 63 19 60 19 60 1"></polygon>
            <path d="M72.8441203,14.9732888 L74.8896992,16.3355593 C74.2278943,17.3171953 72.633546,19 69.8760255,19 C66.4567001,19 64,16.3656093 64,13 C64,9.43405676 66.4867821,7 69.5852325,7 C72.7037375,7 74.2278943,9.47412354 74.7292616,10.8163606 L75,11.4974958 L66.9680948,14.8230384 C67.579763,16.0250417 68.5423883,16.6460768 69.8860529,16.6460768 C71.2297174,16.6460768 72.1622607,15.9749583 72.8441203,14.9732888 Z M66.5369189,12.8096828 L71.911577,10.5859766 C71.6107566,9.83472454 70.72835,9.31385643 69.6754786,9.31385643 C68.331814,9.31385643 66.4667274,10.4958264 66.5369189,12.8096828 Z" id="Shape"></path>
        </g>
    </g>
</svg>