<?xml version="1.0" encoding="UTF-8"?>
<svg width="276px" height="24px" viewBox="0 0 276 24" version="1.1" xmlns="http://www.w3.org/2000/svg" xmlns:xlink="http://www.w3.org/1999/xlink">
    <!-- Generator: Sketch 51.3 (57544) - http://www.bohemiancoding.com/sketch -->
    <title>SwG-MS-WOB</title>
    <desc>Created with Sketch.</desc>
    <defs></defs>
    <g id="SwG-MS-WOB" stroke="none" stroke-width="1" fill="none" fill-rule="evenodd">
        <path d="M1.4464999,19 L1.4464999,7.73 L3.4704999,7.73 L3.4704999,9.294 L3.5624999,9.294 C3.88450151,8.75733065 4.37899657,8.30116854 5.0459999,7.9255 C5.71300324,7.54983146 6.37616327,7.362 7.0354999,7.362 C8.78350864,7.362 9.97183009,8.08265946 10.6004999,9.524 C11.5205045,8.08265946 12.8314914,7.362 14.5334999,7.362 C15.8675066,7.362 16.8718299,7.78749575 17.5464999,8.6385 C18.2211699,9.48950426 18.5584999,10.6433261 18.5584999,12.1 L18.5584999,19 L16.4424999,19 L16.4424999,12.422 C16.4424999,11.2873277 16.235502,10.4823357 15.8214999,10.007 C15.4074978,9.53166429 14.7788375,9.294 13.9354999,9.294 C13.1074958,9.294 12.421336,9.64666314 11.8769999,10.352 C11.3326638,11.0573369 11.0604999,11.8623288 11.0604999,12.767 L11.0604999,19 L8.9444999,19 L8.9444999,12.422 C8.9444999,11.2873277 8.73750197,10.4823357 8.3234999,10.007 C7.90949783,9.53166429 7.28083745,9.294 6.4374999,9.294 C5.60949576,9.294 4.92333596,9.64666314 4.3789999,10.352 C3.83466385,11.0573369 3.5624999,11.8623288 3.5624999,12.767 L3.5624999,19 L1.4464999,19 Z M26.2922499,19.368 C24.5902414,19.368 23.2064219,18.8006723 22.1407499,17.666 C21.0750779,16.5313277 20.5422499,15.0976753 20.5422499,13.365 C20.5422499,11.7243251 21.0597447,10.3136726 22.0947499,9.133 C23.1297551,7.95232743 24.4522419,7.362 26.0622499,7.362 C27.7335916,7.362 29.0714116,7.90632789 30.0757499,8.995 C31.0800883,10.0836721 31.5822499,11.5403242 31.5822499,13.365 L31.5592499,13.756 L22.6582499,13.756 C22.7195836,14.8906723 23.0990798,15.7876634 23.7967499,16.447 C24.4944201,17.1063366 25.3109119,17.436 26.2462499,17.436 C27.7642575,17.436 28.7915806,16.7920064 29.3282499,15.504 L31.2142499,16.286 C30.8462481,17.1600044 30.2405875,17.8921637 29.3972499,18.4825 C28.5539124,19.0728363 27.5189227,19.368 26.2922499,19.368 Z M29.3282499,12.008 C29.2822497,11.3639968 28.987086,10.7506696 28.4427499,10.168 C27.8984139,9.58533042 27.0895886,9.294 26.0162499,9.294 C25.234246,9.294 24.5557528,9.53933088 23.9807499,10.03 C23.405747,10.5206691 23.0109177,11.1799959 22.7962499,12.008 L29.3282499,12.008 Z M35.7739999,19 L33.6579999,19 L33.6579999,2.532 L35.7739999,2.532 L35.7739999,19 Z M41.9437499,19.368 C40.747744,19.368 39.747254,19.0230035 38.9422499,18.333 C38.1372459,17.6429965 37.7347499,16.7306723 37.7347499,15.596 C37.7347499,14.3693272 38.2100785,13.4071702 39.1607499,12.7095 C40.1114214,12.0118298 41.2844096,11.663 42.6797499,11.663 C43.9217562,11.663 44.9414126,11.8929977 45.7387499,12.353 L45.7387499,12.031 C45.7387499,11.2029959 45.4550861,10.5398358 44.8877499,10.0415 C44.3204138,9.54316418 43.6227541,9.294 42.7947499,9.294 C42.1814135,9.294 41.6255858,9.43966521 41.1272499,9.731 C40.6289141,10.0223348 40.2877509,10.4209975 40.1037499,10.927 L38.1717499,10.099 C38.4324179,9.42432996 38.9460794,8.79950287 39.7127499,8.2245 C40.4794204,7.64949712 41.4914103,7.362 42.7487499,7.362 C44.1900905,7.362 45.3860785,7.78366245 46.3367499,8.627 C47.2874214,9.47033755 47.7627499,10.658659 47.7627499,12.192 L47.7627499,19 L45.7387499,19 L45.7387499,17.436 L45.6467499,17.436 C44.8034124,18.7240064 43.5690914,19.368 41.9437499,19.368 Z M42.2887499,17.436 C43.1627543,17.436 43.9562464,17.1101699 44.6692499,16.4585 C45.3822535,15.8068301 45.7387499,15.0363378 45.7387499,14.147 C45.140747,13.6563309 44.2437559,13.411 43.0477499,13.411 C42.0204115,13.411 41.2460859,13.6333311 40.7247499,14.078 C40.203414,14.5226689 39.9427499,15.043997 39.9427499,15.642 C39.9427499,16.1940028 40.1804142,16.6309984 40.6557499,16.953 C41.1310857,17.2750016 41.6754135,17.436 42.2887499,17.436 Z M52.3225,7.73 L52.3225,9.294 L52.4145,9.294 C52.7211682,8.75733065 53.2041633,8.30116854 53.8635,7.9255 C54.5228366,7.54983146 55.2281629,7.362 55.9795,7.362 C57.3748403,7.362 58.4404963,7.79132904 59.1765,8.65 C59.9125036,9.50867096 60.2805,10.6586595 60.2805,12.1 L60.2805,19 L58.1645,19 L58.1645,12.422 C58.1645,10.3366562 57.2368426,9.294 55.3815,9.294 C54.5074956,9.294 53.7945027,9.64282985 53.2425,10.3405 C52.6904972,11.0381702 52.4145,11.8469954 52.4145,12.767 L52.4145,19 L50.2985,19 L50.2985,7.73 L52.3225,7.73 Z M67.69225,24.336 C66.3582433,24.336 65.2695875,24.0025033 64.42625,23.3355 C63.5829124,22.6684967 62.9772518,21.905671 62.60925,21.047 L64.54125,20.242 C64.7559177,20.8553364 65.1507471,21.3689979 65.72575,21.783 C66.3007528,22.1970021 66.9562463,22.404 67.69225,22.404 C68.8575891,22.404 69.7737466,22.0551702 70.44075,21.3575 C71.1077533,20.6598298 71.44125,19.713006 71.44125,18.517 L71.44125,17.436 L71.34925,17.436 C70.9812481,17.9880028 70.45992,18.4479982 69.78525,18.816 C69.1105799,19.1840018 68.3515875,19.368 67.50825,19.368 C66.051576,19.368 64.7942553,18.7930058 63.73625,17.643 C62.6782447,16.4929943 62.14925,15.0670085 62.14925,13.365 C62.14925,11.6629915 62.6782447,10.2370057 63.73625,9.087 C64.7942553,7.93699425 66.051576,7.362 67.50825,7.362 C68.3515875,7.362 69.1105799,7.54599816 69.78525,7.914 C70.45992,8.28200184 70.9812481,8.74199724 71.34925,9.294 L71.44125,9.294 L71.44125,7.73 L73.46525,7.73 L73.46525,18.425 C73.46525,20.3570097 72.9055889,21.8251616 71.78625,22.8295 C70.666911,23.8338384 69.302258,24.336 67.69225,24.336 Z M67.85325,17.436 C68.8499216,17.436 69.6970798,17.0680037 70.39475,16.332 C71.0924201,15.5959963 71.44125,14.6070062 71.44125,13.365 C71.44125,12.1229938 71.0924201,11.1340037 70.39475,10.398 C69.6970798,9.66199632 68.8499216,9.294 67.85325,9.294 C66.8719117,9.294 66.0285868,9.66582961 65.32325,10.4095 C64.6179131,11.1531704 64.26525,12.1383272 64.26525,13.365 C64.26525,14.5916728 64.6179131,15.5768296 65.32325,16.3205 C66.0285868,17.0641704 66.8719117,17.436 67.85325,17.436 Z M80.969,24.336 C79.6349933,24.336 78.5463375,24.0025033 77.703,23.3355 C76.8596624,22.6684967 76.2540018,21.905671 75.886,21.047 L77.818,20.242 C78.0326677,20.8553364 78.4274971,21.3689979 79.0025,21.783 C79.5775029,22.1970021 80.2329963,22.404 80.969,22.404 C82.1343391,22.404 83.0504966,22.0551702 83.7175,21.3575 C84.3845033,20.6598298 84.718,19.713006 84.718,18.517 L84.718,17.436 L84.626,17.436 C84.2579981,17.9880028 83.73667,18.4479982 83.062,18.816 C82.3873299,19.1840018 81.6283375,19.368 80.785,19.368 C79.328326,19.368 78.0710053,18.7930058 77.013,17.643 C75.9549947,16.4929943 75.426,15.0670085 75.426,13.365 C75.426,11.6629915 75.9549947,10.2370057 77.013,9.087 C78.0710053,7.93699425 79.328326,7.362 80.785,7.362 C81.6283375,7.362 82.3873299,7.54599816 83.062,7.914 C83.73667,8.28200184 84.2579981,8.74199724 84.626,9.294 L84.718,9.294 L84.718,7.73 L86.742,7.73 L86.742,18.425 C86.742,20.3570097 86.1823389,21.8251616 85.063,22.8295 C83.943661,23.8338384 82.579008,24.336 80.969,24.336 Z M81.13,17.436 C82.1266716,17.436 82.9738298,17.0680037 83.6715,16.332 C84.3691701,15.5959963 84.718,14.6070062 84.718,13.365 C84.718,12.1229938 84.3691701,11.1340037 83.6715,10.398 C82.9738298,9.66199632 82.1266716,9.294 81.13,9.294 C80.1486617,9.294 79.3053368,9.66582961 78.6,10.4095 C77.8946631,11.1531704 77.542,12.1383272 77.542,13.365 C77.542,14.5916728 77.8946631,15.5768296 78.6,16.3205 C79.3053368,17.0641704 80.1486617,17.436 81.13,17.436 Z M92.91175,19.368 C91.715744,19.368 90.715254,19.0230035 89.91025,18.333 C89.105246,17.6429965 88.70275,16.7306723 88.70275,15.596 C88.70275,14.3693272 89.1780786,13.4071702 90.12875,12.7095 C91.0794214,12.0118298 92.2524097,11.663 93.64775,11.663 C94.8897562,11.663 95.9094127,11.8929977 96.70675,12.353 L96.70675,12.031 C96.70675,11.2029959 96.4230862,10.5398358 95.85575,10.0415 C95.2884138,9.54316418 94.5907541,9.294 93.76275,9.294 C93.1494136,9.294 92.5935858,9.43966521 92.09525,9.731 C91.5969142,10.0223348 91.2557509,10.4209975 91.07175,10.927 L89.13975,10.099 C89.400418,9.42432996 89.9140795,8.79950287 90.68075,8.2245 C91.4474205,7.64949712 92.4594104,7.362 93.71675,7.362 C95.1580905,7.362 96.3540786,7.78366245 97.30475,8.627 C98.2554214,9.47033755 98.73075,10.658659 98.73075,12.192 L98.73075,19 L96.70675,19 L96.70675,17.436 L96.61475,17.436 C95.7714124,18.7240064 94.5370914,19.368 92.91175,19.368 Z M93.25675,17.436 C94.1307544,17.436 94.9242464,17.1101699 95.63725,16.4585 C96.3502536,15.8068301 96.70675,15.0363378 96.70675,14.147 C96.108747,13.6563309 95.211756,13.411 94.01575,13.411 C92.9884115,13.411 92.2140859,13.6333311 91.69275,14.078 C91.171414,14.5226689 90.91075,15.043997 90.91075,15.642 C90.91075,16.1940028 91.1484143,16.6309984 91.62375,16.953 C92.0990857,17.2750016 92.6434136,17.436 93.25675,17.436 Z M103.2905,7.73 L103.2905,9.294 L103.3825,9.294 C103.689168,8.75733065 104.172163,8.30116854 104.8315,7.9255 C105.490837,7.54983146 106.196163,7.362 106.9475,7.362 C108.34284,7.362 109.408496,7.79132904 110.1445,8.65 C110.880504,9.50867096 111.2485,10.6586595 111.2485,12.1 L111.2485,19 L109.1325,19 L109.1325,12.422 C109.1325,10.3366562 108.204843,9.294 106.3495,9.294 C105.475496,9.294 104.762503,9.64282985 104.2105,10.3405 C103.658497,11.0381702 103.3825,11.8469954 103.3825,12.767 L103.3825,19 L101.2665,19 L101.2665,7.73 L103.2905,7.73 Z M123.795,19.368 C122.338326,19.368 121.081005,18.7930057 120.023,17.643 C118.964995,16.4929942 118.436,15.0670085 118.436,13.365 C118.436,11.6629915 118.964995,10.2370057 120.023,9.087 C121.081005,7.93699425 122.338326,7.362 123.795,7.362 C124.653671,7.362 125.424163,7.54599816 126.1065,7.914 C126.788837,8.28200184 127.298665,8.74199724 127.636,9.294 L127.728,9.294 L127.636,7.73 L127.636,2.532 L129.752,2.532 L129.752,19 L127.728,19 L127.728,17.436 L127.636,17.436 C127.298665,17.9880028 126.788837,18.4479982 126.1065,18.816 C125.424163,19.1840018 124.653671,19.368 123.795,19.368 Z M124.14,17.436 C125.136672,17.436 125.98383,17.0680037 126.6815,16.332 C127.37917,15.5959963 127.728,14.6070062 127.728,13.365 C127.728,12.1229938 127.37917,11.1340037 126.6815,10.398 C125.98383,9.66199632 125.136672,9.294 124.14,9.294 C123.158662,9.294 122.315337,9.66582961 121.61,10.4095 C120.904663,11.1531704 120.552,12.1383272 120.552,13.365 C120.552,14.5916728 120.904663,15.5768296 121.61,16.3205 C122.315337,17.0641704 123.158662,17.436 124.14,17.436 Z M137.46275,19.368 C135.760742,19.368 134.376922,18.8006723 133.31125,17.666 C132.245578,16.5313277 131.71275,15.0976753 131.71275,13.365 C131.71275,11.7243251 132.230245,10.3136726 133.26525,9.133 C134.300255,7.95232743 135.622742,7.362 137.23275,7.362 C138.904092,7.362 140.241912,7.90632789 141.24625,8.995 C142.250588,10.0836721 142.75275,11.5403242 142.75275,13.365 L142.72975,13.756 L133.82875,13.756 C133.890084,14.8906723 134.26958,15.7876634 134.96725,16.447 C135.66492,17.1063366 136.481412,17.436 137.41675,17.436 C138.934758,17.436 139.962081,16.7920064 140.49875,15.504 L142.38475,16.286 C142.016748,17.1600044 141.411088,17.8921637 140.56775,18.4825 C139.724412,19.0728363 138.689423,19.368 137.46275,19.368 Z M140.49875,12.008 C140.45275,11.3639968 140.157586,10.7506696 139.61325,10.168 C139.068914,9.58533042 138.260089,9.294 137.18675,9.294 C136.404746,9.294 135.726253,9.53933088 135.15125,10.03 C134.576247,10.5206691 134.181418,11.1799959 133.96675,12.008 L140.49875,12.008 Z M146.8525,7.73 L146.8525,9.294 L146.9445,9.294 C147.251168,8.75733065 147.734163,8.30116854 148.3935,7.9255 C149.052837,7.54983146 149.758163,7.362 150.5095,7.362 C151.90484,7.362 152.970496,7.79132904 153.7065,8.65 C154.442504,9.50867096 154.8105,10.6586595 154.8105,12.1 L154.8105,19 L152.6945,19 L152.6945,12.422 C152.6945,10.3366562 151.766843,9.294 149.9115,9.294 C149.037496,9.294 148.324503,9.64282985 147.7725,10.3405 C147.220497,11.0381702 146.9445,11.8469954 146.9445,12.767 L146.9445,19 L144.8285,19 L144.8285,7.73 L146.8525,7.73 Z M162.22225,24.336 C160.888243,24.336 159.799588,24.0025033 158.95625,23.3355 C158.112913,22.6684967 157.507252,21.905671 157.13925,21.047 L159.07125,20.242 C159.285918,20.8553364 159.680747,21.3689979 160.25575,21.783 C160.830753,22.1970021 161.486246,22.404 162.22225,22.404 C163.387589,22.404 164.303747,22.0551702 164.97075,21.3575 C165.637753,20.6598298 165.97125,19.713006 165.97125,18.517 L165.97125,17.436 L165.87925,17.436 C165.511248,17.9880028 164.98992,18.4479982 164.31525,18.816 C163.64058,19.1840018 162.881588,19.368 162.03825,19.368 C160.581576,19.368 159.324255,18.7930058 158.26625,17.643 C157.208245,16.4929943 156.67925,15.0670085 156.67925,13.365 C156.67925,11.6629915 157.208245,10.2370057 158.26625,9.087 C159.324255,7.93699425 160.581576,7.362 162.03825,7.362 C162.881588,7.362 163.64058,7.54599816 164.31525,7.914 C164.98992,8.28200184 165.511248,8.74199724 165.87925,9.294 L165.97125,9.294 L165.97125,7.73 L167.99525,7.73 L167.99525,18.425 C167.99525,20.3570097 167.435589,21.8251616 166.31625,22.8295 C165.196911,23.8338384 163.832258,24.336 162.22225,24.336 Z M162.38325,17.436 C163.379922,17.436 164.22708,17.0680037 164.92475,16.332 C165.62242,15.5959963 165.97125,14.6070062 165.97125,13.365 C165.97125,12.1229938 165.62242,11.1340037 164.92475,10.398 C164.22708,9.66199632 163.379922,9.294 162.38325,9.294 C161.401912,9.294 160.558587,9.66582961 159.85325,10.4095 C159.147913,11.1531704 158.79525,12.1383272 158.79525,13.365 C158.79525,14.5916728 159.147913,15.5768296 159.85325,16.3205 C160.558587,17.0641704 161.401912,17.436 162.38325,17.436 Z M174.165,19.368 C172.968994,19.368 171.968504,19.0230035 171.1635,18.333 C170.358496,17.6429965 169.956,16.7306723 169.956,15.596 C169.956,14.3693272 170.431329,13.4071702 171.382,12.7095 C172.332671,12.0118298 173.50566,11.663 174.901,11.663 C176.143006,11.663 177.162663,11.8929977 177.96,12.353 L177.96,12.031 C177.96,11.2029959 177.676336,10.5398358 177.109,10.0415 C176.541664,9.54316418 175.844004,9.294 175.016,9.294 C174.402664,9.294 173.846836,9.43966521 173.3485,9.731 C172.850164,10.0223348 172.509001,10.4209975 172.325,10.927 L170.393,10.099 C170.653668,9.42432996 171.16733,8.79950287 171.934,8.2245 C172.700671,7.64949712 173.71266,7.362 174.97,7.362 C176.411341,7.362 177.607329,7.78366245 178.558,8.627 C179.508671,9.47033755 179.984,10.658659 179.984,12.192 L179.984,19 L177.96,19 L177.96,17.436 L177.868,17.436 C177.024663,18.7240064 175.790342,19.368 174.165,19.368 Z M174.51,17.436 C175.384004,17.436 176.177497,17.1101699 176.8905,16.4585 C177.603504,15.8068301 177.96,15.0363378 177.96,14.147 C177.361997,13.6563309 176.465006,13.411 175.269,13.411 C174.241662,13.411 173.467336,13.6333311 172.946,14.078 C172.424664,14.5226689 172.164,15.043997 172.164,15.642 C172.164,16.1940028 172.401664,16.6309984 172.877,16.953 C173.352336,17.2750016 173.896664,17.436 174.51,17.436 Z M184.54375,7.73 L184.54375,9.294 L184.63575,9.294 C184.942418,8.75733065 185.425413,8.30116854 186.08475,7.9255 C186.744087,7.54983146 187.449413,7.362 188.20075,7.362 C189.59609,7.362 190.661746,7.79132904 191.39775,8.65 C192.133754,9.50867096 192.50175,10.6586595 192.50175,12.1 L192.50175,19 L190.38575,19 L190.38575,12.422 C190.38575,10.3366562 189.458093,9.294 187.60275,9.294 C186.728746,9.294 186.015753,9.64282985 185.46375,10.3405 C184.911747,11.0381702 184.63575,11.8469954 184.63575,12.767 L184.63575,19 L182.51975,19 L182.51975,7.73 L184.54375,7.73 Z" id="melanggan-dengan" fill="#FFFFFF"></path>
        <g id="Group" transform="translate(201.000000, 0.000000)" fill="#FFFFFF" fill-rule="nonzero">
            <path d="M9.36714443,19 C4.27673649,19 0,14.7346939 0,9.5 C0,4.26530612 4.27673649,0 9.36714443,0 C12.185226,0 14.1896362,1.13265306 15.6979052,2.62244898 L13.92172,4.44897959 C12.8401323,3.40816327 11.3715546,2.59183673 9.36714443,2.59183673 C5.646086,2.59183673 2.73869901,5.67346939 2.73869901,9.5 C2.73869901,13.3265306 5.646086,16.4081633 9.36714443,16.4081633 C11.7783903,16.4081633 13.1477398,15.4081633 14.030871,14.5102041 C14.755237,13.7653061 15.2216097,12.7040816 15.4002205,11.244898 L9.36714443,11.244898 L9.36714443,8.64285714 L17.8610805,8.64285714 C17.9503859,9.10204082 18,9.66326531 18,10.2653061 C18,12.2142857 17.4840132,14.622449 15.8169791,16.3367347 C14.1896362,18.0714286 12.1256891,19 9.36714443,19 Z" id="Shape"></path>
            <path d="M32,13 C32,16.4557596 29.3096447,19 26,19 C22.6903553,19 20,16.4557596 20,13 C20,9.52420701 22.6903553,7 26,7 C29.3096447,7 32,9.52420701 32,13 Z M29.3705584,13 C29.3705584,10.836394 27.8071066,9.3639399 26,9.3639399 C24.1928934,9.3639399 22.6294416,10.8464107 22.6294416,13 C22.6294416,15.1335559 24.1928934,16.6360601 26,16.6360601 C27.8071066,16.6360601 29.3705584,15.1435726 29.3705584,13 Z" id="Shape"></path>
            <path d="M45,13 C45,16.4557596 42.3096447,19 39,19 C35.7005076,19 33,16.4557596 33,13 C33,9.52420701 35.6903553,7 39,7 C42.3096447,7 45,9.52420701 45,13 Z M42.3807107,13 C42.3807107,10.836394 40.8172589,9.3639399 39.0101523,9.3639399 C37.2030457,9.3639399 35.6395939,10.8464107 35.6395939,13 C35.6395939,15.1335559 37.2030457,16.6360601 39.0101523,16.6360601 C40.8172589,16.6460768 42.3807107,15.1435726 42.3807107,13 Z" id="Shape"></path>
            <path d="M57,7.3621186 L57,17.8929188 C57,22.228555 54.5013055,24 51.5430809,24 C48.7571802,24 47.0913838,22.0915371 46.45953,20.5354059 L48.6518712,19.6056419 C49.0443864,20.5647668 50.0017406,21.6902706 51.5430809,21.6902706 C53.4386423,21.6902706 54.6066144,20.4864709 54.6066144,18.2452504 L54.6066144,17.4035694 L54.5204526,17.4035694 C53.9556136,18.1180196 52.8642298,18.7345999 51.4952132,18.7345999 C48.6231506,18.7345999 46,16.1801957 46,12.8917674 C46,9.58376511 48.6327241,7 51.4952132,7 C52.8642298,7 53.9556136,7.6263673 54.5204526,8.31145653 L54.6066144,8.31145653 L54.6066144,7.3621186 L57,7.3621186 Z M54.7789382,12.9015544 C54.7789382,10.8364997 53.4290688,9.31951641 51.7154047,9.31951641 C49.97302,9.31951641 48.5178416,10.8267127 48.5178416,12.9015544 C48.5178416,14.9470351 49.97302,16.4346575 51.7154047,16.4346575 C53.4290688,16.4346575 54.7789382,14.9470351 54.7789382,12.9015544 Z" id="Shape"></path>
            <polygon id="Shape" points="63 1 63 19 60 19 60 1"></polygon>
            <path d="M72.8441203,14.9732888 L74.8896992,16.3355593 C74.2278943,17.3171953 72.633546,19 69.8760255,19 C66.4567001,19 64,16.3656093 64,13 C64,9.43405676 66.4867821,7 69.5852325,7 C72.7037375,7 74.2278943,9.47412354 74.7292616,10.8163606 L75,11.4974958 L66.9680948,14.8230384 C67.579763,16.0250417 68.5423883,16.6460768 69.8860529,16.6460768 C71.2297174,16.6460768 72.1622607,15.9749583 72.8441203,14.9732888 Z M66.5369189,12.8096828 L71.911577,10.5859766 C71.6107566,9.83472454 70.72835,9.31385643 69.6754786,9.31385643 C68.331814,9.31385643 66.4667274,10.4958264 66.5369189,12.8096828 Z" id="Shape"></path>
        </g>
    </g>
</svg>