<?xml version="1.0" encoding="UTF-8"?>
<svg width="248px" height="24px" viewBox="0 0 248 24" version="1.1" xmlns="http://www.w3.org/2000/svg" xmlns:xlink="http://www.w3.org/1999/xlink">
    <!-- Generator: Sketch 51.3 (57544) - http://www.bohemiancoding.com/sketch -->
    <title>SwG-NL-WOB</title>
    <desc>Created with Sketch.</desc>
    <defs></defs>
    <g id="SwG-NL-WOB" stroke="none" stroke-width="1" fill="none" fill-rule="evenodd">
        <path d="M6.26024992,24.336 C4.92624325,24.336 3.83758747,24.0025033 2.99424992,23.3355 C2.15091237,22.6684967 1.54525176,21.905671 1.17724992,21.047 L3.10924992,20.242 C3.32391766,20.8553364 3.71874704,21.3689979 4.29374992,21.783 C4.86875279,22.1970021 5.52424624,22.404 6.26024992,22.404 C7.42558908,22.404 8.34174658,22.0551702 9.00874992,21.3575 C9.67575325,20.6598298 10.0092499,19.713006 10.0092499,18.517 L10.0092499,17.436 L9.91724992,17.436 C9.54924808,17.9880028 9.02791996,18.4479982 8.35324992,18.816 C7.67857988,19.1840018 6.91958747,19.368 6.07624992,19.368 C4.61957597,19.368 3.36225521,18.7930058 2.30424992,17.643 C1.24624463,16.4929943 0.717249917,15.0670085 0.717249917,13.365 C0.717249917,11.6629915 1.24624463,10.2370057 2.30424992,9.087 C3.36225521,7.93699425 4.61957597,7.362 6.07624992,7.362 C6.91958747,7.362 7.67857988,7.54599816 8.35324992,7.914 C9.02791996,8.28200184 9.54924808,8.74199724 9.91724992,9.294 L10.0092499,9.294 L10.0092499,7.73 L12.0332499,7.73 L12.0332499,18.425 C12.0332499,20.3570097 11.4735888,21.8251616 10.3542499,22.8295 C9.23491099,23.8338384 7.87025797,24.336 6.26024992,24.336 Z M6.42124992,17.436 C7.41792157,17.436 8.26507976,17.0680037 8.96274992,16.332 C9.66042007,15.5959963 10.0092499,14.6070062 10.0092499,13.365 C10.0092499,12.1229938 9.66042007,11.1340037 8.96274992,10.398 C8.26507976,9.66199632 7.41792157,9.294 6.42124992,9.294 C5.43991168,9.294 4.59658678,9.66582961 3.89124992,10.4095 C3.18591306,11.1531704 2.83324992,12.1383272 2.83324992,13.365 C2.83324992,14.5916728 3.18591306,15.5768296 3.89124992,16.3205 C4.59658678,17.0641704 5.43991168,17.436 6.42124992,17.436 Z M19.7439999,19.368 C18.0419914,19.368 16.6581719,18.8006723 15.5924999,17.666 C14.5268279,16.5313277 13.9939999,15.0976753 13.9939999,13.365 C13.9939999,11.7243251 14.5114948,10.3136726 15.5464999,9.133 C16.5815051,7.95232743 17.9039919,7.362 19.5139999,7.362 C21.1853416,7.362 22.5231616,7.90632789 23.5274999,8.995 C24.5318383,10.0836721 25.0339999,11.5403242 25.0339999,13.365 L25.0109999,13.756 L16.1099999,13.756 C16.1713336,14.8906723 16.5508298,15.7876634 17.2484999,16.447 C17.9461701,17.1063366 18.7626619,17.436 19.6979999,17.436 C21.2160075,17.436 22.2433306,16.7920064 22.7799999,15.504 L24.6659999,16.286 C24.2979981,17.1600044 23.6923375,17.8921637 22.8489999,18.4825 C22.0056624,19.0728363 20.9706727,19.368 19.7439999,19.368 Z M22.7799999,12.008 C22.7339997,11.3639968 22.438836,10.7506696 21.8944999,10.168 C21.3501639,9.58533042 20.5413386,9.294 19.4679999,9.294 C18.685996,9.294 18.0075028,9.53933088 17.4324999,10.03 C16.8574971,10.5206691 16.4626677,11.1799959 16.2479999,12.008 L22.7799999,12.008 Z M30.7897499,19.368 C29.593744,19.368 28.593254,19.0230035 27.7882499,18.333 C26.9832459,17.6429965 26.5807499,16.7306723 26.5807499,15.596 C26.5807499,14.3693272 27.0560785,13.4071702 28.0067499,12.7095 C28.9574214,12.0118298 30.1304096,11.663 31.5257499,11.663 C32.7677562,11.663 33.7874126,11.8929977 34.5847499,12.353 L34.5847499,12.031 C34.5847499,11.2029959 34.3010861,10.5398358 33.7337499,10.0415 C33.1664138,9.54316418 32.4687541,9.294 31.6407499,9.294 C31.0274135,9.294 30.4715858,9.43966521 29.9732499,9.731 C29.4749141,10.0223348 29.1337509,10.4209975 28.9497499,10.927 L27.0177499,10.099 C27.2784179,9.42432996 27.7920794,8.79950287 28.5587499,8.2245 C29.3254204,7.64949712 30.3374103,7.362 31.5947499,7.362 C33.0360905,7.362 34.2320785,7.78366245 35.1827499,8.627 C36.1334214,9.47033755 36.6087499,10.658659 36.6087499,12.192 L36.6087499,19 L34.5847499,19 L34.5847499,17.436 L34.4927499,17.436 C33.6494124,18.7240064 32.4150914,19.368 30.7897499,19.368 Z M31.1347499,17.436 C32.0087543,17.436 32.8022464,17.1101699 33.5152499,16.4585 C34.2282535,15.8068301 34.5847499,15.0363378 34.5847499,14.147 C33.986747,13.6563309 33.0897559,13.411 31.8937499,13.411 C30.8664115,13.411 30.0920859,13.6333311 29.5707499,14.078 C29.049414,14.5226689 28.7887499,15.043997 28.7887499,15.642 C28.7887499,16.1940028 29.0264142,16.6309984 29.5017499,16.953 C29.9770857,17.2750016 30.5214135,17.436 31.1347499,17.436 Z M45.1015,19.368 C44.242829,19.368 43.4723367,19.1840018 42.79,18.816 C42.1076632,18.4479982 41.597835,17.9880028 41.2605,17.436 L41.1685,17.436 L41.1685,19 L39.1445,19 L39.1445,2.532 L41.2605,2.532 L41.2605,7.73 L41.1685,9.294 L41.2605,9.294 C41.597835,8.74199724 42.1076632,8.28200184 42.79,7.914 C43.4723367,7.54599816 44.242829,7.362 45.1015,7.362 C46.5581739,7.362 47.8154947,7.93699425 48.8735,9.087 C49.9315052,10.2370057 50.4605,11.6629915 50.4605,13.365 C50.4605,15.0670085 49.9315052,16.4929942 48.8735,17.643 C47.8154947,18.7930057 46.5581739,19.368 45.1015,19.368 Z M44.7565,17.436 C45.7378382,17.436 46.5811631,17.0641704 47.2865,16.3205 C47.9918368,15.5768296 48.3445,14.5916728 48.3445,13.365 C48.3445,12.1383272 47.9918368,11.1531704 47.2865,10.4095 C46.5811631,9.66582961 45.7378382,9.294 44.7565,9.294 C43.7598283,9.294 42.9126701,9.66199632 42.215,10.398 C41.5173298,11.1340037 41.1685,12.1229938 41.1685,13.365 C41.1685,14.6070062 41.5173298,15.5959963 42.215,16.332 C42.9126701,17.0680037 43.7598283,17.436 44.7565,17.436 Z M53.52525,9.087 C54.6139221,7.93699425 56.0015749,7.362 57.68825,7.362 C59.3749251,7.362 60.7625779,7.93316096 61.85125,9.0755 C62.9399221,10.217839 63.48425,11.6476581 63.48425,13.365 C63.48425,15.0823419 62.9399221,16.512161 61.85125,17.6545 C60.7625779,18.796839 59.3749251,19.368 57.68825,19.368 C56.0015749,19.368 54.6139221,18.796839 53.52525,17.6545 C52.4365779,16.512161 51.89225,15.0823419 51.89225,13.365 C51.89225,11.6476581 52.4365779,10.2216723 53.52525,9.087 Z M55.08925,16.332 C55.8252536,17.0680037 56.6915783,17.436 57.68825,17.436 C58.6849216,17.436 59.547413,17.0641704 60.27575,16.3205 C61.0040869,15.5768296 61.36825,14.5916728 61.36825,13.365 C61.36825,12.1383272 61.0040869,11.1531704 60.27575,10.4095 C59.547413,9.66582961 58.6849216,9.294 57.68825,9.294 C56.6915783,9.294 55.8290869,9.66582961 55.10075,10.4095 C54.372413,11.1531704 54.00825,12.1383272 54.00825,13.365 C54.00825,14.5916728 54.3685797,15.5806629 55.08925,16.332 Z M67.354,7.73 L67.354,9.294 L67.446,9.294 C67.7526682,8.75733065 68.2356633,8.30116854 68.895,7.9255 C69.5543366,7.54983146 70.2596629,7.362 71.011,7.362 C72.4063403,7.362 73.4719963,7.79132904 74.208,8.65 C74.9440037,9.50867096 75.312,10.6586595 75.312,12.1 L75.312,19 L73.196,19 L73.196,12.422 C73.196,10.3366562 72.2683426,9.294 70.413,9.294 C69.5389956,9.294 68.8260027,9.64282985 68.274,10.3405 C67.7219972,11.0381702 67.446,11.8469954 67.446,12.767 L67.446,19 L65.33,19 L65.33,7.73 L67.354,7.73 Z M79.96375,7.73 L79.96375,9.294 L80.05575,9.294 C80.3624182,8.75733065 80.8454134,8.30116854 81.50475,7.9255 C82.1640866,7.54983146 82.8694129,7.362 83.62075,7.362 C85.0160903,7.362 86.0817463,7.79132904 86.81775,8.65 C87.5537537,9.50867096 87.92175,10.6586595 87.92175,12.1 L87.92175,19 L85.80575,19 L85.80575,12.422 C85.80575,10.3366562 84.8780926,9.294 83.02275,9.294 C82.1487456,9.294 81.4357527,9.64282985 80.88375,10.3405 C80.3317472,11.0381702 80.05575,11.8469954 80.05575,12.767 L80.05575,19 L77.93975,19 L77.93975,7.73 L79.96375,7.73 Z M95.6555,19.368 C93.9534915,19.368 92.569672,18.8006723 91.504,17.666 C90.438328,16.5313277 89.9055,15.0976753 89.9055,13.365 C89.9055,11.7243251 90.4229948,10.3136726 91.458,9.133 C92.4930052,7.95232743 93.8154919,7.362 95.4255,7.362 C97.0968417,7.362 98.4346616,7.90632789 99.439,8.995 C100.443338,10.0836721 100.9455,11.5403242 100.9455,13.365 L100.9225,13.756 L92.0215,13.756 C92.0828336,14.8906723 92.4623298,15.7876634 93.16,16.447 C93.8576702,17.1063366 94.674162,17.436 95.6095,17.436 C97.1275076,17.436 98.1548306,16.7920064 98.6915,15.504 L100.5775,16.286 C100.209498,17.1600044 99.6038375,17.8921637 98.7605,18.4825 C97.9171624,19.0728363 96.8821728,19.368 95.6555,19.368 Z M98.6915,12.008 C98.6454998,11.3639968 98.3503361,10.7506696 97.806,10.168 C97.2616639,9.58533042 96.4528387,9.294 95.3795,9.294 C94.5974961,9.294 93.9190029,9.53933088 93.344,10.03 C92.7689971,10.5206691 92.3741677,11.1799959 92.1595,12.008 L98.6915,12.008 Z M108.24225,19.368 C106.540242,19.368 105.156422,18.8006723 104.09075,17.666 C103.025078,16.5313277 102.49225,15.0976753 102.49225,13.365 C102.49225,11.7243251 103.009745,10.3136726 104.04475,9.133 C105.079755,7.95232743 106.402242,7.362 108.01225,7.362 C109.683592,7.362 111.021412,7.90632789 112.02575,8.995 C113.030088,10.0836721 113.53225,11.5403242 113.53225,13.365 L113.50925,13.756 L104.60825,13.756 C104.669584,14.8906723 105.04908,15.7876634 105.74675,16.447 C106.44442,17.1063366 107.260912,17.436 108.19625,17.436 C109.714258,17.436 110.741581,16.7920064 111.27825,15.504 L113.16425,16.286 C112.796248,17.1600044 112.190588,17.8921637 111.34725,18.4825 C110.503912,19.0728363 109.468923,19.368 108.24225,19.368 Z M111.27825,12.008 C111.23225,11.3639968 110.937086,10.7506696 110.39275,10.168 C109.848414,9.58533042 109.039589,9.294 107.96625,9.294 C107.184246,9.294 106.505753,9.53933088 105.93075,10.03 C105.355747,10.5206691 104.960918,11.1799959 104.74625,12.008 L111.27825,12.008 Z M117.724,19 L115.608,19 L115.608,7.73 L117.632,7.73 L117.632,9.57 L117.724,9.57 C117.938668,8.9566636 118.379497,8.45066866 119.0465,8.052 C119.713503,7.65333134 120.36133,7.454 120.99,7.454 C121.61867,7.454 122.147665,7.54599908 122.577,7.73 L121.772,9.708 C121.495999,9.60066613 121.120336,9.547 120.645,9.547 C119.87833,9.547 119.199836,9.84983031 118.6095,10.4555 C118.019164,11.0611697 117.724,11.8546618 117.724,12.836 L117.724,19 Z M128.12575,19.368 C126.669076,19.368 125.411755,18.7930057 124.35375,17.643 C123.295745,16.4929942 122.76675,15.0670085 122.76675,13.365 C122.76675,11.6629915 123.295745,10.2370057 124.35375,9.087 C125.411755,7.93699425 126.669076,7.362 128.12575,7.362 C128.984421,7.362 129.754913,7.54599816 130.43725,7.914 C131.119587,8.28200184 131.629415,8.74199724 131.96675,9.294 L132.05875,9.294 L131.96675,7.73 L131.96675,2.532 L134.08275,2.532 L134.08275,19 L132.05875,19 L132.05875,17.436 L131.96675,17.436 C131.629415,17.9880028 131.119587,18.4479982 130.43725,18.816 C129.754913,19.1840018 128.984421,19.368 128.12575,19.368 Z M128.47075,17.436 C129.467422,17.436 130.31458,17.0680037 131.01225,16.332 C131.70992,15.5959963 132.05875,14.6070062 132.05875,13.365 C132.05875,12.1229938 131.70992,11.1340037 131.01225,10.398 C130.31458,9.66199632 129.467422,9.294 128.47075,9.294 C127.489412,9.294 126.646087,9.66582961 125.94075,10.4095 C125.235413,11.1531704 124.88275,12.1383272 124.88275,13.365 C124.88275,14.5916728 125.235413,15.5768296 125.94075,16.3205 C126.646087,17.0641704 127.489412,17.436 128.47075,17.436 Z M142.99525,9.087 C144.083922,7.93699425 145.471575,7.362 147.15825,7.362 C148.844925,7.362 150.232578,7.93316096 151.32125,9.0755 C152.409922,10.217839 152.95425,11.6476581 152.95425,13.365 C152.95425,15.0823419 152.409922,16.512161 151.32125,17.6545 C150.232578,18.796839 148.844925,19.368 147.15825,19.368 C145.471575,19.368 144.083922,18.796839 142.99525,17.6545 C141.906578,16.512161 141.36225,15.0823419 141.36225,13.365 C141.36225,11.6476581 141.906578,10.2216723 142.99525,9.087 Z M144.55925,16.332 C145.295254,17.0680037 146.161578,17.436 147.15825,17.436 C148.154922,17.436 149.017413,17.0641704 149.74575,16.3205 C150.474087,15.5768296 150.83825,14.5916728 150.83825,13.365 C150.83825,12.1383272 150.474087,11.1531704 149.74575,10.4095 C149.017413,9.66582961 148.154922,9.294 147.15825,9.294 C146.161578,9.294 145.299087,9.66582961 144.57075,10.4095 C143.842413,11.1531704 143.47825,12.1383272 143.47825,13.365 C143.47825,14.5916728 143.83858,15.5806629 144.55925,16.332 Z M160.78,19.368 C159.921329,19.368 159.150837,19.1840018 158.4685,18.816 C157.786163,18.4479982 157.276335,17.9880028 156.939,17.436 L156.847,17.436 L156.939,19 L156.939,23.968 L154.823,23.968 L154.823,7.73 L156.847,7.73 L156.847,9.294 L156.939,9.294 C157.276335,8.74199724 157.786163,8.28200184 158.4685,7.914 C159.150837,7.54599816 159.921329,7.362 160.78,7.362 C162.236674,7.362 163.493995,7.93699425 164.552,9.087 C165.610005,10.2370057 166.139,11.6629915 166.139,13.365 C166.139,15.0670085 165.610005,16.4929943 164.552,17.643 C163.493995,18.7930058 162.236674,19.368 160.78,19.368 Z M160.435,17.436 C161.416338,17.436 162.259663,17.0641704 162.965,16.3205 C163.670337,15.5768296 164.023,14.5916728 164.023,13.365 C164.023,12.1383272 163.670337,11.1531704 162.965,10.4095 C162.259663,9.66582961 161.416338,9.294 160.435,9.294 C159.438328,9.294 158.59117,9.66199632 157.8935,10.398 C157.19583,11.1340037 156.847,12.1229938 156.847,13.365 C156.847,14.6070062 157.19583,15.5959963 157.8935,16.332 C158.59117,17.0680037 159.438328,17.436 160.435,17.436 Z" id="geabonneerd-op" fill="#FFFFFF"></path>
        <g id="Group" transform="translate(173.000000, 0.000000)" fill="#FFFFFF" fill-rule="nonzero">
            <path d="M9.36714443,19 C4.27673649,19 0,14.7346939 0,9.5 C0,4.26530612 4.27673649,0 9.36714443,0 C12.185226,0 14.1896362,1.13265306 15.6979052,2.62244898 L13.92172,4.44897959 C12.8401323,3.40816327 11.3715546,2.59183673 9.36714443,2.59183673 C5.646086,2.59183673 2.73869901,5.67346939 2.73869901,9.5 C2.73869901,13.3265306 5.646086,16.4081633 9.36714443,16.4081633 C11.7783903,16.4081633 13.1477398,15.4081633 14.030871,14.5102041 C14.755237,13.7653061 15.2216097,12.7040816 15.4002205,11.244898 L9.36714443,11.244898 L9.36714443,8.64285714 L17.8610805,8.64285714 C17.9503859,9.10204082 18,9.66326531 18,10.2653061 C18,12.2142857 17.4840132,14.622449 15.8169791,16.3367347 C14.1896362,18.0714286 12.1256891,19 9.36714443,19 Z" id="Shape"></path>
            <path d="M32,13 C32,16.4557596 29.3096447,19 26,19 C22.6903553,19 20,16.4557596 20,13 C20,9.52420701 22.6903553,7 26,7 C29.3096447,7 32,9.52420701 32,13 Z M29.3705584,13 C29.3705584,10.836394 27.8071066,9.3639399 26,9.3639399 C24.1928934,9.3639399 22.6294416,10.8464107 22.6294416,13 C22.6294416,15.1335559 24.1928934,16.6360601 26,16.6360601 C27.8071066,16.6360601 29.3705584,15.1435726 29.3705584,13 Z" id="Shape"></path>
            <path d="M45,13 C45,16.4557596 42.3096447,19 39,19 C35.7005076,19 33,16.4557596 33,13 C33,9.52420701 35.6903553,7 39,7 C42.3096447,7 45,9.52420701 45,13 Z M42.3807107,13 C42.3807107,10.836394 40.8172589,9.3639399 39.0101523,9.3639399 C37.2030457,9.3639399 35.6395939,10.8464107 35.6395939,13 C35.6395939,15.1335559 37.2030457,16.6360601 39.0101523,16.6360601 C40.8172589,16.6460768 42.3807107,15.1435726 42.3807107,13 Z" id="Shape"></path>
            <path d="M57,7.3621186 L57,17.8929188 C57,22.228555 54.5013055,24 51.5430809,24 C48.7571802,24 47.0913838,22.0915371 46.45953,20.5354059 L48.6518712,19.6056419 C49.0443864,20.5647668 50.0017406,21.6902706 51.5430809,21.6902706 C53.4386423,21.6902706 54.6066144,20.4864709 54.6066144,18.2452504 L54.6066144,17.4035694 L54.5204526,17.4035694 C53.9556136,18.1180196 52.8642298,18.7345999 51.4952132,18.7345999 C48.6231506,18.7345999 46,16.1801957 46,12.8917674 C46,9.58376511 48.6327241,7 51.4952132,7 C52.8642298,7 53.9556136,7.6263673 54.5204526,8.31145653 L54.6066144,8.31145653 L54.6066144,7.3621186 L57,7.3621186 Z M54.7789382,12.9015544 C54.7789382,10.8364997 53.4290688,9.31951641 51.7154047,9.31951641 C49.97302,9.31951641 48.5178416,10.8267127 48.5178416,12.9015544 C48.5178416,14.9470351 49.97302,16.4346575 51.7154047,16.4346575 C53.4290688,16.4346575 54.7789382,14.9470351 54.7789382,12.9015544 Z" id="Shape"></path>
            <polygon id="Shape" points="63 1 63 19 60 19 60 1"></polygon>
            <path d="M72.8441203,14.9732888 L74.8896992,16.3355593 C74.2278943,17.3171953 72.633546,19 69.8760255,19 C66.4567001,19 64,16.3656093 64,13 C64,9.43405676 66.4867821,7 69.5852325,7 C72.7037375,7 74.2278943,9.47412354 74.7292616,10.8163606 L75,11.4974958 L66.9680948,14.8230384 C67.579763,16.0250417 68.5423883,16.6460768 69.8860529,16.6460768 C71.2297174,16.6460768 72.1622607,15.9749583 72.8441203,14.9732888 Z M66.5369189,12.8096828 L71.911577,10.5859766 C71.6107566,9.83472454 70.72835,9.31385643 69.6754786,9.31385643 C68.331814,9.31385643 66.4667274,10.4958264 66.5369189,12.8096828 Z" id="Shape"></path>
        </g>
    </g>
</svg>