<?xml version="1.0" encoding="UTF-8"?>
<svg width="219px" height="25px" viewBox="0 0 219 25" version="1.1" xmlns="http://www.w3.org/2000/svg" xmlns:xlink="http://www.w3.org/1999/xlink">
    <!-- Generator: Sketch 52.3 (67297) - http://www.bohemiancoding.com/sketch -->
    <title>SwG-NO-OW</title>
    <desc>Created with Sketch.</desc>
    <g id="SwG-NO-OW" stroke="none" stroke-width="1" fill="none" fill-rule="evenodd">
        <path d="M0.276,20 L6.486,3.532 L8.878,3.532 L15.088,20 L12.742,20 L11.155,15.538 L4.232,15.538 L2.622,20 L0.276,20 Z M4.945,13.56 L10.419,13.56 L7.728,6.131 L7.636,6.131 L4.945,13.56 Z M22.75275,20.368 C21.894079,20.368 21.1235867,20.1840018 20.44125,19.816 C19.7589133,19.4479982 19.249085,18.9880028 18.91175,18.436 L18.81975,18.436 L18.81975,20 L16.79575,20 L16.79575,3.532 L18.91175,3.532 L18.91175,8.73 L18.81975,10.294 L18.91175,10.294 C19.249085,9.74199724 19.7589133,9.28200184 20.44125,8.914 C21.1235867,8.54599816 21.894079,8.362 22.75275,8.362 C24.2094239,8.362 25.4667447,8.93699425 26.52475,10.087 C27.5827553,11.2370057 28.11175,12.6629915 28.11175,14.365 C28.11175,16.0670085 27.5827553,17.4929942 26.52475,18.643 C25.4667447,19.7930057 24.2094239,20.368 22.75275,20.368 Z M22.40775,18.436 C23.3890882,18.436 24.2324131,18.0641704 24.93775,17.3205 C25.6430869,16.5768296 25.99575,15.5916728 25.99575,14.365 C25.99575,13.1383272 25.6430869,12.1531704 24.93775,11.4095 C24.2324131,10.6658296 23.3890882,10.294 22.40775,10.294 C21.4110784,10.294 20.5639202,10.6619963 19.86625,11.398 C19.1685798,12.1340037 18.81975,13.1229938 18.81975,14.365 C18.81975,15.6070062 19.1685798,16.5959963 19.86625,17.332 C20.5639202,18.0680037 21.4110784,18.436 22.40775,18.436 Z M31.1765,10.087 C32.2651721,8.93699425 33.6528249,8.362 35.3395,8.362 C37.0261751,8.362 38.4138279,8.93316096 39.5025,10.0755 C40.5911721,11.217839 41.1355,12.6476581 41.1355,14.365 C41.1355,16.0823419 40.5911721,17.512161 39.5025,18.6545 C38.4138279,19.796839 37.0261751,20.368 35.3395,20.368 C33.6528249,20.368 32.2651721,19.796839 31.1765,18.6545 C30.0878279,17.512161 29.5435,16.0823419 29.5435,14.365 C29.5435,12.6476581 30.0878279,11.2216723 31.1765,10.087 Z M32.7405,17.332 C33.4765037,18.0680037 34.3428284,18.436 35.3395,18.436 C36.3361716,18.436 37.198663,18.0641704 37.927,17.3205 C38.655337,16.5768296 39.0195,15.5916728 39.0195,14.365 C39.0195,13.1383272 38.655337,12.1531704 37.927,11.4095 C37.198663,10.6658296 36.3361716,10.294 35.3395,10.294 C34.3428284,10.294 33.480337,10.6658296 32.752,11.4095 C32.023663,12.1531704 31.6595,13.1383272 31.6595,14.365 C31.6595,15.5916728 32.0198297,16.5806629 32.7405,17.332 Z M45.00525,8.73 L45.00525,10.294 L45.09725,10.294 C45.4039182,9.75733065 45.8869134,9.30116854 46.54625,8.9255 C47.2055866,8.54983145 47.9109129,8.362 48.66225,8.362 C50.0575903,8.362 51.1232463,8.79132904 51.85925,9.65 C52.5952537,10.508671 52.96325,11.6586595 52.96325,13.1 L52.96325,20 L50.84725,20 L50.84725,13.422 C50.84725,11.3366562 49.9195926,10.294 48.06425,10.294 C47.1902456,10.294 46.4772528,10.6428298 45.92525,11.3405 C45.3732472,12.0381702 45.09725,12.8469954 45.09725,13.767 L45.09725,20 L42.98125,20 L42.98125,8.73 L45.00525,8.73 Z M57.615,8.73 L57.615,10.294 L57.707,10.294 C58.0136682,9.75733065 58.4966634,9.30116854 59.156,8.9255 C59.8153366,8.54983145 60.5206629,8.362 61.272,8.362 C62.6673403,8.362 63.7329963,8.79132904 64.469,9.65 C65.2050037,10.508671 65.573,11.6586595 65.573,13.1 L65.573,20 L63.457,20 L63.457,13.422 C63.457,11.3366562 62.5293426,10.294 60.674,10.294 C59.7999956,10.294 59.0870028,10.6428298 58.535,11.3405 C57.9829972,12.0381702 57.707,12.8469954 57.707,13.767 L57.707,20 L55.591,20 L55.591,8.73 L57.615,8.73 Z M73.30675,20.368 C71.6047415,20.368 70.220922,19.8006723 69.15525,18.666 C68.089578,17.5313277 67.55675,16.0976753 67.55675,14.365 C67.55675,12.7243251 68.0742448,11.3136726 69.10925,10.133 C70.1442552,8.95232743 71.4667419,8.362 73.07675,8.362 C74.7480917,8.362 76.0859116,8.90632789 77.09025,9.995 C78.0945884,11.0836721 78.59675,12.5403242 78.59675,14.365 L78.57375,14.756 L69.67275,14.756 C69.7340836,15.8906723 70.1135798,16.7876634 70.81125,17.447 C71.5089202,18.1063366 72.325412,18.436 73.26075,18.436 C74.7787576,18.436 75.8060806,17.7920064 76.34275,16.504 L78.22875,17.286 C77.8607482,18.1600044 77.2550875,18.8921637 76.41175,19.4825 C75.5684124,20.0728363 74.5334228,20.368 73.30675,20.368 Z M76.34275,13.008 C76.2967498,12.3639968 76.0015861,11.7506696 75.45725,11.168 C74.9129139,10.5853304 74.1040887,10.294 73.03075,10.294 C72.2487461,10.294 71.5702529,10.5393309 70.99525,11.03 C70.4202471,11.5206691 70.0254177,12.1799959 69.81075,13.008 L76.34275,13.008 Z M82.7885,20 L80.6725,20 L80.6725,8.73 L82.6965,8.73 L82.6965,10.57 L82.7885,10.57 C83.0031677,9.9566636 83.4439967,9.45066866 84.111,9.052 C84.7780033,8.65333134 85.4258302,8.454 86.0545,8.454 C86.6831698,8.454 87.2121645,8.54599908 87.6415,8.73 L86.8365,10.708 C86.5604986,10.6006661 86.1848357,10.547 85.7095,10.547 C84.9428295,10.547 84.2643363,10.8498303 83.674,11.4555 C83.0836637,12.0611697 82.7885,12.8546618 82.7885,13.836 L82.7885,20 Z M94.369,20 L94.369,8.73 L96.393,8.73 L96.393,10.294 L96.485,10.294 C96.8070016,9.75733065 97.3014967,9.30116854 97.9685,8.9255 C98.6355033,8.54983145 99.2986634,8.362 99.958,8.362 C101.706009,8.362 102.89433,9.08265946 103.523,10.524 C104.443005,9.08265946 105.753991,8.362 107.456,8.362 C108.790007,8.362 109.79433,8.78749575 110.469,9.6385 C111.14367,10.4895043 111.481,11.6433261 111.481,13.1 L111.481,20 L109.365,20 L109.365,13.422 C109.365,12.2873277 109.158002,11.4823357 108.744,11.007 C108.329998,10.5316643 107.701338,10.294 106.858,10.294 C106.029996,10.294 105.343836,10.6466631 104.7995,11.352 C104.255164,12.0573369 103.983,12.8623288 103.983,13.767 L103.983,20 L101.867,20 L101.867,13.422 C101.867,12.2873277 101.660002,11.4823357 101.246,11.007 C100.831998,10.5316643 100.203338,10.294 99.36,10.294 C98.5319959,10.294 97.8458361,10.6466631 97.3015,11.352 C96.7571639,12.0573369 96.485,12.8623288 96.485,13.767 L96.485,20 L94.369,20 Z M119.21475,20.368 C117.512741,20.368 116.128922,19.8006723 115.06325,18.666 C113.997578,17.5313277 113.46475,16.0976753 113.46475,14.365 C113.46475,12.7243251 113.982245,11.3136726 115.01725,10.133 C116.052255,8.95232743 117.374742,8.362 118.98475,8.362 C120.656092,8.362 121.993912,8.90632789 122.99825,9.995 C124.002588,11.0836721 124.50475,12.5403242 124.50475,14.365 L124.48175,14.756 L115.58075,14.756 C115.642084,15.8906723 116.02158,16.7876634 116.71925,17.447 C117.41692,18.1063366 118.233412,18.436 119.16875,18.436 C120.686758,18.436 121.714081,17.7920064 122.25075,16.504 L124.13675,17.286 C123.768748,18.1600044 123.163088,18.8921637 122.31975,19.4825 C121.476412,20.0728363 120.441423,20.368 119.21475,20.368 Z M122.25075,13.008 C122.20475,12.3639968 121.909586,11.7506696 121.36525,11.168 C120.820914,10.5853304 120.012089,10.294 118.93875,10.294 C118.156746,10.294 117.478253,10.5393309 116.90325,11.03 C116.328247,11.5206691 115.933418,12.1799959 115.71875,13.008 L122.25075,13.008 Z M131.4105,20.368 C129.953826,20.368 128.696505,19.7930057 127.6385,18.643 C126.580495,17.4929942 126.0515,16.0670085 126.0515,14.365 C126.0515,12.6629915 126.580495,11.2370057 127.6385,10.087 C128.696505,8.93699425 129.953826,8.362 131.4105,8.362 C132.269171,8.362 133.039663,8.54599816 133.722,8.914 C134.404337,9.28200184 134.914165,9.74199724 135.2515,10.294 L135.3435,10.294 L135.2515,8.73 L135.2515,3.532 L137.3675,3.532 L137.3675,20 L135.3435,20 L135.3435,18.436 L135.2515,18.436 C134.914165,18.9880028 134.404337,19.4479982 133.722,19.816 C133.039663,20.1840018 132.269171,20.368 131.4105,20.368 Z M131.7555,18.436 C132.752172,18.436 133.59933,18.0680037 134.297,17.332 C134.99467,16.5959963 135.3435,15.6070062 135.3435,14.365 C135.3435,13.1229938 134.99467,12.1340037 134.297,11.398 C133.59933,10.6619963 132.752172,10.294 131.7555,10.294 C130.774162,10.294 129.930837,10.6658296 129.2255,11.4095 C128.520163,12.1531704 128.1675,13.1383272 128.1675,14.365 C128.1675,15.5916728 128.520163,16.5768296 129.2255,17.3205 C129.930837,18.0641704 130.774162,18.436 131.7555,18.436 Z" id="Abonner-med" fill="#5F6368"></path>
        <g id="Group" transform="translate(144.000000, 1.000000)" fill-rule="nonzero">
            <path d="M9.36714443,19 C4.27673649,19 0,14.7346939 0,9.5 C0,4.26530612 4.27673649,0 9.36714443,0 C12.185226,0 14.1896362,1.13265306 15.6979052,2.62244898 L13.92172,4.44897959 C12.8401323,3.40816327 11.3715546,2.59183673 9.36714443,2.59183673 C5.646086,2.59183673 2.73869901,5.67346939 2.73869901,9.5 C2.73869901,13.3265306 5.646086,16.4081633 9.36714443,16.4081633 C11.7783903,16.4081633 13.1477398,15.4081633 14.030871,14.5102041 C14.755237,13.7653061 15.2216097,12.7040816 15.4002205,11.244898 L9.36714443,11.244898 L9.36714443,8.64285714 L17.8610805,8.64285714 C17.9503859,9.10204082 18,9.66326531 18,10.2653061 C18,12.2142857 17.4840132,14.622449 15.8169791,16.3367347 C14.1896362,18.0714286 12.1256891,19 9.36714443,19 Z" id="Shape" fill="#4285F4"></path>
            <path d="M32,13 C32,16.4557596 29.3096447,19 26,19 C22.6903553,19 20,16.4557596 20,13 C20,9.52420701 22.6903553,7 26,7 C29.3096447,7 32,9.52420701 32,13 Z M29.3705584,13 C29.3705584,10.836394 27.8071066,9.3639399 26,9.3639399 C24.1928934,9.3639399 22.6294416,10.8464107 22.6294416,13 C22.6294416,15.1335559 24.1928934,16.6360601 26,16.6360601 C27.8071066,16.6360601 29.3705584,15.1435726 29.3705584,13 Z" id="Shape" fill="#E94235"></path>
            <path d="M45,13 C45,16.4557596 42.3096447,19 39,19 C35.7005076,19 33,16.4557596 33,13 C33,9.52420701 35.6903553,7 39,7 C42.3096447,7 45,9.52420701 45,13 Z M42.3807107,13 C42.3807107,10.836394 40.8172589,9.3639399 39.0101523,9.3639399 C37.2030457,9.3639399 35.6395939,10.8464107 35.6395939,13 C35.6395939,15.1335559 37.2030457,16.6360601 39.0101523,16.6360601 C40.8172589,16.6460768 42.3807107,15.1435726 42.3807107,13 Z" id="Shape" fill="#FABB05"></path>
            <path d="M57,7.3621186 L57,17.8929188 C57,22.228555 54.5013055,24 51.5430809,24 C48.7571802,24 47.0913838,22.0915371 46.45953,20.5354059 L48.6518712,19.6056419 C49.0443864,20.5647668 50.0017406,21.6902706 51.5430809,21.6902706 C53.4386423,21.6902706 54.6066144,20.4864709 54.6066144,18.2452504 L54.6066144,17.4035694 L54.5204526,17.4035694 C53.9556136,18.1180196 52.8642298,18.7345999 51.4952132,18.7345999 C48.6231506,18.7345999 46,16.1801957 46,12.8917674 C46,9.58376511 48.6327241,7 51.4952132,7 C52.8642298,7 53.9556136,7.6263673 54.5204526,8.31145653 L54.6066144,8.31145653 L54.6066144,7.3621186 L57,7.3621186 Z M54.7789382,12.9015544 C54.7789382,10.8364997 53.4290688,9.31951641 51.7154047,9.31951641 C49.97302,9.31951641 48.5178416,10.8267127 48.5178416,12.9015544 C48.5178416,14.9470351 49.97302,16.4346575 51.7154047,16.4346575 C53.4290688,16.4346575 54.7789382,14.9470351 54.7789382,12.9015544 Z" id="Shape" fill="#4285F4"></path>
            <polygon id="Shape" fill="#34A853" points="63 1 63 19 60 19 60 1"></polygon>
            <path d="M72.8441203,14.9732888 L74.8896992,16.3355593 C74.2278943,17.3171953 72.633546,19 69.8760255,19 C66.4567001,19 64,16.3656093 64,13 C64,9.43405676 66.4867821,7 69.5852325,7 C72.7037375,7 74.2278943,9.47412354 74.7292616,10.8163606 L75,11.4974958 L66.9680948,14.8230384 C67.579763,16.0250417 68.5423883,16.6460768 69.8860529,16.6460768 C71.2297174,16.6460768 72.1622607,15.9749583 72.8441203,14.9732888 Z M66.5369189,12.8096828 L71.911577,10.5859766 C71.6107566,9.83472454 70.72835,9.31385643 69.6754786,9.31385643 C68.331814,9.31385643 66.4667274,10.4958264 66.5369189,12.8096828 Z" id="Shape" fill="#E94235"></path>
        </g>
    </g>
</svg>
