<?xml version="1.0" encoding="UTF-8"?>
<svg width="246px" height="24px" viewBox="0 0 246 24" version="1.1" xmlns="http://www.w3.org/2000/svg" xmlns:xlink="http://www.w3.org/1999/xlink">
    <!-- Generator: Sketch 51.3 (57544) - http://www.bohemiancoding.com/sketch -->
    <title>SwG-PL-WOB</title>
    <desc>Created with Sketch.</desc>
    <defs></defs>
    <g id="SwG-PL-WOB" stroke="none" stroke-width="1" fill="none" fill-rule="evenodd">
        <path d="M5.5994999,19.368 C4.34216028,19.368 3.30333734,19.0613364 2.4829999,18.448 C1.66266247,17.8346636 1.06083515,17.0680046 0.677499905,16.148 L2.5634999,15.366 C3.16150289,16.7766737 4.18115936,17.482 5.6224999,17.482 C6.28183653,17.482 6.82233113,17.3363348 7.2439999,17.045 C7.66566868,16.7536652 7.8764999,16.3703357 7.8764999,15.895 C7.8764999,15.1589963 7.36283837,14.660668 6.3354999,14.4 L4.0584999,13.848 C3.33782963,13.6639991 2.65550312,13.3151692 2.0114999,12.8015 C1.36749668,12.2878308 1.0454999,11.5940044 1.0454999,10.72 C1.0454999,9.72332835 1.48632883,8.91450311 2.3679999,8.2935 C3.24967098,7.6724969 4.29616051,7.362 5.5074999,7.362 C6.50417155,7.362 7.39349599,7.58816441 8.1754999,8.0405 C8.95750381,8.4928356 9.51716488,9.14066245 9.8544999,9.984 L8.0144999,10.743 C7.60049783,9.74632835 6.74183975,9.248 5.4384999,9.248 C4.80983009,9.248 4.28083538,9.37833203 3.8514999,9.639 C3.42216442,9.89966797 3.2074999,10.2523311 3.2074999,10.697 C3.2074999,11.3410032 3.70582825,11.7779988 4.7024999,12.008 L6.9334999,12.537 C7.99150519,12.7823346 8.77349737,13.203997 9.2794999,13.802 C9.78550243,14.400003 10.0384999,15.0746629 10.0384999,15.826 C10.0384999,16.8380051 9.62450404,17.68133 8.7964999,18.356 C7.96849576,19.03067 6.90283975,19.368 5.5994999,19.368 Z M21.9122499,19 L19.8882499,19 L19.8882499,17.436 L19.7962499,17.436 C19.4742483,17.9726693 18.9835865,18.4288315 18.3242499,18.8045 C17.6649133,19.1801685 16.9672536,19.368 16.2312499,19.368 C14.8205762,19.368 13.7510869,18.938671 13.0227499,18.08 C12.2944129,17.221329 11.9302499,16.0713405 11.9302499,14.63 L11.9302499,7.73 L14.0462499,7.73 L14.0462499,14.285 C14.0462499,16.3856772 14.9739073,17.436 16.8292499,17.436 C17.7032543,17.436 18.4162472,17.0833369 18.9682499,16.378 C19.5202527,15.6726631 19.7962499,14.8600046 19.7962499,13.94 L19.7962499,7.73 L21.9122499,7.73 L21.9122499,19 Z M30.5889999,19.368 C29.730329,19.368 28.9598367,19.1840018 28.2774999,18.816 C27.5951632,18.4479982 27.0853349,17.9880028 26.7479999,17.436 L26.6559999,17.436 L26.6559999,19 L24.6319999,19 L24.6319999,2.532 L26.7479999,2.532 L26.7479999,7.73 L26.6559999,9.294 L26.7479999,9.294 C27.0853349,8.74199724 27.5951632,8.28200184 28.2774999,7.914 C28.9598367,7.54599816 29.730329,7.362 30.5889999,7.362 C32.0456739,7.362 33.3029946,7.93699425 34.3609999,9.087 C35.4190052,10.2370057 35.9479999,11.6629915 35.9479999,13.365 C35.9479999,15.0670085 35.4190052,16.4929942 34.3609999,17.643 C33.3029946,18.7930057 32.0456739,19.368 30.5889999,19.368 Z M30.2439999,17.436 C31.2253382,17.436 32.0686631,17.0641704 32.7739999,16.3205 C33.4793368,15.5768296 33.8319999,14.5916728 33.8319999,13.365 C33.8319999,12.1383272 33.4793368,11.1531704 32.7739999,10.4095 C32.0686631,9.66582962 31.2253382,9.294 30.2439999,9.294 C29.2473283,9.294 28.4001701,9.66199632 27.7024999,10.398 C27.0048298,11.1340037 26.6559999,12.1229938 26.6559999,13.365 C26.6559999,14.6070062 27.0048298,15.5959963 27.7024999,16.332 C28.4001701,17.0680037 29.2473283,17.436 30.2439999,17.436 Z M42.0947499,19.368 C40.8374103,19.368 39.7985874,19.0613364 38.9782499,18.448 C38.1579125,17.8346636 37.5560852,17.0680046 37.1727499,16.148 L39.0587499,15.366 C39.6567529,16.7766737 40.6764094,17.482 42.1177499,17.482 C42.7770866,17.482 43.3175812,17.3363348 43.7392499,17.045 C44.1609187,16.7536652 44.3717499,16.3703357 44.3717499,15.895 C44.3717499,15.1589963 43.8580884,14.660668 42.8307499,14.4 L40.5537499,13.848 C39.8330797,13.6639991 39.1507532,13.3151692 38.5067499,12.8015 C37.8627467,12.2878308 37.5407499,11.5940044 37.5407499,10.72 C37.5407499,9.72332835 37.9815789,8.91450311 38.8632499,8.2935 C39.744921,7.6724969 40.7914106,7.362 42.0027499,7.362 C42.9994216,7.362 43.888746,7.58816441 44.6707499,8.0405 C45.4527539,8.4928356 46.0124149,9.14066245 46.3497499,9.984 L44.5097499,10.743 C44.0957479,9.74632835 43.2370898,9.248 41.9337499,9.248 C41.3050801,9.248 40.7760854,9.37833203 40.3467499,9.639 C39.9174145,9.89966797 39.7027499,10.2523311 39.7027499,10.697 C39.7027499,11.3410032 40.2010783,11.7779988 41.1977499,12.008 L43.4287499,12.537 C44.4867552,12.7823346 45.2687474,13.203997 45.7747499,13.802 C46.2807525,14.400003 46.5337499,15.0746629 46.5337499,15.826 C46.5337499,16.8380051 46.1197541,17.68133 45.2917499,18.356 C44.4637458,19.03067 43.3980898,19.368 42.0947499,19.368 Z M50.6335,2.532 L50.6335,12.675 L55.5095,7.73 L58.2235,7.73 L58.2235,7.822 L53.8305,12.215 L58.4305,18.908 L58.4305,19 L55.8775,19 L52.3355,13.687 L50.6335,15.389 L50.6335,19 L48.5175,19 L48.5175,2.532 L50.6335,2.532 Z M61.88625,19 L59.77025,19 L59.77025,7.73 L61.79425,7.73 L61.79425,9.57 L61.88625,9.57 C62.1009177,8.9566636 62.5417466,8.45066866 63.20875,8.052 C63.8757533,7.65333134 64.5235802,7.454 65.15225,7.454 C65.7809198,7.454 66.3099145,7.54599908 66.73925,7.73 L65.93425,9.708 C65.6582486,9.60066613 65.2825857,9.547 64.80725,9.547 C64.0405795,9.547 63.3620862,9.84983031 62.77175,10.4555 C62.1814137,11.0611697 61.88625,11.8546618 61.88625,12.836 L61.88625,19 Z M71.506,23.968 L69.321,23.968 L71.943,18.287 L67.297,7.73 L69.597,7.73 L72.955,15.826 L73.001,15.826 L76.267,7.73 L78.567,7.73 L71.506,23.968 Z M85.81775,19.368 C84.959079,19.368 84.1885867,19.1840018 83.50625,18.816 C82.8239132,18.4479982 82.314085,17.9880028 81.97675,17.436 L81.88475,17.436 L81.88475,19 L79.86075,19 L79.86075,2.532 L81.97675,2.532 L81.97675,7.73 L81.88475,9.294 L81.97675,9.294 C82.314085,8.74199724 82.8239132,8.28200184 83.50625,7.914 C84.1885867,7.54599816 84.959079,7.362 85.81775,7.362 C87.2744239,7.362 88.5317447,7.93699425 89.58975,9.087 C90.6477553,10.2370057 91.17675,11.6629915 91.17675,13.365 C91.17675,15.0670085 90.6477553,16.4929942 89.58975,17.643 C88.5317447,18.7930057 87.2744239,19.368 85.81775,19.368 Z M85.47275,17.436 C86.4540882,17.436 87.2974131,17.0641704 88.00275,16.3205 C88.7080868,15.5768296 89.06075,14.5916728 89.06075,13.365 C89.06075,12.1383272 88.7080868,11.1531704 88.00275,10.4095 C87.2974131,9.66582962 86.4540882,9.294 85.47275,9.294 C84.4760783,9.294 83.6289201,9.66199632 82.93125,10.398 C82.2335798,11.1340037 81.88475,12.1229938 81.88475,13.365 C81.88475,14.6070062 82.2335798,15.5959963 82.93125,16.332 C83.6289201,17.0680037 84.4760783,17.436 85.47275,17.436 Z M103.0275,19 L101.0035,19 L101.0035,17.436 L100.9115,17.436 C100.589498,17.9726693 100.098837,18.4288315 99.4395,18.8045 C98.7801634,19.1801685 98.0825037,19.368 97.3465,19.368 C95.9358263,19.368 94.866337,18.938671 94.138,18.08 C93.409663,17.221329 93.0455,16.0713405 93.0455,14.63 L93.0455,7.73 L95.1615,7.73 L95.1615,14.285 C95.1615,16.3856772 96.0891574,17.436 97.9445,17.436 C98.8185044,17.436 99.5314972,17.0833369 100.0835,16.378 C100.635503,15.6726631 100.9115,14.8600046 100.9115,13.94 L100.9115,7.73 L103.0275,7.73 L103.0275,19 Z M108.04725,4.901 C107.755915,5.19233479 107.403252,5.338 106.98925,5.338 C106.575248,5.338 106.222585,5.19233479 105.93125,4.901 C105.639915,4.60966521 105.49425,4.25700207 105.49425,3.843 C105.49425,3.42899793 105.639915,3.07633479 105.93125,2.785 C106.222585,2.49366521 106.575248,2.348 106.98925,2.348 C107.403252,2.348 107.755915,2.49366521 108.04725,2.785 C108.338585,3.07633479 108.48425,3.42899793 108.48425,3.843 C108.48425,4.25700207 108.338585,4.60966521 108.04725,4.901 Z M104.66625,24.198 C104.252248,24.198 103.838252,24.1213341 103.42425,23.968 L103.97625,22.128 C104.175584,22.2200005 104.382582,22.266 104.59725,22.266 C105.486588,22.266 105.93125,21.6833392 105.93125,20.518 L105.93125,7.73 L108.04725,7.73 L108.04725,20.518 C108.04725,21.7600062 107.748253,22.6838303 107.15025,23.2895 C106.552247,23.8951697 105.724255,24.198 104.66625,24.198 Z M115.942,19.368 C114.239992,19.368 112.856172,18.8006723 111.7905,17.666 C110.724828,16.5313277 110.192,15.0976753 110.192,13.365 C110.192,11.7243251 110.709495,10.3136726 111.7445,9.133 C112.779505,7.95232743 114.101992,7.362 115.712,7.362 C117.383342,7.362 118.721162,7.90632789 119.7255,8.995 C120.729838,10.0836721 121.232,11.5403242 121.232,13.365 L121.209,13.756 L112.308,13.756 C112.369334,14.8906723 112.74883,15.7876634 113.4465,16.447 C114.14417,17.1063366 114.960662,17.436 115.896,17.436 C117.414008,17.436 118.441331,16.7920064 118.978,15.504 L120.864,16.286 C120.495998,17.1600044 119.890338,17.8921637 119.047,18.4825 C118.203662,19.0728363 117.168673,19.368 115.942,19.368 Z M118.978,12.008 C118.932,11.3639968 118.636836,10.7506696 118.0925,10.168 C117.548164,9.58533042 116.739339,9.294 115.666,9.294 C114.883996,9.294 114.205503,9.53933088 113.6305,10.03 C113.055497,10.5206691 112.660668,11.1799959 112.446,12.008 L118.978,12.008 Z M127.60875,19.368 C126.35141,19.368 125.312587,19.0613364 124.49225,18.448 C123.671913,17.8346636 123.070085,17.0680046 122.68675,16.148 L124.57275,15.366 C125.170753,16.7766737 126.190409,17.482 127.63175,17.482 C128.291087,17.482 128.831581,17.3363348 129.25325,17.045 C129.674919,16.7536652 129.88575,16.3703357 129.88575,15.895 C129.88575,15.1589963 129.372089,14.660668 128.34475,14.4 L126.06775,13.848 C125.34708,13.6639991 124.664753,13.3151692 124.02075,12.8015 C123.376747,12.2878308 123.05475,11.5940044 123.05475,10.72 C123.05475,9.72332835 123.495579,8.91450311 124.37725,8.2935 C125.258921,7.6724969 126.305411,7.362 127.51675,7.362 C128.513422,7.362 129.402746,7.58816441 130.18475,8.0405 C130.966754,8.4928356 131.526415,9.14066245 131.86375,9.984 L130.02375,10.743 C129.609748,9.74632835 128.75109,9.248 127.44775,9.248 C126.81908,9.248 126.290086,9.37833203 125.86075,9.639 C125.431415,9.89966797 125.21675,10.2523311 125.21675,10.697 C125.21675,11.3410032 125.715078,11.7779988 126.71175,12.008 L128.94275,12.537 C130.000755,12.7823346 130.782748,13.203997 131.28875,13.802 C131.794753,14.400003 132.04775,15.0746629 132.04775,15.826 C132.04775,16.8380051 131.633754,17.68133 130.80575,18.356 C129.977746,19.03067 128.91209,19.368 127.60875,19.368 Z M133.4795,19 L133.4795,17.16 L139.8965,9.662 L133.6635,9.662 L133.6635,7.73 L142.4955,7.73 L142.4955,9.57 L136.0785,17.068 L142.5875,17.068 L142.5875,19 L133.4795,19 Z M149.407,19 L149.407,17.16 L155.824,9.662 L149.591,9.662 L149.591,7.73 L158.423,7.73 L158.423,9.57 L152.006,17.068 L158.515,17.068 L158.515,19 L149.407,19 Z M163.16675,18.678 C162.860082,18.9846682 162.492086,19.138 162.06275,19.138 C161.633415,19.138 161.265418,18.9846682 160.95875,18.678 C160.652082,18.3713318 160.49875,18.0033355 160.49875,17.574 C160.49875,17.1446645 160.652082,16.7766682 160.95875,16.47 C161.265418,16.1633318 161.633415,16.01 162.06275,16.01 C162.492086,16.01 162.860082,16.1633318 163.16675,16.47 C163.473418,16.7766682 163.62675,17.1446645 163.62675,17.574 C163.62675,18.0033355 163.473418,18.3713318 163.16675,18.678 Z M163.16675,10.26 C162.860082,10.5666682 162.492086,10.72 162.06275,10.72 C161.633415,10.72 161.265418,10.5666682 160.95875,10.26 C160.652082,9.9533318 160.49875,9.58533548 160.49875,9.156 C160.49875,8.72666452 160.652082,8.3586682 160.95875,8.052 C161.265418,7.7453318 161.633415,7.592 162.06275,7.592 C162.492086,7.592 162.860082,7.7453318 163.16675,8.052 C163.473418,8.3586682 163.62675,8.72666452 163.62675,9.156 C163.62675,9.58533548 163.473418,9.9533318 163.16675,10.26 Z" id="subskrybujesz-z:" fill="#FFFFFF"></path>
        <g id="Group" transform="translate(171.000000, 1.000000)" fill="#FFFFFF" fill-rule="nonzero">
            <path d="M9.36714443,19 C4.27673649,19 0,14.7346939 0,9.5 C0,4.26530612 4.27673649,0 9.36714443,0 C12.185226,0 14.1896362,1.13265306 15.6979052,2.62244898 L13.92172,4.44897959 C12.8401323,3.40816327 11.3715546,2.59183673 9.36714443,2.59183673 C5.646086,2.59183673 2.73869901,5.67346939 2.73869901,9.5 C2.73869901,13.3265306 5.646086,16.4081633 9.36714443,16.4081633 C11.7783903,16.4081633 13.1477398,15.4081633 14.030871,14.5102041 C14.755237,13.7653061 15.2216097,12.7040816 15.4002205,11.244898 L9.36714443,11.244898 L9.36714443,8.64285714 L17.8610805,8.64285714 C17.9503859,9.10204082 18,9.66326531 18,10.2653061 C18,12.2142857 17.4840132,14.622449 15.8169791,16.3367347 C14.1896362,18.0714286 12.1256891,19 9.36714443,19 Z" id="Shape"></path>
            <path d="M32,13 C32,16.4557596 29.3096447,19 26,19 C22.6903553,19 20,16.4557596 20,13 C20,9.52420701 22.6903553,7 26,7 C29.3096447,7 32,9.52420701 32,13 Z M29.3705584,13 C29.3705584,10.836394 27.8071066,9.3639399 26,9.3639399 C24.1928934,9.3639399 22.6294416,10.8464107 22.6294416,13 C22.6294416,15.1335559 24.1928934,16.6360601 26,16.6360601 C27.8071066,16.6360601 29.3705584,15.1435726 29.3705584,13 Z" id="Shape"></path>
            <path d="M45,13 C45,16.4557596 42.3096447,19 39,19 C35.7005076,19 33,16.4557596 33,13 C33,9.52420701 35.6903553,7 39,7 C42.3096447,7 45,9.52420701 45,13 Z M42.3807107,13 C42.3807107,10.836394 40.8172589,9.3639399 39.0101523,9.3639399 C37.2030457,9.3639399 35.6395939,10.8464107 35.6395939,13 C35.6395939,15.1335559 37.2030457,16.6360601 39.0101523,16.6360601 C40.8172589,16.6460768 42.3807107,15.1435726 42.3807107,13 Z" id="Shape"></path>
            <path d="M57,7.3621186 L57,17.8929188 C57,22.228555 54.5013055,24 51.5430809,24 C48.7571802,24 47.0913838,22.0915371 46.45953,20.5354059 L48.6518712,19.6056419 C49.0443864,20.5647668 50.0017406,21.6902706 51.5430809,21.6902706 C53.4386423,21.6902706 54.6066144,20.4864709 54.6066144,18.2452504 L54.6066144,17.4035694 L54.5204526,17.4035694 C53.9556136,18.1180196 52.8642298,18.7345999 51.4952132,18.7345999 C48.6231506,18.7345999 46,16.1801957 46,12.8917674 C46,9.58376511 48.6327241,7 51.4952132,7 C52.8642298,7 53.9556136,7.6263673 54.5204526,8.31145653 L54.6066144,8.31145653 L54.6066144,7.3621186 L57,7.3621186 Z M54.7789382,12.9015544 C54.7789382,10.8364997 53.4290688,9.31951641 51.7154047,9.31951641 C49.97302,9.31951641 48.5178416,10.8267127 48.5178416,12.9015544 C48.5178416,14.9470351 49.97302,16.4346575 51.7154047,16.4346575 C53.4290688,16.4346575 54.7789382,14.9470351 54.7789382,12.9015544 Z" id="Shape"></path>
            <polygon id="Shape" points="63 1 63 19 60 19 60 1"></polygon>
            <path d="M72.8441203,14.9732888 L74.8896992,16.3355593 C74.2278943,17.3171953 72.633546,19 69.8760255,19 C66.4567001,19 64,16.3656093 64,13 C64,9.43405676 66.4867821,7 69.5852325,7 C72.7037375,7 74.2278943,9.47412354 74.7292616,10.8163606 L75,11.4974958 L66.9680948,14.8230384 C67.579763,16.0250417 68.5423883,16.6460768 69.8860529,16.6460768 C71.2297174,16.6460768 72.1622607,15.9749583 72.8441203,14.9732888 Z M66.5369189,12.8096828 L71.911577,10.5859766 C71.6107566,9.83472454 70.72835,9.31385643 69.6754786,9.31385643 C68.331814,9.31385643 66.4667274,10.4958264 66.5369189,12.8096828 Z" id="Shape"></path>
        </g>
    </g>
</svg>