<?xml version="1.0" encoding="UTF-8"?>
<svg width="327px" height="24px" viewBox="0 0 327 24" version="1.1" xmlns="http://www.w3.org/2000/svg" xmlns:xlink="http://www.w3.org/1999/xlink">
    <!-- Generator: Sketch 51.3 (57544) - http://www.bohemiancoding.com/sketch -->
    <title>SwG-BR Copy-Black</title>
    <desc>Created with Sketch.</desc>
    <defs></defs>
    <g id="SwG-BR-Copy" stroke="none" stroke-width="1" fill="none" fill-rule="evenodd">
        <path d="M3.874375,18 L1.758375,18 L1.758375,1.532 L11.372375,1.532 L11.372375,3.556 L3.874375,3.556 L3.874375,8.961 L10.636375,8.961 L10.636375,10.939 L3.874375,10.939 L3.874375,18 Z M16.645125,18.368 C15.449119,18.368 14.448629,18.0230035 13.643625,17.333 C12.838621,16.6429965 12.436125,15.7306723 12.436125,14.596 C12.436125,13.3693272 12.9114536,12.4071702 13.862125,11.7095 C14.8127964,11.0118298 15.9857847,10.663 17.381125,10.663 C18.6231312,10.663 19.6427877,10.8929977 20.440125,11.353 L20.440125,11.031 C20.440125,10.2029959 20.1564612,9.53983583 19.589125,9.0415 C19.0217888,8.54316418 18.3241291,8.294 17.496125,8.294 C16.8827886,8.294 16.3269608,8.43966521 15.828625,8.731 C15.3302892,9.02233479 14.9891259,9.42099747 14.805125,9.927 L12.873125,9.099 C13.133793,8.42432996 13.6474545,7.79950287 14.414125,7.2245 C15.1807955,6.64949712 16.1927854,6.362 17.450125,6.362 C18.8914655,6.362 20.0874536,6.78366245 21.038125,7.627 C21.9887964,8.47033755 22.464125,9.658659 22.464125,11.192 L22.464125,18 L20.440125,18 L20.440125,16.436 L20.348125,16.436 C19.5047874,17.7240064 18.2704665,18.368 16.645125,18.368 Z M16.990125,16.436 C17.8641294,16.436 18.6576214,16.1101699 19.370625,15.4585 C20.0836286,14.8068301 20.440125,14.0363378 20.440125,13.147 C19.842122,12.6563309 18.945131,12.411 17.749125,12.411 C16.7217865,12.411 15.9474609,12.6333311 15.426125,13.078 C14.9047891,13.5226689 14.644125,14.043997 14.644125,14.642 C14.644125,15.1940028 14.8817893,15.6309984 15.357125,15.953 C15.8324607,16.2750016 16.3767886,16.436 16.990125,16.436 Z M30.105875,23.451 C29.6152059,23.451 29.174377,23.3053348 28.783375,23.014 C28.392373,22.7226652 28.1125425,22.3546689 27.943875,21.91 L29.139875,21.381 C29.3085425,21.9023359 29.6305393,22.163 30.105875,22.163 C30.3818764,22.163 30.6080408,22.0710009 30.784375,21.887 C30.9607092,21.7029991 31.048875,21.4883346 31.048875,21.243 C31.048875,20.982332 30.9607092,20.7561676 30.784375,20.5645 C30.6080408,20.3728324 30.3818764,20.277 30.105875,20.277 C29.7992068,20.277 29.5462093,20.3996654 29.346875,20.645 L28.265875,20.139 L28.955875,18.276 C27.5452013,18.0306654 26.4067127,17.3636721 25.540375,16.275 C24.6740373,15.1863279 24.240875,13.8830076 24.240875,12.365 C24.240875,10.6476581 24.7852029,9.21783905 25.873875,8.0755 C26.9625471,6.93316096 28.3501999,6.362 30.036875,6.362 C31.2942146,6.362 32.3368709,6.6686636 33.164875,7.282 C33.9928791,7.8953364 34.5985397,8.66966199 34.981875,9.605 L33.049875,10.41 C32.4672054,8.99932628 31.4168826,8.294 29.898875,8.294 C28.963537,8.294 28.1393786,8.6773295 27.426375,9.444 C26.7133714,10.2106705 26.356875,11.1843274 26.356875,12.365 C26.356875,13.5456726 26.7133714,14.5193295 27.426375,15.286 C28.1393786,16.0526705 28.963537,16.436 29.898875,16.436 C31.4782162,16.436 32.566872,15.7306737 33.164875,14.32 L35.050875,15.125 C34.6675397,16.0296712 34.0657124,16.7886636 33.245375,17.402 C32.4250376,18.0153364 31.4092144,18.3373332 30.197875,18.368 L29.875875,19.104 C30.0292091,19.0733332 30.1825409,19.058 30.335875,19.058 C30.9185446,19.058 31.4130396,19.2649979 31.819375,19.679 C32.2257104,20.0930021 32.428875,20.6143302 32.428875,21.243 C32.428875,21.8563364 32.2065439,22.3776645 31.761875,22.807 C31.3172061,23.2363355 30.7652116,23.451 30.105875,23.451 Z M40.484625,18.368 C39.288619,18.368 38.288129,18.0230035 37.483125,17.333 C36.678121,16.6429965 36.275625,15.7306723 36.275625,14.596 C36.275625,13.3693272 36.7509536,12.4071702 37.701625,11.7095 C38.6522964,11.0118298 39.8252847,10.663 41.220625,10.663 C42.4626312,10.663 43.4822877,10.8929977 44.279625,11.353 L44.279625,11.031 C44.279625,10.2029959 43.9959612,9.53983583 43.428625,9.0415 C42.8612888,8.54316418 42.1636291,8.294 41.335625,8.294 C40.7222886,8.294 40.1664608,8.43966521 39.668125,8.731 C39.1697892,9.02233479 38.8286259,9.42099747 38.644625,9.927 L36.712625,9.099 C36.973293,8.42432996 37.4869545,7.79950287 38.253625,7.2245 C39.0202955,6.64949712 40.0322854,6.362 41.289625,6.362 C42.7309655,6.362 43.9269536,6.78366245 44.877625,7.627 C45.8282964,8.47033755 46.303625,9.658659 46.303625,11.192 L46.303625,18 L44.279625,18 L44.279625,16.436 L44.187625,16.436 C43.3442874,17.7240064 42.1099665,18.368 40.484625,18.368 Z M40.829625,16.436 C41.7036294,16.436 42.4971214,16.1101699 43.210125,15.4585 C43.9231286,14.8068301 44.279625,14.0363378 44.279625,13.147 C43.681622,12.6563309 42.784631,12.411 41.588625,12.411 C40.5612865,12.411 39.7869609,12.6333311 39.265625,13.078 C38.7442891,13.5226689 38.483625,14.043997 38.483625,14.642 C38.483625,15.1940028 38.7212893,15.6309984 39.196625,15.953 C39.6719607,16.2750016 40.2162886,16.436 40.829625,16.436 Z M58.229125,18.368 C56.9717854,18.368 55.9329624,18.0613364 55.112625,17.448 C54.2922876,16.8346636 53.6904602,16.0680046 53.307125,15.148 L55.193125,14.366 C55.791128,15.7766737 56.8107845,16.482 58.252125,16.482 C58.9114616,16.482 59.4519562,16.3363348 59.873625,16.045 C60.2952938,15.7536652 60.506125,15.3703357 60.506125,14.895 C60.506125,14.1589963 59.9924635,13.660668 58.965125,13.4 L56.688125,12.848 C55.9674547,12.6639991 55.2851282,12.3151692 54.641125,11.8015 C53.9971218,11.2878308 53.675125,10.5940044 53.675125,9.72 C53.675125,8.72332835 54.1159539,7.91450311 54.997625,7.2935 C55.8792961,6.6724969 56.9257856,6.362 58.137125,6.362 C59.1337966,6.362 60.0231211,6.58816441 60.805125,7.0405 C61.5871289,7.4928356 62.14679,8.14066245 62.484125,8.984 L60.644125,9.743 C60.2301229,8.74632835 59.3714648,8.248 58.068125,8.248 C57.4394552,8.248 56.9104605,8.37833203 56.481125,8.639 C56.0517895,8.89966797 55.837125,9.25233111 55.837125,9.697 C55.837125,10.3410032 56.3354533,10.7779988 57.332125,11.008 L59.563125,11.537 C60.6211303,11.7823346 61.4031225,12.203997 61.909125,12.802 C62.4151275,13.400003 62.668125,14.0746629 62.668125,14.826 C62.668125,15.8380051 62.2541291,16.68133 61.426125,17.356 C60.5981209,18.03067 59.5324648,18.368 58.229125,18.368 Z M74.541875,18 L72.517875,18 L72.517875,16.436 L72.425875,16.436 C72.1038734,16.9726693 71.6132116,17.4288315 70.953875,17.8045 C70.2945384,18.1801685 69.5968787,18.368 68.860875,18.368 C67.4502013,18.368 66.380712,17.938671 65.652375,17.08 C64.924038,16.221329 64.559875,15.0713405 64.559875,13.63 L64.559875,6.73 L66.675875,6.73 L66.675875,13.285 C66.675875,15.3856772 67.6035324,16.436 69.458875,16.436 C70.3328794,16.436 71.0458722,16.0833369 71.597875,15.378 C72.1498778,14.6726631 72.425875,13.8600046 72.425875,12.94 L72.425875,6.73 L74.541875,6.73 L74.541875,18 Z M80.711625,18.368 C79.515619,18.368 78.515129,18.0230035 77.710125,17.333 C76.905121,16.6429965 76.502625,15.7306723 76.502625,14.596 C76.502625,13.3693272 76.9779536,12.4071702 77.928625,11.7095 C78.8792964,11.0118298 80.0522847,10.663 81.447625,10.663 C82.6896312,10.663 83.7092877,10.8929977 84.506625,11.353 L84.506625,11.031 C84.506625,10.2029959 84.2229612,9.53983583 83.655625,9.0415 C83.0882888,8.54316418 82.3906291,8.294 81.562625,8.294 C80.9492886,8.294 80.3934608,8.43966521 79.895125,8.731 C79.3967892,9.02233479 79.0556259,9.42099747 78.871625,9.927 L76.939625,9.099 C77.200293,8.42432996 77.7139545,7.79950287 78.480625,7.2245 C79.2472955,6.64949712 80.2592854,6.362 81.516625,6.362 C82.9579655,6.362 84.1539536,6.78366245 85.104625,7.627 C86.0552964,8.47033755 86.530625,9.658659 86.530625,11.192 L86.530625,18 L84.506625,18 L84.506625,16.436 L84.414625,16.436 C83.5712874,17.7240064 82.3369665,18.368 80.711625,18.368 Z M81.056625,16.436 C81.9306294,16.436 82.7241214,16.1101699 83.437125,15.4585 C84.1501286,14.8068301 84.506625,14.0363378 84.506625,13.147 C83.908622,12.6563309 83.011631,12.411 81.815625,12.411 C80.7882865,12.411 80.0139609,12.6333311 79.492625,13.078 C78.9712891,13.5226689 78.710625,14.043997 78.710625,14.642 C78.710625,15.1940028 78.9482893,15.6309984 79.423625,15.953 C79.8989607,16.2750016 80.4432886,16.436 81.056625,16.436 Z M97.835125,18.368 C96.639119,18.368 95.638629,18.0230035 94.833625,17.333 C94.028621,16.6429965 93.626125,15.7306723 93.626125,14.596 C93.626125,13.3693272 94.1014536,12.4071702 95.052125,11.7095 C96.0027964,11.0118298 97.1757847,10.663 98.571125,10.663 C99.8131312,10.663 100.832788,10.8929977 101.630125,11.353 L101.630125,11.031 C101.630125,10.2029959 101.346461,9.53983583 100.779125,9.0415 C100.211789,8.54316418 99.5141291,8.294 98.686125,8.294 C98.0727886,8.294 97.5169608,8.43966521 97.018625,8.731 C96.5202892,9.02233479 96.1791259,9.42099747 95.995125,9.927 L94.063125,9.099 C94.323793,8.42432996 94.8374545,7.79950287 95.604125,7.2245 C96.3707955,6.64949712 97.3827854,6.362 98.640125,6.362 C100.081466,6.362 101.277454,6.78366245 102.228125,7.627 C103.178796,8.47033755 103.654125,9.658659 103.654125,11.192 L103.654125,18 L101.630125,18 L101.630125,16.436 L101.538125,16.436 C100.694787,17.7240064 99.4604665,18.368 97.835125,18.368 Z M98.180125,16.436 C99.0541294,16.436 99.8476214,16.1101699 100.560625,15.4585 C101.273629,14.8068301 101.630125,14.0363378 101.630125,13.147 C101.032122,12.6563309 100.135131,12.411 98.939125,12.411 C97.9117865,12.411 97.1374609,12.6333311 96.616125,13.078 C96.0947891,13.5226689 95.834125,14.043997 95.834125,14.642 C95.834125,15.1940028 96.0717893,15.6309984 96.547125,15.953 C97.0224607,16.2750016 97.5667886,16.436 98.180125,16.436 Z M110.260875,18.368 C109.003535,18.368 107.964712,18.0613364 107.144375,17.448 C106.324038,16.8346636 105.72221,16.0680046 105.338875,15.148 L107.224875,14.366 C107.822878,15.7766737 108.842534,16.482 110.283875,16.482 C110.943212,16.482 111.483706,16.3363348 111.905375,16.045 C112.327044,15.7536652 112.537875,15.3703357 112.537875,14.895 C112.537875,14.1589963 112.024213,13.660668 110.996875,13.4 L108.719875,12.848 C107.999205,12.6639991 107.316878,12.3151692 106.672875,11.8015 C106.028872,11.2878308 105.706875,10.5940044 105.706875,9.72 C105.706875,8.72332835 106.147704,7.91450311 107.029375,7.2935 C107.911046,6.6724969 108.957536,6.362 110.168875,6.362 C111.165547,6.362 112.054871,6.58816441 112.836875,7.0405 C113.618879,7.4928356 114.17854,8.14066245 114.515875,8.984 L112.675875,9.743 C112.261873,8.74632835 111.403215,8.248 110.099875,8.248 C109.471205,8.248 108.94221,8.37833203 108.512875,8.639 C108.08354,8.89966797 107.868875,9.25233111 107.868875,9.697 C107.868875,10.3410032 108.367203,10.7779988 109.363875,11.008 L111.594875,11.537 C112.65288,11.7823346 113.434872,12.203997 113.940875,12.802 C114.446878,13.400003 114.699875,14.0746629 114.699875,14.826 C114.699875,15.8380051 114.285879,16.68133 113.457875,17.356 C112.629871,18.03067 111.564215,18.368 110.260875,18.368 Z M120.869625,18.368 C119.612285,18.368 118.573462,18.0613364 117.753125,17.448 C116.932788,16.8346636 116.33096,16.0680046 115.947625,15.148 L117.833625,14.366 C118.431628,15.7766737 119.451284,16.482 120.892625,16.482 C121.551962,16.482 122.092456,16.3363348 122.514125,16.045 C122.935794,15.7536652 123.146625,15.3703357 123.146625,14.895 C123.146625,14.1589963 122.632963,13.660668 121.605625,13.4 L119.328625,12.848 C118.607955,12.6639991 117.925628,12.3151692 117.281625,11.8015 C116.637622,11.2878308 116.315625,10.5940044 116.315625,9.72 C116.315625,8.72332835 116.756454,7.91450311 117.638125,7.2935 C118.519796,6.6724969 119.566286,6.362 120.777625,6.362 C121.774297,6.362 122.663621,6.58816441 123.445625,7.0405 C124.227629,7.4928356 124.78729,8.14066245 125.124625,8.984 L123.284625,9.743 C122.870623,8.74632835 122.011965,8.248 120.708625,8.248 C120.079955,8.248 119.55096,8.37833203 119.121625,8.639 C118.69229,8.89966797 118.477625,9.25233111 118.477625,9.697 C118.477625,10.3410032 118.975953,10.7779988 119.972625,11.008 L122.203625,11.537 C123.26163,11.7823346 124.043622,12.203997 124.549625,12.802 C125.055628,13.400003 125.308625,14.0746629 125.308625,14.826 C125.308625,15.8380051 124.894629,16.68133 124.066625,17.356 C123.238621,18.03067 122.172965,18.368 120.869625,18.368 Z M129.477375,3.901 C129.18604,4.19233479 128.833377,4.338 128.419375,4.338 C128.005373,4.338 127.65271,4.19233479 127.361375,3.901 C127.07004,3.60966521 126.924375,3.25700207 126.924375,2.843 C126.924375,2.42899793 127.07004,2.07633479 127.361375,1.785 C127.65271,1.49366521 128.005373,1.348 128.419375,1.348 C128.833377,1.348 129.18604,1.49366521 129.477375,1.785 C129.76871,2.07633479 129.914375,2.42899793 129.914375,2.843 C129.914375,3.25700207 129.76871,3.60966521 129.477375,3.901 Z M129.477375,18 L127.361375,18 L127.361375,6.73 L129.477375,6.73 L129.477375,18 Z M134.405125,6.73 L134.405125,8.294 L134.497125,8.294 C134.803793,7.75733065 135.286788,7.30116854 135.946125,6.9255 C136.605462,6.54983145 137.310788,6.362 138.062125,6.362 C139.457465,6.362 140.523121,6.79132904 141.259125,7.65 C141.995129,8.50867096 142.363125,9.65865946 142.363125,11.1 L142.363125,18 L140.247125,18 L140.247125,11.422 C140.247125,9.33665624 139.319468,8.294 137.464125,8.294 C136.590121,8.294 135.877128,8.64282985 135.325125,9.3405 C134.773122,10.0381702 134.497125,10.8469954 134.497125,11.767 L134.497125,18 L132.381125,18 L132.381125,6.73 L134.405125,6.73 Z M148.440875,18.368 C147.244869,18.368 146.244379,18.0230035 145.439375,17.333 C144.634371,16.6429965 144.231875,15.7306723 144.231875,14.596 C144.231875,13.3693272 144.707204,12.4071702 145.657875,11.7095 C146.608546,11.0118298 147.781535,10.663 149.176875,10.663 C150.418881,10.663 151.438538,10.8929977 152.235875,11.353 L152.235875,11.031 C152.235875,10.2029959 151.952211,9.53983583 151.384875,9.0415 C150.817539,8.54316418 150.119879,8.294 149.291875,8.294 C148.678539,8.294 148.122711,8.43966521 147.624375,8.731 C147.126039,9.02233479 146.784876,9.42099747 146.600875,9.927 L144.668875,9.099 C144.929543,8.42432996 145.443204,7.79950287 146.209875,7.2245 C146.976545,6.64949712 147.988535,6.362 149.245875,6.362 C150.687216,6.362 151.883204,6.78366245 152.833875,7.627 C153.784546,8.47033755 154.259875,9.658659 154.259875,11.192 L154.259875,18 L152.235875,18 L152.235875,16.436 L152.143875,16.436 C151.300537,17.7240064 150.066216,18.368 148.440875,18.368 Z M148.785875,16.436 C149.659879,16.436 150.453371,16.1101699 151.166375,15.4585 C151.879379,14.8068301 152.235875,14.0363378 152.235875,13.147 C151.637872,12.6563309 150.740881,12.411 149.544875,12.411 C148.517537,12.411 147.743211,12.6333311 147.221875,13.078 C146.700539,13.5226689 146.439875,14.043997 146.439875,14.642 C146.439875,15.1940028 146.677539,15.6309984 147.152875,15.953 C147.628211,16.2750016 148.172539,16.436 148.785875,16.436 Z M161.441625,18.184 C160.260952,18.184 159.360128,17.8696698 158.739125,17.241 C158.118122,16.6123302 157.807625,15.7230057 157.807625,14.573 L157.807625,8.662 L155.829625,8.662 L155.829625,6.73 L157.807625,6.73 L157.807625,3.28 L159.923625,3.28 L159.923625,6.73 L162.683625,6.73 L162.683625,8.662 L159.923625,8.662 L159.923625,14.412 C159.923625,15.6386728 160.42962,16.252 161.441625,16.252 C161.82496,16.252 162.146957,16.1906673 162.407625,16.068 L163.143625,17.885 C162.683623,18.0843343 162.116295,18.184 161.441625,18.184 Z M174.741375,18 L172.717375,18 L172.717375,16.436 L172.625375,16.436 C172.303373,16.9726693 171.812712,17.4288315 171.153375,17.8045 C170.494038,18.1801685 169.796379,18.368 169.060375,18.368 C167.649701,18.368 166.580212,17.938671 165.851875,17.08 C165.123538,16.221329 164.759375,15.0713405 164.759375,13.63 L164.759375,6.73 L166.875375,6.73 L166.875375,13.285 C166.875375,15.3856772 167.803032,16.436 169.658375,16.436 C170.532379,16.436 171.245372,16.0833369 171.797375,15.378 C172.349378,14.6726631 172.625375,13.8600046 172.625375,12.94 L172.625375,6.73 L174.741375,6.73 L174.741375,18 Z M179.577125,18 L177.461125,18 L177.461125,6.73 L179.485125,6.73 L179.485125,8.57 L179.577125,8.57 C179.791793,7.9566636 180.232622,7.45066866 180.899625,7.052 C181.566628,6.65333134 182.214455,6.454 182.843125,6.454 C183.471795,6.454 184.00079,6.54599908 184.430125,6.73 L183.625125,8.708 C183.349124,8.60066613 182.973461,8.547 182.498125,8.547 C181.731454,8.547 181.052961,8.84983031 180.462625,9.4555 C179.872289,10.0611697 179.577125,10.8546618 179.577125,11.836 L179.577125,18 Z M189.058875,18.368 C187.862869,18.368 186.862379,18.0230035 186.057375,17.333 C185.252371,16.6429965 184.849875,15.7306723 184.849875,14.596 C184.849875,13.3693272 185.325204,12.4071702 186.275875,11.7095 C187.226546,11.0118298 188.399535,10.663 189.794875,10.663 C191.036881,10.663 192.056538,10.8929977 192.853875,11.353 L192.853875,11.031 C192.853875,10.2029959 192.570211,9.53983583 192.002875,9.0415 C191.435539,8.54316418 190.737879,8.294 189.909875,8.294 C189.296539,8.294 188.740711,8.43966521 188.242375,8.731 C187.744039,9.02233479 187.402876,9.42099747 187.218875,9.927 L185.286875,9.099 C185.547543,8.42432996 186.061204,7.79950287 186.827875,7.2245 C187.594545,6.64949712 188.606535,6.362 189.863875,6.362 C191.305216,6.362 192.501204,6.78366245 193.451875,7.627 C194.402546,8.47033755 194.877875,9.658659 194.877875,11.192 L194.877875,18 L192.853875,18 L192.853875,16.436 L192.761875,16.436 C191.918537,17.7240064 190.684216,18.368 189.058875,18.368 Z M189.403875,16.436 C190.277879,16.436 191.071371,16.1101699 191.784375,15.4585 C192.497379,14.8068301 192.853875,14.0363378 192.853875,13.147 C192.255872,12.6563309 191.358881,12.411 190.162875,12.411 C189.135537,12.411 188.361211,12.6333311 187.839875,13.078 C187.318539,13.5226689 187.057875,14.043997 187.057875,14.642 C187.057875,15.1940028 187.295539,15.6309984 187.770875,15.953 C188.246211,16.2750016 188.790539,16.436 189.403875,16.436 Z M207.769375,18.368 C206.0827,18.368 204.695047,17.796839 203.606375,16.6545 C202.517703,15.512161 201.973375,14.0823419 201.973375,12.365 C201.973375,10.6476581 202.517703,9.21783905 203.606375,8.0755 C204.695047,6.93316096 206.0827,6.362 207.769375,6.362 C209.026715,6.362 210.069371,6.6686636 210.897375,7.282 C211.725379,7.8953364 212.33104,8.66966199 212.714375,9.605 L210.782375,10.41 C210.199705,8.99932628 209.149383,8.294 207.631375,8.294 C206.696037,8.294 205.871879,8.6773295 205.158875,9.444 C204.445871,10.2106705 204.089375,11.1843274 204.089375,12.365 C204.089375,13.5456726 204.445871,14.5193295 205.158875,15.286 C205.871879,16.0526705 206.696037,16.436 207.631375,16.436 C209.210716,16.436 210.299372,15.7306737 210.897375,14.32 L212.783375,15.125 C212.40004,16.0450046 211.782879,16.8154969 210.931875,17.4365 C210.080871,18.0575031 209.026715,18.368 207.769375,18.368 Z M215.641125,8.087 C216.729797,6.93699425 218.11745,6.362 219.804125,6.362 C221.4908,6.362 222.878453,6.93316096 223.967125,8.0755 C225.055797,9.21783905 225.600125,10.6476581 225.600125,12.365 C225.600125,14.0823419 225.055797,15.512161 223.967125,16.6545 C222.878453,17.796839 221.4908,18.368 219.804125,18.368 C218.11745,18.368 216.729797,17.796839 215.641125,16.6545 C214.552453,15.512161 214.008125,14.0823419 214.008125,12.365 C214.008125,10.6476581 214.552453,9.22167234 215.641125,8.087 Z M217.205125,15.332 C217.941129,16.0680037 218.807453,16.436 219.804125,16.436 C220.800797,16.436 221.663288,16.0641704 222.391625,15.3205 C223.119962,14.5768296 223.484125,13.5916728 223.484125,12.365 C223.484125,11.1383272 223.119962,10.1531704 222.391625,9.4095 C221.663288,8.66582962 220.800797,8.294 219.804125,8.294 C218.807453,8.294 217.944962,8.66582962 217.216625,9.4095 C216.488288,10.1531704 216.124125,11.1383272 216.124125,12.365 C216.124125,13.5916728 216.484455,14.5806629 217.205125,15.332 Z M227.445875,18 L227.445875,6.73 L229.469875,6.73 L229.469875,8.294 L229.561875,8.294 C229.883877,7.75733065 230.378372,7.30116854 231.045375,6.9255 C231.712378,6.54983145 232.375538,6.362 233.034875,6.362 C234.782884,6.362 235.971205,7.08265946 236.599875,8.524 C237.51988,7.08265946 238.830866,6.362 240.532875,6.362 C241.866882,6.362 242.871205,6.78749575 243.545875,7.6385 C244.220545,8.48950426 244.557875,9.64332605 244.557875,11.1 L244.557875,18 L242.441875,18 L242.441875,11.422 C242.441875,10.2873277 242.234877,9.48233571 241.820875,9.007 C241.406873,8.53166429 240.778213,8.294 239.934875,8.294 C239.106871,8.294 238.420711,8.64666314 237.876375,9.352 C237.332039,10.0573369 237.059875,10.8623288 237.059875,11.767 L237.059875,18 L234.943875,18 L234.943875,11.422 C234.943875,10.2873277 234.736877,9.48233571 234.322875,9.007 C233.908873,8.53166429 233.280213,8.294 232.436875,8.294 C231.608871,8.294 230.922711,8.64666314 230.378375,9.352 C229.834039,10.0573369 229.561875,10.8623288 229.561875,11.767 L229.561875,18 L227.445875,18 Z" id="Faça-sua-assinatura" fill="#FFFFFF"></path>
        <g id="Group" transform="translate(252.000000, 0.000000)" fill="#FFFFFF" fill-rule="nonzero">
            <path d="M9.36714443,19 C4.27673649,19 0,14.7346939 0,9.5 C0,4.26530612 4.27673649,0 9.36714443,0 C12.185226,0 14.1896362,1.13265306 15.6979052,2.62244898 L13.92172,4.44897959 C12.8401323,3.40816327 11.3715546,2.59183673 9.36714443,2.59183673 C5.646086,2.59183673 2.73869901,5.67346939 2.73869901,9.5 C2.73869901,13.3265306 5.646086,16.4081633 9.36714443,16.4081633 C11.7783903,16.4081633 13.1477398,15.4081633 14.030871,14.5102041 C14.755237,13.7653061 15.2216097,12.7040816 15.4002205,11.244898 L9.36714443,11.244898 L9.36714443,8.64285714 L17.8610805,8.64285714 C17.9503859,9.10204082 18,9.66326531 18,10.2653061 C18,12.2142857 17.4840132,14.622449 15.8169791,16.3367347 C14.1896362,18.0714286 12.1256891,19 9.36714443,19 Z" id="Shape"></path>
            <path d="M32,13 C32,16.4557596 29.3096447,19 26,19 C22.6903553,19 20,16.4557596 20,13 C20,9.52420701 22.6903553,7 26,7 C29.3096447,7 32,9.52420701 32,13 Z M29.3705584,13 C29.3705584,10.836394 27.8071066,9.3639399 26,9.3639399 C24.1928934,9.3639399 22.6294416,10.8464107 22.6294416,13 C22.6294416,15.1335559 24.1928934,16.6360601 26,16.6360601 C27.8071066,16.6360601 29.3705584,15.1435726 29.3705584,13 Z" id="Shape"></path>
            <path d="M45,13 C45,16.4557596 42.3096447,19 39,19 C35.7005076,19 33,16.4557596 33,13 C33,9.52420701 35.6903553,7 39,7 C42.3096447,7 45,9.52420701 45,13 Z M42.3807107,13 C42.3807107,10.836394 40.8172589,9.3639399 39.0101523,9.3639399 C37.2030457,9.3639399 35.6395939,10.8464107 35.6395939,13 C35.6395939,15.1335559 37.2030457,16.6360601 39.0101523,16.6360601 C40.8172589,16.6460768 42.3807107,15.1435726 42.3807107,13 Z" id="Shape"></path>
            <path d="M57,7.3621186 L57,17.8929188 C57,22.228555 54.5013055,24 51.5430809,24 C48.7571802,24 47.0913838,22.0915371 46.45953,20.5354059 L48.6518712,19.6056419 C49.0443864,20.5647668 50.0017406,21.6902706 51.5430809,21.6902706 C53.4386423,21.6902706 54.6066144,20.4864709 54.6066144,18.2452504 L54.6066144,17.4035694 L54.5204526,17.4035694 C53.9556136,18.1180196 52.8642298,18.7345999 51.4952132,18.7345999 C48.6231506,18.7345999 46,16.1801957 46,12.8917674 C46,9.58376511 48.6327241,7 51.4952132,7 C52.8642298,7 53.9556136,7.6263673 54.5204526,8.31145653 L54.6066144,8.31145653 L54.6066144,7.3621186 L57,7.3621186 Z M54.7789382,12.9015544 C54.7789382,10.8364997 53.4290688,9.31951641 51.7154047,9.31951641 C49.97302,9.31951641 48.5178416,10.8267127 48.5178416,12.9015544 C48.5178416,14.9470351 49.97302,16.4346575 51.7154047,16.4346575 C53.4290688,16.4346575 54.7789382,14.9470351 54.7789382,12.9015544 Z" id="Shape"></path>
            <polygon id="Shape" points="63 1 63 19 60 19 60 1"></polygon>
            <path d="M72.8441203,14.9732888 L74.8896992,16.3355593 C74.2278943,17.3171953 72.633546,19 69.8760255,19 C66.4567001,19 64,16.3656093 64,13 C64,9.43405676 66.4867821,7 69.5852325,7 C72.7037375,7 74.2278943,9.47412354 74.7292616,10.8163606 L75,11.4974958 L66.9680948,14.8230384 C67.579763,16.0250417 68.5423883,16.6460768 69.8860529,16.6460768 C71.2297174,16.6460768 72.1622607,15.9749583 72.8441203,14.9732888 Z M66.5369189,12.8096828 L71.911577,10.5859766 C71.6107566,9.83472454 70.72835,9.31385643 69.6754786,9.31385643 C68.331814,9.31385643 66.4667274,10.4958264 66.5369189,12.8096828 Z" id="Shape"></path>
        </g>
    </g>
</svg>