<?xml version="1.0" encoding="UTF-8"?>
<svg width="284px" height="24px" viewBox="0 0 284 24" version="1.1" xmlns="http://www.w3.org/2000/svg" xmlns:xlink="http://www.w3.org/1999/xlink">
    <!-- Generator: Sketch 51.3 (57544) - http://www.bohemiancoding.com/sketch -->
    <title>SwG-BR-WOB</title>
    <desc>Created with Sketch.</desc>
    <defs></defs>
    <g id="SwG-BR-WOB" stroke="none" stroke-width="1" fill="none" fill-rule="evenodd">
        <path d="M4.29649988,19.368 C3.1004939,19.368 2.10000391,19.0230035 1.29499988,18.333 C0.489995856,17.6429965 0.0874998808,16.7306723 0.0874998808,15.596 C0.0874998808,14.3693272 0.562828461,13.4071702 1.51349988,12.7095 C2.4641713,12.0118298 3.63715957,11.663 5.03249988,11.663 C6.27450609,11.663 7.29416256,11.8929977 8.09149988,12.353 L8.09149988,12.031 C8.09149988,11.2029959 7.80783605,10.5398358 7.24049988,10.0415 C6.67316371,9.54316418 5.97550402,9.294 5.14749988,9.294 C4.53416348,9.294 3.97833571,9.43966521 3.47999988,9.731 C2.98166406,10.0223348 2.6405008,10.4209975 2.45649988,10.927 L0.524499881,10.099 C0.785167851,9.42432996 1.29882938,8.79950287 2.06549988,8.2245 C2.83217038,7.64949712 3.84416026,7.362 5.10149988,7.362 C6.54284042,7.362 7.73882846,7.78366245 8.68949988,8.627 C9.6401713,9.47033755 10.1154999,10.658659 10.1154999,12.192 L10.1154999,19 L8.09149988,19 L8.09149988,17.436 L7.99949988,17.436 C7.15616233,18.7240064 5.92184134,19.368 4.29649988,19.368 Z M4.64149988,17.436 C5.51550425,17.436 6.30899632,17.1101699 7.02199988,16.4585 C7.73500345,15.8068301 8.09149988,15.0363378 8.09149988,14.147 C7.49349689,13.6563309 6.59650586,13.411 5.40049988,13.411 C4.37316141,13.411 3.59883582,13.6333311 3.07749988,14.078 C2.55616394,14.5226689 2.29549988,15.043997 2.29549988,15.642 C2.29549988,16.1940028 2.53316417,16.6309984 3.00849988,16.953 C3.48383559,17.2750016 4.02816348,17.436 4.64149988,17.436 Z M16.7222499,19.368 C15.4649103,19.368 14.4260873,19.0613364 13.6057499,18.448 C12.7854125,17.8346636 12.1835851,17.0680046 11.8002499,16.148 L13.6862499,15.366 C14.2842529,16.7766737 15.3039094,17.482 16.7452499,17.482 C17.4045865,17.482 17.9450811,17.3363348 18.3667499,17.045 C18.7884187,16.7536652 18.9992499,16.3703357 18.9992499,15.895 C18.9992499,15.1589963 18.4855884,14.660668 17.4582499,14.4 L15.1812499,13.848 C14.4605796,13.6639991 13.7782531,13.3151692 13.1342499,12.8015 C12.4902467,12.2878308 12.1682499,11.5940044 12.1682499,10.72 C12.1682499,9.72332835 12.6090788,8.91450311 13.4907499,8.2935 C14.372421,7.6724969 15.4189105,7.362 16.6302499,7.362 C17.6269215,7.362 18.516246,7.58816441 19.2982499,8.0405 C20.0802538,8.4928356 20.6399149,9.14066245 20.9772499,9.984 L19.1372499,10.743 C18.7232478,9.74632835 17.8645897,9.248 16.5612499,9.248 C15.9325801,9.248 15.4035854,9.37833203 14.9742499,9.639 C14.5449144,9.89966797 14.3302499,10.2523311 14.3302499,10.697 C14.3302499,11.3410032 14.8285782,11.7779988 15.8252499,12.008 L18.0562499,12.537 C19.1142552,12.7823346 19.8962474,13.203997 20.4022499,13.802 C20.9082524,14.400003 21.1612499,15.0746629 21.1612499,15.826 C21.1612499,16.8380051 20.747254,17.68133 19.9192499,18.356 C19.0912458,19.03067 18.0255897,19.368 16.7222499,19.368 Z M27.3309999,19.368 C26.0736603,19.368 25.0348373,19.0613364 24.2144999,18.448 C23.3941625,17.8346636 22.7923352,17.0680046 22.4089999,16.148 L24.2949999,15.366 C24.8930029,16.7766737 25.9126594,17.482 27.3539999,17.482 C28.0133365,17.482 28.5538311,17.3363348 28.9754999,17.045 C29.3971687,16.7536652 29.6079999,16.3703357 29.6079999,15.895 C29.6079999,15.1589963 29.0943384,14.660668 28.0669999,14.4 L25.7899999,13.848 C25.0693296,13.6639991 24.3870031,13.3151692 23.7429999,12.8015 C23.0989967,12.2878308 22.7769999,11.5940044 22.7769999,10.72 C22.7769999,9.72332835 23.2178288,8.91450311 24.0994999,8.2935 C24.981171,7.6724969 26.0276605,7.362 27.2389999,7.362 C28.2356716,7.362 29.124996,7.58816441 29.9069999,8.0405 C30.6890038,8.4928356 31.2486649,9.14066245 31.5859999,9.984 L29.7459999,10.743 C29.3319978,9.74632835 28.4733398,9.248 27.1699999,9.248 C26.5413301,9.248 26.0123354,9.37833203 25.5829999,9.639 C25.1536644,9.89966797 24.9389999,10.2523311 24.9389999,10.697 C24.9389999,11.3410032 25.4373283,11.7779988 26.4339999,12.008 L28.6649999,12.537 C29.7230052,12.7823346 30.5049974,13.203997 31.0109999,13.802 C31.5170024,14.400003 31.7699999,15.0746629 31.7699999,15.826 C31.7699999,16.8380051 31.356004,17.68133 30.5279999,18.356 C29.6999958,19.03067 28.6343398,19.368 27.3309999,19.368 Z M35.9387499,4.901 C35.6474151,5.19233479 35.294752,5.338 34.8807499,5.338 C34.4667478,5.338 34.1140847,5.19233479 33.8227499,4.901 C33.5314151,4.60966521 33.3857499,4.25700207 33.3857499,3.843 C33.3857499,3.42899793 33.5314151,3.07633479 33.8227499,2.785 C34.1140847,2.49366521 34.4667478,2.348 34.8807499,2.348 C35.294752,2.348 35.6474151,2.49366521 35.9387499,2.785 C36.2300847,3.07633479 36.3757499,3.42899793 36.3757499,3.843 C36.3757499,4.25700207 36.2300847,4.60966521 35.9387499,4.901 Z M35.9387499,19 L33.8227499,19 L33.8227499,7.73 L35.9387499,7.73 L35.9387499,19 Z M40.8664999,7.73 L40.8664999,9.294 L40.9584999,9.294 C41.2651681,8.75733065 41.7481633,8.30116854 42.4074999,7.9255 C43.0668366,7.54983146 43.7721628,7.362 44.5234999,7.362 C45.9188402,7.362 46.9844962,7.79132904 47.7204999,8.65 C48.4565036,9.50867096 48.8244999,10.6586595 48.8244999,12.1 L48.8244999,19 L46.7084999,19 L46.7084999,12.422 C46.7084999,10.3366562 45.7808425,9.294 43.9254999,9.294 C43.0514956,9.294 42.3385027,9.64282985 41.7864999,10.3405 C41.2344972,11.0381702 40.9584999,11.8469954 40.9584999,12.767 L40.9584999,19 L38.8424999,19 L38.8424999,7.73 L40.8664999,7.73 Z M54.9022499,19.368 C53.706244,19.368 52.705754,19.0230035 51.9007499,18.333 C51.0957459,17.6429965 50.6932499,16.7306723 50.6932499,15.596 C50.6932499,14.3693272 51.1685785,13.4071702 52.1192499,12.7095 C53.0699214,12.0118298 54.2429096,11.663 55.6382499,11.663 C56.8802562,11.663 57.8999126,11.8929977 58.6972499,12.353 L58.6972499,12.031 C58.6972499,11.2029959 58.4135861,10.5398358 57.8462499,10.0415 C57.2789138,9.54316418 56.5812541,9.294 55.7532499,9.294 C55.1399135,9.294 54.5840858,9.43966521 54.0857499,9.731 C53.5874141,10.0223348 53.2462509,10.4209975 53.0622499,10.927 L51.1302499,10.099 C51.3909179,9.42432996 51.9045794,8.79950287 52.6712499,8.2245 C53.4379204,7.64949712 54.4499103,7.362 55.7072499,7.362 C57.1485905,7.362 58.3445785,7.78366245 59.2952499,8.627 C60.2459214,9.47033755 60.7212499,10.658659 60.7212499,12.192 L60.7212499,19 L58.6972499,19 L58.6972499,17.436 L58.6052499,17.436 C57.7619124,18.7240064 56.5275914,19.368 54.9022499,19.368 Z M55.2472499,17.436 C56.1212543,17.436 56.9147464,17.1101699 57.6277499,16.4585 C58.3407535,15.8068301 58.6972499,15.0363378 58.6972499,14.147 C58.099247,13.6563309 57.2022559,13.411 56.0062499,13.411 C54.9789115,13.411 54.2045859,13.6333311 53.6832499,14.078 C53.161914,14.5226689 52.9012499,15.043997 52.9012499,15.642 C52.9012499,16.1940028 53.1389142,16.6309984 53.6142499,16.953 C54.0895857,17.2750016 54.6339135,17.436 55.2472499,17.436 Z M67.903,19.184 C66.7223274,19.184 65.8215031,18.8696698 65.2005,18.241 C64.5794968,17.6123302 64.269,16.7230057 64.269,15.573 L64.269,9.662 L62.291,9.662 L62.291,7.73 L64.269,7.73 L64.269,4.28 L66.385,4.28 L66.385,7.73 L69.145,7.73 L69.145,9.662 L66.385,9.662 L66.385,15.412 C66.385,16.6386728 66.8909949,17.252 67.903,17.252 C68.2863352,17.252 68.608332,17.1906673 68.869,17.068 L69.605,18.885 C69.1449977,19.0843343 68.57767,19.184 67.903,19.184 Z M81.20275,19 L79.17875,19 L79.17875,17.436 L79.08675,17.436 C78.7647484,17.9726693 78.2740866,18.4288315 77.61475,18.8045 C76.9554133,19.1801685 76.2577536,19.368 75.52175,19.368 C74.1110762,19.368 73.0415869,18.938671 72.31325,18.08 C71.584913,17.221329 71.22075,16.0713405 71.22075,14.63 L71.22075,7.73 L73.33675,7.73 L73.33675,14.285 C73.33675,16.3856772 74.2644074,17.436 76.11975,17.436 C76.9937543,17.436 77.7067472,17.0833369 78.25875,16.378 C78.8107527,15.6726631 79.08675,14.8600046 79.08675,13.94 L79.08675,7.73 L81.20275,7.73 L81.20275,19 Z M86.0385,19 L83.9225,19 L83.9225,7.73 L85.9465,7.73 L85.9465,9.57 L86.0385,9.57 C86.2531677,8.9566636 86.6939966,8.45066866 87.361,8.052 C88.0280033,7.65333134 88.6758302,7.454 89.3045,7.454 C89.9331698,7.454 90.4621645,7.54599908 90.8915,7.73 L90.0865,9.708 C89.8104986,9.60066613 89.4348357,9.547 88.9595,9.547 C88.1928295,9.547 87.5143363,9.84983031 86.924,10.4555 C86.3336637,11.0611697 86.0385,11.8546618 86.0385,12.836 L86.0385,19 Z M95.52025,19.368 C94.324244,19.368 93.323754,19.0230035 92.51875,18.333 C91.713746,17.6429965 91.31125,16.7306723 91.31125,15.596 C91.31125,14.3693272 91.7865786,13.4071702 92.73725,12.7095 C93.6879214,12.0118298 94.8609097,11.663 96.25625,11.663 C97.4982562,11.663 98.5179127,11.8929977 99.31525,12.353 L99.31525,12.031 C99.31525,11.2029959 99.0315862,10.5398358 98.46425,10.0415 C97.8969138,9.54316418 97.1992541,9.294 96.37125,9.294 C95.7579136,9.294 95.2020858,9.43966521 94.70375,9.731 C94.2054142,10.0223348 93.8642509,10.4209975 93.68025,10.927 L91.74825,10.099 C92.008918,9.42432996 92.5225795,8.79950287 93.28925,8.2245 C94.0559205,7.64949712 95.0679104,7.362 96.32525,7.362 C97.7665905,7.362 98.9625786,7.78366245 99.91325,8.627 C100.863921,9.47033755 101.33925,10.658659 101.33925,12.192 L101.33925,19 L99.31525,19 L99.31525,17.436 L99.22325,17.436 C98.3799124,18.7240064 97.1455914,19.368 95.52025,19.368 Z M95.86525,17.436 C96.7392544,17.436 97.5327464,17.1101699 98.24575,16.4585 C98.9587536,15.8068301 99.31525,15.0363378 99.31525,14.147 C98.717247,13.6563309 97.820256,13.411 96.62425,13.411 C95.5969115,13.411 94.8225859,13.6333311 94.30125,14.078 C93.779914,14.5226689 93.51925,15.043997 93.51925,15.642 C93.51925,16.1940028 93.7569143,16.6309984 94.23225,16.953 C94.7075857,17.2750016 95.2519136,17.436 95.86525,17.436 Z M114.00075,2.44 C114.67542,2.44 115.242748,2.53966567 115.70275,2.739 L114.96675,4.556 C114.721415,4.43333272 114.399419,4.372 114.00075,4.372 C113.448747,4.372 112.996418,4.53683168 112.64375,4.8665 C112.291082,5.19616832 112.11475,5.67533019 112.11475,6.304 L112.11475,7.73 L115.05875,7.73 L115.05875,9.662 L112.11475,9.662 L112.11475,19 L109.99875,19 L109.99875,9.662 L107.88275,9.662 L107.88275,7.73 L109.99875,7.73 L109.99875,6.235 C109.99875,5.08499425 110.366746,4.16500345 111.10275,3.475 C111.838754,2.78499655 112.804744,2.44 114.00075,2.44 Z M121.6425,19.368 C119.940492,19.368 118.556672,18.8006723 117.491,17.666 C116.425328,16.5313277 115.8925,15.0976753 115.8925,13.365 C115.8925,11.7243251 116.409995,10.3136726 117.445,9.133 C118.480005,7.95232743 119.802492,7.362 121.4125,7.362 C123.083842,7.362 124.421662,7.90632789 125.426,8.995 C126.430338,10.0836721 126.9325,11.5403242 126.9325,13.365 L126.9095,13.756 L118.0085,13.756 C118.069834,14.8906723 118.44933,15.7876634 119.147,16.447 C119.84467,17.1063366 120.661162,17.436 121.5965,17.436 C123.114508,17.436 124.141831,16.7920064 124.6785,15.504 L126.5645,16.286 C126.196498,17.1600044 125.590838,17.8921637 124.7475,18.4825 C123.904162,19.0728363 122.869173,19.368 121.6425,19.368 Z M124.6785,12.008 C124.6325,11.3639968 124.337336,10.7506696 123.793,10.168 C123.248664,9.58533042 122.439839,9.294 121.3665,9.294 C120.584496,9.294 119.906003,9.53933088 119.331,10.03 C118.755997,10.5206691 118.361168,11.1799959 118.1465,12.008 L124.6785,12.008 Z M131.30825,4.901 C131.016915,5.19233479 130.664252,5.338 130.25025,5.338 C129.836248,5.338 129.483585,5.19233479 129.19225,4.901 C128.900915,4.60966521 128.75525,4.25700207 128.75525,3.843 C128.75525,3.42899793 128.900915,3.07633479 129.19225,2.785 C129.483585,2.49366521 129.836248,2.348 130.25025,2.348 C130.664252,2.348 131.016915,2.49366521 131.30825,2.785 C131.599585,3.07633479 131.74525,3.42899793 131.74525,3.843 C131.74525,4.25700207 131.599585,4.60966521 131.30825,4.901 Z M131.30825,19 L129.19225,19 L129.19225,7.73 L131.30825,7.73 L131.30825,19 Z M138.973,19.184 C137.792327,19.184 136.891503,18.8696698 136.2705,18.241 C135.649497,17.6123302 135.339,16.7230057 135.339,15.573 L135.339,9.662 L133.361,9.662 L133.361,7.73 L135.339,7.73 L135.339,4.28 L137.455,4.28 L137.455,7.73 L140.215,7.73 L140.215,9.662 L137.455,9.662 L137.455,15.412 C137.455,16.6386728 137.960995,17.252 138.973,17.252 C139.356335,17.252 139.678332,17.1906673 139.939,17.068 L140.675,18.885 C140.214998,19.0843343 139.64767,19.184 138.973,19.184 Z M145.71775,19.368 C144.521744,19.368 143.521254,19.0230035 142.71625,18.333 C141.911246,17.6429965 141.50875,16.7306723 141.50875,15.596 C141.50875,14.3693272 141.984079,13.4071702 142.93475,12.7095 C143.885421,12.0118298 145.05841,11.663 146.45375,11.663 C147.695756,11.663 148.715413,11.8929977 149.51275,12.353 L149.51275,12.031 C149.51275,11.2029959 149.229086,10.5398358 148.66175,10.0415 C148.094414,9.54316418 147.396754,9.294 146.56875,9.294 C145.955414,9.294 145.399586,9.43966521 144.90125,9.731 C144.402914,10.0223348 144.061751,10.4209975 143.87775,10.927 L141.94575,10.099 C142.206418,9.42432996 142.72008,8.79950287 143.48675,8.2245 C144.253421,7.64949712 145.26541,7.362 146.52275,7.362 C147.964091,7.362 149.160079,7.78366245 150.11075,8.627 C151.061421,9.47033755 151.53675,10.658659 151.53675,12.192 L151.53675,19 L149.51275,19 L149.51275,17.436 L149.42075,17.436 C148.577413,18.7240064 147.343092,19.368 145.71775,19.368 Z M146.06275,17.436 C146.936754,17.436 147.730246,17.1101699 148.44325,16.4585 C149.156254,15.8068301 149.51275,15.0363378 149.51275,14.147 C148.914747,13.6563309 148.017756,13.411 146.82175,13.411 C145.794412,13.411 145.020086,13.6333311 144.49875,14.078 C143.977414,14.5226689 143.71675,15.043997 143.71675,15.642 C143.71675,16.1940028 143.954414,16.6309984 144.42975,16.953 C144.905086,17.2750016 145.449414,17.436 146.06275,17.436 Z M164.42825,19.368 C162.741575,19.368 161.353922,18.796839 160.26525,17.6545 C159.176578,16.512161 158.63225,15.0823419 158.63225,13.365 C158.63225,11.6476581 159.176578,10.217839 160.26525,9.0755 C161.353922,7.93316096 162.741575,7.362 164.42825,7.362 C165.68559,7.362 166.728246,7.6686636 167.55625,8.282 C168.384254,8.8953364 168.989915,9.66966199 169.37325,10.605 L167.44125,11.41 C166.858581,9.99932628 165.808258,9.294 164.29025,9.294 C163.354912,9.294 162.530754,9.6773295 161.81775,10.444 C161.104747,11.2106705 160.74825,12.1843274 160.74825,13.365 C160.74825,14.5456726 161.104747,15.5193295 161.81775,16.286 C162.530754,17.0526705 163.354912,17.436 164.29025,17.436 C165.869591,17.436 166.958247,16.7306737 167.55625,15.32 L169.44225,16.125 C169.058915,17.0450046 168.441754,17.8154969 167.59075,18.4365 C166.739746,19.0575031 165.68559,19.368 164.42825,19.368 Z M172.3,9.087 C173.388672,7.93699425 174.776325,7.362 176.463,7.362 C178.149675,7.362 179.537328,7.93316096 180.626,9.0755 C181.714672,10.217839 182.259,11.6476581 182.259,13.365 C182.259,15.0823419 181.714672,16.512161 180.626,17.6545 C179.537328,18.796839 178.149675,19.368 176.463,19.368 C174.776325,19.368 173.388672,18.796839 172.3,17.6545 C171.211328,16.512161 170.667,15.0823419 170.667,13.365 C170.667,11.6476581 171.211328,10.2216723 172.3,9.087 Z M173.864,16.332 C174.600004,17.0680037 175.466328,17.436 176.463,17.436 C177.459672,17.436 178.322163,17.0641704 179.0505,16.3205 C179.778837,15.5768296 180.143,14.5916728 180.143,13.365 C180.143,12.1383272 179.778837,11.1531704 179.0505,10.4095 C178.322163,9.66582962 177.459672,9.294 176.463,9.294 C175.466328,9.294 174.603837,9.66582962 173.8755,10.4095 C173.147163,11.1531704 172.783,12.1383272 172.783,13.365 C172.783,14.5916728 173.14333,15.5806629 173.864,16.332 Z M184.10475,19 L184.10475,7.73 L186.12875,7.73 L186.12875,9.294 L186.22075,9.294 C186.542752,8.75733065 187.037247,8.30116854 187.70425,7.9255 C188.371253,7.54983146 189.034413,7.362 189.69375,7.362 C191.441759,7.362 192.63008,8.08265946 193.25875,9.524 C194.178755,8.08265946 195.489742,7.362 197.19175,7.362 C198.525757,7.362 199.53008,7.78749575 200.20475,8.6385 C200.87942,9.48950426 201.21675,10.6433261 201.21675,12.1 L201.21675,19 L199.10075,19 L199.10075,12.422 C199.10075,11.2873277 198.893752,10.4823357 198.47975,10.007 C198.065748,9.53166429 197.437088,9.294 196.59375,9.294 C195.765746,9.294 195.079586,9.64666314 194.53525,10.352 C193.990914,11.0573369 193.71875,11.8623288 193.71875,12.767 L193.71875,19 L191.60275,19 L191.60275,12.422 C191.60275,11.2873277 191.395752,10.4823357 190.98175,10.007 C190.567748,9.53166429 189.939088,9.294 189.09575,9.294 C188.267746,9.294 187.581586,9.64666314 187.03725,10.352 C186.492914,11.0573369 186.22075,11.8623288 186.22075,12.767 L186.22075,19 L184.10475,19 Z" id="assinatura-feita-com" fill="#FFFFFF"></path>
        <g id="Group" transform="translate(209.000000, 0.000000)" fill="#FFFFFF" fill-rule="nonzero">
            <path d="M9.36714443,19 C4.27673649,19 0,14.7346939 0,9.5 C0,4.26530612 4.27673649,0 9.36714443,0 C12.185226,0 14.1896362,1.13265306 15.6979052,2.62244898 L13.92172,4.44897959 C12.8401323,3.40816327 11.3715546,2.59183673 9.36714443,2.59183673 C5.646086,2.59183673 2.73869901,5.67346939 2.73869901,9.5 C2.73869901,13.3265306 5.646086,16.4081633 9.36714443,16.4081633 C11.7783903,16.4081633 13.1477398,15.4081633 14.030871,14.5102041 C14.755237,13.7653061 15.2216097,12.7040816 15.4002205,11.244898 L9.36714443,11.244898 L9.36714443,8.64285714 L17.8610805,8.64285714 C17.9503859,9.10204082 18,9.66326531 18,10.2653061 C18,12.2142857 17.4840132,14.622449 15.8169791,16.3367347 C14.1896362,18.0714286 12.1256891,19 9.36714443,19 Z" id="Shape"></path>
            <path d="M32,13 C32,16.4557596 29.3096447,19 26,19 C22.6903553,19 20,16.4557596 20,13 C20,9.52420701 22.6903553,7 26,7 C29.3096447,7 32,9.52420701 32,13 Z M29.3705584,13 C29.3705584,10.836394 27.8071066,9.3639399 26,9.3639399 C24.1928934,9.3639399 22.6294416,10.8464107 22.6294416,13 C22.6294416,15.1335559 24.1928934,16.6360601 26,16.6360601 C27.8071066,16.6360601 29.3705584,15.1435726 29.3705584,13 Z" id="Shape"></path>
            <path d="M45,13 C45,16.4557596 42.3096447,19 39,19 C35.7005076,19 33,16.4557596 33,13 C33,9.52420701 35.6903553,7 39,7 C42.3096447,7 45,9.52420701 45,13 Z M42.3807107,13 C42.3807107,10.836394 40.8172589,9.3639399 39.0101523,9.3639399 C37.2030457,9.3639399 35.6395939,10.8464107 35.6395939,13 C35.6395939,15.1335559 37.2030457,16.6360601 39.0101523,16.6360601 C40.8172589,16.6460768 42.3807107,15.1435726 42.3807107,13 Z" id="Shape"></path>
            <path d="M57,7.3621186 L57,17.8929188 C57,22.228555 54.5013055,24 51.5430809,24 C48.7571802,24 47.0913838,22.0915371 46.45953,20.5354059 L48.6518712,19.6056419 C49.0443864,20.5647668 50.0017406,21.6902706 51.5430809,21.6902706 C53.4386423,21.6902706 54.6066144,20.4864709 54.6066144,18.2452504 L54.6066144,17.4035694 L54.5204526,17.4035694 C53.9556136,18.1180196 52.8642298,18.7345999 51.4952132,18.7345999 C48.6231506,18.7345999 46,16.1801957 46,12.8917674 C46,9.58376511 48.6327241,7 51.4952132,7 C52.8642298,7 53.9556136,7.6263673 54.5204526,8.31145653 L54.6066144,8.31145653 L54.6066144,7.3621186 L57,7.3621186 Z M54.7789382,12.9015544 C54.7789382,10.8364997 53.4290688,9.31951641 51.7154047,9.31951641 C49.97302,9.31951641 48.5178416,10.8267127 48.5178416,12.9015544 C48.5178416,14.9470351 49.97302,16.4346575 51.7154047,16.4346575 C53.4290688,16.4346575 54.7789382,14.9470351 54.7789382,12.9015544 Z" id="Shape"></path>
            <polygon id="Shape" points="63 1 63 19 60 19 60 1"></polygon>
            <path d="M72.8441203,14.9732888 L74.8896992,16.3355593 C74.2278943,17.3171953 72.633546,19 69.8760255,19 C66.4567001,19 64,16.3656093 64,13 C64,9.43405676 66.4867821,7 69.5852325,7 C72.7037375,7 74.2278943,9.47412354 74.7292616,10.8163606 L75,11.4974958 L66.9680948,14.8230384 C67.579763,16.0250417 68.5423883,16.6460768 69.8860529,16.6460768 C71.2297174,16.6460768 72.1622607,15.9749583 72.8441203,14.9732888 Z M66.5369189,12.8096828 L71.911577,10.5859766 C71.6107566,9.83472454 70.72835,9.31385643 69.6754786,9.31385643 C68.331814,9.31385643 66.4667274,10.4958264 66.5369189,12.8096828 Z" id="Shape"></path>
        </g>
    </g>
</svg>