<?xml version="1.0" encoding="UTF-8"?>
<svg width="216px" height="27px" viewBox="0 0 216 27" version="1.1" xmlns="http://www.w3.org/2000/svg" xmlns:xlink="http://www.w3.org/1999/xlink">
    <!-- Generator: Sketch 52.2 (67145) - http://www.bohemiancoding.com/sketch -->
    <title>SwG-BR-OB</title>
    <desc>Created with Sketch.</desc>
    <g id="SwG-BR-OB" stroke="none" stroke-width="1" fill="none" fill-rule="evenodd">
        <path d="M0.276,20 L6.486,3.532 L8.878,3.532 L15.088,20 L12.742,20 L11.155,15.538 L4.232,15.538 L2.622,20 L0.276,20 Z M4.945,13.56 L10.419,13.56 L7.728,6.131 L7.636,6.131 L4.945,13.56 Z M20.98175,20.368 C19.7244104,20.368 18.6855874,20.0613364 17.86525,19.448 C17.0449126,18.8346636 16.4430852,18.0680046 16.05975,17.148 L17.94575,16.366 C18.543753,17.7766737 19.5634095,18.482 21.00475,18.482 C21.6640866,18.482 22.2045812,18.3363348 22.62625,18.045 C23.0479188,17.7536652 23.25875,17.3703357 23.25875,16.895 C23.25875,16.1589963 22.7450885,15.660668 21.71775,15.4 L19.44075,14.848 C18.7200797,14.6639991 18.0377532,14.3151692 17.39375,13.8015 C16.7497468,13.2878308 16.42775,12.5940044 16.42775,11.72 C16.42775,10.7233283 16.8685789,9.91450311 17.75025,9.2935 C18.6319211,8.6724969 19.6784106,8.362 20.88975,8.362 C21.8864216,8.362 22.7757461,8.58816441 23.55775,9.0405 C24.3397539,9.4928356 24.899415,10.1406625 25.23675,10.984 L23.39675,11.743 C22.9827479,10.7463283 22.1240899,10.248 20.82075,10.248 C20.1920802,10.248 19.6630855,10.378332 19.23375,10.639 C18.8044145,10.899668 18.58975,11.2523311 18.58975,11.697 C18.58975,12.3410032 19.0880783,12.7779988 20.08475,13.008 L22.31575,13.537 C23.3737553,13.7823346 24.1557475,14.203997 24.66175,14.802 C25.1677525,15.400003 25.42075,16.0746629 25.42075,16.826 C25.42075,17.8380051 25.0067541,18.68133 24.17875,19.356 C23.3507459,20.03067 22.2850898,20.368 20.98175,20.368 Z M31.5905,20.368 C30.3331604,20.368 29.2943374,20.0613364 28.474,19.448 C27.6536626,18.8346636 27.0518353,18.0680046 26.6685,17.148 L28.5545,16.366 C29.152503,17.7766737 30.1721595,18.482 31.6135,18.482 C32.2728366,18.482 32.8133312,18.3363348 33.235,18.045 C33.6566688,17.7536652 33.8675,17.3703357 33.8675,16.895 C33.8675,16.1589963 33.3538385,15.660668 32.3265,15.4 L30.0495,14.848 C29.3288297,14.6639991 28.6465032,14.3151692 28.0025,13.8015 C27.3584968,13.2878308 27.0365,12.5940044 27.0365,11.72 C27.0365,10.7233283 27.4773289,9.91450311 28.359,9.2935 C29.2406711,8.6724969 30.2871606,8.362 31.4985,8.362 C32.4951717,8.362 33.3844961,8.58816441 34.1665,9.0405 C34.9485039,9.4928356 35.508165,10.1406625 35.8455,10.984 L34.0055,11.743 C33.5914979,10.7463283 32.7328399,10.248 31.4295,10.248 C30.8008302,10.248 30.2718355,10.378332 29.8425,10.639 C29.4131645,10.899668 29.1985,11.2523311 29.1985,11.697 C29.1985,12.3410032 29.6968284,12.7779988 30.6935,13.008 L32.9245,13.537 C33.9825053,13.7823346 34.7644975,14.203997 35.2705,14.802 C35.7765025,15.400003 36.0295,16.0746629 36.0295,16.826 C36.0295,17.8380051 35.6155041,18.68133 34.7875,19.356 C33.9594959,20.03067 32.8938399,20.368 31.5905,20.368 Z M40.19825,5.901 C39.9069152,6.19233479 39.5542521,6.338 39.14025,6.338 C38.7262479,6.338 38.3735848,6.19233479 38.08225,5.901 C37.7909152,5.60966521 37.64525,5.25700207 37.64525,4.843 C37.64525,4.42899793 37.7909152,4.07633479 38.08225,3.785 C38.3735848,3.49366521 38.7262479,3.348 39.14025,3.348 C39.5542521,3.348 39.9069152,3.49366521 40.19825,3.785 C40.4895848,4.07633479 40.63525,4.42899793 40.63525,4.843 C40.63525,5.25700207 40.4895848,5.60966521 40.19825,5.901 Z M40.19825,20 L38.08225,20 L38.08225,8.73 L40.19825,8.73 L40.19825,20 Z M45.126,8.73 L45.126,10.294 L45.218,10.294 C45.5246682,9.75733065 46.0076634,9.30116854 46.667,8.9255 C47.3263366,8.54983145 48.0316629,8.362 48.783,8.362 C50.1783403,8.362 51.2439963,8.79132904 51.98,9.65 C52.7160037,10.508671 53.084,11.6586595 53.084,13.1 L53.084,20 L50.968,20 L50.968,13.422 C50.968,11.3366562 50.0403426,10.294 48.185,10.294 C47.3109956,10.294 46.5980028,10.6428298 46.046,11.3405 C45.4939972,12.0381702 45.218,12.8469954 45.218,13.767 L45.218,20 L43.102,20 L43.102,8.73 L45.126,8.73 Z M60.81775,20.368 C59.1157415,20.368 57.731922,19.8006723 56.66625,18.666 C55.600578,17.5313277 55.06775,16.0976753 55.06775,14.365 C55.06775,12.7243251 55.5852448,11.3136726 56.62025,10.133 C57.6552552,8.95232743 58.977742,8.362 60.58775,8.362 C62.2590917,8.362 63.5969116,8.90632789 64.60125,9.995 C65.6055884,11.0836721 66.10775,12.5403242 66.10775,14.365 L66.08475,14.756 L57.18375,14.756 C57.2450836,15.8906723 57.6245798,16.7876634 58.32225,17.447 C59.0199202,18.1063366 59.836412,18.436 60.77175,18.436 C62.2897576,18.436 63.3170806,17.7920064 63.85375,16.504 L65.73975,17.286 C65.3717482,18.1600044 64.7660875,18.8921637 63.92275,19.4825 C63.0794125,20.0728363 62.0444228,20.368 60.81775,20.368 Z M63.85375,13.008 C63.8077498,12.3639968 63.5125861,11.7506696 62.96825,11.168 C62.4239139,10.5853304 61.6150887,10.294 60.54175,10.294 C59.7597461,10.294 59.0812529,10.5393309 58.50625,11.03 C57.9312471,11.5206691 57.5364177,12.1799959 57.32175,13.008 L63.85375,13.008 Z M78.53925,20.368 C76.8525749,20.368 75.4649221,19.796839 74.37625,18.6545 C73.2875779,17.512161 72.74325,16.0823419 72.74325,14.365 C72.74325,12.6476581 73.2875779,11.217839 74.37625,10.0755 C75.4649221,8.93316096 76.8525749,8.362 78.53925,8.362 C79.7965896,8.362 80.8392459,8.6686636 81.66725,9.282 C82.4952541,9.8953364 83.1009148,10.669662 83.48425,11.605 L81.55225,12.41 C80.9695804,10.9993263 79.9192576,10.294 78.40125,10.294 C77.465912,10.294 76.6417536,10.6773295 75.92875,11.444 C75.2157464,12.2106705 74.85925,13.1843274 74.85925,14.365 C74.85925,15.5456726 75.2157464,16.5193295 75.92875,17.286 C76.6417536,18.0526705 77.465912,18.436 78.40125,18.436 C79.9805912,18.436 81.069247,17.7306737 81.66725,16.32 L83.55325,17.125 C83.1699148,18.0450046 82.5527543,18.8154969 81.70175,19.4365 C80.8507457,20.0575031 79.7965896,20.368 78.53925,20.368 Z M86.411,10.087 C87.4996721,8.93699425 88.8873249,8.362 90.574,8.362 C92.2606751,8.362 93.6483279,8.93316096 94.737,10.0755 C95.8256721,11.217839 96.37,12.6476581 96.37,14.365 C96.37,16.0823419 95.8256721,17.512161 94.737,18.6545 C93.6483279,19.796839 92.2606751,20.368 90.574,20.368 C88.8873249,20.368 87.4996721,19.796839 86.411,18.6545 C85.3223279,17.512161 84.778,16.0823419 84.778,14.365 C84.778,12.6476581 85.3223279,11.2216723 86.411,10.087 Z M87.975,17.332 C88.7110037,18.0680037 89.5773283,18.436 90.574,18.436 C91.5706716,18.436 92.433163,18.0641704 93.1615,17.3205 C93.889837,16.5768296 94.254,15.5916728 94.254,14.365 C94.254,13.1383272 93.889837,12.1531704 93.1615,11.4095 C92.433163,10.6658296 91.5706716,10.294 90.574,10.294 C89.5773283,10.294 88.714837,10.6658296 87.9865,11.4095 C87.258163,12.1531704 86.894,13.1383272 86.894,14.365 C86.894,15.5916728 87.2543297,16.5806629 87.975,17.332 Z M98.21575,20 L98.21575,8.73 L100.23975,8.73 L100.23975,10.294 L100.33175,10.294 C100.653752,9.75733065 101.148247,9.30116854 101.81525,8.9255 C102.482253,8.54983145 103.145413,8.362 103.80475,8.362 C105.552759,8.362 106.74108,9.08265946 107.36975,10.524 C108.289755,9.08265946 109.600741,8.362 111.30275,8.362 C112.636757,8.362 113.64108,8.78749575 114.31575,9.6385 C114.99042,10.4895043 115.32775,11.6433261 115.32775,13.1 L115.32775,20 L113.21175,20 L113.21175,13.422 C113.21175,12.2873277 113.004752,11.4823357 112.59075,11.007 C112.176748,10.5316643 111.548088,10.294 110.70475,10.294 C109.876746,10.294 109.190586,10.6466631 108.64625,11.352 C108.101914,12.0573369 107.82975,12.8623288 107.82975,13.767 L107.82975,20 L105.71375,20 L105.71375,13.422 C105.71375,12.2873277 105.506752,11.4823357 105.09275,11.007 C104.678748,10.5316643 104.050088,10.294 103.20675,10.294 C102.378746,10.294 101.692586,10.6466631 101.14825,11.352 C100.603914,12.0573369 100.33175,12.8623288 100.33175,13.767 L100.33175,20 L98.21575,20 Z M124.14825,10.087 C125.236922,8.93699425 126.624575,8.362 128.31125,8.362 C129.997925,8.362 131.385578,8.93316096 132.47425,10.0755 C133.562922,11.217839 134.10725,12.6476581 134.10725,14.365 C134.10725,16.0823419 133.562922,17.512161 132.47425,18.6545 C131.385578,19.796839 129.997925,20.368 128.31125,20.368 C126.624575,20.368 125.236922,19.796839 124.14825,18.6545 C123.059578,17.512161 122.51525,16.0823419 122.51525,14.365 C122.51525,12.6476581 123.059578,11.2216723 124.14825,10.087 Z M125.71225,17.332 C126.448254,18.0680037 127.314578,18.436 128.31125,18.436 C129.307922,18.436 130.170413,18.0641704 130.89875,17.3205 C131.627087,16.5768296 131.99125,15.5916728 131.99125,14.365 C131.99125,13.1383272 131.627087,12.1531704 130.89875,11.4095 C130.170413,10.6658296 129.307922,10.294 128.31125,10.294 C127.314578,10.294 126.452087,10.6658296 125.72375,11.4095 C124.995413,12.1531704 124.63125,13.1383272 124.63125,14.365 C124.63125,15.5916728 124.99158,16.5806629 125.71225,17.332 Z" id="Assine-com-o" fill="#FFFFFF"></path>
        <g id="Group" transform="translate(141.000000, 1.000000)" fill="#FFFFFF" fill-rule="nonzero">
            <path d="M9.36714443,19 C4.27673649,19 0,14.7346939 0,9.5 C0,4.26530612 4.27673649,0 9.36714443,0 C12.185226,0 14.1896362,1.13265306 15.6979052,2.62244898 L13.92172,4.44897959 C12.8401323,3.40816327 11.3715546,2.59183673 9.36714443,2.59183673 C5.646086,2.59183673 2.73869901,5.67346939 2.73869901,9.5 C2.73869901,13.3265306 5.646086,16.4081633 9.36714443,16.4081633 C11.7783903,16.4081633 13.1477398,15.4081633 14.030871,14.5102041 C14.755237,13.7653061 15.2216097,12.7040816 15.4002205,11.244898 L9.36714443,11.244898 L9.36714443,8.64285714 L17.8610805,8.64285714 C17.9503859,9.10204082 18,9.66326531 18,10.2653061 C18,12.2142857 17.4840132,14.622449 15.8169791,16.3367347 C14.1896362,18.0714286 12.1256891,19 9.36714443,19 Z" id="Shape"></path>
            <path d="M32,13 C32,16.4557596 29.3096447,19 26,19 C22.6903553,19 20,16.4557596 20,13 C20,9.52420701 22.6903553,7 26,7 C29.3096447,7 32,9.52420701 32,13 Z M29.3705584,13 C29.3705584,10.836394 27.8071066,9.3639399 26,9.3639399 C24.1928934,9.3639399 22.6294416,10.8464107 22.6294416,13 C22.6294416,15.1335559 24.1928934,16.6360601 26,16.6360601 C27.8071066,16.6360601 29.3705584,15.1435726 29.3705584,13 Z" id="Shape"></path>
            <path d="M45,13 C45,16.4557596 42.3096447,19 39,19 C35.7005076,19 33,16.4557596 33,13 C33,9.52420701 35.6903553,7 39,7 C42.3096447,7 45,9.52420701 45,13 Z M42.3807107,13 C42.3807107,10.836394 40.8172589,9.3639399 39.0101523,9.3639399 C37.2030457,9.3639399 35.6395939,10.8464107 35.6395939,13 C35.6395939,15.1335559 37.2030457,16.6360601 39.0101523,16.6360601 C40.8172589,16.6460768 42.3807107,15.1435726 42.3807107,13 Z" id="Shape"></path>
            <path d="M57,7.3621186 L57,17.8929188 C57,22.228555 54.5013055,24 51.5430809,24 C48.7571802,24 47.0913838,22.0915371 46.45953,20.5354059 L48.6518712,19.6056419 C49.0443864,20.5647668 50.0017406,21.6902706 51.5430809,21.6902706 C53.4386423,21.6902706 54.6066144,20.4864709 54.6066144,18.2452504 L54.6066144,17.4035694 L54.5204526,17.4035694 C53.9556136,18.1180196 52.8642298,18.7345999 51.4952132,18.7345999 C48.6231506,18.7345999 46,16.1801957 46,12.8917674 C46,9.58376511 48.6327241,7 51.4952132,7 C52.8642298,7 53.9556136,7.6263673 54.5204526,8.31145653 L54.6066144,8.31145653 L54.6066144,7.3621186 L57,7.3621186 Z M54.7789382,12.9015544 C54.7789382,10.8364997 53.4290688,9.31951641 51.7154047,9.31951641 C49.97302,9.31951641 48.5178416,10.8267127 48.5178416,12.9015544 C48.5178416,14.9470351 49.97302,16.4346575 51.7154047,16.4346575 C53.4290688,16.4346575 54.7789382,14.9470351 54.7789382,12.9015544 Z" id="Shape"></path>
            <polygon id="Shape" points="63 1 63 19 60 19 60 1"></polygon>
            <path d="M72.8441203,14.9732888 L74.8896992,16.3355593 C74.2278943,17.3171953 72.633546,19 69.8760255,19 C66.4567001,19 64,16.3656093 64,13 C64,9.43405676 66.4867821,7 69.5852325,7 C72.7037375,7 74.2278943,9.47412354 74.7292616,10.8163606 L75,11.4974958 L66.9680948,14.8230384 C67.579763,16.0250417 68.5423883,16.6460768 69.8860529,16.6460768 C71.2297174,16.6460768 72.1622607,15.9749583 72.8441203,14.9732888 Z M66.5369189,12.8096828 L71.911577,10.5859766 C71.6107566,9.83472454 70.72835,9.31385643 69.6754786,9.31385643 C68.331814,9.31385643 66.4667274,10.4958264 66.5369189,12.8096828 Z" id="Shape"></path>
        </g>
    </g>
</svg>
