<?xml version="1.0" encoding="UTF-8"?>
<svg width="254px" height="26px" viewBox="0 0 254 26" version="1.1" xmlns="http://www.w3.org/2000/svg" xmlns:xlink="http://www.w3.org/1999/xlink">
    <!-- Generator: Sketch 52.2 (67145) - http://www.bohemiancoding.com/sketch -->
    <title>SwG-PT-OB</title>
    <desc>Created with Sketch.</desc>
    <g id="SwG-PT-OB" stroke="none" stroke-width="1" fill="none" fill-rule="evenodd">
        <path d="M6.302,20.368 C5.10599402,20.368 3.93683905,19.9770039 2.7945,19.195 C1.65216095,18.4129961 0.90466843,17.3166737 0.552,15.906 L2.484,15.124 C2.71400115,16.0286712 3.18549644,16.7914969 3.8985,17.4125 C4.61150356,18.0335031 5.41266222,18.344 6.302,18.344 C7.2220046,18.344 8.00783007,18.1025024 8.6595,17.6195 C9.31116992,17.1364976 9.637,16.4810041 9.637,15.653 C9.637,14.7329954 9.31116992,14.0238358 8.6595,13.5255 C8.00783007,13.0271642 6.97667372,12.5633355 5.566,12.134 C4.10932605,11.6739977 3.00533709,11.079837 2.254,10.3515 C1.50266291,9.62316303 1.127,8.69167234 1.127,7.557 C1.127,6.37632743 1.59466199,5.34900437 2.53,4.475 C3.46533801,3.60099563 4.68432582,3.164 6.187,3.164 C7.58234031,3.164 8.71699563,3.51282984 9.591,4.2105 C10.4650044,4.90817015 11.032332,5.67099586 11.293,6.499 L9.361,7.304 C9.22299931,6.78266406 8.88183606,6.29966889 8.3375,5.855 C7.79316394,5.41033111 7.09167096,5.188 6.233,5.188 C5.42032927,5.188 4.72650287,5.41416441 4.1515,5.8665 C3.57649712,6.3188356 3.289,6.88232996 3.289,7.557 C3.289,8.1703364 3.55349735,8.68783123 4.0825,9.1095 C4.61150264,9.53116878 5.38966153,9.91066498 6.417,10.248 C7.22967073,10.508668 7.90816395,10.7616654 8.4525,11.007 C8.99683605,11.2523346 9.54883054,11.5781646 10.1085,11.9845 C10.6681695,12.3908354 11.0898319,12.8968303 11.3735,13.5025 C11.6571681,14.1081697 11.799,14.8096627 11.799,15.607 C11.799,16.4043373 11.6341683,17.1173302 11.3045,17.746 C10.9748317,18.3746698 10.5378361,18.8729982 9.9935,19.241 C9.44916394,19.6090018 8.86266981,19.8888324 8.234,20.0805 C7.60533019,20.2721676 6.96133663,20.368 6.302,20.368 Z M23.69575,20 L21.67175,20 L21.67175,18.436 L21.57975,18.436 C21.2577484,18.9726694 20.7670866,19.4288315 20.10775,19.8045 C19.4484134,20.1801685 18.7507537,20.368 18.01475,20.368 C16.6040763,20.368 15.534587,19.938671 14.80625,19.08 C14.077913,18.221329 13.71375,17.0713405 13.71375,15.63 L13.71375,8.73 L15.82975,8.73 L15.82975,15.285 C15.82975,17.3856772 16.7574074,18.436 18.61275,18.436 C19.4867544,18.436 20.1997472,18.0833369 20.75175,17.378 C21.3037528,16.6726631 21.57975,15.8600046 21.57975,14.94 L21.57975,8.73 L23.69575,8.73 L23.69575,20 Z M32.3725,20.368 C31.513829,20.368 30.7433367,20.1840018 30.061,19.816 C29.3786633,19.4479982 28.868835,18.9880028 28.5315,18.436 L28.4395,18.436 L28.4395,20 L26.4155,20 L26.4155,3.532 L28.5315,3.532 L28.5315,8.73 L28.4395,10.294 L28.5315,10.294 C28.868835,9.74199724 29.3786633,9.28200184 30.061,8.914 C30.7433367,8.54599816 31.513829,8.362 32.3725,8.362 C33.8291739,8.362 35.0864947,8.93699425 36.1445,10.087 C37.2025053,11.2370057 37.7315,12.6629915 37.7315,14.365 C37.7315,16.0670085 37.2025053,17.4929942 36.1445,18.643 C35.0864947,19.7930057 33.8291739,20.368 32.3725,20.368 Z M32.0275,18.436 C33.0088382,18.436 33.8521631,18.0641704 34.5575,17.3205 C35.2628369,16.5768296 35.6155,15.5916728 35.6155,14.365 C35.6155,13.1383272 35.2628369,12.1531704 34.5575,11.4095 C33.8521631,10.6658296 33.0088382,10.294 32.0275,10.294 C31.0308283,10.294 30.1836702,10.6619963 29.486,11.398 C28.7883298,12.1340037 28.4395,13.1229938 28.4395,14.365 C28.4395,15.6070062 28.7883298,16.5959963 29.486,17.332 C30.1836702,18.0680037 31.0308283,18.436 32.0275,18.436 Z M43.87825,20.368 C42.6209104,20.368 41.5820874,20.0613364 40.76175,19.448 C39.9414126,18.8346636 39.3395852,18.0680046 38.95625,17.148 L40.84225,16.366 C41.440253,17.7766737 42.4599095,18.482 43.90125,18.482 C44.5605866,18.482 45.1010812,18.3363348 45.52275,18.045 C45.9444188,17.7536652 46.15525,17.3703357 46.15525,16.895 C46.15525,16.1589963 45.6415885,15.660668 44.61425,15.4 L42.33725,14.848 C41.6165797,14.6639991 40.9342532,14.3151692 40.29025,13.8015 C39.6462468,13.2878308 39.32425,12.5940044 39.32425,11.72 C39.32425,10.7233283 39.7650789,9.91450311 40.64675,9.2935 C41.5284211,8.6724969 42.5749106,8.362 43.78625,8.362 C44.7829216,8.362 45.6722461,8.58816441 46.45425,9.0405 C47.2362539,9.4928356 47.795915,10.1406625 48.13325,10.984 L46.29325,11.743 C45.8792479,10.7463283 45.0205899,10.248 43.71725,10.248 C43.0885802,10.248 42.5595855,10.378332 42.13025,10.639 C41.7009145,10.899668 41.48625,11.2523311 41.48625,11.697 C41.48625,12.3410032 41.9845783,12.7779988 42.98125,13.008 L45.21225,13.537 C46.2702553,13.7823346 47.0522475,14.203997 47.55825,14.802 C48.0642525,15.400003 48.31725,16.0746629 48.31725,16.826 C48.31725,17.8380051 47.9032541,18.68133 47.07525,19.356 C46.2472459,20.03067 45.1815899,20.368 43.87825,20.368 Z M55.568,20.368 C53.8813249,20.368 52.4936721,19.796839 51.405,18.6545 C50.3163279,17.512161 49.772,16.0823419 49.772,14.365 C49.772,12.6476581 50.3163279,11.217839 51.405,10.0755 C52.4936721,8.93316096 53.8813249,8.362 55.568,8.362 C56.8253396,8.362 57.8679959,8.6686636 58.696,9.282 C59.5240041,9.8953364 60.1296648,10.669662 60.513,11.605 L58.581,12.41 C57.9983304,10.9993263 56.9480076,10.294 55.43,10.294 C54.494662,10.294 53.6705036,10.6773295 52.9575,11.444 C52.2444964,12.2106705 51.888,13.1843274 51.888,14.365 C51.888,15.5456726 52.2444964,16.5193295 52.9575,17.286 C53.6705036,18.0526705 54.494662,18.436 55.43,18.436 C57.0093412,18.436 58.097997,17.7306737 58.696,16.32 L60.582,17.125 C60.1986648,18.0450046 59.5815043,18.8154969 58.7305,19.4365 C57.8794957,20.0575031 56.8253396,20.368 55.568,20.368 Z M64.56675,20 L62.45075,20 L62.45075,8.73 L64.47475,8.73 L64.47475,10.57 L64.56675,10.57 C64.7814177,9.9566636 65.2222467,9.45066866 65.88925,9.052 C66.5562533,8.65333134 67.2040802,8.454 67.83275,8.454 C68.4614198,8.454 68.9904145,8.54599908 69.41975,8.73 L68.61475,10.708 C68.3387486,10.6006661 67.9630857,10.547 67.48775,10.547 C66.7210795,10.547 66.0425863,10.8498303 65.45225,11.4555 C64.8619137,12.0611697 64.56675,12.8546618 64.56675,13.836 L64.56675,20 Z M75.3595,20.368 C73.6574915,20.368 72.273672,19.8006723 71.208,18.666 C70.142328,17.5313277 69.6095,16.0976753 69.6095,14.365 C69.6095,12.7243251 70.1269948,11.3136726 71.162,10.133 C72.1970052,8.95232743 73.519492,8.362 75.1295,8.362 C76.8008417,8.362 78.1386616,8.90632789 79.143,9.995 C80.1473384,11.0836721 80.6495,12.5403242 80.6495,14.365 L80.6265,14.756 L71.7255,14.756 C71.7868336,15.8906723 72.1663298,16.7876634 72.864,17.447 C73.5616702,18.1063366 74.378162,18.436 75.3135,18.436 C76.8315076,18.436 77.8588307,17.7920064 78.3955,16.504 L80.2815,17.286 C79.9134982,18.1600044 79.3078376,18.8921637 78.4645,19.4825 C77.6211624,20.0728363 76.5861728,20.368 75.3595,20.368 Z M78.3955,13.008 C78.3494998,12.3639968 78.0543361,11.7506696 77.51,11.168 C76.9656639,10.5853304 76.1568387,10.294 75.0835,10.294 C74.3014961,10.294 73.6230029,10.5393309 73.048,11.03 C72.4729971,11.5206691 72.0781677,12.1799959 71.8635,13.008 L78.3955,13.008 Z M85.85325,20 L81.29925,8.73 L83.59925,8.73 L86.91125,17.47 L86.95725,17.47 L90.31525,8.73 L92.56925,8.73 L87.96925,20 L85.85325,20 Z M97.428,20.368 C96.231994,20.368 95.231504,20.0230035 94.4265,19.333 C93.621496,18.6429965 93.219,17.7306723 93.219,16.596 C93.219,15.3693272 93.6943286,14.4071702 94.645,13.7095 C95.5956714,13.0118298 96.7686597,12.663 98.164,12.663 C99.4060062,12.663 100.425663,12.8929977 101.223,13.353 L101.223,13.031 C101.223,12.2029959 100.939336,11.5398358 100.372,11.0415 C99.8046638,10.5431642 99.1070041,10.294 98.279,10.294 C97.6656636,10.294 97.1098358,10.4396652 96.6115,10.731 C96.1131642,11.0223348 95.7720009,11.4209975 95.588,11.927 L93.656,11.099 C93.916668,10.42433 94.4303295,9.79950287 95.197,9.2245 C95.9636705,8.64949712 96.9756604,8.362 98.233,8.362 C99.6743405,8.362 100.870329,8.78366245 101.821,9.627 C102.771671,10.4703375 103.247,11.658659 103.247,13.192 L103.247,20 L101.223,20 L101.223,18.436 L101.131,18.436 C100.287662,19.7240064 99.0533415,20.368 97.428,20.368 Z M97.773,18.436 C98.6470044,18.436 99.4404964,18.1101699 100.1535,17.4585 C100.866504,16.8068301 101.223,16.0363378 101.223,15.147 C100.624997,14.6563309 99.728006,14.411 98.532,14.411 C97.5046615,14.411 96.7303359,14.6333311 96.209,15.078 C95.6876641,15.5226689 95.427,16.043997 95.427,16.642 C95.427,17.1940028 95.6646643,17.6309984 96.14,17.953 C96.6153357,18.2750016 97.1596636,18.436 97.773,18.436 Z M116.1385,20.368 C114.451825,20.368 113.064172,19.796839 111.9755,18.6545 C110.886828,17.512161 110.3425,16.0823419 110.3425,14.365 C110.3425,12.6476581 110.886828,11.217839 111.9755,10.0755 C113.064172,8.93316096 114.451825,8.362 116.1385,8.362 C117.39584,8.362 118.438496,8.6686636 119.2665,9.282 C120.094504,9.8953364 120.700165,10.669662 121.0835,11.605 L119.1515,12.41 C118.56883,10.9993263 117.518508,10.294 116.0005,10.294 C115.065162,10.294 114.241004,10.6773295 113.528,11.444 C112.814996,12.2106705 112.4585,13.1843274 112.4585,14.365 C112.4585,15.5456726 112.814996,16.5193295 113.528,17.286 C114.241004,18.0526705 115.065162,18.436 116.0005,18.436 C117.579841,18.436 118.668497,17.7306737 119.2665,16.32 L121.1525,17.125 C120.769165,18.0450046 120.152004,18.8154969 119.301,19.4365 C118.449996,20.0575031 117.39584,20.368 116.1385,20.368 Z M124.01025,10.087 C125.098922,8.93699425 126.486575,8.362 128.17325,8.362 C129.859925,8.362 131.247578,8.93316096 132.33625,10.0755 C133.424922,11.217839 133.96925,12.6476581 133.96925,14.365 C133.96925,16.0823419 133.424922,17.512161 132.33625,18.6545 C131.247578,19.796839 129.859925,20.368 128.17325,20.368 C126.486575,20.368 125.098922,19.796839 124.01025,18.6545 C122.921578,17.512161 122.37725,16.0823419 122.37725,14.365 C122.37725,12.6476581 122.921578,11.2216723 124.01025,10.087 Z M125.57425,17.332 C126.310254,18.0680037 127.176578,18.436 128.17325,18.436 C129.169922,18.436 130.032413,18.0641704 130.76075,17.3205 C131.489087,16.5768296 131.85325,15.5916728 131.85325,14.365 C131.85325,13.1383272 131.489087,12.1531704 130.76075,11.4095 C130.032413,10.6658296 129.169922,10.294 128.17325,10.294 C127.176578,10.294 126.314087,10.6658296 125.58575,11.4095 C124.857413,12.1531704 124.49325,13.1383272 124.49325,14.365 C124.49325,15.5916728 124.85358,16.5806629 125.57425,17.332 Z M135.815,20 L135.815,8.73 L137.839,8.73 L137.839,10.294 L137.931,10.294 C138.253002,9.75733065 138.747497,9.30116854 139.4145,8.9255 C140.081503,8.54983145 140.744663,8.362 141.404,8.362 C143.152009,8.362 144.34033,9.08265946 144.969,10.524 C145.889005,9.08265946 147.199991,8.362 148.902,8.362 C150.236007,8.362 151.24033,8.78749575 151.915,9.6385 C152.58967,10.4895043 152.927,11.6433261 152.927,13.1 L152.927,20 L150.811,20 L150.811,13.422 C150.811,12.2873277 150.604002,11.4823357 150.19,11.007 C149.775998,10.5316643 149.147338,10.294 148.304,10.294 C147.475996,10.294 146.789836,10.6466631 146.2455,11.352 C145.701164,12.0573369 145.429,12.8623288 145.429,13.767 L145.429,20 L143.313,20 L143.313,13.422 C143.313,12.2873277 143.106002,11.4823357 142.692,11.007 C142.277998,10.5316643 141.649338,10.294 140.806,10.294 C139.977996,10.294 139.291836,10.6466631 138.7475,11.352 C138.203164,12.0573369 137.931,12.8623288 137.931,13.767 L137.931,20 L135.815,20 Z M161.7475,10.087 C162.836172,8.93699425 164.223825,8.362 165.9105,8.362 C167.597175,8.362 168.984828,8.93316096 170.0735,10.0755 C171.162172,11.217839 171.7065,12.6476581 171.7065,14.365 C171.7065,16.0823419 171.162172,17.512161 170.0735,18.6545 C168.984828,19.796839 167.597175,20.368 165.9105,20.368 C164.223825,20.368 162.836172,19.796839 161.7475,18.6545 C160.658828,17.512161 160.1145,16.0823419 160.1145,14.365 C160.1145,12.6476581 160.658828,11.2216723 161.7475,10.087 Z M163.3115,17.332 C164.047504,18.0680037 164.913828,18.436 165.9105,18.436 C166.907172,18.436 167.769663,18.0641704 168.498,17.3205 C169.226337,16.5768296 169.5905,15.5916728 169.5905,14.365 C169.5905,13.1383272 169.226337,12.1531704 168.498,11.4095 C167.769663,10.6658296 166.907172,10.294 165.9105,10.294 C164.913828,10.294 164.051337,10.6658296 163.323,11.4095 C162.594663,12.1531704 162.2305,13.1383272 162.2305,14.365 C162.2305,15.5916728 162.59083,16.5806629 163.3115,17.332 Z" id="Subscreva-com-o" fill="#FFFFFF"></path>
        <g id="Group" transform="translate(179.000000, 1.000000)" fill="#FFFFFF" fill-rule="nonzero">
            <path d="M9.36714443,19 C4.27673649,19 0,14.7346939 0,9.5 C0,4.26530612 4.27673649,0 9.36714443,0 C12.185226,0 14.1896362,1.13265306 15.6979052,2.62244898 L13.92172,4.44897959 C12.8401323,3.40816327 11.3715546,2.59183673 9.36714443,2.59183673 C5.646086,2.59183673 2.73869901,5.67346939 2.73869901,9.5 C2.73869901,13.3265306 5.646086,16.4081633 9.36714443,16.4081633 C11.7783903,16.4081633 13.1477398,15.4081633 14.030871,14.5102041 C14.755237,13.7653061 15.2216097,12.7040816 15.4002205,11.244898 L9.36714443,11.244898 L9.36714443,8.64285714 L17.8610805,8.64285714 C17.9503859,9.10204082 18,9.66326531 18,10.2653061 C18,12.2142857 17.4840132,14.622449 15.8169791,16.3367347 C14.1896362,18.0714286 12.1256891,19 9.36714443,19 Z" id="Shape"></path>
            <path d="M32,13 C32,16.4557596 29.3096447,19 26,19 C22.6903553,19 20,16.4557596 20,13 C20,9.52420701 22.6903553,7 26,7 C29.3096447,7 32,9.52420701 32,13 Z M29.3705584,13 C29.3705584,10.836394 27.8071066,9.3639399 26,9.3639399 C24.1928934,9.3639399 22.6294416,10.8464107 22.6294416,13 C22.6294416,15.1335559 24.1928934,16.6360601 26,16.6360601 C27.8071066,16.6360601 29.3705584,15.1435726 29.3705584,13 Z" id="Shape"></path>
            <path d="M45,13 C45,16.4557596 42.3096447,19 39,19 C35.7005076,19 33,16.4557596 33,13 C33,9.52420701 35.6903553,7 39,7 C42.3096447,7 45,9.52420701 45,13 Z M42.3807107,13 C42.3807107,10.836394 40.8172589,9.3639399 39.0101523,9.3639399 C37.2030457,9.3639399 35.6395939,10.8464107 35.6395939,13 C35.6395939,15.1335559 37.2030457,16.6360601 39.0101523,16.6360601 C40.8172589,16.6460768 42.3807107,15.1435726 42.3807107,13 Z" id="Shape"></path>
            <path d="M57,7.3621186 L57,17.8929188 C57,22.228555 54.5013055,24 51.5430809,24 C48.7571802,24 47.0913838,22.0915371 46.45953,20.5354059 L48.6518712,19.6056419 C49.0443864,20.5647668 50.0017406,21.6902706 51.5430809,21.6902706 C53.4386423,21.6902706 54.6066144,20.4864709 54.6066144,18.2452504 L54.6066144,17.4035694 L54.5204526,17.4035694 C53.9556136,18.1180196 52.8642298,18.7345999 51.4952132,18.7345999 C48.6231506,18.7345999 46,16.1801957 46,12.8917674 C46,9.58376511 48.6327241,7 51.4952132,7 C52.8642298,7 53.9556136,7.6263673 54.5204526,8.31145653 L54.6066144,8.31145653 L54.6066144,7.3621186 L57,7.3621186 Z M54.7789382,12.9015544 C54.7789382,10.8364997 53.4290688,9.31951641 51.7154047,9.31951641 C49.97302,9.31951641 48.5178416,10.8267127 48.5178416,12.9015544 C48.5178416,14.9470351 49.97302,16.4346575 51.7154047,16.4346575 C53.4290688,16.4346575 54.7789382,14.9470351 54.7789382,12.9015544 Z" id="Shape"></path>
            <polygon id="Shape" points="63 1 63 19 60 19 60 1"></polygon>
            <path d="M72.8441203,14.9732888 L74.8896992,16.3355593 C74.2278943,17.3171953 72.633546,19 69.8760255,19 C66.4567001,19 64,16.3656093 64,13 C64,9.43405676 66.4867821,7 69.5852325,7 C72.7037375,7 74.2278943,9.47412354 74.7292616,10.8163606 L75,11.4974958 L66.9680948,14.8230384 C67.579763,16.0250417 68.5423883,16.6460768 69.8860529,16.6460768 C71.2297174,16.6460768 72.1622607,15.9749583 72.8441203,14.9732888 Z M66.5369189,12.8096828 L71.911577,10.5859766 C71.6107566,9.83472454 70.72835,9.31385643 69.6754786,9.31385643 C68.331814,9.31385643 66.4667274,10.4958264 66.5369189,12.8096828 Z" id="Shape"></path>
        </g>
    </g>
</svg>
