<?xml version="1.0" encoding="UTF-8"?>
<svg width="225px" height="24px" viewBox="0 0 225 24" version="1.1" xmlns="http://www.w3.org/2000/svg" xmlns:xlink="http://www.w3.org/1999/xlink">
    <!-- Generator: Sketch 51.3 (57544) - http://www.bohemiancoding.com/sketch -->
    <title>SwG-PT-WOB</title>
    <desc>Created with Sketch.</desc>
    <defs></defs>
    <g id="SwG-PT-WOB" stroke="none" stroke-width="1" fill="none" fill-rule="evenodd">
        <path d="M5.57312492,19.368 C4.3157853,19.368 3.27696236,19.0613364 2.45662492,18.448 C1.63628749,17.8346636 1.03446017,17.0680046 0.651124923,16.148 L2.53712492,15.366 C3.13512791,16.7766737 4.15478438,17.482 5.59612492,17.482 C6.25546155,17.482 6.79595615,17.3363348 7.21762492,17.045 C7.6392937,16.7536652 7.85012492,16.3703357 7.85012492,15.895 C7.85012492,15.1589963 7.33646339,14.660668 6.30912492,14.4 L4.03212492,13.848 C3.31145465,13.6639991 2.62912814,13.3151692 1.98512492,12.8015 C1.3411217,12.2878308 1.01912492,11.5940044 1.01912492,10.72 C1.01912492,9.72332835 1.45995385,8.91450311 2.34162492,8.2935 C3.223296,7.6724969 4.26978553,7.362 5.48112492,7.362 C6.47779657,7.362 7.36712101,7.58816441 8.14912492,8.0405 C8.93112883,8.4928356 9.4907899,9.14066245 9.82812492,9.984 L7.98812492,10.743 C7.57412285,9.74632835 6.71546477,9.248 5.41212492,9.248 C4.78345511,9.248 4.2544604,9.37833203 3.82512492,9.639 C3.39578944,9.89966797 3.18112492,10.2523311 3.18112492,10.697 C3.18112492,11.3410032 3.67945327,11.7779988 4.67612492,12.008 L6.90712492,12.537 C7.96513021,12.7823346 8.74712239,13.203997 9.25312492,13.802 C9.75912745,14.400003 10.0121249,15.0746629 10.0121249,15.826 C10.0121249,16.8380051 9.59812906,17.68133 8.77012492,18.356 C7.94212078,19.03067 6.87646477,19.368 5.57312492,19.368 Z M21.8858749,19 L19.8618749,19 L19.8618749,17.436 L19.7698749,17.436 C19.4478733,17.9726693 18.9572116,18.4288315 18.2978749,18.8045 C17.6385383,19.1801685 16.9408786,19.368 16.2048749,19.368 C14.7942012,19.368 13.7247119,18.938671 12.9963749,18.08 C12.268038,17.221329 11.9038749,16.0713405 11.9038749,14.63 L11.9038749,7.73 L14.0198749,7.73 L14.0198749,14.285 C14.0198749,16.3856772 14.9475323,17.436 16.8028749,17.436 C17.6768793,17.436 18.3898722,17.0833369 18.9418749,16.378 C19.4938777,15.6726631 19.7698749,14.8600046 19.7698749,13.94 L19.7698749,7.73 L21.8858749,7.73 L21.8858749,19 Z M30.5626249,19.368 C29.703954,19.368 28.9334617,19.1840018 28.2511249,18.816 C27.5687882,18.4479982 27.05896,17.9880028 26.7216249,17.436 L26.6296249,17.436 L26.6296249,19 L24.6056249,19 L24.6056249,2.532 L26.7216249,2.532 L26.7216249,7.73 L26.6296249,9.294 L26.7216249,9.294 C27.05896,8.74199724 27.5687882,8.28200184 28.2511249,7.914 C28.9334617,7.54599816 29.703954,7.362 30.5626249,7.362 C32.0192989,7.362 33.2766197,7.93699425 34.3346249,9.087 C35.3926302,10.2370057 35.9216249,11.6629915 35.9216249,13.365 C35.9216249,15.0670085 35.3926302,16.4929942 34.3346249,17.643 C33.2766197,18.7930057 32.0192989,19.368 30.5626249,19.368 Z M30.2176249,17.436 C31.1989632,17.436 32.0422881,17.0641704 32.7476249,16.3205 C33.4529618,15.5768296 33.8056249,14.5916728 33.8056249,13.365 C33.8056249,12.1383272 33.4529618,11.1531704 32.7476249,10.4095 C32.0422881,9.66582962 31.1989632,9.294 30.2176249,9.294 C29.2209533,9.294 28.3737951,9.66199632 27.6761249,10.398 C26.9784548,11.1340037 26.6296249,12.1229938 26.6296249,13.365 C26.6296249,14.6070062 26.9784548,15.5959963 27.6761249,16.332 C28.3737951,17.0680037 29.2209533,17.436 30.2176249,17.436 Z M42.068375,19.368 C40.8110353,19.368 39.7722124,19.0613364 38.951875,18.448 C38.1315375,17.8346636 37.5297102,17.0680046 37.146375,16.148 L39.032375,15.366 C39.6303779,16.7766737 40.6500344,17.482 42.091375,17.482 C42.7507116,17.482 43.2912062,17.3363348 43.712875,17.045 C44.1345437,16.7536652 44.345375,16.3703357 44.345375,15.895 C44.345375,15.1589963 43.8317134,14.660668 42.804375,14.4 L40.527375,13.848 C39.8067047,13.6639991 39.1243782,13.3151692 38.480375,12.8015 C37.8363717,12.2878308 37.514375,11.5940044 37.514375,10.72 C37.514375,9.72332835 37.9552039,8.91450311 38.836875,8.2935 C39.718546,7.6724969 40.7650356,7.362 41.976375,7.362 C42.9730466,7.362 43.862371,7.58816441 44.644375,8.0405 C45.4263789,8.4928356 45.9860399,9.14066245 46.323375,9.984 L44.483375,10.743 C44.0693729,9.74632835 43.2107148,9.248 41.907375,9.248 C41.2787051,9.248 40.7497104,9.37833203 40.320375,9.639 C39.8910395,9.89966797 39.676375,10.2523311 39.676375,10.697 C39.676375,11.3410032 40.1747033,11.7779988 41.171375,12.008 L43.402375,12.537 C44.4603802,12.7823346 45.2423724,13.203997 45.748375,13.802 C46.2543775,14.400003 46.507375,15.0746629 46.507375,15.826 C46.507375,16.8380051 46.0933791,17.68133 45.265375,18.356 C44.4373708,19.03067 43.3717148,19.368 42.068375,19.368 Z M53.758125,19.368 C52.0714499,19.368 50.6837971,18.796839 49.595125,17.6545 C48.5064529,16.512161 47.962125,15.0823419 47.962125,13.365 C47.962125,11.6476581 48.5064529,10.217839 49.595125,9.0755 C50.6837971,7.93316096 52.0714499,7.362 53.758125,7.362 C55.0154646,7.362 56.0581208,7.6686636 56.886125,8.282 C57.7141291,8.8953364 58.3197897,9.66966199 58.703125,10.605 L56.771125,11.41 C56.1884554,9.99932628 55.1381326,9.294 53.620125,9.294 C52.684787,9.294 51.8606285,9.6773295 51.147625,10.444 C50.4346214,11.2106705 50.078125,12.1843274 50.078125,13.365 C50.078125,14.5456726 50.4346214,15.5193295 51.147625,16.286 C51.8606285,17.0526705 52.684787,17.436 53.620125,17.436 C55.1994662,17.436 56.288122,16.7306737 56.886125,15.32 L58.772125,16.125 C58.3887897,17.0450046 57.7716292,17.8154969 56.920625,18.4365 C56.0696207,19.0575031 55.0154646,19.368 53.758125,19.368 Z M62.756875,19 L60.640875,19 L60.640875,7.73 L62.664875,7.73 L62.664875,9.57 L62.756875,9.57 C62.9715427,8.9566636 63.4123716,8.45066866 64.079375,8.052 C64.7463783,7.65333134 65.3942052,7.454 66.022875,7.454 C66.6515448,7.454 67.1805395,7.54599908 67.609875,7.73 L66.804875,9.708 C66.5288736,9.60066613 66.1532107,9.547 65.677875,9.547 C64.9112045,9.547 64.2327113,9.84983031 63.642375,10.4555 C63.0520387,11.0611697 62.756875,11.8546618 62.756875,12.836 L62.756875,19 Z M71.433625,4.901 C71.1422902,5.19233479 70.7896271,5.338 70.375625,5.338 C69.9616229,5.338 69.6089598,5.19233479 69.317625,4.901 C69.0262902,4.60966521 68.880625,4.25700207 68.880625,3.843 C68.880625,3.42899793 69.0262902,3.07633479 69.317625,2.785 C69.6089598,2.49366521 69.9616229,2.348 70.375625,2.348 C70.7896271,2.348 71.1422902,2.49366521 71.433625,2.785 C71.7249598,3.07633479 71.870625,3.42899793 71.870625,3.843 C71.870625,4.25700207 71.7249598,4.60966521 71.433625,4.901 Z M71.433625,19 L69.317625,19 L69.317625,7.73 L71.433625,7.73 L71.433625,19 Z M79.098375,19.184 C77.9177024,19.184 77.0168781,18.8696698 76.395875,18.241 C75.7748719,17.6123302 75.464375,16.7230057 75.464375,15.573 L75.464375,9.662 L73.486375,9.662 L73.486375,7.73 L75.464375,7.73 L75.464375,4.28 L77.580375,4.28 L77.580375,7.73 L80.340375,7.73 L80.340375,9.662 L77.580375,9.662 L77.580375,15.412 C77.580375,16.6386728 78.0863699,17.252 79.098375,17.252 C79.4817103,17.252 79.803707,17.1906673 80.064375,17.068 L80.800375,18.885 C80.3403727,19.0843343 79.773045,19.184 79.098375,19.184 Z M83.382125,9.087 C84.4707971,7.93699425 85.8584499,7.362 87.545125,7.362 C89.2318001,7.362 90.6194529,7.93316096 91.708125,9.0755 C92.7967971,10.217839 93.341125,11.6476581 93.341125,13.365 C93.341125,15.0823419 92.7967971,16.512161 91.708125,17.6545 C90.6194529,18.796839 89.2318001,19.368 87.545125,19.368 C85.8584499,19.368 84.4707971,18.796839 83.382125,17.6545 C82.2934529,16.512161 81.749125,15.0823419 81.749125,13.365 C81.749125,11.6476581 82.2934529,10.2216723 83.382125,9.087 Z M84.946125,16.332 C85.6821287,17.0680037 86.5484534,17.436 87.545125,17.436 C88.5417967,17.436 89.404288,17.0641704 90.132625,16.3205 C90.860962,15.5768296 91.225125,14.5916728 91.225125,13.365 C91.225125,12.1383272 90.860962,11.1531704 90.132625,10.4095 C89.404288,9.66582962 88.5417967,9.294 87.545125,9.294 C86.5484534,9.294 85.685962,9.66582962 84.957625,10.4095 C84.229288,11.1531704 83.865125,12.1383272 83.865125,13.365 C83.865125,14.5916728 84.2254547,15.5806629 84.946125,16.332 Z M105.772625,19.368 C104.08595,19.368 102.698297,18.796839 101.609625,17.6545 C100.520953,16.512161 99.976625,15.0823419 99.976625,13.365 C99.976625,11.6476581 100.520953,10.217839 101.609625,9.0755 C102.698297,7.93316096 104.08595,7.362 105.772625,7.362 C107.029965,7.362 108.072621,7.6686636 108.900625,8.282 C109.728629,8.8953364 110.33429,9.66966199 110.717625,10.605 L108.785625,11.41 C108.202955,9.99932628 107.152633,9.294 105.634625,9.294 C104.699287,9.294 103.875129,9.6773295 103.162125,10.444 C102.449121,11.2106705 102.092625,12.1843274 102.092625,13.365 C102.092625,14.5456726 102.449121,15.5193295 103.162125,16.286 C103.875129,17.0526705 104.699287,17.436 105.634625,17.436 C107.213966,17.436 108.302622,16.7306737 108.900625,15.32 L110.786625,16.125 C110.40329,17.0450046 109.786129,17.8154969 108.935125,18.4365 C108.084121,19.0575031 107.029965,19.368 105.772625,19.368 Z M113.644375,9.087 C114.733047,7.93699425 116.1207,7.362 117.807375,7.362 C119.49405,7.362 120.881703,7.93316096 121.970375,9.0755 C123.059047,10.217839 123.603375,11.6476581 123.603375,13.365 C123.603375,15.0823419 123.059047,16.512161 121.970375,17.6545 C120.881703,18.796839 119.49405,19.368 117.807375,19.368 C116.1207,19.368 114.733047,18.796839 113.644375,17.6545 C112.555703,16.512161 112.011375,15.0823419 112.011375,13.365 C112.011375,11.6476581 112.555703,10.2216723 113.644375,9.087 Z M115.208375,16.332 C115.944379,17.0680037 116.810703,17.436 117.807375,17.436 C118.804047,17.436 119.666538,17.0641704 120.394875,16.3205 C121.123212,15.5768296 121.487375,14.5916728 121.487375,13.365 C121.487375,12.1383272 121.123212,11.1531704 120.394875,10.4095 C119.666538,9.66582962 118.804047,9.294 117.807375,9.294 C116.810703,9.294 115.948212,9.66582962 115.219875,10.4095 C114.491538,11.1531704 114.127375,12.1383272 114.127375,13.365 C114.127375,14.5916728 114.487705,15.5806629 115.208375,16.332 Z M125.449125,19 L125.449125,7.73 L127.473125,7.73 L127.473125,9.294 L127.565125,9.294 C127.887127,8.75733065 128.381622,8.30116854 129.048625,7.9255 C129.715628,7.54983146 130.378788,7.362 131.038125,7.362 C132.786134,7.362 133.974455,8.08265946 134.603125,9.524 C135.52313,8.08265946 136.834117,7.362 138.536125,7.362 C139.870132,7.362 140.874455,7.78749575 141.549125,8.6385 C142.223795,9.48950426 142.561125,10.6433261 142.561125,12.1 L142.561125,19 L140.445125,19 L140.445125,12.422 C140.445125,11.2873277 140.238127,10.4823357 139.824125,10.007 C139.410123,9.53166429 138.781463,9.294 137.938125,9.294 C137.110121,9.294 136.423961,9.64666314 135.879625,10.352 C135.335289,11.0573369 135.063125,11.8623288 135.063125,12.767 L135.063125,19 L132.947125,19 L132.947125,12.422 C132.947125,11.2873277 132.740127,10.4823357 132.326125,10.007 C131.912123,9.53166429 131.283463,9.294 130.440125,9.294 C129.612121,9.294 128.925961,9.64666314 128.381625,10.352 C127.837289,11.0573369 127.565125,11.8623288 127.565125,12.767 L127.565125,19 L125.449125,19 Z" id="subscrito-com" fill="#FFFFFF"></path>
        <g id="Group" transform="translate(150.000000, 0.000000)" fill="#FFFFFF" fill-rule="nonzero">
            <path d="M9.36714443,19 C4.27673649,19 0,14.7346939 0,9.5 C0,4.26530612 4.27673649,0 9.36714443,0 C12.185226,0 14.1896362,1.13265306 15.6979052,2.62244898 L13.92172,4.44897959 C12.8401323,3.40816327 11.3715546,2.59183673 9.36714443,2.59183673 C5.646086,2.59183673 2.73869901,5.67346939 2.73869901,9.5 C2.73869901,13.3265306 5.646086,16.4081633 9.36714443,16.4081633 C11.7783903,16.4081633 13.1477398,15.4081633 14.030871,14.5102041 C14.755237,13.7653061 15.2216097,12.7040816 15.4002205,11.244898 L9.36714443,11.244898 L9.36714443,8.64285714 L17.8610805,8.64285714 C17.9503859,9.10204082 18,9.66326531 18,10.2653061 C18,12.2142857 17.4840132,14.622449 15.8169791,16.3367347 C14.1896362,18.0714286 12.1256891,19 9.36714443,19 Z" id="Shape"></path>
            <path d="M32,13 C32,16.4557596 29.3096447,19 26,19 C22.6903553,19 20,16.4557596 20,13 C20,9.52420701 22.6903553,7 26,7 C29.3096447,7 32,9.52420701 32,13 Z M29.3705584,13 C29.3705584,10.836394 27.8071066,9.3639399 26,9.3639399 C24.1928934,9.3639399 22.6294416,10.8464107 22.6294416,13 C22.6294416,15.1335559 24.1928934,16.6360601 26,16.6360601 C27.8071066,16.6360601 29.3705584,15.1435726 29.3705584,13 Z" id="Shape"></path>
            <path d="M45,13 C45,16.4557596 42.3096447,19 39,19 C35.7005076,19 33,16.4557596 33,13 C33,9.52420701 35.6903553,7 39,7 C42.3096447,7 45,9.52420701 45,13 Z M42.3807107,13 C42.3807107,10.836394 40.8172589,9.3639399 39.0101523,9.3639399 C37.2030457,9.3639399 35.6395939,10.8464107 35.6395939,13 C35.6395939,15.1335559 37.2030457,16.6360601 39.0101523,16.6360601 C40.8172589,16.6460768 42.3807107,15.1435726 42.3807107,13 Z" id="Shape"></path>
            <path d="M57,7.3621186 L57,17.8929188 C57,22.228555 54.5013055,24 51.5430809,24 C48.7571802,24 47.0913838,22.0915371 46.45953,20.5354059 L48.6518712,19.6056419 C49.0443864,20.5647668 50.0017406,21.6902706 51.5430809,21.6902706 C53.4386423,21.6902706 54.6066144,20.4864709 54.6066144,18.2452504 L54.6066144,17.4035694 L54.5204526,17.4035694 C53.9556136,18.1180196 52.8642298,18.7345999 51.4952132,18.7345999 C48.6231506,18.7345999 46,16.1801957 46,12.8917674 C46,9.58376511 48.6327241,7 51.4952132,7 C52.8642298,7 53.9556136,7.6263673 54.5204526,8.31145653 L54.6066144,8.31145653 L54.6066144,7.3621186 L57,7.3621186 Z M54.7789382,12.9015544 C54.7789382,10.8364997 53.4290688,9.31951641 51.7154047,9.31951641 C49.97302,9.31951641 48.5178416,10.8267127 48.5178416,12.9015544 C48.5178416,14.9470351 49.97302,16.4346575 51.7154047,16.4346575 C53.4290688,16.4346575 54.7789382,14.9470351 54.7789382,12.9015544 Z" id="Shape"></path>
            <polygon id="Shape" points="63 1 63 19 60 19 60 1"></polygon>
            <path d="M72.8441203,14.9732888 L74.8896992,16.3355593 C74.2278943,17.3171953 72.633546,19 69.8760255,19 C66.4567001,19 64,16.3656093 64,13 C64,9.43405676 66.4867821,7 69.5852325,7 C72.7037375,7 74.2278943,9.47412354 74.7292616,10.8163606 L75,11.4974958 L66.9680948,14.8230384 C67.579763,16.0250417 68.5423883,16.6460768 69.8860529,16.6460768 C71.2297174,16.6460768 72.1622607,15.9749583 72.8441203,14.9732888 Z M66.5369189,12.8096828 L71.911577,10.5859766 C71.6107566,9.83472454 70.72835,9.31385643 69.6754786,9.31385643 C68.331814,9.31385643 66.4667274,10.4958264 66.5369189,12.8096828 Z" id="Shape"></path>
        </g>
    </g>
</svg>