<svg width="327" height="24" viewBox="0 0 327 24" xmlns="http://www.w3.org/2000/svg"><title>SwG-BR-Black</title><desc>Created with Sketch.</desc><g fill="none"><path d="M3.874 18h-2.116v-16.468h9.614v2.024h-7.498v5.405h6.762v1.978h-6.762v7.061zm12.771.368c-1.196 0-2.196-.345-3.002-1.035-.805-.69-1.207-1.602-1.207-2.737 0-1.227.475-2.189 1.426-2.886.951-.698 2.124-1.046 3.519-1.046 1.242 0 2.262.23 3.059.69v-.322c0-.828-.284-1.491-.851-1.99-.567-.498-1.265-.747-2.093-.747-.613 0-1.169.146-1.667.437-.498.291-.839.69-1.024 1.196l-1.932-.828c.261-.675.774-1.299 1.541-1.875.767-.575 1.779-.862 3.036-.862 1.441 0 2.637.422 3.588 1.265.951.843 1.426 2.032 1.426 3.565v6.808h-2.024v-1.564h-.092c-.843 1.288-2.078 1.932-3.703 1.932zm.345-1.932c.874 0 1.667-.326 2.381-.977.713-.652 1.069-1.422 1.069-2.312-.598-.491-1.495-.736-2.691-.736-1.027 0-1.802.222-2.323.667-.521.445-.782.966-.782 1.564 0 .552.238.989.713 1.311.475.322 1.02.483 1.633.483zm13.116 7.015c-.491 0-.931-.146-1.323-.437-.391-.291-.671-.659-.84-1.104l1.196-.529c.169.521.491.782.966.782.276 0 .502-.092.678-.276.176-.184.264-.399.264-.644 0-.261-.088-.487-.264-.678-.176-.192-.402-.287-.678-.287-.307 0-.56.123-.759.368l-1.081-.506.69-1.863c-1.411-.245-2.549-.912-3.415-2.001-.866-1.089-1.3-2.392-1.3-3.91 0-1.717.544-3.147 1.633-4.29 1.089-1.142 2.476-1.713 4.163-1.713 1.257 0 2.3.307 3.128.92.828.613 1.434 1.388 1.817 2.323l-1.932.805c-.583-1.411-1.633-2.116-3.151-2.116-.935 0-1.759.383-2.473 1.15-.713.767-1.07 1.74-1.07 2.921 0 1.181.356 2.154 1.07 2.921.713.767 1.537 1.15 2.473 1.15 1.579 0 2.668-.705 3.266-2.116l1.886.805c-.383.905-.985 1.664-1.805 2.277-.82.613-1.836.935-3.048.966l-.322.736c.153-.031.307-.046.46-.046.583 0 1.077.207 1.483.621.406.414.609.935.609 1.564 0 .613-.222 1.135-.667 1.564-.445.429-.997.644-1.656.644zm10.379-5.083c-1.196 0-2.196-.345-3.002-1.035-.805-.69-1.208-1.602-1.208-2.737 0-1.227.475-2.189 1.426-2.886.951-.698 2.124-1.046 3.519-1.046 1.242 0 2.262.23 3.059.69v-.322c0-.828-.284-1.491-.851-1.99-.567-.498-1.265-.747-2.093-.747-.613 0-1.169.146-1.667.437-.498.291-.839.69-1.024 1.196l-1.932-.828c.261-.675.774-1.299 1.541-1.875.767-.575 1.779-.862 3.036-.862 1.441 0 2.637.422 3.588 1.265.951.843 1.426 2.032 1.426 3.565v6.808h-2.024v-1.564h-.092c-.843 1.288-2.078 1.932-3.703 1.932zm.345-1.932c.874 0 1.667-.326 2.38-.977.713-.652 1.07-1.422 1.07-2.312-.598-.491-1.495-.736-2.691-.736-1.027 0-1.802.222-2.323.667-.521.445-.782.966-.782 1.564 0 .552.238.989.713 1.311.475.322 1.02.483 1.633.483zm17.4 1.932c-1.257 0-2.296-.307-3.117-.92-.82-.613-1.422-1.38-1.806-2.3l1.886-.782c.598 1.411 1.618 2.116 3.059 2.116.659 0 1.2-.146 1.621-.437.422-.291.633-.675.633-1.15 0-.736-.514-1.234-1.541-1.495l-2.277-.552c-.721-.184-1.403-.533-2.047-1.046-.644-.514-.966-1.207-.966-2.082 0-.997.441-1.805 1.322-2.427.882-.621 1.928-.931 3.139-.931.997 0 1.886.226 2.668.678.782.452 1.342 1.1 1.679 1.944l-1.84.759c-.414-.997-1.273-1.495-2.576-1.495-.629 0-1.158.13-1.587.391-.429.261-.644.613-.644 1.058 0 .644.498 1.081 1.495 1.311l2.231.529c1.058.245 1.84.667 2.346 1.265.506.598.759 1.273.759 2.024 0 1.012-.414 1.855-1.242 2.53-.828.675-1.894 1.012-3.197 1.012zm16.313-.368h-2.024v-1.564h-.092c-.322.537-.813.993-1.472 1.369s-1.357.563-2.093.563c-1.411 0-2.48-.429-3.208-1.288-.728-.859-1.093-2.009-1.093-3.45v-6.9h2.116v6.555c0 2.101.928 3.151 2.783 3.151.874 0 1.587-.353 2.139-1.058.552-.705.828-1.518.828-2.438v-6.21h2.116v11.27zm6.17.368c-1.196 0-2.196-.345-3.001-1.035-.805-.69-1.208-1.602-1.208-2.737 0-1.227.475-2.189 1.426-2.886.951-.698 2.124-1.046 3.519-1.046 1.242 0 2.262.23 3.059.69v-.322c0-.828-.284-1.491-.851-1.99-.567-.498-1.265-.747-2.093-.747-.613 0-1.169.146-1.668.437-.498.291-.839.69-1.023 1.196l-1.932-.828c.261-.675.774-1.299 1.541-1.875.767-.575 1.779-.862 3.036-.862 1.441 0 2.637.422 3.588 1.265.951.843 1.426 2.032 1.426 3.565v6.808h-2.024v-1.564h-.092c-.843 1.288-2.078 1.932-3.703 1.932zm.345-1.932c.874 0 1.667-.326 2.38-.977.713-.652 1.07-1.422 1.07-2.312-.598-.491-1.495-.736-2.691-.736-1.027 0-1.802.222-2.323.667-.521.445-.782.966-.782 1.564 0 .552.238.989.713 1.311.475.322 1.02.483 1.633.483zm16.779 1.932c-1.196 0-2.196-.345-3.002-1.035-.805-.69-1.207-1.602-1.207-2.737 0-1.227.475-2.189 1.426-2.886.951-.698 2.124-1.046 3.519-1.046 1.242 0 2.262.23 3.059.69v-.322c0-.828-.284-1.491-.851-1.99-.567-.498-1.265-.747-2.093-.747-.613 0-1.169.146-1.668.437-.498.291-.839.69-1.023 1.196l-1.932-.828c.261-.675.774-1.299 1.541-1.875.767-.575 1.779-.862 3.036-.862 1.441 0 2.637.422 3.588 1.265.951.843 1.426 2.032 1.426 3.565v6.808h-2.024v-1.564h-.092c-.843 1.288-2.078 1.932-3.703 1.932zm.345-1.932c.874 0 1.667-.326 2.38-.977.713-.652 1.07-1.422 1.07-2.312-.598-.491-1.495-.736-2.691-.736-1.027 0-1.802.222-2.323.667-.521.445-.782.966-.782 1.564 0 .552.238.989.713 1.311.475.322 1.02.483 1.633.483zm12.081 1.932c-1.257 0-2.296-.307-3.117-.92-.82-.613-1.422-1.38-1.805-2.3l1.886-.782c.598 1.411 1.618 2.116 3.059 2.116.659 0 1.2-.146 1.622-.437.422-.291.632-.675.632-1.15 0-.736-.514-1.234-1.541-1.495l-2.277-.552c-.721-.184-1.403-.533-2.047-1.046-.644-.514-.966-1.207-.966-2.082 0-.997.441-1.805 1.323-2.427.882-.621 1.928-.931 3.139-.931.997 0 1.886.226 2.668.678.782.452 1.342 1.1 1.679 1.944l-1.84.759c-.414-.997-1.273-1.495-2.576-1.495-.629 0-1.158.13-1.587.391-.429.261-.644.613-.644 1.058 0 .644.498 1.081 1.495 1.311l2.231.529c1.058.245 1.84.667 2.346 1.265.506.598.759 1.273.759 2.024 0 1.012-.414 1.855-1.242 2.53-.828.675-1.894 1.012-3.197 1.012zm10.609 0c-1.257 0-2.296-.307-3.117-.92-.82-.613-1.422-1.38-1.805-2.3l1.886-.782c.598 1.411 1.618 2.116 3.059 2.116.659 0 1.2-.146 1.622-.437.422-.291.632-.675.632-1.15 0-.736-.514-1.234-1.541-1.495l-2.277-.552c-.721-.184-1.403-.533-2.047-1.046-.644-.514-.966-1.207-.966-2.082 0-.997.441-1.805 1.323-2.427.882-.621 1.928-.931 3.139-.931.997 0 1.886.226 2.668.678.782.452 1.342 1.1 1.679 1.944l-1.84.759c-.414-.997-1.273-1.495-2.576-1.495-.629 0-1.158.13-1.587.391-.429.261-.644.613-.644 1.058 0 .644.498 1.081 1.495 1.311l2.231.529c1.058.245 1.84.667 2.346 1.265.506.598.759 1.273.759 2.024 0 1.012-.414 1.855-1.242 2.53-.828.675-1.894 1.012-3.197 1.012zm8.608-14.467c-.291.291-.644.437-1.058.437-.414 0-.767-.146-1.058-.437-.291-.291-.437-.644-.437-1.058 0-.414.146-.767.437-1.058.291-.291.644-.437 1.058-.437.414 0 .767.146 1.058.437.291.291.437.644.437 1.058 0 .414-.146.767-.437 1.058zm0 14.099h-2.116v-11.27h2.116v11.27zm4.928-11.27v1.564h.092c.307-.537.79-.993 1.449-1.369s1.365-.564 2.116-.564c1.395 0 2.461.429 3.197 1.288.736.859 1.104 2.009 1.104 3.45v6.9h-2.116v-6.578c0-2.085-.928-3.128-2.783-3.128-.874 0-1.587.349-2.139 1.046-.552.698-.828 1.506-.828 2.426v6.233h-2.116v-11.27h2.024zm14.036 11.638c-1.196 0-2.196-.345-3.001-1.035-.805-.69-1.208-1.602-1.208-2.737 0-1.227.475-2.189 1.426-2.886.951-.698 2.124-1.046 3.519-1.046 1.242 0 2.262.23 3.059.69v-.322c0-.828-.284-1.491-.851-1.99-.567-.498-1.265-.747-2.093-.747-.613 0-1.169.146-1.668.437-.498.291-.839.69-1.023 1.196l-1.932-.828c.261-.675.774-1.299 1.541-1.875.767-.575 1.779-.862 3.036-.862 1.441 0 2.637.422 3.588 1.265.951.843 1.426 2.032 1.426 3.565v6.808h-2.024v-1.564h-.092c-.843 1.288-2.078 1.932-3.703 1.932zm.345-1.932c.874 0 1.667-.326 2.38-.977.713-.652 1.07-1.422 1.07-2.312-.598-.491-1.495-.736-2.691-.736-1.027 0-1.802.222-2.323.667-.521.445-.782.966-.782 1.564 0 .552.238.989.713 1.311.475.322 1.02.483 1.633.483zm12.656 1.748c-1.181 0-2.081-.314-2.702-.943s-.931-1.518-.931-2.668v-5.911h-1.978v-1.932h1.978v-3.45h2.116v3.45h2.76v1.932h-2.76v5.75c0 1.227.506 1.84 1.518 1.84.383 0 .705-.061.966-.184l.736 1.817c-.46.199-1.027.299-1.702.299zm13.3-.184h-2.024v-1.564h-.092c-.322.537-.813.993-1.472 1.369s-1.357.563-2.093.563c-1.411 0-2.48-.429-3.208-1.288-.728-.859-1.093-2.009-1.093-3.45v-6.9h2.116v6.555c0 2.101.928 3.151 2.783 3.151.874 0 1.587-.353 2.139-1.058.552-.705.828-1.518.828-2.438v-6.21h2.116v11.27zm4.836 0h-2.116v-11.27h2.024v1.84h.092c.215-.613.655-1.119 1.322-1.518s1.315-.598 1.944-.598 1.158.092 1.587.276l-.805 1.978c-.276-.107-.652-.161-1.127-.161-.767 0-1.445.303-2.035.909-.59.606-.886 1.399-.886 2.38v6.164zm9.482.368c-1.196 0-2.196-.345-3.001-1.035-.805-.69-1.208-1.602-1.208-2.737 0-1.227.475-2.189 1.426-2.886.951-.698 2.124-1.046 3.519-1.046 1.242 0 2.262.23 3.059.69v-.322c0-.828-.284-1.491-.851-1.99-.567-.498-1.265-.747-2.093-.747-.613 0-1.169.146-1.667.437-.498.291-.839.69-1.024 1.196l-1.932-.828c.261-.675.774-1.299 1.541-1.875.767-.575 1.779-.862 3.036-.862 1.441 0 2.637.422 3.588 1.265.951.843 1.426 2.032 1.426 3.565v6.808h-2.024v-1.564h-.092c-.843 1.288-2.078 1.932-3.703 1.932zm.345-1.932c.874 0 1.667-.326 2.381-.977.713-.652 1.069-1.422 1.069-2.312-.598-.491-1.495-.736-2.691-.736-1.027 0-1.802.222-2.323.667-.521.445-.782.966-.782 1.564 0 .552.238.989.713 1.311.475.322 1.02.483 1.633.483zm18.365 1.932c-1.687 0-3.074-.571-4.163-1.713-1.089-1.142-1.633-2.572-1.633-4.289 0-1.717.544-3.147 1.633-4.29 1.089-1.142 2.476-1.713 4.163-1.713 1.257 0 2.3.307 3.128.92.828.613 1.434 1.388 1.817 2.323l-1.932.805c-.583-1.411-1.633-2.116-3.151-2.116-.935 0-1.759.383-2.472 1.15-.713.767-1.07 1.74-1.07 2.921 0 1.181.356 2.154 1.07 2.921.713.767 1.537 1.15 2.472 1.15 1.579 0 2.668-.705 3.266-2.116l1.886.805c-.383.92-1 1.69-1.852 2.311-.851.621-1.905.931-3.162.931zm7.872-10.281c1.089-1.15 2.476-1.725 4.163-1.725 1.687 0 3.074.571 4.163 1.713 1.089 1.142 1.633 2.572 1.633 4.29 0 1.717-.544 3.147-1.633 4.289s-2.476 1.713-4.163 1.713c-1.687 0-3.074-.571-4.163-1.713-1.089-1.142-1.633-2.572-1.633-4.289 0-1.717.544-3.143 1.633-4.278zm1.564 7.245c.736.736 1.602 1.104 2.599 1.104.997 0 1.859-.372 2.588-1.116.728-.744 1.093-1.729 1.093-2.955 0-1.227-.364-2.212-1.093-2.956-.728-.744-1.591-1.115-2.588-1.115-.997 0-1.859.372-2.588 1.115-.728.744-1.093 1.729-1.093 2.956 0 1.227.36 2.216 1.081 2.967zm10.241 2.668v-11.27h2.024v1.564h.092c.322-.537.816-.993 1.484-1.369.667-.376 1.33-.564 1.989-.564 1.748 0 2.936.721 3.565 2.162.92-1.441 2.231-2.162 3.933-2.162 1.334 0 2.338.425 3.013 1.276.675.851 1.012 2.005 1.012 3.462v6.9h-2.116v-6.578c0-1.135-.207-1.94-.621-2.415-.414-.475-1.043-.713-1.886-.713-.828 0-1.514.353-2.059 1.058-.544.705-.816 1.51-.816 2.415v6.233h-2.116v-6.578c0-1.135-.207-1.94-.621-2.415-.414-.475-1.043-.713-1.886-.713-.828 0-1.514.353-2.058 1.058-.544.705-.817 1.51-.817 2.415v6.233h-2.116z" fill="#fff"/><g fill-rule="nonzero"><path d="M261.367 19c-5.09 0-9.367-4.265-9.367-9.5s4.277-9.5 9.367-9.5c2.818 0 4.822 1.133 6.331 2.622l-1.776 1.827c-1.082-1.041-2.55-1.857-4.555-1.857-3.721 0-6.628 3.082-6.628 6.908 0 3.827 2.907 6.908 6.628 6.908 2.411 0 3.781-1 4.664-1.898.724-.745 1.191-1.806 1.369-3.265h-6.033v-2.602h8.494c.089.459.139 1.02.139 1.622 0 1.949-.516 4.357-2.183 6.071-1.627 1.735-3.691 2.663-6.45 2.663z" id="Shape" fill="#4285F4"/><path d="M284 13c0 3.456-2.69 6-6 6s-6-2.544-6-6c0-3.476 2.69-6 6-6s6 2.524 6 6zm-2.629 0c0-2.164-1.563-3.636-3.371-3.636-1.807 0-3.371 1.482-3.371 3.636 0 2.134 1.563 3.636 3.371 3.636 1.807 0 3.371-1.492 3.371-3.636z" id="Shape" fill="#E94235"/><path d="M297 13c0 3.456-2.69 6-6 6-3.299 0-6-2.544-6-6 0-3.476 2.69-6 6-6s6 2.524 6 6zm-2.619 0c0-2.164-1.563-3.636-3.371-3.636-1.807 0-3.371 1.482-3.371 3.636 0 2.134 1.563 3.636 3.371 3.636 1.807.01 3.371-1.492 3.371-3.636z" id="Shape" fill="#FABB05"/><path d="M309 7.362v10.531c0 4.336-2.499 6.107-5.457 6.107-2.786 0-4.452-1.908-5.084-3.465l2.192-.93c.393.959 1.35 2.085 2.891 2.085 1.896 0 3.064-1.204 3.064-3.445v-.842h-.086c-.565.714-1.656 1.331-3.025 1.331-2.872 0-5.495-2.554-5.495-5.843 0-3.308 2.633-5.892 5.495-5.892 1.369 0 2.46.626 3.025 1.311h.086v-.949h2.393zm-2.221 5.539c0-2.065-1.35-3.582-3.064-3.582-1.742 0-3.198 1.507-3.198 3.582 0 2.045 1.455 3.533 3.198 3.533 1.714 0 3.064-1.488 3.064-3.533z" id="Shape" fill="#4285F4"/><path id="Shape" fill="#34A853" d="M315 1v18h-3v-18z"/><path d="M324.844 14.973l2.046 1.362c-.662.982-2.256 2.664-5.014 2.664-3.419 0-5.876-2.634-5.876-6 0-3.566 2.487-6 5.585-6 3.119 0 4.643 2.474 5.144 3.816l.271.681-8.032 3.326c.612 1.202 1.574 1.823 2.918 1.823s2.276-.671 2.958-1.673zm-6.307-2.164l5.375-2.224c-.301-.751-1.183-1.272-2.236-1.272-1.344 0-3.209 1.182-3.139 3.496z" fill="#E94235"/></g></g></svg>
