<?xml version="1.0" encoding="UTF-8"?>
<svg width="383px" height="24px" viewBox="0 0 383 24" version="1.1" xmlns="http://www.w3.org/2000/svg" xmlns:xlink="http://www.w3.org/1999/xlink">
    <!-- Generator: Sketch 51.3 (57544) - http://www.bohemiancoding.com/sketch -->
    <title>SwG-RU-WOB</title>
    <desc>Created with Sketch.</desc>
    <defs></defs>
    <g id="SwG-RU-WOB" stroke="none" stroke-width="1" fill="none" fill-rule="evenodd">
        <path d="M2.07499986,19 L2.07499986,2.532 L13.9889999,2.532 L13.9889999,19 L11.8729999,19 L11.8729999,4.556 L4.19099986,4.556 L4.19099986,19 L2.07499986,19 Z M18.0657499,9.087 C19.154422,7.93699425 20.5420748,7.362 22.2287499,7.362 C23.915425,7.362 25.3030778,7.93316096 26.3917499,9.0755 C27.480422,10.217839 28.0247499,11.6476581 28.0247499,13.365 C28.0247499,15.0823419 27.480422,16.512161 26.3917499,17.6545 C25.3030778,18.796839 23.915425,19.368 22.2287499,19.368 C20.5420748,19.368 19.154422,18.796839 18.0657499,17.6545 C16.9770778,16.512161 16.4327499,15.0823419 16.4327499,13.365 C16.4327499,11.6476581 16.9770778,10.2216723 18.0657499,9.087 Z M19.6297499,16.332 C20.3657535,17.0680037 21.2320782,17.436 22.2287499,17.436 C23.2254215,17.436 24.0879129,17.0641704 24.8162499,16.3205 C25.5445868,15.5768296 25.9087499,14.5916728 25.9087499,13.365 C25.9087499,12.1383272 25.5445868,11.1531704 24.8162499,10.4095 C24.0879129,9.66582961 23.2254215,9.294 22.2287499,9.294 C21.2320782,9.294 20.3695868,9.66582961 19.6412499,10.4095 C18.9129129,11.1531704 18.5487499,12.1383272 18.5487499,13.365 C18.5487499,14.5916728 18.9090796,15.5806629 19.6297499,16.332 Z M31.0204999,22.496 L28.9964999,22.496 L28.9964999,17.068 L30.3534999,17.068 C30.6908349,16.7766652 30.9706654,16.2131708 31.1929999,15.3775 C31.4153343,14.5418292 31.5264999,13.5643389 31.5264999,12.445 L31.5264999,7.73 L41.5084999,7.73 L41.5084999,17.068 L43.3484999,17.068 L43.3484999,22.496 L41.3244999,22.496 L41.3244999,19 L31.0204999,19 L31.0204999,22.496 Z M33.6424999,9.662 L33.6424999,12.606 C33.6424999,14.400009 33.3358363,15.8873274 32.7224999,17.068 L39.3924999,17.068 L39.3924999,9.662 L33.6424999,9.662 Z M45.4242499,19 L45.4242499,7.73 L55.4062499,7.73 L55.4062499,19 L53.2902499,19 L53.2902499,9.662 L47.5402499,9.662 L47.5402499,19 L45.4242499,19 Z M68.1079999,7.73 L68.1079999,19 L65.9919999,19 L65.9919999,13.158 L66.0839999,10.95 L65.9919999,10.95 L60.2419999,19 L58.1259999,19 L58.1259999,7.73 L60.2419999,7.73 L60.2419999,13.572 L60.1499999,15.78 L60.2419999,15.78 L65.9919999,7.73 L68.1079999,7.73 Z M75.8647499,19.368 C74.1780748,19.368 72.790422,18.796839 71.7017499,17.6545 C70.6130778,16.512161 70.0687499,15.0823419 70.0687499,13.365 C70.0687499,11.6476581 70.6130778,10.217839 71.7017499,9.0755 C72.790422,7.93316096 74.1780748,7.362 75.8647499,7.362 C77.1220895,7.362 78.1647458,7.6686636 78.9927499,8.282 C79.8207541,8.8953364 80.4264147,9.66966199 80.8097499,10.605 L78.8777499,11.41 C78.2950803,9.99932628 77.2447575,9.294 75.7267499,9.294 C74.7914119,9.294 73.9672535,9.6773295 73.2542499,10.444 C72.5412464,11.2106705 72.1847499,12.1843274 72.1847499,13.365 C72.1847499,14.5456726 72.5412464,15.5193295 73.2542499,16.286 C73.9672535,17.0526705 74.7914119,17.436 75.7267499,17.436 C77.3060911,17.436 78.3947469,16.7306737 78.9927499,15.32 L80.8787499,16.125 C80.4954147,17.0450046 79.8782542,17.8154969 79.0272499,18.4365 C78.1762457,19.0575031 77.1220895,19.368 75.8647499,19.368 Z M89.9694999,19 L85.0704999,13.342 L84.9784999,13.342 L84.9784999,19 L82.8624999,19 L82.8624999,7.73 L84.9784999,7.73 L84.9784999,12.79 L85.0704999,12.79 L89.6704999,7.73 L92.3384999,7.73 L92.3384999,7.822 L87.3704999,13.066 L92.5914999,18.908 L92.5914999,19 L89.9694999,19 Z M97.2662499,19.368 C96.070244,19.368 95.069754,19.0230035 94.2647499,18.333 C93.4597459,17.6429965 93.0572499,16.7306723 93.0572499,15.596 C93.0572499,14.3693272 93.5325785,13.4071702 94.4832499,12.7095 C95.4339214,12.0118298 96.6069096,11.663 98.0022499,11.663 C99.2442562,11.663 100.263913,11.8929977 101.06125,12.353 L101.06125,12.031 C101.06125,11.2029959 100.777586,10.5398358 100.21025,10.0415 C99.6429138,9.54316418 98.9452541,9.294 98.1172499,9.294 C97.5039135,9.294 96.9480858,9.43966521 96.4497499,9.731 C95.9514141,10.0223348 95.6102509,10.4209975 95.4262499,10.927 L93.4942499,10.099 C93.7549179,9.42432996 94.2685794,8.79950287 95.0352499,8.2245 C95.8019204,7.64949712 96.8139103,7.362 98.0712499,7.362 C99.5125905,7.362 100.708579,7.78366245 101.65925,8.627 C102.609921,9.47033755 103.08525,10.658659 103.08525,12.192 L103.08525,19 L101.06125,19 L101.06125,17.436 L100.96925,17.436 C100.125912,18.7240064 98.8915914,19.368 97.2662499,19.368 Z M97.6112499,17.436 C98.4852543,17.436 99.2787464,17.1101699 99.9917499,16.4585 C100.704754,15.8068301 101.06125,15.0363378 101.06125,14.147 C100.463247,13.6563309 99.5662559,13.411 98.3702499,13.411 C97.3429115,13.411 96.5685859,13.6333311 96.0472499,14.078 C95.525914,14.5226689 95.2652499,15.043997 95.2652499,15.642 C95.2652499,16.1940028 95.5029142,16.6309984 95.9782499,16.953 C96.4535857,17.2750016 96.9979135,17.436 97.6112499,17.436 Z M111.81375,9.087 C112.902422,7.93699425 114.290075,7.362 115.97675,7.362 C117.663425,7.362 119.051078,7.93316096 120.13975,9.0755 C121.228422,10.217839 121.77275,11.6476581 121.77275,13.365 C121.77275,15.0823419 121.228422,16.512161 120.13975,17.6545 C119.051078,18.796839 117.663425,19.368 115.97675,19.368 C114.290075,19.368 112.902422,18.796839 111.81375,17.6545 C110.725078,16.512161 110.18075,15.0823419 110.18075,13.365 C110.18075,11.6476581 110.725078,10.2216723 111.81375,9.087 Z M113.37775,16.332 C114.113754,17.0680037 114.980078,17.436 115.97675,17.436 C116.973422,17.436 117.835913,17.0641704 118.56425,16.3205 C119.292587,15.5768296 119.65675,14.5916728 119.65675,13.365 C119.65675,12.1383272 119.292587,11.1531704 118.56425,10.4095 C117.835913,9.66582961 116.973422,9.294 115.97675,9.294 C114.980078,9.294 114.117587,9.66582961 113.38925,10.4095 C112.660913,11.1531704 112.29675,12.1383272 112.29675,13.365 C112.29675,14.5916728 112.65708,15.5806629 113.37775,16.332 Z M128.1035,7.362 C129.483507,7.362 130.579829,7.94466084 131.3925,9.11 L131.4845,9.11 L131.3925,7.73 L131.3925,2.532 L133.5085,2.532 L133.5085,7.73 L133.4165,9.11 L133.5085,9.11 C134.321171,7.94466084 135.417493,7.362 136.7975,7.362 C138.131507,7.362 139.281495,7.92549436 140.2475,9.0525 C141.213505,10.1795056 141.6965,11.6169913 141.6965,13.365 C141.6965,15.1130087 141.213505,16.5504944 140.2475,17.6775 C139.281495,18.8045056 138.131507,19.368 136.7975,19.368 C135.417493,19.368 134.321171,18.7853392 133.5085,17.62 L133.4165,17.62 L133.5085,19 L133.5085,23.968 L131.3925,23.968 L131.3925,19 L131.4845,17.62 L131.3925,17.62 C130.579829,18.7853392 129.483507,19.368 128.1035,19.368 C126.769493,19.368 125.619505,18.8045056 124.6535,17.6775 C123.687495,16.5504944 123.2045,15.1130087 123.2045,13.365 C123.2045,11.6169913 123.687495,10.1795056 124.6535,9.0525 C125.619505,7.92549436 126.769493,7.362 128.1035,7.362 Z M128.3565,17.436 C129.291838,17.436 130.039331,17.0948367 130.599,16.4125 C131.158669,15.7301633 131.453833,14.7833394 131.4845,13.572 L131.4845,13.181 C131.453833,11.9543272 131.158669,10.9998367 130.599,10.3175 C130.039331,9.63516325 129.291838,9.294 128.3565,9.294 C127.497829,9.294 126.77717,9.65432973 126.1945,10.375 C125.61183,11.0956703 125.3205,12.092327 125.3205,13.365 C125.3205,14.637673 125.61183,15.6343297 126.1945,16.355 C126.77717,17.0756703 127.497829,17.436 128.3565,17.436 Z M136.5445,17.436 C137.403171,17.436 138.12383,17.0756703 138.7065,16.355 C139.28917,15.6343297 139.5805,14.637673 139.5805,13.365 C139.5805,12.092327 139.28917,11.0956703 138.7065,10.375 C138.12383,9.65432973 137.403171,9.294 136.5445,9.294 C135.609162,9.294 134.857836,9.63899655 134.2905,10.329 C133.723164,11.0190034 133.431833,11.9696606 133.4165,13.181 L133.4165,13.365 C133.4165,14.637673 133.700164,15.6343297 134.2675,16.355 C134.834836,17.0756703 135.593829,17.436 136.5445,17.436 Z M144.76125,9.087 C145.849922,7.93699425 147.237575,7.362 148.92425,7.362 C150.610925,7.362 151.998578,7.93316096 153.08725,9.0755 C154.175922,10.217839 154.72025,11.6476581 154.72025,13.365 C154.72025,15.0823419 154.175922,16.512161 153.08725,17.6545 C151.998578,18.796839 150.610925,19.368 148.92425,19.368 C147.237575,19.368 145.849922,18.796839 144.76125,17.6545 C143.672578,16.512161 143.12825,15.0823419 143.12825,13.365 C143.12825,11.6476581 143.672578,10.2216723 144.76125,9.087 Z M146.32525,16.332 C147.061254,17.0680037 147.927578,17.436 148.92425,17.436 C149.920922,17.436 150.783413,17.0641704 151.51175,16.3205 C152.240087,15.5768296 152.60425,14.5916728 152.60425,13.365 C152.60425,12.1383272 152.240087,11.1531704 151.51175,10.4095 C150.783413,9.66582961 149.920922,9.294 148.92425,9.294 C147.927578,9.294 147.065087,9.66582961 146.33675,10.4095 C145.608413,11.1531704 145.24425,12.1383272 145.24425,13.365 C145.24425,14.5916728 145.60458,15.5806629 146.32525,16.332 Z M162.546,19.368 C161.687329,19.368 160.916837,19.1840018 160.2345,18.816 C159.552163,18.4479982 159.042335,17.9880028 158.705,17.436 L158.613,17.436 L158.705,19 L158.705,23.968 L156.589,23.968 L156.589,7.73 L158.613,7.73 L158.613,9.294 L158.705,9.294 C159.042335,8.74199724 159.552163,8.28200184 160.2345,7.914 C160.916837,7.54599816 161.687329,7.362 162.546,7.362 C164.002674,7.362 165.259995,7.93699425 166.318,9.087 C167.376005,10.2370057 167.905,11.6629915 167.905,13.365 C167.905,15.0670085 167.376005,16.4929943 166.318,17.643 C165.259995,18.7930058 164.002674,19.368 162.546,19.368 Z M162.201,17.436 C163.182338,17.436 164.025663,17.0641704 164.731,16.3205 C165.436337,15.5768296 165.789,14.5916728 165.789,13.365 C165.789,12.1383272 165.436337,11.1531704 164.731,10.4095 C164.025663,9.66582961 163.182338,9.294 162.201,9.294 C161.204328,9.294 160.35717,9.66199632 159.6595,10.398 C158.96183,11.1340037 158.613,12.1229938 158.613,13.365 C158.613,14.6070062 158.96183,15.5959963 159.6595,16.332 C160.35717,17.0680037 161.204328,17.436 162.201,17.436 Z M182.49275,19 L180.37675,19 L180.37675,13.135 L180.46875,10.927 L180.37675,10.927 L176.85775,19 L175.38575,19 L171.88975,10.927 L171.79775,10.927 L171.88975,13.135 L171.88975,19 L169.77375,19 L169.77375,7.73 L172.64875,7.73 L176.07575,15.734 L176.14475,15.734 L179.59475,7.73 L182.49275,7.73 L182.49275,19 Z M185.4885,19.184 C184.875164,19.184 184.338502,19.0843343 183.8785,18.885 L184.6145,17.068 C184.875168,17.1906673 185.166498,17.252 185.4885,17.252 C186.439171,17.252 186.9145,16.6386728 186.9145,15.412 L186.9145,7.73 L196.8965,7.73 L196.8965,19 L194.7805,19 L194.7805,9.662 L189.0305,9.662 L189.0305,15.573 C189.0305,16.7076723 188.708503,17.5931635 188.0645,18.2295 C187.420497,18.8658365 186.561839,19.184 185.4885,19.184 Z M204.60725,19.368 C202.905242,19.368 201.521422,18.8006723 200.45575,17.666 C199.390078,16.5313277 198.85725,15.0976753 198.85725,13.365 C198.85725,11.7243251 199.374745,10.3136726 200.40975,9.133 C201.444755,7.95232743 202.767242,7.362 204.37725,7.362 C206.048592,7.362 207.386412,7.90632789 208.39075,8.995 C209.395088,10.0836721 209.89725,11.5403242 209.89725,13.365 L209.87425,13.756 L200.97325,13.756 C201.034584,14.8906723 201.41408,15.7876634 202.11175,16.447 C202.80942,17.1063366 203.625912,17.436 204.56125,17.436 C206.079258,17.436 207.106581,16.7920064 207.64325,15.504 L209.52925,16.286 C209.161248,17.1600044 208.555588,17.8921637 207.71225,18.4825 C206.868912,19.0728363 205.833923,19.368 204.60725,19.368 Z M207.64325,12.008 C207.59725,11.3639968 207.302086,10.7506696 206.75775,10.168 C206.213414,9.58533042 205.404589,9.294 204.33125,9.294 C203.549246,9.294 202.870753,9.53933088 202.29575,10.03 C201.720747,10.5206691 201.325918,11.1799959 201.11125,12.008 L207.64325,12.008 Z M221.955,19 L219.839,19 L219.839,14.354 L214.089,14.354 L214.089,19 L211.973,19 L211.973,7.73 L214.089,7.73 L214.089,12.376 L219.839,12.376 L219.839,7.73 L221.955,7.73 L221.955,19 Z M228.12475,19.368 C226.928744,19.368 225.928254,19.0230035 225.12325,18.333 C224.318246,17.6429965 223.91575,16.7306723 223.91575,15.596 C223.91575,14.3693272 224.391079,13.4071702 225.34175,12.7095 C226.292421,12.0118298 227.46541,11.663 228.86075,11.663 C230.102756,11.663 231.122413,11.8929977 231.91975,12.353 L231.91975,12.031 C231.91975,11.2029959 231.636086,10.5398358 231.06875,10.0415 C230.501414,9.54316418 229.803754,9.294 228.97575,9.294 C228.362414,9.294 227.806586,9.43966521 227.30825,9.731 C226.809914,10.0223348 226.468751,10.4209975 226.28475,10.927 L224.35275,10.099 C224.613418,9.42432996 225.12708,8.79950287 225.89375,8.2245 C226.660421,7.64949712 227.67241,7.362 228.92975,7.362 C230.371091,7.362 231.567079,7.78366245 232.51775,8.627 C233.468421,9.47033755 233.94375,10.658659 233.94375,12.192 L233.94375,19 L231.91975,19 L231.91975,17.436 L231.82775,17.436 C230.984413,18.7240064 229.750092,19.368 228.12475,19.368 Z M228.46975,17.436 C229.343754,17.436 230.137246,17.1101699 230.85025,16.4585 C231.563254,15.8068301 231.91975,15.0363378 231.91975,14.147 C231.321747,13.6563309 230.424756,13.411 229.22875,13.411 C228.201412,13.411 227.427086,13.6333311 226.90575,14.078 C226.384414,14.5226689 226.12375,15.043997 226.12375,15.642 C226.12375,16.1940028 226.361414,16.6309984 226.83675,16.953 C227.312086,17.2750016 227.856414,17.436 228.46975,17.436 Z M245.84625,13.25 C247.057589,13.25 247.939247,12.9740028 248.49125,12.422 L248.49125,7.73 L250.60725,7.73 L250.60725,19 L248.49125,19 L248.49125,15.182 L248.53725,14.262 L248.49125,14.262 C247.663246,14.8753364 246.643589,15.182 245.43225,15.182 C244.159577,15.182 243.124587,14.7871706 242.32725,13.9975 C241.529913,13.2078294 241.13125,12.2073394 241.13125,10.996 L241.13125,7.73 L243.29325,7.73 L243.29325,10.996 C243.29325,11.6860035 243.523248,12.2341646 243.98325,12.6405 C244.443252,13.0468354 245.064246,13.25 245.84625,13.25 Z M258.318,19.368 C256.615992,19.368 255.232172,18.8006723 254.1665,17.666 C253.100828,16.5313277 252.568,15.0976753 252.568,13.365 C252.568,11.7243251 253.085495,10.3136726 254.1205,9.133 C255.155505,7.95232743 256.477992,7.362 258.088,7.362 C259.759342,7.362 261.097162,7.90632789 262.1015,8.995 C263.105838,10.0836721 263.608,11.5403242 263.608,13.365 L263.585,13.756 L254.684,13.756 C254.745334,14.8906723 255.12483,15.7876634 255.8225,16.447 C256.52017,17.1063366 257.336662,17.436 258.272,17.436 C259.790008,17.436 260.817331,16.7920064 261.354,15.504 L263.24,16.286 C262.871998,17.1600044 262.266338,17.8921637 261.423,18.4825 C260.579663,19.0728363 259.544673,19.368 258.318,19.368 Z M261.354,12.008 C261.308,11.3639968 261.012836,10.7506696 260.4685,10.168 C259.924164,9.58533042 259.115339,9.294 258.042,9.294 C257.259996,9.294 256.581503,9.53933088 256.0065,10.03 C255.431497,10.5206691 255.036668,11.1799959 254.822,12.008 L261.354,12.008 Z M271.54875,19.368 C270.690079,19.368 269.919587,19.1840018 269.23725,18.816 C268.554913,18.4479982 268.045085,17.9880028 267.70775,17.436 L267.61575,17.436 L267.70775,19 L267.70775,23.968 L265.59175,23.968 L265.59175,7.73 L267.61575,7.73 L267.61575,9.294 L267.70775,9.294 C268.045085,8.74199724 268.554913,8.28200184 269.23725,7.914 C269.919587,7.54599816 270.690079,7.362 271.54875,7.362 C273.005424,7.362 274.262745,7.93699425 275.32075,9.087 C276.378755,10.2370057 276.90775,11.6629915 276.90775,13.365 C276.90775,15.0670085 276.378755,16.4929943 275.32075,17.643 C274.262745,18.7930058 273.005424,19.368 271.54875,19.368 Z M271.20375,17.436 C272.185088,17.436 273.028413,17.0641704 273.73375,16.3205 C274.439087,15.5768296 274.79175,14.5916728 274.79175,13.365 C274.79175,12.1383272 274.439087,11.1531704 273.73375,10.4095 C273.028413,9.66582961 272.185088,9.294 271.20375,9.294 C270.207078,9.294 269.35992,9.66199632 268.66225,10.398 C267.96458,11.1340037 267.61575,12.1229938 267.61575,13.365 C267.61575,14.6070062 267.96458,15.5959963 268.66225,16.332 C269.35992,17.0680037 270.207078,17.436 271.20375,17.436 Z M284.0895,19.368 C282.387492,19.368 281.003672,18.8006723 279.938,17.666 C278.872328,16.5313277 278.3395,15.0976753 278.3395,13.365 C278.3395,11.7243251 278.856995,10.3136726 279.892,9.133 C280.927005,7.95232743 282.249492,7.362 283.8595,7.362 C285.530842,7.362 286.868662,7.90632789 287.873,8.995 C288.877338,10.0836721 289.3795,11.5403242 289.3795,13.365 L289.3565,13.756 L280.4555,13.756 C280.516834,14.8906723 280.89633,15.7876634 281.594,16.447 C282.29167,17.1063366 283.108162,17.436 284.0435,17.436 C285.561508,17.436 286.588831,16.7920064 287.1255,15.504 L289.0115,16.286 C288.643498,17.1600044 288.037838,17.8921637 287.1945,18.4825 C286.351163,19.0728363 285.316173,19.368 284.0895,19.368 Z M287.1255,12.008 C287.0795,11.3639968 286.784336,10.7506696 286.24,10.168 C285.695664,9.58533042 284.886839,9.294 283.8135,9.294 C283.031496,9.294 282.353003,9.53933088 281.778,10.03 C281.202997,10.5206691 280.808168,11.1799959 280.5935,12.008 L287.1255,12.008 Z M298.65425,13.089 L298.63125,13.089 C299.949923,13.6410028 300.60925,14.4843277 300.60925,15.619 C300.60925,16.6616719 300.156921,17.4858303 299.25225,18.0915 C298.347579,18.6971697 297.166924,19 295.71025,19 C294.836246,19 293.962255,18.831335 293.08825,18.494 C292.214246,18.156665 291.470587,17.6813364 290.85725,17.068 L292.26025,15.711 C293.210922,16.6156712 294.36091,17.068 295.71025,17.068 C296.553588,17.068 297.220581,16.9223348 297.71125,16.631 C298.201919,16.3396652 298.44725,15.9640023 298.44725,15.504 C298.44725,15.0593311 298.278585,14.6875015 297.94125,14.3885 C297.603915,14.0894985 297.128587,13.94 296.51525,13.94 L294.12325,13.94 L294.12325,12.238 L296.44625,12.238 C296.906252,12.238 297.293415,12.1038347 297.60775,11.8355 C297.922085,11.5671653 298.07925,11.2106689 298.07925,10.766 C298.07925,10.3213311 297.876085,9.96483467 297.46975,9.6965 C297.063415,9.42816533 296.507587,9.294 295.80225,9.294 C294.560244,9.294 293.502255,9.70032927 292.62825,10.513 L291.27125,9.202 C292.497923,7.9753272 294.008241,7.362 295.80225,7.362 C296.982923,7.362 298.010246,7.6686636 298.88425,8.282 C299.758255,8.8953364 300.19525,9.68499517 300.19525,10.651 C300.19525,11.8163392 299.681589,12.6289977 298.65425,13.089 Z" id="Подписка-оформлена-ч" fill="#FFFFFF"></path>
        <g id="Group" transform="translate(308.000000, 0.000000)" fill="#FFFFFF" fill-rule="nonzero">
            <path d="M9.36714443,19 C4.27673649,19 0,14.7346939 0,9.5 C0,4.26530612 4.27673649,0 9.36714443,0 C12.185226,0 14.1896362,1.13265306 15.6979052,2.62244898 L13.92172,4.44897959 C12.8401323,3.40816327 11.3715546,2.59183673 9.36714443,2.59183673 C5.646086,2.59183673 2.73869901,5.67346939 2.73869901,9.5 C2.73869901,13.3265306 5.646086,16.4081633 9.36714443,16.4081633 C11.7783903,16.4081633 13.1477398,15.4081633 14.030871,14.5102041 C14.755237,13.7653061 15.2216097,12.7040816 15.4002205,11.244898 L9.36714443,11.244898 L9.36714443,8.64285714 L17.8610805,8.64285714 C17.9503859,9.10204082 18,9.66326531 18,10.2653061 C18,12.2142857 17.4840132,14.622449 15.8169791,16.3367347 C14.1896362,18.0714286 12.1256891,19 9.36714443,19 Z" id="Shape"></path>
            <path d="M32,13 C32,16.4557596 29.3096447,19 26,19 C22.6903553,19 20,16.4557596 20,13 C20,9.52420701 22.6903553,7 26,7 C29.3096447,7 32,9.52420701 32,13 Z M29.3705584,13 C29.3705584,10.836394 27.8071066,9.3639399 26,9.3639399 C24.1928934,9.3639399 22.6294416,10.8464107 22.6294416,13 C22.6294416,15.1335559 24.1928934,16.6360601 26,16.6360601 C27.8071066,16.6360601 29.3705584,15.1435726 29.3705584,13 Z" id="Shape"></path>
            <path d="M45,13 C45,16.4557596 42.3096447,19 39,19 C35.7005076,19 33,16.4557596 33,13 C33,9.52420701 35.6903553,7 39,7 C42.3096447,7 45,9.52420701 45,13 Z M42.3807107,13 C42.3807107,10.836394 40.8172589,9.3639399 39.0101523,9.3639399 C37.2030457,9.3639399 35.6395939,10.8464107 35.6395939,13 C35.6395939,15.1335559 37.2030457,16.6360601 39.0101523,16.6360601 C40.8172589,16.6460768 42.3807107,15.1435726 42.3807107,13 Z" id="Shape"></path>
            <path d="M57,7.3621186 L57,17.8929188 C57,22.228555 54.5013055,24 51.5430809,24 C48.7571802,24 47.0913838,22.0915371 46.45953,20.5354059 L48.6518712,19.6056419 C49.0443864,20.5647668 50.0017406,21.6902706 51.5430809,21.6902706 C53.4386423,21.6902706 54.6066144,20.4864709 54.6066144,18.2452504 L54.6066144,17.4035694 L54.5204526,17.4035694 C53.9556136,18.1180196 52.8642298,18.7345999 51.4952132,18.7345999 C48.6231506,18.7345999 46,16.1801957 46,12.8917674 C46,9.58376511 48.6327241,7 51.4952132,7 C52.8642298,7 53.9556136,7.6263673 54.5204526,8.31145653 L54.6066144,8.31145653 L54.6066144,7.3621186 L57,7.3621186 Z M54.7789382,12.9015544 C54.7789382,10.8364997 53.4290688,9.31951641 51.7154047,9.31951641 C49.97302,9.31951641 48.5178416,10.8267127 48.5178416,12.9015544 C48.5178416,14.9470351 49.97302,16.4346575 51.7154047,16.4346575 C53.4290688,16.4346575 54.7789382,14.9470351 54.7789382,12.9015544 Z" id="Shape"></path>
            <polygon id="Shape" points="63 1 63 19 60 19 60 1"></polygon>
            <path d="M72.8441203,14.9732888 L74.8896992,16.3355593 C74.2278943,17.3171953 72.633546,19 69.8760255,19 C66.4567001,19 64,16.3656093 64,13 C64,9.43405676 66.4867821,7 69.5852325,7 C72.7037375,7 74.2278943,9.47412354 74.7292616,10.8163606 L75,11.4974958 L66.9680948,14.8230384 C67.579763,16.0250417 68.5423883,16.6460768 69.8860529,16.6460768 C71.2297174,16.6460768 72.1622607,15.9749583 72.8441203,14.9732888 Z M66.5369189,12.8096828 L71.911577,10.5859766 C71.6107566,9.83472454 70.72835,9.31385643 69.6754786,9.31385643 C68.331814,9.31385643 66.4667274,10.4958264 66.5369189,12.8096828 Z" id="Shape"></path>
        </g>
    </g>
</svg>