<svg width="293" height="24" viewBox="0 0 293 24" xmlns="http://www.w3.org/2000/svg"><title>SwG-RU-White</title><desc>Created with Sketch.</desc><g fill="none"><path d="M1.656 19v-16.468h11.914v16.468h-2.116v-14.444h-7.682v14.444h-2.116zm15.991-9.913c1.089-1.15 2.476-1.725 4.163-1.725 1.687 0 3.074.571 4.163 1.713 1.089 1.142 1.633 2.572 1.633 4.29 0 1.717-.544 3.147-1.633 4.289s-2.476 1.713-4.163 1.713c-1.687 0-3.074-.571-4.163-1.713-1.089-1.142-1.633-2.572-1.633-4.289 0-1.717.544-3.143 1.633-4.278zm1.564 7.245c.736.736 1.602 1.104 2.599 1.104.997 0 1.859-.372 2.587-1.116.728-.744 1.093-1.729 1.093-2.955 0-1.227-.364-2.212-1.093-2.956-.728-.744-1.591-1.115-2.587-1.115-.997 0-1.859.372-2.588 1.115-.728.744-1.092 1.729-1.092 2.956 0 1.227.36 2.216 1.081 2.967zm11.391 6.164h-2.024v-5.428h1.357c.337-.291.617-.855.84-1.691.222-.836.334-1.813.334-2.932v-4.715h9.982v9.338h1.84v5.428h-2.024v-3.496h-10.304v3.496zm2.622-12.834v2.944c0 1.794-.307 3.281-.92 4.462h6.67v-7.406h-5.75zm11.782 9.338v-11.27h9.982v11.27h-2.116v-9.338h-5.75v9.338h-2.116zm22.684-11.27v11.27h-2.116v-5.842l.092-2.208h-.092l-5.75 8.05h-2.116v-11.27h2.116v5.842l-.092 2.208h.092l5.75-8.05h2.116zm17.992 11.27h-15.272v-11.27h2.116v9.338h4.462v-9.338h2.116v9.338h4.462v-9.338h2.116v11.27zm12.702-11.27v11.27h-2.116v-5.842l.092-2.208h-.092l-5.75 8.05h-2.116v-11.27h2.116v5.842l-.092 2.208h.092l5.75-8.05h2.116zm1.984 1.932v-1.932h8.74v1.932h-3.312v9.338h-2.116v-9.338h-3.312zm15.6 9.706c-1.702 0-3.086-.567-4.151-1.702-1.066-1.135-1.599-2.568-1.599-4.301 0-1.641.517-3.051 1.553-4.232 1.035-1.181 2.357-1.771 3.968-1.771 1.671 0 3.009.544 4.013 1.633s1.507 2.545 1.507 4.37l-.023.391h-8.901c.061 1.135.441 2.032 1.139 2.691.698.659 1.514.989 2.45.989 1.518 0 2.545-.644 3.082-1.932l1.886.782c-.368.874-.974 1.606-1.817 2.197-.843.59-1.878.885-3.105.885zm3.036-7.36c-.046-.644-.341-1.257-.885-1.84-.544-.583-1.353-.874-2.427-.874-.782 0-1.46.245-2.035.736-.575.491-.97 1.15-1.184 1.978h6.532zm9.597 7.36c-1.687 0-3.074-.571-4.163-1.713-1.089-1.142-1.633-2.572-1.633-4.289 0-1.717.544-3.147 1.633-4.29 1.089-1.142 2.476-1.713 4.163-1.713 1.257 0 2.3.307 3.128.92.828.613 1.434 1.388 1.817 2.323l-1.932.805c-.583-1.411-1.633-2.116-3.151-2.116-.935 0-1.759.383-2.472 1.15-.713.767-1.069 1.74-1.069 2.921 0 1.181.356 2.154 1.069 2.921.713.767 1.537 1.15 2.472 1.15 1.579 0 2.668-.705 3.266-2.116l1.886.805c-.383.92-1 1.69-1.852 2.311-.851.621-1.905.931-3.162.931zm12.587-.368h-5.589v-11.27h2.116v4.002h3.473c.383 0 .774.061 1.173.184.399.107.79.299 1.173.575.107.061.222.153.345.276l.207.184c.322.322.583.728.782 1.219.061.169.1.314.115.437l.023.138c.046.199.069.406.069.621v.161l-.069.46-.023.138-.012.081-.011.081-.092.276c-.123.337-.314.675-.575 1.012l-.207.207c-.184.215-.445.429-.782.644l-.391.207-.138.046c-.092.046-.23.1-.414.161l-.276.069-.081.011-.081.012-.299.046c-.092.015-.238.023-.437.023zm-.069-1.932l.345-.023.253-.069.253-.115.276-.184.069-.046c.138-.123.276-.291.414-.506v-.023l.023-.046.069-.184.092-.437v-.138l-.023-.138c0-.077-.031-.192-.092-.345-.092-.245-.238-.468-.437-.667l-.276-.184-.092-.057-.092-.057-.115-.046-.138-.046c-.138-.061-.314-.092-.529-.092h-3.404v3.404h3.404zm15.306-3.818c1.211 0 2.093-.276 2.645-.828v-4.692h2.116v11.27h-2.116v-3.818l.046-.92h-.046c-.828.613-1.848.92-3.059.92-1.273 0-2.308-.395-3.105-1.184-.797-.79-1.196-1.79-1.196-3.002v-3.266h2.162v3.266c0 .69.23 1.238.69 1.644.46.406 1.081.61 1.863.61zm12.472 6.118c-1.702 0-3.086-.567-4.151-1.702-1.066-1.135-1.599-2.568-1.599-4.301 0-1.641.517-3.051 1.553-4.232 1.035-1.181 2.357-1.771 3.968-1.771 1.671 0 3.009.544 4.013 1.633s1.507 2.545 1.507 4.37l-.023.391h-8.901c.061 1.135.441 2.032 1.138 2.691.698.659 1.514.989 2.45.989 1.518 0 2.545-.644 3.082-1.932l1.886.782c-.368.874-.974 1.606-1.817 2.197-.843.59-1.878.885-3.105.885zm3.036-7.36c-.046-.644-.341-1.257-.885-1.84-.544-.583-1.353-.874-2.427-.874-.782 0-1.46.245-2.036.736-.575.491-.97 1.15-1.184 1.978h6.532zm10.195 7.36c-.859 0-1.629-.184-2.311-.552-.682-.368-1.192-.828-1.529-1.38h-.092l.092 1.564v4.968h-2.116v-16.238h2.024v1.564h.092c.337-.552.847-1.012 1.529-1.38.682-.368 1.453-.552 2.311-.552 1.457 0 2.714.575 3.772 1.725 1.058 1.15 1.587 2.576 1.587 4.278 0 1.702-.529 3.128-1.587 4.278-1.058 1.15-2.315 1.725-3.772 1.725zm-.345-1.932c.981 0 1.825-.372 2.53-1.116.705-.744 1.058-1.729 1.058-2.955 0-1.227-.353-2.212-1.058-2.956-.705-.744-1.549-1.115-2.53-1.115-.997 0-1.844.368-2.541 1.104-.698.736-1.047 1.725-1.047 2.967s.349 2.231 1.047 2.967c.698.736 1.545 1.104 2.541 1.104zm12.886 1.932c-1.702 0-3.086-.567-4.151-1.702-1.066-1.135-1.599-2.568-1.599-4.301 0-1.641.517-3.051 1.553-4.232 1.035-1.181 2.357-1.771 3.968-1.771 1.671 0 3.009.544 4.013 1.633s1.507 2.545 1.507 4.37l-.023.391h-8.901c.061 1.135.441 2.032 1.138 2.691.698.659 1.514.989 2.45.989 1.518 0 2.545-.644 3.082-1.932l1.886.782c-.368.874-.974 1.606-1.817 2.197-.843.59-1.878.885-3.105.885zm3.036-7.36c-.046-.644-.341-1.257-.885-1.84-.544-.583-1.353-.874-2.427-.874-.782 0-1.46.245-2.036.736-.575.491-.97 1.15-1.184 1.978h6.532zm11.529 1.081h-.023c1.319.552 1.978 1.395 1.978 2.53 0 1.043-.452 1.867-1.357 2.473-.905.606-2.085.909-3.542.909-.874 0-1.748-.169-2.622-.506-.874-.337-1.618-.813-2.231-1.426l1.403-1.357c.951.905 2.101 1.357 3.45 1.357.843 0 1.51-.146 2.001-.437.491-.291.736-.667.736-1.127 0-.445-.169-.816-.506-1.115-.337-.299-.813-.449-1.426-.449h-2.392v-1.702h2.323c.46 0 .847-.134 1.162-.402.314-.268.471-.625.471-1.069 0-.445-.203-.801-.609-1.069-.406-.268-.962-.402-1.668-.402-1.242 0-2.3.406-3.174 1.219l-1.357-1.311c1.227-1.227 2.737-1.84 4.531-1.84 1.181 0 2.208.307 3.082.92.874.613 1.311 1.403 1.311 2.369 0 1.165-.514 1.978-1.541 2.438z" fill="#5F6368"/><g fill-rule="nonzero"><path d="M227.367 19c-5.09 0-9.367-4.265-9.367-9.5s4.277-9.5 9.367-9.5c2.818 0 4.822 1.133 6.331 2.622l-1.776 1.827c-1.082-1.041-2.55-1.857-4.555-1.857-3.721 0-6.628 3.082-6.628 6.908 0 3.827 2.907 6.908 6.628 6.908 2.411 0 3.781-1 4.664-1.898.724-.745 1.191-1.806 1.369-3.265h-6.033v-2.602h8.494c.089.459.139 1.02.139 1.622 0 1.949-.516 4.357-2.183 6.071-1.627 1.735-3.691 2.663-6.45 2.663z" id="Shape" fill="#4285F4"/><path d="M250 13c0 3.456-2.69 6-6 6s-6-2.544-6-6c0-3.476 2.69-6 6-6s6 2.524 6 6zm-2.629 0c0-2.164-1.563-3.636-3.371-3.636-1.807 0-3.371 1.482-3.371 3.636 0 2.134 1.563 3.636 3.371 3.636 1.807 0 3.371-1.492 3.371-3.636z" id="Shape" fill="#E94235"/><path d="M263 13c0 3.456-2.69 6-6 6-3.299 0-6-2.544-6-6 0-3.476 2.69-6 6-6s6 2.524 6 6zm-2.619 0c0-2.164-1.563-3.636-3.371-3.636-1.807 0-3.371 1.482-3.371 3.636 0 2.134 1.563 3.636 3.371 3.636 1.807.01 3.371-1.492 3.371-3.636z" id="Shape" fill="#FABB05"/><path d="M275 7.362v10.531c0 4.336-2.499 6.107-5.457 6.107-2.786 0-4.452-1.908-5.084-3.465l2.192-.93c.393.959 1.35 2.085 2.891 2.085 1.896 0 3.064-1.204 3.064-3.445v-.842h-.086c-.565.714-1.656 1.331-3.025 1.331-2.872 0-5.495-2.554-5.495-5.843 0-3.308 2.633-5.892 5.495-5.892 1.369 0 2.46.626 3.025 1.311h.086v-.949h2.393zm-2.221 5.539c0-2.065-1.35-3.582-3.064-3.582-1.742 0-3.198 1.507-3.198 3.582 0 2.045 1.455 3.533 3.198 3.533 1.714 0 3.064-1.488 3.064-3.533z" id="Shape" fill="#4285F4"/><path id="Shape" fill="#34A853" d="M281 1v18h-3v-18z"/><path d="M290.844 14.973l2.046 1.362c-.662.982-2.256 2.664-5.014 2.664-3.419 0-5.876-2.634-5.876-6 0-3.566 2.487-6 5.585-6 3.119 0 4.643 2.474 5.144 3.816l.271.681-8.032 3.326c.612 1.202 1.574 1.823 2.918 1.823s2.276-.671 2.958-1.673zm-6.307-2.164l5.375-2.224c-.301-.751-1.183-1.272-2.236-1.272-1.344 0-3.209 1.182-3.139 3.496z" fill="#E94235"/></g></g></svg>
