<?xml version="1.0" encoding="UTF-8"?>
<svg width="250px" height="24px" viewBox="0 0 250 24" version="1.1" xmlns="http://www.w3.org/2000/svg" xmlns:xlink="http://www.w3.org/1999/xlink">
    <!-- Generator: Sketch 52.2 (67145) - http://www.bohemiancoding.com/sketch -->
    <title>SwG-RU-OW</title>
    <desc>Created with Sketch.</desc>
    <g id="SwG-RU-OW" stroke="none" stroke-width="1" fill="none" fill-rule="evenodd">
        <path d="M0.656,19 L0.656,2.532 L12.57,2.532 L12.57,19 L10.454,19 L10.454,4.556 L2.772,4.556 L2.772,19 L0.656,19 Z M16.64675,9.087 C17.7354221,7.93699425 19.1230749,7.362 20.80975,7.362 C22.4964251,7.362 23.8840779,7.93316096 24.97275,9.0755 C26.0614221,10.217839 26.60575,11.6476581 26.60575,13.365 C26.60575,15.0823419 26.0614221,16.512161 24.97275,17.6545 C23.8840779,18.796839 22.4964251,19.368 20.80975,19.368 C19.1230749,19.368 17.7354221,18.796839 16.64675,17.6545 C15.5580779,16.512161 15.01375,15.0823419 15.01375,13.365 C15.01375,11.6476581 15.5580779,10.2216723 16.64675,9.087 Z M18.21075,16.332 C18.9467537,17.0680037 19.8130784,17.436 20.80975,17.436 C21.8064217,17.436 22.668913,17.0641704 23.39725,16.3205 C24.125587,15.5768296 24.48975,14.5916728 24.48975,13.365 C24.48975,12.1383272 24.125587,11.1531704 23.39725,10.4095 C22.668913,9.66582961 21.8064217,9.294 20.80975,9.294 C19.8130784,9.294 18.950587,9.66582961 18.22225,10.4095 C17.493913,11.1531704 17.12975,12.1383272 17.12975,13.365 C17.12975,14.5916728 17.4900797,15.5806629 18.21075,16.332 Z M29.6015,22.496 L27.5775,22.496 L27.5775,17.068 L28.9345,17.068 C29.271835,16.7766652 29.5516656,16.2131708 29.774,15.3775 C29.9963344,14.5418292 30.1075,13.5643389 30.1075,12.445 L30.1075,7.73 L40.0895,7.73 L40.0895,17.068 L41.9295,17.068 L41.9295,22.496 L39.9055,22.496 L39.9055,19 L29.6015,19 L29.6015,22.496 Z M32.2235,9.662 L32.2235,12.606 C32.2235,14.400009 31.9168364,15.8873274 31.3035,17.068 L37.9735,17.068 L37.9735,9.662 L32.2235,9.662 Z M44.00525,19 L44.00525,7.73 L53.98725,7.73 L53.98725,19 L51.87125,19 L51.87125,9.662 L46.12125,9.662 L46.12125,19 L44.00525,19 Z M66.689,7.73 L66.689,19 L64.573,19 L64.573,13.158 L64.665,10.95 L64.573,10.95 L58.823,19 L56.707,19 L56.707,7.73 L58.823,7.73 L58.823,13.572 L58.731,15.78 L58.823,15.78 L64.573,7.73 L66.689,7.73 Z M74.44575,19.368 C72.7590749,19.368 71.3714221,18.796839 70.28275,17.6545 C69.1940779,16.512161 68.64975,15.0823419 68.64975,13.365 C68.64975,11.6476581 69.1940779,10.217839 70.28275,9.0755 C71.3714221,7.93316096 72.7590749,7.362 74.44575,7.362 C75.7030896,7.362 76.7457459,7.6686636 77.57375,8.282 C78.4017541,8.8953364 79.0074147,9.66966199 79.39075,10.605 L77.45875,11.41 C76.8760804,9.99932628 75.8257576,9.294 74.30775,9.294 C73.372412,9.294 72.5482536,9.6773295 71.83525,10.444 C71.1222464,11.2106705 70.76575,12.1843274 70.76575,13.365 C70.76575,14.5456726 71.1222464,15.5193295 71.83525,16.286 C72.5482536,17.0526705 73.372412,17.436 74.30775,17.436 C75.8870912,17.436 76.975747,16.7306737 77.57375,15.32 L79.45975,16.125 C79.0764147,17.0450046 78.4592543,17.8154969 77.60825,18.4365 C76.7572457,19.0575031 75.7030896,19.368 74.44575,19.368 Z M88.5505,19 L83.6515,13.342 L83.5595,13.342 L83.5595,19 L81.4435,19 L81.4435,7.73 L83.5595,7.73 L83.5595,12.79 L83.6515,12.79 L88.2515,7.73 L90.9195,7.73 L90.9195,7.822 L85.9515,13.066 L91.1725,18.908 L91.1725,19 L88.5505,19 Z M95.84725,19.368 C94.651244,19.368 93.650754,19.0230035 92.84575,18.333 C92.040746,17.6429965 91.63825,16.7306723 91.63825,15.596 C91.63825,14.3693272 92.1135786,13.4071702 93.06425,12.7095 C94.0149214,12.0118298 95.1879097,11.663 96.58325,11.663 C97.8252562,11.663 98.8449127,11.8929977 99.64225,12.353 L99.64225,12.031 C99.64225,11.2029959 99.3585862,10.5398358 98.79125,10.0415 C98.2239138,9.54316418 97.5262541,9.294 96.69825,9.294 C96.0849136,9.294 95.5290858,9.43966521 95.03075,9.731 C94.5324142,10.0223348 94.1912509,10.4209975 94.00725,10.927 L92.07525,10.099 C92.335918,9.42432996 92.8495795,8.79950287 93.61625,8.2245 C94.3829205,7.64949712 95.3949104,7.362 96.65225,7.362 C98.0935905,7.362 99.2895786,7.78366245 100.24025,8.627 C101.190921,9.47033755 101.66625,10.658659 101.66625,12.192 L101.66625,19 L99.64225,19 L99.64225,17.436 L99.55025,17.436 C98.7069124,18.7240064 97.4725915,19.368 95.84725,19.368 Z M96.19225,17.436 C97.0662544,17.436 97.8597464,17.1101699 98.57275,16.4585 C99.2857536,15.8068301 99.64225,15.0363378 99.64225,14.147 C99.044247,13.6563309 98.147256,13.411 96.95125,13.411 C95.9239115,13.411 95.1495859,13.6333311 94.62825,14.078 C94.1069141,14.5226689 93.84625,15.043997 93.84625,15.642 C93.84625,16.1940028 94.0839143,16.6309984 94.55925,16.953 C95.0345857,17.2750016 95.5789136,17.436 96.19225,17.436 Z M113.56875,13.25 C114.780089,13.25 115.661747,12.9740028 116.21375,12.422 L116.21375,7.73 L118.32975,7.73 L118.32975,19 L116.21375,19 L116.21375,15.182 L116.25975,14.262 L116.21375,14.262 C115.385746,14.8753364 114.366089,15.182 113.15475,15.182 C111.882077,15.182 110.847087,14.7871706 110.04975,13.9975 C109.252413,13.2078294 108.85375,12.2073394 108.85375,10.996 L108.85375,7.73 L111.01575,7.73 L111.01575,10.996 C111.01575,11.6860035 111.245748,12.2341646 111.70575,12.6405 C112.165752,13.0468354 112.786746,13.25 113.56875,13.25 Z M126.0405,19.368 C124.338491,19.368 122.954672,18.8006723 121.889,17.666 C120.823328,16.5313277 120.2905,15.0976753 120.2905,13.365 C120.2905,11.7243251 120.807995,10.3136726 121.843,9.133 C122.878005,7.95232743 124.200492,7.362 125.8105,7.362 C127.481842,7.362 128.819662,7.90632789 129.824,8.995 C130.828338,10.0836721 131.3305,11.5403242 131.3305,13.365 L131.3075,13.756 L122.4065,13.756 C122.467834,14.8906723 122.84733,15.7876634 123.545,16.447 C124.24267,17.1063366 125.059162,17.436 125.9945,17.436 C127.512508,17.436 128.539831,16.7920064 129.0765,15.504 L130.9625,16.286 C130.594498,17.1600044 129.988838,17.8921637 129.1455,18.4825 C128.302162,19.0728363 127.267173,19.368 126.0405,19.368 Z M129.0765,12.008 C129.0305,11.3639968 128.735336,10.7506696 128.191,10.168 C127.646664,9.58533042 126.837839,9.294 125.7645,9.294 C124.982496,9.294 124.304003,9.53933088 123.729,10.03 C123.153997,10.5206691 122.759168,11.1799959 122.5445,12.008 L129.0765,12.008 Z M139.27125,19.368 C138.412579,19.368 137.642087,19.1840018 136.95975,18.816 C136.277413,18.4479982 135.767585,17.9880028 135.43025,17.436 L135.33825,17.436 L135.43025,19 L135.43025,23.968 L133.31425,23.968 L133.31425,7.73 L135.33825,7.73 L135.33825,9.294 L135.43025,9.294 C135.767585,8.74199724 136.277413,8.28200184 136.95975,7.914 C137.642087,7.54599816 138.412579,7.362 139.27125,7.362 C140.727924,7.362 141.985245,7.93699425 143.04325,9.087 C144.101255,10.2370057 144.63025,11.6629915 144.63025,13.365 C144.63025,15.0670085 144.101255,16.4929942 143.04325,17.643 C141.985245,18.7930057 140.727924,19.368 139.27125,19.368 Z M138.92625,17.436 C139.907588,17.436 140.750913,17.0641704 141.45625,16.3205 C142.161587,15.5768296 142.51425,14.5916728 142.51425,13.365 C142.51425,12.1383272 142.161587,11.1531704 141.45625,10.4095 C140.750913,9.66582961 139.907588,9.294 138.92625,9.294 C137.929578,9.294 137.08242,9.66199632 136.38475,10.398 C135.68708,11.1340037 135.33825,12.1229938 135.33825,13.365 C135.33825,14.6070062 135.68708,15.5959963 136.38475,16.332 C137.08242,17.0680037 137.929578,17.436 138.92625,17.436 Z M151.812,19.368 C150.109991,19.368 148.726172,18.8006723 147.6605,17.666 C146.594828,16.5313277 146.062,15.0976753 146.062,13.365 C146.062,11.7243251 146.579495,10.3136726 147.6145,9.133 C148.649505,7.95232743 149.971992,7.362 151.582,7.362 C153.253342,7.362 154.591162,7.90632789 155.5955,8.995 C156.599838,10.0836721 157.102,11.5403242 157.102,13.365 L157.079,13.756 L148.178,13.756 C148.239334,14.8906723 148.61883,15.7876634 149.3165,16.447 C150.01417,17.1063366 150.830662,17.436 151.766,17.436 C153.284008,17.436 154.311331,16.7920064 154.848,15.504 L156.734,16.286 C156.365998,17.1600044 155.760338,17.8921637 154.917,18.4825 C154.073662,19.0728363 153.038673,19.368 151.812,19.368 Z M154.848,12.008 C154.802,11.3639968 154.506836,10.7506696 153.9625,10.168 C153.418164,9.58533042 152.609339,9.294 151.536,9.294 C150.753996,9.294 150.075503,9.53933088 149.5005,10.03 C148.925497,10.5206691 148.530668,11.1799959 148.316,12.008 L154.848,12.008 Z M166.37675,13.089 L166.35375,13.089 C167.672423,13.6410028 168.33175,14.4843277 168.33175,15.619 C168.33175,16.6616719 167.879421,17.4858303 166.97475,18.0915 C166.070079,18.6971697 164.889424,19 163.43275,19 C162.558746,19 161.684754,18.831335 160.81075,18.494 C159.936746,18.156665 159.193086,17.6813364 158.57975,17.068 L159.98275,15.711 C160.933421,16.6156712 162.08341,17.068 163.43275,17.068 C164.276088,17.068 164.943081,16.9223348 165.43375,16.631 C165.924419,16.3396652 166.16975,15.9640023 166.16975,15.504 C166.16975,15.0593311 166.001085,14.6875015 165.66375,14.3885 C165.326415,14.0894985 164.851086,13.94 164.23775,13.94 L161.84575,13.94 L161.84575,12.238 L164.16875,12.238 C164.628752,12.238 165.015915,12.1038347 165.33025,11.8355 C165.644585,11.5671653 165.80175,11.2106689 165.80175,10.766 C165.80175,10.3213311 165.598585,9.96483467 165.19225,9.6965 C164.785915,9.42816533 164.230087,9.294 163.52475,9.294 C162.282744,9.294 161.224754,9.70032927 160.35075,10.513 L158.99375,9.202 C160.220423,7.9753272 161.730741,7.362 163.52475,7.362 C164.705423,7.362 165.732746,7.6686636 166.60675,8.282 C167.480754,8.8953364 167.91775,9.68499517 167.91775,10.651 C167.91775,11.8163392 167.404088,12.6289977 166.37675,13.089 Z" id="Подписка-через" fill="#5F6368"></path>
        <g id="Group" transform="translate(175.000000, 0.000000)" fill-rule="nonzero">
            <path d="M9.36714443,19 C4.27673649,19 0,14.7346939 0,9.5 C0,4.26530612 4.27673649,0 9.36714443,0 C12.185226,0 14.1896362,1.13265306 15.6979052,2.62244898 L13.92172,4.44897959 C12.8401323,3.40816327 11.3715546,2.59183673 9.36714443,2.59183673 C5.646086,2.59183673 2.73869901,5.67346939 2.73869901,9.5 C2.73869901,13.3265306 5.646086,16.4081633 9.36714443,16.4081633 C11.7783903,16.4081633 13.1477398,15.4081633 14.030871,14.5102041 C14.755237,13.7653061 15.2216097,12.7040816 15.4002205,11.244898 L9.36714443,11.244898 L9.36714443,8.64285714 L17.8610805,8.64285714 C17.9503859,9.10204082 18,9.66326531 18,10.2653061 C18,12.2142857 17.4840132,14.622449 15.8169791,16.3367347 C14.1896362,18.0714286 12.1256891,19 9.36714443,19 Z" id="Shape" fill="#4285F4"></path>
            <path d="M32,13 C32,16.4557596 29.3096447,19 26,19 C22.6903553,19 20,16.4557596 20,13 C20,9.52420701 22.6903553,7 26,7 C29.3096447,7 32,9.52420701 32,13 Z M29.3705584,13 C29.3705584,10.836394 27.8071066,9.3639399 26,9.3639399 C24.1928934,9.3639399 22.6294416,10.8464107 22.6294416,13 C22.6294416,15.1335559 24.1928934,16.6360601 26,16.6360601 C27.8071066,16.6360601 29.3705584,15.1435726 29.3705584,13 Z" id="Shape" fill="#E94235"></path>
            <path d="M45,13 C45,16.4557596 42.3096447,19 39,19 C35.7005076,19 33,16.4557596 33,13 C33,9.52420701 35.6903553,7 39,7 C42.3096447,7 45,9.52420701 45,13 Z M42.3807107,13 C42.3807107,10.836394 40.8172589,9.3639399 39.0101523,9.3639399 C37.2030457,9.3639399 35.6395939,10.8464107 35.6395939,13 C35.6395939,15.1335559 37.2030457,16.6360601 39.0101523,16.6360601 C40.8172589,16.6460768 42.3807107,15.1435726 42.3807107,13 Z" id="Shape" fill="#FABB05"></path>
            <path d="M57,7.3621186 L57,17.8929188 C57,22.228555 54.5013055,24 51.5430809,24 C48.7571802,24 47.0913838,22.0915371 46.45953,20.5354059 L48.6518712,19.6056419 C49.0443864,20.5647668 50.0017406,21.6902706 51.5430809,21.6902706 C53.4386423,21.6902706 54.6066144,20.4864709 54.6066144,18.2452504 L54.6066144,17.4035694 L54.5204526,17.4035694 C53.9556136,18.1180196 52.8642298,18.7345999 51.4952132,18.7345999 C48.6231506,18.7345999 46,16.1801957 46,12.8917674 C46,9.58376511 48.6327241,7 51.4952132,7 C52.8642298,7 53.9556136,7.6263673 54.5204526,8.31145653 L54.6066144,8.31145653 L54.6066144,7.3621186 L57,7.3621186 Z M54.7789382,12.9015544 C54.7789382,10.8364997 53.4290688,9.31951641 51.7154047,9.31951641 C49.97302,9.31951641 48.5178416,10.8267127 48.5178416,12.9015544 C48.5178416,14.9470351 49.97302,16.4346575 51.7154047,16.4346575 C53.4290688,16.4346575 54.7789382,14.9470351 54.7789382,12.9015544 Z" id="Shape" fill="#4285F4"></path>
            <polygon id="Shape" fill="#34A853" points="63 1 63 19 60 19 60 1"></polygon>
            <path d="M72.8441203,14.9732888 L74.8896992,16.3355593 C74.2278943,17.3171953 72.633546,19 69.8760255,19 C66.4567001,19 64,16.3656093 64,13 C64,9.43405676 66.4867821,7 69.5852325,7 C72.7037375,7 74.2278943,9.47412354 74.7292616,10.8163606 L75,11.4974958 L66.9680948,14.8230384 C67.579763,16.0250417 68.5423883,16.6460768 69.8860529,16.6460768 C71.2297174,16.6460768 72.1622607,15.9749583 72.8441203,14.9732888 Z M66.5369189,12.8096828 L71.911577,10.5859766 C71.6107566,9.83472454 70.72835,9.31385643 69.6754786,9.31385643 C68.331814,9.31385643 66.4667274,10.4958264 66.5369189,12.8096828 Z" id="Shape" fill="#E94235"></path>
        </g>
    </g>
</svg>
