<?xml version="1.0" encoding="UTF-8"?>
<svg width="250px" height="26px" viewBox="0 0 250 26" version="1.1" xmlns="http://www.w3.org/2000/svg" xmlns:xlink="http://www.w3.org/1999/xlink">
    <!-- Generator: Sketch 52.2 (67145) - http://www.bohemiancoding.com/sketch -->
    <title>SwG-RU-OB</title>
    <desc>Created with Sketch.</desc>
    <g id="SwG-RU-OB" stroke="none" stroke-width="1" fill="none" fill-rule="evenodd">
        <path d="M1.656,20 L1.656,3.532 L13.57,3.532 L13.57,20 L11.454,20 L11.454,5.556 L3.772,5.556 L3.772,20 L1.656,20 Z M17.64675,10.087 C18.7354221,8.93699425 20.1230749,8.362 21.80975,8.362 C23.4964251,8.362 24.8840779,8.93316096 25.97275,10.0755 C27.0614221,11.217839 27.60575,12.6476581 27.60575,14.365 C27.60575,16.0823419 27.0614221,17.512161 25.97275,18.6545 C24.8840779,19.796839 23.4964251,20.368 21.80975,20.368 C20.1230749,20.368 18.7354221,19.796839 17.64675,18.6545 C16.5580779,17.512161 16.01375,16.0823419 16.01375,14.365 C16.01375,12.6476581 16.5580779,11.2216723 17.64675,10.087 Z M19.21075,17.332 C19.9467537,18.0680037 20.8130784,18.436 21.80975,18.436 C22.8064217,18.436 23.668913,18.0641704 24.39725,17.3205 C25.125587,16.5768296 25.48975,15.5916728 25.48975,14.365 C25.48975,13.1383272 25.125587,12.1531704 24.39725,11.4095 C23.668913,10.6658296 22.8064217,10.294 21.80975,10.294 C20.8130784,10.294 19.950587,10.6658296 19.22225,11.4095 C18.493913,12.1531704 18.12975,13.1383272 18.12975,14.365 C18.12975,15.5916728 18.4900797,16.5806629 19.21075,17.332 Z M30.6015,23.496 L28.5775,23.496 L28.5775,18.068 L29.9345,18.068 C30.271835,17.7766652 30.5516656,17.2131708 30.774,16.3775 C30.9963344,15.5418292 31.1075,14.5643389 31.1075,13.445 L31.1075,8.73 L41.0895,8.73 L41.0895,18.068 L42.9295,18.068 L42.9295,23.496 L40.9055,23.496 L40.9055,20 L30.6015,20 L30.6015,23.496 Z M33.2235,10.662 L33.2235,13.606 C33.2235,15.400009 32.9168364,16.8873274 32.3035,18.068 L38.9735,18.068 L38.9735,10.662 L33.2235,10.662 Z M45.00525,20 L45.00525,8.73 L54.98725,8.73 L54.98725,20 L52.87125,20 L52.87125,10.662 L47.12125,10.662 L47.12125,20 L45.00525,20 Z M67.689,8.73 L67.689,20 L65.573,20 L65.573,14.158 L65.665,11.95 L65.573,11.95 L59.823,20 L57.707,20 L57.707,8.73 L59.823,8.73 L59.823,14.572 L59.731,16.78 L59.823,16.78 L65.573,8.73 L67.689,8.73 Z M75.44575,20.368 C73.7590749,20.368 72.3714221,19.796839 71.28275,18.6545 C70.1940779,17.512161 69.64975,16.0823419 69.64975,14.365 C69.64975,12.6476581 70.1940779,11.217839 71.28275,10.0755 C72.3714221,8.93316096 73.7590749,8.362 75.44575,8.362 C76.7030896,8.362 77.7457459,8.6686636 78.57375,9.282 C79.4017541,9.8953364 80.0074147,10.669662 80.39075,11.605 L78.45875,12.41 C77.8760804,10.9993263 76.8257576,10.294 75.30775,10.294 C74.372412,10.294 73.5482536,10.6773295 72.83525,11.444 C72.1222464,12.2106705 71.76575,13.1843274 71.76575,14.365 C71.76575,15.5456726 72.1222464,16.5193295 72.83525,17.286 C73.5482536,18.0526705 74.372412,18.436 75.30775,18.436 C76.8870912,18.436 77.975747,17.7306737 78.57375,16.32 L80.45975,17.125 C80.0764147,18.0450046 79.4592543,18.8154969 78.60825,19.4365 C77.7572457,20.0575031 76.7030896,20.368 75.44575,20.368 Z M89.5505,20 L84.6515,14.342 L84.5595,14.342 L84.5595,20 L82.4435,20 L82.4435,8.73 L84.5595,8.73 L84.5595,13.79 L84.6515,13.79 L89.2515,8.73 L91.9195,8.73 L91.9195,8.822 L86.9515,14.066 L92.1725,19.908 L92.1725,20 L89.5505,20 Z M96.84725,20.368 C95.651244,20.368 94.650754,20.0230035 93.84575,19.333 C93.040746,18.6429965 92.63825,17.7306723 92.63825,16.596 C92.63825,15.3693272 93.1135786,14.4071702 94.06425,13.7095 C95.0149214,13.0118298 96.1879097,12.663 97.58325,12.663 C98.8252562,12.663 99.8449127,12.8929977 100.64225,13.353 L100.64225,13.031 C100.64225,12.2029959 100.358586,11.5398358 99.79125,11.0415 C99.2239138,10.5431642 98.5262541,10.294 97.69825,10.294 C97.0849136,10.294 96.5290858,10.4396652 96.03075,10.731 C95.5324142,11.0223348 95.1912509,11.4209975 95.00725,11.927 L93.07525,11.099 C93.335918,10.42433 93.8495795,9.79950287 94.61625,9.2245 C95.3829205,8.64949712 96.3949104,8.362 97.65225,8.362 C99.0935905,8.362 100.289579,8.78366245 101.24025,9.627 C102.190921,10.4703375 102.66625,11.658659 102.66625,13.192 L102.66625,20 L100.64225,20 L100.64225,18.436 L100.55025,18.436 C99.7069124,19.7240064 98.4725915,20.368 96.84725,20.368 Z M97.19225,18.436 C98.0662544,18.436 98.8597464,18.1101699 99.57275,17.4585 C100.285754,16.8068301 100.64225,16.0363378 100.64225,15.147 C100.044247,14.6563309 99.147256,14.411 97.95125,14.411 C96.9239115,14.411 96.1495859,14.6333311 95.62825,15.078 C95.1069141,15.5226689 94.84625,16.043997 94.84625,16.642 C94.84625,17.1940028 95.0839143,17.6309984 95.55925,17.953 C96.0345857,18.2750016 96.5789136,18.436 97.19225,18.436 Z M114.56875,14.25 C115.780089,14.25 116.661747,13.9740028 117.21375,13.422 L117.21375,8.73 L119.32975,8.73 L119.32975,20 L117.21375,20 L117.21375,16.182 L117.25975,15.262 L117.21375,15.262 C116.385746,15.8753364 115.366089,16.182 114.15475,16.182 C112.882077,16.182 111.847087,15.7871706 111.04975,14.9975 C110.252413,14.2078294 109.85375,13.2073394 109.85375,11.996 L109.85375,8.73 L112.01575,8.73 L112.01575,11.996 C112.01575,12.6860035 112.245748,13.2341646 112.70575,13.6405 C113.165752,14.0468354 113.786746,14.25 114.56875,14.25 Z M127.0405,20.368 C125.338491,20.368 123.954672,19.8006723 122.889,18.666 C121.823328,17.5313277 121.2905,16.0976753 121.2905,14.365 C121.2905,12.7243251 121.807995,11.3136726 122.843,10.133 C123.878005,8.95232743 125.200492,8.362 126.8105,8.362 C128.481842,8.362 129.819662,8.90632789 130.824,9.995 C131.828338,11.0836721 132.3305,12.5403242 132.3305,14.365 L132.3075,14.756 L123.4065,14.756 C123.467834,15.8906723 123.84733,16.7876634 124.545,17.447 C125.24267,18.1063366 126.059162,18.436 126.9945,18.436 C128.512508,18.436 129.539831,17.7920064 130.0765,16.504 L131.9625,17.286 C131.594498,18.1600044 130.988838,18.8921637 130.1455,19.4825 C129.302162,20.0728363 128.267173,20.368 127.0405,20.368 Z M130.0765,13.008 C130.0305,12.3639968 129.735336,11.7506696 129.191,11.168 C128.646664,10.5853304 127.837839,10.294 126.7645,10.294 C125.982496,10.294 125.304003,10.5393309 124.729,11.03 C124.153997,11.5206691 123.759168,12.1799959 123.5445,13.008 L130.0765,13.008 Z M140.27125,20.368 C139.412579,20.368 138.642087,20.1840018 137.95975,19.816 C137.277413,19.4479982 136.767585,18.9880028 136.43025,18.436 L136.33825,18.436 L136.43025,20 L136.43025,24.968 L134.31425,24.968 L134.31425,8.73 L136.33825,8.73 L136.33825,10.294 L136.43025,10.294 C136.767585,9.74199724 137.277413,9.28200184 137.95975,8.914 C138.642087,8.54599816 139.412579,8.362 140.27125,8.362 C141.727924,8.362 142.985245,8.93699425 144.04325,10.087 C145.101255,11.2370057 145.63025,12.6629915 145.63025,14.365 C145.63025,16.0670085 145.101255,17.4929942 144.04325,18.643 C142.985245,19.7930057 141.727924,20.368 140.27125,20.368 Z M139.92625,18.436 C140.907588,18.436 141.750913,18.0641704 142.45625,17.3205 C143.161587,16.5768296 143.51425,15.5916728 143.51425,14.365 C143.51425,13.1383272 143.161587,12.1531704 142.45625,11.4095 C141.750913,10.6658296 140.907588,10.294 139.92625,10.294 C138.929578,10.294 138.08242,10.6619963 137.38475,11.398 C136.68708,12.1340037 136.33825,13.1229938 136.33825,14.365 C136.33825,15.6070062 136.68708,16.5959963 137.38475,17.332 C138.08242,18.0680037 138.929578,18.436 139.92625,18.436 Z M152.812,20.368 C151.109991,20.368 149.726172,19.8006723 148.6605,18.666 C147.594828,17.5313277 147.062,16.0976753 147.062,14.365 C147.062,12.7243251 147.579495,11.3136726 148.6145,10.133 C149.649505,8.95232743 150.971992,8.362 152.582,8.362 C154.253342,8.362 155.591162,8.90632789 156.5955,9.995 C157.599838,11.0836721 158.102,12.5403242 158.102,14.365 L158.079,14.756 L149.178,14.756 C149.239334,15.8906723 149.61883,16.7876634 150.3165,17.447 C151.01417,18.1063366 151.830662,18.436 152.766,18.436 C154.284008,18.436 155.311331,17.7920064 155.848,16.504 L157.734,17.286 C157.365998,18.1600044 156.760338,18.8921637 155.917,19.4825 C155.073662,20.0728363 154.038673,20.368 152.812,20.368 Z M155.848,13.008 C155.802,12.3639968 155.506836,11.7506696 154.9625,11.168 C154.418164,10.5853304 153.609339,10.294 152.536,10.294 C151.753996,10.294 151.075503,10.5393309 150.5005,11.03 C149.925497,11.5206691 149.530668,12.1799959 149.316,13.008 L155.848,13.008 Z M167.37675,14.089 L167.35375,14.089 C168.672423,14.6410028 169.33175,15.4843277 169.33175,16.619 C169.33175,17.6616719 168.879421,18.4858303 167.97475,19.0915 C167.070079,19.6971697 165.889424,20 164.43275,20 C163.558746,20 162.684754,19.831335 161.81075,19.494 C160.936746,19.156665 160.193086,18.6813364 159.57975,18.068 L160.98275,16.711 C161.933421,17.6156712 163.08341,18.068 164.43275,18.068 C165.276088,18.068 165.943081,17.9223348 166.43375,17.631 C166.924419,17.3396652 167.16975,16.9640023 167.16975,16.504 C167.16975,16.0593311 167.001085,15.6875015 166.66375,15.3885 C166.326415,15.0894985 165.851086,14.94 165.23775,14.94 L162.84575,14.94 L162.84575,13.238 L165.16875,13.238 C165.628752,13.238 166.015915,13.1038347 166.33025,12.8355 C166.644585,12.5671653 166.80175,12.2106689 166.80175,11.766 C166.80175,11.3213311 166.598585,10.9648347 166.19225,10.6965 C165.785915,10.4281653 165.230087,10.294 164.52475,10.294 C163.282744,10.294 162.224754,10.7003293 161.35075,11.513 L159.99375,10.202 C161.220423,8.9753272 162.730741,8.362 164.52475,8.362 C165.705423,8.362 166.732746,8.6686636 167.60675,9.282 C168.480754,9.8953364 168.91775,10.6849952 168.91775,11.651 C168.91775,12.8163392 168.404088,13.6289977 167.37675,14.089 Z" id="Подписка-через" fill="#FFFFFF"></path>
        <g id="Group" transform="translate(175.000000, 1.000000)" fill="#FFFFFF" fill-rule="nonzero">
            <path d="M9.36714443,19 C4.27673649,19 0,14.7346939 0,9.5 C0,4.26530612 4.27673649,0 9.36714443,0 C12.185226,0 14.1896362,1.13265306 15.6979052,2.62244898 L13.92172,4.44897959 C12.8401323,3.40816327 11.3715546,2.59183673 9.36714443,2.59183673 C5.646086,2.59183673 2.73869901,5.67346939 2.73869901,9.5 C2.73869901,13.3265306 5.646086,16.4081633 9.36714443,16.4081633 C11.7783903,16.4081633 13.1477398,15.4081633 14.030871,14.5102041 C14.755237,13.7653061 15.2216097,12.7040816 15.4002205,11.244898 L9.36714443,11.244898 L9.36714443,8.64285714 L17.8610805,8.64285714 C17.9503859,9.10204082 18,9.66326531 18,10.2653061 C18,12.2142857 17.4840132,14.622449 15.8169791,16.3367347 C14.1896362,18.0714286 12.1256891,19 9.36714443,19 Z" id="Shape"></path>
            <path d="M32,13 C32,16.4557596 29.3096447,19 26,19 C22.6903553,19 20,16.4557596 20,13 C20,9.52420701 22.6903553,7 26,7 C29.3096447,7 32,9.52420701 32,13 Z M29.3705584,13 C29.3705584,10.836394 27.8071066,9.3639399 26,9.3639399 C24.1928934,9.3639399 22.6294416,10.8464107 22.6294416,13 C22.6294416,15.1335559 24.1928934,16.6360601 26,16.6360601 C27.8071066,16.6360601 29.3705584,15.1435726 29.3705584,13 Z" id="Shape"></path>
            <path d="M45,13 C45,16.4557596 42.3096447,19 39,19 C35.7005076,19 33,16.4557596 33,13 C33,9.52420701 35.6903553,7 39,7 C42.3096447,7 45,9.52420701 45,13 Z M42.3807107,13 C42.3807107,10.836394 40.8172589,9.3639399 39.0101523,9.3639399 C37.2030457,9.3639399 35.6395939,10.8464107 35.6395939,13 C35.6395939,15.1335559 37.2030457,16.6360601 39.0101523,16.6360601 C40.8172589,16.6460768 42.3807107,15.1435726 42.3807107,13 Z" id="Shape"></path>
            <path d="M57,7.3621186 L57,17.8929188 C57,22.228555 54.5013055,24 51.5430809,24 C48.7571802,24 47.0913838,22.0915371 46.45953,20.5354059 L48.6518712,19.6056419 C49.0443864,20.5647668 50.0017406,21.6902706 51.5430809,21.6902706 C53.4386423,21.6902706 54.6066144,20.4864709 54.6066144,18.2452504 L54.6066144,17.4035694 L54.5204526,17.4035694 C53.9556136,18.1180196 52.8642298,18.7345999 51.4952132,18.7345999 C48.6231506,18.7345999 46,16.1801957 46,12.8917674 C46,9.58376511 48.6327241,7 51.4952132,7 C52.8642298,7 53.9556136,7.6263673 54.5204526,8.31145653 L54.6066144,8.31145653 L54.6066144,7.3621186 L57,7.3621186 Z M54.7789382,12.9015544 C54.7789382,10.8364997 53.4290688,9.31951641 51.7154047,9.31951641 C49.97302,9.31951641 48.5178416,10.8267127 48.5178416,12.9015544 C48.5178416,14.9470351 49.97302,16.4346575 51.7154047,16.4346575 C53.4290688,16.4346575 54.7789382,14.9470351 54.7789382,12.9015544 Z" id="Shape"></path>
            <polygon id="Shape" points="63 1 63 19 60 19 60 1"></polygon>
            <path d="M72.8441203,14.9732888 L74.8896992,16.3355593 C74.2278943,17.3171953 72.633546,19 69.8760255,19 C66.4567001,19 64,16.3656093 64,13 C64,9.43405676 66.4867821,7 69.5852325,7 C72.7037375,7 74.2278943,9.47412354 74.7292616,10.8163606 L75,11.4974958 L66.9680948,14.8230384 C67.579763,16.0250417 68.5423883,16.6460768 69.8860529,16.6460768 C71.2297174,16.6460768 72.1622607,15.9749583 72.8441203,14.9732888 Z M66.5369189,12.8096828 L71.911577,10.5859766 C71.6107566,9.83472454 70.72835,9.31385643 69.6754786,9.31385643 C68.331814,9.31385643 66.4667274,10.4958264 66.5369189,12.8096828 Z" id="Shape"></path>
        </g>
    </g>
</svg>
