<?xml version="1.0" encoding="UTF-8"?>
<svg width="252px" height="24px" viewBox="0 0 252 24" version="1.1" xmlns="http://www.w3.org/2000/svg" xmlns:xlink="http://www.w3.org/1999/xlink">
    <!-- Generator: Sketch 51.3 (57544) - http://www.bohemiancoding.com/sketch -->
    <title>SwG-SE-WOB</title>
    <desc>Created with Sketch.</desc>
    <defs></defs>
    <g id="SwG-SE-WOB" stroke="none" stroke-width="1" fill="none" fill-rule="evenodd">
        <path d="M7.63637491,19.368 C6.77770395,19.368 6.00721166,19.1840018 5.32487491,18.816 C4.64253817,18.4479982 4.13270993,17.9880028 3.79537491,17.436 L3.70337491,17.436 L3.79537491,19 L3.79537491,23.968 L1.67937491,23.968 L1.67937491,7.73 L3.70337491,7.73 L3.70337491,9.294 L3.79537491,9.294 C4.13270993,8.74199724 4.64253817,8.28200184 5.32487491,7.914 C6.00721166,7.54599816 6.77770395,7.362 7.63637491,7.362 C9.09304886,7.362 10.3503696,7.93699425 11.4083749,9.087 C12.4663802,10.2370057 12.9953749,11.6629915 12.9953749,13.365 C12.9953749,15.0670085 12.4663802,16.4929943 11.4083749,17.643 C10.3503696,18.7930057 9.09304886,19.368 7.63637491,19.368 Z M7.29137491,17.436 C8.27271315,17.436 9.11603805,17.0641704 9.82137491,16.3205 C10.5267118,15.5768296 10.8793749,14.5916728 10.8793749,13.365 C10.8793749,12.1383272 10.5267118,11.1531704 9.82137491,10.4095 C9.11603805,9.66582962 8.27271315,9.294 7.29137491,9.294 C6.29470326,9.294 5.44754507,9.66199632 4.74987491,10.398 C4.05220476,11.1340037 3.70337491,12.1229938 3.70337491,13.365 C3.70337491,14.6070062 4.05220476,15.5959963 4.74987491,16.332 C5.44754507,17.0680037 6.29470326,17.436 7.29137491,17.436 Z M17.0721249,19 L14.9561249,19 L14.9561249,7.73 L16.9801249,7.73 L16.9801249,9.57 L17.0721249,9.57 C17.2867927,8.9566636 17.7276216,8.45066866 18.3946249,8.052 C19.0616283,7.65333134 19.7094551,7.454 20.3381249,7.454 C20.9667947,7.454 21.4957894,7.54599908 21.9251249,7.73 L21.1201249,9.708 C20.8441235,9.60066613 20.4684606,9.547 19.9931249,9.547 C19.2264544,9.547 18.5479612,9.84983031 17.9576249,10.4555 C17.3672886,11.0611697 17.0721249,11.8546618 17.0721249,12.836 L17.0721249,19 Z M27.8648749,19.368 C26.1628664,19.368 24.7790469,18.8006723 23.7133749,17.666 C22.6477029,16.5313277 22.1148749,15.0976753 22.1148749,13.365 C22.1148749,11.7243251 22.6323698,10.3136726 23.6673749,9.133 C24.7023801,7.95232743 26.0248669,7.362 27.6348749,7.362 C29.3062166,7.362 30.6440366,7.90632789 31.6483749,8.995 C32.6527133,10.0836721 33.1548749,11.5403242 33.1548749,13.365 L33.1318749,13.756 L24.2308749,13.756 C24.2922086,14.8906723 24.6717048,15.7876634 25.3693749,16.447 C26.0670451,17.1063366 26.8835369,17.436 27.8188749,17.436 C29.3368825,17.436 30.3642056,16.7920064 30.9008749,15.504 L32.7868749,16.286 C32.4188731,17.1600044 31.8132125,17.8921637 30.9698749,18.4825 C30.1265374,19.0728363 29.0915477,19.368 27.8648749,19.368 Z M30.9008749,12.008 C30.8548747,11.3639968 30.559711,10.7506696 30.0153749,10.168 C29.4710389,9.58533042 28.6622136,9.294 27.5888749,9.294 C26.806871,9.294 26.1283778,9.53933088 25.5533749,10.03 C24.9783721,10.5206691 24.5835427,11.1799959 24.3688749,12.008 L30.9008749,12.008 Z M37.2546249,7.73 L37.2546249,9.294 L37.3466249,9.294 C37.6532931,8.75733065 38.1362883,8.30116854 38.7956249,7.9255 C39.4549616,7.54983145 40.1602879,7.362 40.9116249,7.362 C42.3069653,7.362 43.3726213,7.79132904 44.1086249,8.65 C44.8446286,9.50867096 45.2126249,10.6586595 45.2126249,12.1 L45.2126249,19 L43.0966249,19 L43.0966249,12.422 C43.0966249,10.3366562 42.1689676,9.294 40.3136249,9.294 C39.4396206,9.294 38.7266277,9.64282985 38.1746249,10.3405 C37.6226222,11.0381702 37.3466249,11.8469954 37.3466249,12.767 L37.3466249,19 L35.2306249,19 L35.2306249,7.73 L37.2546249,7.73 Z M57.730375,19 L55.706375,19 L55.706375,17.436 L55.614375,17.436 C55.2923733,17.9726694 54.8017116,18.4288315 54.142375,18.8045 C53.4830383,19.1801685 52.7853786,19.368 52.049375,19.368 C50.6387012,19.368 49.5692119,18.938671 48.840875,18.08 C48.112538,17.221329 47.748375,16.0713405 47.748375,14.63 L47.748375,7.73 L49.864375,7.73 L49.864375,14.285 C49.864375,16.3856772 50.7920323,17.436 52.647375,17.436 C53.5213793,17.436 54.2343722,17.0833369 54.786375,16.378 C55.3383777,15.6726631 55.614375,14.8600046 55.614375,13.94 L55.614375,7.73 L57.730375,7.73 L57.730375,19 Z M60.450125,19 L60.450125,7.73 L62.474125,7.73 L62.474125,9.294 L62.566125,9.294 C62.8881266,8.75733065 63.3826216,8.30116854 64.049625,7.9255 C64.7166283,7.54983145 65.3797883,7.362 66.039125,7.362 C67.7871337,7.362 68.9754552,8.08265946 69.604125,9.524 C70.5241296,8.08265946 71.8351165,7.362 73.537125,7.362 C74.8711316,7.362 75.8754549,7.78749575 76.550125,8.6385 C77.224795,9.48950426 77.562125,10.6433261 77.562125,12.1 L77.562125,19 L75.446125,19 L75.446125,12.422 C75.446125,11.2873277 75.239127,10.4823357 74.825125,10.007 C74.4111229,9.53166429 73.7824625,9.294 72.939125,9.294 C72.1111208,9.294 71.424961,9.64666314 70.880625,10.352 C70.3362889,11.0573369 70.064125,11.8623288 70.064125,12.767 L70.064125,19 L67.948125,19 L67.948125,12.422 C67.948125,11.2873277 67.741127,10.4823357 67.327125,10.007 C66.9131229,9.53166429 66.2844625,9.294 65.441125,9.294 C64.6131208,9.294 63.926961,9.64666314 63.382625,10.352 C62.8382889,11.0573369 62.566125,11.8623288 62.566125,12.767 L62.566125,19 L60.450125,19 Z M85.295875,19.368 C83.5938665,19.368 82.210047,18.8006723 81.144375,17.666 C80.078703,16.5313277 79.545875,15.0976753 79.545875,13.365 C79.545875,11.7243251 80.0633698,10.3136726 81.098375,9.133 C82.1333802,7.95232743 83.4558669,7.362 85.065875,7.362 C86.7372167,7.362 88.0750366,7.90632789 89.079375,8.995 C90.0837133,10.0836721 90.585875,11.5403242 90.585875,13.365 L90.562875,13.756 L81.661875,13.756 C81.7232086,14.8906723 82.1027048,15.7876634 82.800375,16.447 C83.4980451,17.1063366 84.314537,17.436 85.249875,17.436 C86.7678826,17.436 87.7952056,16.7920064 88.331875,15.504 L90.217875,16.286 C89.8498731,17.1600044 89.2442125,17.8921637 88.400875,18.4825 C87.5575374,19.0728363 86.5225478,19.368 85.295875,19.368 Z M88.331875,12.008 C88.2858748,11.3639968 87.990711,10.7506696 87.446375,10.168 C86.9020389,9.58533042 86.0932137,9.294 85.019875,9.294 C84.2378711,9.294 83.5593779,9.53933088 82.984375,10.03 C82.4093721,10.5206691 82.0145427,11.1799959 81.799875,12.008 L88.331875,12.008 Z M94.777625,19 L92.661625,19 L92.661625,7.73 L94.685625,7.73 L94.685625,9.57 L94.777625,9.57 C94.9922927,8.9566636 95.4331217,8.45066866 96.100125,8.052 C96.7671283,7.65333134 97.4149552,7.454 98.043625,7.454 C98.6722948,7.454 99.2012895,7.54599908 99.630625,7.73 L98.825625,9.708 C98.5496236,9.60066613 98.1739607,9.547 97.698625,9.547 C96.9319545,9.547 96.2534613,9.84983031 95.663125,10.4555 C95.0727887,11.0611697 94.777625,11.8546618 94.777625,12.836 L94.777625,19 Z M105.570375,19.368 C103.868366,19.368 102.484547,18.8006723 101.418875,17.666 C100.353203,16.5313277 99.820375,15.0976753 99.820375,13.365 C99.820375,11.7243251 100.33787,10.3136726 101.372875,9.133 C102.40788,7.95232743 103.730367,7.362 105.340375,7.362 C107.011717,7.362 108.349537,7.90632789 109.353875,8.995 C110.358213,10.0836721 110.860375,11.5403242 110.860375,13.365 L110.837375,13.756 L101.936375,13.756 C101.997709,14.8906723 102.377205,15.7876634 103.074875,16.447 C103.772545,17.1063366 104.589037,17.436 105.524375,17.436 C107.042383,17.436 108.069706,16.7920064 108.606375,15.504 L110.492375,16.286 C110.124373,17.1600044 109.518713,17.8921637 108.675375,18.4825 C107.832037,19.0728363 106.797048,19.368 105.570375,19.368 Z M108.606375,12.008 C108.560375,11.3639968 108.265211,10.7506696 107.720875,10.168 C107.176539,9.58533042 106.367714,9.294 105.294375,9.294 C104.512371,9.294 103.833878,9.53933088 103.258875,10.03 C102.683872,10.5206691 102.289043,11.1799959 102.074375,12.008 L108.606375,12.008 Z M115.052125,19 L112.936125,19 L112.936125,7.73 L114.960125,7.73 L114.960125,9.57 L115.052125,9.57 C115.266793,8.9566636 115.707622,8.45066866 116.374625,8.052 C117.041628,7.65333134 117.689455,7.454 118.318125,7.454 C118.946795,7.454 119.47579,7.54599908 119.905125,7.73 L119.100125,9.708 C118.824124,9.60066613 118.448461,9.547 117.973125,9.547 C117.206455,9.547 116.527961,9.84983031 115.937625,10.4555 C115.347289,11.0611697 115.052125,11.8546618 115.052125,12.836 L115.052125,19 Z M124.533875,19.368 C123.337869,19.368 122.337379,19.0230035 121.532375,18.333 C120.727371,17.6429965 120.324875,16.7306723 120.324875,15.596 C120.324875,14.3693272 120.800204,13.4071702 121.750875,12.7095 C122.701546,12.0118298 123.874535,11.663 125.269875,11.663 C126.511881,11.663 127.531538,11.8929977 128.328875,12.353 L128.328875,12.031 C128.328875,11.2029959 128.045211,10.5398358 127.477875,10.0415 C126.910539,9.54316418 126.212879,9.294 125.384875,9.294 C124.771539,9.294 124.215711,9.43966521 123.717375,9.731 C123.219039,10.0223348 122.877876,10.4209975 122.693875,10.927 L120.761875,10.099 C121.022543,9.42432996 121.536205,8.79950287 122.302875,8.2245 C123.069546,7.64949712 124.081535,7.362 125.338875,7.362 C126.780216,7.362 127.976204,7.78366245 128.926875,8.627 C129.877546,9.47033755 130.352875,10.658659 130.352875,12.192 L130.352875,19 L128.328875,19 L128.328875,17.436 L128.236875,17.436 C127.393537,18.7240064 126.159216,19.368 124.533875,19.368 Z M124.878875,17.436 C125.752879,17.436 126.546371,17.1101699 127.259375,16.4585 C127.972379,15.8068301 128.328875,15.0363378 128.328875,14.147 C127.730872,13.6563309 126.833881,13.411 125.637875,13.411 C124.610537,13.411 123.836211,13.6333311 123.314875,14.078 C122.793539,14.5226689 122.532875,15.043997 122.532875,15.642 C122.532875,16.1940028 122.770539,16.6309984 123.245875,16.953 C123.721211,17.2750016 124.265539,17.436 124.878875,17.436 Z M135.004625,19 L132.888625,19 L132.888625,7.73 L134.912625,7.73 L134.912625,9.57 L135.004625,9.57 C135.219293,8.9566636 135.660122,8.45066866 136.327125,8.052 C136.994128,7.65333134 137.641955,7.454 138.270625,7.454 C138.899295,7.454 139.42829,7.54599908 139.857625,7.73 L139.052625,9.708 C138.776624,9.60066613 138.400961,9.547 137.925625,9.547 C137.158955,9.547 136.480461,9.84983031 135.890125,10.4555 C135.299789,11.0611697 135.004625,11.8546618 135.004625,12.836 L135.004625,19 Z M152.450125,19.368 C151.591454,19.368 150.820962,19.1840018 150.138625,18.816 C149.456288,18.4479982 148.94646,17.9880028 148.609125,17.436 L148.517125,17.436 L148.609125,19 L148.609125,23.968 L146.493125,23.968 L146.493125,7.73 L148.517125,7.73 L148.517125,9.294 L148.609125,9.294 C148.94646,8.74199724 149.456288,8.28200184 150.138625,7.914 C150.820962,7.54599816 151.591454,7.362 152.450125,7.362 C153.906799,7.362 155.16412,7.93699425 156.222125,9.087 C157.28013,10.2370057 157.809125,11.6629915 157.809125,13.365 C157.809125,15.0670085 157.28013,16.4929943 156.222125,17.643 C155.16412,18.7930057 153.906799,19.368 152.450125,19.368 Z M152.105125,17.436 C153.086463,17.436 153.929788,17.0641704 154.635125,16.3205 C155.340462,15.5768296 155.693125,14.5916728 155.693125,13.365 C155.693125,12.1383272 155.340462,11.1531704 154.635125,10.4095 C153.929788,9.66582962 153.086463,9.294 152.105125,9.294 C151.108453,9.294 150.261295,9.66199632 149.563625,10.398 C148.865955,11.1340037 148.517125,12.1229938 148.517125,13.365 C148.517125,14.6070062 148.865955,15.5959963 149.563625,16.332 C150.261295,17.0680037 151.108453,17.436 152.105125,17.436 Z M163.449875,19.368 C162.253869,19.368 161.253379,19.0230035 160.448375,18.333 C159.643371,17.6429965 159.240875,16.7306723 159.240875,15.596 C159.240875,14.3693272 159.716204,13.4071702 160.666875,12.7095 C161.617546,12.0118298 162.790535,11.663 164.185875,11.663 C165.427881,11.663 166.447538,11.8929977 167.244875,12.353 L167.244875,12.031 C167.244875,11.2029959 166.961211,10.5398358 166.393875,10.0415 C165.826539,9.54316418 165.128879,9.294 164.300875,9.294 C163.687539,9.294 163.131711,9.43966521 162.633375,9.731 C162.135039,10.0223348 161.793876,10.4209975 161.609875,10.927 L159.677875,10.099 C159.938543,9.42432996 160.452205,8.79950287 161.218875,8.2245 C161.985546,7.64949712 162.997535,7.362 164.254875,7.362 C165.696216,7.362 166.892204,7.78366245 167.842875,8.627 C168.793546,9.47033755 169.268875,10.658659 169.268875,12.192 L169.268875,19 L167.244875,19 L167.244875,17.436 L167.152875,17.436 C166.309538,18.7240064 165.075217,19.368 163.449875,19.368 Z M163.794875,17.436 C164.668879,17.436 165.462372,17.1101699 166.175375,16.4585 C166.888379,15.8068301 167.244875,15.0363378 167.244875,14.147 C166.646872,13.6563309 165.749881,13.411 164.553875,13.411 C163.526537,13.411 162.752211,13.6333311 162.230875,14.078 C161.709539,14.5226689 161.448875,15.043997 161.448875,15.642 C161.448875,16.1940028 161.686539,16.6309984 162.161875,16.953 C162.637211,17.2750016 163.181539,17.436 163.794875,17.436 Z M166.186875,5.338 C165.726873,5.7980023 165.167212,6.028 164.507875,6.028 C163.848538,6.028 163.285044,5.79416901 162.817375,5.3265 C162.349706,4.85883099 162.115875,4.29533663 162.115875,3.636 C162.115875,2.96132996 162.349706,2.3940023 162.817375,1.934 C163.285044,1.4739977 163.848538,1.244 164.507875,1.244 C165.167212,1.244 165.730706,1.477831 166.198375,1.9455 C166.666044,2.41316901 166.899875,2.97666337 166.899875,3.636 C166.899875,4.29533663 166.662211,4.86266429 166.186875,5.338 Z M163.794875,4.372 C163.994209,4.57133433 164.231874,4.671 164.507875,4.671 C164.783876,4.671 165.021541,4.56750103 165.220875,4.3605 C165.420209,4.15349897 165.519875,3.91200138 165.519875,3.636 C165.519875,3.35999862 165.420209,3.12233433 165.220875,2.923 C165.021541,2.72366567 164.783876,2.624 164.507875,2.624 C164.231874,2.624 163.994209,2.72366567 163.794875,2.923 C163.595541,3.12233433 163.495875,3.35999862 163.495875,3.636 C163.495875,3.91200138 163.595541,4.15733226 163.794875,4.372 Z" id="prenumererar-på" fill="#FFFFFF"></path>
        <g id="Group" transform="translate(177.000000, 0.000000)" fill="#FFFFFF" fill-rule="nonzero">
            <path d="M9.36714443,19 C4.27673649,19 0,14.7346939 0,9.5 C0,4.26530612 4.27673649,0 9.36714443,0 C12.185226,0 14.1896362,1.13265306 15.6979052,2.62244898 L13.92172,4.44897959 C12.8401323,3.40816327 11.3715546,2.59183673 9.36714443,2.59183673 C5.646086,2.59183673 2.73869901,5.67346939 2.73869901,9.5 C2.73869901,13.3265306 5.646086,16.4081633 9.36714443,16.4081633 C11.7783903,16.4081633 13.1477398,15.4081633 14.030871,14.5102041 C14.755237,13.7653061 15.2216097,12.7040816 15.4002205,11.244898 L9.36714443,11.244898 L9.36714443,8.64285714 L17.8610805,8.64285714 C17.9503859,9.10204082 18,9.66326531 18,10.2653061 C18,12.2142857 17.4840132,14.622449 15.8169791,16.3367347 C14.1896362,18.0714286 12.1256891,19 9.36714443,19 Z" id="Shape"></path>
            <path d="M32,13 C32,16.4557596 29.3096447,19 26,19 C22.6903553,19 20,16.4557596 20,13 C20,9.52420701 22.6903553,7 26,7 C29.3096447,7 32,9.52420701 32,13 Z M29.3705584,13 C29.3705584,10.836394 27.8071066,9.3639399 26,9.3639399 C24.1928934,9.3639399 22.6294416,10.8464107 22.6294416,13 C22.6294416,15.1335559 24.1928934,16.6360601 26,16.6360601 C27.8071066,16.6360601 29.3705584,15.1435726 29.3705584,13 Z" id="Shape"></path>
            <path d="M45,13 C45,16.4557596 42.3096447,19 39,19 C35.7005076,19 33,16.4557596 33,13 C33,9.52420701 35.6903553,7 39,7 C42.3096447,7 45,9.52420701 45,13 Z M42.3807107,13 C42.3807107,10.836394 40.8172589,9.3639399 39.0101523,9.3639399 C37.2030457,9.3639399 35.6395939,10.8464107 35.6395939,13 C35.6395939,15.1335559 37.2030457,16.6360601 39.0101523,16.6360601 C40.8172589,16.6460768 42.3807107,15.1435726 42.3807107,13 Z" id="Shape"></path>
            <path d="M57,7.3621186 L57,17.8929188 C57,22.228555 54.5013055,24 51.5430809,24 C48.7571802,24 47.0913838,22.0915371 46.45953,20.5354059 L48.6518712,19.6056419 C49.0443864,20.5647668 50.0017406,21.6902706 51.5430809,21.6902706 C53.4386423,21.6902706 54.6066144,20.4864709 54.6066144,18.2452504 L54.6066144,17.4035694 L54.5204526,17.4035694 C53.9556136,18.1180196 52.8642298,18.7345999 51.4952132,18.7345999 C48.6231506,18.7345999 46,16.1801957 46,12.8917674 C46,9.58376511 48.6327241,7 51.4952132,7 C52.8642298,7 53.9556136,7.6263673 54.5204526,8.31145653 L54.6066144,8.31145653 L54.6066144,7.3621186 L57,7.3621186 Z M54.7789382,12.9015544 C54.7789382,10.8364997 53.4290688,9.31951641 51.7154047,9.31951641 C49.97302,9.31951641 48.5178416,10.8267127 48.5178416,12.9015544 C48.5178416,14.9470351 49.97302,16.4346575 51.7154047,16.4346575 C53.4290688,16.4346575 54.7789382,14.9470351 54.7789382,12.9015544 Z" id="Shape"></path>
            <polygon id="Shape" points="63 1 63 19 60 19 60 1"></polygon>
            <path d="M72.8441203,14.9732888 L74.8896992,16.3355593 C74.2278943,17.3171953 72.633546,19 69.8760255,19 C66.4567001,19 64,16.3656093 64,13 C64,9.43405676 66.4867821,7 69.5852325,7 C72.7037375,7 74.2278943,9.47412354 74.7292616,10.8163606 L75,11.4974958 L66.9680948,14.8230384 C67.579763,16.0250417 68.5423883,16.6460768 69.8860529,16.6460768 C71.2297174,16.6460768 72.1622607,15.9749583 72.8441203,14.9732888 Z M66.5369189,12.8096828 L71.911577,10.5859766 C71.6107566,9.83472454 70.72835,9.31385643 69.6754786,9.31385643 C68.331814,9.31385643 66.4667274,10.4958264 66.5369189,12.8096828 Z" id="Shape"></path>
        </g>
    </g>
</svg>