<svg width="258" height="26" viewBox="0 0 258 26" xmlns="http://www.w3.org/2000/svg"><title>SwG-TH-Black</title><desc>Created with Sketch.</desc><g fill="none"><path d="M11.06 8.41c.246.264.446.596.602.997.228.569.341 1.153.341 1.752v8.841h-2.138v-1.177c0-1.114-.359-2.402-1.078-3.863-.916-1.851-1.914-2.776-2.992-2.776-.707 0-1.189.392-1.446 1.177-.114.365-.171.827-.171 1.384 0 .323.024.677.072 1.06.282-.102.551-.153.809-.153.629 0 1.159.217 1.59.651.431.434.647.966.647 1.595 0 .479-.159.937-.476 1.375-.335.473-.731.74-1.186.8-.359.042-.605.063-.737.063-.779 0-1.443-.282-1.995-.845-.587-.587-.88-1.722-.88-3.405 0-1.833.293-3.127.88-3.881.641-.845 1.488-1.267 2.543-1.267.599 0 1.231.159 1.896.476.773.365 1.503 1.153 2.192 2.363l.332.629v-2.695c0-.934-.162-1.638-.485-2.111-.491-.707-1.423-1.06-2.794-1.06-1.234 0-2.201.217-2.902.651-.701.434-1.15.924-1.348 1.469l-1.177-.916.773-.961c.419-.401.839-.71 1.258-.925.419-.216.946-.398 1.581-.548.557-.126 1.18-.189 1.869-.189 1.228 0 2.225.165 2.992.494.27-.186.476-.386.62-.602.21-.27.314-.629.314-1.078l2.282.584c0 .689-.386 1.279-1.159 1.77-.216.138-.425.246-.629.323zm-5.031 9.487c0-.27-.093-.502-.279-.696-.186-.195-.416-.292-.692-.292-.258 0-.479.1-.665.301-.186.201-.279.43-.279.687 0 .264.093.493.279.687.186.195.407.292.665.292.27 0 .499-.096.687-.288.189-.192.283-.422.283-.692zm18.346-10.745h2.12v10.413c0 .958-.159 1.584-.476 1.878-.341.437-.821.656-1.438.656-.246 0-.488-.165-.728-.494l-.871-1.312c-.341-.515-.674-.916-.997-1.204-.737-.659-1.479-1.033-2.228-1.123v2.3c0 .803-.282 1.348-.845 1.635-.389.198-.874.296-1.455.296-.341 0-.617-.033-.827-.099-.737-.21-1.273-.689-1.608-1.438-.174-.377-.261-.809-.261-1.294 0-1.288.452-2.174 1.357-2.659.557-.305 1.051-.458 1.482-.458v-2.875l-.332.036-.323.018c-.611 0-1.131-.21-1.559-.629-.428-.419-.642-.937-.642-1.554 0-.485.159-.949.476-1.393.341-.473.743-.74 1.204-.8.365-.042.617-.063.755-.063.809 0 1.449.261 1.923.782.437.491.656 1.114.656 1.869v4.798c.737.036 1.533.344 2.39.925.066.048.419.365 1.06.952.605.557.916.833.934.827.156-.048.234-.252.234-.611v-9.38zm-8.4 2.093c0 .252.099.476.296.674.198.198.422.296.674.296.27 0 .508-.096.714-.287.207-.192.31-.419.31-.683 0-.282-.1-.518-.301-.71-.201-.192-.442-.287-.723-.287-.264 0-.491.1-.683.301-.192.201-.287.433-.287.696zm.35 7.816l-.009.153v.144c0 .407.051.707.153.898.15.311.344.467.584.467.365 0 .548-.195.548-.584v-2.282l-.216-.036c-.204 0-.401.072-.593.216-.311.359-.467.701-.467 1.024zm12.129-14.42c.833-.629 1.249-1.476 1.249-2.543h2.138c0 1.162-.572 2.213-1.716 3.154-1.228 1.018-2.552 1.527-3.971 1.527-1.33 0-2.336-.168-3.019-.503-.916-.413-1.375-1.099-1.375-2.057 0-.605.207-1.123.62-1.554.467-.413 1.009-.62 1.626-.62.647 0 1.174.174 1.581.521.473.407.71.925.71 1.554 0 .599-.174 1.063-.521 1.393l.153.009c.964 0 1.806-.293 2.525-.88zm-5.427-.44c0 .27.096.511.288.723.192.213.422.319.692.319.282 0 .526-.102.732-.305.207-.204.31-.449.31-.737 0-.27-.108-.508-.323-.714-.216-.207-.455-.31-.719-.31-.264 0-.493.105-.687.314-.195.21-.292.446-.292.71zm10.62 17.798h-2.552l.013-.256.013-.265c0-.737-.087-1.62-.261-2.65-.198-.785-.476-1.971-.836-3.558-.084-.401-.126-.868-.126-1.402 0-1.551.56-2.788 1.68-3.711 1.006-.827 2.387-1.24 4.142-1.24 1.881 0 3.297.392 4.25 1.177.922.767 1.384 1.866 1.384 3.297v8.607h-2.156v-8.724c0-.88-.27-1.581-.809-2.102-.581-.557-1.482-.836-2.704-.836-1.012 0-1.854.295-2.525.885-.671.59-1.006 1.466-1.006 2.628 0 .551.036.994.108 1.33.054.234.129.59.225 1.069.042.264.084.602.126 1.015l.036.485c0-.371.075-.883.225-1.536.084-.395.228-.913.431-1.554.18-.677.413-1.216.701-1.617.335-.479.854-.719 1.554-.719 1.186 0 1.965.416 2.336 1.249.144.335.216.653.216.952 0 .647-.177 1.162-.53 1.545-.479.509-1.084.764-1.815.764-.407 0-.794-.123-1.159-.368-.449 1.096-.734 2.492-.854 4.187l-.108 1.348zm2.156-8.391c-.653 0-.979.326-.979.979 0 .264.096.49.288.678.192.189.422.283.692.283.252 0 .475-.097.669-.292.195-.195.292-.418.292-.669 0-.276-.093-.508-.279-.696-.186-.189-.413-.283-.683-.283zm12.21-.126c-.743-.138-1.479-.222-2.21-.252-.329-.012-.617-.018-.863-.018-.713 0-1.099.021-1.159.063l-.027-.261c0-.797.261-1.602.782-2.417.665-1.036 1.752-1.554 3.261-1.554.419 0 1.006.109 1.761.328.755.219 1.312.328 1.671.328.701 0 1.18-.219 1.438-.656l1.572.818c-.084.228-.258.464-.521.71-.377.353-.8.554-1.267.602-.27.03-.452.045-.548.045-.473 0-1.132-.135-1.977-.404-.761-.234-1.342-.35-1.743-.35-.725 0-1.291.183-1.698.548-.264.222-.476.545-.638.97.701 0 1.524.072 2.471.216 1.102.174 1.995.416 2.677.728.683.311 1.147.692 1.393 1.141.204.359.305.731.305 1.114v4.348c0 .749-.243 1.387-.728 1.914-.455.497-1.048.746-1.779.746-.815 0-1.452-.255-1.914-.764-.377-.407-.566-.904-.566-1.491 0-.635.21-1.16.629-1.577.419-.416.946-.624 1.581-.624.276 0 .482.024.62.072v-2.444c0-.389-.096-.71-.288-.961-.299-.395-1.045-.701-2.237-.916zm1.905 7.439c.27 0 .499-.097.687-.292.189-.195.283-.427.283-.696 0-.27-.096-.5-.288-.692-.192-.192-.419-.288-.683-.288-.276 0-.511.094-.705.283-.195.189-.292.421-.292.696 0 .276.096.509.288.701.192.192.428.288.71.288zm9.227-7.439c-.743-.138-1.479-.222-2.21-.252-.329-.012-.617-.018-.862-.018-.713 0-1.099.021-1.159.063l-.027-.261c0-.797.261-1.602.782-2.417.665-1.036 1.752-1.554 3.261-1.554.419 0 1.006.109 1.761.328.755.219 1.312.328 1.671.328.701 0 1.18-.219 1.438-.656l1.572.818c-.084.228-.258.464-.521.71-.377.353-.8.554-1.267.602-.27.03-.452.045-.548.045-.473 0-1.132-.135-1.977-.404-.761-.234-1.342-.35-1.743-.35-.725 0-1.291.183-1.698.548-.264.222-.476.545-.638.97.701 0 1.524.072 2.471.216 1.102.174 1.995.416 2.677.728.683.311 1.147.692 1.393 1.141.204.359.305.731.305 1.114v4.348c0 .749-.243 1.387-.728 1.914-.455.497-1.048.746-1.779.746-.815 0-1.452-.255-1.914-.764-.377-.407-.566-.904-.566-1.491 0-.635.21-1.16.629-1.577.419-.416.946-.624 1.581-.624.276 0 .482.024.62.072v-2.444c0-.389-.096-.71-.288-.961-.299-.395-1.045-.701-2.237-.916zm1.905 7.439c.27 0 .499-.097.687-.292.189-.195.283-.427.283-.696 0-.27-.096-.5-.288-.692-.192-.192-.419-.288-.683-.288-.276 0-.511.094-.705.283-.195.189-.292.421-.292.696 0 .276.096.509.287.701.192.192.428.288.71.288zm3.306-16.28c.833-.629 1.249-1.476 1.249-2.543h2.138c0 1.162-.572 2.213-1.716 3.154-1.228 1.018-2.552 1.527-3.971 1.527-1.33 0-2.336-.168-3.019-.503-.916-.413-1.375-1.099-1.375-2.057 0-.605.207-1.123.62-1.554.467-.413 1.009-.62 1.626-.62.647 0 1.174.174 1.581.521.473.407.71.925.71 1.554 0 .599-.174 1.063-.521 1.393l.153.009c.964 0 1.806-.293 2.525-.88zm-5.427-.44c0 .27.096.511.288.723.192.213.422.319.692.319.282 0 .526-.102.732-.305.207-.204.31-.449.31-.737 0-.27-.108-.508-.323-.714-.216-.207-.455-.31-.719-.31-.264 0-.493.105-.687.314-.195.21-.292.446-.292.71zm11.554 5.498c.509.551.764 1.198.764 1.941v8.733h4.402c.299 0 .554-.108.764-.323.138-.132.207-.389.207-.773v-10.125h2.174v10.377c0 .719-.153 1.288-.458 1.707-.383.509-1.015.764-1.896.764h-8.472v-1.626h1.15v-6.999c-.258.036-.476.054-.656.054-.617 0-1.147-.21-1.59-.629-.443-.419-.665-.937-.665-1.554 0-.485.159-.949.476-1.393.353-.473.764-.74 1.231-.8.365-.042.62-.063.764-.063.779 0 1.381.237 1.806.71zm-2.992 1.545c0 .258.096.484.288.678.192.195.419.292.683.292.264 0 .491-.096.683-.287.192-.192.288-.419.288-.683 0-.276-.094-.511-.283-.705-.189-.195-.418-.292-.687-.292-.276 0-.506.097-.692.292-.186.195-.279.43-.279.705zm24.671-2.093v10.377c0 .665-.156 1.219-.467 1.662-.533.539-1.234.809-2.102.809h-6.505v-1.599h1.312v-2.516c0-.641.389-1.435 1.168-2.381.641-.779 1.066-1.435 1.276-1.968.15-.395.225-.824.225-1.285 0-.515-.153-.958-.458-1.33-.329-.413-.743-.62-1.24-.62h-.162l-.153-.009c-.731 0-1.162.177-1.294.53.671 0 1.153.234 1.446.701.305.491.458.94.458 1.348 0 .377-.105.752-.314 1.123-.228.401-.509.659-.845.773-.419.156-.773.234-1.06.234-.461 0-.913-.162-1.357-.485-.461-.347-.722-.746-.782-1.195-.06-.341-.09-.593-.09-.755 0-1.078.389-1.965 1.168-2.659.677-.611 1.662-.916 2.956-.916.958 0 1.77.264 2.435.791.821.647 1.231 1.485 1.231 2.516 0 1.198-.452 2.375-1.357 3.531-.467.599-.728.946-.782 1.042-.234.383-.35.794-.35 1.231v2.3h2.596c.228 0 .464-.123.71-.368.102-.192.153-.461.153-.809v-10.071h2.183zm-9.577 3.773c0 .252.085.472.256.66.171.189.382.283.633.283.629 0 .943-.314.943-.943s-.314-.943-.943-.943c-.246 0-.455.096-.629.288-.174.192-.261.41-.261.656zm6.747-7.87c-.096.018-.231.027-.404.027-.695 0-1.21-.225-1.545-.674-.216-.276-.323-.635-.323-1.078 0-.91.449-1.503 1.348-1.779.228-.072.458-.108.692-.108.731 0 1.279.276 1.644.827.323.473.485.943.485 1.411 0 .216-.03.431-.09.647-.144.515-.386.919-.728 1.213.928-.228 1.62-.614 2.075-1.159.641-.761.961-1.563.961-2.408h2.039c0 1.378-.683 2.57-2.048 3.576-1.438 1.084-3.264 1.626-5.48 1.626v-.943c.305 0 .635-.135.988-.404.258-.258.386-.515.386-.773zm-.386-2.596c-.563 0-.845.287-.845.862.078.569.392.854.943.854.521 0 .782-.299.782-.898 0-.545-.293-.818-.88-.818zm15.193 19.406c-.288.09-.62.135-.997.135h-7.107v-6.559c0-.503.06-.886.18-1.15.096-.222.282-.482.557-.782.21-.24.464-.416.764-.53.329-.126.668-.189 1.015-.189.815 0 1.446.246 1.896.737.377.419.566.928.566 1.527 0 .617-.216 1.138-.647 1.563-.431.425-.955.638-1.572.638.066 0-.147-.027-.638-.081v3.198h4.043c.467 0 .83-.144 1.087-.431.198-.228.296-.713.296-1.455v-4.977c0-.922-.168-1.626-.503-2.111-.497-.707-1.423-1.06-2.776-1.06-1.234 0-2.216.231-2.947.692-.785.491-1.216.967-1.294 1.429l-1.186-.916c.377-.755 1.06-1.387 2.048-1.896.94-.485 2.078-.728 3.414-.728 2.647 0 4.327.806 5.04 2.417.234.545.35 1.153.35 1.824v6.541c0 .395-.081.74-.243 1.033-.329.587-.779.964-1.348 1.132zm-5.346-7.834c-.282 0-.515.1-.701.301-.186.201-.279.442-.279.723 0 .258.097.479.292.665.195.186.424.279.687.279.264 0 .491-.09.683-.27.192-.18.288-.404.288-.674 0-.282-.093-.523-.279-.723-.186-.201-.416-.301-.692-.301zm19.236-4.879h2.12v10.413c0 .958-.159 1.584-.476 1.878-.341.437-.821.656-1.438.656-.246 0-.488-.165-.728-.494l-.871-1.312c-.341-.515-.674-.916-.997-1.204-.737-.659-1.479-1.033-2.228-1.123v2.3c0 .803-.282 1.348-.845 1.635-.389.198-.874.296-1.455.296-.341 0-.617-.033-.827-.099-.737-.21-1.273-.689-1.608-1.438-.174-.377-.261-.809-.261-1.294 0-1.288.452-2.174 1.357-2.659.557-.305 1.051-.458 1.482-.458v-2.875l-.332.036-.323.018c-.611 0-1.131-.21-1.559-.629-.428-.419-.642-.937-.642-1.554 0-.485.159-.949.476-1.393.341-.473.743-.74 1.204-.8.365-.042.617-.063.755-.063.809 0 1.449.261 1.923.782.437.491.656 1.114.656 1.869v4.798c.737.036 1.533.344 2.39.925.066.048.419.365 1.06.952.605.557.916.833.934.827.156-.048.234-.252.234-.611v-9.38zm-8.4 2.093c0 .252.099.476.296.674.198.198.422.296.674.296.27 0 .508-.096.714-.287.207-.192.31-.419.31-.683 0-.282-.1-.518-.301-.71-.201-.192-.442-.287-.723-.287-.264 0-.491.1-.683.301-.192.201-.288.433-.288.696zm.35 7.816l-.009.153v.144c0 .407.051.707.153.898.15.311.344.467.584.467.365 0 .548-.195.548-.584v-2.282l-.216-.036c-.204 0-.401.072-.593.216-.311.359-.467.701-.467 1.024zm4.636 4.771c-.539 0-.848.252-.925.755 0 .671.308 1.006.925 1.006.587 0 .88-.293.88-.88l-.009-.126c0-.503-.29-.755-.871-.755zm.234 4.151v-1.662c-.12.036-.249.054-.386.054-.485 0-.952-.201-1.402-.602-.264-.234-.395-.59-.395-1.069 0-.455.168-.86.503-1.213.371-.377.862-.566 1.473-.566 1.018 0 1.662.368 1.932 1.105.108.299.162.704.162 1.213v1.5h1.545v-3.585h1.869v4.825h-5.301zm11.293-10.179c.282-.102.563-.153.845-.153.629 0 1.157.217 1.586.651.428.434.642.966.642 1.595 0 .479-.156.94-.467 1.384-.341.467-.74.731-1.195.791-.371.042-.623.063-.755.063-.761 0-1.42-.282-1.977-.845-.599-.605-.898-1.74-.898-3.405 0-1.857.287-3.151.862-3.881.659-.845 1.515-1.267 2.57-1.267.593 0 1.225.159 1.896.476.743.359 1.414 1.075 2.012 2.147.204.359.359.641.467.845v-2.695c0-.97-.15-1.674-.449-2.111-.491-.707-1.426-1.06-2.803-1.06-1.198 0-2.174.231-2.929.692-.473.293-.913.77-1.321 1.429l-1.177-.916.782-.961c.401-.389.83-.701 1.285-.934.425-.216.946-.395 1.563-.539.545-.126 1.162-.189 1.851-.189 2.641 0 4.318.806 5.031 2.417.234.539.35 1.147.35 1.824v8.841h-2.183v-1.177c0-1.18-.344-2.471-1.033-3.872-.916-1.845-1.908-2.767-2.974-2.767-.701 0-1.168.362-1.402 1.087-.156.479-.234 1.018-.234 1.617 0 .467.018.773.054.916zm1.788 2.093c0-.264-.091-.494-.274-.692-.183-.198-.406-.296-.669-.296-.276 0-.506.097-.692.292-.186.195-.279.427-.279.696 0 .27.094.5.283.692.189.192.418.288.687.288.252 0 .472-.1.66-.301.189-.201.283-.427.283-.678zm18.364 2.102v-8.724c0-.886-.27-1.587-.809-2.102-.587-.557-1.488-.836-2.704-.836-1.024 0-1.854.285-2.489.854-.719.653-1.078 1.539-1.078 2.659 0 .587.063 1.156.189 1.707l.341 1.563c.264 1.168.395 2.12.395 2.857.437-.749.997-1.605 1.68-2.57l.566-.782c-.497-.06-.976-.299-1.438-.719-.317-.288-.476-.755-.476-1.402 0-.311.051-.593.153-.845.383-.946 1.123-1.42 2.219-1.42.863 0 1.482.293 1.86.88.305.497.458 1.018.458 1.563 0 .377-.258.976-.773 1.797-.425.617-1.057 1.539-1.896 2.767-.323.473-.785 1.186-1.384 2.138l-.368.611h-2.57l.009-.256.009-.265c0-.785-.075-1.665-.225-2.641-.198-.821-.473-2.06-.827-3.72-.084-.395-.126-.848-.126-1.357 0-1.533.566-2.737 1.698-3.612 1.072-.821 2.438-1.231 4.097-1.231 1.905 0 3.324.392 4.259 1.177.904.761 1.357 1.86 1.357 3.297v8.607h-2.129zm-4.492-7.448c0 .264.103.493.31.687.207.195.439.292.696.292.27 0 .503-.096.701-.287.198-.192.296-.422.296-.692 0-.282-.096-.517-.288-.705-.192-.189-.428-.283-.71-.283-.27 0-.505.097-.705.292-.201.195-.301.427-.301.696zm3.477-9.496c-.096.018-.231.027-.404.027-.695 0-1.21-.225-1.545-.674-.216-.276-.323-.635-.323-1.078 0-.91.449-1.503 1.348-1.779.228-.072.458-.108.692-.108.731 0 1.279.276 1.644.827.323.473.485.943.485 1.411 0 .216-.03.431-.09.647-.144.515-.386.919-.728 1.213.928-.228 1.62-.614 2.075-1.159.641-.761.961-1.563.961-2.408h2.039c0 1.378-.683 2.57-2.048 3.576-1.438 1.084-3.264 1.626-5.48 1.626v-.943c.305 0 .635-.135.988-.404.258-.258.386-.515.386-.773zm-.386-2.596c-.563 0-.845.287-.845.862.078.569.392.854.943.854.521 0 .782-.299.782-.898 0-.545-.293-.818-.88-.818zm15.561 17.07c0 .725-.255 1.363-.764 1.914-.461.497-1.045.746-1.752.746-.144 0-.302-.018-.476-.054-.587-.054-1.075-.287-1.464-.701-.389-.413-.584-.913-.584-1.5 0-.623.22-1.146.66-1.568.44-.422.972-.633 1.595-.633.246 0 .464.024.656.072v-4.295c0-1.006-.138-1.716-.413-2.129-.461-.695-1.267-1.042-2.417-1.042-1.132 0-2.033.317-2.704.952-.431.407-.737.901-.916 1.482l-1.177-.755c.299-.839.806-1.557 1.518-2.156.749-.629 1.866-.943 3.351-.943 1.491 0 2.689.362 3.594 1.087.863.695 1.294 1.746 1.294 3.154v6.37zm-2.785 1.393c.647 0 .97-.329.97-.988 0-.276-.093-.508-.279-.696-.186-.189-.416-.283-.692-.283-.27 0-.503.096-.701.288-.198.192-.296.422-.296.692 0 .27.097.502.292.696.195.195.43.292.705.292zm13.791-.548c.293 0 .524-.111.692-.332.144-.186.216-.44.216-.764v-10.125h2.156v10.458c0 .647-.168 1.192-.503 1.635-.383.503-1.045.755-1.986.755h-8.023v-1.626h.862v-2.174c0-.803.171-1.44.512-1.914.401-.551.895-.874 1.482-.97-.88 0-1.595-.262-2.143-.786-.548-.524-.822-1.223-.822-2.098 0-1.102.416-1.977 1.249-2.623.755-.575 1.704-.862 2.848-.862.761 0 1.378.192 1.851.575.503.419.755 1.003.755 1.752 0 .821-.29 1.417-.871 1.788-.383.24-.815.359-1.294.359-1.054 0-1.719-.383-1.995-1.15-.096-.252-.144-.503-.144-.755 0-.234.021-.401.063-.503-.192.024-.362.183-.512.476-.126.258-.189.494-.189.71 0 1.264.746 1.998 2.237 2.201.491.072.976.108 1.455.108h.943v1.464h-.997c-.689 0-1.21.156-1.563.467-.443.401-.665.961-.665 1.68v2.255h4.384zm-4.043-9.101c0 .27.1.5.301.692.201.192.433.287.696.287.264 0 .496-.097.696-.292.201-.195.301-.424.301-.687 0-.647-.332-.97-.997-.97-.27 0-.503.094-.701.283-.198.189-.296.418-.296.687z" fill="#fff"/><g fill-rule="nonzero"><path d="M192.367 21c-5.09 0-9.367-4.265-9.367-9.5s4.277-9.5 9.367-9.5c2.818 0 4.822 1.133 6.331 2.622l-1.776 1.827c-1.082-1.041-2.55-1.857-4.555-1.857-3.721 0-6.628 3.082-6.628 6.908 0 3.827 2.907 6.908 6.628 6.908 2.411 0 3.781-1 4.664-1.898.724-.745 1.191-1.806 1.369-3.265h-6.033v-2.602h8.494c.089.459.139 1.02.139 1.622 0 1.949-.516 4.357-2.183 6.071-1.627 1.735-3.691 2.663-6.45 2.663z" id="Shape" fill="#4285F4"/><path d="M215 15c0 3.456-2.69 6-6 6s-6-2.544-6-6c0-3.476 2.69-6 6-6s6 2.524 6 6zm-2.629 0c0-2.164-1.563-3.636-3.371-3.636-1.807 0-3.371 1.482-3.371 3.636 0 2.134 1.563 3.636 3.371 3.636 1.807 0 3.371-1.492 3.371-3.636z" id="Shape" fill="#E94235"/><path d="M228 15c0 3.456-2.69 6-6 6-3.299 0-6-2.544-6-6 0-3.476 2.69-6 6-6s6 2.524 6 6zm-2.619 0c0-2.164-1.563-3.636-3.371-3.636-1.807 0-3.371 1.482-3.371 3.636 0 2.134 1.563 3.636 3.371 3.636 1.807.01 3.371-1.492 3.371-3.636z" id="Shape" fill="#FABB05"/><path d="M240 9.362v10.531c0 4.336-2.499 6.107-5.457 6.107-2.786 0-4.452-1.908-5.084-3.465l2.192-.93c.393.959 1.35 2.085 2.891 2.085 1.896 0 3.064-1.204 3.064-3.445v-.842h-.086c-.565.714-1.656 1.331-3.025 1.331-2.872 0-5.495-2.554-5.495-5.843 0-3.308 2.633-5.892 5.495-5.892 1.369 0 2.46.626 3.025 1.311h.086v-.949h2.393zm-2.221 5.539c0-2.065-1.35-3.582-3.064-3.582-1.742 0-3.198 1.507-3.198 3.582 0 2.045 1.455 3.533 3.198 3.533 1.714 0 3.064-1.488 3.064-3.533z" id="Shape" fill="#4285F4"/><path id="Shape" fill="#34A853" d="M246 3v18h-3v-18z"/><path d="M255.844 16.973l2.046 1.362c-.662.982-2.256 2.664-5.014 2.664-3.419 0-5.876-2.634-5.876-6 0-3.566 2.487-6 5.585-6 3.119 0 4.643 2.474 5.144 3.816l.271.681-8.032 3.326c.612 1.202 1.574 1.823 2.918 1.823s2.276-.671 2.958-1.673zm-6.307-2.164l5.375-2.224c-.301-.751-1.183-1.272-2.236-1.272-1.344 0-3.209 1.182-3.139 3.496z" fill="#E94235"/></g></g></svg>
