<?xml version="1.0" encoding="UTF-8"?>
<svg width="246px" height="26px" viewBox="0 0 246 26" version="1.1" xmlns="http://www.w3.org/2000/svg" xmlns:xlink="http://www.w3.org/1999/xlink">
    <!-- Generator: Sketch 51.3 (57544) - http://www.bohemiancoding.com/sketch -->
    <title>SwG-TH-WOB</title>
    <desc>Created with Sketch.</desc>
    <defs></defs>
    <g id="SwG-TH-WOB" stroke="none" stroke-width="1" fill="none" fill-rule="evenodd">
        <path d="M11.1730468,8.41015625 C11.4186209,8.67369923 11.61927,9.00611779 11.7749999,9.40742187 C12.0026052,9.97643514 12.1164062,10.5604137 12.1164062,11.159375 L12.1164062,20 L9.97812493,20 L9.97812493,18.8230469 C9.97812493,17.7089788 9.61875352,16.4212313 8.89999993,14.9597656 C7.9835891,13.1089751 6.98633344,12.1835937 5.90820305,12.1835937 C5.20142869,12.1835937 4.71927205,12.5759075 4.46171868,13.3605469 C4.34791603,13.7259133 4.29101555,14.1871066 4.29101555,14.7441406 C4.29101555,15.0675797 4.31497365,15.4209616 4.36289055,15.8042969 C4.64440238,15.7024734 4.91393093,15.6515625 5.1714843,15.6515625 C5.8003937,15.6515625 6.33046652,15.8686827 6.76171868,16.3029297 C7.19297083,16.7371767 7.40859368,17.2687469 7.40859368,17.8976562 C7.40859368,18.3768253 7.24987131,18.8350239 6.9324218,19.2722656 C6.59700346,19.7454451 6.20169491,20.0119789 5.7464843,20.071875 C5.38710751,20.1138023 5.14153705,20.1347656 5.00976555,20.1347656 C4.23111583,20.1347656 3.56627873,19.853258 3.0152343,19.2902344 C2.4282522,18.7032523 2.13476555,17.5682376 2.13476555,15.8851563 C2.13476555,14.0523346 2.4282522,12.7585975 3.0152343,12.0039062 C3.65612292,11.1593708 4.50364049,10.7371094 5.55781243,10.7371094 C6.15677376,10.7371094 6.78866848,10.8958317 7.45351555,11.2132812 C8.22617567,11.5786477 8.95689753,12.36627 9.64570305,13.5761719 C9.72356803,13.713933 9.83437421,13.9235663 9.97812493,14.2050781 L9.97812493,11.5097656 C9.97812493,10.575386 9.8164078,9.87161695 9.49296868,9.3984375 C9.00182039,8.69166313 8.07044949,8.33828125 6.69882805,8.33828125 C5.46496772,8.33828125 4.49765968,8.55540147 3.79687493,8.98964844 C3.09609017,9.4238954 2.64687592,9.91353894 2.44921868,10.4585937 L1.27226555,9.5421875 L2.0449218,8.58085937 C2.46419473,8.17955529 2.88346137,7.87109483 3.3027343,7.65546875 C3.72200723,7.43984267 4.2490853,7.25716221 4.8839843,7.10742187 C5.44101834,6.98164 6.06392878,6.91875 6.7527343,6.91875 C7.98060503,6.91875 8.97786068,7.08346189 9.74453118,7.41289062 C10.0140638,7.22721261 10.2207023,7.02656358 10.3644531,6.8109375 C10.5740895,6.5414049 10.6789062,6.1820335 10.6789062,5.7328125 L12.9609374,6.31679687 C12.9609374,7.0056024 12.5746132,7.59557046 11.8019531,8.08671875 C11.586327,8.22447986 11.3766937,8.33229128 11.1730468,8.41015625 Z M6.1417968,17.8976562 C6.1417968,17.6281237 6.04895919,17.3960296 5.86328118,17.2013672 C5.67760317,17.0067048 5.44700651,16.909375 5.1714843,16.909375 C4.91393093,16.909375 4.69231857,17.0096995 4.50664055,17.2103516 C4.32096254,17.4110036 4.22812493,17.6401029 4.22812493,17.8976562 C4.22812493,18.1611992 4.32096254,18.3902985 4.50664055,18.5849609 C4.69231857,18.7796234 4.91393093,18.8769531 5.1714843,18.8769531 C5.4410169,18.8769531 5.67011617,18.7811207 5.85878899,18.5894531 C6.04746181,18.3977855 6.1417968,18.1671888 6.1417968,17.8976562 Z M24.4878906,7.15234375 L26.6082031,7.15234375 L26.6082031,17.5652344 C26.6082031,18.5235725 26.4494807,19.1494777 26.1320312,19.4429687 C25.7906232,19.8802105 25.3114614,20.0988281 24.6945312,20.0988281 C24.448957,20.0988281 24.2063813,19.9341162 23.9667968,19.6046875 C23.6792954,19.1674457 23.3888035,18.7302105 23.0953124,18.2929687 C22.7539045,17.777862 22.4214859,17.3765639 22.0980468,17.0890625 C21.3613244,16.430205 20.6186235,16.0558598 19.8699218,15.9660156 L19.8699218,18.2660156 C19.8699218,19.0686238 19.5884142,19.6136704 19.0253906,19.9011719 C18.6360657,20.0988291 18.1509143,20.1976562 17.5699218,20.1976562 C17.2285139,20.1976562 16.9529958,20.1647139 16.7433593,20.0988281 C16.0066369,19.8891917 15.4705745,19.4100298 15.1351562,18.6613281 C14.9614574,18.2839825 14.8746093,17.8527368 14.8746093,17.3675781 C14.8746093,16.0798113 15.3268183,15.1933618 16.2312499,14.7082031 C16.788284,14.4027328 17.2824197,14.25 17.7136718,14.25 L17.7136718,11.375 L17.3812499,11.4109375 C17.2794265,11.4229167 17.1716151,11.4289062 17.0578124,11.4289062 C16.4468719,11.4289062 15.9272807,11.2192729 15.4990234,10.8 C15.070766,10.3807271 14.8566406,9.86263329 14.8566406,9.24570312 C14.8566406,8.76054445 15.0153629,8.29635638 15.3328124,7.853125 C15.6742204,7.37994555 16.0755185,7.11341176 16.5367187,7.05351562 C16.9020851,7.01158833 17.1536451,6.990625 17.2914062,6.990625 C18.100004,6.990625 18.740883,7.25116927 19.2140624,7.77226562 C19.6513042,8.26341391 19.8699218,8.88632435 19.8699218,9.64101562 L19.8699218,14.4386719 C20.6066442,14.4746096 21.4032509,14.78307 22.2597656,15.3640625 C22.3256513,15.4119794 22.6790332,15.7294241 23.3199218,16.3164062 C23.9248728,16.8734403 24.236328,17.1489584 24.2542968,17.1429687 C24.4100268,17.0950518 24.4878906,16.891408 24.4878906,16.5320312 L24.4878906,7.15234375 Z M16.0874999,9.24570312 C16.0874999,9.49726688 16.1863271,9.72187401 16.3839843,9.91953125 C16.5816416,10.1171885 16.8062487,10.2160156 17.0578124,10.2160156 C17.327345,10.2160156 17.5654286,10.1201832 17.7720703,9.92851562 C17.9787119,9.736848 18.0820312,9.50924611 18.0820312,9.24570312 C18.0820312,8.9641913 17.9817067,8.72760512 17.7810546,8.5359375 C17.5804026,8.34426987 17.3393243,8.2484375 17.0578124,8.2484375 C16.7942695,8.2484375 16.5666676,8.34876202 16.3749999,8.54941406 C16.1833323,8.75006611 16.0874999,8.98216014 16.0874999,9.24570312 Z M16.4378906,17.0621094 C16.431901,17.1100263 16.4289062,17.1609372 16.4289062,17.2148437 L16.4289062,17.3585937 C16.4289062,17.7658875 16.4798171,18.0653636 16.5816406,18.2570312 C16.7313809,18.5684911 16.9260404,18.7242187 17.1656249,18.7242187 C17.5309914,18.7242187 17.7136718,18.5295592 17.7136718,18.1402344 L17.7136718,15.8582031 C17.6597653,15.8342447 17.587891,15.8222656 17.4980468,15.8222656 C17.2944,15.8222656 17.0967457,15.8941399 16.9050781,16.0378906 C16.5936182,16.3972674 16.4378906,16.7386703 16.4378906,17.0621094 Z M28.5667968,2.6421875 C29.3993531,2.01327811 29.8156249,1.16576054 29.8156249,0.099609375 L31.9539062,0.099609375 C31.9539062,1.26159435 31.3819067,2.31275571 30.2378906,3.253125 C29.0100198,4.27135926 27.6863352,4.78046875 26.2667968,4.78046875 C24.9371027,4.78046875 23.9308627,4.61276209 23.2480468,4.27734375 C22.331636,3.86406043 21.8734374,3.17826 21.8734374,2.21992187 C21.8734374,1.61497093 22.080076,1.09687716 22.4933593,0.665625 C22.9605492,0.252341684 23.502601,0.045703125 24.1195312,0.045703125 C24.7664094,0.045703125 25.2934875,0.219399305 25.7007812,0.566796875 C26.1739606,0.974090578 26.4105468,1.49218436 26.4105468,2.12109375 C26.4105468,2.72005508 26.2368506,3.18424314 25.8894531,3.51367187 C25.9493492,3.51966149 26.0002601,3.52265625 26.0421874,3.52265625 C27.0065152,3.52265625 27.8480432,3.2291696 28.5667968,2.6421875 Z M23.1402343,2.20195312 C23.1402343,2.47148572 23.2360667,2.71256404 23.4277343,2.92519531 C23.6194019,3.13782658 23.8499986,3.24414062 24.1195312,3.24414062 C24.401043,3.24414062 24.6451161,3.14231873 24.8517578,2.93867187 C25.0583994,2.73502502 25.1617187,2.48945456 25.1617187,2.20195312 C25.1617187,1.93242053 25.0539073,1.69433697 24.8382812,1.48769531 C24.6226551,1.28105365 24.3830742,1.17773437 24.1195312,1.17773437 C23.8559882,1.17773437 23.6268889,1.28255104 23.4322265,1.4921875 C23.2375641,1.70182396 23.1402343,1.93841014 23.1402343,2.20195312 Z M33.7597656,20 L31.2082031,20 C31.2082031,19.9460935 31.2126952,19.8607428 31.2216796,19.7439453 C31.2306641,19.6271479 31.2351562,19.5388024 31.2351562,19.4789063 C31.2351562,18.7421838 31.1483081,17.8587291 30.9746093,16.8285156 C30.7769521,16.0438763 30.4984392,14.8579506 30.1390625,13.2707031 C30.0552079,12.869399 30.0132812,12.4022162 30.0132812,11.8691406 C30.0132812,10.3178308 30.5733016,9.0809942 31.6933593,8.15859375 C32.6996144,7.33202712 34.0801995,6.91875 35.8351562,6.91875 C37.7158948,6.91875 39.1324171,7.31106379 40.0847656,8.09570312 C41.007166,8.86237362 41.4683593,9.96145118 41.4683593,11.3929688 L41.4683593,20 L39.3121093,20 L39.3121093,11.2761719 C39.3121093,10.3956987 39.0425808,9.69492448 38.5035156,9.17382812 C37.9225231,8.61679409 37.0210998,8.33828125 35.7992187,8.33828125 C34.7869741,8.33828125 33.945446,8.63326528 33.2746093,9.22324219 C32.6037726,9.8132191 32.2683593,10.6891869 32.2683593,11.8511719 C32.2683593,12.4022163 32.3042965,12.845441 32.3761718,13.1808594 C32.4300783,13.4144543 32.5049474,13.7708309 32.6007812,14.25 C32.6427085,14.513543 32.6846352,14.8519511 32.7265625,15.2652344 C32.7385417,15.4748708 32.7505207,15.636588 32.7625,15.7503906 C32.7625,15.3790346 32.837369,14.8669303 32.9871093,14.2140625 C33.0709639,13.818748 33.2147125,13.3006542 33.4183593,12.6597656 C33.5980477,11.9829393 33.8316391,11.4438822 34.1191406,11.0425781 C34.4545589,10.5634091 34.9726527,10.3238281 35.6734375,10.3238281 C36.8593809,10.3238281 37.6380189,10.7401 38.009375,11.5726563 C38.1531257,11.9080746 38.225,12.2255193 38.225,12.525 C38.225,13.1718782 38.048309,13.6869772 37.6949218,14.0703125 C37.2157528,14.5794296 36.6108109,14.8339844 35.8800781,14.8339844 C35.4727844,14.8339844 35.0864601,14.7111991 34.7210937,14.465625 C34.2718727,15.5617242 33.9873703,16.9572832 33.8675781,18.6523438 L33.7597656,20 Z M35.9160156,11.6085937 C35.2631477,11.6085937 34.9367187,11.9350228 34.9367187,12.5878906 C34.9367187,12.8514336 35.0325511,13.0775381 35.2242187,13.2662109 C35.4158863,13.4548838 35.646483,13.5492188 35.9160156,13.5492188 C36.1675793,13.5492188 36.3906891,13.451889 36.5853515,13.2572266 C36.7800139,13.0625641 36.8773437,12.8394544 36.8773437,12.5878906 C36.8773437,12.3123684 36.7845061,12.0802744 36.5988281,11.8916016 C36.4131501,11.7029287 36.1855482,11.6085937 35.9160156,11.6085937 Z M48.1257812,11.4828125 C47.3830692,11.3450514 46.6463578,11.2611981 45.915625,11.23125 C45.5861962,11.2192708 45.2986991,11.2132812 45.053125,11.2132812 C44.340361,11.2132812 43.9540367,11.2342446 43.8941406,11.2761719 C43.8761717,11.1923173 43.8671875,11.1054692 43.8671875,11.015625 C43.8671875,10.2190064 44.1277317,9.41341553 44.6488281,8.59882812 C45.3136752,7.56262503 46.4007737,7.04453125 47.9101562,7.04453125 C48.3294291,7.04453125 48.9164024,7.15384005 49.6710937,7.37246094 C50.425785,7.59108182 50.9828107,7.70039062 51.3421875,7.70039062 C52.0429722,7.70039062 52.5221341,7.48177302 52.7796875,7.04453125 L54.3519531,7.86210937 C54.2680985,8.08971468 54.0944023,8.32630086 53.8308593,8.571875 C53.4535137,8.92526218 53.0312523,9.12591122 52.5640625,9.17382812 C52.2945299,9.20377619 52.1118494,9.21875 52.0160156,9.21875 C51.5428361,9.21875 50.8839886,9.08398572 50.0394531,8.81445312 C49.2787722,8.58085821 48.6977884,8.4640625 48.2964843,8.4640625 C47.5717411,8.4640625 47.0057312,8.64674296 46.5984375,9.01210937 C46.3348945,9.23372507 46.1222664,9.55715933 45.9605468,9.98242187 C46.6613316,9.98242187 47.4848911,10.0542962 48.43125,10.1980469 C49.5333388,10.3717457 50.4257778,10.6143214 51.1085937,10.9257812 C51.7914096,11.2372411 52.2555977,11.6175759 52.5011718,12.0667969 C52.7048187,12.4261737 52.8066406,12.7975241 52.8066406,13.1808594 L52.8066406,17.5292969 C52.8066406,18.2779985 52.5640649,18.9158828 52.0789062,19.4429687 C51.6236956,19.9401067 51.0307328,20.1886719 50.3,20.1886719 C49.4854126,20.1886719 48.8475283,19.9341171 48.3863281,19.425 C48.0089825,19.0177063 47.8203125,18.5205759 47.8203125,17.9335938 C47.8203125,17.2986947 48.0299458,16.7731141 48.4492187,16.3568359 C48.8684916,15.9405578 49.3955697,15.7324219 50.0304687,15.7324219 C50.3059909,15.7324219 50.5126295,15.75638 50.6503906,15.8042969 L50.6503906,13.3605469 C50.6503906,12.971222 50.5545582,12.6507825 50.3628906,12.3992187 C50.0634099,12.0039043 49.3177143,11.6984386 48.1257812,11.4828125 Z M50.0304687,18.921875 C50.3000013,18.921875 50.5291006,18.8245452 50.7177734,18.6298828 C50.9064462,18.4352204 51.0007812,18.2031263 51.0007812,17.9335937 C51.0007812,17.6640612 50.9049488,17.4334645 50.7132812,17.2417969 C50.5216136,17.0501292 50.2940117,16.9542969 50.0304687,16.9542969 C49.7549465,16.9542969 49.5198577,17.0486319 49.3251953,17.2373047 C49.1305328,17.4259775 49.0332031,17.6580715 49.0332031,17.9335937 C49.0332031,18.209116 49.1290355,18.4427074 49.3207031,18.634375 C49.5123707,18.8260426 49.7489569,18.921875 50.0304687,18.921875 Z M59.2574219,11.4828125 C58.5147098,11.3450514 57.7779984,11.2611981 57.0472656,11.23125 C56.7178369,11.2192708 56.4303397,11.2132812 56.1847656,11.2132812 C55.4720016,11.2132812 55.0856774,11.2342446 55.0257812,11.2761719 C55.0078124,11.1923173 54.9988281,11.1054692 54.9988281,11.015625 C54.9988281,10.2190064 55.2593724,9.41341553 55.7804687,8.59882812 C56.4453158,7.56262503 57.5324143,7.04453125 59.0417969,7.04453125 C59.4610698,7.04453125 60.0480431,7.15384005 60.8027344,7.37246094 C61.5574256,7.59108182 62.1144513,7.70039062 62.4738281,7.70039062 C63.1746129,7.70039062 63.6537747,7.48177302 63.9113281,7.04453125 L65.4835937,7.86210937 C65.3997391,8.08971468 65.226043,8.32630086 64.9625,8.571875 C64.5851543,8.92526218 64.1628929,9.12591122 63.6957031,9.17382812 C63.4261705,9.20377619 63.24349,9.21875 63.1476562,9.21875 C62.6744768,9.21875 62.0156292,9.08398572 61.1710937,8.81445312 C60.4104128,8.58085821 59.8294291,8.4640625 59.428125,8.4640625 C58.7033818,8.4640625 58.1373718,8.64674296 57.7300781,9.01210937 C57.4665351,9.23372507 57.253907,9.55715933 57.0921875,9.98242187 C57.7929722,9.98242187 58.6165317,10.0542962 59.5628906,10.1980469 C60.6649794,10.3717457 61.5574184,10.6143214 62.2402344,10.9257812 C62.9230503,11.2372411 63.3872383,11.6175759 63.6328125,12.0667969 C63.8364593,12.4261737 63.9382812,12.7975241 63.9382812,13.1808594 L63.9382812,17.5292969 C63.9382812,18.2779985 63.6957055,18.9158828 63.2105469,19.4429687 C62.7553362,19.9401067 62.1623734,20.1886719 61.4316406,20.1886719 C60.6170532,20.1886719 59.9791689,19.9341171 59.5179687,19.425 C59.1406231,19.0177063 58.9519531,18.5205759 58.9519531,17.9335938 C58.9519531,17.2986947 59.1615864,16.7731141 59.5808594,16.3568359 C60.0001323,15.9405578 60.5272103,15.7324219 61.1621094,15.7324219 C61.4376316,15.7324219 61.6442701,15.75638 61.7820312,15.8042969 L61.7820312,13.3605469 C61.7820312,12.971222 61.6861989,12.6507825 61.4945312,12.3992187 C61.1950506,12.0039043 60.4493549,11.6984386 59.2574219,11.4828125 Z M61.1621094,18.921875 C61.4316419,18.921875 61.6607412,18.8245452 61.849414,18.6298828 C62.0380869,18.4352204 62.1324219,18.2031263 62.1324219,17.9335937 C62.1324219,17.6640612 62.0365895,17.4334645 61.8449219,17.2417969 C61.6532542,17.0501292 61.4256523,16.9542969 61.1621094,16.9542969 C60.8865871,16.9542969 60.6514983,17.0486319 60.4568359,17.2373047 C60.2621735,17.4259775 60.1648437,17.6580715 60.1648437,17.9335937 C60.1648437,18.209116 60.2606761,18.4427074 60.4523437,18.634375 C60.6440114,18.8260426 60.8805975,18.921875 61.1621094,18.921875 Z M64.4683594,2.6421875 C65.3009156,2.01327811 65.7171875,1.16576054 65.7171875,0.099609375 L67.8554687,0.099609375 C67.8554687,1.26159435 67.2834692,2.31275571 66.1394531,3.253125 C64.9115824,4.27135926 63.5878977,4.78046875 62.1683594,4.78046875 C60.8386652,4.78046875 59.8324253,4.61276209 59.1496094,4.27734375 C58.2331985,3.86406043 57.775,3.17826 57.775,2.21992187 C57.775,1.61497093 57.9816385,1.09687716 58.3949219,0.665625 C58.8621117,0.252341684 59.4041636,0.045703125 60.0210937,0.045703125 C60.667972,0.045703125 61.19505,0.219399305 61.6023437,0.566796875 C62.0755232,0.974090578 62.3121094,1.49218436 62.3121094,2.12109375 C62.3121094,2.72005508 62.1384132,3.18424314 61.7910156,3.51367187 C61.8509117,3.51966149 61.9018227,3.52265625 61.94375,3.52265625 C62.9080777,3.52265625 63.7496058,3.2291696 64.4683594,2.6421875 Z M59.0417969,2.20195312 C59.0417969,2.47148572 59.1376292,2.71256404 59.3292969,2.92519531 C59.5209645,3.13782658 59.7515611,3.24414062 60.0210937,3.24414062 C60.3026056,3.24414062 60.5466786,3.14231873 60.7533203,2.93867187 C60.9599619,2.73502502 61.0632812,2.48945456 61.0632812,2.20195312 C61.0632812,1.93242053 60.9554698,1.69433697 60.7398437,1.48769531 C60.5242176,1.28105365 60.2846367,1.17773437 60.0210937,1.17773437 C59.7575507,1.17773437 59.5284515,1.28255104 59.333789,1.4921875 C59.1391266,1.70182396 59.0417969,1.93841014 59.0417969,2.20195312 Z M70.5957031,7.70039062 C71.1048202,8.25143505 71.359375,8.89830358 71.359375,9.64101562 L71.359375,18.3738281 L75.7617187,18.3738281 C76.0611994,18.3738281 76.3157541,18.2660167 76.5253906,18.0503906 C76.6631517,17.9186191 76.7320312,17.6610696 76.7320312,17.2777344 L76.7320312,7.15234375 L78.90625,7.15234375 L78.90625,17.5292969 C78.90625,18.2480505 78.7535171,18.8170552 78.4480469,19.2363281 C78.0647116,19.7454453 77.4328169,20 76.5523437,20 L68.0800781,20 L68.0800781,18.3738281 L69.2300781,18.3738281 L69.2300781,11.375 C68.9725247,11.4109377 68.7539071,11.4289063 68.5742187,11.4289062 C67.9572886,11.4289063 67.4272157,11.2192729 66.9839844,10.8 C66.540753,10.3807271 66.3191406,9.86263329 66.3191406,9.24570312 C66.3191406,8.76054445 66.477863,8.29635638 66.7953125,7.853125 C67.1486997,7.37994555 67.558982,7.11341176 68.0261719,7.05351562 C68.3915383,7.01158833 68.646093,6.990625 68.7898437,6.990625 C69.5684935,6.990625 70.1704406,7.22721118 70.5957031,7.70039062 Z M67.6039062,9.24570312 C67.6039062,9.5032565 67.6997386,9.72936101 67.8914062,9.92402344 C68.0830739,10.1186859 68.3106758,10.2160156 68.5742187,10.2160156 C68.8377617,10.2160156 69.0653636,10.1201832 69.2570312,9.92851562 C69.4486989,9.736848 69.5445312,9.50924611 69.5445312,9.24570312 C69.5445312,8.97018091 69.4501962,8.73509212 69.2615234,8.54042969 C69.0728506,8.34576726 68.8437513,8.2484375 68.5742187,8.2484375 C68.2986965,8.2484375 68.0680999,8.34576726 67.8824219,8.54042969 C67.6967439,8.73509212 67.6039062,8.97018091 67.6039062,9.24570312 Z M92.275,7.15234375 L92.275,17.5292969 C92.275,18.1941439 92.1192724,18.7481749 91.8078125,19.1914062 C91.2747369,19.7304714 90.5739627,20 89.7054687,20 L83.2007812,20 L83.2007812,18.4007812 L84.5125,18.4007812 L84.5125,15.8851562 C84.5125,15.2442676 84.901819,14.4506558 85.6804687,13.5042969 C86.3213574,12.7256471 86.7466135,12.0697943 86.95625,11.5367187 C87.1059903,11.1414043 87.1808594,10.7131533 87.1808594,10.2519531 C87.1808594,9.73684638 87.0281265,9.29362165 86.7226562,8.92226562 C86.3932275,8.50898231 85.9799504,8.30234375 85.4828125,8.30234375 L85.3210937,8.30234375 C85.2671872,8.30234375 85.2162763,8.29934899 85.1683594,8.29335937 C84.4376266,8.29335937 84.0063809,8.47005032 83.8746094,8.8234375 C84.5454461,8.8234375 85.0276027,9.05702891 85.3210937,9.52421875 C85.626564,10.015367 85.7792969,10.4645813 85.7792969,10.871875 C85.7792969,11.2492206 85.6744802,11.6235659 85.4648437,11.9949219 C85.2372384,12.396226 84.9557308,12.6537755 84.6203125,12.7675781 C84.2010396,12.9233081 83.8476577,13.0011719 83.5601562,13.0011719 C83.098956,13.0011719 82.646747,12.8394547 82.2035156,12.5160156 C81.7423154,12.1686181 81.4817711,11.7703147 81.421875,11.3210937 C81.3619789,10.9796858 81.3320312,10.7281258 81.3320312,10.5664062 C81.3320312,9.48827586 81.7213503,8.60182639 82.5,7.90703125 C83.1768263,7.2960907 84.1621029,6.990625 85.4558594,6.990625 C86.4141975,6.990625 87.2257779,7.25416403 87.890625,7.78125 C88.711202,8.42812823 89.1214844,9.26666152 89.1214844,10.296875 C89.1214844,11.4947977 88.6692754,12.671739 87.7648437,13.8277344 C87.2976539,14.4266957 87.0371096,14.7740881 86.9832031,14.8699219 C86.7496082,15.2532571 86.6328125,15.6635395 86.6328125,16.1007812 L86.6328125,18.4007812 L89.2292969,18.4007812 C89.4569022,18.4007812 89.6934884,18.277996 89.9390625,18.0324219 C90.0408859,17.8407542 90.0917969,17.5712257 90.0917969,17.2238281 L90.0917969,7.15234375 L92.275,7.15234375 Z M82.6976562,10.9257812 C82.6976562,11.177345 82.783007,11.39746 82.9537109,11.5861328 C83.1244149,11.7748056 83.3355456,11.8691406 83.5871094,11.8691406 C84.2160188,11.8691406 84.5304687,11.5546906 84.5304687,10.9257812 C84.5304687,10.2968719 84.2160188,9.98242188 83.5871094,9.98242187 C83.3415352,9.98242188 83.1319019,10.0782543 82.9582031,10.2699219 C82.7845043,10.4615895 82.6976562,10.6802071 82.6976562,10.9257812 Z M89.4449219,3.05546875 C89.3490881,3.07343759 89.2143238,3.08242187 89.040625,3.08242187 C88.3458299,3.08242187 87.8307308,2.85781475 87.4953125,2.40859375 C87.2796864,2.13307154 87.171875,1.77370013 87.171875,1.33046875 C87.171875,0.420047531 87.6210893,-0.172915289 88.5195312,-0.4484375 C88.7471366,-0.520312859 88.9777332,-0.55625 89.2113281,-0.55625 C89.9420609,-0.55625 90.4901023,-0.280731922 90.8554687,0.2703125 C91.1789079,0.743491949 91.340625,1.21366954 91.340625,1.68085937 C91.340625,1.89648545 91.3106774,2.1121083 91.2507812,2.32773437 C91.1070305,2.84284112 90.8644548,3.24713395 90.5230469,3.540625 C91.4514369,3.3130197 92.1432269,2.92669543 92.5984375,2.38164062 C93.2393261,1.62095974 93.5597656,0.818363598 93.5597656,-0.026171875 L95.5992187,-0.026171875 C95.5992187,1.35143918 94.9164131,2.54335434 93.5507812,3.54960937 C92.1132741,4.63372938 90.2864694,5.17578125 88.0703125,5.17578125 L88.0703125,4.23242188 C88.3757828,4.23242188 88.7052066,4.0976576 89.0585937,3.828125 C89.3161471,3.57057163 89.4449219,3.31302212 89.4449219,3.05546875 Z M89.0585937,0.458984375 C88.4955701,0.458984375 88.2140625,0.7464815 88.2140625,1.32148437 C88.2919275,1.89049764 88.6063775,2.175 89.1574219,2.175 C89.6785182,2.175 89.9390625,1.87552383 89.9390625,1.2765625 C89.9390625,0.731507691 89.6455759,0.458984375 89.0585937,0.458984375 Z M104.251172,19.8652344 C103.96367,19.9550786 103.631252,20 103.253906,20 L96.1472656,20 L96.1472656,13.4414062 C96.1472656,12.9382787 96.2071609,12.5549492 96.3269531,12.2914062 C96.4227869,12.0697906 96.6084622,11.8092463 96.8839844,11.5097656 C97.0936209,11.2701811 97.3481756,11.0934902 97.6476563,10.9796875 C97.977085,10.8539056 98.3154931,10.7910156 98.6628906,10.7910156 C99.477478,10.7910156 100.109373,11.0365861 100.558594,11.5277344 C100.935939,11.9470073 101.124609,12.4561168 101.124609,13.0550781 C101.124609,13.6720083 100.908987,14.1930968 100.477734,14.6183594 C100.046482,15.0436219 99.5223989,15.25625 98.9054688,15.25625 C98.9713545,15.25625 98.7587264,15.2292971 98.2675781,15.1753906 L98.2675781,18.3738281 L102.310547,18.3738281 C102.777737,18.3738281 103.140103,18.2300796 103.397656,17.9425781 C103.595314,17.7149728 103.694141,17.2298214 103.694141,16.4871094 L103.694141,11.5097656 C103.694141,10.5873652 103.526434,9.88359618 103.191016,9.3984375 C102.693878,8.69166313 101.768496,8.33828125 100.414844,8.33828125 C99.1809834,8.33828125 98.1987016,8.5688779 97.4679688,9.03007812 C96.6833294,9.52122641 96.2520837,9.99739353 96.1742188,10.4585937 L94.9882813,9.5421875 C95.3656269,8.78749623 96.0484326,8.1556015 97.0367188,7.64648438 C97.977088,7.1613257 99.1150975,6.91875 100.450781,6.91875 C103.09819,6.91875 104.778252,7.7243409 105.491016,9.33554687 C105.724611,9.88060168 105.841406,10.4885383 105.841406,11.159375 L105.841406,17.7 C105.841406,18.0953145 105.760548,18.4397121 105.598828,18.7332031 C105.269399,19.3201852 104.820185,19.6975252 104.251172,19.8652344 Z M98.9054688,12.0308594 C98.6239569,12.0308594 98.3903655,12.1311839 98.2046875,12.3318359 C98.0190095,12.532488 97.9261719,12.7735663 97.9261719,13.0550781 C97.9261719,13.3126315 98.0235016,13.5342439 98.2181641,13.7199219 C98.4128265,13.9055999 98.6419258,13.9984375 98.9054688,13.9984375 C99.1690117,13.9984375 99.3966136,13.9085946 99.5882813,13.7289063 C99.7799489,13.5492179 99.8757813,13.3246107 99.8757813,13.0550781 C99.8757813,12.7735663 99.7829436,12.532488 99.5972656,12.3318359 C99.4115876,12.1311839 99.180991,12.0308594 98.9054688,12.0308594 Z M118.141016,7.15234375 L120.261328,7.15234375 L120.261328,17.5652344 C120.261328,18.5235725 120.102606,19.1494777 119.785156,19.4429687 C119.443748,19.8802105 118.964586,20.0988281 118.347656,20.0988281 C118.102082,20.0988281 117.859506,19.9341162 117.619922,19.6046875 C117.33242,19.1674457 117.041929,18.7302105 116.748438,18.2929687 C116.40703,17.777862 116.074611,17.3765639 115.751172,17.0890625 C115.014449,16.430205 114.271749,16.0558598 113.523047,15.9660156 L113.523047,18.2660156 C113.523047,19.0686238 113.241539,19.6136704 112.678516,19.9011719 C112.289191,20.0988291 111.804039,20.1976562 111.223047,20.1976562 C110.881639,20.1976562 110.606121,20.1647139 110.396484,20.0988281 C109.659762,19.8891917 109.1237,19.4100298 108.788281,18.6613281 C108.614582,18.2839825 108.527734,17.8527368 108.527734,17.3675781 C108.527734,16.0798113 108.979943,15.1933618 109.884375,14.7082031 C110.441409,14.4027328 110.935545,14.25 111.366797,14.25 L111.366797,11.375 L111.034375,11.4109375 C110.932552,11.4229167 110.82474,11.4289062 110.710938,11.4289062 C110.099997,11.4289062 109.580406,11.2192729 109.152148,10.8 C108.723891,10.3807271 108.509766,9.86263329 108.509766,9.24570312 C108.509766,8.76054445 108.668488,8.29635638 108.985938,7.853125 C109.327345,7.37994555 109.728644,7.11341176 110.189844,7.05351562 C110.55521,7.01158833 110.80677,6.990625 110.944531,6.990625 C111.753129,6.990625 112.394008,7.25116927 112.867188,7.77226562 C113.304429,8.26341391 113.523047,8.88632435 113.523047,9.64101562 L113.523047,14.4386719 C114.259769,14.4746096 115.056376,14.78307 115.912891,15.3640625 C115.978776,15.4119794 116.332158,15.7294241 116.973047,16.3164062 C117.577998,16.8734403 117.889453,17.1489584 117.907422,17.1429687 C118.063152,17.0950518 118.141016,16.891408 118.141016,16.5320312 L118.141016,7.15234375 Z M109.740625,9.24570312 C109.740625,9.49726688 109.839452,9.72187401 110.037109,9.91953125 C110.234767,10.1171885 110.459374,10.2160156 110.710938,10.2160156 C110.98047,10.2160156 111.218554,10.1201832 111.425195,9.92851562 C111.631837,9.736848 111.735156,9.50924611 111.735156,9.24570312 C111.735156,8.9641913 111.634832,8.72760512 111.43418,8.5359375 C111.233528,8.34426987 110.992449,8.2484375 110.710938,8.2484375 C110.447395,8.2484375 110.219793,8.34876202 110.028125,8.54941406 C109.836457,8.75006611 109.740625,8.98216014 109.740625,9.24570312 Z M110.091016,17.0621094 C110.085026,17.1100263 110.082031,17.1609372 110.082031,17.2148437 L110.082031,17.3585937 C110.082031,17.7658875 110.132942,18.0653636 110.234766,18.2570312 C110.384506,18.5684911 110.579165,18.7242187 110.81875,18.7242187 C111.184116,18.7242187 111.366797,18.5295592 111.366797,18.1402344 L111.366797,15.8582031 C111.31289,15.8342447 111.241016,15.8222656 111.151172,15.8222656 C110.947525,15.8222656 110.749871,15.8941399 110.558203,16.0378906 C110.246743,16.3972674 110.091016,16.7386703 110.091016,17.0621094 Z M114.726953,21.8328125 C114.187888,21.8328125 113.879427,22.0843725 113.801563,22.5875 C113.801563,23.2583367 114.110023,23.59375 114.726953,23.59375 C115.313935,23.59375 115.607422,23.3002634 115.607422,22.7132813 C115.607422,22.6593747 115.604427,22.6174481 115.598438,22.5875 C115.598438,22.0843725 115.307946,21.8328125 114.726953,21.8328125 Z M114.960547,25.9835937 L114.960547,24.3214844 C114.840755,24.3574221 114.71198,24.3753906 114.574219,24.3753906 C114.08906,24.3753906 113.621877,24.1747416 113.172656,23.7734375 C112.909113,23.5398426 112.777344,23.1834659 112.777344,22.7042969 C112.777344,22.2490863 112.94505,21.8447934 113.280469,21.4914062 C113.651825,21.1140606 114.142966,20.9253906 114.753906,20.9253906 C115.772141,20.9253906 116.416014,21.2937463 116.685547,22.0304687 C116.79336,22.3299494 116.847266,22.7342422 116.847266,23.2433594 L116.847266,24.74375 L118.392578,24.74375 L118.392578,21.1589844 L120.261328,21.1589844 L120.261328,25.9835937 L114.960547,25.9835937 Z M126.253906,15.8042969 C126.535418,15.7024734 126.816926,15.6515625 127.098438,15.6515625 C127.727347,15.6515625 128.255922,15.8686827 128.68418,16.3029297 C129.112437,16.7371767 129.326563,17.2687469 129.326563,17.8976563 C129.326563,18.3768253 129.170835,18.8380186 128.859375,19.28125 C128.517967,19.7484398 128.119664,20.0119789 127.664453,20.071875 C127.293097,20.1138023 127.041537,20.1347656 126.909766,20.1347656 C126.149085,20.1347656 125.490237,19.853258 124.933203,19.2902344 C124.334242,18.6852834 124.034766,17.5502687 124.034766,15.8851563 C124.034766,14.0283761 124.322263,12.7346391 124.897266,12.0039062 C125.556123,11.1593708 126.412625,10.7371094 127.466797,10.7371094 C128.059769,10.7371094 128.691663,10.8958317 129.3625,11.2132813 C130.105212,11.572658 130.776039,12.2884061 131.375,13.3605469 C131.578647,13.7199237 131.734374,14.0014313 131.842188,14.2050781 L131.842188,11.5097656 C131.842188,10.5394483 131.692449,9.83567927 131.392969,9.3984375 C130.90182,8.69166313 129.967455,8.33828125 128.589844,8.33828125 C127.391921,8.33828125 126.415629,8.5688779 125.660938,9.03007812 C125.187758,9.32356918 124.747528,9.79973629 124.340234,10.4585937 L123.163281,9.5421875 L123.944922,8.58085937 C124.346226,8.19153451 124.774477,7.88007929 125.229688,7.64648438 C125.65495,7.4308583 126.176039,7.25117259 126.792969,7.10742188 C127.338024,6.98164 127.954945,6.91875 128.64375,6.91875 C131.285169,6.91875 132.962236,7.7243409 133.675,9.33554687 C133.908595,9.87461207 134.025391,10.4825487 134.025391,11.159375 L134.025391,20 L131.842188,20 L131.842188,18.8230469 C131.842188,17.6430931 131.49779,16.3523508 130.808984,14.9507812 C129.892574,13.1059804 128.901307,12.1835938 127.835156,12.1835938 C127.134372,12.1835938 126.667189,12.5459599 126.433594,13.2707031 C126.277864,13.7498722 126.2,14.2889293 126.2,14.8878906 C126.2,15.3550805 126.217969,15.6605462 126.253906,15.8042969 Z M128.041797,17.8976562 C128.041797,17.6341133 127.950457,17.4035166 127.767773,17.2058594 C127.58509,17.0082021 127.361981,16.909375 127.098438,16.909375 C126.822915,16.909375 126.592319,17.0067048 126.406641,17.2013672 C126.220963,17.3960296 126.128125,17.6281237 126.128125,17.8976562 C126.128125,18.1671888 126.22246,18.3977855 126.411133,18.5894531 C126.599806,18.7811207 126.828905,18.8769531 127.098438,18.8769531 C127.350001,18.8769531 127.570116,18.7766286 127.758789,18.5759766 C127.947462,18.3753245 128.041797,18.14922 128.041797,17.8976562 Z M145.615234,20 L145.615234,11.3929688 C145.615234,10.4885371 145.41758,9.78177338 145.022266,9.27265625 C144.513149,8.64973647 143.599746,8.33828125 142.282031,8.33828125 C141.790883,8.33828125 141.350653,8.3891922 140.961328,8.49101562 C140.631899,8.57487021 140.278518,8.7246083 139.901172,8.94023437 C139.46992,9.17981891 139.164454,9.3834627 138.984766,9.55117187 C138.76315,9.76679795 138.58047,9.94348889 138.436719,10.08125 L141.716016,10.584375 L141.563281,11.6085937 C141.11406,11.6085937 140.778647,11.7223947 140.557031,11.95 C140.155727,12.2794287 139.955078,12.7496063 139.955078,13.3605469 L139.955078,20 L137.834766,20 L137.834766,13.3605469 C137.834766,12.8394505 137.951561,12.4261734 138.185156,12.1207031 C138.466668,11.7733056 138.748176,11.578646 139.029688,11.5367187 C139.137501,11.5247395 139.203385,11.4768233 139.227344,11.3929688 L136.648828,11.0875 L136.783594,9.71289062 C137.047137,9.60507759 137.361587,9.35052284 137.726953,8.94921875 C138.218101,8.41015355 138.842509,7.9369812 139.600195,7.5296875 C140.357881,7.1223938 141.251818,6.91875 142.282031,6.91875 C143.53386,6.91875 144.5401,7.08046713 145.300781,7.40390625 C145.750002,7.59557387 146.154295,7.86210767 146.513672,8.20351562 C146.843101,8.5089859 147.121613,8.87734159 147.349219,9.30859375 C147.510938,9.62005364 147.615755,9.91653505 147.663672,10.1980469 C147.717578,10.5274756 147.744531,10.9018208 147.744531,11.3210937 L147.744531,20 L145.615234,20 Z M149.712109,2.6421875 C150.544666,2.01327811 150.960938,1.16576054 150.960938,0.099609375 L153.099219,0.099609375 C153.099219,1.26159435 152.527219,2.31275571 151.383203,3.253125 C150.155332,4.27135926 148.831648,4.78046875 147.412109,4.78046875 C146.082415,4.78046875 145.076175,4.61276209 144.393359,4.27734375 C143.476949,3.86406043 143.01875,3.17826 143.01875,2.21992187 C143.01875,1.61497093 143.225389,1.09687716 143.638672,0.665625 C144.105862,0.252341684 144.647914,0.045703125 145.264844,0.045703125 C145.911722,0.045703125 146.4388,0.219399305 146.846094,0.566796875 C147.319273,0.974090578 147.555859,1.49218436 147.555859,2.12109375 C147.555859,2.72005508 147.382163,3.18424314 147.034766,3.51367187 C147.094662,3.51966149 147.145573,3.52265625 147.1875,3.52265625 C148.151828,3.52265625 148.993356,3.2291696 149.712109,2.6421875 Z M144.285547,2.20195312 C144.285547,2.47148572 144.381379,2.71256404 144.573047,2.92519531 C144.764715,3.13782658 144.995311,3.24414062 145.264844,3.24414062 C145.546356,3.24414062 145.790429,3.14231873 145.99707,2.93867187 C146.203712,2.73502502 146.307031,2.48945456 146.307031,2.20195312 C146.307031,1.93242053 146.19922,1.69433697 145.983594,1.48769531 C145.767968,1.28105365 145.528387,1.17773437 145.264844,1.17773437 C145.001301,1.17773437 144.772202,1.28255104 144.577539,1.4921875 C144.382877,1.70182396 144.285547,1.93841014 144.285547,2.20195312 Z M154.617578,7.70039062 C155.126695,8.25143505 155.38125,8.89830358 155.38125,9.64101562 L155.38125,18.3738281 L159.783594,18.3738281 C160.083074,18.3738281 160.337629,18.2660167 160.547266,18.0503906 C160.685027,17.9186191 160.753906,17.6610696 160.753906,17.2777344 L160.753906,7.15234375 L162.928125,7.15234375 L162.928125,17.5292969 C162.928125,18.2480505 162.775392,18.8170552 162.469922,19.2363281 C162.086587,19.7454453 161.454692,20 160.574219,20 L152.101953,20 L152.101953,18.3738281 L153.251953,18.3738281 L153.251953,11.375 C152.9944,11.4109377 152.775782,11.4289063 152.596094,11.4289062 C151.979164,11.4289063 151.449091,11.2192729 151.005859,10.8 C150.562628,10.3807271 150.341016,9.86263329 150.341016,9.24570312 C150.341016,8.76054445 150.499738,8.29635638 150.817188,7.853125 C151.170575,7.37994555 151.580857,7.11341176 152.048047,7.05351562 C152.413413,7.01158833 152.667968,6.990625 152.811719,6.990625 C153.590369,6.990625 154.192316,7.22721118 154.617578,7.70039062 Z M151.625781,9.24570312 C151.625781,9.5032565 151.721614,9.72936101 151.913281,9.92402344 C152.104949,10.1186859 152.332551,10.2160156 152.596094,10.2160156 C152.859637,10.2160156 153.087239,10.1201832 153.278906,9.92851562 C153.470574,9.736848 153.566406,9.50924611 153.566406,9.24570312 C153.566406,8.97018091 153.472071,8.73509212 153.283398,8.54042969 C153.094726,8.34576726 152.865626,8.2484375 152.596094,8.2484375 C152.320572,8.2484375 152.089975,8.34576726 151.904297,8.54042969 C151.718619,8.73509212 151.625781,8.97018091 151.625781,9.24570312 Z" id="สมัครรับข้อมูลกับ" fill="#FFFFFF"></path>
        <g id="Group" transform="translate(171.000000, 1.000000)" fill="#FFFFFF" fill-rule="nonzero">
            <path d="M9.36714443,19 C4.27673649,19 0,14.7346939 0,9.5 C0,4.26530612 4.27673649,0 9.36714443,0 C12.185226,0 14.1896362,1.13265306 15.6979052,2.62244898 L13.92172,4.44897959 C12.8401323,3.40816327 11.3715546,2.59183673 9.36714443,2.59183673 C5.646086,2.59183673 2.73869901,5.67346939 2.73869901,9.5 C2.73869901,13.3265306 5.646086,16.4081633 9.36714443,16.4081633 C11.7783903,16.4081633 13.1477398,15.4081633 14.030871,14.5102041 C14.755237,13.7653061 15.2216097,12.7040816 15.4002205,11.244898 L9.36714443,11.244898 L9.36714443,8.64285714 L17.8610805,8.64285714 C17.9503859,9.10204082 18,9.66326531 18,10.2653061 C18,12.2142857 17.4840132,14.622449 15.8169791,16.3367347 C14.1896362,18.0714286 12.1256891,19 9.36714443,19 Z" id="Shape"></path>
            <path d="M32,13 C32,16.4557596 29.3096447,19 26,19 C22.6903553,19 20,16.4557596 20,13 C20,9.52420701 22.6903553,7 26,7 C29.3096447,7 32,9.52420701 32,13 Z M29.3705584,13 C29.3705584,10.836394 27.8071066,9.3639399 26,9.3639399 C24.1928934,9.3639399 22.6294416,10.8464107 22.6294416,13 C22.6294416,15.1335559 24.1928934,16.6360601 26,16.6360601 C27.8071066,16.6360601 29.3705584,15.1435726 29.3705584,13 Z" id="Shape"></path>
            <path d="M45,13 C45,16.4557596 42.3096447,19 39,19 C35.7005076,19 33,16.4557596 33,13 C33,9.52420701 35.6903553,7 39,7 C42.3096447,7 45,9.52420701 45,13 Z M42.3807107,13 C42.3807107,10.836394 40.8172589,9.3639399 39.0101523,9.3639399 C37.2030457,9.3639399 35.6395939,10.8464107 35.6395939,13 C35.6395939,15.1335559 37.2030457,16.6360601 39.0101523,16.6360601 C40.8172589,16.6460768 42.3807107,15.1435726 42.3807107,13 Z" id="Shape"></path>
            <path d="M57,7.3621186 L57,17.8929188 C57,22.228555 54.5013055,24 51.5430809,24 C48.7571802,24 47.0913838,22.0915371 46.45953,20.5354059 L48.6518712,19.6056419 C49.0443864,20.5647668 50.0017406,21.6902706 51.5430809,21.6902706 C53.4386423,21.6902706 54.6066144,20.4864709 54.6066144,18.2452504 L54.6066144,17.4035694 L54.5204526,17.4035694 C53.9556136,18.1180196 52.8642298,18.7345999 51.4952132,18.7345999 C48.6231506,18.7345999 46,16.1801957 46,12.8917674 C46,9.58376511 48.6327241,7 51.4952132,7 C52.8642298,7 53.9556136,7.6263673 54.5204526,8.31145653 L54.6066144,8.31145653 L54.6066144,7.3621186 L57,7.3621186 Z M54.7789382,12.9015544 C54.7789382,10.8364997 53.4290688,9.31951641 51.7154047,9.31951641 C49.97302,9.31951641 48.5178416,10.8267127 48.5178416,12.9015544 C48.5178416,14.9470351 49.97302,16.4346575 51.7154047,16.4346575 C53.4290688,16.4346575 54.7789382,14.9470351 54.7789382,12.9015544 Z" id="Shape"></path>
            <polygon id="Shape" points="63 1 63 19 60 19 60 1"></polygon>
            <path d="M72.8441203,14.9732888 L74.8896992,16.3355593 C74.2278943,17.3171953 72.633546,19 69.8760255,19 C66.4567001,19 64,16.3656093 64,13 C64,9.43405676 66.4867821,7 69.5852325,7 C72.7037375,7 74.2278943,9.47412354 74.7292616,10.8163606 L75,11.4974958 L66.9680948,14.8230384 C67.579763,16.0250417 68.5423883,16.6460768 69.8860529,16.6460768 C71.2297174,16.6460768 72.1622607,15.9749583 72.8441203,14.9732888 Z M66.5369189,12.8096828 L71.911577,10.5859766 C71.6107566,9.83472454 70.72835,9.31385643 69.6754786,9.31385643 C68.331814,9.31385643 66.4667274,10.4958264 66.5369189,12.8096828 Z" id="Shape"></path>
        </g>
    </g>
</svg>