<?xml version="1.0" encoding="UTF-8"?>
<svg width="258px" height="26px" viewBox="0 0 258 26" version="1.1" xmlns="http://www.w3.org/2000/svg" xmlns:xlink="http://www.w3.org/1999/xlink">
    <!-- Generator: Sketch 51.3 (57544) - http://www.bohemiancoding.com/sketch -->
    <title>SwG-TH Copy-Black</title>
    <desc>Created with Sketch.</desc>
    <defs></defs>
    <g id="SwG-TH-Copy" stroke="none" stroke-width="1" fill="none" fill-rule="evenodd">
        <path d="M11.0597656,8.41015625 C11.3053398,8.67369923 11.5059888,9.00611779 11.6617188,9.40742187 C11.8893241,9.97643514 12.003125,10.5604137 12.003125,11.159375 L12.003125,20 L9.86484375,20 L9.86484375,18.8230469 C9.86484375,17.7089788 9.50547234,16.4212313 8.78671875,14.9597656 C7.87030792,13.1089751 6.87305227,12.1835937 5.79492188,12.1835937 C5.08814751,12.1835937 4.60599087,12.5759075 4.3484375,13.3605469 C4.23463485,13.7259133 4.17773438,14.1871066 4.17773438,14.7441406 C4.17773438,15.0675797 4.20169247,15.4209616 4.24960937,15.8042969 C4.5311212,15.7024734 4.80064975,15.6515625 5.05820313,15.6515625 C5.68711252,15.6515625 6.21718534,15.8686827 6.6484375,16.3029297 C7.07968966,16.7371767 7.2953125,17.2687469 7.2953125,17.8976562 C7.2953125,18.3768253 7.13659013,18.8350239 6.81914063,19.2722656 C6.48372228,19.7454451 6.08841373,20.0119789 5.63320313,20.071875 C5.27382633,20.1138023 5.02825587,20.1347656 4.89648438,20.1347656 C4.11783465,20.1347656 3.45299755,19.853258 2.90195313,19.2902344 C2.31497102,18.7032523 2.02148438,17.5682376 2.02148438,15.8851563 C2.02148438,14.0523346 2.31497102,12.7585975 2.90195313,12.0039062 C3.54284175,11.1593708 4.39035931,10.7371094 5.44453125,10.7371094 C6.04349258,10.7371094 6.6753873,10.8958317 7.34023437,11.2132812 C8.11289449,11.5786477 8.84361635,12.36627 9.53242188,13.5761719 C9.61028685,13.713933 9.72109303,13.9235663 9.86484375,14.2050781 L9.86484375,11.5097656 C9.86484375,10.575386 9.70312662,9.87161695 9.3796875,9.3984375 C8.88853921,8.69166313 7.95716832,8.33828125 6.58554688,8.33828125 C5.35168654,8.33828125 4.3843785,8.55540147 3.68359375,8.98964844 C2.982809,9.4238954 2.53359474,9.91353894 2.3359375,10.4585937 L1.15898437,9.5421875 L1.93164062,8.58085937 C2.35091355,8.17955529 2.7701802,7.87109483 3.18945312,7.65546875 C3.60872605,7.43984267 4.13580412,7.25716221 4.77070313,7.10742187 C5.32773716,6.98164 5.9506476,6.91875 6.63945313,6.91875 C7.86732385,6.91875 8.8645795,7.08346189 9.63125,7.41289062 C9.9007826,7.22721261 10.1074212,7.02656358 10.2511719,6.8109375 C10.4608083,6.5414049 10.565625,6.1820335 10.565625,5.7328125 L12.8476562,6.31679687 C12.8476562,7.0056024 12.461332,7.59557046 11.6886719,8.08671875 C11.4730458,8.22447986 11.2634125,8.33229128 11.0597656,8.41015625 Z M6.02851562,17.8976562 C6.02851562,17.6281237 5.93567801,17.3960296 5.75,17.2013672 C5.56432199,17.0067048 5.33372534,16.909375 5.05820313,16.909375 C4.80064975,16.909375 4.57903739,17.0096995 4.39335938,17.2103516 C4.20768136,17.4110036 4.11484375,17.6401029 4.11484375,17.8976562 C4.11484375,18.1611992 4.20768136,18.3902985 4.39335938,18.5849609 C4.57903739,18.7796234 4.80064975,18.8769531 5.05820313,18.8769531 C5.32773572,18.8769531 5.55683499,18.7811207 5.74550781,18.5894531 C5.93418063,18.3977855 6.02851562,18.1671888 6.02851562,17.8976562 Z M24.3746094,7.15234375 L26.4949219,7.15234375 L26.4949219,17.5652344 C26.4949219,18.5235725 26.3361995,19.1494777 26.01875,19.4429687 C25.677342,19.8802105 25.1981802,20.0988281 24.58125,20.0988281 C24.3356759,20.0988281 24.0931002,19.9341162 23.8535156,19.6046875 C23.5660142,19.1674457 23.2755223,18.7302105 22.9820312,18.2929687 C22.6406233,17.777862 22.3082047,17.3765639 21.9847656,17.0890625 C21.2480432,16.430205 20.5053423,16.0558598 19.7566406,15.9660156 L19.7566406,18.2660156 C19.7566406,19.0686238 19.475133,19.6136704 18.9121094,19.9011719 C18.5227845,20.0988291 18.0376331,20.1976562 17.4566406,20.1976562 C17.1152327,20.1976562 16.8397146,20.1647139 16.6300781,20.0988281 C15.8933557,19.8891917 15.3572933,19.4100298 15.021875,18.6613281 C14.8481762,18.2839825 14.7613281,17.8527368 14.7613281,17.3675781 C14.7613281,16.0798113 15.2135371,15.1933618 16.1179688,14.7082031 C16.6750028,14.4027328 17.1691385,14.25 17.6003906,14.25 L17.6003906,11.375 L17.2679688,11.4109375 C17.1661453,11.4229167 17.0583339,11.4289062 16.9445313,11.4289062 C16.3335907,11.4289062 15.8139995,11.2192729 15.3857422,10.8 C14.9574848,10.3807271 14.7433594,9.86263329 14.7433594,9.24570312 C14.7433594,8.76054445 14.9020817,8.29635638 15.2195312,7.853125 C15.5609392,7.37994555 15.9622373,7.11341176 16.4234375,7.05351562 C16.7888039,7.01158833 17.0403639,6.990625 17.178125,6.990625 C17.9867228,6.990625 18.6276018,7.25116927 19.1007812,7.77226562 C19.538023,8.26341391 19.7566406,8.88632435 19.7566406,9.64101562 L19.7566406,14.4386719 C20.4933631,14.4746096 21.2899697,14.78307 22.1464844,15.3640625 C22.2123701,15.4119794 22.565752,15.7294241 23.2066406,16.3164062 C23.8115916,16.8734403 24.1230468,17.1489584 24.1410156,17.1429687 C24.2967456,17.0950518 24.3746094,16.891408 24.3746094,16.5320312 L24.3746094,7.15234375 Z M15.9742187,9.24570312 C15.9742187,9.49726688 16.0730459,9.72187401 16.2707031,9.91953125 C16.4683604,10.1171885 16.6929675,10.2160156 16.9445312,10.2160156 C17.2140638,10.2160156 17.4521474,10.1201832 17.6587891,9.92851562 C17.8654307,9.736848 17.96875,9.50924611 17.96875,9.24570312 C17.96875,8.9641913 17.8684255,8.72760512 17.6677734,8.5359375 C17.4671214,8.34426987 17.2260431,8.2484375 16.9445312,8.2484375 C16.6809883,8.2484375 16.4533864,8.34876202 16.2617187,8.54941406 C16.0700511,8.75006611 15.9742187,8.98216014 15.9742187,9.24570312 Z M16.3246094,17.0621094 C16.3186198,17.1100263 16.315625,17.1609372 16.315625,17.2148437 L16.315625,17.3585937 C16.315625,17.7658875 16.3665359,18.0653636 16.4683594,18.2570312 C16.6180997,18.5684911 16.8127592,18.7242187 17.0523438,18.7242187 C17.4177102,18.7242187 17.6003906,18.5295592 17.6003906,18.1402344 L17.6003906,15.8582031 C17.5464841,15.8342447 17.4746098,15.8222656 17.3847656,15.8222656 C17.1811188,15.8222656 16.9834645,15.8941399 16.7917969,16.0378906 C16.480337,16.3972674 16.3246094,16.7386703 16.3246094,17.0621094 Z M28.4535156,2.6421875 C29.2860719,2.01327811 29.7023438,1.16576054 29.7023438,0.099609375 L31.840625,0.099609375 C31.840625,1.26159435 31.2686255,2.31275571 30.1246094,3.253125 C28.8967387,4.27135926 27.573054,4.78046875 26.1535156,4.78046875 C24.8238215,4.78046875 23.8175815,4.61276209 23.1347656,4.27734375 C22.2183548,3.86406043 21.7601562,3.17826 21.7601562,2.21992187 C21.7601562,1.61497093 21.9667948,1.09687716 22.3800781,0.665625 C22.847268,0.252341684 23.3893198,0.045703125 24.00625,0.045703125 C24.6531282,0.045703125 25.1802063,0.219399305 25.5875,0.566796875 C26.0606794,0.974090578 26.2972656,1.49218436 26.2972656,2.12109375 C26.2972656,2.72005508 26.1235694,3.18424314 25.7761719,3.51367187 C25.836068,3.51966149 25.886979,3.52265625 25.9289063,3.52265625 C26.893234,3.52265625 27.734762,3.2291696 28.4535156,2.6421875 Z M23.0269531,2.20195312 C23.0269531,2.47148572 23.1227855,2.71256404 23.3144531,2.92519531 C23.5061207,3.13782658 23.7367174,3.24414062 24.00625,3.24414062 C24.2877618,3.24414062 24.5318349,3.14231873 24.7384766,2.93867187 C24.9451182,2.73502502 25.0484375,2.48945456 25.0484375,2.20195312 C25.0484375,1.93242053 24.9406261,1.69433697 24.725,1.48769531 C24.5093739,1.28105365 24.269793,1.17773437 24.00625,1.17773437 C23.742707,1.17773437 23.5136077,1.28255104 23.3189453,1.4921875 C23.1242829,1.70182396 23.0269531,1.93841014 23.0269531,2.20195312 Z M33.6464844,20 L31.0949219,20 C31.0949219,19.9460935 31.099414,19.8607428 31.1083984,19.7439453 C31.1173829,19.6271479 31.121875,19.5388024 31.121875,19.4789063 C31.121875,18.7421838 31.0350269,17.8587291 30.8613281,16.8285156 C30.6636709,16.0438763 30.385158,14.8579506 30.0257813,13.2707031 C29.9419267,12.869399 29.9,12.4022162 29.9,11.8691406 C29.9,10.3178308 30.4600204,9.0809942 31.5800781,8.15859375 C32.5863332,7.33202712 33.9669183,6.91875 35.721875,6.91875 C37.6026136,6.91875 39.0191359,7.31106379 39.9714844,8.09570312 C40.8938848,8.86237362 41.3550781,9.96145118 41.3550781,11.3929688 L41.3550781,20 L39.1988281,20 L39.1988281,11.2761719 C39.1988281,10.3956987 38.9292996,9.69492448 38.3902344,9.17382812 C37.8092419,8.61679409 36.9078186,8.33828125 35.6859375,8.33828125 C34.6736929,8.33828125 33.8321648,8.63326528 33.1613281,9.22324219 C32.4904914,9.8132191 32.1550781,10.6891869 32.1550781,11.8511719 C32.1550781,12.4022163 32.1910153,12.845441 32.2628906,13.1808594 C32.3167971,13.4144543 32.3916662,13.7708309 32.4875,14.25 C32.5294273,14.513543 32.571354,14.8519511 32.6132813,15.2652344 C32.6252605,15.4748708 32.6372395,15.636588 32.6492188,15.7503906 C32.6492188,15.3790346 32.7240878,14.8669303 32.8738281,14.2140625 C32.9576827,13.818748 33.1014313,13.3006542 33.3050781,12.6597656 C33.4847665,11.9829393 33.7183579,11.4438822 34.0058594,11.0425781 C34.3412777,10.5634091 34.8593715,10.3238281 35.5601563,10.3238281 C36.7460997,10.3238281 37.5247377,10.7401 37.8960937,11.5726563 C38.0398445,11.9080746 38.1117188,12.2255193 38.1117188,12.525 C38.1117188,13.1718782 37.9350278,13.6869772 37.5816406,14.0703125 C37.1024716,14.5794296 36.4975297,14.8339844 35.7667969,14.8339844 C35.3595032,14.8339844 34.9731789,14.7111991 34.6078125,14.465625 C34.1585915,15.5617242 33.8740891,16.9572832 33.7542969,18.6523438 L33.6464844,20 Z M35.8027344,11.6085937 C35.1498665,11.6085937 34.8234375,11.9350228 34.8234375,12.5878906 C34.8234375,12.8514336 34.9192699,13.0775381 35.1109375,13.2662109 C35.3026051,13.4548838 35.5332018,13.5492188 35.8027344,13.5492188 C36.0542981,13.5492188 36.2774079,13.451889 36.4720703,13.2572266 C36.6667327,13.0625641 36.7640625,12.8394544 36.7640625,12.5878906 C36.7640625,12.3123684 36.6712249,12.0802744 36.4855469,11.8916016 C36.2998689,11.7029287 36.072267,11.6085937 35.8027344,11.6085937 Z M48.0125,11.4828125 C47.269788,11.3450514 46.5330766,11.2611981 45.8023438,11.23125 C45.472915,11.2192708 45.1854179,11.2132812 44.9398438,11.2132812 C44.2270798,11.2132812 43.8407555,11.2342446 43.7808594,11.2761719 C43.7628905,11.1923173 43.7539063,11.1054692 43.7539063,11.015625 C43.7539063,10.2190064 44.0144505,9.41341553 44.5355469,8.59882812 C45.2003939,7.56262503 46.2874925,7.04453125 47.796875,7.04453125 C48.2161479,7.04453125 48.8031212,7.15384005 49.5578125,7.37246094 C50.3125038,7.59108182 50.8695295,7.70039062 51.2289063,7.70039062 C51.929691,7.70039062 52.4088529,7.48177302 52.6664063,7.04453125 L54.2386719,7.86210937 C54.1548173,8.08971468 53.9811211,8.32630086 53.7175781,8.571875 C53.3402325,8.92526218 52.9179711,9.12591122 52.4507813,9.17382812 C52.1812487,9.20377619 51.9985682,9.21875 51.9027344,9.21875 C51.4295549,9.21875 50.7707073,9.08398572 49.9261719,8.81445312 C49.165491,8.58085821 48.5845072,8.4640625 48.1832031,8.4640625 C47.4584599,8.4640625 46.89245,8.64674296 46.4851563,9.01210937 C46.2216133,9.23372507 46.0089852,9.55715933 45.8472656,9.98242187 C46.5480504,9.98242187 47.3716099,10.0542962 48.3179688,10.1980469 C49.4200576,10.3717457 50.3124966,10.6143214 50.9953125,10.9257812 C51.6781284,11.2372411 52.1423165,11.6175759 52.3878906,12.0667969 C52.5915375,12.4261737 52.6933594,12.7975241 52.6933594,13.1808594 L52.6933594,17.5292969 C52.6933594,18.2779985 52.4507837,18.9158828 51.965625,19.4429687 C51.5104144,19.9401067 50.9174516,20.1886719 50.1867188,20.1886719 C49.3721313,20.1886719 48.7342471,19.9341171 48.2730469,19.425 C47.8957012,19.0177063 47.7070313,18.5205759 47.7070313,17.9335938 C47.7070313,17.2986947 47.9166646,16.7731141 48.3359375,16.3568359 C48.7552104,15.9405578 49.2822885,15.7324219 49.9171875,15.7324219 C50.1927097,15.7324219 50.3993483,15.75638 50.5371094,15.8042969 L50.5371094,13.3605469 C50.5371094,12.971222 50.441277,12.6507825 50.2496094,12.3992187 C49.9501287,12.0039043 49.204433,11.6984386 48.0125,11.4828125 Z M49.9171875,18.921875 C50.1867201,18.921875 50.4158194,18.8245452 50.6044922,18.6298828 C50.793165,18.4352204 50.8875,18.2031263 50.8875,17.9335937 C50.8875,17.6640612 50.7916676,17.4334645 50.6,17.2417969 C50.4083324,17.0501292 50.1807305,16.9542969 49.9171875,16.9542969 C49.6416653,16.9542969 49.4065765,17.0486319 49.2119141,17.2373047 C49.0172516,17.4259775 48.9199219,17.6580715 48.9199219,17.9335937 C48.9199219,18.209116 49.0157543,18.4427074 49.2074219,18.634375 C49.3990895,18.8260426 49.6356757,18.921875 49.9171875,18.921875 Z M59.1441406,11.4828125 C58.4014286,11.3450514 57.6647172,11.2611981 56.9339844,11.23125 C56.6045556,11.2192708 56.3170585,11.2132812 56.0714844,11.2132812 C55.3587204,11.2132812 54.9723961,11.2342446 54.9125,11.2761719 C54.8945312,11.1923173 54.8855469,11.1054692 54.8855469,11.015625 C54.8855469,10.2190064 55.1460911,9.41341553 55.6671875,8.59882812 C56.3320346,7.56262503 57.4191331,7.04453125 58.9285156,7.04453125 C59.3477886,7.04453125 59.9347619,7.15384005 60.6894531,7.37246094 C61.4441444,7.59108182 62.0011701,7.70039062 62.3605469,7.70039062 C63.0613316,7.70039062 63.5404935,7.48177302 63.7980469,7.04453125 L65.3703125,7.86210937 C65.2864579,8.08971468 65.1127617,8.32630086 64.8492188,8.571875 C64.4718731,8.92526218 64.0496117,9.12591122 63.5824219,9.17382812 C63.3128893,9.20377619 63.1302088,9.21875 63.034375,9.21875 C62.5611956,9.21875 61.902348,9.08398572 61.0578125,8.81445312 C60.2971316,8.58085821 59.7161478,8.4640625 59.3148438,8.4640625 C58.5901005,8.4640625 58.0240906,8.64674296 57.6167969,9.01210937 C57.3532539,9.23372507 57.1406258,9.55715933 56.9789063,9.98242187 C57.679691,9.98242187 58.5032505,10.0542962 59.4496094,10.1980469 C60.5516982,10.3717457 61.4441372,10.6143214 62.1269531,10.9257812 C62.809769,11.2372411 63.2739571,11.6175759 63.5195312,12.0667969 C63.7231781,12.4261737 63.825,12.7975241 63.825,13.1808594 L63.825,17.5292969 C63.825,18.2779985 63.5824243,18.9158828 63.0972656,19.4429687 C62.642055,19.9401067 62.0490922,20.1886719 61.3183594,20.1886719 C60.503772,20.1886719 59.8658877,19.9341171 59.4046875,19.425 C59.0273419,19.0177063 58.8386719,18.5205759 58.8386719,17.9335938 C58.8386719,17.2986947 59.0483052,16.7731141 59.4675781,16.3568359 C59.8868511,15.9405578 60.4139291,15.7324219 61.0488281,15.7324219 C61.3243503,15.7324219 61.5309889,15.75638 61.66875,15.8042969 L61.66875,13.3605469 C61.66875,12.971222 61.5729176,12.6507825 61.38125,12.3992187 C61.0817693,12.0039043 60.3360737,11.6984386 59.1441406,11.4828125 Z M61.0488281,18.921875 C61.3183607,18.921875 61.54746,18.8245452 61.7361328,18.6298828 C61.9248056,18.4352204 62.0191406,18.2031263 62.0191406,17.9335937 C62.0191406,17.6640612 61.9233082,17.4334645 61.7316406,17.2417969 C61.539973,17.0501292 61.3123711,16.9542969 61.0488281,16.9542969 C60.7733059,16.9542969 60.5382171,17.0486319 60.3435547,17.2373047 C60.1488923,17.4259775 60.0515625,17.6580715 60.0515625,17.9335937 C60.0515625,18.209116 60.1473949,18.4427074 60.3390625,18.634375 C60.5307301,18.8260426 60.7673163,18.921875 61.0488281,18.921875 Z M64.3550781,2.6421875 C65.1876344,2.01327811 65.6039063,1.16576054 65.6039063,0.099609375 L67.7421875,0.099609375 C67.7421875,1.26159435 67.170188,2.31275571 66.0261719,3.253125 C64.7983012,4.27135926 63.4746165,4.78046875 62.0550781,4.78046875 C60.725384,4.78046875 59.719144,4.61276209 59.0363281,4.27734375 C58.1199173,3.86406043 57.6617188,3.17826 57.6617188,2.21992187 C57.6617188,1.61497093 57.8683573,1.09687716 58.2816406,0.665625 C58.7488305,0.252341684 59.2908823,0.045703125 59.9078125,0.045703125 C60.5546907,0.045703125 61.0817688,0.219399305 61.4890625,0.566796875 C61.9622419,0.974090578 62.1988281,1.49218436 62.1988281,2.12109375 C62.1988281,2.72005508 62.0251319,3.18424314 61.6777344,3.51367187 C61.7376305,3.51966149 61.7885415,3.52265625 61.8304688,3.52265625 C62.7947965,3.52265625 63.6363245,3.2291696 64.3550781,2.6421875 Z M58.9285156,2.20195312 C58.9285156,2.47148572 59.024348,2.71256404 59.2160156,2.92519531 C59.4076833,3.13782658 59.6382799,3.24414062 59.9078125,3.24414062 C60.1893243,3.24414062 60.4333974,3.14231873 60.6400391,2.93867187 C60.8466807,2.73502502 60.95,2.48945456 60.95,2.20195312 C60.95,1.93242053 60.8421886,1.69433697 60.6265625,1.48769531 C60.4109364,1.28105365 60.1713555,1.17773437 59.9078125,1.17773437 C59.6442695,1.17773437 59.4151702,1.28255104 59.2205078,1.4921875 C59.0258454,1.70182396 58.9285156,1.93841014 58.9285156,2.20195312 Z M70.4824219,7.70039062 C70.991539,8.25143505 71.2460938,8.89830358 71.2460938,9.64101562 L71.2460938,18.3738281 L75.6484375,18.3738281 C75.9479182,18.3738281 76.2024729,18.2660167 76.4121094,18.0503906 C76.5498705,17.9186191 76.61875,17.6610696 76.61875,17.2777344 L76.61875,7.15234375 L78.7929688,7.15234375 L78.7929688,17.5292969 C78.7929688,18.2480505 78.6402359,18.8170552 78.3347656,19.2363281 C77.9514304,19.7454453 77.3195357,20 76.4390625,20 L67.9667969,20 L67.9667969,18.3738281 L69.1167969,18.3738281 L69.1167969,11.375 C68.8592435,11.4109377 68.6406259,11.4289062 68.4609375,11.4289062 C67.8440073,11.4289062 67.3139345,11.2192729 66.8707031,10.8 C66.4274717,10.3807271 66.2058594,9.86263329 66.2058594,9.24570312 C66.2058594,8.76054445 66.3645817,8.29635638 66.6820312,7.853125 C67.0354184,7.37994555 67.4457008,7.11341176 67.9128906,7.05351562 C68.278257,7.01158833 68.5328118,6.990625 68.6765625,6.990625 C69.4552122,6.990625 70.0571593,7.22721118 70.4824219,7.70039062 Z M67.490625,9.24570312 C67.490625,9.5032565 67.5864574,9.72936101 67.778125,9.92402344 C67.9697926,10.1186859 68.1973945,10.2160156 68.4609375,10.2160156 C68.7244805,10.2160156 68.9520824,10.1201832 69.14375,9.92851562 C69.3354176,9.736848 69.43125,9.50924611 69.43125,9.24570312 C69.43125,8.97018091 69.336915,8.73509212 69.1482422,8.54042969 C68.9595694,8.34576726 68.7304701,8.2484375 68.4609375,8.2484375 C68.1854153,8.2484375 67.9548186,8.34576726 67.7691406,8.54042969 C67.5834626,8.73509212 67.490625,8.97018091 67.490625,9.24570312 Z M92.1617188,7.15234375 L92.1617188,17.5292969 C92.1617188,18.1941439 92.0059911,18.7481749 91.6945313,19.1914062 C91.1614557,19.7304714 90.4606814,20 89.5921875,20 L83.0875,20 L83.0875,18.4007812 L84.3992188,18.4007812 L84.3992188,15.8851562 C84.3992188,15.2442676 84.7885378,14.4506558 85.5671875,13.5042969 C86.2080761,12.7256471 86.6333323,12.0697943 86.8429688,11.5367187 C86.9927091,11.1414043 87.0675781,10.7131533 87.0675781,10.2519531 C87.0675781,9.73684638 86.9148453,9.29362165 86.609375,8.92226562 C86.2799463,8.50898231 85.8666692,8.30234375 85.3695313,8.30234375 L85.2078125,8.30234375 C85.153906,8.30234375 85.102995,8.29934899 85.0550781,8.29335937 C84.3243453,8.29335937 83.8930996,8.47005032 83.7613281,8.8234375 C84.4321648,8.8234375 84.9143214,9.05702891 85.2078125,9.52421875 C85.5132828,10.015367 85.6660156,10.4645813 85.6660156,10.871875 C85.6660156,11.2492206 85.561199,11.6235659 85.3515625,11.9949219 C85.1239572,12.396226 84.8424496,12.6537755 84.5070313,12.7675781 C84.0877583,12.9233081 83.7343764,13.0011719 83.446875,13.0011719 C82.9856748,13.0011719 82.5334658,12.8394547 82.0902344,12.5160156 C81.6290342,12.1686181 81.3684899,11.7703147 81.3085938,11.3210937 C81.2486976,10.9796858 81.21875,10.7281258 81.21875,10.5664062 C81.21875,9.48827586 81.608069,8.60182639 82.3867188,7.90703125 C83.0635451,7.2960907 84.0488217,6.990625 85.3425781,6.990625 C86.3009163,6.990625 87.1124967,7.25416403 87.7773438,7.78125 C88.5979208,8.42812823 89.0082031,9.26666152 89.0082031,10.296875 C89.0082031,11.4947977 88.5559941,12.671739 87.6515625,13.8277344 C87.1843727,14.4266957 86.9238284,14.7740881 86.8699219,14.8699219 C86.636327,15.2532571 86.5195313,15.6635395 86.5195313,16.1007812 L86.5195313,18.4007812 L89.1160156,18.4007812 C89.3436209,18.4007812 89.5802071,18.277996 89.8257813,18.0324219 C89.9276047,17.8407542 89.9785156,17.5712257 89.9785156,17.2238281 L89.9785156,7.15234375 L92.1617188,7.15234375 Z M82.584375,10.9257812 C82.584375,11.177345 82.6697257,11.39746 82.8404297,11.5861328 C83.0111337,11.7748056 83.2222644,11.8691406 83.4738281,11.8691406 C84.1027375,11.8691406 84.4171875,11.5546906 84.4171875,10.9257812 C84.4171875,10.2968719 84.1027375,9.98242188 83.4738281,9.98242187 C83.228254,9.98242188 83.0186207,10.0782543 82.8449219,10.2699219 C82.6712231,10.4615895 82.584375,10.6802071 82.584375,10.9257812 Z M89.3316406,3.05546875 C89.2358068,3.07343759 89.1010425,3.08242187 88.9273438,3.08242187 C88.2325486,3.08242187 87.7174496,2.85781475 87.3820313,2.40859375 C87.1664052,2.13307154 87.0585938,1.77370013 87.0585938,1.33046875 C87.0585938,0.420047531 87.507808,-0.172915289 88.40625,-0.4484375 C88.6338553,-0.520312859 88.864452,-0.55625 89.0980469,-0.55625 C89.8287797,-0.55625 90.3768211,-0.280731922 90.7421875,0.2703125 C91.0656266,0.743491949 91.2273438,1.21366954 91.2273438,1.68085937 C91.2273438,1.89648545 91.1973961,2.1121083 91.1375,2.32773437 C90.9937493,2.84284112 90.7511736,3.24713395 90.4097656,3.540625 C91.3381557,3.3130197 92.0299456,2.92669543 92.4851563,2.38164062 C93.1260449,1.62095974 93.4464844,0.818363598 93.4464844,-0.026171875 L95.4859375,-0.026171875 C95.4859375,1.35143918 94.8031318,2.54335434 93.4375,3.54960937 C91.9999928,4.63372938 90.1731882,5.17578125 87.9570313,5.17578125 L87.9570313,4.23242188 C88.2625015,4.23242188 88.5919253,4.0976576 88.9453125,3.828125 C89.2028659,3.57057163 89.3316406,3.31302212 89.3316406,3.05546875 Z M88.9453125,0.458984375 C88.3822889,0.458984375 88.1007813,0.7464815 88.1007813,1.32148437 C88.1786462,1.89049764 88.4930962,2.175 89.0441406,2.175 C89.565237,2.175 89.8257813,1.87552383 89.8257813,1.2765625 C89.8257813,0.731507691 89.5322946,0.458984375 88.9453125,0.458984375 Z M104.137891,19.8652344 C103.850389,19.9550786 103.517971,20 103.140625,20 L96.0339844,20 L96.0339844,13.4414062 C96.0339844,12.9382787 96.0938796,12.5549492 96.2136719,12.2914062 C96.3095057,12.0697906 96.4951809,11.8092463 96.7707031,11.5097656 C96.9803396,11.2701811 97.2348943,11.0934902 97.534375,10.9796875 C97.8638037,10.8539056 98.2022118,10.7910156 98.5496094,10.7910156 C99.3641968,10.7910156 99.9960915,11.0365861 100.445313,11.5277344 C100.822658,11.9470073 101.011328,12.4561168 101.011328,13.0550781 C101.011328,13.6720083 100.795705,14.1930968 100.364453,14.6183594 C99.933201,15.0436219 99.4091177,15.25625 98.7921875,15.25625 C98.8580732,15.25625 98.6454452,15.2292971 98.1542969,15.1753906 L98.1542969,18.3738281 L102.197266,18.3738281 C102.664455,18.3738281 103.026822,18.2300796 103.284375,17.9425781 C103.482032,17.7149728 103.580859,17.2298214 103.580859,16.4871094 L103.580859,11.5097656 C103.580859,10.5873652 103.413153,9.88359618 103.077734,9.3984375 C102.580596,8.69166313 101.655215,8.33828125 100.301563,8.33828125 C99.0677022,8.33828125 98.0854203,8.5688779 97.3546875,9.03007812 C96.5700482,9.52122641 96.1388025,9.99739353 96.0609375,10.4585937 L94.875,9.5421875 C95.2523456,8.78749623 95.9351513,8.1556015 96.9234375,7.64648438 C97.8638068,7.1613257 99.0018162,6.91875 100.3375,6.91875 C102.984909,6.91875 104.66497,7.7243409 105.377734,9.33554687 C105.611329,9.88060168 105.728125,10.4885383 105.728125,11.159375 L105.728125,17.7 C105.728125,18.0953145 105.647266,18.4397121 105.485547,18.7332031 C105.156118,19.3201852 104.706904,19.6975252 104.137891,19.8652344 Z M98.7921875,12.0308594 C98.5106757,12.0308594 98.2770843,12.1311839 98.0914063,12.3318359 C97.9057282,12.532488 97.8128906,12.7735663 97.8128906,13.0550781 C97.8128906,13.3126315 97.9102204,13.5342439 98.1048828,13.7199219 C98.2995452,13.9055999 98.5286445,13.9984375 98.7921875,13.9984375 C99.0557305,13.9984375 99.2833324,13.9085946 99.475,13.7289063 C99.6666676,13.5492179 99.7625,13.3246107 99.7625,13.0550781 C99.7625,12.7735663 99.6696624,12.532488 99.4839844,12.3318359 C99.2983064,12.1311839 99.0677097,12.0308594 98.7921875,12.0308594 Z M118.027734,7.15234375 L120.148047,7.15234375 L120.148047,17.5652344 C120.148047,18.5235725 119.989325,19.1494777 119.671875,19.4429687 C119.330467,19.8802105 118.851305,20.0988281 118.234375,20.0988281 C117.988801,20.0988281 117.746225,19.9341162 117.506641,19.6046875 C117.219139,19.1674457 116.928647,18.7302105 116.635156,18.2929687 C116.293748,17.777862 115.96133,17.3765639 115.637891,17.0890625 C114.901168,16.430205 114.158467,16.0558598 113.409766,15.9660156 L113.409766,18.2660156 C113.409766,19.0686238 113.128258,19.6136704 112.565234,19.9011719 C112.17591,20.0988291 111.690758,20.1976562 111.109766,20.1976562 C110.768358,20.1976562 110.49284,20.1647139 110.283203,20.0988281 C109.546481,19.8891917 109.010418,19.4100298 108.675,18.6613281 C108.501301,18.2839825 108.414453,17.8527368 108.414453,17.3675781 C108.414453,16.0798113 108.866662,15.1933618 109.771094,14.7082031 C110.328128,14.4027328 110.822263,14.25 111.253516,14.25 L111.253516,11.375 L110.921094,11.4109375 C110.81927,11.4229167 110.711459,11.4289062 110.597656,11.4289062 C109.986716,11.4289062 109.467125,11.2192729 109.038867,10.8 C108.61061,10.3807271 108.396484,9.86263329 108.396484,9.24570312 C108.396484,8.76054445 108.555207,8.29635638 108.872656,7.853125 C109.214064,7.37994555 109.615362,7.11341176 110.076562,7.05351562 C110.441929,7.01158833 110.693489,6.990625 110.83125,6.990625 C111.639848,6.990625 112.280727,7.25116927 112.753906,7.77226562 C113.191148,8.26341391 113.409766,8.88632435 113.409766,9.64101562 L113.409766,14.4386719 C114.146488,14.4746096 114.943095,14.78307 115.799609,15.3640625 C115.865495,15.4119794 116.218877,15.7294241 116.859766,16.3164062 C117.464717,16.8734403 117.776172,17.1489584 117.794141,17.1429687 C117.949871,17.0950518 118.027734,16.891408 118.027734,16.5320312 L118.027734,7.15234375 Z M109.627344,9.24570312 C109.627344,9.49726688 109.726171,9.72187401 109.923828,9.91953125 C110.121485,10.1171885 110.346092,10.2160156 110.597656,10.2160156 C110.867189,10.2160156 111.105272,10.1201832 111.311914,9.92851562 C111.518556,9.736848 111.621875,9.50924611 111.621875,9.24570312 C111.621875,8.9641913 111.52155,8.72760512 111.320898,8.5359375 C111.120246,8.34426987 110.879168,8.2484375 110.597656,8.2484375 C110.334113,8.2484375 110.106511,8.34876202 109.914844,8.54941406 C109.723176,8.75006611 109.627344,8.98216014 109.627344,9.24570312 Z M109.977734,17.0621094 C109.971745,17.1100263 109.96875,17.1609372 109.96875,17.2148437 L109.96875,17.3585937 C109.96875,17.7658875 110.019661,18.0653636 110.121484,18.2570312 C110.271225,18.5684911 110.465884,18.7242187 110.705469,18.7242187 C111.070835,18.7242187 111.253516,18.5295592 111.253516,18.1402344 L111.253516,15.8582031 C111.199609,15.8342447 111.127735,15.8222656 111.037891,15.8222656 C110.834244,15.8222656 110.63659,15.8941399 110.444922,16.0378906 C110.133462,16.3972674 109.977734,16.7386703 109.977734,17.0621094 Z M114.613672,21.8328125 C114.074607,21.8328125 113.766146,22.0843725 113.688281,22.5875 C113.688281,23.2583367 113.996742,23.59375 114.613672,23.59375 C115.200654,23.59375 115.494141,23.3002634 115.494141,22.7132813 C115.494141,22.6593747 115.491146,22.6174481 115.485156,22.5875 C115.485156,22.0843725 115.194664,21.8328125 114.613672,21.8328125 Z M114.847266,25.9835937 L114.847266,24.3214844 C114.727473,24.3574221 114.598699,24.3753906 114.460938,24.3753906 C113.975779,24.3753906 113.508596,24.1747416 113.059375,23.7734375 C112.795832,23.5398426 112.664062,23.1834659 112.664062,22.7042969 C112.664062,22.2490863 112.831769,21.8447934 113.167187,21.4914062 C113.538544,21.1140606 114.029684,20.9253906 114.640625,20.9253906 C115.658859,20.9253906 116.302733,21.2937463 116.572266,22.0304687 C116.680079,22.3299494 116.733984,22.7342422 116.733984,23.2433594 L116.733984,24.74375 L118.279297,24.74375 L118.279297,21.1589844 L120.148047,21.1589844 L120.148047,25.9835937 L114.847266,25.9835937 Z M126.140625,15.8042969 C126.422137,15.7024734 126.703644,15.6515625 126.985156,15.6515625 C127.614066,15.6515625 128.142641,15.8686827 128.570898,16.3029297 C128.999156,16.7371767 129.213281,17.2687469 129.213281,17.8976563 C129.213281,18.3768253 129.057554,18.8380186 128.746094,19.28125 C128.404686,19.7484398 128.006382,20.0119789 127.551172,20.071875 C127.179816,20.1138023 126.928256,20.1347656 126.796484,20.1347656 C126.035803,20.1347656 125.376956,19.853258 124.819922,19.2902344 C124.220961,18.6852834 123.921484,17.5502687 123.921484,15.8851563 C123.921484,14.0283761 124.208981,12.7346391 124.783984,12.0039062 C125.442842,11.1593708 126.299344,10.7371094 127.353516,10.7371094 C127.946487,10.7371094 128.578382,10.8958317 129.249219,11.2132813 C129.991931,11.572658 130.662757,12.2884061 131.261719,13.3605469 C131.465366,13.7199237 131.621093,14.0014313 131.728906,14.2050781 L131.728906,11.5097656 C131.728906,10.5394483 131.579168,9.83567927 131.279687,9.3984375 C130.788539,8.69166313 129.854174,8.33828125 128.476562,8.33828125 C127.27864,8.33828125 126.302348,8.5688779 125.547656,9.03007812 C125.074477,9.32356918 124.634247,9.79973629 124.226953,10.4585937 L123.05,9.5421875 L123.831641,8.58085937 C124.232945,8.19153451 124.661196,7.88007929 125.116406,7.64648438 C125.541669,7.4308583 126.062757,7.25117259 126.679688,7.10742188 C127.224742,6.98164 127.841663,6.91875 128.530469,6.91875 C131.171888,6.91875 132.848955,7.7243409 133.561719,9.33554687 C133.795314,9.87461207 133.912109,10.4825487 133.912109,11.159375 L133.912109,20 L131.728906,20 L131.728906,18.8230469 C131.728906,17.6430931 131.384509,16.3523508 130.695703,14.9507812 C129.779292,13.1059804 128.788026,12.1835938 127.721875,12.1835938 C127.02109,12.1835938 126.553907,12.5459599 126.320312,13.2707031 C126.164583,13.7498722 126.086719,14.2889293 126.086719,14.8878906 C126.086719,15.3550805 126.104687,15.6605462 126.140625,15.8042969 Z M127.928516,17.8976562 C127.928516,17.6341133 127.837175,17.4035166 127.654492,17.2058594 C127.471809,17.0082021 127.248699,16.909375 126.985156,16.909375 C126.709634,16.909375 126.479037,17.0067048 126.293359,17.2013672 C126.107681,17.3960296 126.014844,17.6281237 126.014844,17.8976562 C126.014844,18.1671888 126.109179,18.3977855 126.297852,18.5894531 C126.486524,18.7811207 126.715624,18.8769531 126.985156,18.8769531 C127.23672,18.8769531 127.456835,18.7766286 127.645508,18.5759766 C127.834181,18.3753245 127.928516,18.14922 127.928516,17.8976562 Z M146.292578,20 L146.292578,11.2761719 C146.292578,10.3897091 146.02305,9.68893487 145.483984,9.17382812 C144.897002,8.61679409 143.995579,8.33828125 142.779687,8.33828125 C141.755464,8.33828125 140.925915,8.62278361 140.291016,9.19179687 C139.572262,9.84466472 139.212891,10.7311142 139.212891,11.8511719 C139.212891,12.438154 139.275781,13.0071587 139.401562,13.5582031 L139.742969,15.1214844 C140.006512,16.289459 140.138281,17.2417932 140.138281,17.9785156 C140.575523,17.229814 141.135543,16.3733121 141.818359,15.4089844 C142.027996,15.1154933 142.216666,14.8549491 142.384375,14.6273438 C141.887237,14.5674476 141.408075,14.3278667 140.946875,13.9085938 C140.629425,13.6210923 140.470703,13.1539095 140.470703,12.5070312 C140.470703,12.1955714 140.521614,11.9140638 140.623437,11.6625 C141.006773,10.7161411 141.746479,10.2429687 142.842578,10.2429687 C143.705082,10.2429687 144.324998,10.5364554 144.702344,11.1234375 C145.007814,11.6205754 145.160547,12.1416639 145.160547,12.6867187 C145.160547,13.0640644 144.902997,13.6630167 144.387891,14.4835937 C143.962628,15.1005239 143.330733,16.0229105 142.492188,17.2507812 C142.168748,17.7239607 141.707555,18.436714 141.108594,19.3890625 C140.958853,19.6406263 140.836068,19.8442701 140.740234,20 L138.170703,20 C138.170703,19.9460935 138.173698,19.8607428 138.179688,19.7439453 C138.185677,19.6271479 138.188672,19.5388024 138.188672,19.4789063 C138.188672,18.6942669 138.113803,17.813807 137.964062,16.8375 C137.766405,16.016923 137.490887,14.7770916 137.1375,13.1179687 C137.053645,12.7226543 137.011719,12.2704453 137.011719,11.7613281 C137.011719,10.2279871 137.577729,9.02409291 138.709766,8.14960937 C139.781906,7.32903236 141.147518,6.91875 142.806641,6.91875 C144.711338,6.91875 146.130855,7.31106379 147.065234,8.09570312 C147.969666,8.85638401 148.421875,9.95546156 148.421875,11.3929688 L148.421875,20 L146.292578,20 Z M141.800391,12.5519531 C141.800391,12.8154961 141.90371,13.0445954 142.110352,13.2392578 C142.316993,13.4339202 142.549087,13.53125 142.806641,13.53125 C143.076173,13.53125 143.309765,13.4354176 143.507422,13.24375 C143.705079,13.0520824 143.803906,12.8214857 143.803906,12.5519531 C143.803906,12.2704413 143.708074,12.0353525 143.516406,11.8466797 C143.324739,11.6580069 143.088152,11.5636719 142.806641,11.5636719 C142.537108,11.5636719 142.302019,11.6610016 142.101367,11.8556641 C141.900715,12.0503265 141.800391,12.2824205 141.800391,12.5519531 Z M145.277344,3.05546875 C145.18151,3.07343759 145.046746,3.08242187 144.873047,3.08242187 C144.178252,3.08242187 143.663153,2.85781475 143.327734,2.40859375 C143.112108,2.13307154 143.004297,1.77370013 143.004297,1.33046875 C143.004297,0.420047531 143.453511,-0.172915289 144.351953,-0.4484375 C144.579558,-0.520312859 144.810155,-0.55625 145.04375,-0.55625 C145.774483,-0.55625 146.322524,-0.280731922 146.687891,0.2703125 C147.01133,0.743491949 147.173047,1.21366954 147.173047,1.68085937 C147.173047,1.89648545 147.143099,2.1121083 147.083203,2.32773437 C146.939452,2.84284112 146.696877,3.24713395 146.355469,3.540625 C147.283859,3.3130197 147.975649,2.92669543 148.430859,2.38164062 C149.071748,1.62095974 149.392188,0.818363598 149.392188,-0.026171875 L151.431641,-0.026171875 C151.431641,1.35143918 150.748835,2.54335434 149.383203,3.54960937 C147.945696,4.63372938 146.118891,5.17578125 143.902734,5.17578125 L143.902734,4.23242188 C144.208205,4.23242188 144.537628,4.0976576 144.891016,3.828125 C145.148569,3.57057163 145.277344,3.31302212 145.277344,3.05546875 Z M144.891016,0.458984375 C144.327992,0.458984375 144.046484,0.7464815 144.046484,1.32148437 C144.124349,1.89049764 144.438799,2.175 144.989844,2.175 C145.51094,2.175 145.771484,1.87552383 145.771484,1.2765625 C145.771484,0.731507691 145.477998,0.458984375 144.891016,0.458984375 Z M160.451953,17.5292969 C160.451953,18.2540401 160.197398,18.8919243 159.688281,19.4429687 C159.227081,19.9401067 158.643102,20.1886719 157.936328,20.1886719 C157.792577,20.1886719 157.633855,20.1707033 157.460156,20.1347656 C156.873174,20.0808591 156.385028,19.8472677 155.995703,19.4339844 C155.606378,19.0207011 155.411719,18.5205759 155.411719,17.9335938 C155.411719,17.310674 155.631834,16.788088 156.07207,16.3658203 C156.512307,15.9435526 157.043877,15.7324219 157.666797,15.7324219 C157.912371,15.7324219 158.130989,15.75638 158.322656,15.8042969 L158.322656,11.5097656 C158.322656,10.5035106 158.184897,9.79375207 157.909375,9.38046875 C157.448175,8.68567361 156.642584,8.33828125 155.492578,8.33828125 C154.360541,8.33828125 153.459118,8.65572599 152.788281,9.290625 C152.357029,9.6979187 152.051563,10.1920544 151.871875,10.7730469 L150.694922,10.0183594 C150.994403,9.17981352 151.500517,8.4610707 152.213281,7.86210937 C152.961983,7.23319998 154.079029,6.91875 155.564453,6.91875 C157.055867,6.91875 158.253772,7.28111617 159.158203,8.00585938 C160.020707,8.70065452 160.451953,9.75181588 160.451953,11.159375 L160.451953,17.5292969 Z M157.666797,18.921875 C158.313675,18.921875 158.637109,18.5924512 158.637109,17.9335937 C158.637109,17.6580715 158.544272,17.4259775 158.358594,17.2373047 C158.172916,17.0486319 157.942319,16.9542969 157.666797,16.9542969 C157.397264,16.9542969 157.163673,17.0501292 156.966016,17.2417969 C156.768358,17.4334645 156.669531,17.6640612 156.669531,17.9335937 C156.669531,18.2031263 156.766861,18.4352204 156.961523,18.6298828 C157.156186,18.8245452 157.391275,18.921875 157.666797,18.921875 Z M171.457812,18.3738281 C171.751304,18.3738281 171.9819,18.2630219 172.149609,18.0414062 C172.29336,17.8557282 172.365234,17.6011735 172.365234,17.2777344 L172.365234,7.15234375 L174.521484,7.15234375 L174.521484,17.6101562 C174.521484,18.2570345 174.353778,18.8020811 174.018359,19.2453125 C173.635024,19.74844 172.973182,20 172.032812,20 L164.009766,20 L164.009766,18.3738281 L164.872266,18.3738281 L164.872266,16.1996094 C164.872266,15.3970012 165.042967,14.7591169 165.384375,14.2859375 C165.785679,13.7348931 166.279815,13.4114588 166.866797,13.315625 C165.986324,13.315625 165.272073,13.0535833 164.724023,12.5294922 C164.175974,12.005401 163.901953,11.3061242 163.901953,10.4316406 C163.901953,9.32955178 164.318225,8.45508136 165.150781,7.80820312 C165.905473,7.23320025 166.854812,6.94570312 167.998828,6.94570312 C168.759509,6.94570312 169.37643,7.13736787 169.849609,7.52070312 C170.352737,7.93997605 170.604297,8.52395459 170.604297,9.27265625 C170.604297,10.0932333 170.313805,10.6891909 169.732812,11.0605469 C169.349477,11.3001314 168.918232,11.4199219 168.439062,11.4199219 C167.384891,11.4199219 166.720053,11.0365924 166.444531,10.2699219 C166.348697,10.0183581 166.300781,9.76679813 166.300781,9.51523437 C166.300781,9.28163946 166.321745,9.1139328 166.363672,9.01210937 C166.172004,9.03606783 166.001303,9.1947902 165.851562,9.48828125 C165.725781,9.74583462 165.662891,9.9824208 165.662891,10.1980469 C165.662891,11.4618553 166.408586,12.1955719 167.9,12.3992187 C168.391148,12.4710941 168.8763,12.5070312 169.355469,12.5070312 L170.298828,12.5070312 L170.298828,13.9714844 L169.301562,13.9714844 C168.612757,13.9714844 168.091668,14.127212 167.738281,14.4386719 C167.29505,14.839976 167.073437,15.3999964 167.073437,16.11875 L167.073437,18.3738281 L171.457812,18.3738281 Z M167.414844,9.27265625 C167.414844,9.54218885 167.515168,9.7727855 167.71582,9.96445312 C167.916472,10.1561207 168.148566,10.2519531 168.412109,10.2519531 C168.675652,10.2519531 168.907746,10.1546234 169.108398,9.95996094 C169.30905,9.76529851 169.409375,9.53619923 169.409375,9.27265625 C169.409375,8.62577802 169.076956,8.30234375 168.412109,8.30234375 C168.142577,8.30234375 167.908985,8.39667874 167.711328,8.58535156 C167.513671,8.77402438 167.414844,9.00312365 167.414844,9.27265625 Z" id="สมัครรับข้อมูลด้วย" fill="#FFFFFF"></path>
        <g id="Group" transform="translate(183.000000, 2.000000)" fill="#FFFFFF" fill-rule="nonzero">
            <path d="M9.36714443,19 C4.27673649,19 0,14.7346939 0,9.5 C0,4.26530612 4.27673649,0 9.36714443,0 C12.185226,0 14.1896362,1.13265306 15.6979052,2.62244898 L13.92172,4.44897959 C12.8401323,3.40816327 11.3715546,2.59183673 9.36714443,2.59183673 C5.646086,2.59183673 2.73869901,5.67346939 2.73869901,9.5 C2.73869901,13.3265306 5.646086,16.4081633 9.36714443,16.4081633 C11.7783903,16.4081633 13.1477398,15.4081633 14.030871,14.5102041 C14.755237,13.7653061 15.2216097,12.7040816 15.4002205,11.244898 L9.36714443,11.244898 L9.36714443,8.64285714 L17.8610805,8.64285714 C17.9503859,9.10204082 18,9.66326531 18,10.2653061 C18,12.2142857 17.4840132,14.622449 15.8169791,16.3367347 C14.1896362,18.0714286 12.1256891,19 9.36714443,19 Z" id="Shape"></path>
            <path d="M32,13 C32,16.4557596 29.3096447,19 26,19 C22.6903553,19 20,16.4557596 20,13 C20,9.52420701 22.6903553,7 26,7 C29.3096447,7 32,9.52420701 32,13 Z M29.3705584,13 C29.3705584,10.836394 27.8071066,9.3639399 26,9.3639399 C24.1928934,9.3639399 22.6294416,10.8464107 22.6294416,13 C22.6294416,15.1335559 24.1928934,16.6360601 26,16.6360601 C27.8071066,16.6360601 29.3705584,15.1435726 29.3705584,13 Z" id="Shape"></path>
            <path d="M45,13 C45,16.4557596 42.3096447,19 39,19 C35.7005076,19 33,16.4557596 33,13 C33,9.52420701 35.6903553,7 39,7 C42.3096447,7 45,9.52420701 45,13 Z M42.3807107,13 C42.3807107,10.836394 40.8172589,9.3639399 39.0101523,9.3639399 C37.2030457,9.3639399 35.6395939,10.8464107 35.6395939,13 C35.6395939,15.1335559 37.2030457,16.6360601 39.0101523,16.6360601 C40.8172589,16.6460768 42.3807107,15.1435726 42.3807107,13 Z" id="Shape"></path>
            <path d="M57,7.3621186 L57,17.8929188 C57,22.228555 54.5013055,24 51.5430809,24 C48.7571802,24 47.0913838,22.0915371 46.45953,20.5354059 L48.6518712,19.6056419 C49.0443864,20.5647668 50.0017406,21.6902706 51.5430809,21.6902706 C53.4386423,21.6902706 54.6066144,20.4864709 54.6066144,18.2452504 L54.6066144,17.4035694 L54.5204526,17.4035694 C53.9556136,18.1180196 52.8642298,18.7345999 51.4952132,18.7345999 C48.6231506,18.7345999 46,16.1801957 46,12.8917674 C46,9.58376511 48.6327241,7 51.4952132,7 C52.8642298,7 53.9556136,7.6263673 54.5204526,8.31145653 L54.6066144,8.31145653 L54.6066144,7.3621186 L57,7.3621186 Z M54.7789382,12.9015544 C54.7789382,10.8364997 53.4290688,9.31951641 51.7154047,9.31951641 C49.97302,9.31951641 48.5178416,10.8267127 48.5178416,12.9015544 C48.5178416,14.9470351 49.97302,16.4346575 51.7154047,16.4346575 C53.4290688,16.4346575 54.7789382,14.9470351 54.7789382,12.9015544 Z" id="Shape"></path>
            <polygon id="Shape" points="63 1 63 19 60 19 60 1"></polygon>
            <path d="M72.8441203,14.9732888 L74.8896992,16.3355593 C74.2278943,17.3171953 72.633546,19 69.8760255,19 C66.4567001,19 64,16.3656093 64,13 C64,9.43405676 66.4867821,7 69.5852325,7 C72.7037375,7 74.2278943,9.47412354 74.7292616,10.8163606 L75,11.4974958 L66.9680948,14.8230384 C67.579763,16.0250417 68.5423883,16.6460768 69.8860529,16.6460768 C71.2297174,16.6460768 72.1622607,15.9749583 72.8441203,14.9732888 Z M66.5369189,12.8096828 L71.911577,10.5859766 C71.6107566,9.83472454 70.72835,9.31385643 69.6754786,9.31385643 C68.331814,9.31385643 66.4667274,10.4958264 66.5369189,12.8096828 Z" id="Shape"></path>
        </g>
    </g>
</svg>