<?xml version="1.0" encoding="UTF-8"?>
<svg width="175px" height="28px" viewBox="0 0 175 28" version="1.1" xmlns="http://www.w3.org/2000/svg" xmlns:xlink="http://www.w3.org/1999/xlink">
    <!-- Generator: Sketch 52.2 (67145) - http://www.bohemiancoding.com/sketch -->
    <title>SwG-TH-OW</title>
    <desc>Created with Sketch.</desc>
    <g id="SwG-TH-OW" stroke="none" stroke-width="1" fill="none" fill-rule="evenodd">
        <path d="M10.0597656,9.41015625 C10.3053398,9.67369923 10.5059888,10.0061178 10.6617188,10.4074219 C10.8893241,10.9764351 11.003125,11.5604137 11.003125,12.159375 L11.003125,21 L8.86484375,21 L8.86484375,19.8230469 C8.86484375,18.7089788 8.50547234,17.4212313 7.78671875,15.9597656 C6.87030792,14.1089751 5.87305227,13.1835938 4.79492188,13.1835938 C4.08814751,13.1835938 3.60599087,13.5759075 3.3484375,14.3605469 C3.23463485,14.7259133 3.17773438,15.1871066 3.17773438,15.7441406 C3.17773438,16.0675797 3.20169247,16.4209616 3.24960937,16.8042969 C3.5311212,16.7024734 3.80064975,16.6515625 4.05820313,16.6515625 C4.68711252,16.6515625 5.21718534,16.8686827 5.6484375,17.3029297 C6.07968966,17.7371767 6.2953125,18.2687469 6.2953125,18.8976563 C6.2953125,19.3768253 6.13659013,19.8350239 5.81914063,20.2722656 C5.48372228,20.7454451 5.08841373,21.0119789 4.63320313,21.071875 C4.27382633,21.1138023 4.02825587,21.1347656 3.89648438,21.1347656 C3.11783465,21.1347656 2.45299755,20.853258 1.90195313,20.2902344 C1.31497102,19.7032523 1.02148438,18.5682376 1.02148438,16.8851563 C1.02148438,15.0523346 1.31497102,13.7585975 1.90195313,13.0039062 C2.54284175,12.1593708 3.39035931,11.7371094 4.44453125,11.7371094 C5.04349258,11.7371094 5.6753873,11.8958317 6.34023437,12.2132813 C7.11289449,12.5786477 7.84361635,13.36627 8.53242188,14.5761719 C8.61028685,14.713933 8.72109303,14.9235663 8.86484375,15.2050781 L8.86484375,12.5097656 C8.86484375,11.575386 8.70312662,10.8716169 8.3796875,10.3984375 C7.88853921,9.69166313 6.95716832,9.33828125 5.58554688,9.33828125 C4.35168654,9.33828125 3.3843785,9.55540147 2.68359375,9.98964844 C1.982809,10.4238954 1.53359474,10.9135389 1.3359375,11.4585937 L0.158984375,10.5421875 L0.931640625,9.58085937 C1.35091355,9.17955529 1.7701802,8.87109483 2.18945313,8.65546875 C2.60872605,8.43984267 3.13580412,8.25716221 3.77070313,8.10742188 C4.32773716,7.98164 4.9506476,7.91875 5.63945313,7.91875 C6.86732385,7.91875 7.8645795,8.08346189 8.63125,8.41289062 C8.9007826,8.22721261 9.10742116,8.02656358 9.25117188,7.8109375 C9.46080834,7.5414049 9.565625,7.1820335 9.565625,6.7328125 L11.8476562,7.31679687 C11.8476562,8.0056024 11.461332,8.59557046 10.6886719,9.08671875 C10.4730458,9.22447986 10.2634125,9.33229128 10.0597656,9.41015625 Z M5.02851563,18.8976563 C5.02851563,18.6281237 4.93567801,18.3960296 4.75,18.2013672 C4.56432199,18.0067048 4.33372534,17.909375 4.05820313,17.909375 C3.80064975,17.909375 3.57903739,18.0096995 3.39335938,18.2103516 C3.20768136,18.4110036 3.11484375,18.6401029 3.11484375,18.8976563 C3.11484375,19.1611992 3.20768136,19.3902985 3.39335938,19.5849609 C3.57903739,19.7796234 3.80064975,19.8769531 4.05820313,19.8769531 C4.32773572,19.8769531 4.55683499,19.7811207 4.74550781,19.5894531 C4.93418063,19.3977855 5.02851563,19.1671888 5.02851563,18.8976563 Z M23.3746094,8.15234375 L25.4949219,8.15234375 L25.4949219,18.5652344 C25.4949219,19.5235725 25.3361995,20.1494777 25.01875,20.4429687 C24.677342,20.8802105 24.1981802,21.0988281 23.58125,21.0988281 C23.3356759,21.0988281 23.0931002,20.9341162 22.8535156,20.6046875 C22.5660142,20.1674457 22.2755223,19.7302105 21.9820312,19.2929688 C21.6406233,18.777862 21.3082047,18.3765639 20.9847656,18.0890625 C20.2480432,17.430205 19.5053423,17.0558598 18.7566406,16.9660156 L18.7566406,19.2660156 C18.7566406,20.0686238 18.475133,20.6136704 17.9121094,20.9011719 C17.5227845,21.0988291 17.0376331,21.1976563 16.4566406,21.1976563 C16.1152327,21.1976563 15.8397146,21.1647139 15.6300781,21.0988281 C14.8933557,20.8891917 14.3572933,20.4100298 14.021875,19.6613281 C13.8481762,19.2839825 13.7613281,18.8527368 13.7613281,18.3675781 C13.7613281,17.0798113 14.2135371,16.1933618 15.1179687,15.7082031 C15.6750028,15.4027328 16.1691385,15.25 16.6003906,15.25 L16.6003906,12.375 L16.2679688,12.4109375 C16.1661453,12.4229167 16.0583339,12.4289063 15.9445313,12.4289062 C15.3335907,12.4289063 14.8139995,12.2192729 14.3857422,11.8 C13.9574848,11.3807271 13.7433594,10.8626333 13.7433594,10.2457031 C13.7433594,9.76054445 13.9020817,9.29635638 14.2195312,8.853125 C14.5609392,8.37994555 14.9622373,8.11341176 15.4234375,8.05351562 C15.7888039,8.01158833 16.0403639,7.990625 16.178125,7.990625 C16.9867228,7.990625 17.6276018,8.25116927 18.1007813,8.77226562 C18.538023,9.26341391 18.7566406,9.88632435 18.7566406,10.6410156 L18.7566406,15.4386719 C19.4933631,15.4746096 20.2899697,15.78307 21.1464844,16.3640625 C21.2123701,16.4119794 21.565752,16.7294241 22.2066406,17.3164062 C22.8115916,17.8734403 23.1230468,18.1489584 23.1410156,18.1429688 C23.2967456,18.0950518 23.3746094,17.891408 23.3746094,17.5320312 L23.3746094,8.15234375 Z M14.9742187,10.2457031 C14.9742188,10.4972669 15.0730459,10.721874 15.2707031,10.9195312 C15.4683604,11.1171885 15.6929675,11.2160156 15.9445313,11.2160156 C16.2140638,11.2160156 16.4521474,11.1201832 16.6587891,10.9285156 C16.8654307,10.736848 16.96875,10.5092461 16.96875,10.2457031 C16.96875,9.9641913 16.8684255,9.72760512 16.6677734,9.5359375 C16.4671214,9.34426987 16.2260431,9.2484375 15.9445313,9.2484375 C15.6809883,9.2484375 15.4533864,9.34876202 15.2617188,9.54941406 C15.0700511,9.75006611 14.9742188,9.98216014 14.9742187,10.2457031 Z M15.3246094,18.0621094 C15.3186198,18.1100263 15.315625,18.1609372 15.315625,18.2148438 L15.315625,18.3585938 C15.315625,18.7658875 15.3665359,19.0653636 15.4683594,19.2570313 C15.6180997,19.5684911 15.8127592,19.7242187 16.0523437,19.7242187 C16.4177102,19.7242187 16.6003906,19.5295592 16.6003906,19.1402344 L16.6003906,16.8582031 C16.5464841,16.8342447 16.4746098,16.8222656 16.3847656,16.8222656 C16.1811188,16.8222656 15.9834645,16.8941399 15.7917969,17.0378906 C15.480337,17.3972674 15.3246094,17.7386703 15.3246094,18.0621094 Z M27.4535156,3.6421875 C28.2860719,3.01327811 28.7023438,2.16576054 28.7023438,1.09960937 L30.840625,1.09960937 C30.840625,2.26159435 30.2686255,3.31275571 29.1246094,4.253125 C27.8967387,5.27135926 26.573054,5.78046875 25.1535156,5.78046875 C23.8238215,5.78046875 22.8175815,5.61276209 22.1347656,5.27734375 C21.2183548,4.86406043 20.7601563,4.17826 20.7601563,3.21992187 C20.7601563,2.61497093 20.9667948,2.09687716 21.3800781,1.665625 C21.847268,1.25234168 22.3893198,1.04570312 23.00625,1.04570312 C23.6531282,1.04570312 24.1802063,1.2193993 24.5875,1.56679687 C25.0606794,1.97409058 25.2972656,2.49218436 25.2972656,3.12109375 C25.2972656,3.72005508 25.1235694,4.18424314 24.7761719,4.51367187 C24.836068,4.51966149 24.886979,4.52265625 24.9289063,4.52265625 C25.893234,4.52265625 26.734762,4.2291696 27.4535156,3.6421875 Z M22.0269531,3.20195312 C22.0269531,3.47148572 22.1227855,3.71256404 22.3144531,3.92519531 C22.5061208,4.13782658 22.7367174,4.24414062 23.00625,4.24414062 C23.2877618,4.24414062 23.5318349,4.14231873 23.7384766,3.93867187 C23.9451182,3.73502502 24.0484375,3.48945456 24.0484375,3.20195312 C24.0484375,2.93242053 23.9406261,2.69433697 23.725,2.48769531 C23.5093739,2.28105365 23.269793,2.17773437 23.00625,2.17773437 C22.742707,2.17773437 22.5136077,2.28255104 22.3189453,2.4921875 C22.1242829,2.70182396 22.0269531,2.93841014 22.0269531,3.20195312 Z M32.6464844,21 L30.0949219,21 C30.0949219,20.9460935 30.099414,20.8607428 30.1083984,20.7439453 C30.1173829,20.6271479 30.121875,20.5388024 30.121875,20.4789063 C30.121875,19.7421838 30.0350269,18.8587291 29.8613281,17.8285156 C29.6636709,17.0438763 29.385158,15.8579506 29.0257812,14.2707031 C28.9419267,13.869399 28.9,13.4022162 28.9,12.8691406 C28.9,11.3178308 29.4600204,10.0809942 30.5800781,9.15859375 C31.5863332,8.33202712 32.9669183,7.91875 34.721875,7.91875 C36.6026136,7.91875 38.0191359,8.31106379 38.9714844,9.09570312 C39.8938848,9.86237362 40.3550781,10.9614512 40.3550781,12.3929688 L40.3550781,21 L38.1988281,21 L38.1988281,12.2761719 C38.1988281,11.3956987 37.9292996,10.6949245 37.3902344,10.1738281 C36.8092419,9.61679409 35.9078186,9.33828125 34.6859375,9.33828125 C33.6736929,9.33828125 32.8321648,9.63326528 32.1613281,10.2232422 C31.4904914,10.8132191 31.1550781,11.6891869 31.1550781,12.8511719 C31.1550781,13.4022163 31.1910153,13.845441 31.2628906,14.1808594 C31.3167971,14.4144543 31.3916662,14.7708309 31.4875,15.25 C31.5294273,15.513543 31.571354,15.8519511 31.6132812,16.2652344 C31.6252605,16.4748708 31.6372395,16.636588 31.6492187,16.7503906 C31.6492187,16.3790346 31.7240878,15.8669303 31.8738281,15.2140625 C31.9576827,14.818748 32.1014313,14.3006542 32.3050781,13.6597656 C32.4847665,12.9829393 32.7183579,12.4438822 33.0058594,12.0425781 C33.3412777,11.5634091 33.8593715,11.3238281 34.5601562,11.3238281 C35.7460997,11.3238281 36.5247377,11.7401 36.8960937,12.5726563 C37.0398445,12.9080746 37.1117187,13.2255193 37.1117187,13.525 C37.1117187,14.1718782 36.9350278,14.6869772 36.5816406,15.0703125 C36.1024716,15.5794296 35.4975297,15.8339844 34.7667969,15.8339844 C34.3595032,15.8339844 33.9731789,15.7111991 33.6078125,15.465625 C33.1585915,16.5617242 32.8740891,17.9572832 32.7542969,19.6523438 L32.6464844,21 Z M34.8027344,12.6085937 C34.1498665,12.6085937 33.8234375,12.9350228 33.8234375,13.5878906 C33.8234375,13.8514336 33.9192699,14.0775381 34.1109375,14.2662109 C34.3026051,14.4548838 34.5332018,14.5492188 34.8027344,14.5492188 C35.0542981,14.5492188 35.2774079,14.451889 35.4720703,14.2572266 C35.6667327,14.0625641 35.7640625,13.8394544 35.7640625,13.5878906 C35.7640625,13.3123684 35.6712249,13.0802744 35.4855469,12.8916016 C35.2998689,12.7029287 35.072267,12.6085937 34.8027344,12.6085937 Z M47.0125,12.4828125 C46.269788,12.3450514 45.5330766,12.2611981 44.8023437,12.23125 C44.472915,12.2192708 44.1854179,12.2132812 43.9398437,12.2132813 C43.2270798,12.2132812 42.8407555,12.2342446 42.7808594,12.2761719 C42.7628905,12.1923173 42.7539062,12.1054692 42.7539062,12.015625 C42.7539062,11.2190064 43.0144505,10.4134155 43.5355469,9.59882812 C44.2003939,8.56262503 45.2874925,8.04453125 46.796875,8.04453125 C47.2161479,8.04453125 47.8031212,8.15384005 48.5578125,8.37246094 C49.3125038,8.59108182 49.8695295,8.70039062 50.2289062,8.70039062 C50.929691,8.70039062 51.4088529,8.48177302 51.6664062,8.04453125 L53.2386719,8.86210937 C53.1548173,9.08971468 52.9811211,9.32630086 52.7175781,9.571875 C52.3402325,9.92526218 51.9179711,10.1259112 51.4507812,10.1738281 C51.1812487,10.2037762 50.9985682,10.21875 50.9027344,10.21875 C50.4295549,10.21875 49.7707073,10.0839857 48.9261719,9.81445312 C48.165491,9.58085821 47.5845072,9.4640625 47.1832031,9.4640625 C46.4584599,9.4640625 45.89245,9.64674296 45.4851562,10.0121094 C45.2216133,10.2337251 45.0089852,10.5571593 44.8472656,10.9824219 C45.5480504,10.9824219 46.3716099,11.0542962 47.3179687,11.1980469 C48.4200576,11.3717457 49.3124966,11.6143214 49.9953125,11.9257812 C50.6781284,12.2372411 51.1423165,12.6175759 51.3878906,13.0667969 C51.5915375,13.4261737 51.6933594,13.7975241 51.6933594,14.1808594 L51.6933594,18.5292969 C51.6933594,19.2779985 51.4507837,19.9158828 50.965625,20.4429687 C50.5104144,20.9401067 49.9174516,21.1886719 49.1867187,21.1886719 C48.3721313,21.1886719 47.7342471,20.9341171 47.2730469,20.425 C46.8957012,20.0177063 46.7070312,19.5205759 46.7070312,18.9335938 C46.7070312,18.2986947 46.9166646,17.7731141 47.3359375,17.3568359 C47.7552104,16.9405578 48.2822885,16.7324219 48.9171875,16.7324219 C49.1927097,16.7324219 49.3993483,16.75638 49.5371094,16.8042969 L49.5371094,14.3605469 C49.5371094,13.971222 49.441277,13.6507825 49.2496094,13.3992187 C48.9501287,13.0039043 48.204433,12.6984386 47.0125,12.4828125 Z M48.9171875,19.921875 C49.1867201,19.921875 49.4158194,19.8245452 49.6044922,19.6298828 C49.793165,19.4352204 49.8875,19.2031263 49.8875,18.9335938 C49.8875,18.6640612 49.7916676,18.4334645 49.6,18.2417969 C49.4083324,18.0501292 49.1807305,17.9542969 48.9171875,17.9542969 C48.6416653,17.9542969 48.4065765,18.0486319 48.2119141,18.2373047 C48.0172516,18.4259775 47.9199219,18.6580715 47.9199219,18.9335938 C47.9199219,19.209116 48.0157543,19.4427074 48.2074219,19.634375 C48.3990895,19.8260426 48.6356757,19.921875 48.9171875,19.921875 Z M63.4089844,8.15234375 L65.55625,8.15234375 L65.55625,21 L63.1933594,21 L60.3632812,16.5167969 L57.50625,21 L55.1703125,21 L55.1703125,10.6410156 C55.1703125,9.89830358 55.3949196,9.2783879 55.8441406,8.78125 C56.3173201,8.25416403 56.9552043,7.990625 57.7578125,7.990625 C58.5424518,7.990625 59.168357,8.23919022 59.6355469,8.73632812 C60.0128925,9.15560105 60.2015625,9.65872102 60.2015625,10.2457031 C60.2015625,10.8506541 59.9844423,11.3657531 59.5501953,11.7910156 C59.1159483,12.2162782 58.5903677,12.4289063 57.9734375,12.4289062 C57.8177076,12.4289063 57.6080742,12.4109377 57.3445312,12.375 L57.3445312,18.3765625 L59.7253906,14.7648437 L60.9832031,14.7648437 L63.4089844,18.3765625 L63.4089844,8.15234375 Z M57.9734375,9.2484375 C57.7039049,9.2484375 57.4748056,9.34576726 57.2861328,9.54042969 C57.09746,9.73509212 57.003125,9.97018091 57.003125,10.2457031 C57.003125,10.5032565 57.1004548,10.729361 57.2951172,10.9240234 C57.4897796,11.1186859 57.7158841,11.2160156 57.9734375,11.2160156 C58.2429701,11.2160156 58.470572,11.1201832 58.65625,10.9285156 C58.841928,10.736848 58.9347656,10.5092461 58.9347656,10.2457031 C58.9347656,9.58085605 58.6143261,9.2484375 57.9734375,9.2484375 Z M63.471875,2.43828125 L65.4125,2.43828125 L65.4125,6.18476562 L63.471875,6.18476562 L63.471875,2.43828125 Z M77.34375,21 L75.1964844,21 L75.1964844,12.5097656 C75.1964844,11.497521 75.0587253,10.7877625 74.7832031,10.3804687 C74.3100237,9.68567361 73.5044328,9.33828125 72.3664062,9.33828125 C71.2164005,9.33828125 70.3089877,9.65872075 69.6441406,10.2996094 C69.2068989,10.7128927 68.916407,11.2040336 68.7726562,11.7730469 L67.5328125,11.0183594 C67.8143243,10.2097616 68.3054652,9.51497686 69.00625,8.93398437 C69.8208374,8.25715807 70.9738207,7.91875 72.4652344,7.91875 C73.9326896,7.91875 75.1186153,8.28111617 76.0230469,9.00585938 C76.90352,9.71862336 77.34375,10.7697847 77.34375,12.159375 L77.34375,21 Z M82.4917969,12.375 C82.2402331,12.4109377 82.0216155,12.4289063 81.8359375,12.4289062 C81.2249969,12.4289063 80.702411,12.2162782 80.2681641,11.7910156 C79.8339171,11.3657531 79.6167969,10.8506541 79.6167969,10.2457031 C79.6167969,9.76054445 79.7755192,9.29635638 80.0929687,8.853125 C80.4283871,8.37994555 80.8326799,8.11341176 81.3058594,8.05351562 C81.6772154,8.01158833 81.9317701,7.990625 82.0695312,7.990625 C82.8841187,7.990625 83.5249977,8.25116927 83.9921875,8.77226562 C84.4294293,9.26940353 84.6480469,9.89231396 84.6480469,10.6410156 L84.6480469,18.3765625 C84.9535172,17.8315077 85.3937471,17.3942725 85.96875,17.0648438 C86.4718775,16.7893215 86.9001284,16.5976568 87.2535156,16.4898437 C87.5230482,16.423958 87.9003882,16.3281256 88.3855469,16.2023438 C88.9845082,16.0466138 89.2839844,15.8010433 89.2839844,15.465625 L89.2839844,8.15234375 L91.4671875,8.15234375 L91.4671875,15.7082031 C91.4671875,16.0675799 91.3174494,16.3281242 91.0179687,16.4898437 C90.8502596,16.5796879 90.6136734,16.6755203 90.3082031,16.7773438 C90.7154968,16.8911464 91.0598944,17.097785 91.3414062,17.3972656 C91.7546896,17.8464866 91.9613281,18.3136694 91.9613281,18.7988281 C91.9613281,19.4576856 91.7756529,19.9997375 91.4042969,20.425 C91.014972,20.8682314 90.4938835,21.1227861 89.8410156,21.1886719 C89.014449,21.1886719 88.385549,20.9341171 87.9542969,20.425 C87.6488266,20.0656232 87.4631514,19.628388 87.3972656,19.1132812 C87.3972656,18.3406211 87.505077,17.9033859 87.7207031,17.8015625 C87.1157522,17.8015625 86.4658889,18.1908815 85.7710937,18.9695312 C85.3039039,19.4906276 84.9295587,20.1674438 84.6480469,21 L82.4917969,21 L82.4917969,12.375 Z M80.8746094,10.2457031 C80.8746094,10.4972669 80.9719391,10.721874 81.1666016,10.9195312 C81.361264,11.1171885 81.5843737,11.2160156 81.8359375,11.2160156 C82.1054701,11.2160156 82.3405589,11.1201832 82.5412109,10.9285156 C82.741863,10.736848 82.8421875,10.5092461 82.8421875,10.2457031 C82.8421875,9.9641913 82.7448577,9.72760512 82.5501953,9.5359375 C82.3555329,9.34426987 82.1174493,9.2484375 81.8359375,9.2484375 C81.5723945,9.2484375 81.34629,9.34876202 81.1576172,9.54941406 C80.9689444,9.75006611 80.8746094,9.98216014 80.8746094,10.2457031 Z M89.70625,17.9542969 C89.0234341,17.9542969 88.6820312,18.304684 88.6820312,19.0054687 C88.6820312,19.6403678 89.0144498,19.9578125 89.6792969,19.9578125 C89.9548191,19.9578125 90.1899079,19.8664723 90.3845703,19.6837891 C90.5792327,19.5011059 90.6765625,19.2750013 90.6765625,19.0054687 C90.6765625,18.304684 90.3531282,17.9542969 89.70625,17.9542969 Z" id="สมัครผ่าน" fill="#5F6368"></path>
        <g id="Group" transform="translate(100.000000, 2.000000)" fill-rule="nonzero">
            <path d="M9.36714443,19 C4.27673649,19 0,14.7346939 0,9.5 C0,4.26530612 4.27673649,0 9.36714443,0 C12.185226,0 14.1896362,1.13265306 15.6979052,2.62244898 L13.92172,4.44897959 C12.8401323,3.40816327 11.3715546,2.59183673 9.36714443,2.59183673 C5.646086,2.59183673 2.73869901,5.67346939 2.73869901,9.5 C2.73869901,13.3265306 5.646086,16.4081633 9.36714443,16.4081633 C11.7783903,16.4081633 13.1477398,15.4081633 14.030871,14.5102041 C14.755237,13.7653061 15.2216097,12.7040816 15.4002205,11.244898 L9.36714443,11.244898 L9.36714443,8.64285714 L17.8610805,8.64285714 C17.9503859,9.10204082 18,9.66326531 18,10.2653061 C18,12.2142857 17.4840132,14.622449 15.8169791,16.3367347 C14.1896362,18.0714286 12.1256891,19 9.36714443,19 Z" id="Shape" fill="#4285F4"></path>
            <path d="M32,13 C32,16.4557596 29.3096447,19 26,19 C22.6903553,19 20,16.4557596 20,13 C20,9.52420701 22.6903553,7 26,7 C29.3096447,7 32,9.52420701 32,13 Z M29.3705584,13 C29.3705584,10.836394 27.8071066,9.3639399 26,9.3639399 C24.1928934,9.3639399 22.6294416,10.8464107 22.6294416,13 C22.6294416,15.1335559 24.1928934,16.6360601 26,16.6360601 C27.8071066,16.6360601 29.3705584,15.1435726 29.3705584,13 Z" id="Shape" fill="#E94235"></path>
            <path d="M45,13 C45,16.4557596 42.3096447,19 39,19 C35.7005076,19 33,16.4557596 33,13 C33,9.52420701 35.6903553,7 39,7 C42.3096447,7 45,9.52420701 45,13 Z M42.3807107,13 C42.3807107,10.836394 40.8172589,9.3639399 39.0101523,9.3639399 C37.2030457,9.3639399 35.6395939,10.8464107 35.6395939,13 C35.6395939,15.1335559 37.2030457,16.6360601 39.0101523,16.6360601 C40.8172589,16.6460768 42.3807107,15.1435726 42.3807107,13 Z" id="Shape" fill="#FABB05"></path>
            <path d="M57,7.3621186 L57,17.8929188 C57,22.228555 54.5013055,24 51.5430809,24 C48.7571802,24 47.0913838,22.0915371 46.45953,20.5354059 L48.6518712,19.6056419 C49.0443864,20.5647668 50.0017406,21.6902706 51.5430809,21.6902706 C53.4386423,21.6902706 54.6066144,20.4864709 54.6066144,18.2452504 L54.6066144,17.4035694 L54.5204526,17.4035694 C53.9556136,18.1180196 52.8642298,18.7345999 51.4952132,18.7345999 C48.6231506,18.7345999 46,16.1801957 46,12.8917674 C46,9.58376511 48.6327241,7 51.4952132,7 C52.8642298,7 53.9556136,7.6263673 54.5204526,8.31145653 L54.6066144,8.31145653 L54.6066144,7.3621186 L57,7.3621186 Z M54.7789382,12.9015544 C54.7789382,10.8364997 53.4290688,9.31951641 51.7154047,9.31951641 C49.97302,9.31951641 48.5178416,10.8267127 48.5178416,12.9015544 C48.5178416,14.9470351 49.97302,16.4346575 51.7154047,16.4346575 C53.4290688,16.4346575 54.7789382,14.9470351 54.7789382,12.9015544 Z" id="Shape" fill="#4285F4"></path>
            <polygon id="Shape" fill="#34A853" points="63 1 63 19 60 19 60 1"></polygon>
            <path d="M72.8441203,14.9732888 L74.8896992,16.3355593 C74.2278943,17.3171953 72.633546,19 69.8760255,19 C66.4567001,19 64,16.3656093 64,13 C64,9.43405676 66.4867821,7 69.5852325,7 C72.7037375,7 74.2278943,9.47412354 74.7292616,10.8163606 L75,11.4974958 L66.9680948,14.8230384 C67.579763,16.0250417 68.5423883,16.6460768 69.8860529,16.6460768 C71.2297174,16.6460768 72.1622607,15.9749583 72.8441203,14.9732888 Z M66.5369189,12.8096828 L71.911577,10.5859766 C71.6107566,9.83472454 70.72835,9.31385643 69.6754786,9.31385643 C68.331814,9.31385643 66.4667274,10.4958264 66.5369189,12.8096828 Z" id="Shape" fill="#E94235"></path>
        </g>
    </g>
</svg>
