<?xml version="1.0" encoding="UTF-8"?>
<svg width="227px" height="26px" viewBox="0 0 227 26" version="1.1" xmlns="http://www.w3.org/2000/svg" xmlns:xlink="http://www.w3.org/1999/xlink">
    <!-- Generator: Sketch 51.3 (57544) - http://www.bohemiancoding.com/sketch -->
    <title>SwG-TR-WOB</title>
    <desc>Created with Sketch.</desc>
    <defs></defs>
    <g id="SwG-TR-WOB" stroke="none" stroke-width="1" fill="none" fill-rule="evenodd">
        <path d="M2.7197265,20 L0.617382747,20 L7.75996087,2.5703125 L10.0509765,2.5703125 L16.6455077,20 L14.1927734,20 L12.386914,15.2023437 L4.696289,15.2023437 L2.7197265,20 Z M5.3791015,13.459375 L11.7130859,13.459375 L8.65839837,5.36445312 L5.3791015,13.459375 Z M20.7064453,20 L18.6130859,20 C18.6490236,19.5867167 18.6804686,19.0850941 18.7074218,18.4951172 C18.7343751,17.9051403 18.7553384,17.4229836 18.7703124,17.0486328 C18.7852865,16.674282 18.7927734,16.4212246 18.7927734,16.2894531 L18.7927734,1.86953125 L20.8861328,1.86953125 L20.8861328,9.63203125 C21.3413434,8.91926727 21.7695943,8.40267087 22.1708984,8.08222656 C22.5722025,7.76178225 23.0094377,7.51920655 23.4826171,7.35449219 C23.9557966,7.18977782 24.4559218,7.10742188 24.9830078,7.10742188 C25.9353563,7.10742188 26.8083293,7.36796614 27.6019531,7.8890625 C28.3955768,8.41015886 29.0124977,9.18729952 29.4527343,10.2205078 C29.8929709,11.2537161 30.1130859,12.4141863 30.1130859,13.7019531 C30.1130859,15.6066501 29.65339,17.1908791 28.7339843,18.4546875 C27.8145787,19.7184959 26.5313233,20.3503906 24.8841796,20.3503906 C24.3451144,20.3503906 23.8389997,20.2725268 23.3658203,20.1167969 C22.8926408,19.9610669 22.4703794,19.7319677 22.0990234,19.4294922 C21.7276674,19.1270167 21.3233745,18.5864622 20.8861328,17.8078125 L20.8142578,18.7152344 C20.7843097,19.2183619 20.7483726,19.6466128 20.7064453,20 Z M20.8861328,13.7289063 C20.8861328,15.1544342 21.1930958,16.3238887 21.8070312,17.2373047 C22.4209666,18.1507207 23.2819606,18.6074219 24.390039,18.6074219 C25.4082733,18.6074219 26.2542935,18.203129 26.9281249,17.3945313 C27.6019564,16.5859335 27.9388671,15.3760497 27.9388671,13.7648437 C27.9388671,11.8841052 27.5944695,10.5798865 26.905664,9.85214844 C26.2168585,9.12441042 25.3962938,8.76054687 24.4439453,8.76054687 C23.7790982,8.76054687 23.1591825,8.95969853 22.5841796,9.35800781 C22.0091768,9.7563171 21.5824232,10.3507773 21.3039062,11.1414063 C21.0253892,11.9320352 20.8861328,12.7945266 20.8861328,13.7289063 Z M38.2708984,20.3503906 C36.635734,20.3503906 35.2386776,19.7933649 34.0796875,18.6792969 C32.9206973,17.5652288 32.3412109,15.9121203 32.3412109,13.7199219 C32.3412109,11.533713 32.9206973,9.8850967 34.0796875,8.77402344 C35.2386776,7.66295017 36.635734,7.10742188 38.2708984,7.10742188 C39.9060628,7.10742188 41.3016218,7.66295017 42.4576171,8.77402344 C43.6136125,9.8850967 44.1916015,11.533713 44.1916015,13.7199219 C44.1916015,15.9121203 43.6136125,17.5652288 42.4576171,18.6792969 C41.3016218,19.7933649 39.9060628,20.3503906 38.2708984,20.3503906 Z M38.2708984,18.6074219 C39.3969457,18.6074219 40.3028611,18.159705 40.9886718,17.2642578 C41.6744826,16.3688106 42.0173828,15.1873771 42.0173828,13.7199219 C42.0173828,12.2584562 41.6744826,11.0815149 40.9886718,10.1890625 C40.3028611,9.29661012 39.3969457,8.85039062 38.2708984,8.85039062 C37.1448511,8.85039062 36.2389357,9.29661012 35.553125,10.1890625 C34.8673142,11.0815149 34.524414,12.2584562 34.524414,13.7199219 C34.524414,15.1873771 34.8673142,16.3688106 35.553125,17.2642578 C36.2389357,18.159705 37.1448511,18.6074219 38.2708984,18.6074219 Z M49.115039,20 L47.030664,20 L47.030664,7.4578125 L49.115039,7.4578125 L49.115039,9.62304687 C49.5582704,8.94023096 49.9880187,8.43411623 50.4042968,8.1046875 C50.820575,7.77525877 51.2548154,7.52669355 51.7070312,7.35898437 C52.159247,7.1912752 52.6638644,7.10742188 53.2208984,7.10742188 C54.0055377,7.10742188 54.7108041,7.26764163 55.3367187,7.58808594 C55.9626333,7.90853025 56.4477847,8.3817026 56.7921875,9.00761719 C57.1365902,9.63353178 57.308789,10.6352796 57.308789,12.0128906 L57.308789,20 L55.2154297,20 L55.2154297,12.9113281 C55.2154297,11.7912704 55.1405606,10.9961612 54.9908203,10.5259766 C54.84108,10.0557919 54.5490907,9.68893361 54.1148437,9.42539062 C53.6805968,9.16184764 53.2089218,9.03007812 52.6998047,9.03007812 C52.0888641,9.03007812 51.5063829,9.20976383 50.9523437,9.56914062 C50.3983045,9.92851742 49.9535824,10.43014 49.618164,11.0740234 C49.2827457,11.7179069 49.115039,12.6387961 49.115039,13.8367187 L49.115039,20 Z M62.6814453,20 L60.5970703,20 L60.5970703,7.4578125 L62.6814453,7.4578125 L62.6814453,9.62304687 C63.1246767,8.94023096 63.554425,8.43411623 63.9707031,8.1046875 C64.3869812,7.77525877 64.8212217,7.52669355 65.2734375,7.35898437 C65.7256533,7.1912752 66.2302706,7.10742188 66.7873047,7.10742188 C67.571944,7.10742188 68.2772104,7.26764163 68.903125,7.58808594 C69.5290396,7.90853025 70.014191,8.3817026 70.3585937,9.00761719 C70.7029965,9.63353178 70.8751953,10.6352796 70.8751953,12.0128906 L70.8751953,20 L68.7818359,20 L68.7818359,12.9113281 C68.7818359,11.7912704 68.7069669,10.9961612 68.5572265,10.5259766 C68.4074862,10.0557919 68.1154969,9.68893361 67.68125,9.42539062 C67.247003,9.16184764 66.775328,9.03007812 66.2662109,9.03007812 C65.6552704,9.03007812 65.0727892,9.20976383 64.51875,9.56914062 C63.9647108,9.92851742 63.5199886,10.43014 63.1845703,11.0740234 C62.849152,11.7179069 62.6814453,12.6387961 62.6814453,13.8367187 L62.6814453,20 Z M82.5279297,16.765625 L84.6212891,16.765625 L84.6212891,16.8914062 C84.6212891,17.4484403 84.3996767,18.0159476 83.9564453,18.5939453 C83.5132139,19.171943 82.9292354,19.6076808 82.2044922,19.9011719 C81.479749,20.1946629 80.6442105,20.3414062 79.6978516,20.3414062 C77.7811753,20.3414062 76.3062552,19.7244853 75.2730469,18.490625 C74.2398386,17.2567647 73.7232422,15.6964938 73.7232422,13.8097656 C73.7232422,11.8811101 74.2697862,10.2819074 75.3628906,9.01210937 C76.455995,7.74231136 77.87102,7.10742187 79.6080078,7.10742187 C80.5543667,7.10742187 81.4138633,7.31256305 82.1865234,7.72285156 C82.9591835,8.13314007 83.5701149,8.77401908 84.0193359,9.64550781 C84.4685569,10.5169965 84.6931641,11.7373619 84.6931641,13.3066406 L84.6931641,13.9894531 L75.7986328,13.9894531 C75.7986328,15.3371161 76.1595016,16.4436806 76.88125,17.3091797 C77.6029984,18.1746788 78.6017514,18.6074219 79.8775391,18.6074219 C80.8059291,18.6074219 81.4797505,18.4307309 81.8990234,18.0773438 C82.3182964,17.7239566 82.5279297,17.328648 82.5279297,16.8914062 L82.5279297,16.765625 Z M75.9244141,12.4171875 L82.6896484,12.4171875 L82.6896484,12.165625 C82.6896484,11.5846325 82.5518894,11.0186225 82.2763672,10.4675781 C82.000845,9.9165337 81.6130233,9.50774873 81.1128906,9.24121094 C80.6127579,8.97467315 80.039261,8.84140625 79.3923828,8.84140625 C78.6077435,8.84140625 77.8875033,9.15435885 77.2316406,9.78027344 C76.575778,10.406188 76.1400401,11.2851506 75.9244141,12.4171875 Z M77.1283203,5.53515625 L80.4525391,1.87851562 L82.8873047,1.87851562 L79.0419922,5.53515625 L77.1283203,5.53515625 Z M103.057227,20 C102.841601,19.3231737 102.733789,18.7421899 102.733789,18.2570313 C101.817378,19.1614629 101.035745,19.7364571 100.388867,19.9820312 C99.741989,20.2276054 99.1220733,20.3503906 98.5291016,20.3503906 C97.5348258,20.3503906 96.6798213,20.0449249 95.9640625,19.4339844 C95.2483037,18.8230438 94.8904297,17.9815158 94.8904297,16.909375 C94.8904297,15.6994731 95.3950471,14.7651075 96.4042969,14.10625 C97.4135467,13.4473925 99.1490111,12.8783878 101.610742,12.3992187 L102.733789,12.1835938 L102.733789,10.7640625 C102.733789,9.997392 102.474742,9.45833489 101.956641,9.146875 C101.438539,8.83541511 100.817126,8.6796875 100.092383,8.6796875 C99.2238889,8.6796875 98.5470728,8.86985487 98.0619141,9.25019531 C97.5767554,9.63053576 97.3341797,10.0752579 97.3341797,10.584375 L97.3341797,10.7640625 L95.0611328,10.7640625 L95.0611328,10.6023437 C95.0611328,10.0453097 95.2947242,9.47181285 95.7619141,8.88183594 C96.2291039,8.29185903 96.850517,7.84713691 97.6261719,7.54765625 C98.4018268,7.24817559 99.2508418,7.0984375 100.173242,7.0984375 C101.083663,7.0984375 101.913212,7.24068868 102.661914,7.52519531 C103.410616,7.80970194 103.95716,8.19303144 104.301563,8.67519531 C104.645965,9.15735918 104.818164,10.0632746 104.818164,11.3929688 L104.818164,16.2714844 C104.818164,16.80456 104.831641,17.3645804 104.858594,17.9515625 C104.885547,18.5385446 105.018814,19.2213503 105.258398,20 L103.057227,20 Z M102.733789,13.6660156 L102.104883,13.81875 C99.9845597,14.3398464 98.6294301,14.8324847 98.0394531,15.2966797 C97.4494762,15.7608747 97.1544922,16.3134083 97.1544922,16.9542969 C97.1544922,17.2837256 97.2413403,17.5906887 97.4150391,17.8751953 C97.5887379,18.1597019 97.8477848,18.3813143 98.1921875,18.5400391 C98.5365903,18.6987638 98.8794905,18.778125 99.2208985,18.778125 C99.8018909,18.778125 100.375388,18.6074236 100.941406,18.2660156 C101.507425,17.9246077 101.947655,17.4694039 102.262109,16.9003906 C102.576564,16.3313774 102.733789,15.669535 102.733789,14.9148437 L102.733789,13.6660156 Z M111.906836,20 L106.794727,7.4578125 L109.04082,7.4578125 L113.056836,17.2957031 L117.17168,7.4578125 L119.24707,7.4578125 L113.991211,20 L111.906836,20 Z M129.507227,16.7746094 L131.600586,16.7746094 L131.600586,16.8914063 C131.600586,17.4424507 131.378974,18.0069633 130.935742,18.5849609 C130.492511,19.1629586 129.908532,19.6016912 129.183789,19.9011719 C128.459046,20.2006525 127.623507,20.3503906 126.677148,20.3503906 C124.772451,20.3503906 123.300526,19.7319723 122.261328,18.4951172 C121.22213,17.258262 120.702539,15.6964938 120.702539,13.8097656 C120.702539,11.8811101 121.252078,10.2819074 122.351172,9.01210937 C123.450266,7.74231136 124.862296,7.10742188 126.587305,7.10742188 C127.539653,7.10742188 128.402145,7.31256305 129.174805,7.72285156 C129.947465,8.13314007 130.558396,8.77551646 131.007617,9.65 C131.456838,10.5244835 131.681445,11.7403568 131.681445,13.2976562 L131.681445,13.9894531 L122.768945,13.9894531 C122.768945,15.3311265 123.131312,16.4361936 123.856055,17.3046875 C124.580798,18.1731814 125.581048,18.6074219 126.856836,18.6074219 C127.779236,18.6074219 128.45156,18.4292336 128.873828,18.0728516 C129.296096,17.7164696 129.507227,17.3226584 129.507227,16.8914063 L129.507227,16.7746094 Z M122.903711,12.4171875 L129.67793,12.4171875 L129.67793,12.1746094 C129.67793,11.5876273 129.537176,11.0186225 129.255664,10.4675781 C128.974152,9.9165337 128.586331,9.50924611 128.092188,9.24570312 C127.598044,8.98216014 127.021553,8.85039062 126.362695,8.85039062 C125.584046,8.85039062 124.865303,9.16184584 124.206445,9.78476562 C123.547588,10.4076854 123.113347,11.2851506 122.903711,12.4171875 Z M142.53457,16.7746094 L144.636914,16.7746094 L144.636914,16.8914063 C144.636914,17.4484403 144.425783,18.0114555 144.003516,18.5804688 C143.581248,19.149482 143.027217,19.5867172 142.341406,19.8921875 C141.655596,20.1976578 140.830539,20.3503906 139.866211,20.3503906 C138.01542,20.3503906 136.589914,19.7634173 135.589648,18.5894531 C134.589383,17.4154889 134.089258,15.7923281 134.089258,13.7199219 C134.089258,11.6535053 134.589383,10.0348366 135.589648,8.86386719 C136.589914,7.69289779 138.01542,7.10742188 139.866211,7.10742188 C140.830539,7.10742188 141.655596,7.25865734 142.341406,7.56113281 C143.027217,7.86360828 143.581248,8.27838278 144.003516,8.80546875 C144.425783,9.33255472 144.636914,9.91952802 144.636914,10.5664062 L144.636914,10.6742188 L142.53457,10.6742188 L142.53457,10.5664062 C142.558529,10.1111956 142.359377,9.71139495 141.937109,9.36699219 C141.514842,9.02258942 140.860486,8.85039062 139.974023,8.85039062 C138.925841,8.85039062 138.046879,9.23521751 137.337109,10.0048828 C136.62734,10.7745481 136.272461,12.0128821 136.272461,13.7199219 C136.272461,15.4329513 136.62734,16.6757774 137.337109,17.4484375 C138.046879,18.2210976 138.925841,18.6074219 139.974023,18.6074219 C140.860486,18.6074219 141.508852,18.4352231 141.919141,18.0908203 C142.329429,17.7464175 142.53457,17.3466169 142.53457,16.8914063 L142.53457,16.7746094 Z" id="Abonné-avec" fill="#FFFFFF"></path>
        <g id="Group" transform="translate(152.000000, 1.000000)" fill="#FFFFFF" fill-rule="nonzero">
            <path d="M9.36714443,19 C4.27673649,19 0,14.7346939 0,9.5 C0,4.26530612 4.27673649,0 9.36714443,0 C12.185226,0 14.1896362,1.13265306 15.6979052,2.62244898 L13.92172,4.44897959 C12.8401323,3.40816327 11.3715546,2.59183673 9.36714443,2.59183673 C5.646086,2.59183673 2.73869901,5.67346939 2.73869901,9.5 C2.73869901,13.3265306 5.646086,16.4081633 9.36714443,16.4081633 C11.7783903,16.4081633 13.1477398,15.4081633 14.030871,14.5102041 C14.755237,13.7653061 15.2216097,12.7040816 15.4002205,11.244898 L9.36714443,11.244898 L9.36714443,8.64285714 L17.8610805,8.64285714 C17.9503859,9.10204082 18,9.66326531 18,10.2653061 C18,12.2142857 17.4840132,14.622449 15.8169791,16.3367347 C14.1896362,18.0714286 12.1256891,19 9.36714443,19 Z" id="Shape"></path>
            <path d="M32,13 C32,16.4557596 29.3096447,19 26,19 C22.6903553,19 20,16.4557596 20,13 C20,9.52420701 22.6903553,7 26,7 C29.3096447,7 32,9.52420701 32,13 Z M29.3705584,13 C29.3705584,10.836394 27.8071066,9.3639399 26,9.3639399 C24.1928934,9.3639399 22.6294416,10.8464107 22.6294416,13 C22.6294416,15.1335559 24.1928934,16.6360601 26,16.6360601 C27.8071066,16.6360601 29.3705584,15.1435726 29.3705584,13 Z" id="Shape"></path>
            <path d="M45,13 C45,16.4557596 42.3096447,19 39,19 C35.7005076,19 33,16.4557596 33,13 C33,9.52420701 35.6903553,7 39,7 C42.3096447,7 45,9.52420701 45,13 Z M42.3807107,13 C42.3807107,10.836394 40.8172589,9.3639399 39.0101523,9.3639399 C37.2030457,9.3639399 35.6395939,10.8464107 35.6395939,13 C35.6395939,15.1335559 37.2030457,16.6360601 39.0101523,16.6360601 C40.8172589,16.6460768 42.3807107,15.1435726 42.3807107,13 Z" id="Shape"></path>
            <path d="M57,7.3621186 L57,17.8929188 C57,22.228555 54.5013055,24 51.5430809,24 C48.7571802,24 47.0913838,22.0915371 46.45953,20.5354059 L48.6518712,19.6056419 C49.0443864,20.5647668 50.0017406,21.6902706 51.5430809,21.6902706 C53.4386423,21.6902706 54.6066144,20.4864709 54.6066144,18.2452504 L54.6066144,17.4035694 L54.5204526,17.4035694 C53.9556136,18.1180196 52.8642298,18.7345999 51.4952132,18.7345999 C48.6231506,18.7345999 46,16.1801957 46,12.8917674 C46,9.58376511 48.6327241,7 51.4952132,7 C52.8642298,7 53.9556136,7.6263673 54.5204526,8.31145653 L54.6066144,8.31145653 L54.6066144,7.3621186 L57,7.3621186 Z M54.7789382,12.9015544 C54.7789382,10.8364997 53.4290688,9.31951641 51.7154047,9.31951641 C49.97302,9.31951641 48.5178416,10.8267127 48.5178416,12.9015544 C48.5178416,14.9470351 49.97302,16.4346575 51.7154047,16.4346575 C53.4290688,16.4346575 54.7789382,14.9470351 54.7789382,12.9015544 Z" id="Shape"></path>
            <polygon id="Shape" points="63 1 63 19 60 19 60 1"></polygon>
            <path d="M72.8441203,14.9732888 L74.8896992,16.3355593 C74.2278943,17.3171953 72.633546,19 69.8760255,19 C66.4567001,19 64,16.3656093 64,13 C64,9.43405676 66.4867821,7 69.5852325,7 C72.7037375,7 74.2278943,9.47412354 74.7292616,10.8163606 L75,11.4974958 L66.9680948,14.8230384 C67.579763,16.0250417 68.5423883,16.6460768 69.8860529,16.6460768 C71.2297174,16.6460768 72.1622607,15.9749583 72.8441203,14.9732888 Z M66.5369189,12.8096828 L71.911577,10.5859766 C71.6107566,9.83472454 70.72835,9.31385643 69.6754786,9.31385643 C68.331814,9.31385643 66.4667274,10.4958264 66.5369189,12.8096828 Z" id="Shape"></path>
        </g>
    </g>
</svg>