<svg width="227" height="26" viewBox="0 0 227 26" xmlns="http://www.w3.org/2000/svg"><title>SwG-TR-OW</title><desc>Created with Sketch.</desc><g fill="none"><path d="M2.72 20h-2.102l7.143-17.43h2.291l6.595 17.43h-2.453l-1.806-4.798h-7.691l-1.977 4.798zm2.659-6.541h6.334l-3.055-8.095-3.279 8.095zm15.327 6.541h-2.093c.036-.413.067-.915.094-1.505l.063-1.446.022-.759v-14.42h2.093v7.763c.455-.713.883-1.229 1.285-1.55.401-.32.839-.563 1.312-.728.473-.165.973-.247 1.5-.247.952 0 1.825.261 2.619.782.794.521 1.411 1.298 1.851 2.331.44 1.033.66 2.194.66 3.481 0 1.905-.46 3.489-1.379 4.753-.919 1.264-2.203 1.896-3.85 1.896-.539 0-1.045-.078-1.518-.234-.473-.156-.895-.385-1.267-.687-.371-.302-.776-.843-1.213-1.622l-.072.907c-.03.503-.066.931-.108 1.285zm.18-6.271c0 1.426.307 2.595.921 3.508.614.913 1.475 1.37 2.583 1.37 1.018 0 1.864-.404 2.538-1.213.674-.809 1.011-2.018 1.011-3.63 0-1.881-.344-3.185-1.033-3.913-.689-.728-1.509-1.092-2.462-1.092-.665 0-1.285.199-1.86.597-.575.398-1.002.993-1.28 1.783-.279.791-.418 1.653-.418 2.588zm17.385 6.621c-1.635 0-3.032-.557-4.191-1.671-1.159-1.114-1.738-2.767-1.738-4.959 0-2.186.579-3.835 1.738-4.946 1.159-1.111 2.556-1.667 4.191-1.667 1.635 0 3.031.556 4.187 1.667 1.156 1.111 1.734 2.76 1.734 4.946 0 2.192-.578 3.845-1.734 4.959-1.156 1.114-2.552 1.671-4.187 1.671zm0-1.743c1.126 0 2.032-.448 2.718-1.343.686-.895 1.029-2.077 1.029-3.544 0-1.461-.343-2.638-1.029-3.531-.686-.892-1.592-1.339-2.718-1.339s-2.032.446-2.718 1.339c-.686.892-1.029 2.069-1.029 3.531 0 1.467.343 2.649 1.029 3.544.686.895 1.592 1.343 2.718 1.343zm10.844 1.393h-2.084v-12.542h2.084v2.165c.443-.683.873-1.189 1.289-1.518.416-.329.851-.578 1.303-.746.452-.168.957-.252 1.514-.252.785 0 1.49.16 2.116.481.626.32 1.111.794 1.455 1.42.344.626.517 1.628.517 3.005v7.987h-2.093v-7.089c0-1.12-.075-1.915-.225-2.385-.15-.47-.442-.837-.876-1.101s-.906-.395-1.415-.395c-.611 0-1.193.18-1.747.539-.554.359-.999.861-1.334 1.505-.335.644-.503 1.565-.503 2.763v6.163zm13.566 0h-2.084v-12.542h2.084v2.165c.443-.683.873-1.189 1.289-1.518.416-.329.851-.578 1.303-.746.452-.168.957-.252 1.514-.252.785 0 1.49.16 2.116.481.626.32 1.111.794 1.455 1.42.344.626.517 1.628.517 3.005v7.987h-2.093v-7.089c0-1.12-.075-1.915-.225-2.385-.15-.47-.442-.837-.876-1.101s-.906-.395-1.415-.395c-.611 0-1.193.18-1.747.539-.554.359-.999.861-1.334 1.505-.335.644-.503 1.565-.503 2.763v6.163zm19.846-3.234h2.093v.126c0 .557-.222 1.125-.665 1.703-.443.578-1.027 1.014-1.752 1.307-.725.293-1.56.44-2.507.44-1.917 0-3.392-.617-4.425-1.851s-1.55-2.794-1.55-4.681c0-1.929.547-3.528 1.64-4.798s2.508-1.905 4.245-1.905c.946 0 1.806.205 2.579.615.773.41 1.384 1.051 1.833 1.923.449.871.674 2.092.674 3.661v.683h-8.895c0 1.348.361 2.454 1.083 3.32.722.865 1.721 1.298 2.996 1.298.928 0 1.602-.177 2.021-.53.419-.353.629-.749.629-1.186v-.126zm-6.604-4.348h6.765v-.252c0-.581-.138-1.147-.413-1.698-.276-.551-.663-.96-1.163-1.226-.5-.267-1.074-.4-1.721-.4-.785 0-1.505.313-2.161.939-.656.626-1.092 1.505-1.307 2.637zm1.204-6.882l3.324-3.657h2.435l-3.845 3.657h-1.914zm25.929 14.465c-.216-.677-.323-1.258-.323-1.743-.916.904-1.698 1.479-2.345 1.725-.647.246-1.267.368-1.86.368-.994 0-1.849-.305-2.565-.916s-1.074-1.452-1.074-2.525c0-1.21.505-2.144 1.514-2.803 1.009-.659 2.745-1.228 5.206-1.707l1.123-.216v-1.42c0-.767-.259-1.306-.777-1.617-.518-.311-1.14-.467-1.864-.467-.868 0-1.545.19-2.03.571-.485.38-.728.825-.728 1.334v.18h-2.273v-.162c0-.557.234-1.131.701-1.721.467-.59 1.089-1.035 1.864-1.334.776-.299 1.625-.449 2.547-.449.91 0 1.74.142 2.489.427.749.285 1.295.668 1.64 1.15.344.482.517 1.388.517 2.718v4.879c0 .533.013 1.093.04 1.68.027.587.16 1.27.4 2.048h-2.201zm-.323-6.334l-.629.153c-2.12.521-3.475 1.014-4.065 1.478-.59.464-.885 1.017-.885 1.658 0 .329.087.636.261.921.174.285.433.506.777.665.344.159.687.238 1.029.238.581 0 1.154-.171 1.721-.512.566-.341 1.006-.797 1.321-1.366.314-.569.472-1.231.472-1.986v-1.249zm9.173 6.334l-5.112-12.542h2.246l4.016 9.838 4.115-9.838h2.075l-5.256 12.542h-2.084zm17.6-3.225h2.093v.117c0 .551-.222 1.116-.665 1.694-.443.578-1.027 1.017-1.752 1.316-.725.299-1.56.449-2.507.449-1.905 0-3.377-.618-4.416-1.855-1.039-1.237-1.559-2.799-1.559-4.685 0-1.929.55-3.528 1.649-4.798s2.511-1.905 4.236-1.905c.952 0 1.815.205 2.587.615.773.41 1.384 1.053 1.833 1.927.449.874.674 2.09.674 3.648v.692h-8.912c0 1.342.362 2.447 1.087 3.315.725.868 1.725 1.303 3.001 1.303.922 0 1.595-.178 2.017-.535.422-.356.633-.75.633-1.181v-.117zm-6.604-4.357h6.774v-.243c0-.587-.141-1.156-.422-1.707-.282-.551-.669-.958-1.163-1.222s-1.071-.395-1.729-.395c-.779 0-1.497.311-2.156.934s-1.093 1.5-1.303 2.632zm19.631 4.357h2.102v.117c0 .557-.211 1.12-.633 1.689-.422.569-.976 1.006-1.662 1.312-.686.305-1.511.458-2.475.458-1.851 0-3.276-.587-4.277-1.761-1-1.174-1.5-2.797-1.5-4.87 0-2.066.5-3.685 1.5-4.856 1-1.171 2.426-1.756 4.277-1.756.964 0 1.789.151 2.475.454.686.302 1.24.717 1.662 1.244.422.527.633 1.114.633 1.761v.108h-2.102v-.108c.024-.455-.175-.855-.597-1.199-.422-.344-1.077-.517-1.963-.517-1.048 0-1.927.385-2.637 1.154-.71.77-1.065 2.008-1.065 3.715 0 1.713.355 2.956 1.065 3.729.71.773 1.589 1.159 2.637 1.159.886 0 1.535-.172 1.945-.517.41-.344.615-.744.615-1.199v-.117z" fill="#5F6368"/><path d="M161.367 20c-5.09 0-9.367-4.265-9.367-9.5s4.277-9.5 9.367-9.5c2.818 0 4.822 1.133 6.331 2.622l-1.776 1.827c-1.082-1.041-2.55-1.857-4.555-1.857-3.721 0-6.628 3.082-6.628 6.908 0 3.827 2.907 6.908 6.628 6.908 2.411 0 3.781-1 4.664-1.898.724-.745 1.191-1.806 1.369-3.265h-6.033v-2.602h8.494c.089.459.139 1.02.139 1.622 0 1.949-.516 4.357-2.183 6.071-1.627 1.735-3.691 2.663-6.45 2.663z" id="Shape" fill="#4285F4"/><path d="M184 14c0 3.456-2.69 6-6 6s-6-2.544-6-6c0-3.476 2.69-6 6-6s6 2.524 6 6zm-2.629 0c0-2.164-1.563-3.636-3.371-3.636-1.807 0-3.371 1.482-3.371 3.636 0 2.134 1.563 3.636 3.371 3.636 1.807 0 3.371-1.492 3.371-3.636z" id="Shape" fill="#E94235"/><path d="M197 14c0 3.456-2.69 6-6 6-3.299 0-6-2.544-6-6 0-3.476 2.69-6 6-6s6 2.524 6 6zm-2.619 0c0-2.164-1.563-3.636-3.371-3.636-1.807 0-3.371 1.482-3.371 3.636 0 2.134 1.563 3.636 3.371 3.636 1.807.01 3.371-1.492 3.371-3.636z" id="Shape" fill="#FABB05"/><path d="M209 8.362v10.531c0 4.336-2.499 6.107-5.457 6.107-2.786 0-4.452-1.908-5.084-3.465l2.192-.93c.393.959 1.35 2.085 2.891 2.085 1.896 0 3.064-1.204 3.064-3.445v-.842h-.086c-.565.714-1.656 1.331-3.025 1.331-2.872 0-5.495-2.554-5.495-5.843 0-3.308 2.633-5.892 5.495-5.892 1.369 0 2.46.626 3.025 1.311h.086v-.949h2.393zm-2.221 5.539c0-2.065-1.35-3.582-3.064-3.582-1.742 0-3.198 1.507-3.198 3.582 0 2.045 1.455 3.533 3.198 3.533 1.714 0 3.064-1.488 3.064-3.533z" id="Shape" fill="#4285F4"/><path fill="#34A853" d="M215 2v18h-3v-18z"/><path d="M224.844 15.973l2.046 1.362c-.662.982-2.256 2.664-5.014 2.664-3.419 0-5.876-2.634-5.876-6 0-3.566 2.487-6 5.585-6 3.119 0 4.643 2.474 5.144 3.816l.271.681-8.032 3.326c.612 1.202 1.574 1.823 2.918 1.823s2.276-.671 2.958-1.673zm-6.307-2.164l5.375-2.224c-.301-.751-1.183-1.272-2.236-1.272-1.344 0-3.209 1.182-3.139 3.496z" fill="#E94235"/></g></svg>