<?xml version="1.0" encoding="UTF-8"?>
<svg width="202px" height="26px" viewBox="0 0 202 26" version="1.1" xmlns="http://www.w3.org/2000/svg" xmlns:xlink="http://www.w3.org/1999/xlink">
    <!-- Generator: Sketch 52.3 (67297) - http://www.bohemiancoding.com/sketch -->
    <title>SwG-TR-OB</title>
    <desc>Created with Sketch.</desc>
    <g id="SwG-TR-OB" stroke="none" stroke-width="1" fill="none" fill-rule="evenodd">
        <path d="M84.588,7.901 C84.2966652,8.19233479 83.9440021,8.338 83.53,8.338 C83.1159979,8.338 82.7633348,8.19233479 82.472,7.901 C82.1806652,7.60966521 82.035,7.25700207 82.035,6.843 C82.035,6.42899793 82.1806652,6.07633479 82.472,5.785 C82.7633348,5.49366521 83.1159979,5.348 83.53,5.348 C83.9440021,5.348 84.2966652,5.49366521 84.588,5.785 C84.8793348,6.07633479 85.025,6.42899793 85.025,6.843 C85.025,7.25700207 84.8793348,7.60966521 84.588,7.901 Z M84.588,22 L82.472,22 L82.472,10.73 L84.588,10.73 L84.588,22 Z M89.60775,22 L87.49175,22 L87.49175,5.532 L89.60775,5.532 L89.60775,22 Z M97.3185,22.368 C95.6164915,22.368 94.232672,21.8006723 93.167,20.666 C92.101328,19.5313277 91.5685,18.0976753 91.5685,16.365 C91.5685,14.7243251 92.0859948,13.3136726 93.121,12.133 C94.1560052,10.9523274 95.478492,10.362 97.0885,10.362 C98.7598417,10.362 100.097662,10.9063279 101.102,11.995 C102.106338,13.0836721 102.6085,14.5403242 102.6085,16.365 L102.5855,16.756 L93.6845,16.756 C93.7458336,17.8906723 94.1253298,18.7876634 94.823,19.447 C95.5206702,20.1063366 96.337162,20.436 97.2725,20.436 C98.7905076,20.436 99.8178306,19.7920064 100.3545,18.504 L102.2405,19.286 C101.872498,20.1600044 101.266838,20.8921637 100.4235,21.4825 C99.5801624,22.0728363 98.5451728,22.368 97.3185,22.368 Z M100.3545,15.008 C100.3085,14.3639968 100.013336,13.7506696 99.469,13.168 C98.9246639,12.5853304 98.1158387,12.294 97.0425,12.294 C96.2604961,12.294 95.5820029,12.5393309 95.007,13.03 C94.4319971,13.5206691 94.0371677,14.1799959 93.8225,15.008 L100.3545,15.008 Z M107.956,22 L114.166,5.532 L116.558,5.532 L122.768,22 L120.422,22 L118.835,17.538 L111.912,17.538 L110.302,22 L107.956,22 Z M112.625,15.56 L118.099,15.56 L115.408,8.131 L115.316,8.131 L112.625,15.56 Z M130.43275,22.368 C129.574079,22.368 128.803587,22.1840018 128.12125,21.816 C127.438913,21.4479982 126.929085,20.9880028 126.59175,20.436 L126.49975,20.436 L126.49975,22 L124.47575,22 L124.47575,5.532 L126.59175,5.532 L126.59175,10.73 L126.49975,12.294 L126.59175,12.294 C126.929085,11.7419972 127.438913,11.2820018 128.12125,10.914 C128.803587,10.5459982 129.574079,10.362 130.43275,10.362 C131.889424,10.362 133.146745,10.9369942 134.20475,12.087 C135.262755,13.2370057 135.79175,14.6629915 135.79175,16.365 C135.79175,18.0670085 135.262755,19.4929942 134.20475,20.643 C133.146745,21.7930057 131.889424,22.368 130.43275,22.368 Z M130.08775,20.436 C131.069088,20.436 131.912413,20.0641704 132.61775,19.3205 C133.323087,18.5768296 133.67575,17.5916728 133.67575,16.365 C133.67575,15.1383272 133.323087,14.1531704 132.61775,13.4095 C131.912413,12.6658296 131.069088,12.294 130.08775,12.294 C129.091078,12.294 128.24392,12.6619963 127.54625,13.398 C126.84858,14.1340037 126.49975,15.1229938 126.49975,16.365 C126.49975,17.6070062 126.84858,18.5959963 127.54625,19.332 C128.24392,20.0680037 129.091078,20.436 130.08775,20.436 Z M138.8565,12.087 C139.945172,10.9369943 141.332825,10.362 143.0195,10.362 C144.706175,10.362 146.093828,10.933161 147.1825,12.0755 C148.271172,13.217839 148.8155,14.6476581 148.8155,16.365 C148.8155,18.0823419 148.271172,19.512161 147.1825,20.6545 C146.093828,21.796839 144.706175,22.368 143.0195,22.368 C141.332825,22.368 139.945172,21.796839 138.8565,20.6545 C137.767828,19.512161 137.2235,18.0823419 137.2235,16.365 C137.2235,14.6476581 137.767828,13.2216723 138.8565,12.087 Z M140.4205,19.332 C141.156504,20.0680037 142.022828,20.436 143.0195,20.436 C144.016172,20.436 144.878663,20.0641704 145.607,19.3205 C146.335337,18.5768296 146.6995,17.5916728 146.6995,16.365 C146.6995,15.1383272 146.335337,14.1531704 145.607,13.4095 C144.878663,12.6658296 144.016172,12.294 143.0195,12.294 C142.022828,12.294 141.160337,12.6658296 140.432,13.4095 C139.703663,14.1531704 139.3395,15.1383272 139.3395,16.365 C139.3395,17.5916728 139.69983,18.5806629 140.4205,19.332 Z M152.68525,10.73 L152.68525,12.294 L152.77725,12.294 C153.083918,11.7573306 153.566913,11.3011685 154.22625,10.9255 C154.885587,10.5498315 155.590913,10.362 156.34225,10.362 C157.73759,10.362 158.803246,10.791329 159.53925,11.65 C160.275254,12.508671 160.64325,13.6586595 160.64325,15.1 L160.64325,22 L158.52725,22 L158.52725,15.422 C158.52725,13.3366562 157.599593,12.294 155.74425,12.294 C154.870246,12.294 154.157253,12.6428298 153.60525,13.3405 C153.053247,14.0381702 152.77725,14.8469954 152.77725,15.767 L152.77725,22 L150.66125,22 L150.66125,10.73 L152.68525,10.73 Z M168.377,22.368 C166.674991,22.368 165.291172,21.8006723 164.2255,20.666 C163.159828,19.5313277 162.627,18.0976753 162.627,16.365 C162.627,14.7243251 163.144495,13.3136726 164.1795,12.133 C165.214505,10.9523274 166.536992,10.362 168.147,10.362 C169.818342,10.362 171.156162,10.9063279 172.1605,11.995 C173.164838,13.0836721 173.667,14.5403242 173.667,16.365 L173.644,16.756 L164.743,16.756 C164.804334,17.8906723 165.18383,18.7876634 165.8815,19.447 C166.57917,20.1063366 167.395662,20.436 168.331,20.436 C169.849008,20.436 170.876331,19.7920064 171.413,18.504 L173.299,19.286 C172.930998,20.1600044 172.325338,20.8921637 171.482,21.4825 C170.638662,22.0728363 169.603673,22.368 168.377,22.368 Z M171.413,15.008 C171.367,14.3639968 171.071836,13.7506696 170.5275,13.168 C169.983164,12.5853304 169.174339,12.294 168.101,12.294 C167.318996,12.294 166.640503,12.5393309 166.0655,13.03 C165.490497,13.5206691 165.095668,14.1799959 164.881,15.008 L171.413,15.008 Z M194.5395,19.884 C192.929492,21.5400083 190.920845,22.368 188.5135,22.368 C186.106155,22.368 184.093675,21.536175 182.476,19.8725 C180.858325,18.208825 180.0495,16.1733454 180.0495,13.766 C180.0495,11.3586546 180.858325,9.32317499 182.476,7.6595 C184.093675,5.99582502 186.106155,5.164 188.5135,5.164 C190.905512,5.164 192.914159,5.99965831 194.5395,7.671 C196.164841,9.34234169 196.9775,11.373988 196.9775,13.766 C196.9775,16.1733454 196.164841,18.2126583 194.5395,19.884 Z M184.0285,18.504 C185.255173,19.7306728 186.750158,20.344 188.5135,20.344 C190.276842,20.344 191.767994,19.7268395 192.987,18.4925 C194.206006,17.2581605 194.8155,15.6826763 194.8155,13.766 C194.8155,11.8493237 194.206006,10.2738395 192.987,9.0395 C191.767994,7.8051605 190.276842,7.188 188.5135,7.188 C186.750158,7.188 185.259006,7.8051605 184.04,9.0395 C182.820994,10.2738395 182.2115,11.8493237 182.2115,13.766 C182.2115,15.6826763 182.817161,17.2619938 184.0285,18.504 Z M201.37625,22 L199.26025,22 L199.26025,5.532 L201.37625,5.532 L201.37625,22 Z" id="ile-Abone-Ol" fill="#FFFFFF"></path>
        <g id="Group" transform="translate(0.000000, 2.000000)" fill="#FFFFFF" fill-rule="nonzero">
            <path d="M9.36714443,19 C4.27673649,19 0,14.7346939 0,9.5 C0,4.26530612 4.27673649,0 9.36714443,0 C12.185226,0 14.1896362,1.13265306 15.6979052,2.62244898 L13.92172,4.44897959 C12.8401323,3.40816327 11.3715546,2.59183673 9.36714443,2.59183673 C5.646086,2.59183673 2.73869901,5.67346939 2.73869901,9.5 C2.73869901,13.3265306 5.646086,16.4081633 9.36714443,16.4081633 C11.7783903,16.4081633 13.1477398,15.4081633 14.030871,14.5102041 C14.755237,13.7653061 15.2216097,12.7040816 15.4002205,11.244898 L9.36714443,11.244898 L9.36714443,8.64285714 L17.8610805,8.64285714 C17.9503859,9.10204082 18,9.66326531 18,10.2653061 C18,12.2142857 17.4840132,14.622449 15.8169791,16.3367347 C14.1896362,18.0714286 12.1256891,19 9.36714443,19 Z" id="Shape"></path>
            <path d="M32,13 C32,16.4557596 29.3096447,19 26,19 C22.6903553,19 20,16.4557596 20,13 C20,9.52420701 22.6903553,7 26,7 C29.3096447,7 32,9.52420701 32,13 Z M29.3705584,13 C29.3705584,10.836394 27.8071066,9.3639399 26,9.3639399 C24.1928934,9.3639399 22.6294416,10.8464107 22.6294416,13 C22.6294416,15.1335559 24.1928934,16.6360601 26,16.6360601 C27.8071066,16.6360601 29.3705584,15.1435726 29.3705584,13 Z" id="Shape"></path>
            <path d="M45,13 C45,16.4557596 42.3096447,19 39,19 C35.7005076,19 33,16.4557596 33,13 C33,9.52420701 35.6903553,7 39,7 C42.3096447,7 45,9.52420701 45,13 Z M42.3807107,13 C42.3807107,10.836394 40.8172589,9.3639399 39.0101523,9.3639399 C37.2030457,9.3639399 35.6395939,10.8464107 35.6395939,13 C35.6395939,15.1335559 37.2030457,16.6360601 39.0101523,16.6360601 C40.8172589,16.6460768 42.3807107,15.1435726 42.3807107,13 Z" id="Shape"></path>
            <path d="M57,7.3621186 L57,17.8929188 C57,22.228555 54.5013055,24 51.5430809,24 C48.7571802,24 47.0913838,22.0915371 46.45953,20.5354059 L48.6518712,19.6056419 C49.0443864,20.5647668 50.0017406,21.6902706 51.5430809,21.6902706 C53.4386423,21.6902706 54.6066144,20.4864709 54.6066144,18.2452504 L54.6066144,17.4035694 L54.5204526,17.4035694 C53.9556136,18.1180196 52.8642298,18.7345999 51.4952132,18.7345999 C48.6231506,18.7345999 46,16.1801957 46,12.8917674 C46,9.58376511 48.6327241,7 51.4952132,7 C52.8642298,7 53.9556136,7.6263673 54.5204526,8.31145653 L54.6066144,8.31145653 L54.6066144,7.3621186 L57,7.3621186 Z M54.7789382,12.9015544 C54.7789382,10.8364997 53.4290688,9.31951641 51.7154047,9.31951641 C49.97302,9.31951641 48.5178416,10.8267127 48.5178416,12.9015544 C48.5178416,14.9470351 49.97302,16.4346575 51.7154047,16.4346575 C53.4290688,16.4346575 54.7789382,14.9470351 54.7789382,12.9015544 Z" id="Shape"></path>
            <polygon id="Shape" points="63 1 63 19 60 19 60 1"></polygon>
            <path d="M72.8441203,14.9732888 L74.8896992,16.3355593 C74.2278943,17.3171953 72.633546,19 69.8760255,19 C66.4567001,19 64,16.3656093 64,13 C64,9.43405676 66.4867821,7 69.5852325,7 C72.7037375,7 74.2278943,9.47412354 74.7292616,10.8163606 L75,11.4974958 L66.9680948,14.8230384 C67.579763,16.0250417 68.5423883,16.6460768 69.8860529,16.6460768 C71.2297174,16.6460768 72.1622607,15.9749583 72.8441203,14.9732888 Z M66.5369189,12.8096828 L71.911577,10.5859766 C71.6107566,9.83472454 70.72835,9.31385643 69.6754786,9.31385643 C68.331814,9.31385643 66.4667274,10.4958264 66.5369189,12.8096828 Z" id="Shape"></path>
        </g>
    </g>
</svg>
