<?xml version="1.0" encoding="UTF-8"?>
<svg width="203px" height="26px" viewBox="0 0 203 26" version="1.1" xmlns="http://www.w3.org/2000/svg" xmlns:xlink="http://www.w3.org/1999/xlink">
    <!-- Generator: Sketch 52.3 (67297) - http://www.bohemiancoding.com/sketch -->
    <title>SwG-TR-OW</title>
    <desc>Created with Sketch.</desc>
    <g id="SwG-TR-OW" stroke="none" stroke-width="1" fill="none" fill-rule="evenodd">
        <path d="M86.588,5.901 C86.2966652,6.19233479 85.9440021,6.338 85.53,6.338 C85.1159979,6.338 84.7633348,6.19233479 84.472,5.901 C84.1806652,5.60966521 84.035,5.25700207 84.035,4.843 C84.035,4.42899793 84.1806652,4.07633479 84.472,3.785 C84.7633348,3.49366521 85.1159979,3.348 85.53,3.348 C85.9440021,3.348 86.2966652,3.49366521 86.588,3.785 C86.8793348,4.07633479 87.025,4.42899793 87.025,4.843 C87.025,5.25700207 86.8793348,5.60966521 86.588,5.901 Z M86.588,20 L84.472,20 L84.472,8.73 L86.588,8.73 L86.588,20 Z M91.60775,20 L89.49175,20 L89.49175,3.532 L91.60775,3.532 L91.60775,20 Z M99.3185,20.368 C97.6164915,20.368 96.232672,19.8006723 95.167,18.666 C94.101328,17.5313277 93.5685,16.0976753 93.5685,14.365 C93.5685,12.7243251 94.0859948,11.3136726 95.121,10.133 C96.1560052,8.95232743 97.478492,8.362 99.0885,8.362 C100.759842,8.362 102.097662,8.90632789 103.102,9.995 C104.106338,11.0836721 104.6085,12.5403242 104.6085,14.365 L104.5855,14.756 L95.6845,14.756 C95.7458336,15.8906723 96.1253298,16.7876634 96.823,17.447 C97.5206702,18.1063366 98.337162,18.436 99.2725,18.436 C100.790508,18.436 101.817831,17.7920064 102.3545,16.504 L104.2405,17.286 C103.872498,18.1600044 103.266838,18.8921637 102.4235,19.4825 C101.580162,20.0728363 100.545173,20.368 99.3185,20.368 Z M102.3545,13.008 C102.3085,12.3639968 102.013336,11.7506696 101.469,11.168 C100.924664,10.5853304 100.115839,10.294 99.0425,10.294 C98.2604961,10.294 97.5820029,10.5393309 97.007,11.03 C96.4319971,11.5206691 96.0371677,12.1799959 95.8225,13.008 L102.3545,13.008 Z M109.956,20 L116.166,3.532 L118.558,3.532 L124.768,20 L122.422,20 L120.835,15.538 L113.912,15.538 L112.302,20 L109.956,20 Z M114.625,13.56 L120.099,13.56 L117.408,6.131 L117.316,6.131 L114.625,13.56 Z M132.43275,20.368 C131.574079,20.368 130.803587,20.1840018 130.12125,19.816 C129.438913,19.4479982 128.929085,18.9880028 128.59175,18.436 L128.49975,18.436 L128.49975,20 L126.47575,20 L126.47575,3.532 L128.59175,3.532 L128.59175,8.73 L128.49975,10.294 L128.59175,10.294 C128.929085,9.74199724 129.438913,9.28200184 130.12125,8.914 C130.803587,8.54599816 131.574079,8.362 132.43275,8.362 C133.889424,8.362 135.146745,8.93699425 136.20475,10.087 C137.262755,11.2370057 137.79175,12.6629915 137.79175,14.365 C137.79175,16.0670085 137.262755,17.4929942 136.20475,18.643 C135.146745,19.7930057 133.889424,20.368 132.43275,20.368 Z M132.08775,18.436 C133.069088,18.436 133.912413,18.0641704 134.61775,17.3205 C135.323087,16.5768296 135.67575,15.5916728 135.67575,14.365 C135.67575,13.1383272 135.323087,12.1531704 134.61775,11.4095 C133.912413,10.6658296 133.069088,10.294 132.08775,10.294 C131.091078,10.294 130.24392,10.6619963 129.54625,11.398 C128.84858,12.1340037 128.49975,13.1229938 128.49975,14.365 C128.49975,15.6070062 128.84858,16.5959963 129.54625,17.332 C130.24392,18.0680037 131.091078,18.436 132.08775,18.436 Z M140.8565,10.087 C141.945172,8.93699425 143.332825,8.362 145.0195,8.362 C146.706175,8.362 148.093828,8.93316096 149.1825,10.0755 C150.271172,11.217839 150.8155,12.6476581 150.8155,14.365 C150.8155,16.0823419 150.271172,17.512161 149.1825,18.6545 C148.093828,19.796839 146.706175,20.368 145.0195,20.368 C143.332825,20.368 141.945172,19.796839 140.8565,18.6545 C139.767828,17.512161 139.2235,16.0823419 139.2235,14.365 C139.2235,12.6476581 139.767828,11.2216723 140.8565,10.087 Z M142.4205,17.332 C143.156504,18.0680037 144.022828,18.436 145.0195,18.436 C146.016172,18.436 146.878663,18.0641704 147.607,17.3205 C148.335337,16.5768296 148.6995,15.5916728 148.6995,14.365 C148.6995,13.1383272 148.335337,12.1531704 147.607,11.4095 C146.878663,10.6658296 146.016172,10.294 145.0195,10.294 C144.022828,10.294 143.160337,10.6658296 142.432,11.4095 C141.703663,12.1531704 141.3395,13.1383272 141.3395,14.365 C141.3395,15.5916728 141.69983,16.5806629 142.4205,17.332 Z M154.68525,8.73 L154.68525,10.294 L154.77725,10.294 C155.083918,9.75733065 155.566913,9.30116854 156.22625,8.9255 C156.885587,8.54983145 157.590913,8.362 158.34225,8.362 C159.73759,8.362 160.803246,8.79132904 161.53925,9.65 C162.275254,10.508671 162.64325,11.6586595 162.64325,13.1 L162.64325,20 L160.52725,20 L160.52725,13.422 C160.52725,11.3366562 159.599593,10.294 157.74425,10.294 C156.870246,10.294 156.157253,10.6428298 155.60525,11.3405 C155.053247,12.0381702 154.77725,12.8469954 154.77725,13.767 L154.77725,20 L152.66125,20 L152.66125,8.73 L154.68525,8.73 Z M170.377,20.368 C168.674991,20.368 167.291172,19.8006723 166.2255,18.666 C165.159828,17.5313277 164.627,16.0976753 164.627,14.365 C164.627,12.7243251 165.144495,11.3136726 166.1795,10.133 C167.214505,8.95232743 168.536992,8.362 170.147,8.362 C171.818342,8.362 173.156162,8.90632789 174.1605,9.995 C175.164838,11.0836721 175.667,12.5403242 175.667,14.365 L175.644,14.756 L166.743,14.756 C166.804334,15.8906723 167.18383,16.7876634 167.8815,17.447 C168.57917,18.1063366 169.395662,18.436 170.331,18.436 C171.849008,18.436 172.876331,17.7920064 173.413,16.504 L175.299,17.286 C174.930998,18.1600044 174.325338,18.8921637 173.482,19.4825 C172.638662,20.0728363 171.603673,20.368 170.377,20.368 Z M173.413,13.008 C173.367,12.3639968 173.071836,11.7506696 172.5275,11.168 C171.983164,10.5853304 171.174339,10.294 170.101,10.294 C169.318996,10.294 168.640503,10.5393309 168.0655,11.03 C167.490497,11.5206691 167.095668,12.1799959 166.881,13.008 L173.413,13.008 Z M196.5395,17.884 C194.929492,19.5400083 192.920845,20.368 190.5135,20.368 C188.106155,20.368 186.093675,19.536175 184.476,17.8725 C182.858325,16.208825 182.0495,14.1733454 182.0495,11.766 C182.0495,9.35865463 182.858325,7.32317499 184.476,5.6595 C186.093675,3.99582502 188.106155,3.164 190.5135,3.164 C192.905512,3.164 194.914159,3.99965831 196.5395,5.671 C198.164841,7.34234169 198.9775,9.37398804 198.9775,11.766 C198.9775,14.1733454 198.164841,16.2126583 196.5395,17.884 Z M186.0285,16.504 C187.255173,17.7306728 188.750158,18.344 190.5135,18.344 C192.276842,18.344 193.767994,17.7268395 194.987,16.4925 C196.206006,15.2581605 196.8155,13.6826763 196.8155,11.766 C196.8155,9.84932375 196.206006,8.2738395 194.987,7.0395 C193.767994,5.8051605 192.276842,5.188 190.5135,5.188 C188.750158,5.188 187.259006,5.8051605 186.04,7.0395 C184.820994,8.2738395 184.2115,9.84932375 184.2115,11.766 C184.2115,13.6826763 184.817161,15.2619938 186.0285,16.504 Z M203.37625,20 L201.26025,20 L201.26025,3.532 L203.37625,3.532 L203.37625,20 Z" id="ile-Abone-Ol" fill="#5F6368"></path>
        <g id="Group" transform="translate(0.000000, 1.000000)" fill-rule="nonzero">
            <path d="M9.36714443,19 C4.27673649,19 0,14.7346939 0,9.5 C0,4.26530612 4.27673649,0 9.36714443,0 C12.185226,0 14.1896362,1.13265306 15.6979052,2.62244898 L13.92172,4.44897959 C12.8401323,3.40816327 11.3715546,2.59183673 9.36714443,2.59183673 C5.646086,2.59183673 2.73869901,5.67346939 2.73869901,9.5 C2.73869901,13.3265306 5.646086,16.4081633 9.36714443,16.4081633 C11.7783903,16.4081633 13.1477398,15.4081633 14.030871,14.5102041 C14.755237,13.7653061 15.2216097,12.7040816 15.4002205,11.244898 L9.36714443,11.244898 L9.36714443,8.64285714 L17.8610805,8.64285714 C17.9503859,9.10204082 18,9.66326531 18,10.2653061 C18,12.2142857 17.4840132,14.622449 15.8169791,16.3367347 C14.1896362,18.0714286 12.1256891,19 9.36714443,19 Z" id="Shape" fill="#4285F4"></path>
            <path d="M32,13 C32,16.4557596 29.3096447,19 26,19 C22.6903553,19 20,16.4557596 20,13 C20,9.52420701 22.6903553,7 26,7 C29.3096447,7 32,9.52420701 32,13 Z M29.3705584,13 C29.3705584,10.836394 27.8071066,9.3639399 26,9.3639399 C24.1928934,9.3639399 22.6294416,10.8464107 22.6294416,13 C22.6294416,15.1335559 24.1928934,16.6360601 26,16.6360601 C27.8071066,16.6360601 29.3705584,15.1435726 29.3705584,13 Z" id="Shape" fill="#E94235"></path>
            <path d="M45,13 C45,16.4557596 42.3096447,19 39,19 C35.7005076,19 33,16.4557596 33,13 C33,9.52420701 35.6903553,7 39,7 C42.3096447,7 45,9.52420701 45,13 Z M42.3807107,13 C42.3807107,10.836394 40.8172589,9.3639399 39.0101523,9.3639399 C37.2030457,9.3639399 35.6395939,10.8464107 35.6395939,13 C35.6395939,15.1335559 37.2030457,16.6360601 39.0101523,16.6360601 C40.8172589,16.6460768 42.3807107,15.1435726 42.3807107,13 Z" id="Shape" fill="#FABB05"></path>
            <path d="M57,7.3621186 L57,17.8929188 C57,22.228555 54.5013055,24 51.5430809,24 C48.7571802,24 47.0913838,22.0915371 46.45953,20.5354059 L48.6518712,19.6056419 C49.0443864,20.5647668 50.0017406,21.6902706 51.5430809,21.6902706 C53.4386423,21.6902706 54.6066144,20.4864709 54.6066144,18.2452504 L54.6066144,17.4035694 L54.5204526,17.4035694 C53.9556136,18.1180196 52.8642298,18.7345999 51.4952132,18.7345999 C48.6231506,18.7345999 46,16.1801957 46,12.8917674 C46,9.58376511 48.6327241,7 51.4952132,7 C52.8642298,7 53.9556136,7.6263673 54.5204526,8.31145653 L54.6066144,8.31145653 L54.6066144,7.3621186 L57,7.3621186 Z M54.7789382,12.9015544 C54.7789382,10.8364997 53.4290688,9.31951641 51.7154047,9.31951641 C49.97302,9.31951641 48.5178416,10.8267127 48.5178416,12.9015544 C48.5178416,14.9470351 49.97302,16.4346575 51.7154047,16.4346575 C53.4290688,16.4346575 54.7789382,14.9470351 54.7789382,12.9015544 Z" id="Shape" fill="#4285F4"></path>
            <polygon id="Shape" fill="#34A853" points="63 1 63 19 60 19 60 1"></polygon>
            <path d="M72.8441203,14.9732888 L74.8896992,16.3355593 C74.2278943,17.3171953 72.633546,19 69.8760255,19 C66.4567001,19 64,16.3656093 64,13 C64,9.43405676 66.4867821,7 69.5852325,7 C72.7037375,7 74.2278943,9.47412354 74.7292616,10.8163606 L75,11.4974958 L66.9680948,14.8230384 C67.579763,16.0250417 68.5423883,16.6460768 69.8860529,16.6460768 C71.2297174,16.6460768 72.1622607,15.9749583 72.8441203,14.9732888 Z M66.5369189,12.8096828 L71.911577,10.5859766 C71.6107566,9.83472454 70.72835,9.31385643 69.6754786,9.31385643 C68.331814,9.31385643 66.4667274,10.4958264 66.5369189,12.8096828 Z" id="Shape" fill="#E94235"></path>
        </g>
    </g>
</svg>
