<svg width="324" height="24" viewBox="0 0 324 24" xmlns="http://www.w3.org/2000/svg"><title>SwG-UK-OW</title><desc>Created with Sketch.</desc><g fill="none"><path d="M1.715 7.109h5.957c1.104 0 1.955.207 2.576.644.69.483 1.058 1.242 1.058 2.277 0 1.334-.713 2.254-2.116 2.714 1.702.506 2.553 1.472 2.553 2.852 0 1.104-.345 1.932-1.035 2.507-.736.598-1.794.897-3.22.897h-5.773v-11.891zm1.84 1.472v3.565h3.519c.782 0 1.38-.161 1.84-.437.483-.322.736-.782.736-1.38 0-1.173-.805-1.748-2.369-1.748h-3.726zm0 4.991v3.956h3.772c1.058 0 1.794-.207 2.231-.598.345-.322.529-.805.529-1.426 0-1.288-1.012-1.932-2.99-1.932h-3.542zm10.724-6.463h1.84v9.246l6.394-9.246h1.978v11.891h-1.84v-9.246l-6.394 9.246h-1.978v-11.891zm21.011 0h10.097v11.891h-1.84v-10.35h-6.417v10.35h-1.84v-11.891zm13.879 11.891v-12.196h2.212v12.196h-2.212zm0-14.409v-2.212h2.212v2.212h-2.212zm15.482 2.518v10.35h1.564v4.761h-1.84v-3.22h-8.28v3.22h-1.84v-4.761h1.38l1.84-10.35h7.176zm-5.566 1.541l-1.564 8.809h5.29v-8.809h-3.726zm9.206-1.541h10.097v11.891h-1.84v-10.35h-6.417v10.35h-1.84v-11.891zm13.093 0h1.84v9.246l6.394-9.246h1.978v11.891h-1.84v-9.246l-6.394 9.246h-1.978v-11.891zm18.337-.322c1.472 0 2.645.345 3.542 1.035.92.713 1.472 1.794 1.679 3.243h-1.817c-.161-.92-.529-1.61-1.104-2.07-.598-.46-1.357-.667-2.3-.667-1.15 0-2.07.437-2.737 1.311-.644.851-.966 2.001-.966 3.45 0 1.449.299 2.599.943 3.427.621.828 1.541 1.265 2.737 1.265 2.024 0 3.197-1.035 3.473-3.082h1.84c-.276 1.518-.851 2.691-1.771 3.473-.897.759-2.07 1.15-3.542 1.15-1.794 0-3.174-.598-4.163-1.794-.943-1.127-1.403-2.599-1.403-4.416 0-1.817.46-3.289 1.403-4.439 1.012-1.265 2.415-1.886 4.186-1.886zm12.771 0c1.702 0 2.944.437 3.772 1.334.69.782 1.058 1.863 1.058 3.243v7.636h-1.725v-2.001c-.46.644-1.081 1.196-1.84 1.61-.874.46-1.863.713-2.944.713-1.196 0-2.139-.299-2.852-.897-.736-.621-1.104-1.426-1.104-2.392 0-1.357.529-2.369 1.633-3.059.966-.644 2.346-.989 4.14-1.012l2.852-.046v-.621c0-2.001-1.035-2.99-3.105-2.99-.874 0-1.587.161-2.139.529-.621.368-1.012.943-1.196 1.702l-1.817-.138c.253-1.242.874-2.185 1.84-2.783.874-.552 2.001-.828 3.427-.828zm2.99 6.509l-2.737.046c-2.668.046-4.002.92-4.002 2.645 0 .552.207.989.667 1.357.46.345 1.058.529 1.794.529 1.127 0 2.116-.368 2.99-1.104.851-.713 1.288-1.541 1.288-2.461v-1.012zm7.987-6.187h7.452v11.891h-1.817v-10.35h-4.025l-1.219 6.992c-.23 1.288-.667 2.185-1.334 2.737-.552.414-1.265.621-2.185.621h-.943v-1.541h.69c.506 0 .92-.138 1.219-.391.368-.322.621-.897.759-1.725l1.403-8.234zm10.448 0h1.84v9.246l6.394-9.246h1.978v11.891h-1.84v-9.246l-6.394 9.246h-1.978v-11.891zm18.337-.322c1.472 0 2.645.345 3.542 1.035.92.713 1.472 1.794 1.679 3.243h-1.817c-.161-.92-.529-1.61-1.104-2.07-.598-.46-1.357-.667-2.3-.667-1.15 0-2.07.437-2.737 1.311-.644.851-.966 2.001-.966 3.45 0 1.449.299 2.599.943 3.427.621.828 1.541 1.265 2.737 1.265 2.024 0 3.197-1.035 3.473-3.082h1.84c-.276 1.518-.851 2.691-1.771 3.473-.897.759-2.07 1.15-3.542 1.15-1.794 0-3.174-.598-4.163-1.794-.943-1.127-1.403-2.599-1.403-4.416 0-1.817.46-3.289 1.403-4.439 1.012-1.265 2.415-1.886 4.186-1.886zm17.049.322v11.891h-1.84v-4.922h-3.151l-2.737 4.922h-2.185l2.99-5.175c-.368-.092-.69-.23-.966-.391-.943-.552-1.403-1.495-1.403-2.806 0-1.15.391-2.024 1.173-2.622.759-.598 1.886-.897 3.358-.897h4.761zm-4.577 1.541c-1.909 0-2.852.621-2.852 1.909 0 .667.184 1.173.598 1.495.414.322 1.104.506 2.07.506h2.921v-3.91h-2.737zm15.376-1.541h1.84v3.634c0 .989.161 1.702.506 2.139.322.414.92.621 1.794.621.805 0 1.61-.276 2.392-.805.368-.253.69-.529 1.012-.805v-4.784h1.84v11.891h-1.84v-5.497l-.552.437c-1.058.736-2.139 1.104-3.243 1.104-1.242 0-2.185-.345-2.806-.989-.644-.644-.943-1.656-.943-2.99v-3.956zm17.279-.322c1.909 0 3.358.644 4.324 1.932.874 1.15 1.334 2.783 1.38 4.853h-9.384c.092 1.334.437 2.369 1.081 3.105.644.736 1.541 1.104 2.668 1.104.966 0 1.771-.253 2.369-.736.506-.414.897-1.035 1.196-1.863h1.84c-.276 1.15-.805 2.07-1.61 2.806-.989.874-2.254 1.334-3.795 1.334-1.702 0-3.082-.575-4.094-1.679-1.058-1.15-1.564-2.668-1.564-4.6 0-1.748.483-3.22 1.495-4.393 1.012-1.242 2.369-1.863 4.094-1.863zm.046 1.541c-1.058 0-1.909.345-2.553 1.035-.644.69-1.012 1.61-1.127 2.783h7.429c-.23-2.553-1.495-3.818-3.749-3.818zm13.645-1.541c1.702 0 3.059.621 4.048 1.909.897 1.15 1.357 2.599 1.357 4.393 0 1.748-.46 3.197-1.334 4.347-.966 1.242-2.277 1.886-3.979 1.886s-3.013-.828-3.933-2.484v6.716h-1.84v-16.445h1.725v1.955c.851-1.518 2.162-2.277 3.956-2.277zm-.23 1.518c-1.196 0-2.139.46-2.783 1.403-.598.828-.897 1.932-.897 3.266v.23c0 1.38.322 2.484 1.012 3.335.644.828 1.495 1.265 2.599 1.265 1.288 0 2.254-.46 2.921-1.334.598-.828.897-1.955.897-3.381 0-1.403-.299-2.53-.851-3.358-.667-.966-1.633-1.426-2.898-1.426zm13.07-1.518c1.909 0 3.358.644 4.324 1.932.874 1.15 1.334 2.783 1.38 4.853h-9.384c.092 1.334.437 2.369 1.081 3.105.644.736 1.541 1.104 2.668 1.104.966 0 1.771-.253 2.369-.736.506-.414.897-1.035 1.196-1.863h1.84c-.276 1.15-.805 2.07-1.61 2.806-.989.874-2.254 1.334-3.795 1.334-1.702 0-3.082-.575-4.094-1.679-1.058-1.15-1.564-2.668-1.564-4.6 0-1.748.483-3.22 1.495-4.393 1.012-1.242 2.369-1.863 4.094-1.863zm.046 1.541c-1.058 0-1.909.345-2.553 1.035-.644.69-1.012 1.61-1.127 2.783h7.429c-.23-2.553-1.495-3.818-3.749-3.818zm12.541-1.541c1.449 0 2.599.299 3.473.943.805.598 1.219 1.357 1.219 2.323 0 1.173-.69 2.047-2.024 2.622 1.61.46 2.438 1.426 2.438 2.921 0 1.058-.437 1.955-1.311 2.645-.92.713-2.162 1.081-3.726 1.081-1.472 0-2.668-.345-3.542-1.035-.92-.736-1.426-1.725-1.564-3.013h1.886c.138.92.483 1.587 1.035 2.001.506.414 1.242.621 2.208.621.989 0 1.771-.23 2.346-.69.529-.437.805-1.012.805-1.702 0-.667-.276-1.173-.782-1.541-.506-.345-1.219-.506-2.139-.506h-1.127v-1.38h1.173c.713 0 1.311-.184 1.771-.506.46-.345.713-.805.713-1.357 0-.644-.253-1.15-.759-1.472-.483-.368-1.196-.529-2.116-.529-.943 0-1.679.253-2.231.782-.414.391-.667.897-.805 1.495h-1.863c.138-1.058.598-1.909 1.426-2.576.874-.759 2.024-1.127 3.496-1.127z" fill="#5F6368"/><path d="M258.367 19c-5.09 0-9.367-4.265-9.367-9.5s4.277-9.5 9.367-9.5c2.818 0 4.822 1.133 6.331 2.622l-1.776 1.827c-1.082-1.041-2.55-1.857-4.555-1.857-3.721 0-6.628 3.082-6.628 6.908 0 3.827 2.907 6.908 6.628 6.908 2.411 0 3.781-1 4.664-1.898.724-.745 1.191-1.806 1.369-3.265h-6.033v-2.602h8.494c.089.459.139 1.02.139 1.622 0 1.949-.516 4.357-2.183 6.071-1.627 1.735-3.691 2.663-6.45 2.663z" id="Shape" fill="#4285F4"/><path d="M281 13c0 3.456-2.69 6-6 6s-6-2.544-6-6c0-3.476 2.69-6 6-6s6 2.524 6 6zm-2.629 0c0-2.164-1.563-3.636-3.371-3.636-1.807 0-3.371 1.482-3.371 3.636 0 2.134 1.563 3.636 3.371 3.636 1.807 0 3.371-1.492 3.371-3.636z" id="Shape" fill="#E94235"/><path d="M294 13c0 3.456-2.69 6-6 6-3.299 0-6-2.544-6-6 0-3.476 2.69-6 6-6s6 2.524 6 6zm-2.619 0c0-2.164-1.563-3.636-3.371-3.636-1.807 0-3.371 1.482-3.371 3.636 0 2.134 1.563 3.636 3.371 3.636 1.807.01 3.371-1.492 3.371-3.636z" id="Shape" fill="#FABB05"/><path d="M306 7.362v10.531c0 4.336-2.499 6.107-5.457 6.107-2.786 0-4.452-1.908-5.084-3.465l2.192-.93c.393.959 1.35 2.085 2.891 2.085 1.896 0 3.064-1.204 3.064-3.445v-.842h-.086c-.565.714-1.656 1.331-3.025 1.331-2.872 0-5.495-2.554-5.495-5.843 0-3.308 2.633-5.892 5.495-5.892 1.369 0 2.46.626 3.025 1.311h.086v-.949h2.393zm-2.221 5.539c0-2.065-1.35-3.582-3.064-3.582-1.742 0-3.198 1.507-3.198 3.582 0 2.045 1.455 3.533 3.198 3.533 1.714 0 3.064-1.488 3.064-3.533z" id="Shape" fill="#4285F4"/><path fill="#34A853" d="M312 1v18h-3v-18z"/><path d="M321.844 14.973l2.046 1.362c-.662.982-2.256 2.664-5.014 2.664-3.419 0-5.876-2.634-5.876-6 0-3.566 2.487-6 5.585-6 3.119 0 4.643 2.474 5.144 3.816l.271.681-8.032 3.326c.612 1.202 1.574 1.823 2.918 1.823s2.276-.671 2.958-1.673zm-6.307-2.164l5.375-2.224c-.301-.751-1.183-1.272-2.236-1.272-1.344 0-3.209 1.182-3.139 3.496z" fill="#E94235"/></g></svg>