<?xml version="1.0" encoding="UTF-8"?>
<svg width="277px" height="26px" viewBox="0 0 277 26" version="1.1" xmlns="http://www.w3.org/2000/svg" xmlns:xlink="http://www.w3.org/1999/xlink">
    <!-- Generator: Sketch 52.2 (67145) - http://www.bohemiancoding.com/sketch -->
    <title>SwG-UK-OB</title>
    <desc>Created with Sketch.</desc>
    <g id="SwG-UK-OB" stroke="none" stroke-width="1" fill="none" fill-rule="evenodd">
        <path d="M0.656,20 L0.656,3.532 L12.57,3.532 L12.57,20 L10.454,20 L10.454,5.556 L2.772,5.556 L2.772,20 L0.656,20 Z M20.76375,20.368 C19.0617415,20.368 17.677922,19.8006723 16.61225,18.666 C15.546578,17.5313277 15.01375,16.0976753 15.01375,14.365 C15.01375,12.7243251 15.5312448,11.3136726 16.56625,10.133 C17.6012552,8.95232743 18.923742,8.362 20.53375,8.362 C22.2050917,8.362 23.5429116,8.90632789 24.54725,9.995 C25.5515884,11.0836721 26.05375,12.5403242 26.05375,14.365 L26.03075,14.756 L17.12975,14.756 C17.1910836,15.8906723 17.5705798,16.7876634 18.26825,17.447 C18.9659202,18.1063366 19.782412,18.436 20.71775,18.436 C22.2357576,18.436 23.2630806,17.7920064 23.79975,16.504 L25.68575,17.286 C25.3177482,18.1600044 24.7120875,18.8921637 23.86875,19.4825 C23.0254124,20.0728363 21.9904228,20.368 20.76375,20.368 Z M23.79975,13.008 C23.7537498,12.3639968 23.4585861,11.7506696 22.91425,11.168 C22.3699139,10.5853304 21.5610887,10.294 20.48775,10.294 C19.7057461,10.294 19.0272529,10.5393309 18.45225,11.03 C17.8772471,11.5206691 17.4824177,12.1799959 17.26775,13.008 L23.79975,13.008 Z M33.9945,20.368 C33.135829,20.368 32.3653367,20.1840018 31.683,19.816 C31.0006633,19.4479982 30.490835,18.9880028 30.1535,18.436 L30.0615,18.436 L30.1535,20 L30.1535,24.968 L28.0375,24.968 L28.0375,8.73 L30.0615,8.73 L30.0615,10.294 L30.1535,10.294 C30.490835,9.74199724 31.0006633,9.28200184 31.683,8.914 C32.3653367,8.54599816 33.135829,8.362 33.9945,8.362 C35.4511739,8.362 36.7084947,8.93699425 37.7665,10.087 C38.8245053,11.2370057 39.3535,12.6629915 39.3535,14.365 C39.3535,16.0670085 38.8245053,17.4929942 37.7665,18.643 C36.7084947,19.7930057 35.4511739,20.368 33.9945,20.368 Z M33.6495,18.436 C34.6308382,18.436 35.4741631,18.0641704 36.1795,17.3205 C36.8848369,16.5768296 37.2375,15.5916728 37.2375,14.365 C37.2375,13.1383272 36.8848369,12.1531704 36.1795,11.4095 C35.4741631,10.6658296 34.6308382,10.294 33.6495,10.294 C32.6528284,10.294 31.8056702,10.6619963 31.108,11.398 C30.4103298,12.1340037 30.0615,13.1229938 30.0615,14.365 C30.0615,15.6070062 30.4103298,16.5959963 31.108,17.332 C31.8056702,18.0680037 32.6528284,18.436 33.6495,18.436 Z M46.53525,20.368 C44.8332415,20.368 43.449422,19.8006723 42.38375,18.666 C41.318078,17.5313277 40.78525,16.0976753 40.78525,14.365 C40.78525,12.7243251 41.3027448,11.3136726 42.33775,10.133 C43.3727552,8.95232743 44.6952419,8.362 46.30525,8.362 C47.9765917,8.362 49.3144116,8.90632789 50.31875,9.995 C51.3230884,11.0836721 51.82525,12.5403242 51.82525,14.365 L51.80225,14.756 L42.90125,14.756 C42.9625836,15.8906723 43.3420798,16.7876634 44.03975,17.447 C44.7374202,18.1063366 45.553912,18.436 46.48925,18.436 C48.0072576,18.436 49.0345806,17.7920064 49.57125,16.504 L51.45725,17.286 C51.0892482,18.1600044 50.4835875,18.8921637 49.64025,19.4825 C48.7969125,20.0728363 47.7619228,20.368 46.53525,20.368 Z M49.57125,13.008 C49.5252498,12.3639968 49.2300861,11.7506696 48.68575,11.168 C48.1414139,10.5853304 47.3325887,10.294 46.25925,10.294 C45.4772461,10.294 44.7987529,10.5393309 44.22375,11.03 C43.6487471,11.5206691 43.2539177,12.1799959 43.03925,13.008 L49.57125,13.008 Z M55.281,23.496 L53.257,23.496 L53.257,18.068 L54.614,18.068 C54.951335,17.7766652 55.2311656,17.2131708 55.4535,16.3775 C55.6758344,15.5418292 55.787,14.5643389 55.787,13.445 L55.787,8.73 L65.769,8.73 L65.769,18.068 L67.609,18.068 L67.609,23.496 L65.585,23.496 L65.585,20 L55.281,20 L55.281,23.496 Z M57.903,10.662 L57.903,13.606 C57.903,15.400009 57.5963364,16.8873274 56.983,18.068 L63.653,18.068 L63.653,10.662 L57.903,10.662 Z M69.68475,20 L69.68475,8.73 L79.66675,8.73 L79.66675,20 L77.55075,20 L77.55075,10.662 L71.80075,10.662 L71.80075,20 L69.68475,20 Z M82.7545,20.184 C82.1411636,20.184 81.6045023,20.0843343 81.1445,19.885 L81.8805,18.068 C82.141168,18.1906673 82.4324984,18.252 82.7545,18.252 C83.7051714,18.252 84.1805,17.6386728 84.1805,16.412 L84.1805,8.73 L94.1625,8.73 L94.1625,20 L92.0465,20 L92.0465,10.662 L86.2965,10.662 L86.2965,16.573 C86.2965,17.7076723 85.9745032,18.5931635 85.3305,19.2295 C84.6864968,19.8658365 83.8278387,20.184 82.7545,20.184 Z M100.33225,20.368 C99.136244,20.368 98.135754,20.0230035 97.33075,19.333 C96.525746,18.6429965 96.12325,17.7306723 96.12325,16.596 C96.12325,15.3693272 96.5985786,14.4071702 97.54925,13.7095 C98.4999214,13.0118298 99.6729097,12.663 101.06825,12.663 C102.310256,12.663 103.329913,12.8929977 104.12725,13.353 L104.12725,13.031 C104.12725,12.2029959 103.843586,11.5398358 103.27625,11.0415 C102.708914,10.5431642 102.011254,10.294 101.18325,10.294 C100.569914,10.294 100.014086,10.4396652 99.51575,10.731 C99.0174142,11.0223348 98.6762509,11.4209975 98.49225,11.927 L96.56025,11.099 C96.820918,10.42433 97.3345795,9.79950287 98.10125,9.2245 C98.8679205,8.64949712 99.8799104,8.362 101.13725,8.362 C102.578591,8.362 103.774579,8.78366245 104.72525,9.627 C105.675921,10.4703375 106.15125,11.658659 106.15125,13.192 L106.15125,20 L104.12725,20 L104.12725,18.436 L104.03525,18.436 C103.191912,19.7240064 101.957591,20.368 100.33225,20.368 Z M100.67725,18.436 C101.551254,18.436 102.344746,18.1101699 103.05775,17.4585 C103.770754,16.8068301 104.12725,16.0363378 104.12725,15.147 C103.529247,14.6563309 102.632256,14.411 101.43625,14.411 C100.408912,14.411 99.6345859,14.6333311 99.11325,15.078 C98.5919141,15.5226689 98.33125,16.043997 98.33125,16.642 C98.33125,17.1940028 98.5689143,17.6309984 99.04425,17.953 C99.5195857,18.2750016 100.063914,18.436 100.67725,18.436 Z M107.951,10.662 L107.951,8.73 L116.691,8.73 L116.691,10.662 L113.379,10.662 L113.379,20 L111.263,20 L111.263,10.662 L107.951,10.662 Z M122.23975,20.368 C121.043744,20.368 120.043254,20.0230035 119.23825,19.333 C118.433246,18.6429965 118.03075,17.7306723 118.03075,16.596 C118.03075,15.3693272 118.506079,14.4071702 119.45675,13.7095 C120.407421,13.0118298 121.58041,12.663 122.97575,12.663 C124.217756,12.663 125.237413,12.8929977 126.03475,13.353 L126.03475,13.031 C126.03475,12.2029959 125.751086,11.5398358 125.18375,11.0415 C124.616414,10.5431642 123.918754,10.294 123.09075,10.294 C122.477414,10.294 121.921586,10.4396652 121.42325,10.731 C120.924914,11.0223348 120.583751,11.4209975 120.39975,11.927 L118.46775,11.099 C118.728418,10.42433 119.24208,9.79950287 120.00875,9.2245 C120.775421,8.64949712 121.78741,8.362 123.04475,8.362 C124.486091,8.362 125.682079,8.78366245 126.63275,9.627 C127.583421,10.4703375 128.05875,11.658659 128.05875,13.192 L128.05875,20 L126.03475,20 L126.03475,18.436 L125.94275,18.436 C125.099412,19.7240064 123.865091,20.368 122.23975,20.368 Z M122.58475,18.436 C123.458754,18.436 124.252246,18.1101699 124.96525,17.4585 C125.678254,16.8068301 126.03475,16.0363378 126.03475,15.147 C125.436747,14.6563309 124.539756,14.411 123.34375,14.411 C122.316412,14.411 121.542086,14.6333311 121.02075,15.078 C120.499414,15.5226689 120.23875,16.043997 120.23875,16.642 C120.23875,17.1940028 120.476414,17.6309984 120.95175,17.953 C121.427086,18.2750016 121.971414,18.436 122.58475,18.436 Z M139.96125,14.25 C141.172589,14.25 142.054247,13.9740028 142.60625,13.422 L142.60625,8.73 L144.72225,8.73 L144.72225,20 L142.60625,20 L142.60625,16.182 L142.65225,15.262 L142.60625,15.262 C141.778246,15.8753364 140.758589,16.182 139.54725,16.182 C138.274577,16.182 137.239587,15.7871706 136.44225,14.9975 C135.644913,14.2078294 135.24625,13.2073394 135.24625,11.996 L135.24625,8.73 L137.40825,8.73 L137.40825,11.996 C137.40825,12.6860035 137.638248,13.2341646 138.09825,13.6405 C138.558252,14.0468354 139.179246,14.25 139.96125,14.25 Z M152.433,20.368 C150.730991,20.368 149.347172,19.8006723 148.2815,18.666 C147.215828,17.5313277 146.683,16.0976753 146.683,14.365 C146.683,12.7243251 147.200495,11.3136726 148.2355,10.133 C149.270505,8.95232743 150.592992,8.362 152.203,8.362 C153.874342,8.362 155.212162,8.90632789 156.2165,9.995 C157.220838,11.0836721 157.723,12.5403242 157.723,14.365 L157.7,14.756 L148.799,14.756 C148.860334,15.8906723 149.23983,16.7876634 149.9375,17.447 C150.63517,18.1063366 151.451662,18.436 152.387,18.436 C153.905008,18.436 154.932331,17.7920064 155.469,16.504 L157.355,17.286 C156.986998,18.1600044 156.381338,18.8921637 155.538,19.4825 C154.694662,20.0728363 153.659673,20.368 152.433,20.368 Z M155.469,13.008 C155.423,12.3639968 155.127836,11.7506696 154.5835,11.168 C154.039164,10.5853304 153.230339,10.294 152.157,10.294 C151.374996,10.294 150.696503,10.5393309 150.1215,11.03 C149.546497,11.5206691 149.151668,12.1799959 148.937,13.008 L155.469,13.008 Z M165.66375,20.368 C164.805079,20.368 164.034587,20.1840018 163.35225,19.816 C162.669913,19.4479982 162.160085,18.9880028 161.82275,18.436 L161.73075,18.436 L161.82275,20 L161.82275,24.968 L159.70675,24.968 L159.70675,8.73 L161.73075,8.73 L161.73075,10.294 L161.82275,10.294 C162.160085,9.74199724 162.669913,9.28200184 163.35225,8.914 C164.034587,8.54599816 164.805079,8.362 165.66375,8.362 C167.120424,8.362 168.377745,8.93699425 169.43575,10.087 C170.493755,11.2370057 171.02275,12.6629915 171.02275,14.365 C171.02275,16.0670085 170.493755,17.4929942 169.43575,18.643 C168.377745,19.7930057 167.120424,20.368 165.66375,20.368 Z M165.31875,18.436 C166.300088,18.436 167.143413,18.0641704 167.84875,17.3205 C168.554087,16.5768296 168.90675,15.5916728 168.90675,14.365 C168.90675,13.1383272 168.554087,12.1531704 167.84875,11.4095 C167.143413,10.6658296 166.300088,10.294 165.31875,10.294 C164.322078,10.294 163.47492,10.6619963 162.77725,11.398 C162.07958,12.1340037 161.73075,13.1229938 161.73075,14.365 C161.73075,15.6070062 162.07958,16.5959963 162.77725,17.332 C163.47492,18.0680037 164.322078,18.436 165.31875,18.436 Z M178.2045,20.368 C176.502491,20.368 175.118672,19.8006723 174.053,18.666 C172.987328,17.5313277 172.4545,16.0976753 172.4545,14.365 C172.4545,12.7243251 172.971995,11.3136726 174.007,10.133 C175.042005,8.95232743 176.364492,8.362 177.9745,8.362 C179.645842,8.362 180.983662,8.90632789 181.988,9.995 C182.992338,11.0836721 183.4945,12.5403242 183.4945,14.365 L183.4715,14.756 L174.5705,14.756 C174.631834,15.8906723 175.01133,16.7876634 175.709,17.447 C176.40667,18.1063366 177.223162,18.436 178.1585,18.436 C179.676508,18.436 180.703831,17.7920064 181.2405,16.504 L183.1265,17.286 C182.758498,18.1600044 182.152838,18.8921637 181.3095,19.4825 C180.466162,20.0728363 179.431173,20.368 178.2045,20.368 Z M181.2405,13.008 C181.1945,12.3639968 180.899336,11.7506696 180.355,11.168 C179.810664,10.5853304 179.001839,10.294 177.9285,10.294 C177.146496,10.294 176.468003,10.5393309 175.893,11.03 C175.317997,11.5206691 174.923168,12.1799959 174.7085,13.008 L181.2405,13.008 Z M192.76925,14.089 L192.74625,14.089 C194.064923,14.6410028 194.72425,15.4843277 194.72425,16.619 C194.72425,17.6616719 194.271921,18.4858303 193.36725,19.0915 C192.462579,19.6971697 191.281924,20 189.82525,20 C188.951246,20 188.077254,19.831335 187.20325,19.494 C186.329246,19.156665 185.585586,18.6813364 184.97225,18.068 L186.37525,16.711 C187.325921,17.6156712 188.47591,18.068 189.82525,18.068 C190.668588,18.068 191.335581,17.9223348 191.82625,17.631 C192.316919,17.3396652 192.56225,16.9640023 192.56225,16.504 C192.56225,16.0593311 192.393585,15.6875015 192.05625,15.3885 C191.718915,15.0894985 191.243586,14.94 190.63025,14.94 L188.23825,14.94 L188.23825,13.238 L190.56125,13.238 C191.021252,13.238 191.408415,13.1038347 191.72275,12.8355 C192.037085,12.5671653 192.19425,12.2106689 192.19425,11.766 C192.19425,11.3213311 191.991085,10.9648347 191.58475,10.6965 C191.178415,10.4281653 190.622587,10.294 189.91725,10.294 C188.675244,10.294 187.617254,10.7003293 186.74325,11.513 L185.38625,10.202 C186.612923,8.9753272 188.123241,8.362 189.91725,8.362 C191.097923,8.362 192.125246,8.6686636 192.99925,9.282 C193.873254,9.8953364 194.31025,10.6849952 194.31025,11.651 C194.31025,12.8163392 193.796588,13.6289977 192.76925,14.089 Z" id="Передплата-через" fill="#FFFFFF"></path>
        <g id="Group" transform="translate(202.000000, 1.000000)" fill="#FFFFFF" fill-rule="nonzero">
            <path d="M9.36714443,19 C4.27673649,19 0,14.7346939 0,9.5 C0,4.26530612 4.27673649,0 9.36714443,0 C12.185226,0 14.1896362,1.13265306 15.6979052,2.62244898 L13.92172,4.44897959 C12.8401323,3.40816327 11.3715546,2.59183673 9.36714443,2.59183673 C5.646086,2.59183673 2.73869901,5.67346939 2.73869901,9.5 C2.73869901,13.3265306 5.646086,16.4081633 9.36714443,16.4081633 C11.7783903,16.4081633 13.1477398,15.4081633 14.030871,14.5102041 C14.755237,13.7653061 15.2216097,12.7040816 15.4002205,11.244898 L9.36714443,11.244898 L9.36714443,8.64285714 L17.8610805,8.64285714 C17.9503859,9.10204082 18,9.66326531 18,10.2653061 C18,12.2142857 17.4840132,14.622449 15.8169791,16.3367347 C14.1896362,18.0714286 12.1256891,19 9.36714443,19 Z" id="Shape"></path>
            <path d="M32,13 C32,16.4557596 29.3096447,19 26,19 C22.6903553,19 20,16.4557596 20,13 C20,9.52420701 22.6903553,7 26,7 C29.3096447,7 32,9.52420701 32,13 Z M29.3705584,13 C29.3705584,10.836394 27.8071066,9.3639399 26,9.3639399 C24.1928934,9.3639399 22.6294416,10.8464107 22.6294416,13 C22.6294416,15.1335559 24.1928934,16.6360601 26,16.6360601 C27.8071066,16.6360601 29.3705584,15.1435726 29.3705584,13 Z" id="Shape"></path>
            <path d="M45,13 C45,16.4557596 42.3096447,19 39,19 C35.7005076,19 33,16.4557596 33,13 C33,9.52420701 35.6903553,7 39,7 C42.3096447,7 45,9.52420701 45,13 Z M42.3807107,13 C42.3807107,10.836394 40.8172589,9.3639399 39.0101523,9.3639399 C37.2030457,9.3639399 35.6395939,10.8464107 35.6395939,13 C35.6395939,15.1335559 37.2030457,16.6360601 39.0101523,16.6360601 C40.8172589,16.6460768 42.3807107,15.1435726 42.3807107,13 Z" id="Shape"></path>
            <path d="M57,7.3621186 L57,17.8929188 C57,22.228555 54.5013055,24 51.5430809,24 C48.7571802,24 47.0913838,22.0915371 46.45953,20.5354059 L48.6518712,19.6056419 C49.0443864,20.5647668 50.0017406,21.6902706 51.5430809,21.6902706 C53.4386423,21.6902706 54.6066144,20.4864709 54.6066144,18.2452504 L54.6066144,17.4035694 L54.5204526,17.4035694 C53.9556136,18.1180196 52.8642298,18.7345999 51.4952132,18.7345999 C48.6231506,18.7345999 46,16.1801957 46,12.8917674 C46,9.58376511 48.6327241,7 51.4952132,7 C52.8642298,7 53.9556136,7.6263673 54.5204526,8.31145653 L54.6066144,8.31145653 L54.6066144,7.3621186 L57,7.3621186 Z M54.7789382,12.9015544 C54.7789382,10.8364997 53.4290688,9.31951641 51.7154047,9.31951641 C49.97302,9.31951641 48.5178416,10.8267127 48.5178416,12.9015544 C48.5178416,14.9470351 49.97302,16.4346575 51.7154047,16.4346575 C53.4290688,16.4346575 54.7789382,14.9470351 54.7789382,12.9015544 Z" id="Shape"></path>
            <polygon id="Shape" points="63 1 63 19 60 19 60 1"></polygon>
            <path d="M72.8441203,14.9732888 L74.8896992,16.3355593 C74.2278943,17.3171953 72.633546,19 69.8760255,19 C66.4567001,19 64,16.3656093 64,13 C64,9.43405676 66.4867821,7 69.5852325,7 C72.7037375,7 74.2278943,9.47412354 74.7292616,10.8163606 L75,11.4974958 L66.9680948,14.8230384 C67.579763,16.0250417 68.5423883,16.6460768 69.8860529,16.6460768 C71.2297174,16.6460768 72.1622607,15.9749583 72.8441203,14.9732888 Z M66.5369189,12.8096828 L71.911577,10.5859766 C71.6107566,9.83472454 70.72835,9.31385643 69.6754786,9.31385643 C68.331814,9.31385643 66.4667274,10.4958264 66.5369189,12.8096828 Z" id="Shape"></path>
        </g>
    </g>
</svg>
