<?xml version="1.0" encoding="UTF-8"?>
<svg width="324px" height="24px" viewBox="0 0 324 24" version="1.1" xmlns="http://www.w3.org/2000/svg" xmlns:xlink="http://www.w3.org/1999/xlink">
    <!-- Generator: Sketch 51.3 (57544) - http://www.bohemiancoding.com/sketch -->
    <title>SwG-UK-WOB</title>
    <desc>Created with Sketch.</desc>
    <defs></defs>
    <g id="SwG-UK-WOB" stroke="none" stroke-width="1" fill="none" fill-rule="evenodd">
        <path d="M1.71528113,7.109 L7.67228113,7.109 C8.77628113,7.109 9.62728113,7.316 10.2482811,7.753 C10.9382811,8.236 11.3062811,8.995 11.3062811,10.03 C11.3062811,11.364 10.5932811,12.284 9.19028113,12.744 C10.8922811,13.25 11.7432811,14.216 11.7432811,15.596 C11.7432811,16.7 11.3982811,17.528 10.7082811,18.103 C9.97228113,18.701 8.91428113,19 7.48828113,19 L1.71528113,19 L1.71528113,7.109 Z M3.55528113,8.581 L3.55528113,12.146 L7.07428113,12.146 C7.85628113,12.146 8.45428113,11.985 8.91428113,11.709 C9.39728113,11.387 9.65028113,10.927 9.65028113,10.329 C9.65028113,9.156 8.84528113,8.581 7.28128113,8.581 L3.55528113,8.581 Z M3.55528113,13.572 L3.55528113,17.528 L7.32728113,17.528 C8.38528113,17.528 9.12128113,17.321 9.55828113,16.93 C9.90328113,16.608 10.0872811,16.125 10.0872811,15.504 C10.0872811,14.216 9.07528113,13.572 7.09728113,13.572 L3.55528113,13.572 Z M14.2790311,7.109 L16.1190311,7.109 L16.1190311,16.355 L22.5130311,7.109 L24.4910311,7.109 L24.4910311,19 L22.6510311,19 L22.6510311,9.754 L16.2570311,19 L14.2790311,19 L14.2790311,7.109 Z M35.2895312,7.109 L45.3865312,7.109 L45.3865312,19 L43.5465312,19 L43.5465312,8.65 L37.1295312,8.65 L37.1295312,19 L35.2895312,19 L35.2895312,7.109 Z M49.1686835,19 L49.1686835,6.80371094 L51.3810859,6.80371094 L51.3810859,19 L49.1686835,19 Z M49.1686835,4.59130859 L49.1686835,2.37890625 L51.3810859,2.37890625 L51.3810859,4.59130859 L49.1686835,4.59130859 Z M64.6504687,7.109 L64.6504687,17.459 L66.2144687,17.459 L66.2144687,22.22 L64.3744687,22.22 L64.3744687,19 L56.0944687,19 L56.0944687,22.22 L54.2544687,22.22 L54.2544687,17.459 L55.6344687,17.459 L57.4744687,7.109 L64.6504687,7.109 Z M59.0844687,8.65 L57.5204687,17.459 L62.8104687,17.459 L62.8104687,8.65 L59.0844687,8.65 Z M68.2902187,7.109 L78.3872187,7.109 L78.3872187,19 L76.5472187,19 L76.5472187,8.65 L70.1302187,8.65 L70.1302187,19 L68.2902187,19 L68.2902187,7.109 Z M81.3829687,7.109 L83.2229687,7.109 L83.2229687,16.355 L89.6169687,7.109 L91.5949687,7.109 L91.5949687,19 L89.7549687,19 L89.7549687,9.754 L83.3609687,19 L81.3829687,19 L81.3829687,7.109 Z M99.7197187,6.787 C101.191719,6.787 102.364719,7.132 103.261719,7.822 C104.181719,8.535 104.733719,9.616 104.940719,11.065 L103.123719,11.065 C102.962719,10.145 102.594719,9.455 102.019719,8.995 C101.421719,8.535 100.662719,8.328 99.7197187,8.328 C98.5697187,8.328 97.6497187,8.765 96.9827187,9.639 C96.3387187,10.49 96.0167187,11.64 96.0167187,13.089 C96.0167187,14.538 96.3157187,15.688 96.9597187,16.516 C97.5807187,17.344 98.5007187,17.781 99.6967187,17.781 C101.720719,17.781 102.893719,16.746 103.169719,14.699 L105.009719,14.699 C104.733719,16.217 104.158719,17.39 103.238719,18.172 C102.341719,18.931 101.168719,19.322 99.6967187,19.322 C97.9027187,19.322 96.5227187,18.724 95.5337187,17.528 C94.5907187,16.401 94.1307187,14.929 94.1307187,13.112 C94.1307187,11.295 94.5907187,9.823 95.5337187,8.673 C96.5457187,7.408 97.9487187,6.787 99.7197187,6.787 Z M112.490469,6.787 C114.192469,6.787 115.434469,7.224 116.262469,8.121 C116.952469,8.903 117.320469,9.984 117.320469,11.364 L117.320469,19 L115.595469,19 L115.595469,16.999 C115.135469,17.643 114.514469,18.195 113.755469,18.609 C112.881469,19.069 111.892469,19.322 110.811469,19.322 C109.615469,19.322 108.672469,19.023 107.959469,18.425 C107.223469,17.804 106.855469,16.999 106.855469,16.033 C106.855469,14.676 107.384469,13.664 108.488469,12.974 C109.454469,12.33 110.834469,11.985 112.628469,11.962 L115.480469,11.916 L115.480469,11.295 C115.480469,9.294 114.445469,8.305 112.375469,8.305 C111.501469,8.305 110.788469,8.466 110.236469,8.834 C109.615469,9.202 109.224469,9.777 109.040469,10.536 L107.223469,10.398 C107.476469,9.156 108.097469,8.213 109.063469,7.615 C109.937469,7.063 111.064469,6.787 112.490469,6.787 Z M115.480469,13.296 L112.743469,13.342 C110.075469,13.388 108.741469,14.262 108.741469,15.987 C108.741469,16.539 108.948469,16.976 109.408469,17.344 C109.868469,17.689 110.466469,17.873 111.202469,17.873 C112.329469,17.873 113.318469,17.505 114.192469,16.769 C115.043469,16.056 115.480469,15.228 115.480469,14.308 L115.480469,13.296 Z M123.467219,7.109 L130.919219,7.109 L130.919219,19 L129.102219,19 L129.102219,8.65 L125.077219,8.65 L123.858219,15.642 C123.628219,16.93 123.191219,17.827 122.524219,18.379 C121.972219,18.793 121.259219,19 120.339219,19 L119.396219,19 L119.396219,17.459 L120.086219,17.459 C120.592219,17.459 121.006219,17.321 121.305219,17.068 C121.673219,16.746 121.926219,16.171 122.064219,15.343 L123.467219,7.109 Z M133.914969,7.109 L135.754969,7.109 L135.754969,16.355 L142.148969,7.109 L144.126969,7.109 L144.126969,19 L142.286969,19 L142.286969,9.754 L135.892969,19 L133.914969,19 L133.914969,7.109 Z M152.251719,6.787 C153.723719,6.787 154.896719,7.132 155.793719,7.822 C156.713719,8.535 157.265719,9.616 157.472719,11.065 L155.655719,11.065 C155.494719,10.145 155.126719,9.455 154.551719,8.995 C153.953719,8.535 153.194719,8.328 152.251719,8.328 C151.101719,8.328 150.181719,8.765 149.514719,9.639 C148.870719,10.49 148.548719,11.64 148.548719,13.089 C148.548719,14.538 148.847719,15.688 149.491719,16.516 C150.112719,17.344 151.032719,17.781 152.228719,17.781 C154.252719,17.781 155.425719,16.746 155.701719,14.699 L157.541719,14.699 C157.265719,16.217 156.690719,17.39 155.770719,18.172 C154.873719,18.931 153.700719,19.322 152.228719,19.322 C150.434719,19.322 149.054719,18.724 148.065719,17.528 C147.122719,16.401 146.662719,14.929 146.662719,13.112 C146.662719,11.295 147.122719,9.823 148.065719,8.673 C149.077719,7.408 150.480719,6.787 152.251719,6.787 Z M169.300469,7.109 L169.300469,19 L167.460469,19 L167.460469,14.078 L164.309469,14.078 L161.572469,19 L159.387469,19 L162.377469,13.825 C162.009469,13.733 161.687469,13.595 161.411469,13.434 C160.468469,12.882 160.008469,11.939 160.008469,10.628 C160.008469,9.478 160.399469,8.604 161.181469,8.006 C161.940469,7.408 163.067469,7.109 164.539469,7.109 L169.300469,7.109 Z M164.723469,8.65 C162.814469,8.65 161.871469,9.271 161.871469,10.559 C161.871469,11.226 162.055469,11.732 162.469469,12.054 C162.883469,12.376 163.573469,12.56 164.539469,12.56 L167.460469,12.56 L167.460469,8.65 L164.723469,8.65 Z M180.098969,7.109 L181.938969,7.109 L181.938969,10.743 C181.938969,11.732 182.099969,12.445 182.444969,12.882 C182.766969,13.296 183.364969,13.503 184.238969,13.503 C185.043969,13.503 185.848969,13.227 186.630969,12.698 C186.998969,12.445 187.320969,12.169 187.642969,11.893 L187.642969,7.109 L189.482969,7.109 L189.482969,19 L187.642969,19 L187.642969,13.503 C187.458969,13.641 187.274969,13.802 187.090969,13.94 C186.032969,14.676 184.951969,15.044 183.847969,15.044 C182.605969,15.044 181.662969,14.699 181.041969,14.055 C180.397969,13.411 180.098969,12.399 180.098969,11.065 L180.098969,7.109 Z M197.377719,6.787 C199.286719,6.787 200.735719,7.431 201.701719,8.719 C202.575719,9.869 203.035719,11.502 203.081719,13.572 L193.697719,13.572 C193.789719,14.906 194.134719,15.941 194.778719,16.677 C195.422719,17.413 196.319719,17.781 197.446719,17.781 C198.412719,17.781 199.217719,17.528 199.815719,17.045 C200.321719,16.631 200.712719,16.01 201.011719,15.182 L202.851719,15.182 C202.575719,16.332 202.046719,17.252 201.241719,17.988 C200.252719,18.862 198.987719,19.322 197.446719,19.322 C195.744719,19.322 194.364719,18.747 193.352719,17.643 C192.294719,16.493 191.788719,14.975 191.788719,13.043 C191.788719,11.295 192.271719,9.823 193.283719,8.65 C194.295719,7.408 195.652719,6.787 197.377719,6.787 Z M197.423719,8.328 C196.365719,8.328 195.514719,8.673 194.870719,9.363 C194.226719,10.053 193.858719,10.973 193.743719,12.146 L201.172719,12.146 C200.942719,9.593 199.677719,8.328 197.423719,8.328 Z M211.068469,6.787 C212.770469,6.787 214.127469,7.408 215.116469,8.696 C216.013469,9.846 216.473469,11.295 216.473469,13.089 C216.473469,14.837 216.013469,16.286 215.139469,17.436 C214.173469,18.678 212.862469,19.322 211.160469,19.322 C209.458469,19.322 208.147469,18.494 207.227469,16.838 L207.227469,23.554 L205.387469,23.554 L205.387469,7.109 L207.112469,7.109 L207.112469,9.064 C207.963469,7.546 209.274469,6.787 211.068469,6.787 Z M210.838469,8.305 C209.642469,8.305 208.699469,8.765 208.055469,9.708 C207.457469,10.536 207.158469,11.64 207.158469,12.974 L207.158469,13.204 C207.158469,14.584 207.480469,15.688 208.170469,16.539 C208.814469,17.367 209.665469,17.804 210.769469,17.804 C212.057469,17.804 213.023469,17.344 213.690469,16.47 C214.288469,15.642 214.587469,14.515 214.587469,13.089 C214.587469,11.686 214.288469,10.559 213.736469,9.731 C213.069469,8.765 212.103469,8.305 210.838469,8.305 Z M223.908219,6.787 C225.817219,6.787 227.266219,7.431 228.232219,8.719 C229.106219,9.869 229.566219,11.502 229.612219,13.572 L220.228219,13.572 C220.320219,14.906 220.665219,15.941 221.309219,16.677 C221.953219,17.413 222.850219,17.781 223.977219,17.781 C224.943219,17.781 225.748219,17.528 226.346219,17.045 C226.852219,16.631 227.243219,16.01 227.542219,15.182 L229.382219,15.182 C229.106219,16.332 228.577219,17.252 227.772219,17.988 C226.783219,18.862 225.518219,19.322 223.977219,19.322 C222.275219,19.322 220.895219,18.747 219.883219,17.643 C218.825219,16.493 218.319219,14.975 218.319219,13.043 C218.319219,11.295 218.802219,9.823 219.814219,8.65 C220.826219,7.408 222.183219,6.787 223.908219,6.787 Z M223.954219,8.328 C222.896219,8.328 222.045219,8.673 221.401219,9.363 C220.757219,10.053 220.389219,10.973 220.274219,12.146 L227.703219,12.146 C227.473219,9.593 226.208219,8.328 223.954219,8.328 Z M236.494969,6.787 C237.943969,6.787 239.093969,7.086 239.967969,7.73 C240.772969,8.328 241.186969,9.087 241.186969,10.053 C241.186969,11.226 240.496969,12.1 239.162969,12.675 C240.772969,13.135 241.600969,14.101 241.600969,15.596 C241.600969,16.654 241.163969,17.551 240.289969,18.241 C239.369969,18.954 238.127969,19.322 236.563969,19.322 C235.091969,19.322 233.895969,18.977 233.021969,18.287 C232.101969,17.551 231.595969,16.562 231.457969,15.274 L233.343969,15.274 C233.481969,16.194 233.826969,16.861 234.378969,17.275 C234.884969,17.689 235.620969,17.896 236.586969,17.896 C237.575969,17.896 238.357969,17.666 238.932969,17.206 C239.461969,16.769 239.737969,16.194 239.737969,15.504 C239.737969,14.837 239.461969,14.331 238.955969,13.963 C238.449969,13.618 237.736969,13.457 236.816969,13.457 L235.689969,13.457 L235.689969,12.077 L236.862969,12.077 C237.575969,12.077 238.173969,11.893 238.633969,11.571 C239.093969,11.226 239.346969,10.766 239.346969,10.214 C239.346969,9.57 239.093969,9.064 238.587969,8.742 C238.104969,8.374 237.391969,8.213 236.471969,8.213 C235.528969,8.213 234.792969,8.466 234.240969,8.995 C233.826969,9.386 233.573969,9.892 233.435969,10.49 L231.572969,10.49 C231.710969,9.432 232.170969,8.581 232.998969,7.914 C233.872969,7.155 235.022969,6.787 236.494969,6.787 Z" id="ви-підписалися-через" fill="#FFFFFF"></path>
        <g id="Group" transform="translate(249.000000, 0.000000)" fill="#FFFFFF" fill-rule="nonzero">
            <path d="M9.36714443,19 C4.27673649,19 0,14.7346939 0,9.5 C0,4.26530612 4.27673649,0 9.36714443,0 C12.185226,0 14.1896362,1.13265306 15.6979052,2.62244898 L13.92172,4.44897959 C12.8401323,3.40816327 11.3715546,2.59183673 9.36714443,2.59183673 C5.646086,2.59183673 2.73869901,5.67346939 2.73869901,9.5 C2.73869901,13.3265306 5.646086,16.4081633 9.36714443,16.4081633 C11.7783903,16.4081633 13.1477398,15.4081633 14.030871,14.5102041 C14.755237,13.7653061 15.2216097,12.7040816 15.4002205,11.244898 L9.36714443,11.244898 L9.36714443,8.64285714 L17.8610805,8.64285714 C17.9503859,9.10204082 18,9.66326531 18,10.2653061 C18,12.2142857 17.4840132,14.622449 15.8169791,16.3367347 C14.1896362,18.0714286 12.1256891,19 9.36714443,19 Z" id="Shape"></path>
            <path d="M32,13 C32,16.4557596 29.3096447,19 26,19 C22.6903553,19 20,16.4557596 20,13 C20,9.52420701 22.6903553,7 26,7 C29.3096447,7 32,9.52420701 32,13 Z M29.3705584,13 C29.3705584,10.836394 27.8071066,9.3639399 26,9.3639399 C24.1928934,9.3639399 22.6294416,10.8464107 22.6294416,13 C22.6294416,15.1335559 24.1928934,16.6360601 26,16.6360601 C27.8071066,16.6360601 29.3705584,15.1435726 29.3705584,13 Z" id="Shape"></path>
            <path d="M45,13 C45,16.4557596 42.3096447,19 39,19 C35.7005076,19 33,16.4557596 33,13 C33,9.52420701 35.6903553,7 39,7 C42.3096447,7 45,9.52420701 45,13 Z M42.3807107,13 C42.3807107,10.836394 40.8172589,9.3639399 39.0101523,9.3639399 C37.2030457,9.3639399 35.6395939,10.8464107 35.6395939,13 C35.6395939,15.1335559 37.2030457,16.6360601 39.0101523,16.6360601 C40.8172589,16.6460768 42.3807107,15.1435726 42.3807107,13 Z" id="Shape"></path>
            <path d="M57,7.3621186 L57,17.8929188 C57,22.228555 54.5013055,24 51.5430809,24 C48.7571802,24 47.0913838,22.0915371 46.45953,20.5354059 L48.6518712,19.6056419 C49.0443864,20.5647668 50.0017406,21.6902706 51.5430809,21.6902706 C53.4386423,21.6902706 54.6066144,20.4864709 54.6066144,18.2452504 L54.6066144,17.4035694 L54.5204526,17.4035694 C53.9556136,18.1180196 52.8642298,18.7345999 51.4952132,18.7345999 C48.6231506,18.7345999 46,16.1801957 46,12.8917674 C46,9.58376511 48.6327241,7 51.4952132,7 C52.8642298,7 53.9556136,7.6263673 54.5204526,8.31145653 L54.6066144,8.31145653 L54.6066144,7.3621186 L57,7.3621186 Z M54.7789382,12.9015544 C54.7789382,10.8364997 53.4290688,9.31951641 51.7154047,9.31951641 C49.97302,9.31951641 48.5178416,10.8267127 48.5178416,12.9015544 C48.5178416,14.9470351 49.97302,16.4346575 51.7154047,16.4346575 C53.4290688,16.4346575 54.7789382,14.9470351 54.7789382,12.9015544 Z" id="Shape"></path>
            <polygon id="Shape" points="63 1 63 19 60 19 60 1"></polygon>
            <path d="M72.8441203,14.9732888 L74.8896992,16.3355593 C74.2278943,17.3171953 72.633546,19 69.8760255,19 C66.4567001,19 64,16.3656093 64,13 C64,9.43405676 66.4867821,7 69.5852325,7 C72.7037375,7 74.2278943,9.47412354 74.7292616,10.8163606 L75,11.4974958 L66.9680948,14.8230384 C67.579763,16.0250417 68.5423883,16.6460768 69.8860529,16.6460768 C71.2297174,16.6460768 72.1622607,15.9749583 72.8441203,14.9732888 Z M66.5369189,12.8096828 L71.911577,10.5859766 C71.6107566,9.83472454 70.72835,9.31385643 69.6754786,9.31385643 C68.331814,9.31385643 66.4667274,10.4958264 66.5369189,12.8096828 Z" id="Shape"></path>
        </g>
    </g>
</svg>