<?xml version="1.0" encoding="UTF-8"?>
<svg width="191px" height="24px" viewBox="0 0 191 24" version="1.1" xmlns="http://www.w3.org/2000/svg" xmlns:xlink="http://www.w3.org/1999/xlink">
    <!-- Generator: Sketch 51.3 (57544) - http://www.bohemiancoding.com/sketch -->
    <title>SwG-ZH-TW-WOB</title>
    <desc>Created with Sketch.</desc>
    <defs></defs>
    <g id="SwG-ZH-TW-WOB" stroke="none" stroke-width="1" fill="none" fill-rule="evenodd">
        <path d="M10.283625,1.704 L22.082625,1.704 L22.082625,3.245 L17.712625,3.245 L17.712625,18.701 C17.712625,20.242 17.022625,21.024 15.665625,21.024 L12.307625,21.024 L11.962625,19.437 C13.043625,19.506 14.078625,19.552 15.090625,19.552 C15.780625,19.552 16.125625,19.138 16.125625,18.31 L16.125625,3.245 L10.283625,3.245 L10.283625,1.704 Z M3.61362497,19.851 L3.61362497,21.369 L2.02662497,21.369 L2.02662497,13.181 L8.94962497,13.181 L8.94962497,20.955 L7.36262497,20.955 L7.36262497,19.851 L3.61362497,19.851 Z M7.36262497,18.333 L7.36262497,14.676 L3.61362497,14.676 L3.61362497,18.333 L7.36262497,18.333 Z M1.38262497,3.222 L5.08562497,3.222 C4.76362497,2.302 4.34962497,1.405 3.86662497,0.577 L5.47662497,0.14 C5.93662497,1.152 6.32762497,2.095 6.60362497,2.923 L5.79862497,3.222 L9.70862497,3.222 L9.70862497,4.763 L1.38262497,4.763 L1.38262497,3.222 Z M2.21062497,6.58 L8.71962497,6.58 L8.71962497,8.052 L2.21062497,8.052 L2.21062497,6.58 Z M2.21062497,9.754 L8.71962497,9.754 L8.71962497,11.249 L2.21062497,11.249 L2.21062497,9.754 Z M26.849375,5.154 L26.849375,6.718 L32.139375,6.718 L32.139375,5.154 L26.849375,5.154 Z M32.139375,3.981 L32.139375,2.417 L26.849375,2.417 L26.849375,3.981 L32.139375,3.981 Z M37.314375,5.154 L37.314375,6.741 L42.696375,6.741 L42.696375,5.154 L37.314375,5.154 Z M42.696375,3.981 L42.696375,2.463 L37.314375,2.463 L37.314375,3.981 L42.696375,3.981 Z M33.795375,1.106 L33.795375,8.052 L26.849375,8.052 L26.849375,21.3 L25.193375,21.3 L25.193375,1.106 L33.795375,1.106 Z M42.696375,8.052 L35.658375,8.052 L35.658375,1.129 L44.352375,1.129 L44.352375,19.368 C44.352375,20.587 43.754375,21.208 42.558375,21.208 C41.799375,21.208 41.040375,21.185 40.304375,21.139 L40.097375,20.334 C39.821375,20.426 39.499375,20.495 39.131375,20.495 L37.176375,20.495 C36.118375,20.495 35.589375,19.943 35.589375,18.885 L35.589375,16.217 L33.565375,16.217 C33.243375,18.333 31.748375,19.897 29.057375,20.886 L28.229375,19.552 C30.483375,18.862 31.771375,17.735 32.047375,16.217 L30.391375,16.217 L30.391375,12.583 C29.908375,13.02 29.402375,13.411 28.896375,13.733 L27.746375,12.744 C29.494375,11.686 30.805375,10.283 31.679375,8.512 L32.990375,9.041 C32.576375,9.823 32.139375,10.559 31.633375,11.203 L37.682375,11.203 C37.130375,10.513 36.716375,9.8 36.394375,9.041 L37.659375,8.328 C38.349375,10.03 39.614375,11.387 41.454375,12.399 L40.465375,13.572 C39.867375,13.204 39.338375,12.836 38.878375,12.422 L38.878375,16.217 L37.130375,16.217 L37.130375,18.563 C37.130375,18.931 37.291375,19.138 37.613375,19.138 L38.855375,19.138 C39.131375,19.138 39.338375,19.046 39.476375,18.885 C39.660375,18.655 39.775375,18.057 39.821375,17.068 L41.201375,17.505 C41.109375,18.563 40.948375,19.299 40.764375,19.713 C41.178375,19.736 41.592375,19.759 41.960375,19.759 C42.443375,19.759 42.696375,19.46 42.696375,18.862 L42.696375,8.052 Z M37.429375,14.883 L37.429375,12.514 L31.863375,12.514 L31.863375,14.883 L37.429375,14.883 Z M47.923125,3.613 L57.836125,3.613 C57.376125,2.601 56.824125,1.612 56.157125,0.692 L57.721125,0.117 C58.365125,1.083 58.963125,2.256 59.515125,3.613 L68.117125,3.613 L68.117125,5.2 L55.996125,5.2 L55.789125,9.294 L55.789125,9.34 L65.334125,9.34 C65.288125,13.894 65.104125,16.815 64.805125,18.103 C64.345125,20.058 63.218125,21.07 61.401125,21.139 C60.665125,21.139 59.768125,21.093 58.756125,21.047 L58.250125,19.552 C59.446125,19.598 60.435125,19.621 61.240125,19.621 C62.413125,19.575 63.126125,18.747 63.402125,17.137 C63.540125,16.171 63.609125,14.078 63.655125,10.904 L55.605125,10.904 C55.306125,12.767 54.731125,14.446 53.903125,15.964 C52.776125,17.942 51.212125,19.736 49.188125,21.369 L47.992125,20.219 C50.430125,18.149 52.063125,16.24 52.868125,14.469 C53.650125,12.698 54.087125,10.72 54.202125,8.535 C54.271125,7.086 54.317125,5.982 54.340125,5.2 L47.923125,5.2 L47.923125,3.613 Z M71.066875,4.326 L82.313875,4.326 C82.244875,3.015 82.221875,1.658 82.221875,0.255 L83.923875,0.255 C83.923875,1.681 83.946875,3.038 84.015875,4.326 L91.122875,4.326 L91.122875,5.936 L84.107875,5.936 C84.383875,9.8 84.981875,12.997 85.878875,15.573 C86.844875,18.103 87.718875,19.391 88.477875,19.391 C88.937875,19.322 89.420875,18.011 89.903875,15.435 L91.398875,16.217 C90.708875,19.529 89.765875,21.208 88.592875,21.231 C86.545875,21.139 84.843875,18.563 83.463875,13.549 C82.934875,11.364 82.589875,8.834 82.405875,5.936 L71.066875,5.936 L71.066875,4.326 Z M71.411875,9.754 L81.163875,9.754 L81.163875,11.318 L77.115875,11.318 L77.115875,17.298 C78.817875,16.976 80.450875,16.585 82.060875,16.171 L82.060875,17.781 C78.748875,18.586 75.160875,19.253 71.342875,19.805 L70.951875,18.241 C72.469875,18.057 73.987875,17.827 75.459875,17.597 L75.459875,11.318 L71.411875,11.318 L71.411875,9.754 Z M87.396875,0.37 C88.155875,1.29 88.868875,2.302 89.558875,3.406 L88.178875,4.096 C87.511875,2.946 86.798875,1.934 86.016875,1.037 L87.396875,0.37 Z M98.465625,4.993 C98.856625,4.993 99.201625,5.131 99.477625,5.43 C99.753625,5.683 99.891625,6.005 99.891625,6.419 C99.891625,6.81 99.753625,7.132 99.477625,7.408 C99.201625,7.684 98.856625,7.822 98.465625,7.822 C98.051625,7.822 97.729625,7.684 97.453625,7.408 C97.177625,7.132 97.062625,6.81 97.062625,6.419 C97.062625,6.005 97.177625,5.683 97.453625,5.43 C97.729625,5.131 98.051625,4.993 98.465625,4.993 Z M98.465625,13.411 C98.856625,13.411 99.201625,13.549 99.477625,13.848 C99.753625,14.101 99.891625,14.423 99.891625,14.837 C99.891625,15.228 99.753625,15.55 99.477625,15.826 C99.201625,16.102 98.856625,16.24 98.465625,16.24 C98.051625,16.24 97.729625,16.102 97.453625,15.826 C97.177625,15.55 97.062625,15.228 97.062625,14.837 C97.062625,14.423 97.177625,14.101 97.453625,13.848 C97.729625,13.549 98.051625,13.411 98.465625,13.411 Z" id="訂閱方式：" fill="#FFFFFF"></path>
        <g id="Group" transform="translate(116.000000, 0.000000)" fill="#FFFFFF" fill-rule="nonzero">
            <path d="M9.36714443,19 C4.27673649,19 0,14.7346939 0,9.5 C0,4.26530612 4.27673649,0 9.36714443,0 C12.185226,0 14.1896362,1.13265306 15.6979052,2.62244898 L13.92172,4.44897959 C12.8401323,3.40816327 11.3715546,2.59183673 9.36714443,2.59183673 C5.646086,2.59183673 2.73869901,5.67346939 2.73869901,9.5 C2.73869901,13.3265306 5.646086,16.4081633 9.36714443,16.4081633 C11.7783903,16.4081633 13.1477398,15.4081633 14.030871,14.5102041 C14.755237,13.7653061 15.2216097,12.7040816 15.4002205,11.244898 L9.36714443,11.244898 L9.36714443,8.64285714 L17.8610805,8.64285714 C17.9503859,9.10204082 18,9.66326531 18,10.2653061 C18,12.2142857 17.4840132,14.622449 15.8169791,16.3367347 C14.1896362,18.0714286 12.1256891,19 9.36714443,19 Z" id="Shape"></path>
            <path d="M32,13 C32,16.4557596 29.3096447,19 26,19 C22.6903553,19 20,16.4557596 20,13 C20,9.52420701 22.6903553,7 26,7 C29.3096447,7 32,9.52420701 32,13 Z M29.3705584,13 C29.3705584,10.836394 27.8071066,9.3639399 26,9.3639399 C24.1928934,9.3639399 22.6294416,10.8464107 22.6294416,13 C22.6294416,15.1335559 24.1928934,16.6360601 26,16.6360601 C27.8071066,16.6360601 29.3705584,15.1435726 29.3705584,13 Z" id="Shape"></path>
            <path d="M45,13 C45,16.4557596 42.3096447,19 39,19 C35.7005076,19 33,16.4557596 33,13 C33,9.52420701 35.6903553,7 39,7 C42.3096447,7 45,9.52420701 45,13 Z M42.3807107,13 C42.3807107,10.836394 40.8172589,9.3639399 39.0101523,9.3639399 C37.2030457,9.3639399 35.6395939,10.8464107 35.6395939,13 C35.6395939,15.1335559 37.2030457,16.6360601 39.0101523,16.6360601 C40.8172589,16.6460768 42.3807107,15.1435726 42.3807107,13 Z" id="Shape"></path>
            <path d="M57,7.3621186 L57,17.8929188 C57,22.228555 54.5013055,24 51.5430809,24 C48.7571802,24 47.0913838,22.0915371 46.45953,20.5354059 L48.6518712,19.6056419 C49.0443864,20.5647668 50.0017406,21.6902706 51.5430809,21.6902706 C53.4386423,21.6902706 54.6066144,20.4864709 54.6066144,18.2452504 L54.6066144,17.4035694 L54.5204526,17.4035694 C53.9556136,18.1180196 52.8642298,18.7345999 51.4952132,18.7345999 C48.6231506,18.7345999 46,16.1801957 46,12.8917674 C46,9.58376511 48.6327241,7 51.4952132,7 C52.8642298,7 53.9556136,7.6263673 54.5204526,8.31145653 L54.6066144,8.31145653 L54.6066144,7.3621186 L57,7.3621186 Z M54.7789382,12.9015544 C54.7789382,10.8364997 53.4290688,9.31951641 51.7154047,9.31951641 C49.97302,9.31951641 48.5178416,10.8267127 48.5178416,12.9015544 C48.5178416,14.9470351 49.97302,16.4346575 51.7154047,16.4346575 C53.4290688,16.4346575 54.7789382,14.9470351 54.7789382,12.9015544 Z" id="Shape"></path>
            <polygon id="Shape" points="63 1 63 19 60 19 60 1"></polygon>
            <path d="M72.8441203,14.9732888 L74.8896992,16.3355593 C74.2278943,17.3171953 72.633546,19 69.8760255,19 C66.4567001,19 64,16.3656093 64,13 C64,9.43405676 66.4867821,7 69.5852325,7 C72.7037375,7 74.2278943,9.47412354 74.7292616,10.8163606 L75,11.4974958 L66.9680948,14.8230384 C67.579763,16.0250417 68.5423883,16.6460768 69.8860529,16.6460768 C71.2297174,16.6460768 72.1622607,15.9749583 72.8441203,14.9732888 Z M66.5369189,12.8096828 L71.911577,10.5859766 C71.6107566,9.83472454 70.72835,9.31385643 69.6754786,9.31385643 C68.331814,9.31385643 66.4667274,10.4958264 66.5369189,12.8096828 Z" id="Shape"></path>
        </g>
    </g>
</svg>