<svg width="178" height="24" viewBox="0 0 178 24" xmlns="http://www.w3.org/2000/svg"><title>SwG-zh-tw-Black</title><desc>Created with Sketch.</desc><g fill="none"><path d="M2.898.577c1.587 1.196 2.921 2.392 4.002 3.588l-1.173 1.15c-.966-1.15-2.277-2.369-3.956-3.657l1.127-1.081zm13.455 20.309c-1.265 0-2.645-.023-4.117-.046-1.495-.023-2.714-.161-3.634-.414-.92-.276-1.748-.851-2.461-1.679-.322-.391-.621-.575-.897-.575-.552 0-1.472 1.058-2.737 3.174l-1.242-1.127c1.219-1.932 2.3-3.105 3.243-3.519v-6.992h-3.266v-1.518h4.807v8.602c.184.138.368.299.575.529.552.667 1.15 1.15 1.794 1.449.736.322 1.771.506 3.151.552 1.219.023 2.737.046 4.554.046 1.058 0 2.162-.023 3.289-.046 1.104-.023 1.955-.046 2.553-.092l-.391 1.656h-5.221zm-4.117-18.101c.966.575 1.863 1.15 2.645 1.725 1.196-.621 2.3-1.311 3.312-2.093h-10.212v-1.403h12.443v1.196c-1.38 1.196-2.875 2.231-4.485 3.105l.368.299h4.554v10.281c0 1.173-.644 1.771-1.932 1.771h-1.909l-.368-1.403 1.817.069c.552 0 .828-.276.828-.782v-1.725h-3.864v3.956h-1.541v-3.956h-3.841v4.025h-1.564v-12.236h5.75c-.874-.621-1.886-1.242-3.013-1.84l1.012-.989zm-2.185 7.659v2.024h3.841v-2.024h-3.841zm5.382 0v2.024h3.864v-2.024h-3.864zm3.864-1.38v-2.07h-3.864v2.07h3.864zm-5.405 0v-2.07h-3.841v2.07h3.841zm12.012-8.487c1.518 1.196 2.783 2.392 3.818 3.588l-1.15 1.15c-.92-1.15-2.185-2.369-3.795-3.657l1.127-1.081zm13.501 20.332c-1.288 0-2.691-.023-4.209-.046-1.518-.023-2.783-.161-3.749-.391-.92-.276-1.748-.828-2.484-1.656-.322-.391-.644-.575-.92-.575-.483 0-1.311 1.035-2.461 3.105l-1.242-1.127c1.127-1.863 2.116-3.013 2.967-3.427v-7.084h-3.036v-1.518h4.6v8.671c.184.138.368.299.575.529.575.644 1.196 1.15 1.863 1.472.736.299 1.817.46 3.197.506 1.242.023 2.806.046 4.669.046l3.381-.023c1.104-.023 1.978-.046 2.599-.092l-.391 1.61h-5.359zm3.381-19.941v6.785h1.702v8.533c0 1.196-.69 1.794-2.024 1.794h-2.07l-.368-1.403 1.955.069c.598 0 .92-.276.92-.805v-6.739h-10.304v8.74h-1.61v-10.189h1.633v-6.785h10.166zm-8.602 6.785h2.99v-2.162h-2.99v2.162zm0-3.496h4.416v3.496h2.622v-5.336h-7.038v1.84zm.299 6.417h6.417v4.968h-6.417v-4.968zm5.037 3.68v-2.461h-3.634v2.461h3.634z" fill="#fff"/><path d="M144.143 1.704h11.799v1.541h-4.37v15.456c0 1.541-.69 2.323-2.047 2.323h-3.358l-.345-1.587c1.081.069 2.116.115 3.128.115.69 0 1.035-.414 1.035-1.242v-15.065h-5.842v-1.541zm-6.67 18.147v1.518h-1.587v-8.188h6.923v7.774h-1.587v-1.104h-3.749zm3.749-1.518v-3.657h-3.749v3.657h3.749zm-5.98-15.111h3.703c-.322-.92-.736-1.817-1.219-2.645l1.61-.437c.46 1.012.851 1.955 1.127 2.783l-.805.299h3.91v1.541h-8.326v-1.541zm.828 3.358h6.509v1.472h-6.509v-1.472zm0 3.174h6.509v1.495h-6.509v-1.495zm24.639-4.6v1.564h5.29v-1.564h-5.29zm5.29-1.173v-1.564h-5.29v1.564h5.29zm5.175 1.173v1.587h5.382v-1.587h-5.382zm5.382-1.173v-1.518h-5.382v1.518h5.382zm-8.901-2.875v6.946h-6.946v13.248h-1.656v-20.194h8.602zm8.901 6.946h-7.038v-6.923h8.694v18.239c0 1.219-.598 1.84-1.794 1.84-.759 0-1.518-.023-2.254-.069l-.207-.805c-.276.092-.598.161-.966.161h-1.955c-1.058 0-1.587-.552-1.587-1.61v-2.668h-2.024c-.322 2.116-1.817 3.68-4.508 4.669l-.828-1.334c2.254-.69 3.542-1.817 3.818-3.335h-1.656v-3.634c-.483.437-.989.828-1.495 1.15l-1.15-.989c1.748-1.058 3.059-2.461 3.933-4.232l1.311.529c-.414.782-.851 1.518-1.357 2.162h6.049c-.552-.69-.966-1.403-1.288-2.162l1.265-.713c.69 1.702 1.955 3.059 3.795 4.071l-.989 1.173c-.598-.368-1.127-.736-1.587-1.15v3.795h-1.748v2.346c0 .368.161.575.483.575h1.242c.276 0 .483-.092.621-.253.184-.23.299-.828.345-1.817l1.38.437c-.092 1.058-.253 1.794-.437 2.208.414.023.828.046 1.196.046.483 0 .736-.299.736-.897v-10.81zm-5.267 6.831v-2.369h-5.566v2.369h5.566z" fill="#fff"/><g fill-rule="nonzero"><path d="M62.367 19c-5.09 0-9.367-4.265-9.367-9.5s4.277-9.5 9.367-9.5c2.818 0 4.822 1.133 6.331 2.622l-1.776 1.827c-1.082-1.041-2.55-1.857-4.555-1.857-3.721 0-6.628 3.082-6.628 6.908 0 3.827 2.907 6.908 6.628 6.908 2.411 0 3.781-1 4.664-1.898.724-.745 1.191-1.806 1.369-3.265h-6.033v-2.602h8.494c.089.459.139 1.02.139 1.622 0 1.949-.516 4.357-2.183 6.071-1.627 1.735-3.691 2.663-6.45 2.663z" id="Shape" fill="#4285F4"/><path d="M85 13c0 3.456-2.69 6-6 6s-6-2.544-6-6c0-3.476 2.69-6 6-6s6 2.524 6 6zm-2.629 0c0-2.164-1.563-3.636-3.371-3.636-1.807 0-3.371 1.482-3.371 3.636 0 2.134 1.563 3.636 3.371 3.636 1.807 0 3.371-1.492 3.371-3.636z" id="Shape" fill="#E94235"/><path d="M98 13c0 3.456-2.69 6-6 6-3.299 0-6-2.544-6-6 0-3.476 2.69-6 6-6s6 2.524 6 6zm-2.619 0c0-2.164-1.563-3.636-3.371-3.636-1.807 0-3.371 1.482-3.371 3.636 0 2.134 1.563 3.636 3.371 3.636 1.807.01 3.371-1.492 3.371-3.636z" id="Shape" fill="#FABB05"/><path d="M110 7.362v10.531c0 4.336-2.499 6.107-5.457 6.107-2.786 0-4.452-1.908-5.084-3.465l2.192-.93c.393.959 1.35 2.085 2.891 2.085 1.896 0 3.064-1.204 3.064-3.445v-.842h-.086c-.565.714-1.656 1.331-3.025 1.331-2.872 0-5.495-2.554-5.495-5.843 0-3.308 2.633-5.892 5.495-5.892 1.369 0 2.46.626 3.025 1.311h.086v-.949h2.393zm-2.221 5.539c0-2.065-1.35-3.582-3.064-3.582-1.742 0-3.198 1.507-3.198 3.582 0 2.045 1.455 3.533 3.198 3.533 1.714 0 3.064-1.488 3.064-3.533z" id="Shape" fill="#4285F4"/><path id="Shape" fill="#34A853" d="M116 1v18h-3v-18z"/><path d="M125.844 14.973l2.046 1.362c-.662.982-2.256 2.664-5.014 2.664-3.419 0-5.876-2.634-5.876-6 0-3.566 2.487-6 5.585-6 3.119 0 4.643 2.474 5.144 3.816l.271.681-8.032 3.326c.612 1.202 1.574 1.823 2.918 1.823s2.276-.671 2.958-1.673zm-6.307-2.164l5.375-2.224c-.301-.751-1.183-1.272-2.236-1.272-1.344 0-3.209 1.182-3.139 3.496z" fill="#E94235"/></g></g></svg>
