<svg width="191" height="24" viewBox="0 0 191 24" xmlns="http://www.w3.org/2000/svg"><title>SwG-ZH-TW-OW</title><desc>Created with Sketch.</desc><g fill="none"><path d="M10.284 1.704h11.799v1.541h-4.37v15.456c0 1.541-.69 2.323-2.047 2.323h-3.358l-.345-1.587c1.081.069 2.116.115 3.128.115.69 0 1.035-.414 1.035-1.242v-15.065h-5.842v-1.541zm-6.67 18.147v1.518h-1.587v-8.188h6.923v7.774h-1.587v-1.104h-3.749zm3.749-1.518v-3.657h-3.749v3.657h3.749zm-5.98-15.111h3.703c-.322-.92-.736-1.817-1.219-2.645l1.61-.437c.46 1.012.851 1.955 1.127 2.783l-.805.299h3.91v1.541h-8.326v-1.541zm.828 3.358h6.509v1.472h-6.509v-1.472zm0 3.174h6.509v1.495h-6.509v-1.495zm24.639-4.6v1.564h5.29v-1.564h-5.29zm5.29-1.173v-1.564h-5.29v1.564h5.29zm5.175 1.173v1.587h5.382v-1.587h-5.382zm5.382-1.173v-1.518h-5.382v1.518h5.382zm-8.901-2.875v6.946h-6.946v13.248h-1.656v-20.194h8.602zm8.901 6.946h-7.038v-6.923h8.694v18.239c0 1.219-.598 1.84-1.794 1.84-.759 0-1.518-.023-2.254-.069l-.207-.805c-.276.092-.598.161-.966.161h-1.955c-1.058 0-1.587-.552-1.587-1.61v-2.668h-2.024c-.322 2.116-1.817 3.68-4.508 4.669l-.828-1.334c2.254-.69 3.542-1.817 3.818-3.335h-1.656v-3.634c-.483.437-.989.828-1.495 1.15l-1.15-.989c1.748-1.058 3.059-2.461 3.933-4.232l1.311.529c-.414.782-.851 1.518-1.357 2.162h6.049c-.552-.69-.966-1.403-1.288-2.162l1.265-.713c.69 1.702 1.955 3.059 3.795 4.071l-.989 1.173c-.598-.368-1.127-.736-1.587-1.15v3.795h-1.748v2.346c0 .368.161.575.483.575h1.242c.276 0 .483-.092.621-.253.184-.23.299-.828.345-1.817l1.38.437c-.092 1.058-.253 1.794-.437 2.208.414.023.828.046 1.196.046.483 0 .736-.299.736-.897v-10.81zm-5.267 6.831v-2.369h-5.566v2.369h5.566zm10.494-11.27h9.913c-.46-1.012-1.012-2.001-1.679-2.921l1.564-.575c.644.966 1.242 2.139 1.794 3.496h8.602v1.587h-12.121l-.207 4.094v.046h9.545c-.046 4.554-.23 7.475-.529 8.763-.46 1.955-1.587 2.967-3.404 3.036-.736 0-1.633-.046-2.645-.092l-.506-1.495c1.196.046 2.185.069 2.99.069 1.173-.046 1.886-.874 2.162-2.484.138-.966.207-3.059.253-6.233h-8.05c-.299 1.863-.874 3.542-1.702 5.06-1.127 1.978-2.691 3.772-4.715 5.405l-1.196-1.15c2.438-2.07 4.071-3.979 4.876-5.75.782-1.771 1.219-3.749 1.334-5.934.069-1.449.115-2.553.138-3.335h-6.417v-1.587zm23.144.713h11.247c-.069-1.311-.092-2.668-.092-4.071h1.702c0 1.426.023 2.783.092 4.071h7.107v1.61h-7.015c.276 3.864.874 7.061 1.771 9.637.966 2.53 1.84 3.818 2.599 3.818.46-.069.943-1.38 1.426-3.956l1.495.782c-.69 3.312-1.633 4.991-2.806 5.014-2.047-.092-3.749-2.668-5.129-7.682-.529-2.185-.874-4.715-1.058-7.613h-11.339v-1.61zm.345 5.428h9.752v1.564h-4.048v5.98c1.702-.322 3.335-.713 4.945-1.127v1.61c-3.312.805-6.9 1.472-10.718 2.024l-.391-1.564c1.518-.184 3.036-.414 4.508-.644v-6.279h-4.048v-1.564zm15.985-9.384c.759.92 1.472 1.932 2.162 3.036l-1.38.69c-.667-1.15-1.38-2.162-2.162-3.059l1.38-.667zm11.069 4.623c.391 0 .736.138 1.012.437.276.253.414.575.414.989 0 .391-.138.713-.414.989-.276.276-.621.414-1.012.414-.414 0-.736-.138-1.012-.414-.276-.276-.391-.598-.391-.989 0-.414.115-.736.391-.989.276-.299.598-.437 1.012-.437zm0 8.418c.391 0 .736.138 1.012.437.276.253.414.575.414.989 0 .391-.138.713-.414.989-.276.276-.621.414-1.012.414-.414 0-.736-.138-1.012-.414-.276-.276-.391-.598-.391-.989 0-.414.115-.736.391-.989.276-.299.598-.437 1.012-.437z" fill="#5F6368"/><path d="M125.367 19c-5.09 0-9.367-4.265-9.367-9.5s4.277-9.5 9.367-9.5c2.818 0 4.822 1.133 6.331 2.622l-1.776 1.827c-1.082-1.041-2.55-1.857-4.555-1.857-3.721 0-6.628 3.082-6.628 6.908 0 3.827 2.907 6.908 6.628 6.908 2.411 0 3.781-1 4.664-1.898.724-.745 1.191-1.806 1.369-3.265h-6.033v-2.602h8.494c.089.459.139 1.02.139 1.622 0 1.949-.516 4.357-2.183 6.071-1.627 1.735-3.691 2.663-6.45 2.663z" id="Shape" fill="#4285F4"/><path d="M148 13c0 3.456-2.69 6-6 6s-6-2.544-6-6c0-3.476 2.69-6 6-6s6 2.524 6 6zm-2.629 0c0-2.164-1.563-3.636-3.371-3.636-1.807 0-3.371 1.482-3.371 3.636 0 2.134 1.563 3.636 3.371 3.636 1.807 0 3.371-1.492 3.371-3.636z" id="Shape" fill="#E94235"/><path d="M161 13c0 3.456-2.69 6-6 6-3.299 0-6-2.544-6-6 0-3.476 2.69-6 6-6s6 2.524 6 6zm-2.619 0c0-2.164-1.563-3.636-3.371-3.636-1.807 0-3.371 1.482-3.371 3.636 0 2.134 1.563 3.636 3.371 3.636 1.807.01 3.371-1.492 3.371-3.636z" id="Shape" fill="#FABB05"/><path d="M173 7.362v10.531c0 4.336-2.499 6.107-5.457 6.107-2.786 0-4.452-1.908-5.084-3.465l2.192-.93c.393.959 1.35 2.085 2.891 2.085 1.896 0 3.064-1.204 3.064-3.445v-.842h-.086c-.565.714-1.656 1.331-3.025 1.331-2.872 0-5.495-2.554-5.495-5.843 0-3.308 2.633-5.892 5.495-5.892 1.369 0 2.46.626 3.025 1.311h.086v-.949h2.393zm-2.221 5.539c0-2.065-1.35-3.582-3.064-3.582-1.742 0-3.198 1.507-3.198 3.582 0 2.045 1.455 3.533 3.198 3.533 1.714 0 3.064-1.488 3.064-3.533z" id="Shape" fill="#4285F4"/><path fill="#34A853" d="M179 1v18h-3v-18z"/><path d="M188.844 14.973l2.046 1.362c-.662.982-2.256 2.664-5.014 2.664-3.419 0-5.876-2.634-5.876-6 0-3.566 2.487-6 5.585-6 3.119 0 4.643 2.474 5.144 3.816l.271.681-8.032 3.326c.612 1.202 1.574 1.823 2.918 1.823s2.276-.671 2.958-1.673zm-6.307-2.164l5.375-2.224c-.301-.751-1.183-1.272-2.236-1.272-1.344 0-3.209 1.182-3.139 3.496z" fill="#E94235"/></g></svg>