<?xml version="1.0" encoding="UTF-8"?>
<svg width="178px" height="26px" viewBox="0 0 178 26" version="1.1" xmlns="http://www.w3.org/2000/svg" xmlns:xlink="http://www.w3.org/1999/xlink">
    <!-- Generator: Sketch 62 (91390) - https://sketch.com -->
    <title>b-zh-cn-dk</title>
    <desc>Created with Sketch.</desc>
    <g id="Page-1" stroke="none" stroke-width="1" fill="none" fill-rule="evenodd">
        <g id="Artboard-Copy" transform="translate(-117.000000, -41.000000)" fill="#FFFFFF" fill-rule="nonzero">
            <g id="b-zh-cn-dk" transform="translate(117.000000, 41.000000)">
                <path d="M4.727,5.315 L5.9,4.165 C4.819,2.969 3.485,1.773 1.898,0.577 L0.771,1.658 C2.45,2.946 3.761,4.165 4.727,5.315 Z M9.051,17.85 L9.051,13.825 L12.892,13.825 L12.892,17.781 L14.433,17.781 L14.433,13.825 L18.297,13.825 L18.297,15.55 C18.297,16.056 18.021,16.332 17.469,16.332 L15.652,16.263 L16.02,17.666 L17.929,17.666 C19.217,17.666 19.861,17.068 19.861,15.895 L19.861,5.614 L15.307,5.614 L14.939,5.315 C16.549,4.441 18.044,3.406 19.424,2.21 L19.424,1.014 L6.981,1.014 L6.981,2.417 L17.193,2.417 C16.181,3.199 15.077,3.889 13.881,4.51 C13.099,3.935 12.202,3.36 11.236,2.785 L10.224,3.774 C11.351,4.372 12.363,4.993 13.237,5.614 L7.487,5.614 L7.487,17.85 L9.051,17.85 Z M18.297,9.064 L14.433,9.064 L14.433,6.994 L18.297,6.994 L18.297,9.064 Z M12.892,9.064 L9.051,9.064 L9.051,6.994 L12.892,6.994 L12.892,9.064 Z M1.507,21.346 C2.772,19.23 3.692,18.172 4.244,18.172 C4.52,18.172 4.819,18.356 5.141,18.747 C5.854,19.575 6.682,20.15 7.602,20.426 C8.522,20.679 9.741,20.817 11.236,20.84 C12.708,20.863 14.088,20.886 15.353,20.886 L20.574,20.886 L20.965,19.23 C20.367,19.276 19.516,19.299 18.412,19.322 C17.285,19.345 16.181,19.368 15.123,19.368 C13.306,19.368 11.788,19.345 10.569,19.322 C9.189,19.276 8.154,19.092 7.418,18.77 C6.774,18.471 6.176,17.988 5.624,17.321 C5.417,17.091 5.233,16.93 5.049,16.792 L5.049,8.19 L0.242,8.19 L0.242,9.708 L3.508,9.708 L3.508,16.7 C2.565,17.114 1.484,18.287 0.265,20.219 L1.507,21.346 Z M12.892,12.468 L9.051,12.468 L9.051,10.444 L12.892,10.444 L12.892,12.468 Z M18.297,12.468 L14.433,12.468 L14.433,10.444 L18.297,10.444 L18.297,12.468 Z M37.823,17.804 C39.203,17.804 39.916,17.114 39.916,15.78 L39.916,5.614 L43.32,5.614 L43.32,3.981 L39.916,3.981 L39.916,0.255 L38.237,0.255 L38.237,3.981 L29.543,3.981 L29.543,5.614 L38.237,5.614 L38.237,15.389 C38.237,16.01 37.892,16.332 37.248,16.332 C36.282,16.332 35.247,16.286 34.189,16.217 L34.557,17.804 L37.823,17.804 Z M27.266,5.384 L28.462,4.165 C27.404,2.969 26.093,1.75 24.529,0.531 L23.379,1.612 C25.035,2.946 26.323,4.211 27.266,5.384 Z M34.097,13.066 L35.431,12.146 C34.649,10.858 33.522,9.363 32.05,7.661 L30.762,8.489 C32.165,10.168 33.269,11.686 34.097,13.066 Z M24.184,21.392 C25.472,19.23 26.415,18.172 26.967,18.172 C27.266,18.172 27.588,18.356 27.91,18.747 C28.646,19.575 29.497,20.15 30.463,20.426 C31.406,20.679 32.671,20.817 34.235,20.84 C35.776,20.863 37.202,20.886 38.513,20.886 L43.366,20.886 L43.78,19.207 C43.228,19.253 42.423,19.276 41.388,19.299 C40.33,19.299 39.318,19.322 38.306,19.322 C36.42,19.322 34.833,19.299 33.568,19.276 C32.142,19.23 31.038,19.069 30.302,18.77 C29.718375,18.48825 29.1699687,18.0832344 28.641373,17.5549531 L28.416,17.321 C28.209,17.091 28.002,16.93 27.818,16.792 L27.818,8.167 L22.919,8.167 L22.919,9.731 L26.231,9.731 L26.231,16.7 C25.265,17.114 24.184,18.31 22.942,20.288 L24.184,21.392 Z" id="通过"></path>
                <path d="M140.532,5.108 L141.659,3.958 C140.601,2.762 139.29,1.589 137.749,0.416 L136.576,1.543 C138.232,2.785 139.566,3.981 140.532,5.108 Z M149.157,21.139 C150.583,21.139 151.319,20.403 151.319,18.977 L151.319,3.13 L156.149,3.13 L156.149,1.52 L142.832,1.52 L142.832,3.13 L149.617,3.13 L149.617,18.563 C149.617,19.276 149.272,19.644 148.582,19.644 C147.708,19.644 146.765,19.598 145.799,19.529 L146.144,21.139 L149.157,21.139 Z M138.508,20.472 C140.21,19.414 141.82,18.218 143.315,16.861 L142.878,15.113 C141.843,16.056 140.877,16.861 140.003,17.551 L140.003,7.247 L135.035,7.247 L135.035,8.834 L138.416,8.834 L138.416,18.011 C138.416,18.379 138.232,18.701 137.887,19 L138.508,20.472 Z M163.209,4.372 L164.658,3.613 C163.945,2.325 163.117,1.129 162.174,0.048 L160.656,0.715 C161.576,1.773 162.427,2.992 163.209,4.372 Z M175.468,21.162 C176.848,21.162 177.538,20.472 177.538,19.138 L177.538,1.29 L166.866,1.29 L166.866,2.808 L175.928,2.808 L175.928,18.655 C175.928,19.345 175.652,19.69 175.123,19.69 L173.559,19.644 L173.95,21.162 L175.468,21.162 Z M160.403,21.277 L160.403,3.889 L158.793,3.889 L158.793,21.277 L160.403,21.277 Z M162.427,20.242 C165.325,19 166.935,17.045 167.211,14.354 L168.959,14.354 L168.959,18.057 C168.959,19.207 169.465,19.805 170.5,19.805 L172.156,19.805 C172.846,19.805 173.352,19.644 173.674,19.368 C174.065,19.023 174.318,18.057 174.456,16.47 L173.03,16.01 C172.961,17.114 172.823,17.804 172.639,18.057 C172.478,18.241 172.225,18.333 171.88,18.333 L170.96,18.333 C170.592,18.333 170.408,18.126 170.408,17.735 L170.408,14.354 L172.846,14.354 L172.846,8.167 L170.408,8.167 C171.029,7.155 171.604,6.028 172.11,4.74 L170.546,4.211 C170.04,5.614 169.465,6.925 168.821,8.167 L163.462,8.167 L163.462,14.354 L165.785,14.354 C165.532,16.447 164.129,17.965 161.576,18.885 L162.427,20.242 Z M166.084,7.983 L167.418,7.316 C166.843,6.258 166.245,5.315 165.601,4.464 L164.198,5.131 C164.865,5.959 165.486,6.902 166.084,7.983 Z M171.328,12.974 L164.957,12.974 L164.957,9.547 L171.328,9.547 L171.328,12.974 Z" id="订阅"></path>
                <g id="Group" transform="translate(52.000000, 2.000000)">
                    <path d="M9.36714443,19 C4.27673649,19 0,14.7346939 0,9.5 C0,4.26530612 4.27673649,0 9.36714443,0 C12.185226,0 14.1896362,1.13265306 15.6979052,2.62244898 L13.92172,4.44897959 C12.8401323,3.40816327 11.3715546,2.59183673 9.36714443,2.59183673 C5.646086,2.59183673 2.73869901,5.67346939 2.73869901,9.5 C2.73869901,13.3265306 5.646086,16.4081633 9.36714443,16.4081633 C11.7783903,16.4081633 13.1477398,15.4081633 14.030871,14.5102041 C14.755237,13.7653061 15.2216097,12.7040816 15.4002205,11.244898 L9.36714443,11.244898 L9.36714443,8.64285714 L17.8610805,8.64285714 C17.9503859,9.10204082 18,9.66326531 18,10.2653061 C18,12.2142857 17.4840132,14.622449 15.8169791,16.3367347 C14.1896362,18.0714286 12.1256891,19 9.36714443,19 Z" id="Shape"></path>
                    <path d="M32,13 C32,16.4557596 29.3096447,19 26,19 C22.6903553,19 20,16.4557596 20,13 C20,9.52420701 22.6903553,7 26,7 C29.3096447,7 32,9.52420701 32,13 Z M29.3705584,13 C29.3705584,10.836394 27.8071066,9.3639399 26,9.3639399 C24.1928934,9.3639399 22.6294416,10.8464107 22.6294416,13 C22.6294416,15.1335559 24.1928934,16.6360601 26,16.6360601 C27.8071066,16.6360601 29.3705584,15.1435726 29.3705584,13 Z" id="Shape"></path>
                    <path d="M45,13 C45,16.4557596 42.3096447,19 39,19 C35.7005076,19 33,16.4557596 33,13 C33,9.52420701 35.6903553,7 39,7 C42.3096447,7 45,9.52420701 45,13 Z M42.3807107,13 C42.3807107,10.836394 40.8172589,9.3639399 39.0101523,9.3639399 C37.2030457,9.3639399 35.6395939,10.8464107 35.6395939,13 C35.6395939,15.1335559 37.2030457,16.6361099 39.0101523,16.6361099 C40.8172589,16.6460768 42.3807107,15.1435726 42.3807107,13 Z" id="Shape"></path>
                    <path d="M57,7.3621186 L57,17.8929188 C57,22.228555 54.5013055,24 51.5430809,24 C48.7571802,24 47.0913838,22.0915371 46.45953,20.5354059 L48.6518712,19.6056419 C49.0443864,20.5647668 50.0017406,21.6902706 51.5430809,21.6902706 C53.4386423,21.6902706 54.6066144,20.4864709 54.6066144,18.2452504 L54.6066144,17.4035694 L54.5204526,17.4035694 C53.9556136,18.1180196 52.8642298,18.7345999 51.4952132,18.7345999 C48.6231506,18.7345999 46,16.1801957 46,12.8917674 C46,9.58376511 48.6327241,7 51.4952132,7 C52.8642298,7 53.9556136,7.6263673 54.5204526,8.31145653 L54.6066144,8.31145653 L54.6066144,7.3621186 L57,7.3621186 Z M54.7789382,12.9015544 C54.7789382,10.8364997 53.4290688,9.31951641 51.7154047,9.31951641 C49.97302,9.31951641 48.5178416,10.8267127 48.5178416,12.9015544 C48.5178416,14.9470351 49.97302,16.4346575 51.7154047,16.4346575 C53.4290688,16.4346575 54.7789382,14.9470351 54.7789382,12.9015544 Z" id="Shape"></path>
                    <polygon id="Shape" points="63 1 63 19 60 19 60 1"></polygon>
                    <path d="M72.8441203,14.9732888 L74.8896992,16.3355593 C74.2278943,17.3171953 72.633546,19 69.8760255,19 C66.4567001,19 64,16.3656093 64,13 C64,9.43405676 66.4867821,7 69.5852325,7 C72.7037375,7 74.2278943,9.47412354 74.7292616,10.8163606 L75,11.4974958 L66.9680948,14.8230384 C67.579763,16.0250417 68.5423883,16.6460768 69.8860529,16.6460768 C71.2297174,16.6460768 72.1622607,15.9749583 72.8441203,14.9732888 Z M66.5369189,12.8096828 L71.911577,10.5859766 C71.6107566,9.83472454 70.72835,9.31385643 69.6754786,9.31385643 C68.331814,9.31385643 66.4667274,10.4958264 66.5369189,12.8096828 Z" id="Shape"></path>
                </g>
            </g>
        </g>
    </g>
</svg>